<?xml version="1.0" encoding="UTF-8" standalone="no"?>
<svg width="254px" height="316px" viewBox="0 0 254 316" version="1.1" xmlns="http://www.w3.org/2000/svg" xmlns:xlink="http://www.w3.org/1999/xlink">
    <defs></defs>
    <g stroke="none" stroke-width="1" fill="none" fill-rule="evenodd">
        <g transform="translate(-0.000000, -0.000000)">
            <path d="M0,0 L0,170.601294 L126.983643,242.987254 L126.983643,193.782939 L42.0333764,145.357751 L42.0333764,69.2957834 L126.983643,117.720971 L126.983643,72.3859601 L0,0 L0,0 Z" fill="#002A41"></path>
            <path d="M253.967287,0 L253.967287,170.601294 L126.983643,242.987254 L126.983643,193.782939 L211.93391,145.357751 L211.93391,69.2957834 L126.983643,117.720971 L126.983643,72.3859601 L253.967287,0 L253.967287,0 Z" fill="#0071B5"></path>
            <path d="M0,315.448835 L0,144.847541 L126.983643,72.4615805 L126.983643,121.665896 L42.0333764,170.091083 L42.0333764,242.283743 L126.983643,193.858559 L126.983643,243.062875 L0,315.448835 L0,315.448835 Z" fill="#0071B5"></path>
            <path d="M253.967287,315.448835 L253.967287,144.847541 L126.983643,72.4615805 L126.983643,121.665896 L211.93391,170.091083 L211.93391,242.283743 L126.983643,193.858559 L126.983643,243.062875 L253.967287,315.448835 L253.967287,315.448835 Z" fill="#002A41"></path>
        </g>
    </g>
</svg>