<?xml version="1.0" encoding="UTF-8" standalone="no"?><svg width="257px" height="46px" viewBox="0 0 257 46" version="1.1" xmlns="http://www.w3.org/2000/svg" xmlns:xlink="http://www.w3.org/1999/xlink"><g transform="translate(0.470080, 0.267100)"><g transform="translate(51.995560, 10.512764)" fill="#002A41"><path d="M0.0159038224,0.43272808 L6.69714923,0.43272808 C9.70730662,0.432756493 11.9177248,0.943705216 13.3284104,1.96560266 C14.7390622,2.98752852 15.4443976,4.53148413 15.4444147,6.59746948 C15.4443976,8.0081687 15.0139766,9.18278535 14.1531518,10.1213762 C13.2922937,11.0599956 12.0343549,11.6625758 10.3793319,11.9291454 L10.3793319,12.0291019 C12.3231533,12.3179188 13.7532605,12.9316368 14.6696581,13.8701993 C15.5860187,14.8088186 16.0442076,16.1167485 16.0442275,17.7939889 C16.0442076,20.0377252 15.2999977,21.7649723 13.8115921,22.9757017 C12.3231533,24.1864311 10.2127038,24.7917958 7.48023789,24.7917958 L0.0159038224,24.7917958 L0.0159038224,0.43272808 Z M1.71537275,11.279343 L7.08036305,11.279343 C9.368524,11.2793714 11.0318912,10.898923 12.0704702,10.1380262 C13.1090179,9.37718624 13.6283006,8.18589123 13.6283177,6.56416959 C13.6283006,4.94244795 13.042372,3.76504684 11.8705328,3.03193785 C10.6986625,2.29885727 8.95198785,1.93230277 6.63050342,1.93227436 L1.71537275,1.93227436 L1.71537275,11.279343 Z M1.71537275,12.7788892 L1.71537275,23.2922495 L7.44691498,23.2922495 C11.9566013,23.2922779 14.2114493,21.4595054 14.2114664,17.7939889 C14.2114493,14.4505891 11.8344174,12.7788892 7.08036305,12.7788892 L1.71537275,12.7788892 Z"></path><path d="M33.1388875,16.1944861 L23.2419786,16.1944861 L19.843043,24.7917958 L17.960298,24.7917958 L27.7572361,0.332771587 L28.8402298,0.332771587 L38.4372322,24.7917958 L36.5211646,24.7917958 L33.1388875,16.1944861 Z M23.8584527,14.66164 L32.5723972,14.66164 L29.2567654,5.88103885 C28.9790636,5.192396 28.6458346,4.23712675 28.2570783,3.01525949 C27.9571633,4.08162309 27.629489,5.04797336 27.2740525,5.91436715 L23.8584527,14.66164 Z"></path><path d="M52.2662414,1.61569811 C49.2116301,1.61572653 46.8068297,2.59318624 45.051829,4.54813407 C43.2968169,6.50308191 42.4193165,9.1800293 42.4193193,12.5789478 C42.4193165,16.0556324 43.2468329,18.7547987 44.9018772,20.6764182 C46.5569073,22.5980377 48.9228331,23.5588475 51.9996576,23.5588475 C54.0434497,23.5588475 55.9206372,23.2978184 57.6312314,22.7757603 L57.6312314,24.2752781 C56.0206079,24.841774 54.0101271,25.125022 51.5997834,25.125022 C48.1786204,25.125022 45.4850202,24.019818 43.5189743,21.8093816 C41.5529199,19.5989736 40.5698941,16.5110624 40.5698969,12.5456195 C40.5698941,10.068642 41.0391924,7.88599334 41.9777918,5.9976737 C42.9163827,4.10938246 44.2659573,2.65151787 46.0265241,1.62402309 C47.7870768,0.596613541 49.8336561,0.0828803552 52.1662736,0.0828519423 C54.5432918,0.0828803552 56.6704018,0.527172475 58.547612,1.41575671 L57.8644926,2.9486313 C56.0872531,2.06001865 54.2211722,1.61572653 52.2662414,1.61569811 L52.2662414,1.61569811 Z"></path><path d="M79.4410818,24.7917958 L77.3583982,24.7917958 L68.0113183,11.9291454 L64.7623345,14.7949248 L64.7623345,24.7917958 L63.0628667,24.7917958 L63.0628667,0.43272808 L64.7623345,0.43272808 L64.7623345,13.0954371 L67.4614922,10.3962992 L77.0085079,0.43272808 L79.174498,0.43272808 L69.1942826,10.7295254 L79.4410818,24.7917958 Z"></path><path d="M82.9233325,0.43272808 L89.6045773,0.43272808 C92.6147367,0.432756493 94.8251532,0.943705216 96.2358382,1.96560266 C97.646492,2.98752852 98.3518274,4.53148413 98.3518444,6.59746948 C98.3518274,8.0081687 97.9214064,9.18278535 97.0605816,10.1213762 C96.1997226,11.0599956 94.9417852,11.6625758 93.2867608,11.9291454 L93.2867608,12.0291019 C95.2305822,12.3179188 96.6606903,12.9316368 97.5770879,13.8701993 C98.4934485,14.8088186 98.9516374,16.1167485 98.9516573,17.7939889 C98.9516374,20.0377252 98.2074275,21.7649723 96.7190219,22.9757017 C95.2305822,24.1864311 93.1201335,24.7917958 90.3876674,24.7917958 L82.9233325,24.7917958 L82.9233325,0.43272808 Z M84.6228031,11.279343 L89.9877931,11.279343 C92.2759529,11.2793714 93.9393193,10.898923 94.977898,10.1380262 C96.0164482,9.37718624 96.5357276,8.18589123 96.5357446,6.56416959 C96.5357276,4.94244795 95.9498001,3.76504684 94.7779623,3.03193785 C93.6060931,2.29885727 91.8594174,1.93230277 89.5379321,1.93227436 L84.6228031,1.93227436 L84.6228031,11.279343 Z M84.6228031,12.7788892 L84.6228031,23.2922495 L90.3543448,23.2922495 C94.8640305,23.2922779 97.1188791,21.4595054 97.1188962,17.7939889 C97.1188791,14.4505891 94.7418467,12.7788892 89.9877931,12.7788892 L84.6228031,12.7788892 Z"></path><path d="M124.793582,12.5789478 C124.793556,16.4444058 123.827191,19.5017731 121.894485,21.7510784 C119.961739,24.0003836 117.295907,25.125022 113.896986,25.125022 C110.509145,25.125022 107.848868,24.0003836 105.916147,21.7510784 C103.983413,19.5017731 103.017051,16.4332963 103.017051,12.5456195 C103.017051,8.66908058 103.991743,5.61725372 105.941139,3.39013896 C107.890521,1.16308102 110.553577,0.0495520533 113.930308,0.0495236404 C117.32923,0.0495520533 119.989507,1.16864994 121.911147,3.40681731 C123.832746,5.6450131 124.793556,8.70238047 124.793582,12.5789478 L124.793582,12.5789478 Z M104.866473,12.5789478 C104.86647,16.0667418 105.644003,18.7631236 107.199079,20.6680932 C108.754142,22.5730344 110.986774,23.5255192 113.896986,23.5255192 C116.829387,23.5255192 119.070351,22.5813878 120.619884,20.6930681 C122.16938,18.8047769 122.944136,16.1000701 122.944159,12.5789478 C122.944136,9.06893496 122.16938,6.37812209 120.619884,4.50645239 C119.070351,2.63483951 116.840494,1.69903307 113.930308,1.69900466 C111.031203,1.69903307 108.795795,2.6431929 107.224071,4.53145572 C105.652337,6.41977536 104.86647,9.10226326 104.866473,12.5789478 L104.866473,12.5789478 Z"></path><path d="M148.086297,24.7917958 L146.370168,24.7917958 L131.941343,3.16522264 L131.808053,3.16522264 C131.941337,5.74221354 132.007985,7.68605194 132.007988,8.99673785 L132.007988,24.7917958 L130.375166,24.7917958 L130.375166,0.43272808 L132.074636,0.43272808 L146.486797,22.0260013 L146.586768,22.0260013 C146.486777,20.0266158 146.436793,18.1272151 146.436813,16.3277709 L146.436813,0.43272808 L148.086297,0.43272808 L148.086297,24.7917958 Z"></path><path d="M168.279992,24.7917958 L154.967486,24.7917958 L154.967486,0.43272808 L168.279992,0.43272808 L168.279992,1.99893097 L156.666954,1.99893097 L156.666954,11.2127148 L167.630195,11.2127148 L167.630195,12.7788892 L156.666954,12.7788892 L156.666954,23.2256213 L168.279992,23.2256213 L168.279992,24.7917958 Z"></path><path d="M173.078483,23.4921909 C173.07848,22.4036653 173.522784,21.8593882 174.411399,21.8593882 C175.322219,21.8593882 175.777632,22.4036653 175.777638,23.4921909 C175.777632,24.580745 175.322219,25.125022 174.411399,25.125022 C173.522784,25.125022 173.07848,24.580745 173.078483,23.4921909 L173.078483,23.4921909 Z"></path><path d="M177.960289,30.9398588 C176.938389,30.9398588 176.099763,30.7899241 175.444409,30.4900262 L175.444409,29.0238082 C176.310808,29.2459401 177.138325,29.3570344 177.926967,29.3570344 C180.615012,29.3570344 181.959038,27.8908164 181.959041,24.9584089 L181.959041,0.43272808 L183.658509,0.43272808 L183.658509,24.7917958 C183.658503,28.890495 181.759099,30.9398588 177.960289,30.9398588 L177.960289,30.9398588 Z"></path><path d="M203.86887,18.5104195 C203.868853,20.5431334 203.121867,22.1537456 201.627904,23.3422562 C200.133913,24.5307667 198.148427,25.125022 195.671432,25.125022 C192.694581,25.125022 190.411962,24.7973363 188.823574,24.1419933 L188.823574,22.4425341 C190.578578,23.1867525 192.816765,23.5588475 195.538142,23.5588475 C197.537504,23.5588475 199.123119,23.1006615 200.294988,22.1842895 C201.466829,21.267889 202.052756,20.0654846 202.052773,18.5770761 C202.052756,17.6551352 201.858372,16.8914824 201.469622,16.2861176 C201.08084,15.6807529 200.447705,15.1281509 199.570215,14.6283117 C198.692698,14.1284724 197.404214,13.5897643 195.704755,13.0121305 C193.216639,12.1568746 191.497731,11.2321492 190.548034,10.2380111 C189.598328,9.24390144 189.123478,7.91929323 189.123481,6.26424329 C189.123478,4.44260866 189.837141,2.95698468 191.264476,1.80731454 C192.691802,0.657701221 194.527339,0.0828803552 196.77109,0.0828519423 C199.05925,0.0828803552 201.208579,0.516063041 203.219074,1.38245683 L202.602599,2.84864639 C200.580995,2.00449989 198.648269,1.58239822 196.804413,1.58236981 C195.004966,1.58239822 193.572082,1.99893097 192.505755,2.83199645 C191.439417,3.66509034 190.906252,4.79805372 190.906255,6.23091498 C190.906252,7.13066548 191.070089,7.86931498 191.397769,8.4468919 C191.725438,9.02452564 192.261381,9.54379933 193.0056,10.0047414 C193.749804,10.4657403 195.027182,11.0183423 196.837735,11.6625758 C198.73713,12.3179188 200.164459,12.9538273 201.119731,13.5703014 C202.074972,14.1867756 202.771977,14.8865563 203.210743,15.6696435 C203.649477,16.4527307 203.868853,17.399675 203.86887,18.5104195 L203.86887,18.5104195 Z"></path></g><g transform="translate(0.177990, 0.000369)"><path d="M0,0 L0,24.6572183 L18.3531047,35.1192516 L18.3531047,28.0076904 L6.07513644,21.0087375 L6.07513644,10.0154062 L18.3531047,17.0143591 L18.3531047,10.4620333 L0,0 L0,0 Z" fill="#002A41"></path><path d="M36.7062095,0 L36.7062095,24.6572183 L18.3531047,35.1192516 L18.3531047,28.0076904 L30.631073,21.0087375 L30.631073,10.0154062 L18.3531047,17.0143591 L18.3531047,10.4620333 L36.7062095,0 L36.7062095,0 Z" fill="#0071B5"></path><path d="M0,45.5922144 L0,20.9349961 L18.3531047,10.4729628 L18.3531047,17.584524 L6.07513644,24.5834769 L6.07513644,35.0175723 L18.3531047,28.0186199 L18.3531047,35.1301811 L0,45.5922144 L0,45.5922144 Z" fill="#0071B5"></path><path d="M36.7062095,45.5922144 L36.7062095,20.9349961 L18.3531047,10.4729628 L18.3531047,17.584524 L30.631073,24.5834769 L30.631073,35.0175723 L18.3531047,28.0186199 L18.3531047,35.1301811 L36.7062095,45.5922144 L36.7062095,45.5922144 Z" fill="#002A41"></path></g></g></svg>