<?xml version="1.0" encoding="UTF-8" standalone="no" ?>
<svg width="256px" height="252px" viewBox="0 0 256 252" version="1.1" xmlns="http://www.w3.org/2000/svg" xmlns:xlink="http://www.w3.org/1999/xlink" preserveAspectRatio="xMinYMin meet">
    <g fill="#CB4B4E">
        <path d="M0.199,0.499 C0,0.699 0.199,0.499 0,0.699 C1.091,1.959 1.939,3.459 3.079,4.672 C21.128,23.887 39.178,43.101 57.25,62.294 C106.984,115.113 156.725,167.925 206.473,220.73 C210.299,224.79 214.037,228.956 218.126,232.739 C221.972,236.297 228.156,235.976 231.763,232.504 C235.541,228.866 235.898,223.209 232.527,218.916 C231.583,217.714 230.42,216.675 229.301,215.622 C160.228,150.587 91.151,85.557 22.066,20.535 C14.87,13.762 7.423,7.243 0.199,0.499"></path>
        <path d="M69.979,23.529 C69.793,23.73 69.979,23.529 69.793,23.73 C69.967,24.061 139.722,99.413 174.463,136.994 C194.054,158.187 213.626,179.398 233.21,200.598 C238.01,205.795 244.65,206.55 248.985,202.407 C253.682,197.919 253.112,191.719 247.469,186.364 C243.839,182.92 240.184,179.502 236.51,176.106 C197.651,140.185 158.797,104.261 119.92,68.361 C103.393,53.101 86.535,38.758 69.979,23.529"></path>
        <path d="M20.995,70.458 C20.808,70.66 20.995,70.458 20.808,70.66 C20.983,70.991 90.738,146.342 125.479,183.924 C145.07,205.117 164.642,226.328 184.225,247.527 C189.026,252.724 195.665,253.48 200.001,249.337 C204.697,244.849 204.127,238.648 198.484,233.293 C194.855,229.849 191.199,226.432 187.525,223.035 C148.667,187.115 109.813,151.19 70.935,115.291 C54.409,100.03 37.55,85.688 20.995,70.458"></path>
        <path d="M130.943,45.026 C130.751,45.296 130.943,45.026 130.751,45.296 C131.39,45.986 139.139,53.371 139.777,54.062 C167.279,83.867 194.777,113.676 222.286,143.474 C229.457,151.241 236.627,159.01 243.876,166.704 C246.972,169.99 250.666,170.682 253.945,167.263 C257.189,163.883 256.339,160.265 253.166,157.101 C252.487,156.424 251.751,155.802 251.046,155.15 C229.881,135.571 208.729,115.978 187.547,96.417 C171.196,81.318 147.315,60.103 130.943,45.026"></path>
        <path d="M39.594,127.262 C39.401,127.533 39.594,127.262 39.401,127.533 C40.04,128.223 47.789,135.607 48.427,136.299 C75.929,166.103 103.427,195.912 130.937,225.71 C138.108,233.477 145.277,241.247 152.527,248.94 C155.623,252.226 159.316,252.918 162.596,249.5 C165.839,246.119 164.989,242.501 161.817,239.338 C161.137,238.66 160.402,238.038 159.696,237.386 C138.531,217.807 117.379,198.215 96.197,178.654 C79.846,163.554 55.965,142.34 39.594,127.262"></path>
        <path d="M188.993,70.458 C188.719,70.785 188.993,70.458 188.719,70.785 C202.76,86.05 224.948,109.725 239.162,124.827 C240.418,126.162 242.965,128.554 245.123,126.395 C247.282,124.236 245.382,121.759 243.445,119.969 C233.71,110.977 223.949,102.012 214.175,93.062 C208.722,88.068 194.469,75.426 188.993,70.458"></path>
        <path d="M67.635,183.873 C67.361,184.2 67.635,183.873 67.361,184.2 C81.402,199.465 103.59,223.14 117.804,238.242 C119.06,239.577 121.606,241.969 123.765,239.81 C125.924,237.651 124.024,235.173 122.087,233.384 C112.352,224.392 102.591,215.427 92.817,206.476 C87.364,201.483 73.111,188.841 67.635,183.873"></path>
    </g>
</svg>
