<?xml version="1.0" encoding="UTF-8" standalone="no"?><svg width="254" height="177" viewBox="0 0 254 177" xmlns="http://www.w3.org/2000/svg" preserveAspectRatio="xMinYMin meet"><g fill="none"><path d="M50.789 88.6l-25.402-44 25.402-44 25.408 44-25.408 44z" fill="#303F9F"/><path d="M203.211 176.6l-25.408-44 25.408-44 25.402 44-25.402 44z" fill="#3F51B5"/><path d="M228.613 132.6l-76.211-132h50.81l50.81 88-25.408 44z" fill="#7986CB"/><path d="M152.402 176.6l-101.613-176h50.81l101.613 176h-50.81z" fill="#FF4081"/><path d="M50.789 176.6l-50.81-88 25.408-44 76.211 132h-50.81z" fill="#536DFE"/><path d="M152.402 176.6l25.402-44 25.408 44h-50.81z" fill-opacity=".2" fill="#fff"/><path d="M127 132.6l25.402 44 25.402-44h-50.803z" fill-opacity=".1" fill="#fff"/><path d="M127 132.6l25.402-44 25.402 44h-50.803z" fill="none"/><path d="M101.598 88.6l25.402 44 25.402-44h-50.803z" fill-opacity=".1" fill="#000"/><path d="M101.598 88.6l25.402-44 25.402 44h-50.803z" fill-opacity=".2" fill="#000"/><path d="M76.197 44.6l25.402 44 25.402-44h-50.803z" fill-opacity=".3" fill="#000"/><path d="M76.197 44.6l25.402-44 25.402 44h-50.803z" fill-opacity=".4" fill="#000"/><path d="M50.789.6l25.408 44 25.402-44h-50.81z" fill-opacity=".5" fill="#000"/><path d="M50.789 176.6l25.408-44 25.402 44h-50.81z" fill-opacity=".2" fill="#fff"/><path d="M25.387 132.6l25.402 44 25.408-44h-50.81z" fill-opacity=".1" fill="#fff"/><path d="M25.387 132.6l25.402-44 25.408 44h-50.81z" fill="none"/><path d="M-.021 88.6l25.408 44 25.402-44h-50.81z" fill-opacity=".1" fill="#000"/><path d="M-.021 88.6l25.408-44 25.402 44h-50.81z" fill-opacity=".2" fill="#000"/><path d="M76.197 44.6l-25.408 44-25.402-44h50.81z" fill="none"/><path d="M76.197 44.6l-25.408-44-25.402 44h50.81zM228.613 132.6l-25.402 44-25.408-44h50.81z" fill-opacity=".2" fill="#000"/><path d="M228.613 132.6l-25.402-44-25.408 44h50.81z" fill="none"/><g><path d="M203.211 88.6l25.402 44 25.408-44h-50.81z" fill-opacity=".2" fill="#fff"/><path d="M203.211 88.6l25.402-44 25.408 44h-50.81z" fill-opacity=".1" fill="#fff"/><path d="M177.803 44.6l25.408 44 25.402-44h-50.81z" fill="none"/><path d="M177.803 44.6l25.408-44 25.402 44h-50.81z" fill-opacity=".1" fill="#000"/><path d="M152.402.6l25.402 44 25.408-44h-50.81z" fill-opacity=".2" fill="#000"/></g></g></svg>