<?xml version="1.0" encoding="UTF-8" standalone="no"?>
<svg width="16px" height="12px" viewBox="0 0 16 12" version="1.1" xmlns="http://www.w3.org/2000/svg" xmlns:xlink="http://www.w3.org/1999/xlink">
    <defs></defs>
    <g stroke="none" stroke-width="1" fill="none" fill-rule="evenodd">
        <g fill="#0A0B09">
            <path d="M1.344,10.41536 C2.048,11.11936 2.89536,11.46432 3.88672,11.46432 L12.60608,11.46432 C13.45408,11.46432 14.17216,11.16288 14.77568,10.55936 C15.37856,9.95584 15.68064,9.23776 15.68064,8.3904 C15.68064,7.6576 15.45088,7.02528 15.00544,6.46528 C14.56,5.90528 13.98528,5.5456 13.296,5.38752 C13.52576,5.0432 13.62624,4.68416 13.62624,4.2816 C13.62624,3.70688 13.42528,3.23328 13.02272,2.83072 C12.6208,2.4288 12.14656,2.2272 11.57184,2.2272 C11.06944,2.2272 10.624,2.4 10.25024,2.73024 C9.93408,1.96864 9.43168,1.35104 8.74176,0.8768 C8.05248,0.4032 7.29088,0.17344 6.44352,0.17344 C5.32288,0.17344 4.34624,0.57536 3.54176,1.37984 C2.752,2.18432 2.34944,3.14688 2.34944,4.2816 C2.34944,4.35328 2.34944,4.46848 2.36416,4.62656 C1.74592,4.91392 1.24352,5.34464 0.86976,5.93344 C0.48192,6.52288 0.29504,7.16928 0.29504,7.87328 C0.29504,8.864 0.64,9.712 1.344,10.41536"></path>
        </g>
    </g>
</svg>