<?xml version="1.0" encoding="UTF-8" standalone="no"?>
<svg width="16px" height="23px" viewBox="0 0 16 23" version="1.1" xmlns="http://www.w3.org/2000/svg" xmlns:xlink="http://www.w3.org/1999/xlink">
    <defs></defs>
    <g stroke="none" stroke-width="1" fill="none" fill-rule="evenodd">
        <g fill="#0A0B09">
            <path d="M0.590769231,22.0430769 L11.4473846,22.0430769 C11.5864615,22.0430769 11.7243077,21.9876923 11.8067692,21.9052308 C11.8904615,21.8215385 11.9446154,21.6836923 11.9446154,21.5458462 L11.9446154,8.23015385 L14.9009231,8.23015385 C15.3156923,8.23015385 15.6196923,8.03692308 15.8129231,7.65046154 C15.9790769,7.29107692 15.9507692,6.93169231 15.6467692,6.62769231 L10.7298462,0.688 C10.5366154,0.467692308 10.288,0.356923077 9.984,0.356923077 C9.65169231,0.356923077 9.40307692,0.467692308 9.20984615,0.688 L4.29292308,6.60061538 C4.01723077,6.93169231 3.96184615,7.29107692 4.12676923,7.65046154 C4.32,8.03692308 4.624,8.23015385 5.03876923,8.23015385 L7.99507692,8.23015385 L7.99507692,18.0923077 L3.04984615,18.0923077 C2.88369231,18.0923077 2.77292308,18.1476923 2.66338462,18.2584615 L0.204307692,21.2147692 C0.0935384615,21.3796923 0.0664615385,21.5458462 0.148923077,21.7661538 C0.231384615,21.9606154 0.370461538,22.0430769 0.590769231,22.0430769"></path>
        </g>
    </g>
</svg>