<?xml version="1.0" encoding="UTF-8" standalone="no"?>
<svg width="18px" height="15px" viewBox="0 0 18 15" version="1.1" xmlns="http://www.w3.org/2000/svg" xmlns:xlink="http://www.w3.org/1999/xlink">
        <g transform="translate(1.000000, 1.000000)">
            <path d="M0.0985263158,13.1242105 C0.230736842,13.2564211 0.382315789,13.3322105 0.570947368,13.3322105 L15.4088421,13.3322105 C15.5974737,13.3322105 15.7490526,13.2564211 15.9006316,13.1242105 C16.0328421,12.992 16.0892632,12.8404211 16.0892632,12.6517895 L16.0892632,11.3094737 C16.0892632,11.1208421 16.0328421,10.9692632 15.9006316,10.8370526 C15.7490526,10.7048421 15.5974737,10.6290526 15.4088421,10.6290526 L0.570947368,10.6290526 C0.382315789,10.6290526 0.230736842,10.7048421 0.0985263158,10.8370526 C-0.0336842105,10.9692632 -0.109473684,11.1208421 -0.109473684,11.3094737 L-0.109473684,12.6517895 C-0.109473684,12.8404211 -0.0336842105,12.992 0.0985263158,13.1242105 L0.0985263158,13.1242105 Z M0.0985263158,7.71873684 C0.230736842,7.85094737 0.382315789,7.92589474 0.570947368,7.92589474 L15.4088421,7.92589474 C15.5974737,7.92589474 15.7490526,7.85094737 15.9006316,7.71873684 C16.0328421,7.58568421 16.0892632,7.43494737 16.0892632,7.24547368 L16.0892632,5.904 C16.0892632,5.71452632 16.0328421,5.56378947 15.9006316,5.43157895 C15.7490526,5.29936842 15.5974737,5.22357895 15.4088421,5.22357895 L0.570947368,5.22357895 C0.382315789,5.22357895 0.230736842,5.29936842 0.0985263158,5.43157895 C-0.0336842105,5.56378947 -0.109473684,5.71452632 -0.109473684,5.904 L-0.109473684,7.24547368 C-0.109473684,7.43494737 -0.0336842105,7.58568421 0.0985263158,7.71873684 L0.0985263158,7.71873684 Z M0.0985263158,2.33178947 C0.230736842,2.464 0.382315789,2.53978947 0.570947368,2.53978947 L15.4088421,2.53978947 C15.5974737,2.53978947 15.7490526,2.464 15.9006316,2.33178947 C16.0328421,2.19873684 16.0892632,2.048 16.0892632,1.85852632 L16.0892632,0.517052632 C16.0892632,0.327578947 16.0328421,0.176842105 15.9006316,0.0446315789 C15.7490526,-0.0884210526 15.5974737,-0.163368421 15.4088421,-0.163368421 L0.570947368,-0.163368421 C0.382315789,-0.163368421 0.230736842,-0.0884210526 0.0985263158,0.0446315789 C-0.0336842105,0.176842105 -0.109473684,0.327578947 -0.109473684,0.517052632 L-0.109473684,1.85852632 C-0.109473684,2.048 -0.0336842105,2.19873684 0.0985263158,2.33178947 L0.0985263158,2.33178947 Z"></path>
        </g>
</svg>
