<?xml version="1.0" encoding="UTF-8" standalone="no"?>
<svg width="18px" height="17px" viewBox="0 0 18 17" version="1.1" xmlns="http://www.w3.org/2000/svg" xmlns:xlink="http://www.w3.org/1999/xlink">
    <defs></defs>
    <g stroke="none" stroke-width="1" fill="none" fill-rule="evenodd">
        <g transform="translate(1.000000, 0.000000)" fill="#0A0B09">
            <path d="M3.91494737,15.2858947 C5.16294737,16.0042105 6.52378947,16.3637895 7.99831579,16.3637895 C9.45347368,16.3637895 10.8143158,16.0042105 12.0614737,15.2858947 C13.2901053,14.5490526 14.2728421,13.5663158 15.0105263,12.3376842 C15.7288421,11.0896842 16.0875789,9.72884211 16.0875789,8.25431579 C16.0875789,6.79915789 15.7288421,5.43831579 15.0105263,4.19115789 C14.2728421,2.96252632 13.2901053,1.97894737 12.0614737,1.24210526 C10.8143158,0.523789474 9.45347368,0.165052632 7.99831579,0.165052632 C6.52378947,0.165052632 5.16294737,0.523789474 3.91494737,1.24210526 C2.68631579,1.97894737 1.70357895,2.96252632 0.966736842,4.19115789 C0.248421053,5.43831579 -0.111157895,6.79915789 -0.111157895,8.25431579 C-0.111157895,9.72884211 0.248421053,11.0896842 0.966736842,12.3376842 C1.70357895,13.5663158 2.68631579,14.5490526 3.91494737,15.2858947 L3.91494737,15.2858947 Z M4.17936842,10.1633684 L6.08926316,8.25431579 L4.17936842,6.36463158 C4.04715789,6.21305263 3.97221053,6.06231579 3.97221053,5.87284211 C3.97221053,5.68421053 4.04715789,5.53263158 4.17936842,5.40042105 L5.12505263,4.45557895 C5.25726316,4.32336842 5.40884211,4.24757895 5.59747368,4.24757895 C5.78610526,4.24757895 5.93768421,4.32336842 6.08926316,4.45557895 L7.99831579,6.36463158 L9.888,4.45557895 C10.0395789,4.32336842 10.1903158,4.24757895 10.3797895,4.24757895 C10.5684211,4.24757895 10.72,4.32336842 10.8522105,4.45557895 L11.7970526,5.40042105 C11.9292632,5.53263158 12.0050526,5.68421053 12.0050526,5.87284211 C12.0050526,6.06231579 11.9292632,6.21305263 11.7970526,6.36463158 L9.888,8.25431579 L11.7970526,10.1633684 C11.9292632,10.3149474 12.0050526,10.4665263 12.0050526,10.6551579 C12.0050526,10.8446316 11.9292632,10.9953684 11.7970526,11.1275789 L10.8522105,12.0724211 C10.72,12.2054737 10.5684211,12.2804211 10.3797895,12.2804211 C10.1903158,12.2804211 10.0395789,12.2054737 9.888,12.0724211 L7.99831579,10.1633684 L6.08926316,12.0724211 C5.93768421,12.2054737 5.78610526,12.2804211 5.59747368,12.2804211 C5.40884211,12.2804211 5.25726316,12.2054737 5.12505263,12.0724211 L4.17936842,11.1275789 C4.04715789,10.9953684 3.97221053,10.8446316 3.97221053,10.6551579 C3.97221053,10.4665263 4.04715789,10.3149474 4.17936842,10.1633684 L4.17936842,10.1633684 Z"></path>
        </g>
    </g>
</svg>