<?xml version="1.0" encoding="utf-8"?>
<!-- Generator: Adobe Illustrator 23.0.1, SVG Export Plug-In . SVG Version: 6.00 Build 0)  -->
<!DOCTYPE svg PUBLIC "-//W3C//DTD SVG 1.1//EN" "http://www.w3.org/Graphics/SVG/1.1/DTD/svg11.dtd" [
	<!ENTITY ns_extend "http://ns.adobe.com/Extensibility/1.0/">
	<!ENTITY ns_ai "http://ns.adobe.com/AdobeIllustrator/10.0/">
	<!ENTITY ns_graphs "http://ns.adobe.com/Graphs/1.0/">
	<!ENTITY ns_vars "http://ns.adobe.com/Variables/1.0/">
	<!ENTITY ns_imrep "http://ns.adobe.com/ImageReplacement/1.0/">
	<!ENTITY ns_sfw "http://ns.adobe.com/SaveForWeb/1.0/">
	<!ENTITY ns_custom "http://ns.adobe.com/GenericCustomNamespace/1.0/">
	<!ENTITY ns_adobe_xpath "http://ns.adobe.com/XPath/1.0/">
]>
<svg version="1.1" id="Layer_1" xmlns:x="&ns_extend;" xmlns:i="&ns_ai;" xmlns:graph="&ns_graphs;"
	 xmlns="http://www.w3.org/2000/svg" xmlns:xlink="http://www.w3.org/1999/xlink" x="0px" y="0px" viewBox="0 0 256.4 250"
	 enable-background="new 0 0 256.4 250" xml:space="preserve">
<metadata>
	<sfw  xmlns="&ns_sfw;">
		<slices></slices>
		<sliceSourceBounds  bottomLeftOrigin="true" height="250" width="256.4" x="-8.2" y="-8"></sliceSourceBounds>
	</sfw>
</metadata>
<g id="Layer_2_1_">
	<path fill="#00005B" d="M45.4,0H211c25.1,0,45.4,20.3,45.4,45.4v159.2c0,25.1-20.3,45.4-45.4,45.4H45.4C20.3,250,0,229.7,0,204.6
		V45.4C0,20.3,20.3,0,45.4,0z"/>
	<g id="An">
		<path fill="#9999FF" d="M103.6,149.6H64l-8.1,25.1c-0.2,1-1.1,1.6-2,1.5H33.5c-1.2,0-1.5-0.6-1.2-1.9l34.5-98.6
			c0.3-1.1,0.6-1.9,1.1-3.3c0.4-2.2,0.6-4.6,0.6-6.9c-0.1-0.5,0.3-1.1,0.9-1.2c0.1,0,0.2,0,0.3,0h27.5c0.9,0,1.3,0.3,1.4,0.9
			l38.9,109.3c0.3,1.2,0,1.7-1.1,1.7h-22.3c-0.7,0.1-1.5-0.4-1.7-1.2L103.6,149.6z M70.2,128.3h27.1c-0.6-2.2-1.5-4.9-2.5-7.7
			c-1-2.9-1.9-6-2.9-9.2c-1.1-3.3-2-6.5-3.1-9.8s-2-6.4-2.9-9.5c-0.9-3-1.6-5.8-2.4-8.3h-0.2c-1,4.6-2.1,9.2-3.6,13.8
			c-1.6,5.1-3.2,10.5-4.9,15.8C73.4,118.8,71.8,123.8,70.2,128.3z"/>
		<path fill="#9999FF" d="M149.6,174.6v-63.5c0-1.9,0-4.2-0.1-6.5c-0.1-2.5-0.1-4.7-0.2-6.8c-0.1-2.1-0.2-4.2-0.3-5.4
			c-0.1-0.3-0.1-0.7,0.2-1.1c0.3-0.2,0.6-0.3,1.1-0.3h17.2c0.6,0,1.2,0.1,1.7,0.3c0.4,0.2,0.7,0.6,0.9,1.2c0.2,0.6,0.5,1.5,0.7,2.4
			c0.3,1.2,0.5,2.4,0.6,3.5c3.3-2.9,7.2-5.1,11.3-6.6c4.2-1.4,8.5-2.1,12.9-2.1c3.4,0,6.8,0.5,10,1.6c7.6,2.5,13.6,8.3,16.2,15.8
			c1.7,4.4,2.4,10.1,2.4,17.1v50.5c0,1.1-0.4,1.5-1.4,1.5l-20.1,0.2c-0.9,0.1-1.6-0.4-1.7-1.3c0-0.1,0-0.3,0-0.4v-47.9
			c-0.1-3.2-0.7-6.4-2-9.3c-1-2.1-2.5-4.1-4.4-5.3c-2.2-1.4-4.7-2-7.3-1.9c-2.8,0-5.6,0.4-8.1,1.5c-2.4,1-4.5,2.4-6.4,4.1v59
			c0,1.1-0.4,1.5-1.4,1.5h-20.3c-0.7,0.1-1.4-0.4-1.5-1.2C149.5,174.8,149.5,174.7,149.6,174.6z"/>
	</g>
</g>
</svg>
