<?xml version="1.0" encoding="UTF-8"?>
<svg width="256px" height="250px" viewBox="0 0 256 250" version="1.1" xmlns="http://www.w3.org/2000/svg" preserveAspectRatio="xMidYMid">
    <title>Adobe Photoshop</title>
    <g>
        <rect fill="#001E36" x="0" y="0" width="256" height="249.6" rx="42.5"></rect>
        <path d="M57.644448,175.034891 L57.644448,65.2973973 C57.644448,64.4976533 57.988192,64.095264 58.6751787,64.095264 L59.7619717,64.0920011 L59.7619717,64.0920011 L61.6199134,64.0715434 L61.6199134,64.0715434 L64.202381,64.0207167 L64.202381,64.0207167 L72.852608,63.8377067 L72.852608,63.8377067 L82.12656,63.6658347 L82.12656,63.6658347 C85.3890667,63.6095787 88.6232676,63.5798933 91.8291627,63.5798933 C100.528654,63.5798933 107.855911,64.6675662 113.810933,66.842912 C119.182651,68.6599602 124.081571,71.6520157 128.15104,75.601248 C131.600584,79.0243818 134.26641,83.1551504 135.964587,87.708544 C137.571252,92.1398704 138.385236,96.8194508 138.369724,101.533024 C138.369724,110.693956 136.251225,118.250222 132.015136,124.201824 C127.869416,130.011987 122.088853,134.45074 115.415837,136.957584 L114.841696,137.167712 C107.869116,139.769401 100.147028,140.709045 91.6778194,140.768797 L90.3620961,140.771575 L90.3620961,140.771575 L88.4094784,140.761168 L88.4094784,140.761168 L87.4235468,140.747788 L87.4235468,140.747788 L86.3255501,140.721622 L86.3255501,140.721622 L85.6644866,140.695753 L85.6644866,140.695753 L85.26216,140.67501 L85.26216,140.67501 L84.2731046,140.638718 L84.2731046,140.638718 L83.0641971,140.614314 L83.0641971,140.614314 L81.2438958,140.600528 C81.1110918,140.600228 80.9759976,140.600052 80.8386133,140.6 L80.8386133,174.863285 C80.8993568,175.288991 80.7561447,175.718455 80.452053,176.022501 C80.1479612,176.326547 79.7184756,176.469693 79.2927787,176.408885 L58.846528,176.408885 C58.044448,176.408853 57.644448,175.952608 57.644448,175.034891 Z M80.8385387,84.7031573 L80.8385387,120.495083 C82.3250027,120.610453 83.6987876,120.667659 84.9598933,120.666722 L90.6270933,120.666722 C94.5363243,120.65375 98.4214428,120.07175 102.160445,118.940175 L102.906261,118.706539 C106.308532,117.69595 109.34866,115.728794 111.664597,113.039339 C113.817157,110.501051 114.932041,107.003769 115.009249,102.547494 L115.013557,102.048405 C115.104073,98.7264422 114.239657,95.4482449 112.522891,92.6028373 C110.718186,89.8515552 108.109832,87.7229307 105.052587,86.5064747 C101.060753,84.9547986 96.7968221,84.2246969 92.5161493,84.3598933 L90.3381608,84.3662658 L90.3381608,84.3662658 L88.9642952,84.3775947 L88.9642952,84.3775947 L87.652931,84.394588 L87.652931,84.394588 L85.8030747,84.4306988 L85.8030747,84.4306988 L84.4537272,84.4689893 L84.4537272,84.4689893 L83.7516287,84.4949173 L83.7516287,84.4949173 L82.8145078,84.5385093 L82.8145078,84.5385093 L82.0166192,84.5877413 L82.0166192,84.5877413 L81.5620447,84.623696 L81.5620447,84.623696 L81.1693512,84.6621573 C81.109059,84.6687764 81.0513452,84.6755 80.9962098,84.682328 L80.8385387,84.7031573 Z M204.769216,113.9872 C201.77228,112.447297 198.594358,111.291216 195.310617,110.545488 L194.550987,110.380693 C190.93681,109.55146 187.247956,109.095029 183.542295,109.018063 L182.615563,109.006731 C180.442607,108.947825 178.272774,109.20824 176.175467,109.779648 C174.840547,110.076937 173.654072,110.837442 172.826507,111.926261 C172.266839,112.797218 171.968931,113.810518 171.968171,114.845792 C171.999478,115.850166 172.361638,116.816079 172.998379,117.593451 C173.910351,118.660183 175.00621,119.55308 176.232788,120.230365 L176.604629,120.42704 C179.053224,121.745623 181.576214,122.921121 184.160896,123.947616 C189.924598,125.876953 195.431959,128.50086 200.561419,131.761419 C204.055784,133.966901 206.947437,137.006025 208.976523,140.605685 C210.682697,144.014284 211.537144,147.785684 211.466667,151.5968 C211.569429,156.629183 210.131389,161.572726 207.345312,165.764768 C204.362388,170.020094 200.219271,173.328422 195.409365,175.295765 C190.372126,177.50853 184.186463,178.652193 176.852374,178.726756 L176.089579,178.730656 C171.542542,178.776586 167.00266,178.37851 162.534471,177.542541 L161.578123,177.356704 C157.815118,176.666734 154.152132,175.513052 150.672917,173.922037 C149.957548,173.552687 149.501722,172.828358 149.470838,172.032607 L149.470784,153.313995 C149.428682,152.943973 149.593872,152.580854 149.900469,152.369461 C150.202423,152.198718 150.578579,152.232953 150.844747,152.455403 C154.953495,154.878103 159.414916,156.645254 164.068213,157.693163 C168.169645,158.721205 172.376731,159.26872 176.604672,159.324672 C180.610923,159.324672 183.559012,158.809472 185.448939,157.779072 C187.192483,156.981002 188.302899,155.231414 188.282795,153.314005 C188.282795,151.827541 187.424128,150.396462 185.706795,149.020768 C184.986685,148.444595 183.954457,147.81809 182.61011,147.141255 L181.967479,146.825296 L181.967479,146.825296 L181.280524,146.502189 C181.162338,146.447742 181.042305,146.392998 180.920425,146.337955 L180.166984,146.004127 C180.037716,145.947894 179.906602,145.891362 179.773641,145.834533 L178.953712,145.489983 C178.813364,145.431963 178.671168,145.373644 178.527126,145.315028 L177.640711,144.959757 C177.489281,144.89995 177.336005,144.839845 177.180881,144.779441 L176.227979,144.413449 L176.227979,144.413449 L175.230752,144.040309 L175.230752,144.040309 C169.838455,142.163495 164.725691,139.563833 160.03232,136.312437 C156.675408,133.977797 153.911289,130.890129 151.96096,127.296299 C150.272071,123.912299 149.418221,120.17302 149.470859,116.391349 C149.461299,111.847486 150.70945,107.389619 153.077109,103.511349 C155.776789,99.2406261 159.653368,95.8412715 164.240128,93.7225493 C169.276587,91.2056213 175.573476,89.9462436 183.130795,89.944416 C187.556667,89.9088377 191.978379,90.2246743 196.354261,90.8889493 C199.523012,91.2908614 202.621005,92.1288241 205.560299,93.3790507 C206.032935,93.5147144 206.414419,93.8644733 206.590507,94.323584 C206.706589,94.7430118 206.764422,95.1764149 206.762379,95.6116053 L206.762379,112.956672 C206.786595,113.367414 206.590353,113.759996 206.247275,113.987136 C205.781789,114.218642 205.234722,114.218665 204.769216,113.9872 Z" fill="#31A8FF"></path>
    </g>
</svg>
