<?xml version="1.0" encoding="utf-8"?>
<!-- Generator: Adobe Illustrator 23.0.1, SVG Export Plug-In . SVG Version: 6.00 Build 0)  -->
<!DOCTYPE svg PUBLIC "-//W3C//DTD SVG 1.1//EN" "http://www.w3.org/Graphics/SVG/1.1/DTD/svg11.dtd" [
	<!ENTITY ns_extend "http://ns.adobe.com/Extensibility/1.0/">
	<!ENTITY ns_ai "http://ns.adobe.com/AdobeIllustrator/10.0/">
	<!ENTITY ns_graphs "http://ns.adobe.com/Graphs/1.0/">
	<!ENTITY ns_vars "http://ns.adobe.com/Variables/1.0/">
	<!ENTITY ns_imrep "http://ns.adobe.com/ImageReplacement/1.0/">
	<!ENTITY ns_sfw "http://ns.adobe.com/SaveForWeb/1.0/">
	<!ENTITY ns_custom "http://ns.adobe.com/GenericCustomNamespace/1.0/">
	<!ENTITY ns_adobe_xpath "http://ns.adobe.com/XPath/1.0/">
]>
<svg version="1.1" id="Layer_1" xmlns:x="&ns_extend;" xmlns:i="&ns_ai;" xmlns:graph="&ns_graphs;"
	 xmlns="http://www.w3.org/2000/svg" xmlns:xlink="http://www.w3.org/1999/xlink" x="0px" y="0px" viewBox="0 0 256.4 250"
	 enable-background="new 0 0 256.4 250" xml:space="preserve">
<metadata>
	<sfw  xmlns="&ns_sfw;">
		<slices></slices>
		<sliceSourceBounds  bottomLeftOrigin="true" height="250" width="256.4" x="-8.2" y="-8"></sliceSourceBounds>
	</sfw>
</metadata>
<g>
	<path fill="#00005B" d="M45.4,0H211c25.1,0,45.4,20.3,45.4,45.4v159.2c0,25.1-20.3,45.4-45.4,45.4H45.4C20.3,250,0,229.7,0,204.6
		V45.4C0,20.3,20.3,0,45.4,0z"/>
	<g>
		<path fill="#9999FF" d="M100.7,149.6H61l-8.1,25.2c-0.2,1-1.1,1.6-2,1.5H30.8c-1.2,0-1.5-0.6-1.2-1.9L64,75.6
			c0.3-1.1,0.6-2.2,1.1-3.5c0.5-2.2,0.9-4.5,0.9-6.8c-0.1-0.5,0.3-1.1,0.9-1.2c0.1,0,0.2,0,0.3,0h27.4c0.7,0,1.3,0.3,1.4,0.9
			l38.8,109.6c0.3,1.2,0,1.7-1.1,1.7h-22.3c-0.7,0.1-1.5-0.4-1.7-1.2L100.7,149.6z M67.2,128.3h27.1c-0.6-2.2-1.5-4.9-2.5-7.7
			c-1-2.9-1.9-6-2.9-9.2c-1.1-3.3-2-6.5-3.1-9.8s-2-6.4-2.9-9.5c-0.9-3-1.6-5.8-2.4-8.3h-0.2c-1,4.6-2.1,9.2-3.6,13.8
			c-1.6,5.1-3.2,10.5-4.9,15.8C70.5,118.8,68.8,123.8,67.2,128.3L67.2,128.3z"/>
		<path fill="#9999FF" d="M216.7,92.1v65.5c0,2.9,0,5.4,0.1,7.7c0.1,2.2,0.2,4.2,0.3,5.9c0.2,1.7,0.3,2.7,0.4,3.8
			c0.1,1-0.3,1.4-1.2,1.4H198c-0.9,0.1-1.7-0.4-2-1.2c-0.2-0.9-0.4-1.8-0.6-2.7c-0.2-0.7-0.2-1.5-0.2-2.2c-3.4,3.1-7.6,5.3-12.1,6.6
			c-3.8,1.1-7.9,1.6-11.9,1.6c-4,0-7.9-0.5-11.6-1.8c-3.4-1.2-6.6-3.2-9.1-5.9c-2.8-3-4.8-6.5-6-10.4c-1.5-4.9-2.2-10-2.1-15.2v-53
			c-0.1-0.6,0.3-1.3,1.1-1.4c0.1,0,0.2,0,0.3,0h20.4c0.6-0.1,1.3,0.3,1.4,1.1c0,0.1,0,0.2,0,0.3v50.2c0,4.7,1.1,8.4,3.1,11.1
			c2,2.7,6.2,4.1,11,4.1c2.5,0,4.9-0.4,7.3-1.3c2.5-0.9,4.7-2,6.7-3.5V92.1c0-0.7,0.5-1.2,1.5-1.2h20.4c0.5-0.1,1.2,0.3,1.2,0.9
			C216.7,91.9,216.7,92,216.7,92.1z"/>
	</g>
</g>
</svg>
