<?xml version="1.0" encoding="UTF-8"?>
<svg width="512px" height="196px" viewBox="0 0 512 196" version="1.1" xmlns="http://www.w3.org/2000/svg" preserveAspectRatio="xMidYMid">
    <title>Airflow</title>
    <g>
        <path d="M3.14654921,194.415182 L96.6041465,98.6167515 C97.1995475,98.0284894 97.2875653,97.0980156 96.8130311,96.4085434 C91.1300452,88.4742464 80.6427149,87.0982609 76.7567993,81.7667316 C65.24494,65.974397 62.323872,57.0354648 57.3769555,57.5891746 C57.0317202,57.6388456 56.7142763,57.8063529 56.4784204,58.0633093 L22.7186994,92.671831 C3.29575246,112.565597 0.503993954,156.414773 0,193.13535 C-0.00333453807,193.882853 0.448228283,194.557271 1.14065266,194.838911 C1.83307703,195.12055 2.62718647,194.952801 3.14654921,194.415182 L3.14654921,194.415182 Z" fill="#017CEE"></path>
        <path d="M194.415163,192.051139 L98.6167325,98.5869108 C98.0279881,97.9897016 97.09536,97.9016123 96.4052089,98.3780263 C88.4709118,104.064328 87.0949263,114.548342 81.763397,118.434258 C65.9710624,129.946117 57.0321302,132.867185 57.58584,137.814102 C57.6362387,138.158152 57.8036881,138.474315 58.0599748,138.709321 L92.6684965,172.469042 C112.562263,191.891989 156.411439,194.683748 193.132015,195.187724 C193.875662,195.187724 194.545697,194.738761 194.827266,194.050481 C195.108835,193.362201 194.945955,192.571976 194.415163,192.051139 L194.415163,192.051139 Z" fill="#00AD46"></path>
        <path d="M92.6684965,172.478989 C81.7932377,161.868981 76.7534836,140.881057 97.5955192,97.6021694 C63.71312,112.744641 51.8398573,132.648354 57.6786776,138.347918 L92.6684965,172.478989 Z" fill="#04D659"></path>
        <path d="M192.047805,0.785841238 L98.5935231,96.5842717 C97.9968252,97.171918 97.908715,98.1033692 98.3846386,98.7924797 C104.07094,106.726777 114.551639,108.102762 118.44087,113.434292 C129.95273,129.226626 132.877113,138.165558 137.820714,137.611849 C138.166121,137.562707 138.483733,137.395111 138.719249,137.137714 L172.47897,102.529192 C191.901917,82.6354261 194.693676,38.78625 195.197654,2.06567352 C195.199048,1.31831346 194.746701,0.644899192 194.054311,0.36357043 C193.361922,0.0822416684 192.568074,0.249307453 192.047805,0.785841238 L192.047805,0.785841238 Z" fill="#00C7D4"></path>
        <path d="M172.495548,102.529192 C161.88554,113.404451 140.897617,118.444205 97.615413,97.6021694 C112.757885,131.484569 132.661597,143.357831 138.361161,137.519011 L172.495548,102.529192 Z" fill="#11E1EE"></path>
        <path d="M0.775875423,3.14988377 L96.5743059,96.6041655 C97.1625679,97.1995665 98.0930418,97.2875843 98.7825139,96.81305 C106.716811,91.1267485 108.092796,80.6427338 113.424326,76.7568182 C129.21666,65.2449589 138.155593,62.3238909 137.601883,57.3769744 C137.551428,57.0319945 137.384051,56.7147984 137.127748,56.4784393 L102.519226,22.7187183 C82.6254602,3.29577139 38.7762842,0.504012885 2.05570771,0 C1.30670493,-0.0047386615 0.630384814,0.447351533 0.348432443,1.14127576 C0.0664800727,1.83519999 0.235807358,2.63089007 0.775875423,3.14988377 L0.775875423,3.14988377 Z" fill="#E43921"></path>
        <path d="M102.535804,22.7220339 C113.411063,33.3320425 118.450817,54.3199657 97.6087817,97.6021694 C131.491181,82.4596978 143.364444,62.5526692 137.525623,56.8564209 L102.535804,22.7220339 Z" fill="#FF7557"></path>
        <path d="M22.7186994,92.6751467 C33.3287079,81.7998879 54.3166311,76.7601338 97.5988348,97.6021694 C82.4563632,63.7197702 62.5526503,51.8465075 56.8530863,57.6853278 L22.7186994,92.6751467 Z" fill="#0CB6FF"></path>
        <circle fill="#4A4848" cx="97.6120973" cy="97.5855912" r="4.17769087"></circle>
        <path d="M221.23196,63.6733514 C220.828017,63.6628994 220.503027,63.3379089 220.492575,62.9339664 C220.486265,62.7970025 220.498534,62.6598151 220.529047,62.5261442 L229.700073,38.6072061 C229.855526,38.092508 230.347584,37.7548207 230.883752,37.7948774 L233.396998,37.7948774 C233.93248,37.7573488 234.423111,38.0940563 234.580677,38.6072061 L243.711915,62.5261442 L243.784859,62.9339664 C243.776078,63.3386245 243.450132,63.6645705 243.045474,63.6733514 L241.162198,63.6733514 C240.936859,63.6878913 240.71366,63.622106 240.532228,63.4876762 C240.400889,63.3643408 240.299889,63.2122721 240.237137,63.0433821 L238.204658,57.7947435 L226.079407,57.7947435 L224.046928,63.0433821 C223.978159,63.2184836 223.863655,63.371919 223.715365,63.4876762 C223.547093,63.6180044 223.337763,63.6838612 223.125183,63.6733514 L221.23196,63.6733514 Z M237.130394,54.6150566 L232.140375,41.4918022 L227.150355,54.6150566 L237.130394,54.6150566 Z M248.144909,70.6958508 C247.909322,70.699625 247.68261,70.6060611 247.518256,70.4372318 C247.366429,70.2792781 247.286117,70.0659129 247.296109,69.8470501 L247.296109,45.3114053 C247.286117,45.0925425 247.366429,44.8791773 247.518256,44.7212236 C247.68261,44.5523943 247.909322,44.4588304 248.144909,44.4626046 L249.845826,44.4626046 C250.305987,44.4827863 250.674445,44.8512443 250.694627,45.3114053 L250.694627,46.9360629 C252.103774,45.0237305 254.384159,43.9533966 256.755595,44.0912543 C258.96984,43.9286546 261.128118,44.8358463 262.561259,46.5315563 C263.93435,48.344252 264.675111,50.5572174 264.669998,52.8312489 C264.694312,53.1009199 264.70647,53.5197942 264.70647,54.0878718 C264.70647,54.6559493 264.694312,55.0748236 264.669998,55.3444946 C264.667129,57.6172277 263.927195,59.8277229 262.561259,61.6441872 C261.121942,63.3314682 258.96814,64.2367786 256.755595,64.0844892 C254.426813,64.1932503 252.191532,63.1585351 250.767571,61.3126245 L250.767571,69.8901533 C250.777562,70.1090161 250.697251,70.3223812 250.545424,70.480335 C250.397851,70.6531727 250.178992,70.7485417 249.951927,70.7389539 L248.144909,70.6958508 Z M255.983053,61.0473743 C257.445247,61.1757469 258.87485,60.5648372 259.792709,59.4194011 C260.66121,58.1588433 261.123939,56.66307 261.118961,55.1322945 C261.143275,54.886938 261.155432,54.5299555 261.155432,54.0613467 C261.155432,49.4039951 259.429096,47.0753192 255.976422,47.0753192 C254.493947,46.9771722 253.057715,47.6128817 252.13361,48.7762362 C251.281054,49.9310377 250.804163,51.3200405 250.767571,52.7549894 L250.727783,54.1608156 L250.767571,55.6031136 C250.79319,56.995192 251.288611,58.3377383 252.173397,59.4127698 C253.115221,60.5249567 254.524704,61.1302487 255.979738,61.0473743 L255.983053,61.0473743 Z M274.643406,64.0314392 C273.480248,64.0415903 272.329826,63.7888373 271.278044,63.2920542 C270.29911,62.8464366 269.447548,62.1624515 268.80127,61.3026776 C268.218038,60.4678565 267.907626,59.4729147 267.912682,58.4545534 C267.890534,56.8839804 268.632311,55.4004257 269.902058,54.4758002 C271.51187,53.3168457 273.398983,52.6031736 275.372844,52.4068485 L280.880102,51.6309917 L280.880102,50.5600439 C280.880102,48.0467981 279.44333,46.7901752 276.569786,46.7901752 C275.634985,46.7518148 274.710409,46.9968273 273.917283,47.4930883 C273.276748,47.8875493 272.743691,48.4342752 272.36557,49.0845896 C272.314799,49.2695909 272.212453,49.4363343 272.070479,49.5653556 C271.948922,49.6735929 271.788432,49.7274887 271.626185,49.7145589 L270.034683,49.7145589 C269.815021,49.7294195 269.599654,49.6486193 269.443974,49.4929393 C269.288294,49.3372593 269.207494,49.1218927 269.222355,48.9022301 C269.300404,48.1758427 269.581984,47.4862586 270.034683,46.9128535 C270.683696,46.0631051 271.535192,45.3894316 272.511457,44.9533175 C273.793256,44.349537 275.200064,44.05863 276.616204,44.1045168 C278.792362,43.8917467 280.957833,44.602743 282.584334,46.0640528 C283.800251,47.3640941 284.452275,49.092496 284.397982,50.8717129 L284.397982,62.8510757 C284.403079,63.0878828 284.309379,63.3161259 284.139364,63.481045 C283.981624,63.6332103 283.768107,63.7135789 283.549182,63.703192 L281.848265,63.703192 C281.616015,63.7285388 281.38477,63.647422 281.219247,63.4825438 C281.053725,63.3176655 280.971707,63.0867383 280.996148,62.8543913 L280.996148,61.2662057 C280.382223,62.1135402 279.569194,62.7967578 278.62879,63.2555823 C277.382631,63.8371325 276.01371,64.1068201 274.64009,64.041386 L274.643406,64.0314392 Z M275.419263,61.2595744 C276.885829,61.3134291 278.307666,60.7492652 279.338335,59.704545 C280.441721,58.4572391 281.000447,56.8204593 280.890048,55.1588195 L280.890048,54.1243437 L276.602942,54.7543129 C275.20905,54.8821196 273.859487,55.3108574 272.647398,56.0109358 C271.842852,56.4443325 271.335529,57.2788788 271.321147,58.1926188 C271.290167,59.1192679 271.755094,59.9922692 272.541298,60.4837175 C273.403617,61.0175453 274.401981,61.2904545 275.415947,61.2695213 L275.419263,61.2595744 Z M297.444977,64.0314392 C295.160349,64.1607884 292.920506,63.360759 291.234807,61.8132842 C289.66774,60.0942337 288.820335,57.8392345 288.867449,55.5135917 L288.830977,54.0348217 L288.867449,52.5560518 C288.820167,50.2452422 289.668463,48.0056946 291.234807,46.3060936 C292.9095,44.7370252 295.153716,43.9222536 297.444977,44.0514668 C299.003597,44.0037815 300.550638,44.3336651 301.954231,45.0129988 C303.060705,45.5442512 304.005088,46.3615716 304.689624,47.380357 C305.26762,48.2112656 305.611211,49.1824824 305.684312,50.1920092 C305.714526,50.4136106 305.631001,50.6355129 305.462165,50.782191 C305.286851,50.9315599 305.062425,51.0106996 304.832196,51.004338 L303.058335,51.004338 C302.861162,51.0186853 302.664912,50.9661183 302.50131,50.8551348 C302.334624,50.6895298 302.208642,50.4875039 302.133275,50.264953 C301.838203,49.253119 301.213953,48.3686675 300.359414,47.7517073 C299.498718,47.2067557 298.492755,46.9361863 297.474818,46.9758504 C296.109341,46.9163286 294.783072,47.4408077 293.827628,48.4181484 C292.841574,49.6333041 292.329187,51.1645738 292.38533,52.7284644 L292.348858,54.0547155 L292.38533,55.3113384 C292.321372,56.8925277 292.833917,58.4431239 293.827628,59.6747044 C294.788469,60.6401146 296.114587,61.1512727 297.474818,61.0805305 C298.487691,61.1188696 299.489872,60.8619887 300.359414,60.3411456 C301.208934,59.7035582 301.830847,58.8096314 302.133275,57.7914279 C302.208642,57.568877 302.334624,57.3668511 302.50131,57.2012461 C302.654383,57.0668302 302.855227,56.9998823 303.058335,57.015571 L304.832196,57.015571 C305.068928,57.0108762 305.297017,57.1045128 305.462165,57.27419 C305.631001,57.420868 305.714526,57.6427703 305.684312,57.8643717 C305.602826,58.871102 305.259961,59.8391248 304.689624,60.6727083 C304.004966,61.6913862 303.060616,62.5086784 301.954231,63.0400665 C300.554925,63.7388739 299.005208,64.0827494 297.441662,64.041386 L297.444977,64.0314392 Z M310.966107,63.6600889 C310.733857,63.6854356 310.502612,63.6043189 310.33709,63.4394406 C310.171567,63.2745623 310.08955,63.0436352 310.113991,62.8112882 L310.113991,38.2756434 C310.103999,38.0567806 310.184311,37.8434154 310.336138,37.6854616 C310.501512,37.5161201 310.729449,37.4225458 310.966107,37.426701 L312.812912,37.426701 C313.27505,37.4437829 313.646286,37.8135746 313.665028,38.2756434 L313.665028,46.8962753 C314.333456,46.0234282 315.19327,45.3156126 316.178274,44.8273237 C317.298488,44.299652 318.528215,44.0462054 319.765783,44.0879387 C321.855038,43.9708308 323.883321,44.8146259 325.27304,46.3790374 C326.666427,48.0689432 327.376192,50.2195296 327.262417,52.4068485 L327.262417,62.8311819 C327.267513,63.067989 327.173814,63.2962322 327.003798,63.4611512 C326.846058,63.6133166 326.632542,63.6936851 326.413616,63.6832983 L324.566812,63.6832983 C324.335104,63.7075628 324.10482,63.6259658 323.940082,63.4612276 C323.775344,63.2964895 323.693747,63.0662054 323.718011,62.8344976 L323.718011,52.5759455 C323.81132,51.1058119 323.349908,49.6541388 322.424916,48.5076704 C321.485416,47.5066058 320.147796,46.9776378 318.777726,47.0653723 C317.379378,47.0036698 316.021158,47.5416505 315.044329,48.5441423 C314.08031,49.6570176 313.59001,51.1029254 313.67829,52.5726299 L313.67829,62.8112882 C313.683387,63.0480953 313.589687,63.2763384 313.419672,63.4412574 C313.261932,63.5934228 313.048415,63.6737914 312.82949,63.6634045 L310.966107,63.6600889 Z M340.296149,64.0314392 C338.028545,64.1382611 335.818602,63.297522 334.195395,61.7104998 C332.613488,59.939888 331.732719,57.6524809 331.718621,55.2781821 L331.682149,54.0215592 L331.718621,52.8014082 C331.764866,50.4484607 332.657065,48.1908916 334.231866,46.4420343 C337.762871,43.1976351 343.22326,43.3116673 346.615736,46.7006533 C348.207029,48.6849301 349.009882,51.1867633 348.870363,53.7264683 L348.870363,54.3564376 C348.874534,54.5921 348.780908,54.818964 348.611744,54.9830912 C348.45379,55.134918 348.240425,55.2152296 348.021562,55.2052383 L335.22987,55.2052383 L335.22987,55.5368011 C335.262149,57.0235667 335.767354,58.461368 336.672168,59.6415481 C337.539542,60.7272707 338.867348,61.3414269 340.256362,61.299362 C341.224134,61.341728 342.184408,61.1119974 343.028227,60.6362364 C343.659374,60.2657199 344.212324,59.7758354 344.6562,59.1939384 C344.784327,58.9942349 344.947147,58.8190631 345.136966,58.6767005 C345.334527,58.588204 345.551104,58.5505881 345.766935,58.5672848 L347.580583,58.5672848 C347.781479,58.5605577 347.978066,58.6264792 348.134293,58.7529599 C348.28469,58.8814882 348.366785,59.0726333 348.35644,59.2701978 C348.253229,60.0248481 347.886868,60.7188196 347.321965,61.2297338 C346.523113,62.0858397 345.552595,62.7637336 344.47384,63.2191104 C343.155444,63.7866788 341.731297,64.066987 340.296149,64.041386 L340.296149,64.0314392 Z M345.359113,52.6455737 L345.359113,52.536158 C345.42577,51.0283908 344.924076,49.5505226 343.953287,48.394939 C343.003672,47.3581346 341.662325,46.7677419 340.256362,46.7677419 C338.850399,46.7677419 337.509051,47.3581346 336.559437,48.394939 C335.635386,49.5718181 335.164736,51.0414244 335.233186,52.536158 L335.233186,52.6455737 L345.359113,52.6455737 Z" fill="#51504F"></path>
        <path d="M237.120447,54.6150566 L237.120447,54.9002005 C237.213495,54.8995546 237.300375,54.8535489 237.353202,54.7769491 C237.40603,54.7003492 237.418159,54.6027917 237.385698,54.5155877 L237.120447,54.6150566 Z M232.130428,41.4918022 L232.395678,41.3923334 C232.352709,41.2834111 232.247519,41.2118289 232.130428,41.2118289 C232.013336,41.2118289 231.908147,41.2834111 231.865178,41.3923334 L232.130428,41.4918022 Z M227.140408,54.6150566 L226.875158,54.5155877 C226.842696,54.6027917 226.854826,54.7003492 226.907653,54.7769491 C226.960481,54.8535489 227.04736,54.8995546 227.140408,54.9002005 L227.140408,54.6150566 Z M221.225328,63.3882074 C221.099631,63.3932223 220.978186,63.3422154 220.893766,63.248951 L220.489259,63.650142 C220.677431,63.8457206 220.937348,63.955916 221.20875,63.9551797 L221.225328,63.3882074 Z M220.893766,63.248951 C220.800882,63.1642615 220.749953,63.0430023 220.754509,62.9173883 L220.187537,62.9173883 C220.186801,63.1887904 220.296996,63.4487076 220.492575,63.6368795 L220.893766,63.248951 Z M220.754509,62.9173883 C220.74757,62.8063273 220.755374,62.6948366 220.777719,62.5858255 L220.237271,62.4067816 C220.195225,62.5690518 220.177349,62.7366375 220.184221,62.9041258 L220.754509,62.9173883 Z M220.771087,62.6123505 L229.938798,38.6934125 L229.408297,38.4911592 L220.240587,62.4100972 L220.771087,62.6123505 Z M229.942114,38.6867812 C229.999934,38.4977577 230.115973,38.3318222 230.273676,38.2126464 C230.445841,38.1039607 230.647212,38.0507248 230.850596,38.0601276 L230.850596,37.4898396 C230.532375,37.4800781 230.2188,37.5680181 229.95206,37.7418273 C229.69396,37.9271049 229.501259,38.1894557 229.401666,38.4911592 L229.942114,38.6867812 Z M230.857227,38.0601276 L233.370473,38.0601276 L233.370473,37.4898396 L230.857227,37.4898396 L230.857227,38.0601276 Z M233.370473,38.0601276 C233.574972,38.0500373 233.777603,38.1033003 233.950707,38.2126464 C234.108411,38.3318222 234.224449,38.4977577 234.28227,38.6867812 L234.816086,38.4911592 C234.716906,38.1892429 234.524119,37.9267745 234.265692,37.7418273 C233.998017,37.5673631 233.683182,37.4793948 233.363841,37.4898396 L233.370473,38.0601276 Z M234.288901,38.6900968 L243.42014,62.6090349 L243.95064,62.4067816 L234.819402,38.4878435 L234.288901,38.6900968 Z M243.406878,62.5626161 L243.479821,62.9704383 L244.040162,62.8676538 L243.967219,62.4598316 L243.406878,62.5626161 Z M243.476506,62.9173883 C243.480611,63.0429196 243.429758,63.1639977 243.337249,63.248951 L243.73844,63.650142 C243.934019,63.4619702 244.044214,63.2020529 244.043478,62.9306508 L243.476506,62.9173883 Z M243.337249,63.248951 C243.252296,63.3414599 243.131218,63.3923127 243.005687,63.3882074 L243.005687,63.9551797 C243.277089,63.955916 243.537006,63.8457206 243.725178,63.650142 L243.337249,63.248951 Z M243.005687,63.3882074 L241.12241,63.3882074 L241.12241,63.9551797 L243.005687,63.9551797 L243.005687,63.3882074 Z M241.12241,63.3882074 C240.963858,63.4017775 240.805543,63.3595603 240.6748,63.2688448 L240.310081,63.7065076 C240.542551,63.8838983 240.830358,63.9731772 241.12241,63.9584954 L241.12241,63.3882074 Z M240.694694,63.2854229 C240.593509,63.1943545 240.515142,63.0807802 240.465916,62.9538602 L239.928784,63.1329041 C240.005266,63.3435149 240.130201,63.5331897 240.293503,63.6866139 L240.694694,63.2854229 Z M240.4626,62.9538602 L238.43012,57.7019059 L237.89962,57.9074748 L239.9321,63.1561135 L240.4626,62.9538602 Z M238.16487,57.522862 L226.03962,57.522862 L226.03962,58.0898344 L238.16487,58.0898344 L238.16487,57.522862 Z M225.77437,57.7052216 L223.738574,62.9571758 L224.269075,63.1627447 L226.301554,57.9141061 L225.77437,57.7052216 Z M223.735259,62.9671227 C223.683821,63.0980665 223.59789,63.2126409 223.486586,63.2986854 L223.854621,63.729717 C224.04291,63.58092 224.187296,63.3838216 224.27239,63.1594291 L223.735259,62.9671227 Z M223.489902,63.2986854 C223.371639,63.3865592 223.225698,63.4289292 223.078764,63.418048 L223.078764,63.9850204 C223.358067,63.9956883 223.63201,63.9063338 223.851305,63.7330327 L223.489902,63.2986854 Z M223.078764,63.418048 L221.192172,63.418048 L221.192172,63.9850204 L223.078764,63.9850204 L223.078764,63.418048 Z M237.355857,54.5421128 L232.365837,41.4188584 L231.835337,41.6211117 L236.825357,54.744366 L237.355857,54.5421128 Z M231.832021,41.4188584 L226.842002,54.5421128 L227.372502,54.744366 L232.362522,41.6211117 L231.832021,41.4188584 Z M227.107252,54.9300412 L237.087291,54.9300412 L237.087291,54.3630689 L227.107252,54.3630689 L227.107252,54.9300412 Z M250.65484,46.9559566 L250.369696,46.9559566 C250.370169,47.0786927 250.449128,47.1873554 250.565716,47.2257166 C250.682304,47.2640779 250.810359,47.2235296 250.883618,47.1250536 L250.65484,46.9559566 Z M250.727783,61.3292026 L250.953246,61.15679 C250.878844,61.0606866 250.751704,61.0223061 250.636553,61.0611882 C250.521402,61.1000703 250.443553,61.2076678 250.442639,61.3292026 L250.727783,61.3292026 Z M248.095175,70.4571256 C247.934262,70.4611565 247.77906,70.3973912 247.667459,70.2813973 L247.266268,70.6825883 C247.48561,70.9018025 247.785159,71.0216223 248.095175,71.014151 L248.095175,70.4571256 Z M247.667459,70.2813973 C247.568776,70.175947 247.518338,70.034239 247.528203,69.8901533 L246.957915,69.8901533 C246.946851,70.1849145 247.057101,70.4713259 247.262952,70.6825883 L247.667459,70.2813973 Z M247.528203,69.8901533 L247.528203,45.3545085 L246.957915,45.3545085 L246.957915,69.8901533 L247.528203,69.8901533 Z M247.528203,45.3545085 C247.518338,45.2104227 247.568776,45.0687147 247.667459,44.9632644 L247.266268,44.5620734 C247.060081,44.7731207 246.949773,45.0596819 246.96123,45.3545085 L247.528203,45.3545085 Z M247.667459,44.9632644 C247.77906,44.8472705 247.934262,44.7835052 248.095175,44.7875361 L248.095175,44.2172482 C247.785159,44.2097769 247.48561,44.3295967 247.266268,44.5488109 L247.667459,44.9632644 Z M248.095175,44.7875361 L249.796092,44.7875361 L249.796092,44.2172482 L248.095175,44.2172482 L248.095175,44.7875361 Z M249.796092,44.7875361 C249.939092,44.7785258 250.07796,44.8375141 250.170758,44.9466863 L250.60179,44.5786516 C250.400209,44.3430042 250.102743,44.2113393 249.792776,44.2205638 L249.796092,44.7875361 Z M250.203914,44.9798425 C250.313086,45.0726407 250.372075,45.2115089 250.363064,45.3545085 L250.930037,45.3545085 C250.93825,45.0456906 250.806678,44.7496543 250.571949,44.5488109 L250.203914,44.9798425 Z M250.363064,45.3545085 L250.363064,46.979166 L250.930037,46.979166 L250.930037,45.3545085 L250.363064,45.3545085 Z M250.876987,47.148263 C252.232859,45.3089238 254.428259,44.2817411 256.709176,44.4195015 L256.709176,43.8525291 C254.242812,43.710038 251.871935,44.8255978 250.409483,46.8167003 L250.876987,47.148263 Z M256.709176,44.4195015 C258.833549,44.2551581 260.908155,45.1180368 262.289377,46.7404408 L262.736987,46.3889843 C261.249956,44.625872 259.009883,43.6795707 256.709176,43.8425822 L256.709176,44.4195015 Z M262.289377,46.7404408 C263.621859,48.5009981 264.340463,50.6498246 264.335119,52.8577739 L264.902092,52.8345645 C264.903113,50.504765 264.141535,48.2386631 262.733671,46.382353 L262.289377,46.7404408 Z M264.335119,52.874352 C264.358329,53.132971 264.371591,53.5374776 264.371591,54.1077655 L264.938564,54.1077655 C264.938564,53.5407932 264.938564,53.1130772 264.898776,52.8246176 L264.335119,52.874352 Z M264.371591,54.1077655 C264.371591,54.6747379 264.371591,55.0825601 264.335119,55.341179 L264.898776,55.3909134 C264.925301,55.1057695 264.938564,54.6747379 264.938564,54.1077655 L264.371591,54.1077655 Z M264.335119,55.3544415 C264.332729,57.5621521 263.614961,59.7096388 262.289377,61.4750902 L262.733671,61.8265468 C264.133944,59.9674952 264.894684,57.705049 264.902092,55.3776509 L264.335119,55.3544415 Z M262.289377,61.4717746 C260.902328,63.086165 258.831974,63.947275 256.709176,63.792714 L256.709176,64.3596863 C259.006671,64.5092202 261.239908,63.5652875 262.733671,61.8132842 L262.289377,61.4717746 Z M256.709176,63.792714 C254.469065,63.9048068 252.315745,62.9142056 250.943299,61.1402118 L250.492374,61.4717746 C251.96958,63.388565 254.288338,64.4650431 256.70586,64.3563707 L256.709176,63.792714 Z M250.436008,61.3059932 L250.436008,69.883522 L251.006296,69.883522 L251.006296,61.3059932 L250.436008,61.3059932 Z M250.436008,69.883522 C250.446281,70.0276636 250.395786,70.1695302 250.296752,70.2747661 L250.697943,70.675957 C250.903794,70.4646946 251.014045,70.1782833 251.002981,69.883522 L250.436008,69.883522 Z M250.283489,70.2913442 C250.189657,70.4010514 250.049553,70.4600423 249.905508,70.4504943 L249.905508,71.0207823 C250.21557,71.0304922 250.513235,70.8987385 250.714521,70.6626945 L250.283489,70.2913442 Z M249.905508,70.4504943 L248.095175,70.4504943 L248.095175,71.0207823 L249.905508,71.0207823 L249.905508,70.4504943 Z M255.930003,61.3689901 C257.482846,61.4980444 258.997705,60.8438441 259.968438,59.62497 L259.510881,59.2934072 C258.645867,60.3631564 257.303134,60.9293691 255.933319,60.8020178 L255.930003,61.3689901 Z M259.965122,59.6282856 C260.869804,58.3220703 261.354459,56.7709427 261.35437,55.1820289 L260.787398,55.1588195 C260.792989,56.6338409 260.347585,58.0753302 259.510881,59.2900916 L259.965122,59.6282856 Z M261.351054,55.198607 C261.37758,54.9366724 261.390842,54.5686378 261.390842,54.0978186 L260.820554,54.0978186 C260.820554,54.5620065 260.820554,54.9101474 260.784082,55.1422414 L261.351054,55.198607 Z M261.390842,54.0978186 C261.522634,52.1969653 261.050324,50.3030831 260.041382,48.6867143 C259.066574,47.4198903 257.525209,46.7213038 255.930003,46.8233315 L255.930003,47.3903039 C257.341879,47.2908196 258.710204,47.9028342 259.577194,49.0215927 C260.512334,50.5406663 260.946141,52.31533 260.817238,54.094503 L261.390842,54.0978186 Z M255.930003,46.8266471 C254.357826,46.7286823 252.837167,47.4060442 251.858412,48.6402955 L252.309338,48.9718583 C253.180911,47.8802415 254.533192,47.2865269 255.926688,47.3836726 L255.930003,46.8266471 Z M251.858412,48.6402955 C250.968264,49.8448307 250.470483,51.2941832 250.432693,52.7914613 L251.002981,52.8179864 C251.039346,51.4331719 251.502539,50.0933865 252.329232,48.9818051 L251.858412,48.6402955 Z M250.432693,52.7980926 L250.396221,54.2039187 L250.963193,54.2039187 L250.999665,52.7980926 L250.432693,52.7980926 Z M250.396221,54.2171812 L250.432693,55.6594793 L251.002981,55.6594793 L250.966509,54.2171812 L250.396221,54.2171812 Z M250.432693,55.6627949 C250.461002,57.1164736 250.978465,58.5181781 251.901516,59.6415481 L252.342494,59.2801447 C251.500989,58.2492033 251.033505,56.9636204 251.016243,55.6329543 L250.432693,55.6627949 Z M251.901516,59.6415481 C252.898163,60.8169844 254.387959,61.457572 255.926688,61.3723058 L255.926688,60.8053334 C254.557977,60.8909423 253.228843,60.3271047 252.339178,59.2834603 L251.901516,59.6415481 Z M280.909942,61.2927307 L281.195086,61.2927307 C281.19233,61.1699417 281.111259,61.0627136 280.993871,61.026594 C280.876482,60.9904744 280.749155,61.03358 280.677848,61.1335806 L280.909942,61.2927307 Z M280.833683,54.1873406 L281.118827,54.1873406 C281.11897,54.1035178 281.082224,54.0238779 281.018356,53.9695901 C280.954488,53.9153023 280.869969,53.8918665 280.787264,53.9055122 L280.833683,54.1873406 Z M274.58704,63.8092921 C273.466213,63.8192947 272.357647,63.5755916 271.344356,63.0964322 L271.099,63.6103544 C272.188077,64.1248181 273.379294,64.3866365 274.583725,64.3762644 L274.58704,63.8092921 Z M271.344356,63.0964322 C270.406882,62.6680583 269.591798,62.0114314 268.973683,61.1866306 L268.516126,61.5181934 C269.188837,62.418711 270.076969,63.1358288 271.099,63.6037232 L271.344356,63.0964322 Z M268.980314,61.1965775 C268.429583,60.4097009 268.136497,59.4713642 268.14146,58.5109191 L267.571172,58.5109191 C267.566055,59.5861644 267.893823,60.636645 268.509495,61.5181934 L268.980314,61.1965775 Z M268.14146,58.5109191 C268.117212,57.0225838 268.821606,55.6162711 270.028052,54.744366 L269.679911,54.2967563 C268.334118,55.2766354 267.54882,56.8497034 267.574488,58.5142347 L268.14146,58.5109191 Z M270.028052,54.7410504 C271.59841,53.6127265 273.438574,52.9185193 275.362897,52.7284644 L275.283322,52.1648077 C273.259498,52.3679206 271.325291,53.1022558 269.676596,54.2934407 L270.028052,54.7410504 Z M275.362897,52.7284644 L280.870155,51.9526075 L280.79058,51.3889508 L275.280006,52.1648077 L275.362897,52.7284644 Z M281.115511,51.6707792 L281.115511,50.5998314 L280.548539,50.5998314 L280.548539,51.6707792 L281.115511,51.6707792 Z M281.115511,50.5998314 C281.195244,49.4616814 280.763783,48.3471759 279.938463,47.5594009 C278.954963,46.817226 277.735749,46.4567628 276.506789,46.5448188 L276.506789,47.1151068 C277.59756,47.0280818 278.683087,47.3377278 279.563797,47.9871168 C280.269794,48.6651843 280.634799,49.6239302 280.558486,50.5998314 L281.115511,50.5998314 Z M276.506789,46.5448188 C275.511808,46.5048047 274.528055,46.767216 273.685189,47.2974663 L274.016752,47.7682854 C274.764854,47.2990149 275.637739,47.067787 276.520051,47.1051599 L276.506789,46.5448188 Z M273.691821,47.2941507 C273.007047,47.710988 272.437204,48.2922275 272.034007,48.9851208 L272.531351,49.2636335 C272.886996,48.6543459 273.388265,48.1428239 273.990227,47.7749167 L273.691821,47.2941507 Z M272.034007,49.0315396 C271.998676,49.1642296 271.927565,49.2846604 271.828438,49.3796805 L272.18321,49.8239746 C272.368282,49.6606146 272.502866,49.4478108 272.571139,49.2105834 L272.034007,49.0315396 Z M271.808544,49.4028899 C271.739181,49.4546798 271.652314,49.4772891 271.566503,49.4658868 L271.566503,50.0328591 C271.803402,50.0451465 272.035262,49.9614855 272.209735,49.8007652 L271.808544,49.4028899 Z M271.566503,49.4658868 L269.975002,49.4658868 L269.975002,50.0328591 L271.566503,50.0328591 L271.566503,49.4658868 Z M269.975002,49.4658868 C269.825844,49.467384 269.681533,49.4129715 269.570496,49.3133679 L269.199145,49.7443995 C269.413836,49.9321139 269.689826,50.0347258 269.975002,50.0328591 L269.975002,49.4658868 Z M269.600336,49.3432086 C269.498749,49.2318278 269.443076,49.0861296 269.444502,48.9353864 L268.877529,48.9353864 C268.875663,49.2205622 268.978274,49.4965527 269.165989,49.7112432 L269.600336,49.3432086 Z M269.444502,48.9486489 C269.521832,48.2740624 269.785942,47.6344571 270.207096,47.1018442 L269.742908,46.7702815 C269.256599,47.3899363 268.956473,48.1350758 268.877529,48.9188082 L269.444502,48.9486489 Z M270.207096,47.1051599 C270.828451,46.2933275 271.643559,45.6503616 272.57777,45.2351459 L272.329098,44.7245392 C271.3095,45.1809589 270.420403,45.8853968 269.742908,46.7735971 L270.207096,47.1051599 Z M272.581085,45.2351459 C273.823613,44.6504613 275.187405,44.3697473 276.559839,44.4161858 L276.559839,43.8492135 C275.098524,43.8033681 273.647254,44.1056687 272.325782,44.7311705 L272.581085,45.2351459 Z M276.559839,44.4161858 C278.65079,44.208776 280.733152,44.8856636 282.302506,46.2828842 L282.720275,45.8982714 C281.043981,44.3833259 278.809573,43.6401264 276.559839,43.8492135 L276.559839,44.4161858 Z M282.305821,46.2861998 C283.471514,47.5334224 284.095108,49.1919686 284.039895,50.8982379 L284.606867,50.8982379 C284.660981,49.0475563 283.981702,47.250446 282.716959,45.8982714 L282.305821,46.2861998 Z M284.039895,50.8982379 L284.039895,62.8776007 L284.606867,62.8776007 L284.606867,50.8982379 L284.039895,50.8982379 Z M284.039895,62.8776007 C284.04434,63.03859 283.980509,63.1939535 283.864166,63.3053167 L284.265357,63.7065076 C284.483914,63.4867331 284.603617,63.1874764 284.59692,62.8776007 L284.039895,62.8776007 Z M283.864166,63.3053167 C283.758716,63.4039993 283.617008,63.4544377 283.472922,63.4445731 L283.472922,64.0115454 C283.767618,64.0222191 284.053882,63.9120258 284.265357,63.7065076 L283.864166,63.3053167 Z M283.472922,63.4445731 L281.772005,63.4445731 L281.772005,64.0115454 L283.472922,64.0115454 L283.472922,63.4445731 Z M281.772005,63.4445731 C281.610258,63.4496484 281.452238,63.3954026 281.327711,63.2920542 L280.959677,63.7230858 C281.185703,63.9163382 281.474673,64.0201315 281.772005,64.014861 L281.772005,63.4445731 Z M281.360868,63.3218948 C281.254639,63.1988134 281.198961,63.040071 281.205033,62.8776007 L280.638061,62.8776007 C280.63156,63.1745543 280.734193,63.4635802 280.92652,63.6899295 L281.360868,63.3218948 Z M281.205033,62.8776007 L281.205033,61.2894151 L280.638061,61.2894151 L280.638061,62.8776007 L281.205033,62.8776007 Z M280.687795,61.1269493 C280.100301,61.938164 279.322701,62.5928048 278.423221,63.0334352 L278.685156,63.5374106 C279.667073,63.0552724 280.515361,62.3390669 281.155299,61.4518808 L280.687795,61.1269493 Z M278.423221,63.0334352 C277.230327,63.5977303 275.918978,63.8661416 274.600303,63.8159234 L274.600303,64.3828957 C276.011227,64.4343826 277.413714,64.1443305 278.688472,63.5374106 L278.423221,63.0334352 Z M275.37616,61.611031 C276.919555,61.6656493 278.415337,61.071665 279.5008,59.9731109 L279.092978,59.5752356 C278.114947,60.5642178 276.765967,61.096108 275.37616,61.040743 L275.37616,61.611031 Z M279.5008,59.9731109 C280.654845,58.6719798 281.242022,56.964154 281.132089,55.2284477 L280.565117,55.2284477 C280.674277,56.8167959 280.144278,58.3829197 279.092978,59.5785512 L279.5008,59.9731109 Z M281.132089,55.2284477 L281.132089,54.1939718 L280.565117,54.1939718 L280.565117,55.2284477 L281.132089,55.2284477 Z M280.800526,53.9021966 L276.51342,54.5288502 L276.596311,55.0925069 L280.883417,54.4658533 L280.800526,53.9021966 Z M276.51342,54.5288502 C275.077823,54.6629656 273.688544,55.1075801 272.441829,55.8318919 L272.756814,56.3060267 C273.934316,55.6302757 275.244141,55.2174207 276.596311,55.0958226 L276.51342,54.5288502 Z M272.445145,55.8285763 C271.556477,56.3121888 270.997576,57.237353 270.982953,58.2489845 L271.553241,58.2489845 C271.568629,57.4307823 272.028715,56.6860017 272.753498,56.3060267 L272.445145,55.8285763 Z M270.982953,58.2489845 C270.951956,59.270265 271.464152,60.231578 272.329098,60.7754928 L272.644082,60.3046737 C271.937113,59.8652359 271.519615,59.0808456 271.549925,58.2489845 L270.982953,58.2489845 Z M272.335729,60.782124 C273.247869,61.3424509 274.302657,61.6268754 275.372844,61.6010841 L275.372844,61.0341117 C274.411545,61.0588 273.463703,60.8042763 272.644082,60.301358 L272.335729,60.782124 Z M297.401874,63.7529264 C295.190818,63.8834306 293.021126,63.1131543 291.387326,61.6176622 L290.98945,62.0221688 C292.727666,63.622809 295.039178,64.4527052 297.398559,64.3232144 L297.401874,63.7529264 Z M291.390641,61.6209778 C289.87724,59.9555372 289.059683,57.7734087 289.106174,55.5235385 L288.539201,55.5434323 C288.4979,57.9342096 289.37347,60.2500816 290.986135,62.0155375 L291.390641,61.6209778 Z M289.106174,55.5268542 L289.069702,54.0480842 L288.50273,54.0480842 L288.539201,55.5268542 L289.106174,55.5268542 Z M289.069702,54.0613467 L289.106174,52.5825768 L288.539201,52.5825768 L288.50273,54.0613467 L289.069702,54.0613467 Z M289.106174,52.5858924 C289.055568,50.3472162 289.874373,48.1760161 291.390641,46.5282407 L290.986135,46.1270497 C289.36903,47.8764972 288.492088,50.1841143 288.539201,52.5659987 L289.106174,52.5858924 Z M291.390641,46.5282407 C293.012829,45.012324 295.185383,44.2274244 297.401874,44.3565045 L297.401874,43.7895322 C295.034833,43.660045 292.717875,44.5046445 290.98945,46.1270497 L291.390641,46.5282407 Z M297.401874,44.3565045 C298.914195,44.3093343 300.415567,44.6278069 301.778503,45.2848803 L302.040437,44.7809049 C300.596103,44.079559 299.003454,43.7382771 297.398559,43.7862166 L297.401874,44.3565045 Z M301.778503,45.2848803 C302.840075,45.792114 303.746711,46.5739733 304.40448,47.549454 L304.885246,47.2477319 C304.174226,46.1862149 303.191942,45.3344439 302.040437,44.7809049 L301.778503,45.2848803 Z M304.407795,47.5560852 C304.95584,48.3395815 305.284384,49.2553852 305.359381,50.2085874 L305.926353,50.1787467 C305.848719,49.1193364 305.488018,48.1002115 304.88193,47.2278381 L304.407795,47.5560852 Z M305.359381,50.238428 C305.378366,50.3627059 305.332007,50.4880005 305.236702,50.5699908 L305.608053,51.0010224 C305.854508,50.7977703 305.979647,50.4824215 305.939615,50.1654842 L305.359381,50.238428 Z M305.236702,50.5699908 C305.112176,50.6733393 304.954155,50.727585 304.792408,50.7225097 L304.792408,51.289482 C305.090775,51.2949506 305.380853,51.1911827 305.608053,50.9977068 L305.236702,50.5699908 Z M304.792408,50.7225097 L303.018548,50.7225097 L303.018548,51.289482 L304.792408,51.289482 L304.792408,50.7225097 Z M303.018548,50.7225097 C302.886532,50.7356364 302.753835,50.7053722 302.640566,50.6363033 L302.285794,51.0805975 C302.498569,51.233092 302.757211,51.3079928 303.018548,51.2927976 L303.018548,50.7225097 Z M302.640566,50.6363033 C302.51193,50.4997815 302.41462,50.3368444 302.355422,50.158853 L301.831553,50.3776844 C301.924502,50.6449789 302.080284,50.8860426 302.285794,51.0805975 L302.640566,50.6363033 Z M302.362053,50.1721155 C302.04439,49.1024771 301.379405,48.169164 300.472145,47.5196133 L300.163792,47.9970637 C300.964835,48.5807631 301.54824,49.4150328 301.821606,50.3677375 L302.362053,50.1721155 Z M300.478777,47.5196133 C299.571344,46.9422312 298.509845,46.6543083 297.43503,46.694022 L297.43503,47.2609944 C298.396022,47.222007 299.346266,47.4751743 300.160476,47.9871168 L300.478777,47.5196133 Z M297.43503,46.694022 C295.987029,46.6308549 294.580781,47.1880475 293.569009,48.225842 L293.980146,48.6170861 C294.885283,47.6927727 296.142925,47.200337 297.43503,47.26431 L297.43503,46.694022 Z M293.569009,48.225842 C292.532328,49.49481 291.99259,51.0975248 292.050451,52.7350957 L292.617423,52.7549894 C292.555977,51.255218 293.040105,49.7839889 293.980146,48.6137705 L293.569009,48.225842 Z M292.050451,52.7384113 L292.013979,54.0646624 L292.580952,54.0646624 L292.617423,52.7384113 L292.050451,52.7384113 Z M292.013979,54.0845561 L292.050451,55.341179 L292.617423,55.3246009 L292.580952,54.067978 L292.013979,54.0845561 Z M292.050451,55.3444946 C291.988531,56.9937674 292.528226,58.6093194 293.569009,59.8902202 L293.980146,59.4989761 C293.036263,58.3166934 292.552208,56.8327264 292.617423,55.3212853 L292.050451,55.3444946 Z M293.569009,59.8902202 C294.58666,60.9153626 295.99242,61.4590999 297.43503,61.3855683 L297.43503,60.8152803 C296.146889,60.886602 294.889677,60.403987 293.980146,59.4890292 L293.569009,59.8902202 Z M297.43503,61.3855683 C298.502175,61.4236114 299.557364,61.1505986 300.472145,60.5997645 L300.163792,60.1223141 C299.340595,60.6128995 298.392556,60.8536529 297.43503,60.8152803 L297.43503,61.3855683 Z M300.478777,60.5964489 C301.379684,59.9248546 302.040101,58.9807373 302.362053,57.9041592 L301.824922,57.7151684 C301.544636,58.6754218 300.963528,59.5203526 300.167108,60.1256298 L300.478777,60.5964489 Z M302.355422,57.9207374 C302.414717,57.7427904 302.512015,57.5798732 302.640566,57.443287 L302.285794,56.9989929 C302.079839,57.194489 301.924028,57.4367364 301.831553,57.7052216 L302.355422,57.9207374 Z M302.663775,57.4200776 C302.763455,57.3396085 302.89129,57.3025721 303.018548,57.3172931 L303.018548,56.7503208 C302.740584,56.7337464 302.46779,56.8306601 302.262584,57.0188866 L302.663775,57.4200776 Z M303.018548,57.3172931 L304.792408,57.3172931 L304.792408,56.7503208 L303.018548,56.7503208 L303.018548,57.3172931 Z M304.792408,57.3172931 C304.953321,57.3132622 305.108524,57.3770275 305.220124,57.4930214 L305.621315,57.0918304 C305.401541,56.8732739 305.102284,56.7535712 304.792408,56.7602677 L304.792408,57.3172931 Z M305.236702,57.5062839 C305.332007,57.5882742 305.378366,57.7135688 305.359381,57.8378467 L305.923037,57.8942123 C305.963068,57.5772751 305.83793,57.2619262 305.591475,57.0586742 L305.236702,57.5062839 Z M305.359381,57.8676873 C305.279544,58.8265096 304.950354,59.7477852 304.40448,60.5400832 L304.88193,60.845121 C305.480388,59.9700886 305.840368,58.9541453 305.926353,57.897528 L305.359381,57.8676873 Z M304.40448,60.5400832 C303.746833,61.5156718 302.840164,62.2975593 301.778503,62.8046569 L302.040437,63.3086323 C303.191584,62.7545498 304.173738,61.9028918 304.885246,60.8418053 L304.40448,60.5400832 Z M301.775187,62.8079725 C300.413807,63.4695895 298.911303,63.7883025 297.398559,63.7363483 L297.398559,64.3033206 C299.003936,64.3566129 300.597857,64.0150585 302.040437,63.3086323 L301.775187,62.8079725 Z M313.618609,46.8631191 L313.336781,46.8631191 C313.338056,46.9835099 313.414809,47.0901271 313.528575,47.129536 C313.64234,47.1689448 313.768598,47.1326522 313.844072,47.0388473 L313.618609,46.8631191 Z M310.923004,63.3749449 C310.761257,63.3800202 310.603237,63.3257745 310.47871,63.222426 L310.107359,63.6534576 C310.333386,63.84671 310.622356,63.9505033 310.919688,63.9452328 L310.923004,63.3749449 Z M310.511866,63.2522667 C310.408518,63.1277398 310.354272,62.9697195 310.359347,62.8079725 L309.789059,62.8079725 C309.782867,63.1048763 309.885463,63.393796 310.077519,63.6203013 L310.511866,63.2522667 Z M310.359347,62.8079725 L310.359347,38.2723277 L309.789059,38.2723277 L309.789059,62.8079725 L310.359347,62.8079725 Z M310.359347,38.2723277 C310.349075,38.1281861 310.399569,37.9863195 310.498604,37.8810837 L310.097413,37.4798927 C309.891894,37.6913686 309.781701,37.9776316 309.792375,38.2723277 L310.359347,38.2723277 Z M310.498604,37.8810837 C310.609967,37.7647413 310.76533,37.7009098 310.92632,37.7053554 L310.92632,37.1383831 C310.616374,37.1313005 310.316971,37.2510615 310.097413,37.4699458 L310.498604,37.8810837 Z M310.92632,37.7053554 L312.773124,37.7053554 L312.773124,37.1383831 L310.92632,37.1383831 L310.92632,37.7053554 Z M312.773124,37.7053554 C312.916124,37.6963451 313.054992,37.7553334 313.14779,37.8645055 L313.578822,37.4931552 C313.377536,37.2571113 313.07987,37.1253576 312.769808,37.1350675 L312.773124,37.7053554 Z M313.177631,37.8943462 C313.286803,37.9871444 313.345791,38.1260125 313.336781,38.2690121 L313.907069,38.2690121 C313.915282,37.9601943 313.78371,37.6641579 313.548981,37.4633146 L313.177631,37.8943462 Z M313.336781,38.2690121 L313.336781,46.8896441 L313.907069,46.8896441 L313.907069,38.2690121 L313.336781,38.2690121 Z M313.844072,47.0587411 C314.485335,46.219166 315.311251,45.5384666 316.257849,45.0693645 L316.009177,44.5587578 C314.984776,45.0661844 314.090823,45.8024476 313.396462,46.7106002 L313.844072,47.0587411 Z M316.26448,45.0693645 C317.34474,44.5622728 318.530017,44.3190807 319.72268,44.3598202 L319.72268,43.7928478 C318.440249,43.7506296 317.16619,44.0143063 316.005861,44.5620734 L316.26448,45.0693645 Z M319.72268,44.3598202 C321.733456,44.2386637 323.688721,45.0464326 325.027684,46.5514501 L325.458716,46.1800998 C324.014555,44.5515743 321.906038,43.671296 319.732627,43.7895322 L319.72268,44.3598202 Z M325.027684,46.5580813 C326.377782,48.1947509 327.06515,50.2781492 326.954064,52.3969016 L327.521036,52.3969016 C327.632035,50.1399735 326.893926,47.9232825 325.452084,46.1834154 L325.027684,46.5580813 Z M326.954064,52.3969016 L326.954064,62.8212351 L327.521036,62.8212351 L327.521036,52.3969016 L326.954064,52.3969016 Z M326.954064,62.8212351 C326.958095,62.9821481 326.894329,63.1373505 326.778335,63.248951 L327.179526,63.650142 C327.397757,63.4301535 327.517402,63.1310411 327.511089,62.8212351 L326.954064,62.8212351 Z M326.778335,63.248951 C326.6731,63.3479851 326.531233,63.39848 326.387091,63.3882074 L326.387091,63.9551797 C326.681723,63.9654659 326.967839,63.8553291 327.179526,63.650142 L326.778335,63.248951 Z M326.387091,63.3882074 L324.540287,63.3882074 L324.540287,63.9551797 L326.387091,63.9551797 L326.387091,63.3882074 Z M324.540287,63.3882074 C324.37854,63.3932827 324.220519,63.339037 324.095993,63.2356885 L323.724642,63.6667201 C323.950669,63.8599725 324.239639,63.9637658 324.536971,63.9584954 L324.540287,63.3882074 Z M324.129149,63.2655292 C324.0258,63.1410023 323.971555,62.982982 323.97663,62.8212351 L323.406342,62.8212351 C323.400456,63.1180892 323.503015,63.4069037 323.694802,63.6335638 L324.129149,63.2655292 Z M323.97663,62.8212351 L323.97663,52.5726299 L323.406342,52.5726299 L323.406342,62.8112882 L323.97663,62.8212351 Z M323.97663,52.5825768 C324.070162,51.0425338 323.582718,49.5234137 322.610591,48.3253109 L322.186191,48.7032924 C323.063546,49.7971065 323.498915,51.1801147 323.406342,52.5792612 L323.97663,52.5825768 Z M322.613907,48.3286265 C321.617334,47.2614857 320.195079,46.6969634 318.737938,46.7901752 L318.737938,47.3571476 C320.030199,47.2653525 321.295214,47.7596702 322.182875,48.7032924 L322.613907,48.3286265 Z M318.737938,46.7901752 C317.261611,46.7286528 315.828998,47.2990448 314.798973,48.3584671 L315.21011,48.7497112 C316.1347,47.8055871 317.417857,47.3002836 318.737938,47.3604632 L318.737938,46.7901752 Z M314.798973,48.3584671 C313.781427,49.5235417 313.262273,51.0417094 313.353359,52.5858924 L313.923647,52.5858924 C313.833899,51.1885144 314.297147,49.8118716 315.213426,48.7530268 L314.798973,48.3584671 Z M313.353359,52.5858924 L313.353359,62.8245507 L313.923647,62.8245507 L313.923647,52.5726299 L313.353359,52.5858924 Z M313.353359,62.8245507 C313.357805,62.9855399 313.293973,63.1409035 313.177631,63.2522667 L313.578822,63.6534576 C313.797378,63.4336831 313.917081,63.1344264 313.910384,62.8245507 L313.353359,62.8245507 Z M313.177631,63.2522667 C313.072395,63.3513008 312.930528,63.4017957 312.786387,63.391523 L312.786387,63.9584954 C313.081018,63.9687815 313.367134,63.8586447 313.578822,63.6534576 L313.177631,63.2522667 Z M312.786387,63.391523 L310.939582,63.391523 L310.939582,63.9584954 L312.786387,63.9584954 L312.786387,63.391523 Z M340.259678,63.7595577 C338.066874,63.8643776 335.929516,63.0510044 334.361176,61.5148778 L333.956669,61.9127531 C335.630708,63.5565574 337.912516,64.4308499 340.256362,64.32653 L340.259678,63.7595577 Z M334.364492,61.5181934 C332.830273,59.7951843 331.976818,57.571957 331.963977,55.2649196 L331.397005,55.2947602 C331.415819,57.7372642 332.324715,60.0890763 333.953354,61.9094374 L334.364492,61.5181934 Z M331.967293,55.2715508 L331.930821,54.014928 L331.363849,54.014928 L331.40032,55.2715508 L331.967293,55.2715508 Z M331.930821,54.0315061 L331.967293,52.8113551 L331.397005,52.794777 L331.360533,54.014928 L331.930821,54.0315061 Z M331.967293,52.821302 C332.011057,50.5353801 332.876105,48.3415715 334.404279,46.640972 L333.993141,46.2497279 C332.373039,48.0466142 331.452819,50.3659922 331.40032,52.7848301 L331.967293,52.821302 Z M334.400963,46.640972 C335.934291,45.0955874 338.048267,44.2685363 340.223206,44.3631358 L340.223206,43.7961635 C337.893891,43.7015519 335.63241,44.592183 333.993141,46.2497279 L334.400963,46.640972 Z M340.223206,44.3631358 C342.549063,44.2256497 344.810776,45.1557227 346.367064,46.8896441 L346.798095,46.5182938 C345.133775,44.6592442 342.714558,43.6576421 340.223206,43.7961635 L340.223206,44.3631358 Z M346.370379,46.8896441 C347.915718,48.8217892 348.693745,51.2562231 348.555378,53.7264683 L349.125666,53.7264683 C349.265814,51.118932 348.439447,48.5512927 346.804727,46.5149781 L346.370379,46.8896441 Z M348.555378,53.7264683 L348.555378,54.3564376 L349.125666,54.3564376 L349.125666,53.7264683 L348.555378,53.7264683 Z M348.555378,54.3564376 C348.559824,54.5174268 348.495992,54.6727904 348.37965,54.7841536 L348.780841,55.1853445 C348.999071,54.965356 349.118716,54.6662436 349.112403,54.3564376 L348.555378,54.3564376 Z M348.37965,54.7841536 C348.274414,54.8831877 348.132547,54.9336826 347.988406,54.9234099 L347.988406,55.4903823 C348.283037,55.5006684 348.569153,55.3905316 348.780841,55.1853445 L348.37965,54.7841536 Z M347.988406,54.9234099 L335.196714,54.9234099 L335.196714,55.4903823 L347.988406,55.4903823 L347.988406,54.9234099 Z M334.91157,55.2085539 L334.91157,55.5401167 L335.481858,55.5401167 L335.481858,55.2085539 L334.91157,55.2085539 Z M334.91157,55.5401167 C334.94736,57.0857506 335.473322,58.580041 336.413549,59.8073295 L336.861159,59.455873 C335.993192,58.3220252 335.508914,56.9411967 335.478542,55.5135917 L334.91157,55.5401167 Z M336.416865,59.8106451 C337.337775,60.9647085 338.747321,61.6191408 340.223206,61.5778747 L340.223206,61.0109023 C338.9183,61.0519159 337.670682,60.4742012 336.857844,59.4525573 L336.416865,59.8106451 Z M340.223206,61.5778747 C341.245215,61.6199117 342.258485,61.3740615 343.147589,60.8683304 L342.849183,60.3842487 C342.05023,60.8326216 341.141774,61.0485379 340.226521,61.0075867 L340.223206,61.5778747 Z M343.147589,60.8683304 C343.810418,60.478429 344.390509,59.9625423 344.855138,59.3497729 L344.39095,59.0182101 C343.969428,59.5694879 343.444645,60.0334593 342.845867,60.3842487 L343.147589,60.8683304 Z M344.848506,59.3564041 C344.932281,59.2413488 345.021921,59.1306815 345.117072,59.0248414 C345.143996,58.9953871 345.172791,58.9676994 345.203278,58.9419507 L345.229803,58.9220569 L344.9745,58.4147659 C344.870944,58.4742044 344.777953,58.5503903 344.699303,58.6402286 C344.591806,58.7602661 344.490015,58.8852928 344.394265,59.0148945 L344.848506,59.3564041 Z M345.246382,58.91211 C345.400363,58.8524489 345.565909,58.8286375 345.730463,58.8424818 L345.730463,58.2755095 C345.463013,58.2584985 345.195716,58.3110441 344.954606,58.4280284 L345.246382,58.91211 Z M345.730463,58.8424818 L347.544112,58.8424818 L347.544112,58.2755095 L345.730463,58.2755095 L345.730463,58.8424818 Z M347.544112,58.8424818 C347.678316,58.8356021 347.8104,58.8780579 347.915462,58.9618444 L348.280181,58.5241816 C348.072934,58.3547205 347.811732,58.2653002 347.544112,58.2721939 L347.544112,58.8424818 Z M347.915462,58.9618444 C348.000607,59.0365538 348.044957,59.1474305 348.034824,59.2602509 L348.601797,59.2602509 C348.610815,58.9768693 348.488445,58.7052076 348.270234,58.5241816 L347.915462,58.9618444 Z M348.034824,59.2602509 C347.928388,59.9445066 347.587287,60.5704437 347.069977,61.0307961 L347.494377,61.4120933 C348.107788,60.8494216 348.500444,60.0864469 348.601797,59.2602509 L348.034824,59.2602509 Z M347.069977,61.0341117 C346.298849,61.8632174 345.360975,62.5197292 344.318006,62.9604914 L344.556731,63.4777293 C345.672773,63.0028771 346.676054,62.2978688 347.501008,61.4087777 L347.069977,61.0341117 Z M344.321321,62.9571758 C343.039804,63.5050084 341.65642,63.7739997 340.262993,63.7462952 L340.262993,64.3132675 C341.73756,64.3416265 343.201262,64.0556676 344.556731,63.4744137 L344.321321,62.9571758 Z M345.611101,52.6422581 L345.611101,52.5328424 L345.044128,52.5328424 L345.044128,52.6422581 L345.611101,52.6422581 Z M345.611101,52.5328424 C345.679254,50.95555 345.152686,49.4101618 344.135646,48.2026326 L343.70793,48.5806142 C344.629754,49.6852267 345.103091,51.095769 345.034181,52.5328424 L345.611101,52.5328424 Z M344.138962,48.2225264 C343.171089,47.0721378 341.725365,46.4343545 340.223206,46.4950844 L340.223206,47.0653723 C341.556134,47.0080888 342.840458,47.5712814 343.701299,48.5905611 L344.138962,48.2225264 Z M340.223206,46.4950844 C338.722192,46.4353936 337.277914,47.0730792 336.310765,48.2225264 L336.745112,48.5872454 C337.605954,47.5679657 338.890277,47.0047731 340.223206,47.0620567 L340.223206,46.4950844 Z M336.307449,48.2225264 C335.340297,49.4455787 334.843846,50.9749296 334.908254,52.5328424 L335.478542,52.5328424 C335.410929,51.1038497 335.860593,49.698357 336.745112,48.5739829 L336.307449,48.2225264 Z M334.908254,52.5328424 L334.908254,52.6422581 L335.478542,52.6422581 L335.478542,52.5328424 L334.908254,52.5328424 Z M335.193398,52.9274021 L345.322641,52.9274021 L345.322641,52.3604297 L335.193398,52.3604297 L335.193398,52.9274021 Z" fill="#51504F"></path>
        <path d="M213.546335,150.503009 C212.518374,150.478523 211.690859,149.651009 211.666374,148.623048 C211.650032,148.275603 211.681267,147.927555 211.759211,147.588572 L235.054811,86.8197482 C235.450867,85.5141722 236.697929,84.6566455 238.05877,84.7541121 L244.444669,84.7541121 C245.806363,84.6563005 247.054559,85.5136607 247.451943,86.8197482 L270.661337,147.588572 L270.850328,148.623048 C270.822521,149.649583 269.996902,150.475203 268.970367,150.503009 L264.179285,150.503009 C263.607805,150.538691 263.042009,150.372004 262.581152,150.03219 C262.248319,149.71878 261.991946,149.333087 261.831821,148.904876 L256.666073,135.566106 L225.85726,135.566106 L220.691512,148.904876 C220.516479,149.350004 220.224341,149.739522 219.846027,150.03219 C219.417086,150.362363 218.884711,150.529244 218.344048,150.503009 L213.546335,150.503009 Z M253.933995,127.492553 L241.255035,94.150601 L228.579391,127.489237 L253.933995,127.492553 Z M281.069092,92.5524684 C280.479169,92.6159072 279.892208,92.4091008 279.472342,91.9898793 C279.052477,91.5706578 278.84477,90.9840146 278.907303,90.3939948 L278.907303,85.3210845 C278.891556,84.7370724 279.092314,84.167863 279.47096,83.7229519 C279.889047,83.2904189 280.467601,83.0503551 281.069092,83.0598264 L286.987488,83.0598264 C287.586263,83.0571671 288.161283,83.2938534 288.584685,83.7172558 C289.008087,84.1406582 289.244774,84.7156777 289.242115,85.3144532 L289.242115,90.3873636 C289.251063,90.9877852 289.01101,91.5651141 288.578989,91.9821805 C288.135095,92.360329 287.567101,92.5610752 286.984172,92.5458372 L281.069092,92.5524684 Z M281.82174,150.506325 C281.231481,150.568661 280.644651,150.361018 280.224954,149.941321 C279.805257,149.521624 279.597614,148.934794 279.659951,148.344535 L279.659951,103.822287 C279.633151,103.265395 279.837046,102.722075 280.223607,102.320308 C280.641694,101.887774 281.220248,101.647711 281.82174,101.656912 L286.327678,101.656912 C287.500866,101.702906 288.441942,102.642539 288.489467,103.815656 L288.489467,148.334588 C288.499338,148.936156 288.259211,149.514863 287.826341,149.932721 C287.424148,150.318605 286.88113,150.522387 286.324362,150.496378 L281.82174,150.506325 Z M304.570261,150.506325 C303.980242,150.568858 303.393598,150.361151 302.974377,149.941285 C302.555155,149.52142 302.348349,148.934458 302.411788,148.344535 L302.411788,103.915124 C302.397177,103.332295 302.597846,102.764519 302.975444,102.320308 C303.393532,101.887774 303.972085,101.647711 304.573577,101.657182 L308.883893,101.657182 C309.482668,101.654523 310.057688,101.891209 310.48109,102.314611 C310.904493,102.738014 311.141179,103.313033 311.13852,103.911809 L311.13852,108.043081 C313.991174,103.63244 319.058019,101.171839 324.288299,101.657182 L327.935489,101.657182 C329.107384,101.704589 330.046557,102.643761 330.093963,103.815656 L330.093963,107.665099 C330.115276,108.241022 329.870782,108.794801 329.430838,109.167079 C329.028857,109.553301 328.485688,109.757139 327.928858,109.730735 L322.292291,109.730735 C319.327398,109.571861 316.431585,110.662601 314.30826,112.73801 C312.284939,114.888269 311.231562,117.773972 311.393823,120.722041 L311.393823,148.334588 C311.403294,148.93608 311.163231,149.514634 310.730697,149.932721 C310.285469,150.310815 309.716478,150.511497 309.132565,150.496378 L304.570261,150.506325 Z M345.13365,150.506325 C344.543934,150.567581 343.958064,150.35946 343.539151,149.939903 C343.120237,149.520345 342.913015,148.934156 342.975177,148.344535 L342.975177,109.17371 L334.991145,109.17371 C334.401764,109.236066 333.815764,109.02878 333.396683,108.609698 C332.977602,108.190617 332.770315,107.604617 332.832672,107.015236 L332.832672,103.822287 C332.805872,103.265395 333.009767,102.722075 333.396328,102.320308 C333.813166,101.887951 334.390647,101.647834 334.991145,101.657182 L342.975177,101.657182 L342.975177,96.9589376 C342.975177,86.3135624 348.359756,80.9919799 359.128915,80.9939203 L364.3875,80.9939203 C365.560689,81.0399146 366.501764,81.9795472 366.549289,83.152664 L366.549289,86.3456134 C366.55784,86.9459586 366.31785,87.5231358 365.886164,87.9404303 C365.48397,88.3263147 364.940952,88.5300963 364.384185,88.504087 L359.31459,88.504087 C357.094376,88.2630019 354.893256,89.1015236 353.396194,90.7587139 C352.118771,92.7366659 351.524801,95.0787717 351.705224,97.4264411 L351.705224,101.653866 L371.804559,101.653866 L371.804559,83.1592952 C371.77855,82.6025277 371.982332,82.0595097 372.368216,81.6573159 C372.786303,81.2247828 373.364857,80.984719 373.966349,80.9939203 L378.276664,80.9939203 C379.449853,81.0399146 380.390929,81.9795472 380.438746,83.152664 L380.438746,148.334588 C380.448325,148.936156 380.208197,149.514863 379.775328,149.932721 C379.372328,150.319461 378.827933,150.52331 378.270033,150.496378 L373.959717,150.496378 C373.369155,150.559995 372.78155,150.352769 372.361543,149.932762 C371.941537,149.512756 371.734311,148.92515 371.797928,148.334588 L371.797928,109.17371 L351.698593,109.17371 L351.698593,148.34122 C351.707666,148.942635 351.467666,149.521037 351.035468,149.939352 C350.632255,150.325754 350.08801,150.529546 349.530173,150.503009 L345.13365,150.506325 Z M414.430269,151.444647 C408.501941,151.803546 402.689072,149.695121 398.369368,145.619089 C394.475664,141.400818 392.327359,135.862386 392.358135,130.121846 L392.261982,126.083411 L392.358135,122.044977 C392.340968,116.317179 394.526392,110.801981 398.462206,106.64057 C407.644436,98.7507431 421.212785,98.7507431 430.395016,106.64057 C434.329662,110.802725 436.514894,116.317436 436.499086,122.044977 C436.560978,122.732417 436.591924,124.078562 436.591924,126.083411 C436.591924,128.088261 436.560978,129.434405 436.499086,130.121846 C436.526492,135.87913 434.341304,141.426968 430.395016,145.619089 C426.114732,149.706464 420.320122,151.817529 414.413691,151.441332 L414.430269,151.444647 Z M414.430269,144.213263 C417.927324,144.390848 421.324528,143.016194 423.714026,140.456657 C426.225888,137.425571 427.559762,133.589948 427.470632,129.654342 C427.532524,129.028794 427.56347,127.839589 427.56347,126.086727 C427.56347,124.333865 427.532524,123.14466 427.470632,122.519111 C427.559762,118.583506 426.225888,114.747883 423.714026,111.716796 C421.324528,109.15726 417.927324,107.782605 414.430269,107.96019 C410.902474,107.790264 407.474826,109.161081 405.037095,111.716796 C402.537356,114.748225 401.239295,118.592845 401.389905,122.519111 L401.297067,126.086727 L401.389905,129.654342 C401.239295,133.580609 402.537356,137.425229 405.037095,140.456657 C407.471561,143.006671 410.89209,144.375851 414.413691,144.209948 L414.430269,144.213263 Z M460.036727,150.512956 C459.36376,150.556774 458.697533,150.35667 458.160082,149.949299 C457.644552,149.455454 457.25755,148.843081 457.032769,148.165491 L443.693999,104.584881 L443.508323,103.646559 C443.493093,103.119079 443.697172,102.608881 444.07198,102.237417 C444.456315,101.882507 444.958045,101.681815 445.481122,101.67376 L449.612394,101.67376 C450.169224,101.647356 450.712392,101.851195 451.114373,102.237417 C451.499288,102.483277 451.795534,102.845742 451.959858,103.271893 L462.387507,138.679481 L473.564488,103.646559 C473.697813,103.125684 473.994038,102.661018 474.409973,102.320308 C474.888247,101.863626 475.533334,101.623817 476.193781,101.657182 L479.38673,101.657182 C480.048186,101.623683 480.694349,101.863447 481.173854,102.320308 C481.589965,102.660862 481.88623,103.125591 482.019339,103.646559 L493.19632,138.679481 L503.620653,103.271893 C503.737501,102.870421 503.967761,102.511215 504.283779,102.237417 C504.72869,101.858772 505.297899,101.658013 505.881911,101.67376 L510.109337,101.67376 C510.610694,101.668406 511.091492,101.872745 511.435588,102.237417 C511.810057,102.609105 512.014075,103.11915 511.999244,103.646559 L511.810254,104.584881 L498.567637,148.165491 C498.342611,148.842965 497.955644,149.455284 497.440323,149.949299 C496.865563,150.368265 496.160055,150.568159 495.450947,150.512956 L491.803756,150.512956 C490.314346,150.665717 488.960456,149.640526 488.703644,148.165491 L477.808492,114.541711 L466.913339,148.165491 C466.561713,149.620471 465.214021,150.611297 463.72039,150.512956 L460.036727,150.512956 Z" fill="#51504F"></path>
    </g>
</svg>
