<?xml version="1.0" encoding="UTF-8"?>
<svg width="256px" height="256px" viewBox="0 0 256 256" version="1.1" xmlns="http://www.w3.org/2000/svg" preserveAspectRatio="xMidYMid">
    <title>Airflow</title>
    <g>
        <path d="M4.12667151,254.973794 L126.695485,129.334999 C127.476348,128.563498 127.591783,127.34319 126.969435,126.438953 C119.51625,116.033193 105.762208,114.2286 100.665864,107.236346 C85.5681626,86.5248391 81.7372078,74.8015084 75.2493705,75.5276939 C74.7965974,75.592837 74.3802725,75.8125214 74.0709496,76.1495175 L29.7953736,121.538288 C4.32235024,147.628787 0.66098362,205.136594 0,253.295306 C-0.00437321723,254.275649 0.587847435,255.160144 1.49595589,255.529511 C2.40406434,255.898879 3.44553185,255.678877 4.12667151,254.973794 L4.12667151,254.973794 Z" fill="#017CEE"></path>
        <path d="M254.973769,251.873373 L129.334974,129.295863 C128.562841,128.512628 127.339707,128.3971 126.43458,129.021913 C116.02882,136.479447 114.224227,150.22914 107.231973,155.325484 C86.5204658,170.423185 74.7971352,174.25414 75.5233207,180.741978 C75.5894181,181.193197 75.8090265,181.607842 76.1451442,181.91605 L121.533915,226.191626 C147.624413,251.664649 205.13222,255.326016 253.290932,255.986976 C254.266218,255.986976 255.144964,255.398166 255.514239,254.495492 C255.883515,253.592819 255.669898,252.556446 254.973769,251.873373 L254.973769,251.873373 Z" fill="#00AD46"></path>
        <path d="M121.533915,226.204671 C107.271109,212.289739 100.661516,184.764263 127.995662,128.004383 C83.5591942,147.863601 67.987515,173.967145 75.6450764,181.442073 L121.533915,226.204671 Z" fill="#04D659"></path>
        <path d="M251.869,1.03062384 L129.304535,126.669419 C128.521971,127.440112 128.406415,128.661702 129.030585,129.565465 C136.488119,139.971225 150.233463,141.775818 155.334156,148.768072 C170.431857,169.479579 174.267161,181.20291 180.75065,180.476724 C181.203648,180.412275 181.620193,180.192475 181.92907,179.854901 L226.204646,134.46613 C251.67767,108.375632 255.339036,50.8678244 256,2.70911258 C256.001828,1.72895646 255.408578,0.845779596 254.500516,0.476819409 C253.592453,0.107859222 252.551329,0.326964523 251.869,1.03062384 L251.869,1.03062384 Z" fill="#00C7D4"></path>
        <path d="M226.226389,134.46613 C212.311456,148.728936 184.78598,155.338529 128.021752,128.004383 C147.88097,172.440851 173.984514,188.01253 181.459442,180.354969 L226.226389,134.46613 Z" fill="#11E1EE"></path>
        <path d="M1.01755377,4.13104475 L126.656349,126.69551 C127.42785,127.476373 128.648158,127.591808 129.552395,126.96946 C139.958155,119.511926 141.762748,105.762233 148.755002,100.665889 C169.466509,85.5681875 181.18984,81.7372326 180.463654,75.2493953 C180.397483,74.7969571 180.17797,74.3809573 179.841831,74.0709744 L134.45306,29.7953985 C108.362561,4.32237507 50.8547543,0.661008449 2.6960425,0 C1.71373197,-0.00621471271 0.826744117,0.586697585 0.456966072,1.49677308 C0.0871880283,2.40684858 0.309259267,3.4503891 1.01755377,4.13104475 L1.01755377,4.13104475 Z" fill="#E43921"></path>
        <path d="M134.474802,29.7997469 C148.737608,43.7146794 155.347201,71.2401554 128.013055,128.004383 C172.449523,108.145166 188.021202,82.0372733 180.363641,74.5666939 L134.474802,29.7997469 Z" fill="#FF7557"></path>
        <path d="M29.7953736,121.542636 C43.7103062,107.279831 71.2357821,100.670238 128.00001,128.004383 C108.140792,83.5679159 82.0372485,67.9962367 74.5623207,75.653798 L29.7953736,121.542636 Z" fill="#0CB6FF"></path>
        <circle fill="#4A4848" cx="128.017404" cy="127.982641" r="5.47900469"></circle>
    </g>
</svg>
