<?xml version="1.0" encoding="UTF-8"?>
<svg width="256px" height="256px" viewBox="0 0 256 256" version="1.1" xmlns="http://www.w3.org/2000/svg" xmlns:xlink="http://www.w3.org/1999/xlink" preserveAspectRatio="xMidYMid">
    <g>
		<polygon fill="#C9EBEC" points="168.360585 123.454439 168.360585 94.6325854 157.633561 100.027317 168.360585 123.466927"></polygon>
		<polygon fill="#C9EBEC" points="194.95961 103.448976 239.478634 58.942439 168.360585 94.6325854"></polygon>
		<polygon fill="#C9EBEC" points="168.360585 129.298732 159.369366 153.48761 159.394341 153.462634 179.774439 133.082537 192.349659 158.120585 255.288195 158.120585"></polygon>
		<polygon fill="#00868C" points="168.360585 94.6325854 168.360585 123.454439 255.288195 123.454439 194.95961 103.448976 168.360585 94.6325854"></polygon>
		<polygon fill="#00B3BB" points="168.360585 123.454439 168.360585 123.466927 168.360585 129.298732 255.288195 158.120585 255.288195 123.454439"></polygon>
		<polygon fill="#C9EBEC" points="131.946146 168.273171 160.605659 168.273171 151.789268 194.872195 196.345756 239.441171 155.273366 157.58361"></polygon>
		<polygon fill="#00868C" points="159.394341 153.462634 220.846829 214.92761 192.349659 158.120585 179.774439 133.082537"></polygon>
		<polygon fill="#00B3BB" points="159.394341 153.462634 159.369366 153.48761 155.273366 157.58361 196.345756 239.441171 220.846829 214.92761"></polygon>
		<polygon fill="#C9EBEC" points="101.750634 159.269463 101.77561 159.306927 122.155707 179.687024 97.1176585 192.249756 97.1176585 255.188293 125.952 168.273171"></polygon>
		<polygon fill="#00868C" points="131.946146 168.273171 131.783805 168.273171 131.783805 255.188293 151.789268 194.872195 160.605659 168.273171"></polygon>
		<polygon fill="#00B3BB" points="131.783805 168.273171 125.952 168.273171 97.1176585 255.188293 131.783805 255.188293"></polygon>
		<polygon fill="#C9EBEC" points="60.3160976 151.739317 15.809561 196.258341 86.915122 160.568195"></polygon>
		<polygon fill="#C9EBEC" points="86.915122 131.733854 86.915122 160.568195 97.6546341 155.173463 86.915122 131.733854"></polygon>
		<polygon fill="#00868C" points="101.77561 159.306927 40.3106341 220.759415 97.1176585 192.249756 122.155707 179.687024"></polygon>
		<polygon fill="#00B3BB" points="101.77561 159.306927 101.750634 159.269463 97.6546341 155.173463 86.915122 160.568195 86.915122 160.568195 86.915122 160.568195 15.809561 196.258341 40.3106341 220.759415"></polygon>
		<polygon fill="#C9EBEC" points="95.9188293 101.700683 95.8938537 101.738146 75.5012683 122.118244 62.9385366 97.0801951 0 97.0801951 86.915122 125.902049"></polygon>
		<polygon fill="#00868C" points="86.915122 160.568195 86.915122 160.568195 86.915122 131.733854 0 131.733854 60.3160976 151.739317 86.915122 160.568195"></polygon>
		<polygon fill="#00B3BB" points="86.915122 131.733854 86.915122 131.733854 86.915122 125.902049 0 97.0801951 0 131.733854"></polygon>
		<polygon fill="#C9EBEC" points="123.342049 86.9276098 94.6700488 86.9276098 103.498927 60.3285854 58.942439 15.7596098 100.014829 97.6046829"></polygon>
		<polygon fill="#00868C" points="95.8938537 101.738146 34.428878 40.2731707 62.9385366 97.0801951 75.5012683 122.118244"></polygon>
		<polygon fill="#00B3BB" points="95.8938537 101.738146 95.9188293 101.700683 100.014829 97.6046829 58.942439 15.7596098 34.428878 40.2731707"></polygon>
		<polygon fill="#C9EBEC" points="153.537561 95.9188293 153.500098 95.8938537 133.12 75.5137561 158.158049 62.9510244 158.158049 0.0124878049 129.336195 86.9276098"></polygon>
		<polygon fill="#00868C" points="123.342049 86.9276098 123.50439 86.9276098 123.50439 0.0124878049 103.498927 60.3285854 94.6700488 86.9276098"></polygon>
		<polygon fill="#00B3BB" points="123.50439 86.9276098 129.336195 86.9276098 158.158049 0.0124878049 123.50439 0.0124878049"></polygon>
		<polygon fill="#00868C" points="153.500098 95.8938537 214.965073 34.4413659 158.158049 62.9510244 133.12 75.5137561"></polygon>
		<polygon fill="#00B3BB" points="153.500098 95.8938537 153.537561 95.9188293 157.633561 100.027317 168.360585 94.6325854 168.360585 94.6325854 239.478634 58.942439 214.965073 34.4413659"></polygon>
    </g>
</svg>
