<?xml version="1.0" encoding="UTF-8"?>
<svg width="256px" height="256px" viewBox="0 0 256 256" version="1.1" xmlns="http://www.w3.org/2000/svg" xmlns:xlink="http://www.w3.org/1999/xlink"  preserveAspectRatio="xMidYMid">
    <title>AMEX</title>
    <g>
        <path d="M256,138.547884 L256,0 L0,0 L0,256 L256,256 L256,181.309577 C255.429844,181.309577 256,138.547884 256,138.547884" fill="#006FCF"></path>
        <path d="M224.641425,124.293987 L244.026726,124.293987 L244.026726,79.2516704 L222.930958,79.2516704 L222.930958,85.5233853 L218.939866,79.2516704 L200.694878,79.2516704 L200.694878,87.233853 L197.273942,79.2516704 L163.634744,79.2516704 C162.494432,79.2516704 161.35412,79.8218263 160.213808,79.8218263 C159.073497,79.8218263 158.503341,80.3919822 157.363029,80.9621381 C156.222717,81.532294 155.652561,81.532294 154.512249,82.1024499 L154.512249,79.2516704 L58.155902,79.2516704 L55.3051225,86.6636971 L52.454343,79.2516704 L29.6481069,79.2516704 L29.6481069,87.233853 L26.2271715,79.2516704 L7.98218263,79.2516704 L0,98.636971 L0,124.293987 L13.1135857,124.293987 L15.3942094,118.022272 L19.9554566,118.022272 L22.2360802,124.293987 L122.583519,124.293987 L122.583519,118.592428 L126.57461,124.293987 L154.512249,124.293987 L154.512249,120.873051 C155.082405,121.443207 156.222717,121.443207 156.792873,122.013363 C157.363029,122.583519 158.503341,122.583519 159.073497,123.153675 C160.213808,123.723831 161.35412,123.723831 162.494432,123.723831 L183.020045,123.723831 L185.300668,117.452116 L189.861915,117.452116 L192.142539,123.723831 L220.080178,123.723831 L220.080178,118.022272 L224.641425,124.293987 L224.641425,124.293987 Z M256,181.309577 L256,139.11804 L99.2071269,139.11804 L95.2160356,144.819599 L91.2249443,139.11804 L45.6124722,139.11804 L45.6124722,184.160356 L91.2249443,184.160356 L95.2160356,178.458797 L99.2071269,184.160356 L127.714922,184.160356 L127.714922,174.467706 L126.57461,174.467706 C130.565702,174.467706 133.986637,173.89755 136.837416,172.757238 L136.837416,184.730512 L157.363029,184.730512 L157.363029,179.028953 L161.35412,184.730512 L246.30735,184.730512 C249.728285,183.5902 253.14922,183.020045 256,181.309577 L256,181.309577 Z" fill="#FFFFFF"></path>
        <path d="M246.30735,170.476615 L230.91314,170.476615 L230.91314,176.74833 L245.737194,176.74833 C252.008909,176.74833 256,172.757238 256,167.055679 C256,161.35412 252.579065,158.503341 246.877506,158.503341 L240.035635,158.503341 C238.325167,158.503341 237.184855,157.363029 237.184855,155.652561 C237.184855,153.942094 238.325167,152.801782 240.035635,152.801782 L253.14922,152.801782 L256,146.530067 L240.605791,146.530067 C234.334076,146.530067 230.342984,150.521158 230.342984,155.652561 C230.342984,161.35412 233.76392,164.2049 239.465479,164.2049 L246.30735,164.2049 C248.017817,164.2049 249.158129,165.345212 249.158129,167.055679 C249.728285,169.336303 248.587973,170.476615 246.30735,170.476615 L246.30735,170.476615 Z M218.36971,170.476615 L202.975501,170.476615 L202.975501,176.74833 L217.799555,176.74833 C224.071269,176.74833 228.062361,172.757238 228.062361,167.055679 C228.062361,161.35412 224.641425,158.503341 218.939866,158.503341 L212.097996,158.503341 C210.387528,158.503341 209.247216,157.363029 209.247216,155.652561 C209.247216,153.942094 210.387528,152.801782 212.097996,152.801782 L225.211581,152.801782 L228.062361,146.530067 L212.668151,146.530067 C206.396437,146.530067 202.405345,150.521158 202.405345,155.652561 C202.405345,161.35412 205.826281,164.2049 211.52784,164.2049 L218.36971,164.2049 C220.080178,164.2049 221.22049,165.345212 221.22049,167.055679 C221.790646,169.336303 220.080178,170.476615 218.36971,170.476615 L218.36971,170.476615 Z M198.414254,152.231626 L198.414254,145.959911 L174.467706,145.959911 L174.467706,176.178174 L198.414254,176.178174 L198.414254,169.906459 L181.309577,169.906459 L181.309577,163.634744 L197.844098,163.634744 L197.844098,157.363029 L181.309577,157.363029 L181.309577,151.66147 L198.414254,151.66147 L198.414254,152.231626 L198.414254,152.231626 Z M159.643653,152.231626 C162.494432,152.231626 163.634744,153.942094 163.634744,155.652561 C163.634744,157.363029 162.494432,159.073497 159.643653,159.073497 L151.091314,159.073497 L151.091314,151.66147 L159.643653,152.231626 L159.643653,152.231626 Z M151.091314,165.345212 L154.512249,165.345212 L163.634744,176.178174 L172.187082,176.178174 L161.924276,164.775056 C167.055679,163.634744 169.906459,160.213808 169.906459,155.652561 C169.906459,149.951002 165.915367,145.959911 159.643653,145.959911 L143.679287,145.959911 L143.679287,176.178174 L150.521158,176.178174 L151.091314,165.345212 Z M132.846325,156.222717 C132.846325,158.503341 131.706013,160.213808 128.855234,160.213808 L119.732739,160.213808 L119.732739,152.231626 L128.285078,152.231626 C131.135857,152.231626 132.846325,153.942094 132.846325,156.222717 L132.846325,156.222717 Z M112.890869,145.959911 L112.890869,176.178174 L119.732739,176.178174 L119.732739,165.915367 L128.855234,165.915367 C135.126949,165.915367 139.688196,161.924276 139.688196,155.652561 C139.688196,149.951002 135.697105,145.389755 129.42539,145.389755 L112.890869,145.959911 L112.890869,145.959911 Z M102.628062,176.178174 L111.180401,176.178174 L99.2071269,160.783964 L111.180401,145.959911 L102.628062,145.959911 L95.2160356,155.652561 L87.8040089,145.959911 L79.2516704,145.959911 L91.2249443,160.783964 L79.2516704,175.608018 L87.8040089,175.608018 L95.2160356,165.915367 L102.628062,176.178174 L102.628062,176.178174 Z M76.9710468,152.231626 L76.9710468,145.959911 L53.0244989,145.959911 L53.0244989,176.178174 L76.9710468,176.178174 L76.9710468,169.906459 L59.8663697,169.906459 L59.8663697,163.634744 L76.4008909,163.634744 L76.4008909,157.363029 L59.8663697,157.363029 L59.8663697,151.66147 L76.9710468,151.66147 L76.9710468,152.231626 L76.9710468,152.231626 Z M215.518931,98.636971 L227.492205,116.88196 L236.044543,116.88196 L236.044543,86.6636971 L229.202673,86.6636971 L229.202673,106.619154 L227.492205,103.768374 L216.659243,86.6636971 L207.536748,86.6636971 L207.536748,116.88196 L214.378619,116.88196 L214.378619,96.3563474 L215.518931,98.636971 L215.518931,98.636971 Z M185.870824,98.0668151 L188.151448,91.7951002 L190.432071,98.0668151 L193.282851,104.908686 L183.020045,104.908686 L185.870824,98.0668151 L185.870824,98.0668151 Z M197.844098,116.88196 L205.256125,116.88196 L192.142539,86.6636971 L183.020045,86.6636971 L169.906459,116.88196 L177.318486,116.88196 L180.169265,110.610245 L194.993318,110.610245 L197.844098,116.88196 L197.844098,116.88196 Z M165.915367,116.88196 L168.766147,110.610245 L167.055679,110.610245 C161.924276,110.610245 159.073497,107.18931 159.073497,102.057906 L159.073497,101.487751 C159.073497,96.3563474 161.924276,92.935412 167.055679,92.935412 L174.467706,92.935412 L174.467706,86.6636971 L166.485523,86.6636971 C157.363029,86.6636971 152.231626,92.935412 152.231626,101.487751 L152.231626,102.057906 C152.231626,111.180401 157.363029,116.88196 165.915367,116.88196 Z M140.258352,116.88196 L147.100223,116.88196 L147.100223,87.233853 L140.258352,87.233853 L140.258352,116.88196 Z M125.434298,92.935412 C128.285078,92.935412 129.42539,94.6458797 129.42539,96.3563474 C129.42539,98.0668151 128.285078,99.7772829 125.434298,99.7772829 L116.88196,99.7772829 L116.88196,92.3652561 L125.434298,92.935412 L125.434298,92.935412 Z M116.88196,106.048998 L120.302895,106.048998 L129.42539,116.88196 L137.977728,116.88196 L127.714922,105.478842 C132.846325,104.33853 135.697105,100.917595 135.697105,96.3563474 C135.697105,90.6547884 131.706013,86.6636971 125.434298,86.6636971 L109.469933,86.6636971 L109.469933,116.88196 L116.311804,116.88196 L116.88196,106.048998 Z M104.33853,92.935412 L104.33853,86.6636971 L80.3919822,86.6636971 L80.3919822,116.88196 L104.33853,116.88196 L104.33853,110.610245 L87.233853,110.610245 L87.233853,104.33853 L103.768374,104.33853 L103.768374,98.0668151 L87.233853,98.0668151 L87.233853,92.3652561 L104.33853,92.3652561 L104.33853,92.935412 L104.33853,92.935412 Z M52.454343,116.88196 L58.7260579,116.88196 L67.2783964,92.3652561 L67.2783964,116.88196 L74.1202673,116.88196 L74.1202673,86.6636971 L62.7171492,86.6636971 L55.8752784,107.18931 L49.0334076,86.6636971 L37.6302895,86.6636971 L37.6302895,116.88196 L44.4721604,116.88196 L44.4721604,92.3652561 L52.454343,116.88196 Z M15.3942094,98.0668151 L17.674833,91.7951002 L19.9554566,98.0668151 L22.8062361,104.908686 L12.5434298,104.908686 L15.3942094,98.0668151 L15.3942094,98.0668151 Z M27.3674833,116.88196 L34.77951,116.88196 L21.6659243,86.6636971 L13.1135857,86.6636971 L0,116.88196 L7.41202673,116.88196 L10.2628062,110.610245 L25.0868597,110.610245 L27.3674833,116.88196 Z" fill="#006FCF"></path>
    </g>
</svg>
