<?xml version="1.0" encoding="UTF-8"?>
<svg width="256px" height="145px" viewBox="0 0 256 145" version="1.1" xmlns="http://www.w3.org/2000/svg" preserveAspectRatio="xMidYMid">
    <title>Android</title>
    <g>
        <path d="M190.73595,43.5806372 L212.040573,6.65323533 C213.26076,4.53146586 212.535427,1.82033814 210.417645,0.593771157 C208.300262,-0.628808282 205.588735,0.0985188205 204.362966,2.21789577 L182.792374,39.613036 C166.295128,32.0785811 147.768623,27.8816964 127.999601,27.8816964 C108.231377,27.8816964 89.7032773,32.0785811 73.2076262,39.613036 L51.6370343,2.21749701 C50.4116636,0.0981200666 47.6989408,-0.629207036 45.5811589,0.593372403 C43.4645732,1.81993938 42.7340561,4.53106711 43.9594268,6.65283658 L65.2644486,43.5802384 C28.6811713,63.4940079 3.65976324,100.559379 0,144.349335 L256,144.349335 C252.336648,100.559379 227.314841,63.4940079 190.73595,43.5806372 M186.815003,86.5300204 C192.64319,86.5300204 197.383178,91.3585313 197.383178,97.293983 C197.383178,103.230631 192.64319,108.062731 186.815402,108.062731 C180.989209,108.062731 176.249221,103.230631 176.249221,97.293983 C176.249221,91.3585313 180.989209,86.5300204 186.815402,86.5300204 L186.815003,86.5300204 Z M69.1838006,86.5300204 C75.0099938,86.5300204 79.7507788,91.3585313 79.7507788,97.293983 C79.7507788,103.230631 75.0099938,108.062731 69.1838006,108.062731 C63.3564112,108.062731 58.6168224,103.230631 58.6168224,97.293983 C58.6168224,91.3585313 63.3564112,86.5300204 69.1838006,86.5300204 Z" fill="#3DDC84"></path>
    </g>
</svg>
