<?xml version="1.0" encoding="UTF-8"?>
<svg width="512px" height="79px" viewBox="0 0 512 79" version="1.1" xmlns="http://www.w3.org/2000/svg" preserveAspectRatio="xMidYMid">
    <title>Android</title>
    <g>
        <path d="M24.5273,25.0592174 C31.8559391,25.0592174 37.9434376,28.8417407 40.8394321,32.9197738 L40.8394321,26.0639501 L52.0096964,26.0639501 L52.0096964,76.9507099 L43.9718342,76.9507099 C42.1987764,76.9507099 40.7803301,75.5322637 40.7803301,73.7592058 L40.7803301,70.0948863 C37.9434376,74.2320212 31.8559391,78.0145446 24.5273,78.0145446 C10.5792451,78.0145446 0,66.0759552 0,51.536881 C0,36.9978068 10.5792451,25.0592174 24.5273,25.0592174 M26.5367656,35.2247489 C17.4941706,35.2247489 11.3475701,42.3760822 11.3475701,51.536881 C11.3475701,60.6976798 17.4350687,67.849013 26.5367656,67.849013 C35.5793605,67.849013 41.725961,60.6976798 41.725961,51.536881 C41.725961,42.3760822 35.6384624,35.2247489 26.5367656,35.2247489 M64.7166109,26.0639501 L75.9459771,26.0639501 L75.9459771,32.9788757 C79.0192774,27.8961099 84.8112663,25.0592174 91.4306822,25.0592174 C103.251068,25.0592174 110.875216,33.3925892 110.875216,46.3359113 L110.875216,76.9507099 L102.837354,76.9507099 C101.064296,76.9507099 99.6458502,75.5322637 99.6458502,73.7592058 L99.6458502,48.1680711 C99.6458502,40.1302089 95.5678172,35.2247489 89.0666051,35.2247489 C81.6197622,35.2247489 75.9459771,41.0167379 75.9459771,51.8914926 L75.9459771,76.9507099 L67.908115,76.9507099 C66.1350571,76.9507099 64.7166109,75.5322637 64.7166109,73.7592058 L64.7166109,26.0639501 Z M144.267806,25.0592174 C151.596445,25.0592174 157.683943,28.8417407 160.579938,32.9197738 L160.579938,0.650121205 L171.750202,0.650121205 L171.750202,77.0098118 L163.71234,77.0098118 C161.939282,77.0098118 160.520836,75.5913656 160.520836,73.8183077 L160.520836,70.1539882 C157.683943,74.2320212 151.537343,78.0145446 144.208704,78.0145446 C130.260649,78.0145446 119.681404,66.0759552 119.681404,51.536881 C119.740506,36.9978068 130.319751,25.0592174 144.267806,25.0592174 M146.277271,35.2247489 C137.234676,35.2247489 131.088076,42.3760822 131.088076,51.536881 C131.088076,60.6976798 137.175574,67.849013 146.277271,67.849013 C155.319866,67.849013 161.466467,60.6976798 161.466467,51.536881 C161.466467,42.3760822 155.319866,35.2247489 146.277271,35.2247489 M184.457116,26.0639501 L195.627381,26.0639501 L195.627381,35.1065451 C197.577744,29.3145562 203.251529,25.5320328 209.043518,25.5320328 C210.461965,25.5320328 211.880411,25.6502366 213.417061,25.9457463 L213.417061,37.4706222 C211.466697,36.8796029 209.870945,36.5249913 207.802378,36.5249913 C201.360268,36.5249913 195.568279,41.9032668 195.568279,52.1279003 L195.568279,76.9507099 L187.530417,76.9507099 C185.757359,76.9507099 184.338913,75.5322637 184.338913,73.7592058 L184.338913,26.0639501 L184.457116,26.0639501 Z M243.677248,78.0145446 C228.606256,78.0145446 217.022279,66.3123629 217.022279,51.536881 C217.022279,36.7613991 228.606256,25.0592174 243.677248,25.0592174 C258.74824,25.0592174 270.332217,36.7613991 270.332217,51.536881 C270.332217,66.3123629 258.74824,78.0145446 243.677248,78.0145446 M243.677248,67.6126053 C252.660741,67.6126053 258.925545,60.5794759 258.925545,51.536881 C258.925545,42.494286 252.601639,35.4611566 243.677248,35.4611566 C234.634653,35.4611566 228.310747,42.494286 228.310747,51.536881 C228.310747,60.5794759 234.634653,67.6126053 243.677248,67.6126053 M284.989496,14.9527877 C280.911463,14.9527877 277.483551,11.5839778 277.483551,7.4468429 C277.483551,3.36880988 280.970564,0 284.989496,0 C289.185732,0 292.436338,3.36880988 292.436338,7.4468429 C292.436338,11.6430798 289.185732,14.9527877 284.989496,14.9527877 M279.433914,26.0639501 L290.604179,26.0639501 L290.604179,76.9507099 L282.625418,76.9507099 C280.852361,76.9507099 279.433914,75.5322637 279.433914,73.7592058 L279.433914,26.0639501 Z M324.351379,25.0592174 C331.680018,25.0592174 337.767517,28.8417407 340.663511,32.9197738 L340.663511,0.650121205 L351.833776,0.650121205 L351.833776,77.0098118 L343.795914,77.0098118 C342.022856,77.0098118 340.60441,75.5913656 340.60441,73.8183077 L340.60441,70.1539882 C337.767517,74.2320212 331.620917,78.0145446 324.292278,78.0145446 C310.344223,78.0145446 299.764977,66.0759552 299.764977,51.536881 C299.824079,36.9978068 310.403324,25.0592174 324.351379,25.0592174 M326.419947,35.2247489 C317.377352,35.2247489 311.230751,42.3760822 311.230751,51.536881 C311.230751,60.6976798 317.31825,67.849013 326.419947,67.849013 C335.462542,67.849013 341.609142,60.6976798 341.609142,51.536881 C341.609142,42.3760822 335.462542,35.2247489 326.419947,35.2247489" fill="#000000"></path>
        <path d="M475.415907,57.7425834 C472.283505,57.7425834 469.742122,55.2012005 469.742122,52.0687983 C469.742122,48.9363962 472.283505,46.3950133 475.415907,46.3950133 C478.548309,46.3950133 481.089692,48.9363962 481.089692,52.0687983 C481.089692,55.2012005 478.548309,57.7425834 475.415907,57.7425834 M412.945169,57.7425834 C409.812767,57.7425834 407.271384,55.2012005 407.271384,52.0687983 C407.271384,48.9363962 409.812767,46.3950133 412.945169,46.3950133 C416.077571,46.3950133 418.618954,48.9363962 418.618954,52.0687983 C418.618954,55.2012005 416.077571,57.7425834 412.945169,57.7425834 M477.425372,23.699873 L488.772942,4.13713494 C489.423064,3.01419831 489.00935,1.59575205 487.886413,0.945630844 C486.763477,0.295509639 485.345031,0.709223133 484.694909,1.83215976 L473.229135,21.6313056 C464.48205,17.6123745 454.67113,15.3665012 444.210089,15.3665012 C433.749048,15.3665012 423.879026,17.6123745 415.13194,21.5722036 L403.666166,1.77305783 C403.016045,0.650121205 401.597599,0.236407711 400.474662,0.886528916 C399.351726,1.53665012 398.938012,2.95509639 399.588133,4.07803301 L410.876602,23.6407711 C391.491169,34.2200162 378.193236,53.8418562 376.242872,77.0689138 L512,77.0689138 C510.108738,53.9009581 496.869906,34.2791181 477.425372,23.699873" fill="#3DDC84"></path>
    </g>
</svg>
