<?xml version="1.0" encoding="UTF-8"?>
<svg width="512px" height="89px" viewBox="0 0 512 89" version="1.1" xmlns="http://www.w3.org/2000/svg" preserveAspectRatio="xMidYMid">
    <title>Superset</title>
    <g>
        <g>
            <path d="M125.80674,0 C111.289715,0 97.916999,8.16722906 84.9930321,22.4374425 C72.2934397,7.94285464 58.6963495,0 43.506201,0 C18.353828,0 0,17.949954 0,42.1150795 C0,66.2802051 18.353828,84.0057847 43.506201,84.0057847 C58.9655988,84.0057847 70.9471931,76.7584907 84.3199088,62.3087778 C97.2438757,76.8033656 110.392217,84.0506595 125.80674,84.0506595 C150.959113,84.0057847 169.312941,66.3475174 169.312941,42.1150795 C169.312941,17.8826417 150.959113,0 125.80674,0 Z M43.6857005,58.6514746 C33.0279153,58.6514746 26.6781191,51.6285552 26.6781191,42.339454 C26.6781191,33.0503528 33.0279153,25.8254963 43.6857005,25.8254963 C52.6606775,25.8254963 59.9977212,33.0503528 67.9405758,42.7882028 C60.44647,51.8529296 52.5260529,58.6514746 43.6857005,58.6514746 Z M125.043867,58.6514746 C116.203515,58.6514746 108.731846,51.6285552 100.788992,42.339454 C108.956221,32.6016039 115.97914,25.8254963 125.043867,25.8254963 C135.701652,25.8254963 141.984136,33.1401025 141.984136,42.339454 C141.984136,51.5388054 135.701652,58.6514746 125.043867,58.6514746 Z" fill="#484848"></path>
            <path d="M103.25711,78.0149875 L120.174942,57.8212893 C113.443709,55.8019195 107.228538,49.74381 100.788992,42.2272668 L84.3199088,62.3087778 C89.7116263,68.5643367 96.1130286,73.8730356 103.25711,78.0149875 Z" fill="#20A7C9"></path>
            <path d="M84.9930321,22.415005 C79.6372146,16.0696963 73.2761997,10.642079 66.1680179,6.34979622 L49.2277488,26.7678689 C55.6672948,29.0116131 61.3664052,34.8004733 67.4245147,42.1823919 L68.0976379,42.6535782 L84.9930321,22.415005 Z" fill="#20A7C9"></path>
        </g>
        <path d="M222.130681,56.4526053 C222.200237,54.3973356 221.322933,52.4183531 219.752312,51.0900565 C217.656281,49.5811385 215.332759,48.4196892 212.873937,47.6472595 L211.383146,47.2308164 C205.753591,45.839695 200.429186,43.4209387 195.676936,40.0957097 C192.176695,37.452579 190.182006,33.259021 190.336825,28.8769885 C190.287462,24.1987817 192.591788,19.7943118 196.462246,17.1646435 C201.055191,13.9740392 206.581533,12.3944432 212.168456,12.677155 C217.849617,12.4236119 223.434296,14.2410447 227.874666,17.7928919 C231.424614,20.5868713 233.546426,24.8013399 233.708907,29.2786115 L233.708401,30.627109 L222.355055,30.627109 C222.447049,28.1545028 221.455314,25.758184 219.640124,24.0753758 C217.524274,22.3050616 214.809343,21.4120514 212.056269,21.5848197 C209.469232,21.4255138 206.904632,22.1547307 204.786538,23.6490644 C203.155335,24.9369736 202.210719,26.9114685 202.228669,28.9891757 C202.266813,30.8739209 203.233867,32.6217976 204.808975,33.6561637 C207.755011,35.4017967 210.925422,36.7368246 214.232701,37.627591 C219.5773,38.8683816 224.576362,41.2916254 228.861913,44.7178229 C231.899756,47.3957316 233.69137,51.2010907 233.842714,55.2179253 L233.843026,56.3179806 C233.9956,61.0029186 231.763075,65.4589947 227.919541,68.1425128 C223.29294,71.2500986 217.777817,72.7691135 212.213331,72.4729392 C206.296577,72.6053201 200.483036,70.886612 195.587186,67.5591393 C191.289967,64.7445865 188.701025,59.967665 188.648569,54.8774942 L188.676454,53.5357378 L200.321486,53.5357378 C200.072431,56.4503615 201.263859,59.3111355 203.507603,61.1869056 C206.14849,62.9617073 209.305438,63.8143302 212.48258,63.6101494 C215.06513,63.7851615 217.634217,63.0896008 219.774749,61.6356545 C221.347614,60.3881327 222.224918,58.4562689 222.130681,56.4526053 Z M267.633814,65.4500197 C266.406486,67.6017705 264.654122,69.4079846 262.540514,70.7003813 C256.675367,73.9493229 249.313642,72.8992506 244.59056,68.1425128 C242.016986,65.1516017 240.73132,60.6035321 240.73132,54.5005478 L240.73132,28.3160524 L252.39879,28.3160524 L252.39879,54.6351724 C252.221535,56.9888602 252.777983,59.3425479 253.991849,61.3664052 C255.000973,62.5993427 256.477357,63.3426881 258.048223,63.4326 L258.726149,63.4306499 C260.379789,63.4665498 262.019966,63.1614006 263.550199,62.5331522 C264.860546,61.9408037 265.991393,61.0118936 266.826066,59.8406591 L266.826066,28.3160524 L278.538411,28.3160524 L278.538411,71.6876287 L268.553749,71.6876287 L267.633814,65.4500197 Z M325.679478,51.2022437 C325.948727,56.7173671 324.369131,62.1674219 321.191989,66.6840791 C318.272878,70.5657566 313.612621,72.7601385 308.761646,72.5402515 C306.674964,72.5739077 304.606232,72.1453526 302.703537,71.2837548 C300.93771,70.4086945 299.400745,69.1342478 298.216048,67.5591393 L298.216048,88.3810859 L286.548578,88.3810859 L286.548578,28.3160524 L297.094176,28.3160524 L297.789737,33.4317893 C298.974434,31.6390376 300.556273,30.1424602 302.41185,29.056488 C304.348201,27.995197 306.531364,27.4611859 308.739209,27.5083045 C313.709102,27.3130987 318.441159,29.7004426 321.236864,33.8132258 C324.429712,38.7270257 326.000333,44.5203734 325.724353,50.3720584 L325.679478,51.2022437 Z M313.967133,50.304746 C314.101757,46.8673299 313.399465,43.4501074 311.925325,40.3425216 C310.776528,37.9506902 308.317385,36.4518691 305.665279,36.5281564 C304.101389,36.4832815 302.550962,36.855743 301.17779,37.6051536 C299.928025,38.3500767 298.904878,39.4203427 298.216048,40.7015207 L298.216048,59.7509093 C298.916096,60.9490688 299.943731,61.9228538 301.17779,62.5555896 C302.296073,63.0958833 303.504822,63.4150334 304.73741,63.5004034 L305.665279,63.5203997 C308.205197,63.6774618 310.626197,62.3805776 311.902888,60.1772207 C313.352347,57.4151716 314.04342,54.3188045 313.89982,51.2022437 L313.967133,50.304746 Z M352.750771,72.5205149 L351.123537,72.5402515 C345.489496,72.7960384 340.012516,70.6016565 336.112888,66.527017 C332.608505,62.6871076 330.622114,57.7134833 330.496081,52.5432348 L330.503528,49.6540602 C330.274666,43.874175 332.166142,38.2064771 335.821202,33.7234761 C343.23902,25.8636399 355.790525,25.4485473 363.710943,32.8035409 C367.116946,36.768237 368.869311,41.8974363 368.602305,47.1186292 L368.602305,53.4908629 L342.642184,53.4908629 L342.642184,53.7376747 C342.754371,56.3404181 343.770788,58.824243 345.514177,60.7605942 C347.309172,62.6363644 349.831141,63.6438056 352.424909,63.5203997 C354.605828,63.569762 356.78226,63.3050002 358.886893,62.7350892 C360.836706,62.1068408 362.716964,61.2811429 364.496253,60.2669705 L367.659933,67.5142644 C365.586713,69.1230291 363.237513,70.3391384 360.726763,71.1042552 C358.142717,71.9381802 355.45895,72.4137293 352.750771,72.5205149 L352.750771,72.5205149 Z M350.068978,36.6403436 C348.051852,36.5730312 346.126719,37.5064289 344.930803,39.1308997 C343.60475,41.0627635 342.828415,43.3199702 342.687059,45.6601955 L342.799246,45.8621324 L357.159209,45.8621324 L357.159209,44.8300101 C357.269153,42.7006968 356.652123,40.5938209 355.409089,38.8616504 C354.12118,37.2573732 352.122004,36.3845567 350.068978,36.5281564 L350.068978,36.6403436 Z M398.444104,38.3680266 L394.136115,38.3680266 C392.63505,38.3074455 391.145204,38.6821508 389.850563,39.4450239 C388.715229,40.1877032 387.824462,41.2489943 387.292695,42.4965161 L387.292695,71.6876287 L375.625225,71.6876287 L375.625225,28.3160524 L386.552259,28.3160524 L387.06832,34.733161 C387.934406,32.662185 389.298602,30.8335335 391.039748,29.4154871 C392.632806,28.1500153 394.616276,27.4768921 396.649108,27.5083045 C397.189851,27.503817 397.730593,27.5486919 398.264604,27.6429291 L399.767913,27.9794908 L398.444104,38.3680266 Z M427.657654,59.7509093 C427.630729,58.3979315 426.930681,57.1436785 425.795346,56.4077304 C424.09728,55.400738 422.255615,54.6622769 420.33698,54.2176206 L418.884614,53.9396117 C414.717981,53.2866822 410.751041,51.6981112 407.284456,49.2950611 C404.697419,47.3205662 403.23001,44.2017617 403.357904,40.9483325 C403.351172,37.2102546 405.096805,33.6786012 408.069766,31.4124195 C411.677707,28.6593453 416.147246,27.2749551 420.679609,27.5083045 C425.39596,27.2614926 430.060704,28.6324204 433.895263,31.389982 C436.75211,33.4755423 438.479622,36.7564262 438.611169,40.2578981 L438.607126,41.4643937 L427.388404,41.4643937 C427.446742,39.8758228 426.845418,38.3321267 425.728034,37.2012796 C424.572185,36.1954411 423.113018,35.6182036 421.597804,35.5529322 L420.836671,35.5633463 C419.223419,35.4735966 417.628117,35.9672203 416.349183,36.9544678 C415.308085,37.7958719 414.711249,39.0725623 414.733687,40.4098339 C414.713493,41.724668 415.355204,42.9654586 416.438932,43.708138 C418.572733,44.9040536 420.921933,45.6646829 423.349665,45.9518822 C427.630729,46.5823743 431.709856,48.1956265 435.263947,50.6637451 C437.84874,52.7257461 439.293711,55.9096192 439.145624,59.2124107 C439.186012,63.0379947 437.305754,66.6392042 434.142075,68.7931987 C430.244691,71.4228669 425.60014,72.7219948 420.903984,72.4953767 C415.945309,72.746676 411.065165,71.1468864 407.217144,68.0078882 C404.375747,65.9028481 402.59503,62.6796446 402.301465,59.1895855 L402.258436,57.911039 L412.961129,57.911039 C412.848942,59.8563653 413.685858,61.7388667 415.204873,62.9594636 C416.597864,63.8831383 418.204323,64.4188323 419.860642,64.5210992 L420.859109,64.5300846 C422.602498,64.640028 424.332425,64.1823042 425.795346,63.2287129 C426.96658,62.4635961 427.671116,61.1510057 427.657654,59.7509093 Z M466.399949,72.5205149 L464.769184,72.5402515 C459.141873,72.7960384 453.671625,70.6016565 449.780972,66.527017 C446.276589,62.6871076 444.290198,57.7134833 444.164164,52.5432348 L444.171611,49.6540602 C443.944993,43.8786625 445.829738,38.2132083 449.466848,33.7234761 C456.884666,25.8636399 469.436172,25.4485473 477.356589,32.8035409 C480.771568,36.7637495 482.517201,41.8974363 482.225514,47.1186292 L482.225514,53.4908629 L456.310268,53.4908629 L456.310268,53.7376747 C456.415724,56.3381743 457.425409,58.8219992 459.159823,60.7605942 C460.73437,62.407783 462.87066,63.3850037 465.122262,63.5163899 L466.092993,63.5203997 C468.267181,63.569762 470.434638,63.3050002 472.532539,62.7350892 C474.491327,62.1113283 476.378316,61.2856304 478.164337,60.2669705 L481.328016,67.5142644 C479.252553,69.1185416 476.903352,70.3346509 474.394846,71.1042552 C471.805192,71.9381802 469.114257,72.4137293 466.399949,72.5205149 L466.399949,72.5205149 Z M463.737061,36.6403436 C461.717691,36.5640563 459.790315,37.4996976 458.598887,39.1308997 C457.272834,41.0650072 456.498742,43.3199702 456.355143,45.6601955 L456.489767,45.8621324 L470.84973,45.8621324 L470.84973,44.8300101 C470.959674,42.7006968 470.342644,40.5938209 469.09961,38.8616504 C467.807213,37.250642 465.796818,36.3755818 463.737061,36.5281564 L463.737061,36.6403436 Z M504.01227,17.6807047 L504.01227,28.3160524 L511.326877,28.3160524 L511.326877,36.5281564 L504.01227,36.5281564 L504.01227,58.6290372 C503.891108,59.9236776 504.270301,61.2160743 505.06683,62.2414654 C505.807266,62.9796573 506.825926,63.3723125 507.871511,63.3184627 C508.396547,63.3207064 508.921583,63.2848065 509.442132,63.2062755 C509.964924,63.1232569 510.480985,63.0110697 510.990315,62.8697138 L512,71.3286297 C510.87364,71.7212849 509.718112,72.0286779 508.544634,72.2485648 C507.742869,72.3772061 506.936119,72.4639642 506.126376,72.5075095 L504.909768,72.5402515 C501.474596,72.7691135 498.093273,71.5664665 495.575792,69.2195101 C493.148061,66.2689864 491.972339,62.4815461 492.299926,58.6739121 L492.299926,36.5281564 L485.972567,36.5281564 L485.972567,28.3160524 L492.299926,28.3160524 L492.299926,17.6807047 L504.01227,17.6807047 Z" fill="#484848"></path>
    </g>
</svg>
