<?xml version="1.0" encoding="UTF-8"?>
<svg width="512px" height="114px" viewBox="0 0 512 114" version="1.1" xmlns="http://www.w3.org/2000/svg" preserveAspectRatio="xMidYMid">
    <title>Apidog</title>
    <defs>
        <linearGradient x1="0%" y1="36.3018829%" x2="99.9956691%" y2="64.6101241%" id="linearGradient-1">
            <stop stop-color="#33BBFF" offset="0%"></stop>
            <stop stop-color="#7733FF" offset="100%"></stop>
        </linearGradient>
        <linearGradient x1="102.837018%" y1="70.7752936%" x2="-5.65474532%" y2="28.9642178%" id="linearGradient-2">
            <stop stop-color="#99C2FF" offset="0%"></stop>
            <stop stop-color="#FFFFFF" offset="100%"></stop>
        </linearGradient>
        <linearGradient x1="49.9412852%" y1="69.2135632%" x2="23.6694604%" y2="32.8612975%" id="linearGradient-3">
            <stop stop-color="#99C2FF" offset="0%"></stop>
            <stop stop-color="#FFFFFF" offset="100%"></stop>
        </linearGradient>
    </defs>
    <g>
        <g>
            <path d="M88.1845141,80.1697137 L86.232365,78.2211204 L85.8696706,77.8868727 C78.0947802,70.3297838 67.6787816,66.103427 56.8363417,66.1064172 C45.9951321,66.104353 35.5805768,70.3306418 27.8065686,77.8868727 L27.5541048,78.1357806 L25.6304023,80.0843739 L21.502087,84.2020218 C19.1442682,86.5865296 15.9303452,87.9284386 12.5769607,87.9285286 C9.24328621,87.9293412 6.04526816,86.6084485 3.68383696,84.2553592 C1.32612117,81.9049496 0,78.7127217 0,75.3835703 C0,72.054419 1.32612117,68.8621911 3.68383696,66.5117815 L12.5769607,57.6399927 L3.7940676,48.9033253 C1.37086597,46.5442523 0.00277808149,43.3067434 0,39.9248617 C0,36.5966075 1.32632354,33.4070305 3.68383696,31.0530729 C8.5998793,26.1490689 16.557598,26.1490689 21.4736403,31.0530729 L27.9167992,37.4784526 C35.6952734,45.028756 46.1098452,49.2507073 56.9501281,49.2482406 C67.795401,49.2482406 78.2139747,45.0239179 85.9799012,37.4784526 C86.0587798,37.3711371 86.1534961,37.2764208 86.2608116,37.1975422 L89.9126461,33.5279286 L92.3412761,31.1348569 C94.6871706,28.7741802 97.8814689,27.4524016 101.209509,27.4652433 C104.544875,27.4652433 107.741564,28.7844551 110.099077,31.1384127 C113.711553,34.7323464 114.787076,40.1563533 112.819285,44.856794 C112.172124,46.3893555 111.219163,47.7761281 110.020849,48.9353278 L101.209509,57.7253326 L110.020849,66.5153374 C112.43526,68.867795 113.793771,72.0979485 113.78647,75.4689102 C113.78647,78.7936086 112.460146,81.9831856 110.102633,84.3371432 C105.196344,89.2378794 97.2475653,89.2378794 92.3412761,84.3371432 L88.1560675,80.1697137 L88.1845141,80.1697137 Z" fill="url(#linearGradient-1)"></path>
            <path d="M79.4371792,0.949439962 C80.9661849,1.57882137 82.3529575,2.50333644 83.5192688,3.66964776 C85.865592,6.02282526 87.1808033,9.21183582 87.1754845,12.5348839 C87.1701333,15.857932 85.8446892,19.0427031 83.4908222,21.3883346 L74.6012543,30.2601234 L74.3772372,30.4556939 C64.6169398,39.9694571 49.0521877,39.9694571 39.2918904,30.4556939 L39.0678732,30.2601234 L30.1711936,21.3883346 C25.310955,16.4844547 25.3348099,8.5725774 30.224531,3.69809437 C35.1201115,-1.1939631 43.0497496,-1.20668105 47.960997,3.66964776 L56.8576766,12.5449924 L65.7259096,3.66964776 C68.0879132,1.3156689 71.287884,-0.00422314003 74.6225892,0 C76.2754828,-0.00381881405 77.9128623,0.318823493 79.4407351,0.949439962 L79.4371792,0.949439962 Z" fill="url(#linearGradient-2)"></path>
            <path d="M34.278174,112.837098 C32.7513761,112.208486 31.3640407,111.283999 30.1960844,110.11689 C27.8497612,107.763713 26.5345499,104.574702 26.5398688,101.251654 C26.54522,97.9286061 27.8706641,94.743835 30.224531,92.3982034 L39.1212106,83.5264146 L39.3452278,83.3308441 C49.1058474,73.8212699 64.6663991,73.8212699 74.4270187,83.3308441 L74.6510358,83.5264146 L83.5477155,92.3982034 C88.4069757,97.3030614 88.3815304,105.214942 83.4908222,110.088444 C78.5952418,114.980501 70.6656037,114.993219 65.7543562,110.11689 L56.8576766,101.241546 L47.9894436,110.113334 C45.6280214,112.468617 42.4279791,113.789817 39.092764,113.78653 C37.4410667,113.789889 35.804941,113.467255 34.278174,112.837098 Z" fill="url(#linearGradient-3)"></path>
        </g>
        <path d="M183.622916,74.3239338 L150.258589,74.3239338 L145.294654,85.6314643 C144.903928,86.5883003 144.235025,87.4058482 143.374508,87.9783102 C142.502391,88.5622387 141.47973,88.8808939 140.430283,88.8957136 C139.548438,88.8957136 138.680816,88.682364 137.905646,88.2805555 C137.133829,87.8798489 136.473931,87.2932724 135.985499,86.5737585 C135.012292,85.13319 134.853565,83.2916846 135.565911,81.7058311 L159.208606,29.9543223 C159.887769,28.4502074 161.011411,27.1701096 162.430186,26.2704853 C165.354498,24.4219424 169.081716,24.4219424 172.006028,26.2704853 C173.428359,27.1701096 174.559112,28.4502074 175.248943,29.9543223 L198.518276,81.5458189 C199.263651,83.1626559 199.107116,85.0518658 198.1058,86.5239769 C197.607537,87.2615871 196.93282,87.8629659 196.142983,88.2734439 C194.36246,89.1982047 192.221605,89.0908222 190.542555,87.9925335 C189.659813,87.4192657 188.967826,86.5960605 188.554848,85.6279085 L183.626471,74.3239338 L183.622916,74.3239338 Z M179.235025,64.5205183 L166.771851,36.0987916 L154.276674,64.5205183 L179.235025,64.5205183 L179.235025,64.5205183 Z M263.639695,46.7164916 C263.639695,61.1567058 254.063852,69.587572 237.411913,69.587572 L222.150303,69.587572 L222.150303,83.5050796 C222.150303,84.9345222 221.560036,86.3070714 220.514623,87.3169264 C219.452383,88.3334074 218.037884,88.8992071 216.567654,88.8957297 C215.084875,88.8957297 213.666099,88.3267813 212.61713,87.3169264 C211.576507,86.3214162 210.985962,84.9451898 210.98145,83.5050796 L210.98145,30.2814584 C210.98145,28.8520159 211.568161,27.4794666 212.61713,26.4696116 C213.679166,25.4528134 215.093798,24.8869604 216.564099,24.8907055 L237.411913,24.8907055 C253.960733,24.8552661 263.639695,32.798984 263.639695,46.7164916 L263.639695,46.7164916 Z M252.947322,46.976067 C252.947322,38.580759 247.158436,34.5626743 236.938988,34.5626743 L222.146747,34.5626743 L222.146747,59.8801638 L237.038552,59.8801638 C247.193994,59.8801638 252.947322,55.6665086 252.947322,46.976067 L252.947322,46.976067 Z M285.639597,30.2814584 L285.639597,83.5050796 C285.639597,84.9345222 285.052886,86.3070714 284.003917,87.3169264 C282.935814,88.3354557 281.515048,88.9012138 280.03917,88.8957534 C278.552834,88.8957534 277.130503,88.3267813 276.077978,87.3169264 C275.035354,86.3225003 274.443359,84.9458872 274.438742,83.5050796 L274.438742,30.2814584 C274.438742,28.8520159 275.029009,27.4794666 276.077978,26.4696116 C277.145193,25.4519353 278.56452,24.8862432 280.03917,24.8907968 C281.525505,24.8907968 282.951392,25.4597567 284.000361,26.4696116 C285.052886,27.4794666 285.643153,28.8520159 285.643153,30.2814584 L285.639597,30.2814584 Z M364.049143,56.9110481 C364.049143,75.369347 349.612484,88.8957136 329.614512,88.8957136 L308.364889,88.8957136 C306.889221,88.8957136 305.474001,88.3267813 304.432144,87.3169264 C303.393519,86.3203362 302.804422,84.9444945 302.800019,83.5050796 L302.800019,30.2814584 C302.811943,28.8443215 303.398381,27.4716981 304.428588,26.4696116 C305.49087,25.4576606 306.90131,24.8924666 308.368445,24.8908244 L329.888311,24.8908244 C349.719159,24.8908244 364.052698,38.3176278 364.052698,56.9110481 L364.049143,56.9110481 Z M352.81984,56.9110481 C352.902274,53.9416366 352.359533,50.9880629 351.22683,48.2419415 C350.085106,45.4742517 348.384298,42.9720666 346.230893,40.8920467 C344.049485,38.7865028 341.466385,37.1418325 338.635646,36.0561217 C335.782494,34.960625 332.740651,34.4409617 329.685629,34.527116 L313.933314,34.527116 L313.933314,79.1278564 L330.158554,79.1278564 C333.167649,79.2009875 336.161357,78.6764539 338.966338,77.5846274 C341.749261,76.5036242 344.285408,74.872121 346.422907,72.7878165 C348.535024,70.729134 350.198445,68.255794 351.308614,65.5232616 C352.408098,62.8118114 352.924226,59.8992044 352.823396,56.975053 L352.823396,56.9110481 L352.81984,56.9110481 Z M442.89961,56.811485 C442.89961,74.8750871 427.588219,88.8957136 407.810708,88.8957136 C388.036753,88.8957136 372.721805,74.8715312 372.721805,56.811485 C372.721805,38.7514387 388.036753,24.8908244 407.810708,24.8908244 C427.588219,24.8908244 442.89961,38.7194363 442.89961,56.811485 Z M384.047115,56.811485 C384.047115,59.7983798 384.665829,62.756828 385.867698,65.5125941 C387.083409,68.2888083 388.845325,70.7920109 391.048538,72.8731564 C393.290164,74.9894182 395.921646,76.6499448 398.796686,77.7624187 C401.702751,78.8904834 404.796608,79.4564034 407.913827,79.4301017 C414.189862,79.4301017 420.206321,77.0476975 424.643994,72.8055956 C429.081666,68.5634938 431.574326,62.8137213 431.574326,56.811485 C431.578824,53.8450523 430.967354,50.9099948 429.778608,48.1921599 C428.574049,45.4412345 426.8264,42.9618707 424.640438,40.9027142 C422.416032,38.8088056 419.804764,37.168611 416.952739,36.0739009 C414.069921,34.9652327 411.002224,34.4161365 407.913827,34.4559995 C401.702917,34.3826144 395.700616,36.6952057 391.144546,40.9169375 C386.671315,45.1128136 384.118231,50.8270278 384.047115,56.811485 L384.047115,56.811485 Z M507.10007,57.3199683 C508.394391,57.3199683 509.635375,57.8106724 510.552778,58.6818501 C511.473738,59.5530277 511.992888,60.7371182 512,61.974546 L512,80.6426387 C504.422036,85.8849148 495.455191,88.7529684 486.241588,88.8814903 C481.750073,89.0085221 477.275755,88.2746712 473.060137,86.7195474 C468.889521,85.1841895 465.060084,82.8466624 461.788164,79.8390218 C458.570264,76.8813027 455.985284,73.3020057 454.189362,69.3173292 C452.420965,65.3809252 451.490964,61.119631 451.458486,56.8043733 C451.458486,38.7158805 466.872997,24.8908244 486.917195,24.8908244 C494.257602,24.9072732 501.464129,26.8573033 507.811236,30.5445896 C508.422838,30.8930607 508.9491,31.3624298 509.361576,31.9171389 C510.617645,33.6264185 510.563606,35.9676242 509.230011,37.6171299 L508.99177,37.9407101 C508.209488,38.9007835 507.068068,39.5337207 505.809305,39.7079562 C504.555465,39.8842065 503.280825,39.5889866 502.232143,38.8794485 C497.599911,35.9710795 492.251424,34.4053086 486.782074,34.3564363 C483.656512,34.2955669 480.547927,34.8301566 477.622263,35.9316678 C474.706485,37.0304184 472.050282,38.6696547 469.802999,40.7604811 C467.574315,42.827791 465.784561,45.3225622 464.540375,48.0961526 C463.31568,50.8385186 462.671614,53.8046106 462.648675,56.8079292 C462.648101,59.8325994 463.279095,62.8240658 464.501261,65.5908223 C465.728021,68.3643675 467.520158,70.885449 469.781664,72.9904987 C472.062301,75.1114551 474.737059,76.7641512 477.654265,77.8548702 C480.591379,78.9571767 483.727618,79.4905507 486.885193,79.4194342 C492.239374,79.2782416 497.471414,77.7886145 502.097021,75.0884367 L502.097021,62.1665607 C502.073334,61.5290154 502.186079,60.8937632 502.427713,60.3033073 C502.673481,59.7049028 503.040294,59.1637622 503.505129,58.7138525 C503.974498,58.2622625 504.536319,57.9066798 505.151477,57.6648835 C505.770191,57.4266431 506.431575,57.3093008 507.10007,57.3235241 L507.10007,57.3199683 Z" fill="#1A1523"></path>
    </g>
</svg>
