<?xml version="1.0" encoding="UTF-8"?>
<svg width="256px" height="259px" viewBox="0 0 256 259" version="1.1" xmlns="http://www.w3.org/2000/svg" preserveAspectRatio="xMidYMid">
    <title>App Center</title>
    <g>
        <path d="M78.7652122,0 L123.073104,9.94622902 L123.073104,81.5235344 L196.920187,29.8240164 L196.920187,89.4719299 L123.073104,129.242533 L196.920187,169.013136 L196.920187,228.660692 L123.073104,176.960339 L123.073104,248.538837 L78.7652122,258.485066 L0,188.890089 L0,159.065715 L45.4454046,129.242533 L0,99.4181589 L0,69.5937847 L78.7652122,0 Z M78.7722493,149.121871 L23.6380082,176.962725 L78.7722493,218.715656 L78.7722493,149.121871 Z M78.7722493,39.771796 L23.6380082,81.5259199 L78.7722493,109.366773 L78.7722493,39.771796 Z M256,49.7192177 L196.922572,29.8264019 L196.922572,228.663078 L256,208.77062 L256,49.7192177 Z" fill="#CB2E63"></path>
    </g>
</svg>
