<?xml version="1.0" encoding="UTF-8" standalone="no"?>
<svg width="256px" height="286px" viewBox="0 0 256 286" version="1.1" xmlns="http://www.w3.org/2000/svg" xmlns:xlink="http://www.w3.org/1999/xlink" preserveAspectRatio="xMidYMid">
    <g>
        <path d="M126.99868,240.930377 L88.4413656,37.8473888 C87.571623,33.3084793 83.8756948,28.5717272 80.0641194,27.1266164 L9.98293597,0.698865928 C4.62780646,-1.30249784 0.210278607,1.12704691 0.210278607,6.29484723 L1.11620933e-05,263.579048 C-0.0105022101,277.179529 7.40715977,286.890062 16.2766229,284.860025 L121.132219,260.734703 C126.280904,259.564851 128.817494,250.561582 127.001548,240.930377 L126.99868,240.930377 Z M106.294027,217.272422 L26.2031578,225.781563 C19.876975,226.44964 14.4635441,220.182715 14.2809937,211.921116 L10.1626191,32.1176009 C10.0641757,27.9600401 13.6788642,25.8430292 18.1384455,27.2776267 L77.9901178,46.7359671 C81.3190338,47.8159772 84.4892934,51.6007912 85.1487686,55.2756927 L111.715104,204.690783 C112.85915,211.145993 110.485996,216.794542 106.290204,217.273378 L106.294027,217.272422 Z M80.2476256,79.3197749 L77.5867866,63.0536766 C77.2321993,60.8917449 75.5605731,58.7594419 73.8602741,58.2634019 L60.9641894,54.6028368 C59.1176589,54.0790797 57.8388506,55.4639776 58.1074194,57.7033259 L60.2206073,74.6107399 C60.521672,77.0383732 62.3423969,79.3895455 64.282592,79.8215495 L77.7033895,82.832197 C79.4973531,83.2460416 80.6184609,81.6594781 80.2457141,79.3197749 L80.2476256,79.3197749 Z M136.408148,96.1488166 L134.734611,78.7883718 C134.506184,76.4716068 132.703618,74.1921166 130.694609,73.602412 L115.502786,69.3024427 C113.325562,68.6649501 111.639599,70.1100609 111.757158,72.4851272 L112.653662,90.5776851 C112.783645,93.1582401 114.765894,95.7101222 117.069278,96.2424812 L133.023798,99.8294526 C135.142721,100.306377 136.645177,98.6624683 136.406237,96.1488166 L136.408148,96.1488166 Z M176.919995,128.826289 L174.95495,108.35293 C174.687337,105.63379 172.739496,103.119182 170.564183,102.702471 L154.187217,99.5733086 C151.820752,99.0954281 149.998116,101.007906 150.147214,103.839826 L151.210977,125.382682 C151.371544,128.498463 153.533476,131.289285 156.03757,131.591306 L173.31582,133.710228 C175.610602,133.968284 177.207679,131.789148 176.92095,128.826289 L176.919995,128.826289 Z M80.0908808,124.728941 L77.0047281,105.779066 C76.5966181,103.276883 74.8055218,100.971587 72.9771508,100.621779 L59.2552885,97.9590281 C57.2787746,97.5881928 55.936886,99.3812007 56.2561102,102.015278 L58.7210181,121.856879 C59.0937649,124.724162 61.0626328,127.276044 63.1175192,127.513073 L77.4701838,129.252558 C79.3625908,129.495322 80.5324424,127.440435 80.0927923,124.728941 L80.0908808,124.728941 Z M57.2778188,197.19666 L54.9218677,172.691901 C54.604555,169.427021 52.4646058,166.697367 50.1229911,166.490923 L32.3487017,165.015228 C29.7777043,164.808783 27.8097922,167.37309 27.9789619,170.795671 L29.2635049,196.878392 C29.4594359,200.653648 31.8536175,203.750314 34.5775366,203.738845 L53.4385264,203.706349 C55.9215938,203.700614 57.6228486,200.766428 57.2787746,197.19666 L57.2778188,197.19666 Z M255.969085,77.2992959 L254.46854,60.3307132 C254.256361,58.0961437 252.902047,56.2075597 251.403414,56.0469919 L240.064264,55.0291063 C238.431824,54.8886094 237.186467,56.6577232 237.283955,59.0423472 L238.114511,77.087117 C238.22538,79.71546 239.767978,81.8468073 241.507463,81.8448958 L253.523292,81.820046 C255.095519,81.8028423 256.191777,79.7861864 255.971952,77.2992959 L255.969085,77.2992959 Z M217.135555,170.482181 L213.493149,148.137442 C213.01718,145.186052 211.079853,142.679091 209.133923,142.530948 L194.484017,141.302795 C192.367006,141.137448 190.94101,143.487664 191.336695,146.604401 L194.26228,170.211701 C194.697151,173.61421 196.852393,176.405033 199.079316,176.387829 L214.436486,176.346731 C216.463655,176.346731 217.665047,173.699273 217.139378,170.482181 L217.135555,170.482181 Z M218.024413,109.755032 L216.350875,92.4012773 C216.132006,90.0720874 214.337086,87.7925972 212.318519,87.2067156 L197.134342,82.9067464 C194.951384,82.2759441 193.26351,83.7028954 193.381068,86.0894309 L194.261324,104.181989 C194.407556,106.762544 196.392672,109.323983 198.676941,109.861121 L214.643886,113.423243 C216.777145,113.8973 218.257619,112.262949 218.028236,109.755032 L218.024413,109.755032 Z M176.336025,188.630173 L172.685017,166.310284 C172.205225,163.350292 170.266942,160.827082 168.325791,160.65409 L153.668238,159.434539 C151.542626,159.261546 150.132878,161.62801 150.520917,164.752393 L153.461794,188.350135 C153.889019,191.743087 156.061464,194.53391 158.259715,194.53391 L173.618796,194.501414 C175.656479,194.496635 176.854047,191.849177 176.337936,188.630173 L176.336025,188.630173 Z" fill="#15637A"></path>
    </g>
</svg>
