<?xml version="1.0" encoding="UTF-8"?>
<svg width="512px" height="83px" viewBox="0 0 512 83" version="1.1" xmlns="http://www.w3.org/2000/svg" preserveAspectRatio="xMidYMid">
    <title>ArangoDB</title>
    <g>
        <path d="M479.733722,32.6241862 L491.495843,32.6241862 C494.513788,32.6241862 496.722093,31.8555481 498.123511,30.3194958 C499.525236,28.8103702 500.225945,26.613999 500.225945,23.731606 C500.225945,21.0637095 499.403147,19.0438925 497.759693,17.670013 C496.115628,16.3227544 493.732911,15.6480541 490.605729,15.6480541 L479.730968,15.6480541 L479.730968,32.6241862 L479.733722,32.6241862 Z M479.733722,56.3503809 L487.817885,56.3503809 C491.214336,56.3503809 493.760144,55.7038314 495.458369,54.4104264 C497.182909,53.1170214 498.045179,51.1118917 498.045179,48.3886117 C498.045179,45.9095089 497.194536,44.0221841 495.496923,42.730921 C493.799004,41.4375159 491.375285,40.7909664 488.220564,40.7909664 L479.732498,40.7909664 L479.732498,56.3503809 L479.733722,56.3503809 Z M425.176325,56.3503809 L432.978981,56.3503809 C437.210775,56.3503809 440.524609,54.9232598 442.923543,52.0665697 C445.32156,49.2101855 446.518885,45.5062187 446.518885,40.9531393 L446.518885,31.1279121 C446.518885,26.5197552 445.321254,22.7897795 442.923543,19.9318654 C440.525221,17.0754812 437.210775,15.6480541 432.978981,15.6480541 L425.176325,15.6480541 L425.176325,56.3442612 L425.176325,56.3503809 Z M461.680517,65.4443003 L461.680517,58.3301137 L467.944061,57.1190191 L467.944061,14.8928794 L461.680517,13.6787249 L461.680517,6.6043165 L490.620722,6.6043165 C497.438102,6.6043165 502.707189,8.04551301 506.424926,10.9279061 C510.142662,13.8381439 512,18.1094097 512,23.7426215 C512,27.0044378 511.111721,29.8745914 509.333327,32.3530822 C507.581861,34.831879 504.942421,36.4502417 501.411336,37.2029685 C504.160013,38.280959 506.248983,39.8837164 507.674881,42.0130766 C509.130458,44.1690576 509.8584,46.6089941 509.8584,49.3292143 C509.8584,54.6931579 507.918752,58.7199405 504.038537,61.4156818 C500.158628,64.1105051 494.754906,65.4577637 487.830431,65.4577637 L467.944367,65.4577637 L461.680517,65.4577637 L461.680517,65.4443003 Z M407.12312,65.4443003 L407.12312,58.3301137 L413.386665,57.1190191 L413.386665,14.8928794 L407.12312,13.6787249 L407.12312,6.6043165 L433.597074,6.6043165 C440.790817,6.6043165 446.720836,8.88208015 451.381011,13.4369955 C456.044245,18.0176137 458.372803,23.9170338 458.372803,31.1383157 L458.372803,40.8809265 C458.372803,48.0746695 456.041185,53.96491 451.381011,58.5455282 C446.717776,63.1536852 440.790817,65.4577637 433.597074,65.4577637 L413.386665,65.4577637 L407.12312,65.4577637 L407.12312,65.4443003 Z" fill="#577138" transform="translate(459.561560, 36.031040) scale(-1, 1) rotate(-180.000000) translate(-459.561560, -36.031040) "></path>
        <path d="M233.414573,43.2575228 L239.436388,43.2575228 L239.436388,36.0362409 C238.628278,34.8774699 237.496434,33.9074927 236.039938,33.1260031 C234.584666,32.3714404 232.967833,31.994159 231.190051,31.994159 C229.492132,31.994159 228.158643,32.4136665 227.187748,33.2487037 C226.244391,34.0843529 225.771336,35.2418999 225.771336,36.7247106 C225.771336,38.3684701 226.417886,40.3200522 227.711291,41.4797411 C229.004696,42.6654388 230.90579,43.2581347 233.41182,43.2581347 M332.092472,59.4784801 C333.843939,59.4784801 335.338989,59.1149681 336.578234,58.3876382 C337.844407,57.6603082 338.854468,56.6361713 339.608725,55.3155335 L339.608725,36.3198904 C338.854468,35.0531062 337.844407,34.0834349 336.578234,33.4096526 C335.338683,32.7627971 333.815482,32.4396753 332.009856,32.4396753 C329.099618,32.4396753 326.997796,33.5289874 325.703474,35.7106712 C324.410068,37.9205059 323.763519,40.9399809 323.763519,44.7648123 L323.763519,45.6142309 C323.763519,49.7358693 324.424144,53.080302 325.744476,55.6383493 C327.091734,58.1982325 329.208243,59.4784801 332.090636,59.4784801 M380.467105,59.5604845 C383.539209,59.5604845 385.78821,58.3350085 387.217167,55.8825265 C388.645513,53.4309626 389.359685,50.2615542 389.359685,46.3816451 L389.359685,45.5346744 C389.359685,41.572149 388.645207,38.3807096 387.217167,35.9542365 C385.816055,33.5289874 383.591227,32.3160568 380.546661,32.3160568 C377.419479,32.3160568 375.158239,33.5155239 373.75682,35.9144583 C372.355708,38.3397074 371.654387,41.5476701 371.654387,45.5346744 L371.654387,46.3816451 C371.654387,50.2615542 372.355708,53.4315745 373.75682,55.8825265 C375.157627,58.3353145 377.395,59.5604845 380.467105,59.5604845 M380.467105,68.6544039 C374.026089,68.6544039 368.974251,66.5648219 365.308533,62.3877999 C361.670353,58.2386227 359.852793,52.9022178 359.852793,46.3816451 L359.852793,45.5346744 C359.852793,38.9590241 361.671577,33.5950804 365.308533,29.4459032 C368.974251,25.321205 374.053627,23.2619157 380.546661,23.2619157 C386.960139,23.2619157 391.987497,25.3236528 395.622617,29.4459032 C399.288336,33.5950804 401.118135,38.9590241 401.118135,45.5346744 L401.118135,46.3816451 C401.118135,52.9297566 399.285888,58.278401 395.622617,62.4275782 C391.984437,66.5767554 386.9326,68.6544039 380.464045,68.6544039 M288.056116,68.6544039 C285.415146,68.6544039 283.028758,68.0335572 280.902151,66.7940058 C278.773403,65.5547604 276.982464,63.816145 275.529028,61.5799955 L275.003037,67.8465995 L257.745397,67.8465995 L257.745397,60.7324129 L264.008942,59.5185644 L264.008942,32.3989791 L258.351251,31.1851306 L258.351251,24.1107223 L280.581171,24.1107223 L280.581171,31.1851306 L275.813901,32.3989791 L275.813901,55.8436663 C276.648939,57.0024372 277.687151,57.8904101 278.925784,58.5100328 C280.16503,59.1571943 281.566448,59.480622 283.130039,59.480622 C285.528361,59.480622 287.318995,58.8616113 288.503162,57.6220599 C289.68886,56.4094353 290.281556,54.3327048 290.281556,51.3952342 L290.281556,32.3995911 L285.229719,31.1857426 L285.229719,24.1113343 L307.783985,24.1113343 L307.783985,31.1857426 L302.126294,32.3995911 L302.126294,51.4350125 C302.126294,57.3619714 300.886743,61.7161595 298.408558,64.4914573 C295.929761,67.267061 292.481599,68.6559338 288.060094,68.6559338 M233.013119,68.6559338 C230.155205,68.6559338 227.490062,68.2566214 224.999332,67.5029766 C223.817918,67.1914823 222.578673,66.789722 221.370332,66.2545516 C216.731576,64.2001581 215.100668,62.4725582 215.100668,62.4725582 L220.691042,55.0799239 C220.691042,55.0799239 222.473413,57.0042731 227.529841,59.1617841 C229.010509,59.7875265 230.840615,60.0393534 232.238973,60.0457791 C234.610369,60.0457791 236.40345,59.4668526 237.615156,58.3080817 C238.827781,57.1496167 239.434552,55.5190146 239.434552,53.4184171 L239.434552,49.6853816 L233.412737,49.6853816 C227.054338,49.6853816 222.23199,48.0153071 218.942635,45.7779337 C215.65634,43.5408663 214.010132,40.3742118 214.010132,36.2801122 C214.010132,32.265569 215.263759,29.0863691 217.770707,26.7425123 C220.303663,24.4246645 223.712965,23.2665055 227.996776,23.2665055 C230.583586,23.2665055 232.874201,23.7658755 234.866173,24.7624736 C236.886908,25.7593777 238.596149,27.067164 239.997567,28.6852208 C240.132507,27.9037312 240.322219,27.1210177 240.564866,26.3395281 C240.807208,25.5849653 241.090857,24.844478 241.413979,24.116842 L255.033439,24.116842 L255.033439,31.1912503 L251.438097,31.675933 C251.357317,32.2147753 251.303463,32.7817683 251.276536,33.3750761 L251.276536,35.2746404 L251.276536,53.3431444 C251.276536,58.2481083 249.578005,62.0209221 246.181861,64.6615858 C242.812949,67.3297882 238.422043,68.6638894 233.006081,68.6638894 M207.095143,68.6641954 C204.966395,68.6641954 203.092839,68.0292734 201.47723,66.7631012 C199.860398,65.496623 198.538842,63.7323047 197.514705,61.4695344 L196.988408,67.8554731 L179.730768,67.8554731 L179.730768,60.7412865 L185.994313,59.527438 L185.994313,32.4078527 L180.336622,31.1940042 L180.336622,24.1195959 L203.456963,24.1195959 L203.456963,31.1940042 L197.799272,32.4078527 L197.799272,53.6677961 C198.391968,54.9073475 199.254544,55.8653913 200.386083,56.5391736 C201.517621,57.2126499 202.946884,57.5483172 204.672954,57.5483172 L209.52284,57.4268405 L210.775243,68.1792068 C210.316875,68.3138409 209.738254,68.4218541 209.037851,68.5029405 C208.364069,68.6106478 207.71752,68.6641954 207.097591,68.6641954 M341.303278,68.811069 L340.320144,62.3578133 C338.999812,64.3785482 337.408988,65.9286759 335.549814,67.0057485 C333.690946,68.1103598 331.535271,68.6629715 329.084319,68.6629715 C323.668357,68.6629715 319.451863,66.5473807 316.434836,62.3168111 C313.443818,58.0850175 311.946014,52.5221826 311.946014,45.6221866 L311.946014,44.772768 C311.946014,38.3317518 313.443206,33.1330408 316.434836,29.1705154 C319.452781,25.2355287 323.643878,23.2680354 329.004762,23.2680354 C331.268144,23.2680354 333.276334,23.6991704 335.026577,24.5614404 C336.77835,25.4240164 338.300633,26.6770312 339.591896,28.3220148 L339.591896,25.4530851 C339.591896,22.3259029 338.879559,19.8871904 337.45152,18.1369475 C336.023481,16.3854806 333.868418,15.5085233 330.982965,15.5085233 C328.881144,15.5085233 326.885805,15.7520579 325.000928,16.2376891 C323.114828,16.695445 321.228115,17.3282251 319.343238,18.1366415 L317.159718,9.85052651 C319.261539,8.7997688 321.553684,7.97941894 324.032175,7.38641706 C326.511278,6.76679436 328.854523,6.4549941 331.063745,6.4549941 C337.394606,6.4549941 342.369947,8.17953412 345.980588,11.6292262 C349.618768,15.0501555 351.436328,19.646073 351.436328,25.4139189 L351.436328,32.968726 L351.445507,32.9405753 L351.445507,60.4824219 L357.712111,61.6962704 L357.712111,68.811069 L341.305114,68.811069 L341.304747,68.811069 L341.303278,68.811069 Z M147.032437,69.4322216 L147.276002,69.4322216 L152.670545,52.5601249 L141.633611,52.5601249 L147.034273,69.4322216 L147.032437,69.4322216 Z M141.172795,82.9721251 L123.266464,31.811179 L119.062209,31.2034898 L119.062209,24.1290815 L139.110446,24.1290815 L139.110446,31.2034898 L135.028586,31.9320437 L138.850358,43.8777574 L155.379749,43.8777574 L159.281077,31.9320437 L155.199217,31.2034898 L155.199217,24.1290815 L175.247454,24.1290815 L175.247454,31.2034898 L171.043199,31.811179 L153.259263,82.9721251 L141.172795,82.9721251 L141.172795,82.9721251 Z" fill="#A3B34F" transform="translate(260.090172, 44.713560) scale(-1, 1) rotate(-180.000000) translate(-260.090172, -44.713560) "></path>
        <g transform="translate(0.000000, 0.000000)">
            <path d="M101.953562,35.9009345 C100.994155,32.7148327 100.515152,31.1214311 99.820143,29.4270394 C98.4806197,26.1497658 96.7764094,23.485447 94.2228993,20.1836272 C88.2469422,12.4690951 85.2600156,8.60481582 80.3858339,5.52601618 C69.8099117,-1.16037921 58.6799458,0.0227494935 57.4105546,0.176338815 C53.6121995,0.633670306 45.2566599,2.30064043 38.0961715,9.20935461 C34.0397302,13.1283369 31.490428,18.7473216 30.2974808,21.6157249 C28.9782958,44.4787929 51.407246,53.6380465 56.6881939,57.4672597 C58.3846896,58.2751816 62.2875416,59.9934183 65.4547077,61.6288991 C72.7694868,65.4041106 77.8400383,66.1853823 80.455966,66.6426437 C86.156304,67.6420262 95.0224053,65.3851749 99.230332,60.6680892 C103.262227,56.1480747 104.436239,50.0500877 103.474727,44.6148492 C103.182697,42.943601 103.178349,39.9721035 101.950055,35.8904146 L101.953562,35.9009345 Z" fill="#577138"></path>
            <path d="M98.7283263,33.4463106 C97.200849,29.3709337 95.4103762,26.6666395 93.2846719,23.4594981 C90.6827706,19.5313986 88.3571898,16.8537546 86.4895718,14.7210372 C82.5067692,10.1736711 80.5136146,7.89998812 77.8072165,6.24907824 C73.1357166,3.39820796 68.6199101,2.88343827 66.0530748,2.61553361 C59.9950631,1.98757069 55.3649412,3.27190003 53.1137005,3.9178869 C50.7979382,4.58498353 46.2091942,5.95241941 41.4156645,9.71500713 C37.0744869,13.124129 34.4038561,18.2570982 32.9507188,21.0203033 C31.6168061,23.5113959 39.8229643,43.5046578 58.780375,55.3219184 C59.7503021,55.8234331 62.4510896,57.0562855 64.1188312,57.8999748 C64.6616538,58.1748225 65.1602931,58.420846 65.6266716,58.6468818 C66.3798905,58.9917915 67.0819129,59.3219033 67.7432587,59.6378485 C69.8724696,60.5993597 71.1909532,61.0881805 72.9358401,62.0013006 C78.981228,65.1621548 85.3632501,64.2609572 86.3100336,64.1136798 C87.564697,63.9207463 96.2898328,62.5707733 99.9016365,55.6276944 C101.807126,51.966097 101.475401,48.3199285 101.022348,43.3265223 C100.894076,41.910555 100.461922,38.0799391 98.7213131,33.4378947" fill="#A3B34F"></path>
            <path d="M69.4564459,57.9224171 C75.8104151,60.3545987 77.9003519,61.6253925 80.6214778,61.9571174 C81.5156622,62.064139 90.0472334,62.6005094 95.0476529,57.8761299 C98.7709666,54.3611085 98.9498035,50.8068132 99.1644078,49.1306557 C99.9064055,43.3601857 98.2653141,35.9598454 96.3486035,32.3270021 C93.8322634,27.554512 93.1821388,26.5516228 86.4319232,17.6062722 C81.4329063,10.9900089 78.9277874,9.76550225 76.3188729,8.04726555 C71.8346257,5.11504202 66.6476549,5.04841651 63.1270229,4.90324305 C60.5370441,4.79762409 55.686006,5.74693233 51.0362471,7.37680257 C43.7705605,9.93171535 39.5275678,14.2125794 36.5469531,20.2740976 C33.2381202,27.2641651 49.970239,50.0451785 61.6051561,54.7019506" fill="#DDE072"></path>
            <path d="M71.6305413,44.2466556 C75.6820733,43.5383213 78.3793543,39.3808898 79.2048092,36.0131458 C80.3633917,31.2497729 77.9669775,27.2746849 76.3700693,24.6236911 C74.8629303,22.129092 72.2126378,18.6386168 67.4141988,16.6917495 C62.9965772,14.8963674 59.5664157,17.0743201 57.9674036,17.9646473 C50.9191265,28.3862788 56.3789113,38.9622011 66.7479438,44.243149 C68.056609,44.3724726 70.6010019,44.426334 71.6284373,44.2473569" fill="#A3B34F"></path>
            <path d="M59.8974392,54.065151 C61.6759896,51.9415507 65.0949299,47.5386568 66.4779352,44.8006992 C66.568125,44.6224936 66.6582448,44.433207 66.7484347,44.2370475 C68.2401447,40.9955413 69.7199322,35.3863752 69.8608978,30.9680522 C69.9873459,27.0111986 68.6342871,24.3370612 68.6342871,24.3370612 C67.2540872,20.7385826 63.2846098,19.5063614 61.5439308,18.8401064 C60.1146384,18.3225314 58.8340261,18.0581334 57.5344781,17.9094533 C54.9753574,17.6799109 51.4259713,17.9536365 45.2894116,18.8541328 C39.2103603,19.7055366 33.1425301,20.8662231 27.5530009,22.2120583 C20.7761351,23.8636694 17.0401976,24.7732829 12.734086,26.8569079 C7.76101809,29.2624393 3.06286802,31.5347197 1.02903683,36.5281259 C-0.215106811,39.5865872 -0.107103361,42.6660882 0.202880566,44.7125432 C0.202880566,44.7125432 1.54450784,58.100763 10.7577632,64.9246174 C18.4722953,70.6459949 29.8477236,72.7583741 38.3266957,70.4412092 C45.0137924,69.169714 51.3923078,62.9020073 56.6942954,57.4176763 C57.7771352,56.3208101 59.0822937,55.0331845 59.8993328,54.0604522 L59.8974392,54.065151 Z" fill="#577138"></path>
            <path d="M51.5026256,51.8209235 C45.2685824,55.4811183 36.1226539,60.447173 24.6770935,60.3209352 C24.3084791,60.3167273 23.9371997,60.3076101 23.5633956,60.2925317 C19.7250652,60.13768 9.5299603,59.7270565 4.28407846,52.9076205 C2.83725302,51.023872 1.9823426,48.9416497 1.51876935,47.5263837 L1.5062157,47.4955256 L1.50691702,47.4951609 C1.22638858,46.6325359 1.12287359,46.1254808 1.11964751,46.1072464 C1.04025796,45.7394035 0.974894836,45.3799765 0.91885928,45.0075749 L0.911705805,44.9823975 C0.911004484,44.9781896 0.910303162,44.9744726 0.909601841,44.9705452 L0.910303162,44.9701875 L0.908199199,44.9645769 C0.613644336,43.0085924 0.512654097,40.0756675 1.69157487,37.1799127 C3.62161054,32.4452939 7.98803573,30.3329148 13.0459635,27.8874081 C17.2840469,25.8374465 20.9919316,24.9341449 27.717601,23.2944562 C28.5795246,23.085743 29.4084862,22.8878302 30.2079922,22.7042244 C31.1119951,22.4994386 31.9802306,22.3054532 32.8134001,22.1290709 C34.4460756,21.7831092 36.0065151,21.4770527 37.5858902,21.1935086 L37.5937801,21.1885993 C40.4916389,20.6727075 43.0339279,20.2937136 45.3924707,19.9493649 C51.4708207,19.0579858 54.972517,18.7844706 57.4692201,19.0095947 C58.8389002,19.130292 59.9799497,19.3954615 61.2851082,19.8953632 C63.0678665,20.5778889 66.3858166,21.8485425 67.9890367,25.0430601 C68.4714755,26.005974 68.7569833,27.0726834 68.8390378,28.2186421 C68.8487161,28.3296612 68.8551682,28.4442571 68.8584644,28.5585023 C68.9565091,31.4374254 67.7700141,34.267256 67.1325132,35.7891228 C63.5508663,44.3171874 56.8932251,48.6513519 51.5000658,51.8213232" fill="#A3B34F"></path>
            <path d="M47.5752275,52.2417161 C53.510508,49.1867614 58.32648,45.6801559 60.8091567,42.9492115 C64.9329248,38.4109627 66.6139914,33.7969711 66.9779771,30.0449032 C67.3860758,25.8404832 64.7421654,24.2688226 63.8451757,23.5043826 C60.5068873,20.654915 55.9693398,20.7005009 51.8455717,20.6854085 C49.9716417,20.6794612 47.2827766,20.822671 39.0394483,22.6186141 C32.4834987,24.1131294 31.1425727,24.437841 23.2176443,26.6035206 C17.9345924,28.074191 14.9560817,29.0644563 12.5224974,30.592635 C9.12038878,32.7288591 4.88511064,35.3882687 3.81208936,40.5163286 C2.47887794,46.8787137 7.18474254,52.1792986 8.14134452,53.1821877 C12.7469202,57.9869386 19.0959801,58.5634246 23.4722238,58.5787464 C25.1911618,58.5844642 26.8189281,58.4937132 28.2538311,58.413973 C37.1465827,57.9225573 43.2691159,54.4543141 47.5752275,52.2451526" fill="#DDE072"></path>
            <path d="M24.529816,26.6434959 C23.8490437,27.1582656 22.7393433,28.2495212 22.1698705,28.8330204 L20.5862875,30.6038562 C17.7788991,34.1300987 15.775926,40.9273028 17.2963902,42.7577509 C18.0762593,43.6982225 18.4858308,43.8006154 18.7649566,43.9878681 C22.6628993,45.8730192 26.2199999,48.4608941 32.0339518,48.8010348 L36.8695608,48.7954242 C37.2611084,48.7792939 37.8359813,48.7558697 38.2490595,48.7250116 C39.32699,48.6280189 38.8565438,48.619042 39.6005052,48.5396524 C46.2897059,47.4413836 55.1978865,42.7088688 54.8542392,36.0841897 C54.7227415,33.6085262 51.8953655,29.5534876 49.9758496,27.7244421 C47.9350052,25.7775747 44.1205197,23.886813 43.1211372,23.5298406 C42.6534261,23.3854386 42.0944031,23.1946792 41.161646,23.0308506 C40.6698095,22.9431855 40.185407,22.86597 39.7035994,22.8102852 C39.474057,22.7808297 39.2440938,22.7585277 39.0142008,22.7362958 C38.7821336,22.7146951 38.5529419,22.7022116 38.3233995,22.6878345 C33.4667509,22.3857054 29.1080402,23.6514497 25.7487121,25.7918817 C25.469937,25.9697367 25.19551,26.1515191 24.9309717,26.3411564 C24.7940738,26.4413752 24.6608228,26.5376665 24.5275718,26.6414621" fill="#5E3108"></path>
        </g>
    </g>
</svg>
