<?xml version="1.0" encoding="UTF-8" standalone="no"?>
<svg width="256px" height="190px" viewBox="0 0 256 190" version="1.1" xmlns="http://www.w3.org/2000/svg" xmlns:xlink="http://www.w3.org/1999/xlink" preserveAspectRatio="xMidYMid">
	<g>
		<path d="M239.760427,158.378118 C231.083799,158.378118 224.019486,165.438037 224.019486,174.119059 C224.019486,182.65071 231.228776,189.862196 239.760427,189.862196 C248.443645,189.862196 255.505762,182.797883 255.505762,174.119059 C255.505762,165.293061 248.590819,158.378118 239.760427,158.378118" fill="#35A547"></path>
		<path d="M239.760427,95.4077635 C231.083799,95.4077635 224.019486,102.46988 224.019486,111.148705 C224.019486,119.682553 231.228776,126.891842 239.760427,126.891842 C248.443645,126.891842 255.505762,119.829726 255.505762,111.148705 C255.505762,102.322707 248.590819,95.4077635 239.760427,95.4077635" fill="#35A547"></path>
		<path d="M224.019486,48.1783505 C224.019486,56.7121987 231.228776,63.9236848 239.760427,63.9236848 C248.443645,63.9236848 255.505762,56.8593719 255.505762,48.1783505 C255.505762,39.3523526 248.590819,32.4374095 239.760427,32.4374095 C231.083799,32.4374095 224.019486,39.4995258 224.019486,48.1783505 Z" fill="#35A547"></path>
		<path d="M85.520732,164.924029 C47.1788222,164.924029 26.0627649,154.848158 26.0627649,136.56134 C26.0627649,124.501925 33.4939125,109.993285 91.4428053,104.822454 C119.856017,102.298544 137.283958,99.5066466 152.884315,91.4999859 L152.884315,138.250537 C151.70693,144.708584 122.11853,164.924029 85.520732,164.924029 L85.520732,164.924029 Z M27.53889,55.359084 C30.7481441,42.7461223 40.845982,25.8936943 91.1418691,25.8936943 C128.066962,25.8936943 151.924395,36.6153707 151.924395,53.2064016 C151.924395,66.8693451 130.241611,76.2357103 90.8607024,79.5855477 C28.9754761,84.7629686 0.153694386,102.86527 0.153694386,136.56134 C0.153694386,171.93123 28.8766284,189.862196 85.520732,189.862196 C106.711474,189.862196 137.951729,180.959317 153.576249,170.885642 L159.410458,185.468967 L176.79227,185.468967 L176.79227,53.4370462 C176.79227,28.0639496 154.375817,0.953330786 91.4647714,0.953330786 C38.4384922,0.953330786 9.81879913,18.4142211 3.97141076,54.3376582 C3.49254875,56.9604162 3.3212128,62.1158709 3.3212128,62.1158709 L25.9683105,62.1158709 C25.9683105,62.1158709 26.6426712,58.3926089 27.53889,55.359084 L27.53889,55.359084 Z" fill="#3480B7"></path>
	</g>
</svg>