<svg width="688" height="156" viewBox="0 0 688 156" fill="none" xmlns="http://www.w3.org/2000/svg">
<path d="M14.0352 0.0340151L65.2419 89.2794H154.142C154.726 85.443 155.029 81.5142 155.029 77.5146C155.029 34.7045 120.325 0 77.5146 0H15.0553C14.7125 0 14.3723 0.0114591 14.0352 0.0340151Z" fill="#1F8197"/>
<path d="M0 28.5954L34.8189 89.2794H0V28.5954Z" fill="#1F8197"/>
<path d="M0 115.667V139.974C0 148.289 6.74049 155.029 15.0553 155.029H72.5444L49.9596 115.667H0Z" fill="#1F8197"/>
<path d="M100.906 151.437C119.727 145.487 135.441 132.549 145.005 115.667H80.3826L100.906 151.437Z" fill="#1F8197"/>
<path d="M194 121.779L231.362 28.9676H246.016L283.246 121.779H264.103L235.323 45.6022H241.924L212.747 121.779H194ZM213.803 104.484V89.4333H263.707V104.484H213.803Z" fill="#404040"/>
<path d="M312.006 123.231C308.398 123.231 304.833 122.747 301.313 121.779C297.88 120.81 294.712 119.49 291.807 117.818C288.903 116.058 286.394 113.945 284.282 111.481L294.58 101.051C296.78 103.516 299.332 105.364 302.237 106.596C305.141 107.828 308.354 108.444 311.874 108.444C314.691 108.444 316.803 108.048 318.211 107.256C319.708 106.464 320.456 105.276 320.456 103.692C320.456 101.931 319.664 100.567 318.079 99.599C316.583 98.6308 314.603 97.8387 312.138 97.2226C309.674 96.5185 307.078 95.7704 304.349 94.9782C301.709 94.0981 299.156 92.9979 296.692 91.6777C294.228 90.2695 292.203 88.3772 290.619 86.0008C289.123 83.5364 288.375 80.3679 288.375 76.4952C288.375 72.4466 289.343 68.926 291.279 65.9335C293.303 62.941 296.164 60.6087 299.861 58.9364C303.557 57.2641 307.914 56.428 312.931 56.428C318.211 56.428 322.964 57.3521 327.189 59.2004C331.502 61.0487 335.066 63.8212 337.883 67.5178L327.453 77.9475C325.517 75.5711 323.316 73.8548 320.852 72.7986C318.476 71.7425 315.879 71.2144 313.063 71.2144C310.51 71.2144 308.53 71.6105 307.122 72.4026C305.801 73.1947 305.141 74.2949 305.141 75.7031C305.141 77.2874 305.889 78.5196 307.386 79.3997C308.97 80.2799 310.994 81.072 313.459 81.7761C315.923 82.3922 318.476 83.1403 321.116 84.0205C323.844 84.8126 326.397 85.9568 328.773 87.453C331.238 88.9493 333.218 90.9296 334.714 93.394C336.298 95.8584 337.091 99.0269 337.091 102.9C337.091 109.149 334.846 114.121 330.357 117.818C325.869 121.427 319.752 123.231 312.006 123.231Z" fill="#404040"/>
<path d="M375.553 123.099C369.04 123.099 363.187 121.647 357.994 118.742C352.801 115.838 348.709 111.877 345.716 106.86C342.724 101.843 341.228 96.2104 341.228 89.9614C341.228 83.6244 342.724 77.9475 345.716 72.9307C348.709 67.9139 352.801 63.9532 357.994 61.0487C363.275 58.0563 369.128 56.56 375.553 56.56C380.57 56.56 385.191 57.4842 389.415 59.3325C393.64 61.1808 397.293 63.8212 400.373 67.2537L389.283 78.4756C387.611 76.6273 385.587 75.219 383.21 74.2509C380.922 73.2827 378.37 72.7986 375.553 72.7986C372.385 72.7986 369.524 73.5468 366.972 75.043C364.507 76.4512 362.527 78.4316 361.031 80.984C359.623 83.4484 358.918 86.3968 358.918 89.8294C358.918 93.1739 359.623 96.1664 361.031 98.8069C362.527 101.359 364.507 103.384 366.972 104.88C369.524 106.288 372.385 106.992 375.553 106.992C378.458 106.992 381.054 106.508 383.342 105.54C385.719 104.484 387.743 102.988 389.415 101.051L400.637 112.273C397.381 115.794 393.64 118.478 389.415 120.326C385.191 122.175 380.57 123.099 375.553 123.099Z" fill="#404040"/>
<path d="M407.131 121.779V58.0123H424.558V121.779H407.131ZM415.844 47.7146C413.028 47.7146 410.696 46.7904 408.847 44.9421C406.999 43.0058 406.075 40.6294 406.075 37.813C406.075 35.0845 406.999 32.7522 408.847 30.8158C410.696 28.8795 413.028 27.9114 415.844 27.9114C418.749 27.9114 421.081 28.8795 422.842 30.8158C424.69 32.7522 425.614 35.0845 425.614 37.813C425.614 40.6294 424.69 43.0058 422.842 44.9421C421.081 46.7904 418.749 47.7146 415.844 47.7146Z" fill="#404040"/>
<path d="M436.578 121.779V58.0123H454.005V121.779H436.578ZM445.291 47.7146C442.475 47.7146 440.142 46.7904 438.294 44.9421C436.446 43.0058 435.522 40.6294 435.522 37.813C435.522 35.0845 436.446 32.7522 438.294 30.8158C440.142 28.8795 442.475 27.9114 445.291 27.9114C448.196 27.9114 450.528 28.8795 452.288 30.8158C454.137 32.7522 455.061 35.0845 455.061 37.813C455.061 40.6294 454.137 43.0058 452.288 44.9421C450.528 46.7904 448.196 47.7146 445.291 47.7146Z" fill="#404040"/>
<path d="M479.151 121.779V105.804H502.783C508.768 105.804 514.005 104.572 518.493 102.107C522.982 99.555 526.459 95.9904 528.923 91.4137C531.476 86.8369 532.752 81.424 532.752 75.175C532.752 69.102 531.476 63.8212 528.923 59.3325C526.371 54.7557 522.85 51.2352 518.361 48.7708C513.873 46.2183 508.68 44.9421 502.783 44.9421H478.755V28.9676H503.047C509.912 28.9676 516.249 30.1117 522.058 32.4001C527.955 34.6885 533.06 37.945 537.373 42.1697C541.773 46.3064 545.162 51.1911 547.538 56.8241C550.003 62.457 551.235 68.618 551.235 75.307C551.235 81.9961 550.003 88.2011 547.538 93.9221C545.162 99.555 541.817 104.484 537.505 108.708C533.192 112.845 528.087 116.058 522.19 118.346C516.381 120.634 510.088 121.779 503.311 121.779H479.151ZM466.873 121.779V28.9676H484.828V121.779H466.873Z" fill="#404040"/>
<path d="M589.322 123.099C582.897 123.099 577.088 121.647 571.896 118.742C566.791 115.75 562.698 111.745 559.618 106.728C556.625 101.623 555.129 95.9464 555.129 89.6974C555.129 83.4484 556.625 77.8595 559.618 72.9307C562.61 67.9139 566.703 63.9532 571.896 61.0487C577.088 58.0563 582.853 56.56 589.19 56.56C595.703 56.56 601.512 58.0563 606.617 61.0487C611.81 63.9532 615.903 67.9139 618.895 72.9307C621.888 77.8595 623.384 83.4484 623.384 89.6974C623.384 95.9464 621.888 101.623 618.895 106.728C615.903 111.745 611.81 115.75 606.617 118.742C601.512 121.647 595.747 123.099 589.322 123.099ZM589.19 106.992C592.447 106.992 595.307 106.288 597.772 104.88C600.324 103.384 602.261 101.359 603.581 98.8069C604.989 96.1664 605.693 93.1739 605.693 89.8294C605.693 86.4849 604.989 83.5364 603.581 80.984C602.172 78.4316 600.236 76.4512 597.772 75.043C595.307 73.5468 592.447 72.7986 589.19 72.7986C586.022 72.7986 583.205 73.5468 580.741 75.043C578.277 76.4512 576.34 78.4316 574.932 80.984C573.524 83.5364 572.82 86.4849 572.82 89.8294C572.82 93.1739 573.524 96.1664 574.932 98.8069C576.34 101.359 578.277 103.384 580.741 104.88C583.205 106.288 586.022 106.992 589.19 106.992Z" fill="#404040"/>
<path d="M662.318 123.099C655.805 123.099 649.952 121.647 644.76 118.742C639.567 115.838 635.474 111.877 632.482 106.86C629.489 101.843 627.993 96.2104 627.993 89.9614C627.993 83.6244 629.489 77.9475 632.482 72.9307C635.474 67.9139 639.567 63.9532 644.76 61.0487C650.04 58.0563 655.893 56.56 662.318 56.56C667.335 56.56 671.956 57.4842 676.181 59.3325C680.405 61.1808 684.058 63.8212 687.138 67.2537L676.049 78.4756C674.376 76.6273 672.352 75.219 669.976 74.2509C667.687 73.2827 665.135 72.7986 662.318 72.7986C659.15 72.7986 656.289 73.5468 653.737 75.043C651.273 76.4512 649.292 78.4316 647.796 80.984C646.388 83.4484 645.684 86.3968 645.684 89.8294C645.684 93.1739 646.388 96.1664 647.796 98.8069C649.292 101.359 651.273 103.384 653.737 104.88C656.289 106.288 659.15 106.992 662.318 106.992C665.223 106.992 667.819 106.508 670.108 105.54C672.484 104.484 674.508 102.988 676.181 101.051L687.402 112.273C684.146 115.794 680.405 118.478 676.181 120.326C671.956 122.175 667.335 123.099 662.318 123.099Z" fill="#404040"/>
</svg>
