<?xml version="1.0" encoding="UTF-8"?>
<svg width="256px" height="253px" viewBox="0 0 256 253" version="1.1" xmlns="http://www.w3.org/2000/svg" xmlns:xlink="http://www.w3.org/1999/xlink" preserveAspectRatio="xMidYMid">
    <title>AsyncAPI</title>
    <defs>
        <linearGradient x1="90.6423393%" y1="10.3370074%" x2="12.5432059%" y2="88.4290482%" id="asyncAPILinearGradient-1">
            <stop stop-color="#21D4FD" offset="0%"></stop>
            <stop stop-color="#27CDFC" stop-opacity="96" offset="3%"></stop>
            <stop stop-color="#4E9CF4" stop-opacity="70" offset="23%"></stop>
            <stop stop-color="#6E73EE" stop-opacity="49" offset="43%"></stop>
            <stop stop-color="#8753E9" stop-opacity="32" offset="61%"></stop>
            <stop stop-color="#993CE5" stop-opacity="20" offset="77%"></stop>
            <stop stop-color="#A42EE3" stop-opacity="13" offset="90%"></stop>
            <stop stop-color="#A829E2" stop-opacity="10" offset="100%"></stop>
        </linearGradient>
    </defs>
    <g>
        <path d="M195.452387,0 L60.5479642,0 C27.108246,0 0,26.7796212 0,59.8139324 L0,193.082186 C0,226.116778 27.108246,252.896399 60.5479642,252.896399 L195.452387,252.896399 C228.891613,252.896399 256,226.116778 256,193.082186 L256,59.8139324 C256,26.7796212 228.891613,0 195.452387,0 Z" fill="url(#asyncAPILinearGradient-1)"></path>
        <path d="M75.0252293,110.118117 L82.6444358,99.7451498 L142.56051,142.705223 L134.941304,153.07819 L75.0252293,110.118117 Z M113.494987,110.118117 L121.114193,99.7451498 L181.030267,142.705223 L173.411061,153.07819 L113.494987,110.118117 Z M128.046364,46.6506045 C96.4290598,46.6506045 70.5949035,65.6755957 69.5741842,89.3494533 L69.5428568,91.299815 L82.5517071,91.299815 L82.5517071,90.8045596 C82.5517071,73.5282231 102.994869,59.4652163 128.083596,59.4652163 C153.172324,59.4652163 173.615486,73.5282231 173.615486,90.8045596 L173.615486,91.299815 L186.624195,91.299815 L186.624195,90.8045596 C186.550434,66.4600497 160.30892,46.6506045 128.046364,46.6506045 Z M173.485525,162.074277 C173.485525,179.349911 153.042363,193.413059 127.934668,193.413059 C102.827676,193.413059 82.4027792,179.349911 82.4027792,162.074277 L82.4027792,161.578319 L69.3940694,161.578319 L69.3940694,162.074277 C69.3940694,186.418366 95.6348808,206.227881 127.897436,206.227881 C159.514741,206.227881 185.349437,187.202823 186.370178,163.529359 L186.401506,161.578319 L173.392094,161.578319 L173.485525,162.074277 Z" fill="#FFFFFF"></path>
    </g>
</svg>
