<?xml version="1.0" encoding="UTF-8" standalone="no"?>
<svg width="256px" height="241px" viewBox="0 0 256 241" version="1.1" xmlns="http://www.w3.org/2000/svg" xmlns:xlink="http://www.w3.org/1999/xlink">
    <defs></defs>
    <g stroke="none" stroke-width="1" fill="none" fill-rule="evenodd">
        <g>
            <path d="M159.725153,182.576687 C151.558282,181.712883 148.02454,183.911656 149.202454,189.094479 C153.835583,193.727607 154.699387,199.067485 151.715337,205.192638 C150.144785,207.862577 149.045399,211.553374 148.417178,216.422086 C149.516564,216.029448 150.380368,215.322699 151.008589,214.223313 C151.008589,214.223313 150.930061,216.029448 150.773006,219.56319 C152.657669,218.620859 153.91411,217.050307 154.463804,214.851534 C154.463804,214.851534 154.542331,216.265031 154.620859,219.013497 C156.976687,216.814724 157.683436,213.516564 156.819632,209.119018 C167.499387,200.952147 168.441718,192.078528 159.725153,182.576687" fill="#18112E"></path>
            <path d="M173.310429,139.857669 C166.792638,143.469939 161.217178,150.537423 156.426994,161.13865 C163.258896,157.840491 166.635583,162.552147 166.557055,175.195092 C174.880982,178.022086 176.922699,185.560736 172.682209,197.889571 C182.890798,203.386503 189.958282,212.417178 193.806135,224.903067 C210.218405,221.133742 221.290798,226.395092 227.023313,240.608589 C254.979141,213.516564 259.61227,182.655215 240.844172,148.103067 C213.438037,168.834356 190.900613,166.08589 173.310429,139.857669" fill="#18112E"></path>
            <path d="M134.517791,128 C135.931288,136.716564 133.418405,147.160736 127.057669,159.332515 C125.094479,150.537423 118.262577,150.694479 106.404908,159.725153 C97.609816,153.835583 89.0503067,157.369325 80.7263804,170.169325 C68.004908,164.43681 54.4196319,164.201227 39.8920245,169.384049 C31.3325153,151.087117 18.2184049,144.255215 0.706748466,149.045399 C5.49693252,103.028221 30.9398773,76.6429448 77.1141104,69.7325153 C77.8208589,110.566871 96.9815951,130.041718 134.517791,128" fill="#18112E"></path>
            <path d="M71.6171779,70.7533742 C72.7165644,74.2871166 73.2662577,76.0932515 73.2662577,76.0932515 C73.5018405,75.6220859 73.6588957,75.2294479 73.8944785,74.7582822 L73.9730061,76.4858896 C73.7374233,76.5644172 73.5803681,76.6429448 73.3447853,76.7214724 C72.4809816,80.3337423 72.009816,82.1398773 72.009816,82.1398773 C76.5644172,78.998773 81.7472393,77.9779141 87.4797546,79.2343558 C90.7779141,80.5693252 92.1128834,79.7055215 91.3276074,76.5644172 C90.2282209,72.795092 85.6736196,72.3239264 77.6638037,75.0723926 C80.5693252,72.9521472 84.0245399,71.6957055 88.1079755,71.3815951 C91.6417178,71.7742331 92.6625767,70.5177914 91.0920245,67.7693252 C88.8932515,64.392638 84.1030675,65.3349693 76.8,70.6748466 C78.9202454,68.397546 81.6687117,66.6699387 84.9668712,65.5705521 C88.5006135,65.0208589 89.1288344,63.607362 86.9300613,61.3300613 C83.6319018,58.2674847 78.5276074,61.408589 71.6171779,70.7533742" fill="#18112E"></path>
            <path d="M134.517791,128 C157.604908,134.910429 172.132515,141.11411 178.100613,146.611043 C168.598773,152.893252 165.300613,160.196319 168.206135,168.677301 C175.90184,188.466258 170.561963,201.18773 152.029448,206.841718 C126.35092,209.511656 112.137423,201.894479 109.388957,184.068712 C107.347239,168.441718 115.749693,149.752147 134.517791,128" fill="#18112E"></path>
            <path d="M134.753374,108.446626 C161.845399,84.2601227 175.430675,72.2453988 175.430675,72.2453988 C168.755828,65.4920245 164.907975,51.2785276 164.122699,29.6834356 C166.08589,1.57055215 162.316564,-6.28220859 152.893252,6.20368098 C125.408589,34.5521472 117.084663,56.2257669 127.921472,71.2245399 C137.423313,85.6736196 139.700613,98.0809816 134.753374,108.446626" fill="#18112E"></path>
            <path d="M209.982822,73.5018405 C198.360736,92.6625767 204.328834,101.771779 227.887117,100.829448 C229.928834,97.2957055 232.127607,95.3325153 234.483436,95.0184049 C247.519018,95.7251534 254.665031,85.9092025 255.842945,65.7276074 C256.628221,41.6981595 253.330061,25.207362 245.948466,16.1766871 C240.137423,8.4809816 236.368098,10.601227 234.719018,22.6159509 C228.279755,56.4613497 220.034356,73.4233129 209.982822,73.5018405" fill="#18112E"></path>
            <path d="M137.423313,131.062577 C145.668712,133.57546 153.992638,136.402454 161.845399,139.779141 C164.907975,141.11411 168.04908,142.527607 170.954601,144.176687 C172.211043,144.883436 173.467485,145.668712 174.645399,146.453988 C170.169325,149.830675 166.4,154.306748 165.379141,159.960736 C164.829448,163.10184 165.222086,166.242945 166.242945,169.305521 L166.242945,169.384049 L166.242945,169.462577 C172.917791,186.581595 170.01227,199.067485 151.63681,204.878528 C149.98773,205.035583 148.260123,205.192638 146.532515,205.271166 C131.455215,203.622086 124.466258,194.277301 125.644172,177.393865 C127.293252,159.096933 132.633129,146.139877 141.585276,138.601227 C140.093252,135.852761 138.758282,133.418405 137.423313,131.062577" fill="#CCC9E4"></path>
            <path d="M137.266258,98.9447853 C136.795092,104.834356 136.638037,107.818405 136.638037,107.818405 C136.638037,107.818405 134.517791,109.310429 130.198773,112.294479 C131.062577,108.053988 133.418405,103.577914 137.266258,98.9447853" fill="#18112E"></path>
            <path d="M197.57546,220.819632 C210.139877,217.91411 220.269939,222.86135 228.044172,235.66135 C245.16319,216.736196 251.995092,184.853988 239.509202,159.096933 C230.871166,178.257669 215.63681,204.8 197.57546,220.819632 Z M180.377914,196.397546 C189.879755,198.674847 195.533742,205.585276 197.496933,217.050307 C213.752147,195.29816 224.667485,176.608589 230.242945,160.981595 C213.830675,176.765644 197.26135,188.544785 180.377914,196.397546 Z M178.650307,190.743558 C179.749693,182.49816 177.001227,176.294479 170.404908,172.289571 C187.838037,172.525153 205.742331,169.148466 223.960736,162.159509 C204.48589,178.336196 189.408589,187.838037 178.650307,190.743558 Z M173.860123,148.181595 C170.876074,155.955828 169.541104,163.023313 169.776687,169.226994 C185.953374,166.478528 194.041718,165.065031 194.041718,165.065031 C185.246626,160.588957 178.493252,154.934969 173.860123,148.181595 Z M40.9128834,162.866258 C34.395092,148.888344 22.2233129,142.76319 4.55460123,144.490798 C9.65889571,114.650307 34.395092,85.3595092 67.7693252,78.7631902 C56.2257669,100.829448 42.6404908,134.203681 40.9128834,162.866258 Z M76.407362,161.766871 C67.2981595,154.385276 56.6969325,153.91411 44.5251534,160.274847 C52.9276074,129.177914 62.3509202,105.462577 72.8736196,89.0503067 C70.1251534,115.906748 71.3030675,140.171779 76.407362,161.766871 Z M82.9251534,159.411043 C89.8355828,152.422086 97.609816,150.615951 106.247853,154.071166 C93.2122699,137.658896 83.2392638,118.184049 76.3288344,95.803681 C75.5435583,125.879755 77.7423313,147.082209 82.9251534,159.411043 Z M126.272393,133.496933 C121.168098,141.899387 115.592638,148.260123 109.546012,152.422086 C100.201227,135.067485 95.5680982,126.35092 95.5680982,126.35092 C106.404908,131.533742 116.613497,133.889571 126.272393,133.496933 Z" fill="#2B1F51"></path>
            <path d="M232.677301,154.699387 C209.354601,170.797546 189.173006,166.08589 172.211043,140.48589 C189.173006,164.672393 209.276074,169.462577 232.677301,154.699387" fill="#CCC9E4"></path>
            <path d="M225.923926,240.765644 C252.780368,214.773006 258.041718,185.246626 241.786503,152.265031 L241.786503,155.013497 C256.392638,183.361963 252.937423,212.417178 225.923926,240.765644" fill="#CCC9E4"></path>
            <path d="M237.231902,159.646626 C238.488344,156.348466 237.231902,157.055215 236.996319,157.133742 C236.053988,157.369325 235.66135,160.117791 235.66135,160.117791 C231.499387,174.645399 217.442945,195.769325 194.826994,222.939877 C216.579141,198.282209 230.792638,177.158282 237.231902,159.646626" fill="#CCC9E4"></path>
            <path d="M227.965644,161.295706 C208.09816,180.063804 191.450307,189.094479 174.723926,196.240491 C192,190.900613 209.982822,179.2 228.829448,161.13865 C228.201227,161.217178 227.965644,161.295706 227.965644,161.295706" fill="#CCC9E4"></path>
            <path d="M207.391411,166.871166 C193.570552,168.912883 180.692025,170.404908 168.755828,171.190184 C177.472393,171.504294 190.35092,170.090798 207.391411,166.871166" fill="#CCC9E4"></path>
            <path d="M1.33496933,150.144785 C5.88957055,105.933742 29.604908,79.7840491 72.402454,71.6957055 L69.8110429,73.6588957 C32.5889571,80.1766871 7.93128834,104.206135 1.33496933,150.144785" fill="#CCC9E4"></path>
            <path d="M68.8687117,81.4331288 C71.0674847,77.8208589 71.3030675,79.6269939 71.3815951,79.8625767 C71.8527607,80.8834356 69.6539877,83.3177914 69.6539877,83.3177914 C59.1312883,97.609816 49.7079755,126.115337 40.991411,167.185276 C47.9803681,128.628221 57.3251534,100.044172 68.8687117,81.4331288" fill="#CCC9E4"></path>
            <path d="M74.208589,91.406135 C71.3030675,123.759509 75.0723926,146.06135 80.804908,167.106748 C73.1092025,146.925153 70.7533742,121.325153 73.7374233,90.4638037 C74.0515337,91.0920245 74.208589,91.406135 74.208589,91.406135" fill="#CCC9E4"></path>
            <path d="M76.8785276,82.2184049 C78.9202454,115.985276 98.2380368,131.769325 134.753374,129.64908 C99.6515337,130.748466 80.3337423,114.964417 76.8785276,82.2184049" fill="#CCC9E4"></path>
            <path d="M84.1815951,114.964417 C92.4269939,129.64908 100.593865,142.920245 108.682209,154.856442 C101.850307,146.768098 93.6834356,133.418405 84.1815951,114.964417" fill="#CCC9E4"></path>
            <path d="M237.153374,22.7730061 L237.153374,22.7730061 L237.153374,22.6944785 C237.467485,20.4171779 237.93865,17.590184 238.880982,15.4699387 C239.116564,14.998773 239.744785,13.7423313 240.294479,13.5852761 C240.687117,13.5067485 241.315337,13.8993865 241.55092,14.0564417 C242.650307,14.8417178 243.749693,16.0981595 244.613497,17.197546 L244.613497,17.197546 C254.03681,28.6625767 254.507975,51.2785276 254.03681,65.3349693 C253.565644,73.6588957 251.680982,86.2233129 243.592638,90.8564417 C240.922699,92.3484663 237.860123,92.8196319 234.797546,92.6625767 L234.640491,92.6625767 L234.483436,92.6625767 C231.185276,93.1337423 228.672393,95.7251534 226.944785,98.4736196 C221.055215,98.6306748 210.611043,98.2380368 207.548466,92.8981595 C206.292025,90.7779141 206.370552,88.0294479 207.077301,85.202454 C211.867485,88.9717791 219.406135,92.2699387 229.693252,95.0969325 C227.730061,88.2650307 227.887117,79.9411043 230.164417,69.9680982 C234.561963,55.0478528 234.090798,38.7141104 237.153374,22.7730061" fill="#FFFFFF"></path>
            <path d="M226.709202,98.5521472 C220.741104,98.7092025 210.611043,98.2380368 207.626994,92.9766871 C206.527607,91.0134969 206.44908,88.5791411 206.998773,85.9877301 C211.788957,89.6 219.170552,92.8196319 229.300613,95.5680982 C229.222086,95.3325153 229.222086,95.1754601 229.143558,94.9398773 C229.379141,95.0184049 229.614724,95.0969325 229.771779,95.0969325 C228.515337,96.1177914 227.573006,97.2957055 226.709202,98.5521472 L226.709202,98.5521472 Z M237.153374,22.7730061 L237.153374,22.7730061 L237.153374,22.6944785 C237.467485,20.4171779 237.93865,17.590184 238.880982,15.4699387 C239.038037,15.1558282 239.352147,14.4490798 239.744785,13.9779141 L239.744785,13.9779141 C240.137423,13.8993865 240.765644,14.2920245 241.001227,14.4490798 C242.100613,15.2343558 243.2,16.5693252 244.063804,17.590184 L244.063804,17.590184 C253.487117,29.0552147 253.958282,51.6711656 253.487117,65.7276074 C253.015951,73.4233129 251.445399,84.809816 244.692025,90.0711656 C244.299387,90.3067485 243.985276,90.5423313 243.592638,90.7779141 C240.922699,92.2699387 237.860123,92.7411043 234.797546,92.5840491 L234.561963,92.5840491 L234.404908,92.5840491 C232.834356,92.8196319 231.420859,93.5263804 230.242945,94.4687117 C230.007362,94.6257669 229.850307,94.7828221 229.614724,94.9398773 C227.651534,88.1079755 227.808589,79.7840491 230.08589,69.8895706 C234.561963,55.0478528 234.090798,38.7141104 237.153374,22.7730061 L237.153374,22.7730061 Z" fill="#CCC9E2"></path>
            <path d="M191.921472,75.9361963 C190.272393,73.6588957 188.230675,71.8527607 185.717791,70.6748466 C181.791411,68.9472393 177.472393,69.3398773 173.467485,70.596319 C168.206135,72.2453988 163.10184,75.5435583 158.704294,78.7631902 C142.920245,89.6 123.995092,107.268712 134.517791,128 C136.245399,131.847853 138.601227,135.381595 141.506748,138.444172 C158.939877,156.976687 195.062577,158.468712 217.364417,148.809816 L217.364417,148.809816 C228.515337,143.626994 232.441718,135.146012 227.808589,123.759509 C228.593865,120.147239 229.300613,116.613497 230.08589,113.001227 L230.08589,112.922699 L230.08589,112.844172 C230.949693,104.441718 231.656442,89.6785276 223.332515,84.4171779 C219.56319,82.0613497 215.087117,82.2969325 210.925153,83.3177914 C205.271166,79.9411043 198.517791,76.7214724 191.921472,75.9361963" fill="#18112E"></path>
            <path d="M136.402454,127.136196 C138.051534,130.984049 140.328834,134.282209 143.077301,137.18773 L143.077301,137.18773 C147.946012,144.961963 152.814724,152.736196 157.683436,160.588957 C157.683436,160.588957 156.741104,156.426994 154.856442,148.103067 C154.856442,148.103067 159.17546,148.888344 167.734969,150.458896 L167.734969,150.458896 C184.225767,154.463804 203.229448,152.736196 216.500613,147.003681 C227.10184,142.056442 230.164417,134.439264 225.688344,124.07362 C225.688344,124.07362 226.47362,120.304294 228.044172,112.687117 C230.321472,90.6993865 224.510429,81.6687117 210.611043,85.6736196 C209.433129,87.2441718 208.804908,88.0294479 208.804908,88.0294479 C208.961963,87.0871166 209.354601,86.1447853 209.825767,85.202454 C203.386503,81.2760736 197.653988,78.9202454 192.628221,78.2134969 C193.177914,80.804908 193.099387,83.7104294 192.392638,86.9300613 C192.235583,83.8674847 191.68589,80.8834356 190.822086,77.9779141 C186.817178,71.7742331 180.84908,70.1251534 172.917791,73.1092025 C171.739877,73.5803681 170.561963,74.0515337 169.384049,74.6797546 C166.478528,76.0932515 163.337423,78.1349693 159.960736,80.5693252 C158.86135,81.3546012 157.761963,82.0613497 156.741104,82.8466258 C151.165644,87.5582822 146.06135,93.4478528 141.428221,100.593865 L149.123926,100.593865 C137.737423,103.734969 133.496933,112.608589 136.402454,127.136196" fill="#CCC9E4"></path>
            <path d="M242.88589,152.265031 C239.980368,153.364417 238.488344,153.91411 238.488344,153.91411 C238.723926,153.521472 238.880982,153.128834 239.038037,152.814724 L237.860123,153.678528 C237.93865,153.835583 237.93865,154.071166 238.017178,154.228221 C236.053988,156.741104 235.111656,157.997546 235.111656,157.997546 C234.876074,153.28589 232.912883,149.280982 229.222086,146.139877 C226.630675,144.647853 226.552147,143.312883 228.986503,142.134969 C232.04908,140.957055 234.640491,143.705521 236.917791,150.537423 C236.839264,147.474847 235.896933,144.490798 234.090798,141.663804 C232.04908,139.465031 232.36319,138.208589 234.954601,137.737423 C238.252761,137.423313 240.058896,141.11411 240.294479,148.809816 C240.687117,146.218405 240.451534,143.469939 239.58773,140.642945 C238.174233,137.973006 238.802454,136.795092 241.393865,137.109202 C245.084663,137.815951 245.555828,142.841718 242.88589,152.265031" fill="#18112E"></path>
            <path d="M127.293252,191.921472 C120.147239,196.004908 118.576687,199.852761 122.581595,203.386503 C129.020859,204.407362 132.868712,208.255215 134.125153,214.930061 C134.360736,217.992638 135.695706,221.683436 138.051534,225.923926 C138.758282,224.981595 138.993865,223.882209 138.83681,222.625767 C138.83681,222.625767 139.779141,224.117791 141.742331,227.10184 C142.684663,225.217178 142.76319,223.253988 141.977914,221.133742 C141.977914,221.133742 142.841718,222.233129 144.569325,224.353374 C145.197546,221.21227 143.784049,218.071166 140.48589,215.008589 C142.292025,208.883436 142.292025,204.014724 140.407362,200.166871 L141.663804,200.795092 C140.8,198.282209 138.993865,196.476074 136.245399,195.376687 L136.245399,195.376687 C133.968098,193.884663 130.984049,192.628221 127.293252,191.921472" fill="#18112E"></path>
            <path d="M117.712883,187.366871 C114.336196,182.026994 111.509202,180.927607 109.388957,184.068712 C109.62454,194.355828 113.23681,201.18773 120.225767,204.564417 C117.084663,199.067485 116.220859,193.334969 117.712883,187.366871 L117.712883,187.366871 Z M111.666258,175.509202 C111.430675,169.148466 111.27362,165.928834 111.27362,165.928834 C108.996319,171.896933 107.896933,177.315337 107.97546,182.105521 C110.409816,177.707975 111.666258,175.509202 111.666258,175.509202 L111.666258,175.509202 Z" fill="#18112E"></path>
            <path d="M155.170552,176.922699 C156.269939,159.411043 159.882209,151.165644 166.007362,152.186503 C167.342331,153.28589 168.36319,155.798773 168.991411,159.882209 C167.656442,159.568098 167.028221,159.411043 167.028221,159.411043 C167.656442,162.395092 167.656442,164.75092 167.185276,166.4 C166.164417,165.693252 165.693252,165.379141 165.693252,165.379141 C165.065031,170.954601 161.609816,174.802454 155.170552,176.922699" fill="#BEBCD7"></path>
            <path d="M155.170552,176.922699 L155.170552,176.687117 C161.217178,173.310429 164.358282,168.36319 164.515337,163.415951 C165.300613,164.044172 165.850307,164.593865 166.164417,164.986503 C166.164417,161.845399 165.928834,159.411043 165.536196,157.840491 C166.321472,158.154601 167.028221,158.468712 167.499387,158.782822 C167.106748,155.955828 166.321472,153.678528 165.065031,152.029448 C165.379141,152.029448 165.614724,152.029448 165.928834,152.107975 C167.263804,153.128834 168.284663,155.720245 168.912883,159.803681 C167.577914,159.489571 166.949693,159.332515 166.949693,159.332515 C167.577914,162.316564 167.577914,164.672393 167.106748,166.321472 C166.08589,165.614724 165.614724,165.300613 165.614724,165.300613 C165.379141,167.656442 164.593865,169.619632 163.337423,171.347239 C161.688344,173.467485 158.939877,175.980368 155.170552,176.922699" fill="#FFFFFF"></path>
            <path d="M164.358282,151.322699 C166.321472,151.479755 167.263804,151.95092 167.106748,152.736196 C169.069939,155.092025 169.933742,158.233129 169.69816,162.238037 C168.755828,161.217178 168.284663,160.667485 168.284663,160.667485 C168.755828,163.023313 168.520245,165.457669 167.734969,168.04908 C166.949693,167.028221 166.557055,166.557055 166.557055,166.557055 C166.242945,170.876074 162.630675,175.430675 155.24908,176.922699 C161.766871,173.546012 165.065031,169.226994 165.300613,164.201227 C166.08589,164.829448 166.635583,165.300613 166.949693,165.771779 C166.871166,162.630675 166.71411,160.196319 166.321472,158.625767 C167.106748,158.939877 167.813497,159.253988 168.284663,159.568098 C167.656442,155.720245 166.4,152.971779 164.358282,151.322699" fill="#18112E"></path>
            <path d="M134.596319,78.9202454 C133.104294,75.7791411 131.376687,72.795092 129.492025,69.9680982 L129.492025,69.9680982 C128.235583,68.1619632 127.214724,66.2773006 126.507975,64.2355828 C119.911656,45.1533742 142.370552,19.9460123 154.306748,7.61717791 L154.385276,7.53865031 L154.463804,7.4601227 C155.56319,6.04662577 156.976687,4.3190184 158.390184,3.2196319 C158.704294,2.98404908 159.568098,2.43435583 159.960736,2.51288344 C160.353374,2.59141104 160.746012,3.45521472 160.903067,3.76932515 C161.531288,5.26134969 161.845399,7.22453988 162.080982,8.79509202 C162.395092,11.6220859 162.47362,14.606135 162.47362,17.4331288 C160.117791,33.7668712 158.86135,46.8809816 160.746012,56.4613497 C163.337423,69.8895706 161.374233,73.2662577 154.699387,71.5386503 C152.893252,70.8319018 150.537423,72.5595092 151.008589,77.0355828 C152.422086,86.8515337 143.626994,94.1546012 134.596319,78.9202454 L134.596319,78.9202454 L134.596319,78.9202454 Z" fill="#CCC9E4"></path>
            <path d="M161.374233,24.5791411 C159.725153,37.6147239 159.018405,48.2944785 160.588957,56.4613497 C163.180368,69.8895706 161.217178,73.2662577 154.542331,71.5386503 C152.736196,70.8319018 150.380368,72.5595092 150.851534,77.0355828 C152.265031,86.3018405 144.647853,93.2907975 136.166871,81.4331288 C142.134969,85.0453988 145.747239,84.0245399 147.082209,78.606135 C146.768098,69.6539877 148.966871,65.2564417 153.521472,65.4920245 C157.369325,66.2773006 158.939877,64.7067485 158.233129,60.7018405 C157.447853,48.608589 158.547239,36.593865 161.374233,24.5791411 L161.374233,24.5791411 Z" fill="#BEBADD"></path>
            <path d="M188.70184,75.3079755 C184.853988,71.3815951 179.592638,70.596319 172.839264,73.0306748 C171.66135,73.5018405 170.483436,73.9730061 169.305521,74.601227 C166.4,76.0147239 163.258896,78.0564417 159.882209,80.4907975 C158.782822,81.2760736 157.683436,81.9828221 156.662577,82.7680982 C151.087117,87.4797546 145.982822,93.3693252 141.349693,100.515337 L143.626994,100.515337 C151.872393,83.8674847 176.530061,67.7693252 188.70184,75.3079755" fill="#FFFFFF"></path>
            <path d="M149.123926,100.515337 C136.402454,106.876074 132.476074,122.974233 143.155828,137.266258 C131.062577,126.665031 132.004908,103.656442 149.123926,100.515337" fill="#FFFFFF"></path>
            <path d="M225.923926,110.174233 C211.946012,111.195092 204.957055,111.744785 204.957055,111.744785 C210.218405,97.3742331 215.165644,91.4846626 220.034356,91.6417178 C225.688344,91.798773 227.651534,97.1386503 225.923926,110.174233" fill="#BEBADD"></path>
            <path d="M184.147239,112.922699 C164.672393,101.222086 153.050307,96.2748466 153.050307,96.2748466 C163.023313,81.1190184 174.645399,75.3079755 184.932515,78.1349693 C193.177914,80.4122699 193.099387,91.0920245 184.147239,112.922699" fill="#BEBADD"></path>
            <path d="M167.028221,131.533742 C148.574233,129.727607 143.391411,122.73865 150.615951,112.765644 L150.615951,112.765644 C149.909202,112.215951 148.966871,112.530061 147.867485,113.629448 C150.30184,108.525153 154.699387,110.802454 151.008589,112.294479 C145.511656,121.717791 152.186503,128.392638 167.577914,129.64908 C185.246626,131.062577 196.790184,133.732515 203.465031,136.795092 C214.458896,141.820859 222.782822,138.444172 221.52638,131.455215 C222.468712,136.716564 220.348466,139.779141 215.087117,140.564417 C211.946012,141.11411 207.941104,140.250307 203.229448,137.894479 C194.041718,134.203681 181.712883,132.947239 167.028221,131.533742" fill="#FFFFFF"></path>
            <path d="M166.871166,130.434356 C148.417178,128.628221 143.234356,121.639264 150.458896,111.666258 L150.458896,111.666258 C149.752147,111.116564 148.809816,111.430675 147.710429,112.530061 C150.144785,107.425767 154.542331,109.703067 150.851534,111.195092 C145.354601,120.618405 152.029448,127.293252 167.420859,128.549693 C185.089571,129.96319 196.633129,132.633129 203.307975,135.695706 C214.30184,140.721472 222.625767,137.344785 221.369325,130.355828 C222.311656,135.617178 220.191411,138.679755 214.930061,139.465031 C211.788957,140.014724 207.784049,139.15092 203.072393,136.795092 C193.884663,133.104294 181.634356,131.847853 166.871166,130.434356" fill="#381F59"></path>
            <path d="M199.53865,141.428221 C195.141104,147.474847 187.209816,145.668712 175.666258,135.931288 C186.974233,143.077301 194.905521,144.883436 199.53865,141.428221" fill="#381F59"></path>
            <path d="M162.159509,114.88589 C169.148466,118.419632 178.571779,116.220859 183.676074,113.158282 L184.068712,112.922699 L184.225767,112.451534 C184.77546,110.880982 184.539877,108.446626 184.77546,106.876074 L184.77546,106.797546 L184.77546,106.719018 C185.325153,100.829448 184.932515,93.6834356 180.220859,89.5214724 C177.472393,87.0871166 173.860123,86.2233129 170.247853,86.2233129 C162.159509,86.2233129 156.662577,91.0134969 153.207362,98.002454 L153.128834,98.0809816 L153.128834,98.1595092 C152.422086,100.515337 151.715337,102.71411 152.422086,105.148466 C153.835583,109.93865 158.076074,112.844172 162.159509,114.88589" fill="#381F59"></path>
            <path d="M162.866258,113.943558 C155.24908,110.095706 152.343558,105.069939 154.306748,98.6306748 C157.604908,91.9558282 162.944785,87.7153374 170.404908,87.7153374 C180.377914,87.6368098 184.77546,94.5472393 183.519018,106.719018 C183.12638,108.917791 182.733742,110.488344 182.419632,111.430675 C174.723926,115.985276 168.284663,116.692025 162.866258,113.943558" fill="#FFFFFF"></path>
            <path d="M167.970552,92.7411043 C162.866258,93.2122699 159.17546,97.6883436 159.646626,102.71411 C160.117791,107.818405 164.593865,111.509202 169.619632,111.038037 C174.723926,110.566871 178.414724,106.090798 177.943558,101.065031 C177.55092,96.0392638 173.074847,92.3484663 167.970552,92.7411043" fill="#0F143C"></path>
            <path d="M168.04908,93.8404908 C163.573006,94.2331288 160.274847,98.2380368 160.667485,102.71411 C161.060123,107.190184 165.065031,110.488344 169.541104,110.095706 C174.017178,109.703067 177.315337,105.69816 176.922699,101.222086 C176.530061,96.7460123 172.525153,93.4478528 168.04908,93.8404908" fill="#196097"></path>
            <path d="M171.896933,108.132515 C171.111656,108.211043 170.483436,108.917791 170.561963,109.703067 C170.640491,110.488344 171.347239,111.116564 172.132515,111.038037 C172.917791,110.959509 173.546012,110.252761 173.467485,109.467485 C173.467485,108.682209 172.760736,108.053988 171.896933,108.132515" fill="#FFFFFF"></path>
            <path d="M164.044172,90.7779141 C161.845399,91.406135 160.353374,93.0552147 160.746012,94.5472393 C161.13865,95.9607362 163.258896,96.6674847 165.536196,96.0392638 C167.734969,95.4110429 169.226994,93.7619632 168.834356,92.2699387 C168.441718,90.8564417 166.242945,90.1496933 164.044172,90.7779141" fill="#FFFFFF"></path>
            <path d="M161.217178,90.5423313 C159.960736,90.3852761 159.332515,90.2282209 159.332515,90.2282209 C167.106748,85.6736196 174.723926,84.9668712 182.184049,88.2650307 C174.409816,86.0662577 167.420859,86.7730061 161.217178,90.5423313" fill="#381F59"></path>
            <path d="M168.36319,96.9815951 C165.614724,97.2171779 163.573006,99.6515337 163.808589,102.4 C164.044172,105.148466 166.478528,107.190184 169.226994,106.954601 C171.97546,106.719018 174.017178,104.284663 173.781595,101.536196 C173.546012,98.7092025 171.111656,96.6674847 168.36319,96.9815951" fill="#030204"></path>
            <path d="M148.574233,102.71411 C152.893252,109.467485 156.584049,113.23681 159.489571,114.100613 C159.568098,105.855215 155.877301,102.08589 148.574233,102.71411" fill="#CCC9E4"></path>
            <path d="M148.574233,102.71411 C156.89816,98.4736196 160.039264,105.384049 159.489571,114.100613 C159.018405,106.01227 155.406135,102.242945 148.574233,102.71411" fill="#381F59"></path>
            <path d="M148.574233,102.71411 C155.24908,102.08589 158.939877,105.933742 159.489571,114.100613 C158.233129,106.640491 154.542331,102.792638 148.574233,102.71411" fill="#FFFFFF"></path>
            <path d="M203.229448,97.6883436 C202.051534,91.0134969 199.53865,87.6368098 195.533742,87.5582822 C200.402454,85.9092025 203.386503,89.3644172 204.407362,97.7668712 C200.009816,107.504294 200.245399,113.55092 205.271166,115.906748 C202.993865,115.435583 201.815951,115.2 201.737423,115.2 C199.460123,111.666258 199.931288,105.776687 203.229448,97.6883436" fill="#381F59"></path>
            <path d="M221.290798,122.42454 C225.923926,119.754601 226.002454,112.608589 225.845399,108.289571 C225.766871,105.619632 225.217178,103.028221 222.86135,101.614724 C219.641718,99.5730061 215.479755,100.672393 212.495706,102.635583 C208.09816,105.462577 205.192638,110.409816 203.543558,115.278528 L203.465031,115.51411 L203.465031,115.749693 C203.779141,123.995092 217.992638,124.309202 221.290798,122.42454" fill="#381F59"></path>
            <path d="M204.721472,115.671166 C210.218405,99.808589 224.510429,98.002454 224.981595,108.289571 C225.295706,115.828221 223.960736,120.147239 220.976687,121.089571 C215.087117,122.974233 206.527607,122.660123 204.721472,115.671166" fill="#FFFFFF"></path>
            <path d="M223.882209,103.813497 C224.353374,103.420859 224.588957,103.185276 224.588957,103.185276 C222.939877,100.358282 219.955828,98.8662577 215.872393,98.7092025 C219.092025,99.4944785 221.761963,101.143558 223.882209,103.813497" fill="#381F59"></path>
            <path d="M214.223313,106.090798 C210.37546,106.090798 207.234356,109.231902 207.234356,113.079755 C207.234356,116.927607 210.37546,120.068712 214.223313,120.068712 C218.071166,120.068712 221.21227,116.927607 221.21227,113.079755 C221.21227,109.153374 218.071166,106.090798 214.223313,106.090798" fill="#0F143C"></path>
            <path d="M214.223313,106.876074 C210.846626,106.876074 208.019632,109.62454 208.019632,113.079755 C208.019632,116.456442 210.768098,119.283436 214.223313,119.283436 C217.678528,119.283436 220.426994,116.534969 220.426994,113.079755 C220.426994,109.62454 217.6,106.876074 214.223313,106.876074" fill="#196097"></path>
            <path d="M214.223313,109.231902 C212.103067,109.231902 210.453988,110.959509 210.453988,113.001227 C210.453988,115.042945 212.181595,116.770552 214.223313,116.770552 C216.343558,116.770552 217.992638,115.042945 217.992638,113.001227 C217.992638,110.959509 216.343558,109.231902 214.223313,109.231902" fill="#030204"></path>
            <path d="M217.678528,117.634356 C217.050307,117.634356 216.579141,118.105521 216.579141,118.733742 C216.579141,119.361963 217.050307,119.833129 217.678528,119.833129 C218.306748,119.833129 218.777914,119.361963 218.777914,118.733742 C218.777914,118.105521 218.306748,117.634356 217.678528,117.634356" fill="#FFFFFF"></path>
            <path d="M211.396319,105.776687 C209.825767,106.561963 209.040491,108.053988 209.590184,109.074847 C210.139877,110.095706 211.788957,110.252761 213.359509,109.388957 C214.930061,108.603681 215.715337,107.111656 215.165644,106.090798 C214.615951,105.148466 212.966871,104.991411 211.396319,105.776687" fill="#FFFFFF"></path>
            <path d="M218.620859,121.717791 C218.463804,122.73865 218.306748,123.288344 218.306748,123.288344 C220.662577,123.052761 222.704294,123.288344 224.431902,124.07362 C222.782822,122.267485 220.819632,121.560736 218.620859,121.717791" fill="#381F59"></path>
            <path d="M199.774233,132.554601 C205.663804,130.512883 208.569325,127.371779 208.569325,123.131288 C207.077301,113.786503 199.774233,111.823313 186.73865,117.320245 C183.911656,119.12638 185.246626,121.796319 190.586503,125.408589 C192.863804,126.822086 193.96319,128.31411 193.96319,129.96319 L193.96319,129.96319 L193.96319,130.120245 C193.96319,130.591411 194.120245,130.905521 194.434356,131.141104 L194.434356,131.141104 C196.397546,132.554601 198.203681,133.025767 199.774233,132.554601" fill="#18112E"></path>
            <path d="M199.460123,131.61227 C204.721472,129.727607 207.391411,126.900613 207.391411,123.131288 C206.056442,114.728834 199.53865,113.001227 187.759509,117.869939 C185.246626,119.440491 186.42454,121.874847 191.214724,125.173006 C193.256442,126.429448 194.277301,127.764417 194.198773,129.256442 L194.198773,129.256442 L194.198773,129.413497 C194.198773,129.806135 194.355828,130.120245 194.591411,130.355828 L194.591411,130.355828 C196.476074,131.61227 198.046626,132.083436 199.460123,131.61227" fill="#18112E"></path>
            <path d="M200.480982,116.299387 C203.307975,116.613497 205.585276,118.184049 205.585276,119.990184 C205.585276,121.717791 203.307975,122.895706 200.480982,122.660123 C197.653988,122.42454 195.376687,120.77546 195.376687,118.969325 C195.29816,117.16319 197.653988,115.985276 200.480982,116.299387" fill="#2B1F51"></path>
            <path d="M192.078528,83.7889571 C192,78.5276074 187.759509,71.7742331 187.759509,71.7742331 C209.197546,64.7067485 218.620859,73.4233129 221.369325,76.8 C218.385276,76.407362 216.029448,76.4858896 214.223313,76.9570552 C217.050307,78.1349693 219.092025,80.0196319 220.348466,82.4539877 C218.149693,81.590184 215.715337,81.2760736 213.045399,81.5116564 C219.327607,85.8306748 220.269939,91.5631902 215.872393,98.6306748 C216.265031,96.4319018 215.165644,94.6257669 212.731288,93.1337423 C210.689571,99.4159509 206.684663,103.577914 200.795092,105.619632 C201.580368,100.122699 200.87362,95.1754601 198.596319,90.7779141 C197.732515,93.1337423 197.339877,94.2331288 197.339877,94.2331288 C193.806135,87.3226994 192.078528,83.7889571 192.078528,83.7889571" fill="#18112E"></path>
            <path d="M212.652761,93.2122699 C218.149693,77.5067485 203.072393,67.2196319 188.780368,73.7374233 C204.48589,73.0306748 216.029448,91.0920245 200.716564,105.69816 C206.76319,103.499387 210.768098,99.3374233 212.652761,93.2122699" fill="#2B1F51"></path>
            <path d="M188.780368,73.7374233 C188.152147,72.5595092 187.680982,71.7742331 187.680982,71.7742331 C209.119018,64.7067485 218.542331,73.4233129 221.290798,76.8 C212.02454,70.6748466 201.18773,69.6539877 188.780368,73.7374233 L188.780368,73.7374233 L188.780368,73.7374233 Z" fill="#2B1F51"></path>
            <path d="M199.22454,151.715337 C222.939877,148.103067 231.813497,138.915337 225.766871,124.230675 C229.850307,138.679755 220.976687,147.788957 199.22454,151.715337" fill="#FFFFFF"></path>
            <path d="M165.222086,56.3828221 C165.143558,58.1889571 164.593865,58.3460123 163.651534,56.8539877 C161.845399,47.4306748 161.766871,35.2588957 163.337423,20.1815951 C162.866258,35.5730061 163.415951,47.6662577 165.222086,56.3828221" fill="#2B1F51"></path>
        </g>
    </g>
</svg>