<?xml version="1.0" encoding="UTF-8"?>
<svg width="256px" height="256px" viewBox="0 0 256 256" version="1.1" xmlns="http://www.w3.org/2000/svg" xmlns:xlink="http://www.w3.org/1999/xlink" preserveAspectRatio="xMidYMid">
    <title>AWS Relational Database Service (RDS)</title>
    <defs>
        <linearGradient x1="0%" y1="100%" x2="100%" y2="0%" id="linearGradient-1">
            <stop stop-color="#2E27AD" offset="0%"></stop>
            <stop stop-color="#527FFF" offset="100%"></stop>
        </linearGradient>
    </defs>
    <g>
        <rect fill="url(#linearGradient-1)" x="0" y="0" width="256" height="256"></rect>
        <path d="M49.3248,44.8 L79.0624,74.5376 L74.5376,79.0624 L44.8,49.3248 L44.8,73.6 L38.4,73.6 L38.4,41.6 C38.4,39.8336 39.8304,38.4 41.6,38.4 L73.6,38.4 L73.6,44.8 L49.3248,44.8 Z M217.6,41.6 L217.6,73.6 L211.2,73.6 L211.2,49.3248 L181.4624,79.0624 L176.9376,74.5376 L206.6752,44.8 L182.4,44.8 L182.4,38.4 L214.4,38.4 C216.1696,38.4 217.6,39.8336 217.6,41.6 L217.6,41.6 Z M211.2,182.4 L217.6,182.4 L217.6,214.4 C217.6,216.1664 216.1696,217.6 214.4,217.6 L182.4,217.6 L182.4,211.2 L206.6752,211.2 L176.9376,181.4624 L181.4624,176.9376 L211.2,206.6752 L211.2,182.4 Z M209.6,125.4816 C209.6,114.8608 197.3376,104.368 176.8,97.4144 L178.8512,91.3536 C202.4576,99.344 216,111.7824 216,125.4816 C216,139.184 202.4576,151.6256 178.848,159.6128 L176.7968,153.5488 C197.3376,146.5984 209.6,136.1088 209.6,125.4816 L209.6,125.4816 Z M46.5792,125.4816 C46.5792,135.6576 58.0576,145.872 77.2864,152.8096 L75.1136,158.8288 C52.912,150.8192 40.1792,138.6656 40.1792,125.4816 C40.1792,112.3008 52.912,100.1472 75.1136,92.1344 L77.2864,98.1536 C58.0576,105.0944 46.5792,115.3088 46.5792,125.4816 L46.5792,125.4816 Z M79.0624,181.4624 L49.3248,211.2 L73.6,211.2 L73.6,217.6 L41.6,217.6 C39.8304,217.6 38.4,216.1664 38.4,214.4 L38.4,182.4 L44.8,182.4 L44.8,206.6752 L74.5376,176.9376 L79.0624,181.4624 Z M128,100.1152 C105.1328,100.1152 92.8,94.208 92.8,91.7952 C92.8,89.3792 105.1328,83.4752 128,83.4752 C150.864,83.4752 163.2,89.3792 163.2,91.7952 C163.2,94.208 150.864,100.1152 128,100.1152 L128,100.1152 Z M128.0928,124.8992 C106.1984,124.8992 92.8,118.9184 92.8,115.664 L92.8,100.1088 C100.6816,104.4576 114.6624,106.5152 128,106.5152 C141.3376,106.5152 155.3184,104.4576 163.2,100.1088 L163.2,115.664 C163.2,118.9216 149.872,124.8992 128.0928,124.8992 L128.0928,124.8992 Z M128.0928,149.3344 C106.1984,149.3344 92.8,143.3536 92.8,140.0992 L92.8,124.3584 C100.5792,128.9312 114.3744,131.2992 128.0928,131.2992 C141.7344,131.2992 155.4496,128.9344 163.2,124.3744 L163.2,140.0992 C163.2,143.3568 149.872,149.3344 128.0928,149.3344 L128.0928,149.3344 Z M128,171.2576 C105.2256,171.2576 92.8,165.136 92.8,161.9904 L92.8,148.7936 C100.5792,153.3664 114.3744,155.7344 128.0928,155.7344 C141.7344,155.7344 155.4496,153.3728 163.2,148.8096 L163.2,161.9904 C163.2,165.136 150.7744,171.2576 128,171.2576 L128,171.2576 Z M128,77.0752 C107.9648,77.0752 86.4,81.68 86.4,91.7952 L86.4,161.9904 C86.4,172.2752 107.328,177.6576 128,177.6576 C148.672,177.6576 169.6,172.2752 169.6,161.9904 L169.6,91.7952 C169.6,81.68 148.0352,77.0752 128,77.0752 L128,77.0752 Z" fill="#FFFFFF"></path>
    </g>
</svg>