<?xml version="1.0" encoding="UTF-8"?>
<svg width="256px" height="256px" viewBox="0 0 256 256" version="1.1" xmlns="http://www.w3.org/2000/svg" xmlns:xlink="http://www.w3.org/1999/xlink" preserveAspectRatio="xMidYMid">
    <title>AWS Redshift</title>
    <defs>
        <linearGradient x1="0%" y1="100%" x2="100%" y2="0%" id="linearGradient-1">
            <stop stop-color="#4D27A8" offset="0%"></stop>
            <stop stop-color="#A166FF" offset="100%"></stop>
        </linearGradient>
    </defs>
    <g>
        <rect fill="url(#linearGradient-1)" x="0" y="0" width="256" height="256"></rect>
        <path d="M162.640114,112.545563 C159.248662,112.545563 156.493308,109.795414 156.493308,106.413559 C156.493308,103.031705 159.248662,100.278365 162.640114,100.278365 C166.028369,100.278365 168.783723,103.031705 168.783723,106.413559 C168.783723,109.795414 166.028369,112.545563 162.640114,112.545563 M147.070123,149.838484 C143.681868,149.838484 140.926513,147.088335 140.926513,143.706481 C140.926513,140.324626 143.681868,137.574476 147.070123,137.574476 C150.458378,137.574476 153.216929,140.324626 153.216929,143.706481 C153.216929,147.088335 150.458378,149.838484 147.070123,149.838484 M109.703422,143.623529 C106.318364,143.623529 103.563009,140.87338 103.563009,137.491525 C103.563009,134.109671 106.318364,131.356331 109.703422,131.356331 C113.094874,131.356331 115.850229,134.109671 115.850229,137.491525 C115.850229,140.87338 113.094874,143.623529 109.703422,143.623529 M94.1366278,177.808973 C90.7515693,177.808973 87.9930182,175.058824 87.9930182,171.676969 C87.9930182,168.295115 90.7515693,165.544965 94.1366278,165.544965 C97.5280794,165.544965 100.283434,168.295115 100.283434,171.676969 C100.283434,175.058824 97.5280794,177.808973 94.1366278,177.808973 M162.640114,93.8975075 C155.726155,93.8975075 150.100373,99.5126621 150.100373,106.413559 C150.100373,110.644068 152.226024,114.373679 155.457652,116.642074 L149.608117,131.452044 C148.786625,131.282951 147.936365,131.193619 147.070123,131.193619 C141.572199,131.193619 136.940518,134.766899 135.25598,139.696112 L122.166448,136.725822 C121.760496,130.188634 116.358467,124.975474 109.703422,124.975474 C102.792661,124.975474 97.1700752,130.590628 97.1700752,137.491525 C97.1700752,140.717049 98.4294832,143.633101 100.446454,145.853639 L94.7343674,159.224726 C94.5297933,159.211964 94.3412019,159.164108 94.1366278,159.164108 C87.2258662,159.164108 81.6000842,164.776072 81.6000842,171.676969 C81.6000842,178.574676 87.2258662,184.18983 94.1366278,184.18983 C101.050586,184.18983 106.676368,178.574676 106.676368,171.676969 C106.676368,167.248654 104.34934,163.375474 100.861995,161.148554 L105.902823,149.35354 C107.111088,149.739581 108.370496,150.004387 109.703422,150.004387 C114.635571,150.004387 118.87089,147.12343 120.913433,142.985444 L134.779707,146.131206 C135.914452,151.873978 140.990442,156.219342 147.070123,156.219342 C153.984081,156.219342 159.609863,150.607378 159.609863,143.706481 C159.609863,139.976869 157.931717,136.662014 155.329793,134.364905 L161.4766,118.808375 C161.866569,118.84666 162.240555,118.926421 162.640114,118.926421 C169.550875,118.926421 175.176657,113.311266 175.176657,106.413559 C175.176657,99.5126621 169.550875,93.8975075 162.640114,93.8975075 M128,211.219143 C96.8600179,211.219143 73.5929341,201.871187 73.5929341,193.512263 L73.5929341,74.0849453 C84.1860259,82.6927219 106.609243,87.2422733 128.067126,87.2422733 C149.429115,87.2422733 171.756438,82.731007 182.407066,74.1966102 L182.407066,193.512263 C182.407066,201.871187 159.136786,211.219143 128,211.219143 M128.067126,44.7808573 C160.089333,44.7808573 182.407066,54.288335 182.407066,62.8227318 C182.407066,71.3539382 160.089333,80.8614157 128.067126,80.8614157 C96.0417222,80.8614157 73.7271856,71.3539382 73.7271856,62.8227318 C73.7271856,54.288335 96.0417222,44.7808573 128.067126,44.7808573 M188.8,62.8227318 C188.8,46.9599203 157.509784,38.4 128.067126,38.4 C98.6244678,38.4 67.3342515,46.9599203 67.3342515,62.8227318 C67.3342515,62.8482554 67.3406445,62.876969 67.3406445,62.9024925 L67.2,62.9024925 L67.2,193.512263 C67.2,209.158126 98.5253773,217.6 128,217.6 C157.474623,217.6 188.8,209.158126 188.8,193.512263 L188.8,62.9024925 L188.793607,62.9024925 C188.793607,62.876969 188.8,62.8482554 188.8,62.8227318" fill="#FFFFFF"></path>
    </g>
</svg>