<?xml version="1.0" encoding="UTF-8" standalone="no"?>
<svg width="256px" height="310px" viewBox="0 0 256 310" version="1.1" xmlns="http://www.w3.org/2000/svg" xmlns:xlink="http://www.w3.org/1999/xlink" preserveAspectRatio="xMidYMid">
	<g>
		<path d="M0,245.262 L16.322,253.423 L19,248.668 L19,59.333 L16.322,55.839 L0,64 L0,245.262" fill="#9D5025"></path>
		<path d="M47.678,63.57 L16.322,55.839 L16.322,253.423 L47.678,246.121 L47.678,63.57" fill="#F68536"></path>
		<path d="M143.893,78.604 L166.228,67.007 L240.537,95.785 L220.779,98.362 L143.893,78.604" fill="#6B3A19"></path>
		<path d="M144.752,230.658 L166.658,242.255 L240.966,213.477 L221.208,210.899 L144.752,230.658" fill="#FBBF93"></path>
		<path d="M150.336,198.872 L189.423,204.027 L191.667,200 L191.667,110 L189.423,105.235 L150.336,110.389 L150.336,198.872" fill="#9D5025"></path>
		<path d="M35.651,45.96 L59.705,33.933 L62.333,39 L62.333,270 L59.705,275.329 L35.651,263.302 L35.651,45.96" fill="#9D5025"></path>
		<path d="M108.671,259.007 L59.705,274.899 L59.705,33.933 L108.671,49.826 L108.671,259.007" fill="#F68536"></path>
		<path d="M89.772,289.933 L128,309.262 L132,304.667 L132,5.667 L128,0 L89.772,19.329 L89.772,289.933" fill="#9D5025"></path>
		<path d="M219.919,98.362 L239.678,95.785 L241.375,98.25 L241.375,211 L239.678,213.906 L219.919,211.329 L219.919,98.362" fill="#9D5025"></path>
		<path d="M189.423,105.235 L189.423,204.456 L230.228,154.631 L189.423,105.235" fill="#F68536"></path>
		<path d="M239.678,55.839 L128,0 L128,309.262 L256,245.262 L256,64 L239.678,55.839 L239.678,55.839 Z M239.678,214.056 L166.228,235.992 L166.228,73.27 L239.678,95.206 L239.678,214.056 L239.678,214.056 Z" fill="#F68536"></path>
	</g>
</svg>