<?xml version="1.0" encoding="UTF-8"?>
<svg width="512px" height="217px" viewBox="0 0 512 217" version="1.1" xmlns="http://www.w3.org/2000/svg" xmlns:xlink="http://www.w3.org/1999/xlink" preserveAspectRatio="xMidYMid">
    <g>
				<g>
						<path d="M175.374345,43.9898357 L107.370941,3.61536762 C99.2884454,-1.20512254 89.213437,-1.20512254 81.1309412,3.61536762 L13.1139199,43.9898357 C4.93238064,48.9255094 -0.0488663608,57.8017502 0.000361520172,67.3566442 L0.000361520172,148.091963 C-0.0440610795,157.642012 4.93656418,166.511973 13.1139199,171.445155 L81.1173242,211.806006 C89.2006414,216.623514 99.2740069,216.623514 107.357324,211.806006 L175.360728,171.445155 C183.547493,166.512852 188.534262,157.635989 188.487904,148.078346 L188.487904,67.3566442 C188.537132,57.8017502 183.555885,48.9255094 175.374345,43.9898357 Z" fill="#FFFFFF"></path>
						<path d="M175.374345,43.9898357 L107.370941,3.61536762 C99.2884454,-1.20512254 89.213437,-1.20512254 81.1309412,3.61536762 L13.1139199,43.9898357 C4.93238064,48.9255094 -0.0488663608,57.8017502 0.000361520172,67.3566442 L0.000361520172,148.091963 C-0.0440610795,157.642012 4.93656418,166.511973 13.1139199,171.445155 L81.1173242,211.806006 C89.2006414,216.623514 99.2740069,216.623514 107.357324,211.806006 L175.360728,171.445155 C183.547493,166.512852 188.534262,157.635989 188.487904,148.078346 L188.487904,67.3566442 C188.537132,57.8017502 183.555885,48.9255094 175.374345,43.9898357 Z M83.5003029,207.680048 L15.4968986,167.319197 C8.7767248,163.247011 4.68356491,155.94961 4.71203889,148.091963 L4.71203889,67.3566442 C4.6808563,59.4982951 8.77471339,52.1996509 15.4968986,48.1294102 L83.5003029,7.75494208 C90.1187012,3.80650528 98.3695642,3.80650528 104.987962,7.75494208 L172.936899,48.1294102 C178.538338,51.5221222 182.359455,57.2114517 183.381154,63.6800485 C181.120728,58.87324 176.041579,57.5523889 170.118175,60.9566442 L105.832218,100.772814 C97.8117923,105.443453 91.902005,110.71324 91.888388,120.381325 L91.888388,199.659623 C91.888388,205.446857 94.2168986,209.191538 97.8117923,210.294517 C96.634558,210.510256 95.4409231,210.624152 94.2441327,210.634942 C90.4625495,210.632173 86.7514376,209.611499 83.5003029,207.680048 Z" fill="#2F3A3E"></path>
						<path d="M157.549665,155.894517 L140.61009,166.02558 C140.15642,166.207912 139.85238,166.639968 139.83392,167.128559 L139.83392,171.581325 C139.83392,172.126006 140.201579,172.343878 140.650941,172.085155 L157.849239,161.627283 C158.270414,161.311547 158.471892,160.781341 158.366686,160.26558 L158.366686,156.357495 C158.353069,155.853665 157.958175,155.635793 157.549665,155.894517 Z" fill="#3AB14A"></path>
						<path d="M121.491792,118.597495 C122.036473,118.325155 122.485835,118.597495 122.499452,119.373665 L122.55392,125.283453 C124.590976,124.358008 126.863587,124.082252 129.062856,124.493665 C129.484984,124.602602 129.662005,125.174517 129.498601,125.855368 L128.204984,131.043453 C128.106918,131.434994 127.904568,131.792636 127.619452,132.078346 C127.519318,132.177141 127.40448,132.259824 127.279026,132.323453 C127.125096,132.406707 126.947548,132.435499 126.775197,132.405155 C124.630718,131.930267 122.385863,132.290613 120.49775,133.412814 C117.736953,134.656474 115.932317,137.371366 115.854345,140.398346 C115.854345,143.121751 117.216048,143.870687 121.968388,143.952389 C128.245835,144.061325 130.969239,146.798346 131.037324,153.130261 C130.887865,159.739571 127.840412,165.949006 122.703707,170.110687 L122.812643,175.911538 C122.802963,176.632008 122.428727,177.298454 121.818601,177.681751 L118.387111,179.656219 C117.842431,179.928559 117.393069,179.656219 117.379452,178.893665 L117.379452,173.188134 C114.438175,174.413665 111.456048,174.699623 109.549665,173.93707 C109.195622,173.8009 109.032218,173.269836 109.182005,172.65707 L110.421154,167.414517 C110.51538,166.999631 110.728289,166.621126 111.03392,166.325155 C111.130851,166.232306 111.240978,166.1543 111.360728,166.093665 C111.538271,166.013857 111.741484,166.013857 111.919026,166.093665 C114.346492,166.751812 116.935697,166.423878 119.122431,165.181325 C122.278,163.659436 124.328741,160.51252 124.446686,157.011112 C124.446686,154.069836 122.82626,152.844304 118.999877,152.81707 C114.056899,152.81707 109.467962,151.863878 109.372643,144.646857 C109.486381,138.341856 112.413352,132.417986 117.352218,128.49707 L117.107111,122.560048 C117.104913,121.829206 117.480955,121.149239 118.101154,120.762602 L121.491792,118.597495 Z" fill="#FFFFFF"></path>
				</g>
				<path d="M390.645835,61.3515378 C398.633163,58.939236 407.17134,59.0581521 415.088388,61.6919634 C419.031849,63.0031632 422.717771,64.9889535 425.982005,67.5608995 C429.159516,70.0910338 431.782905,73.2474428 433.689239,76.834091 C435.669879,80.6183115 436.724569,84.8184049 436.766686,89.0894102 C436.782279,89.9769434 436.426937,90.8307509 435.78626,91.4451548 C435.12697,92.0769475 434.248333,92.4284026 433.335197,92.4255804 L433.335197,92.4255804 L421.393069,92.4255804 C419.6994,92.4600392 418.240174,91.2391734 417.975197,89.5660059 C417.721829,87.5177602 417.157015,85.5202463 416.300303,83.6426017 C415.554951,82.0315714 414.505362,80.5797183 413.209239,79.366857 C411.890289,78.1713953 410.349741,77.246141 408.674771,76.6434527 C404.879934,75.3864725 400.794571,75.3010642 396.950516,76.3983463 C395.315366,76.8419633 393.771185,77.5702635 392.388814,78.5498357 C391.14865,79.433894 390.120698,80.5827817 389.379452,81.91324 C388.627964,83.3135102 388.257032,84.8864482 388.303707,86.4749421 C388.265222,88.0714696 388.742769,89.6378235 389.665409,90.9413251 C390.748875,92.3642794 392.099481,93.5622478 393.641579,94.4681336 C395.473678,95.5780874 397.41813,96.4909755 399.442431,97.1915378 C401.689239,97.954091 403.840728,98.6485591 405.856048,99.234091 C408.225409,99.9421761 410.608388,100.74558 412.950516,101.61707 C415.368672,102.519329 417.728895,103.569833 420.01775,104.762602 C422.278621,105.943271 424.43753,107.309669 426.472218,108.847708 C428.513203,110.391839 430.344227,112.195398 431.919026,114.212814 C433.527428,116.228963 434.809411,118.48507 435.718175,120.898772 C436.645261,123.521876 437.106114,126.286994 437.079877,129.068985 C437.162935,133.261046 436.048085,137.38977 433.86626,140.970261 C431.801073,144.265641 429.057651,147.083335 425.818601,149.235793 C422.478013,151.435379 418.797368,153.068665 414.924984,154.069836 C411.052924,155.112597 407.060949,155.643639 403.050941,155.649412 C398.643484,155.650505 394.260513,154.994206 390.046686,153.702176 C385.920341,152.460588 382.03108,150.53667 378.540303,148.010261 C375.136606,145.537046 372.273137,142.395569 370.124984,138.777921 C367.887691,134.946714 366.673198,130.604548 366.598175,126.168559 C366.575211,125.278374 366.925796,124.419194 367.564984,123.799197 C368.225497,123.159145 369.109916,122.802446 370.029665,122.805155 L370.029665,122.805155 L381.917324,122.805155 C383.606576,122.7697 385.064143,123.983372 385.335197,125.651112 C385.599557,127.783608 386.259963,129.847952 387.282431,131.737921 C388.21424,133.41489 389.468347,134.891127 390.972643,136.081751 C392.534922,137.308717 394.313056,138.232423 396.215197,138.805155 C400.347887,139.987299 404.717347,140.071778 408.892643,139.050261 C410.590858,138.654453 412.207861,137.968033 413.672218,137.021325 C414.973841,136.169473 416.074957,135.045127 416.899452,133.726006 C417.704916,132.364308 418.101959,130.799768 418.043282,129.218772 C418.116403,127.469375 417.640253,125.740949 416.681579,124.275793 C415.619944,122.756056 414.251507,121.475755 412.664558,120.517495 C410.799894,119.366297 408.813276,118.425508 406.741154,117.712389 C404.38087,116.88629 402.111367,116.141892 399.932643,115.479197 C396.569239,114.498772 393.192218,113.218772 389.760728,111.775368 C386.267421,110.326363 382.961807,108.460954 379.915622,106.219623 C376.897583,104.001215 374.324485,101.234095 372.330941,98.0630272 C370.231285,94.6178719 369.158902,90.6448565 369.239877,86.6111123 C369.185099,82.5258398 370.23925,78.502184 372.29009,74.9685591 C374.254175,71.6403547 376.887919,68.7562193 380.024558,66.4987719 C383.248305,64.1945227 386.839717,62.4540689 390.645835,61.3515378 Z M329.696048,60.9152493 C331.165007,60.8896932 332.4863,61.8052778 332.97775,63.1898357 L332.97775,63.1898357 L361.941154,150.216219 C362.273638,151.214935 362.084538,152.313762 361.437324,153.143878 C360.784902,153.989612 359.78196,154.491083 358.71392,154.506114 L358.71392,154.506114 L347.153069,154.506114 C345.668396,154.531704 344.336711,153.596222 343.85775,152.190687 L343.85775,152.190687 L337.376048,131.96941 L311.912218,131.96941 L305.307962,152.204304 C304.822292,153.59694 303.501046,154.523457 302.02626,154.506114 L302.02626,154.506114 L290.397324,154.506114 C289.329284,154.491083 288.326342,153.989612 287.67392,153.143878 C287.029054,152.312317 286.844896,151.212489 287.183707,150.216219 L287.183707,150.216219 L316.732643,63.1762187 C317.230545,61.8044911 318.541545,60.8977158 320.000728,60.9152493 L320.000728,60.9152493 Z M459.827457,60.9162012 C461.596923,60.9679101 463.038166,62.3931986 463.088388,64.1838783 L463.088388,64.1838783 L463.088388,98.3353676 L493.740303,98.3353676 L493.740303,64.1838783 C493.792257,62.331451 495.332818,60.8700488 497.185409,60.9157931 L508.372138,60.9162012 C510.141604,60.9679101 511.582847,62.3931986 511.633069,64.1838783 L511.633069,64.1838783 L511.633069,151.223878 C511.581115,153.076305 510.040553,154.537708 508.187962,154.491963 L497.001234,154.491555 C495.231768,154.439846 493.790525,153.014558 493.740303,151.223878 L493.740303,151.223878 L493.740303,114.267283 L463.088388,114.267283 L463.088388,151.223878 C463.036434,153.076305 461.495873,154.537708 459.643282,154.491963 L448.565489,154.491555 C446.796024,154.439846 445.35478,153.014558 445.304558,151.223878 L445.304558,151.223878 L445.304558,64.1838783 C445.356512,62.331451 446.897074,60.8700488 448.749665,60.9157931 Z M246.060303,60.9021761 C250.086259,60.9396959 254.09408,61.4469571 258.002431,62.4136655 C261.815015,63.3338566 265.440343,64.9046786 268.719026,67.0570697 C271.917725,69.1765281 274.579627,72.0109172 276.494345,75.3362187 C278.52131,79.0255644 279.514007,83.1939526 279.367537,87.4008995 C279.349654,92.2837777 277.592355,97.0004848 274.410941,100.704729 C272.974354,102.375339 271.315837,103.841431 269.481579,105.062176 L269.481579,105.062176 L270.353069,105.579623 C272.650686,106.994109 274.702048,108.774101 276.42626,110.84941 C278.152058,112.9179 279.510718,115.26677 280.443282,117.794091 C281.380888,120.461579 281.841817,123.273241 281.804984,126.100474 C281.920735,130.360204 280.945765,134.578825 278.972643,138.355793 C277.100471,141.842507 274.482944,144.873818 271.30626,147.234091 C268.047361,149.627302 264.398525,151.437899 260.521579,152.58558 C256.511338,153.802135 252.347853,154.439497 248.157324,154.478346 L248.157324,154.478346 L218.642085,154.477938 C216.872619,154.426229 215.431376,153.000941 215.381154,151.210261 L215.381154,151.210261 L215.381154,64.1702612 C215.433108,62.317834 216.973669,60.8564318 218.82626,60.9021761 L218.82626,60.9021761 Z M248.974345,113.790687 L233.995622,113.790687 L233.995622,138.573665 L248.456899,138.573665 C250.415871,138.544775 252.358684,138.214084 254.216899,137.59324 C255.932232,137.028686 257.539202,136.176853 258.969239,135.074091 C260.263049,134.063484 261.318401,132.780325 262.060303,131.315793 C262.838226,129.737639 263.225829,127.99576 263.190516,126.236644 C263.265545,124.436023 262.925431,122.642268 262.196473,120.994091 C261.526212,119.549497 260.545106,118.270805 259.323282,117.24941 C258.001949,116.158673 256.486638,115.327099 254.856899,114.798346 C252.955583,114.177776 250.973805,113.838305 248.974345,113.790687 L248.974345,113.790687 Z M324.848388,92.4119634 L317.277324,115.751538 L332.256048,115.751538 L324.848388,92.4119634 Z M246.359877,76.9021761 L233.954771,76.9021761 L233.954771,98.0494102 L246.727537,98.0494102 C248.572945,98.0153806 250.405227,97.731377 252.174345,97.2051548 C253.797855,96.7397456 255.330962,96.0031174 256.708814,95.0264314 C257.945362,94.1469941 258.980507,93.0143695 259.745409,91.7038783 C260.483578,90.3590353 260.841357,88.8384756 260.780303,87.3055804 C260.836608,85.6917007 260.470487,84.0910937 259.718175,82.6621761 C259.010799,81.4159312 258.016504,80.3562841 256.81775,79.5711123 C255.408434,78.6624031 253.850644,78.007947 252.215197,77.6374953 C250.295819,77.1810246 248.332523,76.9344711 246.359877,76.9021761 L246.359877,76.9021761 Z" fill="#2F3A3E"></path>
				<path d="M292.494345,169.416219 C292.915766,169.97039 293.229818,170.598494 293.420303,171.268134 C293.628405,171.980306 293.733864,172.71852 293.733495,173.460474 L293.719877,175.108134 C293.720807,175.850127 293.615337,176.588421 293.406686,177.300474 C293.218575,177.968451 292.909327,178.596179 292.494345,179.152389 C292.088087,179.687731 291.566927,180.125133 290.969239,180.432389 C290.301067,180.762613 289.562872,180.926137 288.81775,180.908985 C287.39555,180.952017 286.042437,180.295809 285.195622,179.152389 C284.785986,178.594835 284.481432,177.967269 284.296899,177.300474 C284.093401,176.587636 283.992529,175.849434 283.997324,175.108134 L283.997324,173.460474 C283.99678,172.962579 284.042365,172.465704 284.133494,171.976219 C284.217378,171.509812 284.349727,171.053438 284.528388,170.614517 C284.703477,170.194777 284.927434,169.79714 285.195622,169.429836 C285.452779,169.06976 285.765297,168.752647 286.121579,168.490261 C286.490809,168.223537 286.899809,168.016739 287.333494,167.877495 C287.813744,167.727418 288.314629,167.653894 288.81775,167.659623 C290.255017,167.617184 291.62432,168.271406 292.494345,169.416219 Z M452.753069,167.673125 C453.372754,167.669311 453.988976,167.765883 454.57775,167.959197 C455.116241,168.136835 455.618827,168.408877 456.062005,168.762602 C456.480455,169.101037 456.82366,169.523086 457.069665,170.001751 C457.320043,170.495527 457.450658,171.041313 457.450941,171.594942 L455.21775,171.594942 C455.191343,171.290414 455.117845,170.991826 454.999877,170.709836 C454.887343,170.446329 454.720273,170.209646 454.509665,170.015368 C454.28961,169.814026 454.029859,169.660959 453.747111,169.566006 C453.414023,169.452785 453.063986,169.397516 452.712218,169.402602 C452.399368,169.400188 452.087711,169.441437 451.78626,169.525155 C451.520281,169.600549 451.270844,169.725268 451.050941,169.892814 C450.847499,170.045118 450.680125,170.240388 450.560728,170.464729 C450.440287,170.700626 450.379506,170.962451 450.383707,171.227283 C450.384365,171.504945 450.469888,171.77577 450.628814,172.003453 C450.798084,172.23703 451.01075,172.435827 451.255197,172.588985 C451.537196,172.76799 451.838726,172.914187 452.15392,173.024729 C452.489806,173.142744 452.843849,173.25168 453.216048,173.351538 C453.769925,173.506377 454.311553,173.702092 454.836473,173.93707 C455.326833,174.154918 455.785002,174.438982 456.198175,174.781325 C456.576558,175.09509 456.890941,175.478822 457.124133,175.911538 C457.359607,176.370159 457.476634,176.880394 457.464558,177.395793 C457.475049,177.924668 457.343375,178.446663 457.083282,178.907283 C456.829295,179.346447 456.480364,179.723293 456.062005,180.010261 C455.608901,180.315647 455.106916,180.54131 454.57775,180.677495 C454.000397,180.832022 453.405211,180.909854 452.807537,180.909092 C452.391996,180.911338 451.977144,180.874868 451.568388,180.800048 C451.167202,180.727839 450.774699,180.61374 450.397324,180.459623 C450.027021,180.309874 449.675199,180.117971 449.348814,179.887708 C449.031951,179.665092 448.74778,179.399255 448.504558,179.097921 C448.000527,178.468092 447.726693,177.685024 447.72838,176.878346 L449.975197,176.878346 C449.998411,177.23329 450.090934,177.580249 450.247537,177.899623 C450.390593,178.182085 450.595365,178.428743 450.846686,178.621325 C451.107138,178.820176 451.402823,178.968019 451.718175,179.05707 C452.076843,179.159187 452.448243,179.209624 452.821154,179.206857 C453.137683,179.210258 453.453374,179.173656 453.760728,179.097921 C454.032877,179.029946 454.290978,178.914722 454.523282,178.757495 C454.736011,178.613208 454.91299,178.422257 455.040728,178.199197 C455.165725,177.955594 455.222203,177.682613 455.204133,177.40941 C455.208131,177.128277 455.137661,176.851093 454.999877,176.606006 C454.854953,176.363428 454.659982,176.15453 454.427962,175.99324 C454.158043,175.802958 453.865245,175.647409 453.556473,175.530261 C453.220587,175.394091 452.852927,175.271538 452.453494,175.162602 C451.915805,175.015197 451.388184,174.833259 450.87392,174.617921 C450.387505,174.409504 449.929862,174.139495 449.512218,173.814517 C449.114332,173.512776 448.777064,173.138548 448.518175,172.711538 C448.258224,172.26573 448.126293,171.756852 448.136899,171.2409 C448.128843,170.716624 448.260437,170.199646 448.518175,169.743027 C448.770558,169.303204 449.114137,168.922482 449.525835,168.626431 C449.971959,168.308059 450.469383,168.068559 450.996473,167.918346 C451.56722,167.752825 452.158812,167.670277 452.753069,167.673125 Z M384.354771,167.646006 C384.991618,167.636786 385.625892,167.72871 386.23392,167.918346 C386.734731,168.090838 387.197217,168.35908 387.595622,168.708134 C387.994842,169.059069 388.315081,169.490696 388.535197,169.974517 C388.773695,170.499525 388.921049,171.061314 388.970941,171.635793 L386.778601,171.635793 C386.730944,171.313234 386.644059,170.997706 386.519877,170.696219 C386.409571,170.430904 386.247558,170.190199 386.043282,169.988134 C385.837665,169.788398 385.591548,169.635155 385.321579,169.538772 C384.997161,169.429784 384.656013,169.379073 384.31392,169.388985 C383.88654,169.375862 383.464844,169.489578 383.102005,169.715793 C382.755577,169.946881 382.466756,170.254335 382.25775,170.614517 C382.018638,171.037485 381.85289,171.497897 381.767537,171.976219 C381.660953,172.486846 381.606207,173.006931 381.604133,173.528559 L381.604133,175.135368 C381.609996,175.653003 381.669318,176.168647 381.781154,176.674091 C381.870662,177.155327 382.04593,177.616559 382.298601,178.035793 C382.5231,178.402057 382.83106,178.710018 383.197324,178.934517 C383.610644,179.172639 384.082274,179.290547 384.559026,179.274942 L385.212643,179.274942 C385.4289,179.251198 385.642914,179.210217 385.852643,179.152389 C386.046296,179.094879 386.233411,179.017295 386.410941,178.9209 C386.56816,178.835373 386.706977,178.719693 386.819452,178.580474 L386.819452,176.006857 L384.368388,176.006857 L384.368388,174.359197 L389.011792,174.359197 L389.079877,179.111538 C388.84097,179.382448 388.571356,179.624643 388.276473,179.83324 C387.949404,180.062404 387.597711,180.254237 387.227962,180.405155 C386.823542,180.568785 386.403904,180.69194 385.975197,180.772814 C385.499634,180.865033 385.01621,180.910639 384.531792,180.908985 C383.785373,180.925092 383.045046,180.771439 382.366686,180.459623 C381.750481,180.169539 381.206334,179.746314 380.773494,179.220474 C380.32649,178.672603 379.989014,178.043881 379.779452,177.368559 C379.545914,176.628418 379.426529,175.85701 379.425409,175.0809 L379.425409,173.487708 C379.42062,172.71219 379.535444,171.94057 379.765835,171.200048 C379.970209,170.528022 380.29808,169.899988 380.732643,169.348134 C381.1476,168.826373 381.673131,168.403158 382.271367,168.108985 C382.919798,167.793067 383.633568,167.634451 384.354771,167.646006 Z M300.215197,167.782176 L300.215197,176.415368 C300.219034,176.784297 300.274026,177.150911 300.378601,177.504729 C300.464188,177.814658 300.607394,178.105691 300.800728,178.362602 C300.985597,178.600228 301.2234,178.791403 301.495197,178.9209 C301.797874,179.061217 302.128436,179.131054 302.462005,179.125155 C302.80434,179.13098 303.143747,179.061239 303.456048,178.9209 C303.736905,178.793701 303.984072,178.602496 304.17775,178.362602 C304.377647,178.107857 304.525685,177.816408 304.613494,177.504729 C304.716895,177.150651 304.771863,176.7842 304.776899,176.415368 L304.776899,167.782176 L306.98286,167.836644 L306.98286,176.469836 C306.983586,177.089496 306.868115,177.703798 306.642431,178.2809 C306.433436,178.791776 306.123076,179.254999 305.73009,179.642602 C305.342693,180.032472 304.879168,180.338398 304.368388,180.541325 C303.770992,180.759164 303.138639,180.865325 302.502856,180.854517 C301.880431,180.864676 301.261587,180.758457 300.678175,180.541325 C299.611762,180.142431 298.768461,179.30409 298.363282,178.240048 C298.136545,177.658506 298.021067,177.039546 298.022836,176.415368 L298.022836,167.782176 L300.215197,167.782176 Z M484.276473,167.863878 L484.276473,169.620474 L477.808388,169.620474 L477.808388,173.256219 L483.404984,173.256219 L483.404984,174.944729 L477.822005,174.944729 L477.822005,179.029836 L484.344558,179.029836 L484.344558,180.759197 L475.575197,180.759197 L475.575197,167.863878 L484.276473,167.863878 Z M252.446686,167.863878 L252.446686,169.620474 L245.978601,169.620474 L245.978601,173.256219 L251.561579,173.256219 L251.561579,174.944729 L245.978601,174.944729 L245.978601,179.029836 L252.501154,179.029836 L252.501154,180.759197 L243.745409,180.759197 L243.745409,167.863878 L252.446686,167.863878 Z M347.902005,167.863878 L347.902005,169.620474 L341.43392,169.620474 L341.43392,173.256219 L347.016899,173.256219 L347.016899,174.944729 L341.43392,174.944729 L341.43392,179.029836 L347.956473,179.029836 L347.956473,180.759197 L339.200728,180.759197 L339.200728,167.863878 L347.902005,167.863878 Z M275.214345,167.823027 C275.82883,167.826801 276.440928,167.899888 277.039026,168.0409 C277.567021,168.159985 278.069609,168.372086 278.523282,168.667283 C278.943723,168.941915 279.289853,169.316109 279.530941,169.756644 C279.78361,170.238782 279.90567,170.778662 279.884984,171.322602 C279.894885,171.915683 279.697425,172.493615 279.326686,172.956644 C278.931586,173.429332 278.419981,173.790741 277.842431,174.005155 C278.198506,174.098361 278.538294,174.245297 278.85009,174.4409 C279.132747,174.618048 279.381716,174.843964 279.585409,175.108134 C279.785746,175.366761 279.942161,175.65659 280.048388,175.966006 C280.156656,176.290928 280.211832,176.63118 280.211792,176.973665 C280.224276,177.534272 280.102906,178.089775 279.85775,178.594091 C279.626732,179.055559 279.290981,179.456595 278.877324,179.765155 C278.429865,180.089676 277.926843,180.32965 277.393069,180.47324 C276.790285,180.642737 276.167312,180.72977 275.541154,180.731963 L270.884133,180.718346 L270.884133,167.823027 L275.214345,167.823027 Z M399.074771,167.836644 L403.391367,180.731963 L401.09009,180.731963 L400.191367,177.736219 L395.956473,177.736219 L395.030516,180.731963 L392.715622,180.731963 L397.11392,167.836644 L399.074771,167.836644 Z M415.619452,167.836644 L415.619452,169.59324 L412.691792,169.59324 L412.691792,178.975368 L415.619452,178.975368 L415.619452,180.731963 L407.558175,180.731963 L407.558175,178.975368 L410.431367,178.975368 L410.431367,169.59324 L407.558175,169.59324 L407.558175,167.836644 L415.619452,167.836644 Z M371.745409,167.836644 L376.062005,180.731963 L373.760728,180.731963 L372.916473,177.736219 L368.681579,177.736219 L367.755622,180.731963 L365.440728,180.731963 L369.839026,167.836644 L371.745409,167.836644 Z M505.192218,167.823027 L505.192218,178.988985 L511.660303,178.988985 L511.660303,180.718346 L502.959026,180.718346 L502.959026,167.823027 L505.192218,167.823027 Z M491.575197,167.823027 L491.575197,178.988985 L498.043282,178.988985 L498.043282,180.718346 L489.342005,180.718346 L489.342005,167.823027 L491.575197,167.823027 Z M316.119877,167.795793 C316.768455,167.797453 317.413994,167.884441 318.039877,168.054517 C318.589368,168.196318 319.106913,168.441228 319.564984,168.776219 C319.989358,169.093968 320.330433,169.5098 320.559026,169.988134 C320.805617,170.520981 320.926735,171.10328 320.913069,171.690261 C320.918974,172.09216 320.859179,172.492324 320.736048,172.874942 C320.620698,173.222001 320.450609,173.548389 320.232218,173.841751 C320.01321,174.13343 319.751557,174.390492 319.456048,174.604304 C319.14287,174.828727 318.804726,175.016078 318.448388,175.162602 L321.321579,180.60941 L321.321579,180.718346 L318.938601,180.718346 L316.351367,175.666431 L314.077324,175.666431 L314.077324,180.691112 L311.830516,180.691112 L311.830516,167.795793 L316.119877,167.795793 Z M423.027111,167.823027 L427.425409,176.674091 L427.425409,167.823027 L429.685835,167.823027 L429.672218,180.718346 L427.425409,180.718346 L423.013494,171.853665 L423.013494,180.718346 L420.766686,180.718346 L420.766686,167.823027 L423.027111,167.823027 Z M327.544558,167.823027 L331.942856,176.674091 L331.942856,167.823027 L334.203282,167.823027 L334.203282,180.718346 L331.956473,180.718346 L327.544558,171.853665 L327.544558,180.718346 L325.284133,180.718346 L325.284133,167.823027 L327.544558,167.823027 Z M463.782856,167.823027 L463.782856,173.269836 L468.42626,173.269836 L468.42626,167.823027 L470.604984,167.823027 L470.591367,180.718346 L468.42626,180.718346 L468.42626,174.958346 L463.796473,174.958346 L463.796473,180.718346 L461.61775,180.718346 L461.61775,167.823027 L463.782856,167.823027 Z M226.002431,167.823027 L225.947962,169.579623 L221.781154,169.579623 L221.781154,180.718346 L219.561579,180.718346 L219.561579,169.579623 L215.476473,169.579623 L215.476473,167.823027 L226.002431,167.823027 Z M231.966686,167.823027 L231.966686,173.269836 L236.582856,173.269836 L236.582856,167.823027 L238.761579,167.823027 L238.761579,180.718346 L236.582856,180.718346 L236.582856,174.958346 L231.966686,174.958346 L231.966686,180.718346 L229.801579,180.718346 L229.801579,167.823027 L231.966686,167.823027 Z M288.81775,169.45707 C288.37351,169.44198 287.935613,169.565733 287.564984,169.811112 C287.231696,170.046751 286.960659,170.359846 286.775197,170.723453 C286.571343,171.125483 286.433415,171.557659 286.366686,172.003453 C286.289541,172.480814 286.248573,172.963322 286.244133,173.446857 L286.244133,175.108134 C286.25195,175.592076 286.297478,176.074672 286.380303,176.551538 C286.449904,176.996658 286.587692,177.428392 286.788814,177.831538 C286.973362,178.19949 287.244365,178.517217 287.578601,178.757495 C287.948845,179.003712 288.387016,179.127543 288.831367,179.111538 C289.279883,179.126765 289.722159,179.003118 290.09775,178.757495 C290.437397,178.515473 290.716922,178.198677 290.914771,177.831538 C291.128293,177.431247 291.275454,176.998964 291.350516,176.551538 C291.434703,176.074855 291.480241,175.59215 291.486686,175.108134 L291.473069,173.446857 C291.468359,172.962749 291.422808,172.479901 291.336899,172.003453 C291.261372,171.556144 291.114236,171.123934 290.901154,170.723453 C290.704462,170.359241 290.424521,170.046641 290.084133,169.811112 C289.708174,169.566302 289.266159,169.442728 288.81775,169.45707 Z M275.677324,174.863027 L273.130941,174.876644 L273.130941,178.961751 L275.568388,178.961751 C275.89638,178.961033 276.222363,178.910528 276.535197,178.811963 C276.807502,178.722228 277.06126,178.583815 277.284133,178.403453 C277.49623,178.234385 277.668286,178.020477 277.787962,177.77707 C277.910048,177.517483 277.970625,177.233239 277.964984,176.946431 C277.968584,176.647996 277.913047,176.351802 277.801579,176.074942 C277.703584,175.825659 277.549879,175.602088 277.352218,175.421325 C277.141456,175.238168 276.896027,175.099246 276.630516,175.012814 C276.322379,174.914161 276.000867,174.863637 275.677324,174.863027 Z M361.096899,174.223027 L361.096899,175.925155 L353.634771,175.925155 L353.634771,174.223027 L361.096899,174.223027 Z M370.819452,170.87324 L369.253494,175.925155 L372.358175,175.925155 L370.819452,170.87324 Z M398.094345,170.87324 L396.528388,175.925155 L399.633069,175.925155 L398.094345,170.87324 Z M316.133494,169.525154 L314.090941,169.525154 L314.077324,173.950687 L316.133494,173.950687 C316.479614,173.953822 316.824129,173.903293 317.154771,173.8009 C317.447397,173.70701 317.719882,173.559221 317.958175,173.365155 C318.184595,173.18147 318.366209,172.948632 318.489239,172.684304 C318.619369,172.393188 318.684428,172.07719 318.679877,171.758346 C318.685664,171.431937 318.625453,171.107722 318.502856,170.805155 C318.390714,170.53791 318.218276,170.300226 317.999026,170.110687 C317.764129,169.911605 317.4906,169.76325 317.195622,169.674942 C316.850369,169.575391 316.492814,169.524966 316.133494,169.525154 Z M275.255197,169.59324 L273.130941,169.59324 L273.130941,173.256219 L275.268814,173.256219 C275.58597,173.255913 275.901764,173.214723 276.208388,173.133665 C276.477929,173.063392 276.731944,172.943313 276.957324,172.779623 C277.165711,172.628827 277.337834,172.433444 277.461154,172.207708 C277.588509,171.96896 277.654048,171.70212 277.651792,171.431538 C277.65894,171.144589 277.59829,170.860001 277.474771,170.6009 C277.357448,170.371025 277.184189,170.174354 276.970941,170.028985 C276.739247,169.873657 276.480655,169.762832 276.208388,169.702176 C275.895337,169.632659 275.575861,169.596148 275.255197,169.59324 Z" fill="#2F3A3E"></path>
		</g>
</svg>
