<?xml version="1.0" encoding="UTF-8"?>
<svg width="256px" height="222px" viewBox="0 0 256 222" version="1.1" xmlns="http://www.w3.org/2000/svg" xmlns:xlink="http://www.w3.org/1999/xlink" preserveAspectRatio="xMidYMid">
    <title>biome</title>
    <g>
        <path d="M127.998514,-2.13162821e-14 L70.9776307,98.7581403 C92.613338,92.0879355 115.889442,91.0992397 138.451587,96.4208718 L157.722538,100.969556 L139.59199,177.848307 L120.293552,173.299771 C105.469058,169.802635 90.0160427,173.267825 78.0644727,182.71571 C72.0863103,187.444109 67.3766324,193.380519 64.1485867,200.040174 L46.3107551,191.410259 C50.8236299,182.09016 57.4213245,173.775992 65.7548088,167.178743 C82.4254919,153.983502 104.160752,149.137347 124.85442,154.019906 L133.892205,115.703857 C101.517395,108.071702 67.3966916,115.671763 41.3152708,136.315802 C15.2338499,156.958208 -1.42108547e-14,188.426639 -1.42108547e-14,221.686282 L256,221.693712 L127.998514,-2.13162821e-14 Z" fill="#60A5FA"></path>
    </g>
</svg>
