<?xml version="1.0" encoding="UTF-8" standalone="no"?>
<svg width="256px" height="256px" viewBox="0 0 256 256" version="1.1" xmlns="http://www.w3.org/2000/svg" xmlns:xlink="http://www.w3.org/1999/xlink" preserveAspectRatio="xMidYMid">
    <defs>
        <linearGradient x1="10.2318718%" y1="-19.7530118%" x2="25.6424654%" y2="31.7500597%" id="linearGradient-1">
            <stop stop-color="#FFFFFF" offset="0%"></stop>
            <stop stop-color="#FFFFFF" stop-opacity="0" offset="100%"></stop>
        </linearGradient>
    </defs>
	<g>
		<rect fill="#F57D00" transform="translate(127.999946, 127.999984) scale(-1, 1) translate(-127.999946, -127.999984) " x="0.538066441" y="0.548024407" width="254.923759" height="254.903919" rx="35.487503"></rect>
		<path d="M188.110807,11.4453478 L67.8890414,11.4453478 C36.0659851,11.4453478 10.4467092,37.2728624 10.4467092,69.3545763 L10.4467092,186.645272 C11.4767837,211.687767 15.4390237,195.856434 22.9809681,168.123553 C31.7463214,135.892339 60.2924041,107.721795 95.0564773,86.6095729 C121.590801,70.4954034 151.29088,60.2055051 205.352938,59.2266088 C236.013082,58.6714793 233.306294,19.4349776 188.110807,11.4453478 L188.110807,11.4453478 Z" fill="url(#linearGradient-1)"></path>
		<path d="M98.3283851,70.0696732 L135.320841,69.5006481 C152.260491,69.9689003 161.674956,81.9763742 161.500127,95.6757695 C163.142183,111.863637 158.583897,130.193877 133.044382,129.81722 L96.6210386,129.81722 C80.5615729,129.972513 67.7383919,120.535116 68.7344163,101.935035 C67.9387769,86.5252122 73.0271458,69.8474739 98.3283851,70.0696732 L98.3283851,70.0696732 Z" stroke="#FFFFFF" stroke-width="30" fill="#FFFFFF"></path>
		<path d="M158.085435,195.255007 L101.173955,195.255007 C77.4594278,195.559268 66.0363824,184.747878 67.5961817,159.975506 C67.7082359,137.707195 80.6249654,131.348936 100.035732,130.955271 L156.378077,130.955271 C194.688271,129.932594 190.504071,129.561784 191.094085,160.544521 C190.85325,183.069223 178.46541,195.08262 158.085435,195.255007 L158.085435,195.255007 Z" stroke="#FFFFFF" stroke-width="30" fill="#FFFFFF"></path>
		<path d="M67.5961925,164.527696 L68.7344163,96.2447837" stroke="#FFFFFF" stroke-width="30"></path>
		<path d="M101.033806,99.3208949 L132.806899,99.8253559" stroke="#F57D00" stroke-width="25"></path>
		<path d="M97.4243471,161.456575 L160.970533,161.456575" stroke="#F57D00" stroke-width="25"></path>
	</g>
</svg>