<?xml version="1.0" encoding="UTF-8" standalone="no" ?>
<svg width="256px" height="256px" viewBox="0 0 256 256" version="1.1" xmlns="http://www.w3.org/2000/svg" xmlns:xlink="http://www.w3.org/1999/xlink" preserveAspectRatio="xMidYMid">
    <defs>
        <linearGradient x1="50%" y1="0%" x2="50%" y2="100%" id="linearGradient-1">
            <stop stop-color="#29ABE2" offset="0%"></stop>
            <stop stop-color="#28A9E1" offset="47.57%"></stop>
            <stop stop-color="#23A2DC" offset="66.39%"></stop>
            <stop stop-color="#1A96D4" offset="80.12%"></stop>
            <stop stop-color="#0E85C9" offset="91.3%"></stop>
            <stop stop-color="#0071BC" offset="100%"></stop>
        </linearGradient>
        <filter x="-50%" y="-50%" width="200%" height="200%" filterUnits="objectBoundingBox" id="filter-2">
            <feOffset dx="0" dy="2" in="SourceAlpha" result="shadowOffsetOuter1"></feOffset>
            <feGaussianBlur stdDeviation="2" in="shadowOffsetOuter1" result="shadowBlurOuter1"></feGaussianBlur>
            <feColorMatrix values="0 0 0 0 0   0 0 0 0 0   0 0 0 0 0  0 0 0 0.273992301 0" in="shadowBlurOuter1" type="matrix" result="shadowMatrixOuter1"></feColorMatrix>
            <feMerge>
                <feMergeNode in="shadowMatrixOuter1"></feMergeNode>
                <feMergeNode in="SourceGraphic"></feMergeNode>
            </feMerge>
        </filter>
        <filter x="-50%" y="-50%" width="200%" height="200%" filterUnits="objectBoundingBox" id="filter-3">
            <feOffset dx="0" dy="2" in="SourceAlpha" result="shadowOffsetOuter1"></feOffset>
            <feGaussianBlur stdDeviation="2" in="shadowOffsetOuter1" result="shadowBlurOuter1"></feGaussianBlur>
            <feColorMatrix values="0 0 0 0 0   0 0 0 0 0   0 0 0 0 0  0 0 0 0.273992301 0" in="shadowBlurOuter1" type="matrix" result="shadowMatrixOuter1"></feColorMatrix>
            <feMerge>
                <feMergeNode in="shadowMatrixOuter1"></feMergeNode>
                <feMergeNode in="SourceGraphic"></feMergeNode>
            </feMerge>
        </filter>
    </defs>
    <g>
        <path d="M256,204.8 C256,232.96 232.96,256 204.8,256 L51.2,256 C23.04,256 0,232.96 0,204.8 L0,51.2 C0,23.04 23.04,0 51.2,0 L204.8,0 C232.96,0 256,23.04 256,51.2 L256,204.8 L256,204.8 Z" fill="#115A91"></path>
        <path d="M204.8,28.16 C217.50528,28.16 227.84,38.49472 227.84,51.2 L227.84,179.2 C227.84,191.90528 217.50528,202.24 204.8,202.24 L51.2,202.24 C38.49472,202.24 28.16,191.90528 28.16,179.2 L28.16,51.2 C28.16,38.49472 38.49472,28.16 51.2,28.16 L204.8,28.16" fill="#FFFFFF"></path>
        <path d="M204.8,28.16 C217.50528,28.16 227.84,38.49472 227.84,51.2 L227.84,179.2 C227.84,191.90528 217.50528,202.24 204.8,202.24 L51.2,202.24 C38.49472,202.24 28.16,191.90528 28.16,179.2 L28.16,51.2 C28.16,38.49472 38.49472,28.16 51.2,28.16 L204.8,28.16 L204.8,28.16 Z M204.8,0 L51.2,0 C23.04,0 0,23.04 0,51.2 L0,179.2 C0,207.36 23.04,230.4 51.2,230.4 L204.8,230.4 C232.96,230.4 256,207.36 256,179.2 L256,51.2 C256,23.04 232.96,0 204.8,0 L204.8,0 L204.8,0 Z" fill="url(#linearGradient-1)"></path>
        <g transform="translate(56.320000, 53.760000)" fill="#4D4D4D">
            <path d="M143.36,0 L143.36,122.88 L79.36,122.88 L79.36,92.16 L115.2,92.16 L115.2,28.16 L79.36,28.16 L79.36,0 L143.36,0 L143.36,0 Z" filter="url(#filter-2)"></path>
            <path d="M64,0 L64,28.16 L28.16,28.16 L28.16,92.16 L64,92.16 L64,122.88 L0,122.88 L0,0 L64,0 L64,0 Z" filter="url(#filter-3)"></path>
        </g>
    </g>
</svg>
