<?xml version="1.0" encoding="UTF-8"?>
<svg width="256px" height="256px" viewBox="0 0 256 256" version="1.1" xmlns="http://www.w3.org/2000/svg" xmlns:xlink="http://www.w3.org/1999/xlink" preserveAspectRatio="xMidYMid">
    <title>brainjs</title>
    <g>
        <rect fill="#F3DF49" x="0" y="0" width="256" height="256"></rect>
        <path d="M175.744,196.096 L208.768,214.528 L198.656,238.336 L189.952,238.336 L182.784,227.456 L129.664,213.248 L175.744,196.096 Z M134.144,141.312 L171.648,171.008 L171.648,190.336 L121.344,209.792 L95.104,211.072 L74.88,183.936 L93.952,157.824 L134.144,141.312 Z M189.952,132.48 L236.8,161.28 L231.04,196.608 L212.992,209.92 L178.432,190.336 L178.432,171.008 L171.904,133.632 L189.952,132.48 Z M164.992,134.784 L170.88,162.56 L142.208,138.624 L164.992,134.784 Z" fill="#2E2E2C"></path>
    </g>
</svg>