<?xml version="1.0" encoding="UTF-8"?>
<svg width="512px" height="186px" viewBox="0 0 512 186" version="1.1" xmlns="http://www.w3.org/2000/svg" preserveAspectRatio="xMidYMid">
    <title>Branch</title>
    <g>
        <path d="M43.4756801,88.850085 C30.5314647,88.850085 20.7764038,92.8834275 14.1635981,102.216394 L14.1635981,41.2472637 C14.1635981,40.5479155 13.5966643,39.9809817 12.8973161,39.9809817 L1.26628195,39.9809817 C0.566933738,39.9809817 0,40.5479155 0,41.2472637 L0,182.554949 C0,183.254297 0.566933738,183.821231 1.26628195,183.821231 L12.8973161,183.821231 C13.5966643,183.821231 14.1635981,183.254297 14.1635981,182.554949 L14.1635981,171.861901 C17.3917688,176.377629 21.7617847,179.954568 26.8264175,182.226654 C32.0743671,184.518747 37.7494013,185.66974 43.4756801,185.603405 C54.4695468,186.133795 65.0587639,181.396514 71.9904736,172.846787 C78.8377759,164.342375 82.2614271,152.429945 82.2614271,137.109497 C82.2614271,121.789049 78.8690422,109.939151 72.0842722,101.559804 C65.2161943,93.1501001 54.8154212,88.4469907 43.9837199,88.8284736 L43.4756801,88.850085 Z M62.2354127,162.294438 C57.8079359,168.319787 50.6074291,171.663512 43.1473848,171.158411 C35.4067114,171.864392 27.7737389,168.956593 22.4647797,163.279324 C18.1500412,158.026599 15.992672,149.272057 15.992672,137.015698 C15.992672,124.75934 18.0875088,116.06733 22.2771824,110.93967 C26.466856,105.780744 33.3141583,103.20128 42.8190895,103.20128 C50.2842201,102.618062 57.5596553,105.73861 62.282312,111.549361 C66.999437,119.11559 69.1994329,127.981245 68.5668224,136.875 C69.1358656,145.86452 66.9077515,154.809743 62.1885133,162.482035 L62.2354127,162.294438 Z M297.670056,88.6624876 C288.15845,88.6624876 280.778363,91.1492594 275.629584,94.2766843 L275.022447,94.6549322 C273.432011,95.6711637 272.070469,96.7454363 270.941092,97.8172565 L270.528465,98.2189559 C269.925867,98.8209782 269.396857,99.419832 268.942017,100.004751 L268.649784,100.392514 C268.274809,100.906464 267.958539,101.407513 267.701383,101.888099 L267.701383,91.6171455 C267.701383,90.9177973 267.134449,90.3508636 266.435101,90.3508636 L254.804067,90.3508636 C254.104719,90.3508636 253.537785,90.9177973 253.537785,91.6171455 L253.537785,182.46115 C253.537785,183.160498 254.104719,183.727432 254.804067,183.727432 L266.435101,183.727432 C267.134449,183.727432 267.701383,183.160498 267.701383,182.46115 L267.701383,135.983913 C267.701383,123.821353 269.968184,115.098077 274.501786,109.814086 C279.894701,103.627041 287.777978,100.184561 295.98168,100.43422 C301.959044,99.9172092 307.874751,101.962987 312.255748,106.06214 C316.074292,110.878224 317.93356,116.958532 317.461574,123.086597 L317.461574,182.226654 C317.461574,182.926002 318.028507,183.492936 318.727856,183.492936 L330.35889,183.492936 C331.058238,183.492936 331.625172,182.926002 331.625172,182.226654 L331.625172,122.570704 C331.625172,110.658274 328.779946,101.981898 323.089493,96.5415753 C316.097886,90.8263837 307.194709,87.9984956 298.199291,88.6218357 L297.670056,88.6624876 Z M360.186865,101.419106 C368.472128,92.5817014 380.269732,87.9039343 392.359806,88.6624876 C396.583658,88.6681752 400.795768,89.0931052 404.934247,89.930593 L405.819914,90.1163669 C409.036237,90.7682174 412.178722,91.7423875 415.19978,93.0241255 C415.619585,93.2113602 415.901548,93.6093175 415.944618,94.0599852 L415.950271,94.1966087 L412.43272,103.95167 C412.326975,104.267212 412.096857,104.525826 411.795743,104.667527 C411.494628,104.809228 411.148681,104.821703 410.838142,104.702059 C407.886456,103.602564 404.861993,102.709329 401.786571,102.028797 C398.572995,101.268877 395.286427,100.860022 391.984611,100.809414 C373.006015,100.809414 363.516717,112.909442 363.516717,137.109497 C362.914893,146.429895 365.350291,155.694282 370.457818,163.51382 C375.341472,169.860196 383.053104,173.373468 391.046625,172.893687 C398.66181,172.818468 406.197867,171.339875 413.276908,168.532049 C413.660942,168.396207 414.086877,168.45341 414.421463,168.685762 C414.718873,168.892296 414.911822,169.2148 414.955843,169.569974 L414.965284,169.704532 L414.965284,179.600291 C414.961972,180.078175 414.689901,180.513489 414.261794,180.725875 C407.088731,184.009234 399.261256,185.613225 391.37492,185.415808 C379.584732,186.110552 368.09342,181.54151 359.999267,172.940586 C352.589173,165.030232 348.884126,153.2585 348.884126,137.62539 C348.884126,121.992279 352.651705,109.923518 360.186865,101.419106 Z M440.853714,0 C446.749356,0 451.807389,4.20263055 452.887329,9.9985191 C453.948322,15.6927254 450.873393,21.3351801 445.549596,23.5449376 L445.262252,23.6600144 L445.871943,41.153465 L456.189796,34.775156 C454.61422,28.4213377 457.838413,21.8552814 463.829475,19.216982 C469.820537,16.5786826 476.841023,18.6332629 480.464413,24.08528 C484.087803,29.537297 483.263293,36.8056326 478.510747,41.3074944 C473.84158,45.7303762 466.711326,46.2228422 461.4861,42.527899 L461.208024,42.3259483 L446.247137,51.4713179 L446.997527,73.3733056 L457.737474,66.7604999 C456.884697,61.2844109 460.01414,55.9672557 465.215681,54.0544707 C470.417223,52.1416857 476.245876,54.1646421 479.144001,58.8885863 C482.042126,63.6125305 481.204625,69.7251521 477.142684,73.4954852 C473.158857,77.193312 467.158838,77.6305718 462.688572,74.5880764 L462.427407,74.4050909 L447.232023,83.7849572 L447.841715,100.950112 L447.841715,101.934998 C447.970293,101.694705 448.113649,101.449296 448.271733,101.199717 L448.519898,100.822338 C449.081493,99.9984199 449.798378,99.135443 450.668796,98.2658553 L451.081424,97.8641558 C451.222596,97.7301783 451.367396,97.5961625 451.515816,97.4622264 L451.971936,97.0607761 L451.971936,97.0607761 L452.449745,96.6605136 C453.101265,96.1279373 453.81052,95.6004191 454.577101,95.0855209 L455.162779,94.7018315 C460.331698,91.3990793 467.918317,88.709387 477.810387,88.709387 C487.000998,88.013252 496.101482,90.9233882 503.182926,96.8229713 C508.741055,102.135437 511.675304,110.599575 511.985673,122.215385 L512,122.8521 L512,182.50805 C512,183.163689 511.501718,183.702948 510.863188,183.767794 L510.733718,183.774332 L499.008885,183.774332 C498.353246,183.774332 497.813987,183.27605 497.749141,182.63752 L497.742603,182.50805 L497.742603,123.321093 C498.214589,117.193029 496.355321,111.11272 492.536778,106.296636 C488.271122,102.307437 482.551069,100.263847 476.735304,100.637086 L476.309609,100.668716 L474.15224,100.668716 C466.748879,100.92033 459.77635,104.2115 454.876614,109.767187 C450.42397,114.956821 448.157891,123.464005 448.07838,135.288738 L448.076211,135.937014 L448.076211,182.414251 C448.076211,183.06989 447.57793,183.609149 446.939399,183.673995 L446.809929,183.680533 L435.085097,183.680533 C434.429458,183.680533 433.890199,183.182251 433.825352,182.543721 L433.818815,182.414251 L433.818815,110.93967 L435.038197,70.3717484 L419.42072,60.4759895 C414.139531,64.9004754 406.431249,64.8498227 401.208662,60.3563143 C395.986074,55.8628058 394.785634,48.2484041 398.372428,42.3660621 C401.959222,36.4837202 409.278037,34.0639866 415.66431,36.6490513 C421.949213,39.1930833 425.511312,45.8477336 424.178951,52.4643857 L424.110653,52.7844992 L435.319593,59.9131975 L436.445177,23.6600144 C430.945173,21.5366798 427.74016,15.7944077 428.8201,9.9985191 C429.90004,4.20263055 434.958072,0 440.853714,0 Z M227.461757,93.7276154 C222.083967,88.7875525 213.829685,86.3175211 202.69891,86.3175211 C197.144509,86.3218952 191.613111,87.0310488 186.237245,88.427991 C181.361431,89.6762002 176.641742,91.4696823 172.167445,93.7745148 C171.600441,94.0845621 171.357877,94.771828 171.604653,95.369092 L175.028304,103.90477 C175.161973,104.218435 175.416485,104.464941 175.73426,104.58852 C176.052035,104.712099 176.406218,104.702308 176.71668,104.561361 C184.53321,100.564453 193.128609,98.3235673 201.901621,97.9954546 C207.45549,97.5024295 212.954107,99.414992 217.003206,103.24818 C219.559812,106.623835 221.031663,110.695955 221.224146,114.926113 L208.139232,114.926113 C201.754526,114.763166 195.394627,115.78075 189.3795,117.92767 C183.336781,120.198197 177.885622,123.805581 173.433727,128.48002 C166.452872,135.970047 163.035239,146.103327 164.053861,156.291323 C164.906231,165.480749 169.894366,173.782801 177.607768,178.849902 C183.32378,182.919688 190.136505,185.155972 197.143255,185.270502 L197.727581,185.275146 C201.531007,185.279077 205.306762,184.628632 208.889622,183.352238 C213.698577,181.647259 218.093482,178.946391 221.786938,175.426251 L221.786938,182.320452 C221.786938,183.0198 222.353872,183.586734 223.05322,183.586734 L234.027663,183.586734 C234.727011,183.586734 235.293945,183.0198 235.293945,182.320452 L235.293945,118.115268 C235.481543,107.234623 232.808281,98.6989445 227.461757,93.7276154 Z M222.021434,127.542033 L221.974535,142.878115 C221.974535,155.025041 215.877622,168.344452 203.730695,172.65919 C197.145747,174.899396 189.885152,173.834742 184.220573,169.798331 C179.327062,165.957865 176.292978,160.221336 175.872662,154.014971 C175.452346,147.808606 177.685279,141.715377 182.016305,137.250195 C185.208658,133.931077 189.102388,131.367304 193.412842,129.746302 C198.083602,128.128926 203.011369,127.381813 207.951635,127.542033 L222.021434,127.542033 Z M152.375927,90.3508636 C149.035412,89.8854785 145.665231,89.6660248 142.292571,89.6942729 C136.979815,89.8893741 132.185728,91.117011 128.122388,92.7317288 L127.369127,93.0388669 C126.748632,93.2983327 126.146301,93.5662639 125.562943,93.8401982 L124.872072,94.1716433 L124.872072,94.1716433 L124.199727,94.5079059 C124.08923,94.5642986 123.979518,94.6208526 123.870598,94.6775482 L123.226622,95.0192643 L123.226622,95.0192643 L122.601948,95.3634341 L122.601948,95.3634341 L121.996886,95.7091122 L121.996886,95.7091122 L121.411746,96.0553531 L121.411746,96.0553531 L120.84684,96.4012112 L120.84684,96.4012112 L120.302479,96.7457412 L120.302479,96.7457412 L119.778972,97.0879975 L119.778972,97.0879975 L119.276631,97.4270347 L119.276631,97.4270347 L118.795765,97.7619072 L118.795765,97.7619072 L118.336687,98.0916695 L118.336687,98.0916695 L117.899706,98.4153762 C117.828735,98.4687701 117.758697,98.5218724 117.689599,98.5746632 L117.286347,98.8875136 L117.286347,98.8875136 L116.905969,99.1919447 L116.905969,99.1919447 L116.37897,99.6307367 L116.37897,99.6307367 L116.057136,99.9099828 L116.057136,99.9099828 L115.759264,100.1775 L115.759264,100.1775 L115.485664,100.432344 L115.485664,100.432344 L115.236646,100.673568 L115.236646,100.673568 L114.909892,101.007799 L114.909892,101.007799 L114.723691,101.210837 L114.723691,101.210837 L114.56316,101.396947 L114.56316,101.396947 L114.428609,101.565182 L114.428609,101.565182 L114.32035,101.714598 C114.209505,101.87757 114.152972,102.000188 114.152972,102.075696 L114.152972,92.6958301 L114.152972,92.6958301 C114.152972,91.9964819 113.586039,91.4295482 112.88669,91.4295482 L101.255656,91.4295482 C100.556308,91.4295482 99.9893744,91.9964819 99.9893744,92.6958301 L99.9893744,183.539835 C99.9893744,184.239183 100.556308,184.806117 101.255656,184.806117 L112.88669,184.806117 C113.586039,184.806117 114.152972,184.239183 114.152972,183.539835 L114.152972,134.342436 C113.878526,125.957943 116.756743,117.775107 122.219657,111.408663 C126.922149,105.509661 134.045165,102.060258 141.589081,102.028797 C144.584407,102.065326 147.56895,102.395197 150.499954,103.013683 C150.836463,103.081988 151.186283,103.010707 151.469235,102.816178 C151.752187,102.621648 151.944008,102.320551 152.000733,101.981898 L153.59531,91.4295482 C153.510959,90.8651368 153.06159,90.4326336 152.505927,90.3609073 L152.375927,90.3508636 Z" fill="#333E48"></path>
        <path d="M440.666117,19.7204706 C444.758599,19.7204706 448.076211,16.4028584 448.076211,12.3103763 C448.076211,8.21789415 444.758599,4.90028191 440.666117,4.90028191 C436.573635,4.90028191 433.256023,8.21789415 433.256023,12.3103763 C433.256023,16.4028584 436.573635,19.7204706 440.666117,19.7204706 Z M468.665018,71.9194264 C472.394875,71.9194264 475.418522,68.8957798 475.418522,65.1659227 C475.418522,61.4360655 472.394875,58.4124189 468.665018,58.4124189 C464.935161,58.4124189 461.911514,61.4360655 461.911514,65.1659227 C461.911514,68.8957798 464.935161,71.9194264 468.665018,71.9194264 Z M472.824876,39.1144182 C476.760263,37.1975518 478.396597,32.4533633 476.479731,28.5179765 C474.562864,24.5825896 469.818676,22.9462554 465.883289,24.8631218 C461.947902,26.7799881 460.311568,31.5241766 462.228434,35.4595635 C464.1453,39.3949503 468.889489,41.0312845 472.824876,39.1144182 Z M410.134652,58.1779223 C414.874679,58.1779223 418.71723,54.3353714 418.71723,49.5953447 C418.71723,44.8553179 414.874679,41.012767 410.134652,41.012767 C405.394626,41.012767 401.552075,44.8553179 401.552075,49.5953447 C401.552075,54.3353714 405.394626,58.1779223 410.134652,58.1779223 Z" fill="#4DA3DC"></path>
    </g>
</svg>
