<?xml version="1.0" encoding="UTF-8" standalone="no"?>
<svg width="256px" height="176px" viewBox="0 0 256 176" version="1.1" xmlns="http://www.w3.org/2000/svg" xmlns:xlink="http://www.w3.org/1999/xlink" preserveAspectRatio="xMidYMid">
    <g>
        <path d="M57.838,170.0168 C57.989,171.6798 57.787,173.8058 57.698,175.4528 L114.562,175.4528 C114.615,173.7988 114.653,172.1418 114.653,170.4788 C114.653,130.5368 98.885,94.2128 70.642,65.9688 C56.704,52.0318 40.885,41.3108 23.246,33.8978 L0,86.3278 C33.989,102.1478 54.211,130.1108 57.838,170.0168 Z M127.0352,168.3734 C127.1432,170.7444 126.9732,173.1054 126.8682,175.4534 L185.0452,175.4534 C185.1222,173.0984 185.1742,170.7394 185.1742,168.3734 C185.1742,139.5474 179.5152,111.5524 168.3552,85.1664 C157.5882,59.7104 142.1862,36.8604 122.5772,17.2514 C117.5582,12.2334 112.3242,7.4944 106.8912,3.0334 L69.2112,47.3484 C106.5042,80.6614 124.5152,113.2064 127.0352,168.3734 Z M235.2631,64.389 C226.5951,41.785 213.9351,19.521 198.7271,0 L151.7771,34.442 C179.2721,69.541 196.2191,114.152 197.8351,162.054 C197.9871,166.556 197.6711,171.023 197.3781,175.453 L255.6301,175.453 C255.8561,171.005 256.0771,166.537 255.9741,162.054 C255.1691,127.109 247.7441,96.934 235.2631,64.389 Z" fill="#3676A1"></path>
    </g>
</svg>
