<?xml version="1.0" encoding="UTF-8"?>
<svg width="256px" height="293px" viewBox="0 0 256 293" version="1.1" xmlns="http://www.w3.org/2000/svg" preserveAspectRatio="xMidYMid">
    <title>Builder</title>
    <g>
        <path d="M256,82.3201829 C256.01306,94.601365 253.278083,106.725264 247.991626,117.804979 C242.705169,128.884694 235.002671,138.640609 225.452096,146.351846 L5.80199569,21.6220457 C4.96315294,21.1414587 4.18547581,20.5647543 3.48207121,19.8963015 C2.3810901,18.8171653 1.50729557,17.5283183 0.908746314,16.1084022 C0.310197059,14.6841171 0,13.1549767 0,11.6127293 C0,8.53260361 1.22331235,5.57917809 3.39906073,3.4034297 C5.57480912,1.22331235 8.52823464,7.7484371e-13 11.6083604,7.7484371e-13 L173.719091,7.7484371e-13 C195.542109,7.7484371e-13 216.469488,8.67241073 231.9007,24.1123601 C247.331911,39.5479405 256,60.4884265 256,82.3201829 Z" fill="#18B4F4"></path>
        <path d="M255.99996,210.379141 C256.004322,221.192348 253.876632,231.9007 249.743584,241.888171 C245.610536,251.880012 239.550771,260.958737 231.909438,268.604439 C224.268105,276.250141 215.193748,282.314275 205.210646,286.451693 C195.227543,290.593479 184.52356,292.721168 173.719091,292.721168 L11.6083604,292.721168 C9.31028074,292.694954 7.07336674,291.99155 5.1772326,290.693965 C3.28546744,289.39638 1.81312365,287.565781 0.961173986,285.433722 C0.104855344,283.301663 -0.100486371,280.964263 0.375731649,278.714242 C0.847580696,276.46859 1.97477564,274.410804 3.61750936,272.803022 C4.27285526,272.147676 5.00684267,271.575341 5.80199569,271.099123 L92.2464888,222.013715 L225.43462,146.369322 C234.980826,154.080559 242.683324,163.832106 247.97415,174.907452 C253.264976,185.982797 256.004322,198.106696 255.99996,210.379141 Z" fill="#FD6B3C"></path>
        <path d="M225.452096,146.351846 L92.2464888,222.013715 L5.80636467,271.099123 C4.97625986,271.562234 4.20732067,272.125831 3.52139197,272.785546 C36.4809217,238.965329 54.9092484,193.58481 54.8699277,146.351846 C54.9310933,99.1101448 36.5071356,53.7208878 3.53886786,19.8963015 C4.24227245,20.5647543 5.01994959,21.1414587 5.86316131,21.6220457 L225.452096,146.351846 Z" fill="#A97FF2"></path>
    </g>
</svg>
