<?xml version="1.0" encoding="UTF-8" standalone="no" ?>
<svg width="256px" height="269px" viewBox="0 0 256 269" version="1.1" xmlns="http://www.w3.org/2000/svg" xmlns:xlink="http://www.w3.org/1999/xlink" preserveAspectRatio="xMidYMid">
    <g>
        <path d="M219.368083,74.566425 C215.870007,69.6250627 211.952055,64.9975784 207.665605,60.7433784 C203.383585,56.4909518 198.73218,52.6100362 193.768083,49.1476246 L185.232388,61.3507412 C181.010602,58.4070264 176.516872,55.8197494 171.802574,53.6314698 L165.505329,67.1459583 C169.432138,68.9645001 173.173814,71.1146533 176.689605,73.5627246 C180.234629,76.0258691 183.557315,78.7851584 186.6178,81.8122194 L176.097883,92.3439799 L165.569107,102.87574 C167.412484,104.681869 169.093757,106.64937 170.597869,108.751644 C172.101979,110.845937 173.436014,113.066136 174.562769,115.409582 L201.535779,102.819881 L215.030257,96.5228137 L228.516762,90.2257466 C225.914243,84.7249011 222.853757,79.4882807 219.368083,74.566425 Z M243.751862,57.482239 C239.251045,51.114239 234.217855,45.156763 228.708983,39.6798574 C223.200997,34.2020652 217.2253,29.20307 210.837702,24.7449379 C204.493509,20.315179 197.749814,16.4209635 190.673052,13.1252442 C183.684872,9.87740462 176.371598,7.21032804 168.797896,5.19317404 C161.394269,3.22212643 153.738186,1.86819493 145.884567,1.1943325 L144.589509,16.032606 C151.564402,16.6311022 158.367446,17.832528 164.943724,19.5810236 L161.093979,33.9741933 C166.979322,35.5409234 172.660041,37.6095037 178.086533,40.1302812 C183.595405,42.6856385 188.838533,45.7100396 193.768083,49.1476246 C198.73218,52.6100362 203.383585,56.4909518 207.665605,60.7433784 C211.952055,64.9975784 215.870007,69.6250627 219.368083,74.566425 C222.853757,79.4882807 225.914243,84.7249011 228.516762,90.2257466 L242.002381,83.9295661 L255.493315,77.6342724 C252.1538,70.5569435 248.223446,63.8138858 243.751862,57.482239 Z M178.086533,40.1302812 C172.660041,37.6095037 166.979322,35.5409234 161.093979,33.9741933 C155.340623,32.4402696 149.390616,31.3957828 143.290907,30.8699927 C140.311031,30.6128611 137.30281,30.4754286 134.258269,30.4754286 C131.215502,30.4754286 128.197536,30.6128611 125.22209,30.8699927 C119.125924,31.3957828 113.176803,32.4402696 107.423446,33.9741933 L111.27319,48.3638162 C106.232028,49.7009011 101.361827,51.4733367 96.7148512,53.6314698 L103.007668,67.1477316 C106.8831,65.3540161 110.929495,63.8741788 115.126478,62.7578725 C119.229564,61.6725993 123.473495,60.9348973 127.82018,60.5607263 C129.941702,60.3763008 132.084484,60.2645815 134.258269,60.2645815 C136.427626,60.2645815 138.571295,60.3763008 140.697245,60.5607263 C145.043931,60.9348973 149.283433,61.6725993 153.385633,62.7578725 C157.587045,63.8741788 161.634326,65.3495828 165.505329,67.1459583 L171.802574,53.6314698 C176.516872,55.8197494 181.010602,58.4070264 185.232388,61.3507412 L193.768083,49.1476246 C188.838533,45.7100396 183.595405,42.6856385 178.086533,40.1302812 Z M144.589509,16.032606 L145.884567,1.1943325 C142.051654,0.86449457 138.176221,0.686275689 134.258269,0.686275689 C130.341204,0.686275689 126.465772,0.86449457 122.632858,1.1943325 C114.779239,1.86819493 107.123156,3.22212643 99.7159862,5.19317404 C92.1369688,7.21032804 84.8325536,9.87740462 77.8443738,13.1296776 C70.7631834,16.4245102 64.0159446,20.3169523 57.6752941,24.7475978 C51.2921245,29.2075032 45.3075709,34.2020652 39.8040138,39.6798574 L50.327474,50.2116179 C55.2189343,45.3482819 60.534699,40.9087697 66.2101038,36.9480545 L74.7457993,49.152058 C79.6788927,45.7100396 84.9175917,42.6874118 90.4220346,40.1320545 C95.8494117,37.6095037 101.532789,35.5409234 107.423446,33.9741933 C113.176803,32.4402696 119.125924,31.3957828 125.22209,30.8699927 C128.197536,30.6128611 131.215502,30.4754286 134.258269,30.4754286 C137.30281,30.4754286 140.311031,30.6128611 143.290907,30.8699927 C149.390616,31.3957828 155.340623,32.4402696 161.093979,33.9741933 L164.943724,19.5810236 C158.367446,17.832528 151.564402,16.6311022 144.589509,16.032606 Z M111.27319,48.3638162 L107.423446,33.9741933 C101.532789,35.5409234 95.8494117,37.6095037 90.4220346,40.1320545 C84.9175917,42.6874118 79.6788927,45.7100396 74.7457993,49.152058 C69.7852457,52.6100362 65.1294117,56.4909518 60.847391,60.7433784 C56.5644845,65.0002383 52.6474186,69.6250627 49.1440276,74.5708582 L61.3363598,83.1120646 C58.3485121,87.3272515 55.7158755,91.8110966 53.4871695,96.5228137 L66.9816471,102.819881 C68.8427405,98.8999521 71.0501869,95.1759756 73.5402076,91.6674575 C76.0444014,88.147413 78.8347128,84.842827 81.8951972,81.8122194 C84.9521384,78.7851584 88.2783667,76.0276425 91.8198478,73.5627246 C95.3436124,71.1146533 99.0808581,68.9645001 103.007668,67.1477316 L96.7148512,53.6314698 C101.361827,51.4733367 106.232028,49.7009011 111.27319,48.3638162 Z M66.2101038,36.9480545 C60.534699,40.9087697 55.2189343,45.3482819 50.327474,50.2116179 L39.8040138,39.6798574 C34.2995709,45.1611963 29.2575224,51.1168989 24.765564,57.4848989 C20.290436,63.8138858 16.3591972,70.5569435 13.0196817,77.6369324 C9.72357093,84.6264818 7.01386852,91.9494158 4.95258131,99.5418948 C2.9373564,106.971228 1.53954326,114.656806 0.823806228,122.536564 L15.6478893,123.836409 C16.2865605,116.831786 17.5293564,110.000949 19.3302145,103.397097 L33.7034186,107.254073 C35.3111695,101.352457 37.4291488,95.6609791 40.0006643,90.2257466 C42.5987543,84.7249011 45.6636678,79.4882807 49.1440276,74.5708582 C52.6474186,69.6250627 56.5644845,65.0002383 60.847391,60.7433784 C65.1294117,56.4909518 69.7852457,52.6100362 74.7457993,49.152058 L66.2101038,36.9480545 Z M39.5462422,178.429906 C37.0261038,172.94768 34.9595017,167.215416 33.4084429,161.272127 C31.8901592,155.468931 30.86173,149.468008 30.3683322,143.321673 C30.1406781,140.513618 30.0210934,137.677189 30.0210934,134.812387 C30.0210934,131.5477 30.179654,128.318481 30.4755155,125.134481 C31.0371212,119.003219 32.1266712,113.02801 33.7034186,107.254073 L19.3302145,103.397097 C17.5293564,110.000949 16.2865605,116.831786 15.6478893,123.836409 L0.823806228,122.536564 C0.459737024,126.580625 0.262200692,130.672566 0.262200692,134.812387 C0.262200692,138.552323 0.421647059,142.25502 0.716622838,145.915156 C1.36858131,153.818854 2.69730104,161.525713 4.65229066,168.983419 C6.65865743,176.616684 9.32052595,183.983951 12.5696886,191.02138 C15.8666852,198.157229 19.7669204,204.953486 24.2172457,211.348973 L36.4086921,202.804219 C32.4561938,197.118062 28.9882353,191.072806 26.0606228,184.724314 L39.5462422,178.429906 Z M60.0368719,140.721096 C59.8827405,138.771328 59.7844152,136.802054 59.7844152,134.812387 C59.7844152,132.421061 59.9084291,130.060769 60.1227959,127.730624 C60.534699,123.354065 61.3363598,119.092772 62.4719724,114.967138 C63.62973,110.760818 65.13827,106.69459 66.9816471,102.819881 L53.4871695,96.5228137 C55.7158755,91.8110966 58.3485121,87.3272515 61.3363598,83.1120646 L49.1440276,74.5708582 C45.6636678,79.4882807 42.5987543,84.7249011 40.0006643,90.2257466 C37.4291488,95.6609791 35.3111695,101.352457 33.7034186,107.254073 C32.1266712,113.02801 31.0371212,119.003219 30.4755155,125.134481 C30.179654,128.318481 30.0210934,131.5477 30.0210934,134.812387 C30.0210934,137.677189 30.1406781,140.513618 30.3683322,143.321673 C30.86173,149.468008 31.8901592,155.468931 33.4084429,161.272127 L47.7851903,157.415151 C49.1103667,162.512566 50.8722491,167.432648 53.0327474,172.130179 L66.5360831,165.831338 C64.7440831,161.907863 63.2612319,157.809715 62.1637093,153.557289 C61.0874464,149.410374 60.3805674,145.117162 60.0368719,140.721096 Z M89.9720415,229.279034 C84.4286228,226.67225 79.1482907,223.593763 74.1921661,220.087904 C69.2068097,216.56254 64.5465467,212.613352 60.2600969,208.289992 C55.9816193,203.966632 52.072526,199.272648 48.6001384,194.26124 C45.1410381,189.279091 42.1053564,183.983951 39.5462422,178.429906 L26.0606228,184.724314 C28.9882353,191.072806 32.4561938,197.118062 36.4086921,202.804219 L24.2172457,211.348973 C28.6923738,217.783473 33.7122769,223.808334 39.2167197,229.351739 C44.7247059,234.902237 50.7181176,239.967732 57.1216609,244.489704 C63.4924291,248.986849 70.2742145,252.936924 77.3899516,256.28407 L83.683654,242.784655 C89.9330657,245.723936 96.483654,248.135654 103.273412,249.96129 L107.123156,235.569007 C101.182007,233.970356 95.4463667,231.857444 89.9720415,229.279034 Z M102.553246,202.272223 C98.588346,200.401368 94.8200969,198.182941 91.2750726,195.668371 C87.7087889,193.141386 84.3692733,190.321805 81.3079031,187.222038 C78.2474186,184.125816 75.4650796,180.760051 72.9839169,177.168187 C70.518699,173.600262 68.3626298,169.809787 66.5360831,165.831338 L53.0327474,172.130179 C50.8722491,167.432648 49.1103667,162.512566 47.7851903,157.415151 L33.4084429,161.272127 C34.9595017,167.215416 37.0261038,172.94768 39.5462422,178.429906 C42.1053564,183.983951 45.1410381,189.279091 48.6001384,194.26124 C52.072526,199.272648 55.9816193,203.966632 60.2600969,208.289992 C64.5465467,212.613352 69.2068097,216.56254 74.1921661,220.087904 L82.7234326,207.886561 C86.9753357,210.896776 91.5027267,213.541686 96.2604291,215.777844 C100.958782,217.991837 105.88036,219.806833 110.980872,221.18027 L114.835931,206.779121 C110.578713,205.631781 106.471197,204.119137 102.553246,202.272223 Z M202.860069,232.291021 C197.197066,236.289862 191.162021,239.80636 184.833772,242.784655 C178.579931,245.723936 172.024914,248.135654 165.239585,249.96129 L161.385412,235.569007 C155.572705,237.133078 149.562464,238.204164 143.393661,238.742367 C140.38101,239.006592 137.336471,239.145798 134.258269,239.145798 C131.176526,239.145798 128.128443,239.006592 125.119336,238.742367 C118.950533,238.204164 112.940291,237.133078 107.123156,235.569007 L103.273412,249.96129 C96.483654,248.135654 89.9330657,245.723936 83.683654,242.784655 L77.3899516,256.28407 C84.4250796,259.58777 91.78973,262.29918 99.4236678,264.350913 C106.887529,266.35388 114.608277,267.729979 122.530104,268.418028 C126.396678,268.754958 130.305772,268.935837 134.258269,268.935837 C138.210769,268.935837 142.120748,268.754958 145.987322,268.418028 C153.909148,267.729979 161.625467,266.35388 169.093757,264.350913 C176.723267,262.29918 184.087917,259.58777 191.118616,256.28407 C198.243212,252.938698 205.024997,248.986849 211.395764,244.489704 L202.860069,232.291021 Z M232.108733,202.804219 L219.917288,194.26124 C216.441357,199.272648 212.535807,203.971066 208.256443,208.289992 C203.970879,212.613352 199.306186,216.565199 194.32526,220.087904 C189.369135,223.593763 184.087917,226.67225 178.541841,229.279034 C173.071059,231.857444 167.33099,233.970356 161.385412,235.569007 L165.239585,249.96129 C172.024914,248.135654 178.579931,245.723936 184.833772,242.784655 C191.162021,239.80636 197.197066,236.289862 202.860069,232.291021 L211.395764,244.489704 C217.799308,239.971279 223.788291,234.902237 229.296276,229.356173 C234.800719,223.810107 239.825052,217.783473 244.29575,211.348973 L232.108733,202.804219 Z M207.730269,185.71826 L195.533509,177.168187 C193.047917,180.761824 190.270007,184.128476 187.209522,187.222038 C184.14018,190.321805 180.804207,193.14316 177.242353,195.668371 L185.785135,207.886561 C181.533231,210.896776 177.006726,213.541686 172.252567,215.779619 L178.541841,229.279034 C184.087917,226.67225 189.369135,223.593763 194.32526,220.087904 C199.306186,216.565199 203.970879,212.613352 208.256443,208.289992 C212.535807,203.971066 216.441357,199.272648 219.917288,194.26124 L207.730269,185.71826 Z M185.785135,207.886561 L177.242353,195.668371 C173.697329,198.184716 169.92465,200.401368 165.955322,202.272223 C162.0418,204.119137 157.938712,205.631781 153.677952,206.779121 C149.519945,207.901635 145.215779,208.669482 140.8,209.053407 C138.640388,209.242266 136.462173,209.356645 134.258269,209.356645 C132.055252,209.356645 129.873495,209.242266 127.717426,209.053407 C123.301647,208.669482 118.998367,207.901635 114.835931,206.779121 L110.980872,221.18027 C105.88036,219.806833 100.958782,217.991837 96.2604291,215.777844 C91.5027267,213.541686 86.9753357,210.896776 82.7234326,207.886561 L74.1921661,220.087904 C79.1482907,223.593763 84.4286228,226.67225 89.9720415,229.279034 C95.4463667,231.857444 101.182007,233.970356 107.123156,235.569007 C112.940291,237.133078 118.950533,238.204164 125.119336,238.742367 C128.128443,239.006592 131.176526,239.145798 134.258269,239.145798 C137.336471,239.145798 140.38101,239.006592 143.393661,238.742367 C149.562464,238.204164 155.572705,237.133078 161.385412,235.569007 C167.33099,233.970356 173.071059,231.857444 178.541841,229.279034 L172.252567,215.779619 C177.006726,213.541686 181.533231,210.896776 185.785135,207.886561 Z" fill="#52C1DB"></path>
        <path d="M219.368083,74.566425 C215.870007,69.6250627 211.952055,64.9975784 207.665605,60.7433784 C203.383585,56.4909518 198.73218,52.6100362 193.768083,49.1476246 L185.232388,61.3507412 C181.010602,58.4070264 176.516872,55.8197494 171.802574,53.6314698 L165.505329,67.1459583 C169.432138,68.9645001 173.173814,71.1146533 176.689605,73.5627246 C180.234629,76.0258691 183.557315,78.7851584 186.6178,81.8122194 L176.097883,92.3439799 L165.569107,102.87574 C167.412484,104.681869 169.093757,106.64937 170.597869,108.751644 C172.101979,110.845937 173.436014,113.066136 174.562769,115.409582 L201.535779,102.819881 L215.030257,96.5228137 L228.516762,90.2257466 C225.914243,84.7249011 222.853757,79.4882807 219.368083,74.566425" fill="#52C1DB"></path>
        <path d="M243.751862,57.482239 C239.251045,51.114239 234.217855,45.156763 228.708983,39.6798574 C223.200997,34.2020652 217.2253,29.20307 210.837702,24.7449379 C204.493509,20.315179 197.749814,16.4209635 190.673052,13.1252442 C183.684872,9.87740462 176.371598,7.21032804 168.797896,5.19317404 C161.394269,3.22212643 153.738186,1.86819493 145.884567,1.1943325 L144.589509,16.032606 C151.564402,16.6311022 158.367446,17.832528 164.943724,19.5810236 L161.093979,33.9741933 C166.979322,35.5409234 172.660041,37.6095037 178.086533,40.1302812 C183.595405,42.6856385 188.838533,45.7100396 193.768083,49.1476246 C198.73218,52.6100362 203.383585,56.4909518 207.665605,60.7433784 C211.952055,64.9975784 215.870007,69.6250627 219.368083,74.566425 C222.853757,79.4882807 225.914243,84.7249011 228.516762,90.2257466 L242.002381,83.9295661 L255.493315,77.6342724 C252.1538,70.5569435 248.223446,63.8138858 243.751862,57.482239" fill="#3B528A"></path>
        <path d="M178.086533,40.1302812 C172.660041,37.6095037 166.979322,35.5409234 161.093979,33.9741933 C155.340623,32.4402696 149.390616,31.3957828 143.290907,30.8699927 C140.311031,30.6128611 137.30281,30.4754286 134.258269,30.4754286 C131.215502,30.4754286 128.197536,30.6128611 125.22209,30.8699927 C119.125924,31.3957828 113.176803,32.4402696 107.423446,33.9741933 L111.27319,48.3638162 C106.232028,49.7009011 101.361827,51.4733367 96.7148512,53.6314698 L103.007668,67.1477316 C106.8831,65.3540161 110.929495,63.8741788 115.126478,62.7578725 C119.229564,61.6725993 123.473495,60.9348973 127.82018,60.5607263 C129.941702,60.3763008 132.084484,60.2645815 134.258269,60.2645815 C136.427626,60.2645815 138.571295,60.3763008 140.697245,60.5607263 C145.043931,60.9348973 149.283433,61.6725993 153.385633,62.7578725 C157.587045,63.8741788 161.634326,65.3495828 165.505329,67.1459583 L171.802574,53.6314698 C176.516872,55.8197494 181.010602,58.4070264 185.232388,61.3507412 L193.768083,49.1476246 C188.838533,45.7100396 183.595405,42.6856385 178.086533,40.1302812" fill="#00AEE8"></path>
        <path d="M144.589509,16.032606 L145.884567,1.1943325 C142.051654,0.86449457 138.176221,0.686275689 134.258269,0.686275689 C130.341204,0.686275689 126.465772,0.86449457 122.632858,1.1943325 C114.779239,1.86819493 107.123156,3.22212643 99.7159862,5.19317404 C92.1369688,7.21032804 84.8325536,9.87740462 77.8443738,13.1296776 C70.7631834,16.4245102 64.0159446,20.3169523 57.6752941,24.7475978 C51.2921245,29.2075032 45.3075709,34.2020652 39.8040138,39.6798574 L50.327474,50.2116179 C55.2189343,45.3482819 60.534699,40.9087697 66.2101038,36.9480545 L74.7457993,49.152058 C79.6788927,45.7100396 84.9175917,42.6874118 90.4220346,40.1320545 C95.8494117,37.6095037 101.532789,35.5409234 107.423446,33.9741933 C113.176803,32.4402696 119.125924,31.3957828 125.22209,30.8699927 C128.197536,30.6128611 131.215502,30.4754286 134.258269,30.4754286 C137.30281,30.4754286 140.311031,30.6128611 143.290907,30.8699927 C149.390616,31.3957828 155.340623,32.4402696 161.093979,33.9741933 L164.943724,19.5810236 C158.367446,17.832528 151.564402,16.6311022 144.589509,16.032606" fill="#3F8ABD"></path>
        <path d="M111.27319,48.3638162 L107.423446,33.9741933 C101.532789,35.5409234 95.8494117,37.6095037 90.4220346,40.1320545 C84.9175917,42.6874118 79.6788927,45.7100396 74.7457993,49.152058 C69.7852457,52.6100362 65.1294117,56.4909518 60.847391,60.7433784 C56.5644845,65.0002383 52.6474186,69.6250627 49.1440276,74.5708582 L61.3363598,83.1120646 C58.3485121,87.3272515 55.7158755,91.8110966 53.4871695,96.5228137 L66.9816471,102.819881 C68.8427405,98.8999521 71.0501869,95.1759756 73.5402076,91.6674575 C76.0444014,88.147413 78.8347128,84.842827 81.8951972,81.8122194 C84.9521384,78.7851584 88.2783667,76.0276425 91.8198478,73.5627246 C95.3436124,71.1146533 99.0808581,68.9645001 103.007668,67.1477316 L96.7148512,53.6314698 C101.361827,51.4733367 106.232028,49.7009011 111.27319,48.3638162" fill="#52C1DB"></path>
        <path d="M66.2101038,36.9480545 C60.534699,40.9087697 55.2189343,45.3482819 50.327474,50.2116179 L39.8040138,39.6798574 C34.2995709,45.1611963 29.2575224,51.1168989 24.765564,57.4848989 C20.290436,63.8138858 16.3591972,70.5569435 13.0196817,77.6369324 C9.72357093,84.6264818 7.01386852,91.9494158 4.95258131,99.5418948 C2.9373564,106.971228 1.53954326,114.656806 0.823806228,122.536564 L15.6478893,123.836409 C16.2865605,116.831786 17.5293564,110.000949 19.3302145,103.397097 L33.7034186,107.254073 C35.3111695,101.352457 37.4291488,95.6609791 40.0006643,90.2257466 C42.5987543,84.7249011 45.6636678,79.4882807 49.1440276,74.5708582 C52.6474186,69.6250627 56.5644845,65.0002383 60.847391,60.7433784 C65.1294117,56.4909518 69.7852457,52.6100362 74.7457993,49.152058 L66.2101038,36.9480545" fill="#00AEE8"></path>
        <path d="M39.5462422,178.429906 C37.0261038,172.94768 34.9595017,167.215416 33.4084429,161.272127 C31.8901592,155.468931 30.86173,149.468008 30.3683322,143.321673 C30.1406781,140.513618 30.0210934,137.677189 30.0210934,134.812387 C30.0210934,131.5477 30.179654,128.318481 30.4755155,125.134481 C31.0371212,119.003219 32.1266712,113.02801 33.7034186,107.254073 L19.3302145,103.397097 C17.5293564,110.000949 16.2865605,116.831786 15.6478893,123.836409 L0.823806228,122.536564 C0.459737024,126.580625 0.262200692,130.672566 0.262200692,134.812387 C0.262200692,138.552323 0.421647059,142.25502 0.716622838,145.915156 C1.36858131,153.818854 2.69730104,161.525713 4.65229066,168.983419 C6.65865743,176.616684 9.32052595,183.983951 12.5696886,191.02138 C15.8666852,198.157229 19.7669204,204.953486 24.2172457,211.348973 L36.4086921,202.804219 C32.4561938,197.118062 28.9882353,191.072806 26.0606228,184.724314 L39.5462422,178.429906" fill="#3F8ABD"></path>
        <path d="M60.0368719,140.721096 C59.8827405,138.771328 59.7844152,136.802054 59.7844152,134.812387 C59.7844152,132.421061 59.9084291,130.060769 60.1227959,127.730624 C60.534699,123.354065 61.3363598,119.092772 62.4719724,114.967138 C63.62973,110.760818 65.13827,106.69459 66.9816471,102.819881 L53.4871695,96.5228137 C55.7158755,91.8110966 58.3485121,87.3272515 61.3363598,83.1120646 L49.1440276,74.5708582 C45.6636678,79.4882807 42.5987543,84.7249011 40.0006643,90.2257466 C37.4291488,95.6609791 35.3111695,101.352457 33.7034186,107.254073 C32.1266712,113.02801 31.0371212,119.003219 30.4755155,125.134481 C30.179654,128.318481 30.0210934,131.5477 30.0210934,134.812387 C30.0210934,137.677189 30.1406781,140.513618 30.3683322,143.321673 C30.86173,149.468008 31.8901592,155.468931 33.4084429,161.272127 L47.7851903,157.415151 C49.1103667,162.512566 50.8722491,167.432648 53.0327474,172.130179 L66.5360831,165.831338 C64.7440831,161.907863 63.2612319,157.809715 62.1637093,153.557289 C61.0874464,149.410374 60.3805674,145.117162 60.0368719,140.721096" fill="#3B528A"></path>
        <path d="M89.9720415,229.279034 C84.4286228,226.67225 79.1482907,223.593763 74.1921661,220.087904 C69.2068097,216.56254 64.5465467,212.613352 60.2600969,208.289992 C55.9816193,203.966632 52.072526,199.272648 48.6001384,194.26124 C45.1410381,189.279091 42.1053564,183.983951 39.5462422,178.429906 L26.0606228,184.724314 C28.9882353,191.072806 32.4561938,197.118062 36.4086921,202.804219 L24.2172457,211.348973 C28.6923738,217.783473 33.7122769,223.808334 39.2167197,229.351739 C44.7247059,234.902237 50.7181176,239.967732 57.1216609,244.489704 C63.4924291,248.986849 70.2742145,252.936924 77.3899516,256.28407 L83.683654,242.784655 C89.9330657,245.723936 96.483654,248.135654 103.273412,249.96129 L107.123156,235.569007 C101.182007,233.970356 95.4463667,231.857444 89.9720415,229.279034" fill="#52C1DB"></path>
        <path d="M102.553246,202.272223 C98.588346,200.401368 94.8200969,198.182941 91.2750726,195.668371 C87.7087889,193.141386 84.3692733,190.321805 81.3079031,187.222038 C78.2474186,184.125816 75.4650796,180.760051 72.9839169,177.168187 C70.518699,173.600262 68.3626298,169.809787 66.5360831,165.831338 L53.0327474,172.130179 C50.8722491,167.432648 49.1103667,162.512566 47.7851903,157.415151 L33.4084429,161.272127 C34.9595017,167.215416 37.0261038,172.94768 39.5462422,178.429906 C42.1053564,183.983951 45.1410381,189.279091 48.6001384,194.26124 C52.072526,199.272648 55.9816193,203.966632 60.2600969,208.289992 C64.5465467,212.613352 69.2068097,216.56254 74.1921661,220.087904 L82.7234326,207.886561 C86.9753357,210.896776 91.5027267,213.541686 96.2604291,215.777844 C100.958782,217.991837 105.88036,219.806833 110.980872,221.18027 L114.835931,206.779121 C110.578713,205.631781 106.471197,204.119137 102.553246,202.272223" fill="#00AEE8"></path>
        <path d="M202.860069,232.291021 C197.197066,236.289862 191.162021,239.80636 184.833772,242.784655 C178.579931,245.723936 172.024914,248.135654 165.239585,249.96129 L161.385412,235.569007 C155.572705,237.133078 149.562464,238.204164 143.393661,238.742367 C140.38101,239.006592 137.336471,239.145798 134.258269,239.145798 C131.176526,239.145798 128.128443,239.006592 125.119336,238.742367 C118.950533,238.204164 112.940291,237.133078 107.123156,235.569007 L103.273412,249.96129 C96.483654,248.135654 89.9330657,245.723936 83.683654,242.784655 L77.3899516,256.28407 C84.4250796,259.58777 91.78973,262.29918 99.4236678,264.350913 C106.887529,266.35388 114.608277,267.729979 122.530104,268.418028 C126.396678,268.754958 130.305772,268.935837 134.258269,268.935837 C138.210769,268.935837 142.120748,268.754958 145.987322,268.418028 C153.909148,267.729979 161.625467,266.35388 169.093757,264.350913 C176.723267,262.29918 184.087917,259.58777 191.118616,256.28407 C198.243212,252.938698 205.024997,248.986849 211.395764,244.489704 L202.860069,232.291021" fill="#3B528A"></path>
        <path d="M232.108733,202.804219 L219.917288,194.26124 C216.441357,199.272648 212.535807,203.971066 208.256443,208.289992 C203.970879,212.613352 199.306186,216.565199 194.32526,220.087904 C189.369135,223.593763 184.087917,226.67225 178.541841,229.279034 C173.071059,231.857444 167.33099,233.970356 161.385412,235.569007 L165.239585,249.96129 C172.024914,248.135654 178.579931,245.723936 184.833772,242.784655 C191.162021,239.80636 197.197066,236.289862 202.860069,232.291021 L211.395764,244.489704 C217.799308,239.971279 223.788291,234.902237 229.296276,229.356173 C234.800719,223.810107 239.825052,217.783473 244.29575,211.348973 L232.108733,202.804219" fill="#00AEE8"></path>
        <path d="M207.730269,185.71826 L195.533509,177.168187 C193.047917,180.761824 190.270007,184.128476 187.209522,187.222038 C184.14018,190.321805 180.804207,193.14316 177.242353,195.668371 L185.785135,207.886561 C181.533231,210.896776 177.006726,213.541686 172.252567,215.779619 L178.541841,229.279034 C184.087917,226.67225 189.369135,223.593763 194.32526,220.087904 C199.306186,216.565199 203.970879,212.613352 208.256443,208.289992 C212.535807,203.971066 216.441357,199.272648 219.917288,194.26124 L207.730269,185.71826" fill="#52C1DB"></path>
        <path d="M185.785135,207.886561 L177.242353,195.668371 C173.697329,198.184716 169.92465,200.401368 165.955322,202.272223 C162.0418,204.119137 157.938712,205.631781 153.677952,206.779121 C149.519945,207.901635 145.215779,208.669482 140.8,209.053407 C138.640388,209.242266 136.462173,209.356645 134.258269,209.356645 C132.055252,209.356645 129.873495,209.242266 127.717426,209.053407 C123.301647,208.669482 118.998367,207.901635 114.835931,206.779121 L110.980872,221.18027 C105.88036,219.806833 100.958782,217.991837 96.2604291,215.777844 C91.5027267,213.541686 86.9753357,210.896776 82.7234326,207.886561 L74.1921661,220.087904 C79.1482907,223.593763 84.4286228,226.67225 89.9720415,229.279034 C95.4463667,231.857444 101.182007,233.970356 107.123156,235.569007 C112.940291,237.133078 118.950533,238.204164 125.119336,238.742367 C128.128443,239.006592 131.176526,239.145798 134.258269,239.145798 C137.336471,239.145798 140.38101,239.006592 143.393661,238.742367 C149.562464,238.204164 155.572705,237.133078 161.385412,235.569007 C167.33099,233.970356 173.071059,231.857444 178.541841,229.279034 L172.252567,215.779619 C177.006726,213.541686 181.533231,210.896776 185.785135,207.886561" fill="#3F8ABD"></path>
    </g>
</svg>
