<?xml version="1.0" encoding="UTF-8"?>
<svg width="256px" height="256px" viewBox="0 0 256 256" version="1.1" xmlns="http://www.w3.org/2000/svg" preserveAspectRatio="xMidYMid">
    <title>CentOS</title>
    <g>
        <path d="M161.120719,251.608572 C229.387422,233.316564 269.899868,163.146683 251.6078,94.8797549 C233.315732,26.6128273 163.145984,-13.8998498 94.8792808,4.39215811 C26.612578,22.684166 -13.8998679,92.8540475 4.39220026,161.120975 C22.6842684,229.387903 92.8540165,269.90058 161.120719,251.608572 Z" fill="#A14F8C"></path>
        <path d="M127.999996,31.1586816 L99.6336791,59.5244704 L59.5229831,59.5211763 L59.5196889,99.6346097 L31.1562275,128.000399 L59.5196889,156.363259 L59.521153,196.477791 L99.6336791,196.476327 L127.999996,224.842042 L156.363457,196.476327 L196.479204,196.474497 L196.477374,156.363259 L224.843764,128.000399 L196.474592,99.6373915 L156.362139,59.5257881 L127.999996,31.1586816 Z M136.609383,59.5215423 L136.609383,90.1237612 L127.999996,98.7330395 L119.390608,90.1237612 L119.390608,59.5244704 L136.609383,59.5215423 Z M85.6641689,73.4906835 L107.303411,95.1323952 L107.306632,107.303813 L95.1283679,107.307107 L73.489126,85.6653954 L85.6641689,73.4906835 Z M59.5196889,119.39112 L90.1225559,119.39112 L98.7320166,128.000399 L90.1225559,136.609604 L59.5196889,136.609604 L59.5196889,119.39112 Z M165.186602,119.39112 L195.789469,119.39112 L195.789469,136.609604 L165.186602,136.609604 L156.577142,128.000399 L165.186602,119.39112 Z M95.6171558,148.207621 L107.792272,148.207621 L107.792272,160.382406 L86.15303,182.021263 L73.9779871,169.846405 L95.6171558,148.207621 Z M148.209549,148.205937 L160.382762,148.207694 L182.022004,169.846478 L169.847034,182.02119 L148.207792,160.382406 L148.209549,148.205937 Z M127.999996,156.576939 L136.609383,165.186144 L136.609383,195.788437 L119.390608,195.788437 L119.390608,165.186144 L127.999996,156.576939 Z" fill="#FFFFFF"></path>
        <polygon fill="#EFA724" points="136.609383 108.217901 127.999996 115.825614 119.390608 108.215339 119.390608 119.39112 108.215981 119.39112 115.824953 128.000325 108.214297 136.609604 119.390608 136.609604 119.390608 147.783335 127.999996 140.175037 136.609383 147.784287 136.609383 136.609604 147.782473 136.609604 140.174965 128.000618 147.785328 119.39112 136.609383 119.39112"></polygon>
        <polygon fill="#EFA724" points="156.386516 59.5501648 170.331503 73.4948561 148.692261 95.1336397 148.692774 107.308059 160.867377 107.308425 182.506546 85.6697144 196.499848 99.6627198 196.477886 59.5247633"></polygon>
    </g>
</svg>
