<?xml version="1.0" encoding="UTF-8"?>
<svg width="256px" height="256px" viewBox="0 0 256 256" version="1.1" xmlns="http://www.w3.org/2000/svg" xmlns:xlink="http://www.w3.org/1999/xlink" preserveAspectRatio="xMidYMid">
    <title>Google Chrome</title>
    <g>
        <path d="M128.002654,199.216326 C167.337748,199.216326 199.224237,167.328341 199.224237,127.993248 C199.224237,88.658154 167.337748,56.7701695 128.002654,56.7701695 C88.66756,56.7701695 56.781071,88.658154 56.781071,127.993248 C56.781071,167.328341 88.66756,199.216326 128.002654,199.216326 Z" fill="#FFFFFF"></path>
        <path d="M35.890016,92.996518 C30.576952,83.7939923 24.3316171,74.1352001 17.1540112,64.0201413 C5.91689083,83.47748 0,105.549915 0,128.020125 C0,150.490334 5.91420317,172.562769 17.1499797,192.020108 C28.3857563,211.477446 44.546676,227.635678 64.0067024,238.86608 C83.4667287,250.096481 105.541852,256.006653 128.010717,256.001571 C139.791711,239.477878 147.790451,227.56439 152.006937,220.261105 C160.105922,206.233028 170.580388,186.149338 183.430335,160.010037 L183.430335,159.995255 C177.81715,169.729972 169.739377,177.814463 160.010037,183.435711 C140.208035,194.876125 115.80601,194.879711 96.0006467,183.445118 C86.2698509,177.826524 78.189991,169.74481 72.5736292,160.012725 C55.1202938,127.463816 42.8924227,105.12508 35.890016,92.996518 Z" fill="#229342"></path>
        <path d="M128.008029,255.995986 C150.476894,255.999935 172.550674,250.08573 192.009357,238.852641 C211.468039,227.619552 227.626271,211.459977 238.85936,191.999951 C250.091893,172.54016 256.003521,150.466219 256,127.99728 C255.995901,105.528414 250.076323,83.4559788 238.836515,63.9999839 C214.588793,61.6102423 196.693555,60.4153715 185.1508,60.4153715 C172.062912,60.4153715 153.012186,61.6102423 127.998622,63.9999839 L127.985184,64.0093907 C139.221488,64.0040515 150.261129,66.957349 159.993911,72.5722861 C169.727283,78.1881586 177.809087,86.2659308 183.428991,95.9966159 C194.866596,115.80088 194.866084,140.203566 183.427647,160.007349 L128.008029,255.995986 Z" fill="#FBC116"></path>
        <path d="M128.002654,178.677204 C155.986605,178.677204 178.671827,155.99198 178.671827,128.006687 C178.671827,100.021392 155.986605,77.3375132 128.002654,77.3375132 C100.018703,77.3375132 77.333481,100.022736 77.333481,128.006687 C77.333481,155.990637 100.018703,178.677204 128.002654,178.677204 Z" fill="#1A73E8"></path>
        <path d="M128.002654,64.0040154 L238.840546,64.0040154 C227.608801,44.543989 211.451913,28.3830694 191.993231,17.1472928 C172.535124,5.9122784 150.461968,-0.0017050572 127.993247,1.42108511e-14 C105.524382,1.42108511e-14 83.4519466,5.9182354 63.9959517,17.1566997 C44.5392458,28.3945112 28.3842362,44.5569363 17.1553551,64.0187975 L72.5749731,160.008693 L72.5897552,160.016756 C61.1454971,140.216334 61.1378125,115.813649 72.5695977,96.0060227 C78.1854702,86.2739938 86.2672739,78.1921901 95.997959,72.5749737 C105.728644,66.9577574 116.768221,63.9999839 128.005342,64.0026715 L128.002654,64.0040154 Z" fill="#E33B2E"></path>
    </g>
</svg>
