<?xml version="1.0" encoding="UTF-8"?>
<svg width="512px" height="156px" viewBox="0 0 512 156" version="1.1" xmlns="http://www.w3.org/2000/svg" xmlns:xlink="http://www.w3.org/1999/xlink" preserveAspectRatio="xMidYMid">
    <title>Cinder</title>
    <g>
				<path d="M496.68945,83.7800892 L506.104012,93.1946508 L506.104012,112.879643 L498.876672,120.106984 L506.104012,127.334324 L506.104012,145.592868 L506.864785,146.35364 L512,146.35364 L512,155.292719 L499.447251,155.292719 L493.836553,149.682021 L493.836553,129.806835 L488.986627,124.956909 L467.20951,124.956909 L467.20951,146.448737 L475.768202,146.448737 L475.768202,155.387816 L447.049034,155.387816 L447.144131,146.35364 L455.037147,146.35364 L455.037147,92.7191679 L447.144131,92.7191679 L447.144131,83.7800892 L496.68945,83.7800892 Z M372.398217,83.7800892 L382.668648,94.0505201 L382.668648,145.022288 L372.398217,155.292719 L323.423477,155.292719 L323.423477,146.35364 L331.316493,146.35364 L331.316493,92.7191679 L323.423477,92.7191679 L323.423477,83.7800892 L372.398217,83.7800892 Z M318.573551,83.6849926 L318.573551,92.6240713 L311.346211,92.6240713 L311.346211,155.197623 L299.554235,155.197623 L269.979198,103.084695 L269.979198,146.258544 L278.82318,146.258544 L278.82318,155.197623 L251.340267,155.197623 L251.340267,146.35364 L259.233284,146.35364 L259.233284,92.7191679 L251.340267,92.7191679 L251.340267,83.7800892 L271.120357,83.7800892 L300.600297,135.322437 L300.600297,92.6240713 L291.756315,92.6240713 L291.756315,83.6849926 L318.573551,83.6849926 Z M441.533432,83.7800892 L441.533432,102.799406 L431.167905,102.799406 L431.167905,92.6240713 L407.013373,92.6240713 L407.013373,114.401189 L434.686478,114.401189 L434.686478,123.910847 L407.013373,123.910847 L407.013373,146.258544 L431.263001,146.258544 L431.263001,136.08321 L441.723626,136.08321 L441.723626,155.102526 L386.947994,155.102526 L386.947994,146.35364 L394.84101,146.35364 L394.84101,92.7191679 L386.947994,92.7191679 L386.947994,83.7800892 L441.533432,83.7800892 Z M195.32838,83.7800892 L205.123328,93.5750371 L205.123328,106.413076 L193.046062,106.413076 L193.046062,97.5690936 L188.576523,93.0995542 L170.413076,93.0995542 L165.56315,97.9494799 L165.56315,140.933135 L170.413076,145.783061 L188.576523,145.783061 L193.046062,141.313522 L193.046062,131.994056 L205.123328,131.994056 L205.123328,145.212481 L195.32838,155.007429 L163.661218,155.007429 L153.390788,145.117385 L153.390788,93.9554235 L163.661218,83.7800892 L195.32838,83.7800892 Z M365.551263,93.1946508 L343.488856,93.1946508 L343.488856,145.973254 L365.551263,145.973254 L370.401189,141.123328 L370.401189,98.0445765 L365.551263,93.1946508 Z M489.557207,92.7191679 L467.20951,92.7191679 L467.20951,115.827637 L489.17682,115.827637 L493.836553,111.167905 L493.836553,97.0936107 L489.557207,92.7191679 Z" fill="#58585A"></path>
				<g transform="translate(212.540862, 83.970282)">
						<rect fill="#F05129" x="21.1114413" y="48.4992571" width="13.0282318" height="11.4115899"></rect>
						<rect fill="#F05129" x="2.70280743e-14" y="48.4992571" width="12.8380386" height="11.4115899"></rect>
						<rect fill="#F15A22" x="11.4115899" y="37.0876672" width="11.4115899" height="13.1233284"></rect>
						<rect fill="#BE1E2D" x="11.4115899" y="58.4843982" width="11.4115899" height="12.8380386"></rect>
						<rect fill="#FFD529" x="11.4115899" y="1.35140372e-14" width="11.4115899" height="12.5527489"></rect>
						<rect fill="#F36C21" x="11.4115899" y="21.0163447" width="11.4115899" height="13.0282318"></rect>
						<rect fill="#FBB040" x="0" y="11.3164933" width="13.5037147" height="11.4115899"></rect>
						<rect fill="#FBB040" x="21.1114413" y="11.3164933" width="13.0282318" height="11.4115899"></rect>
						<rect fill="#F7941E" x="11.4115899" y="11.3164933" width="11.4115899" height="11.4115899"></rect>
						<rect fill="#D51920" x="11.4115899" y="48.4992571" width="11.4115899" height="11.4115899"></rect>
				</g>
				<g transform="translate(52.683507, 44.315007)">
						<rect fill="#EF4123" x="0" y="7.0371471" width="8.08320951" height="7.0371471"></rect>
						<rect fill="#EF4123" x="12.4576523" y="7.0371471" width="8.55869242" height="7.0371471"></rect>
						<rect fill="#F15A22" x="7.0371471" y="0" width="7.0371471" height="8.55869242"></rect>
						<rect fill="#C9252C" x="7.0371471" y="12.5527489" width="7.0371471" height="8.46359584"></rect>
						<rect fill="#ED1C24" x="7.0371471" y="7.0371471" width="7.0371471" height="7.0371471"></rect>
				</g>
				<g transform="translate(73.985141, 31.572065)">
						<rect fill="#F7941E" x="5.13521545" y="-6.75701859e-15" width="5.13521545" height="6.27637444"></rect>
						<rect fill="#ED1C24" x="5.13521545" y="9.03417533" width="5.13521545" height="6.27637444"></rect>
						<rect fill="#F58220" x="9.12927192" y="5.13521545" width="6.18127786" height="5.13521545"></rect>
						<rect fill="#F58220" x="0" y="5.13521545" width="5.80089153" height="5.13521545"></rect>
						<rect fill="#F15A22" x="5.13521545" y="5.13521545" width="5.13521545" height="5.13521545"></rect>
				</g>
				<g transform="translate(62.763744, 69.800892)">
						<rect fill="#DA2128" x="3.04309064" y="0" width="3.04309064" height="3.89895988"></rect>
						<rect fill="#962F34" x="3.04309064" y="5.80089153" width="3.04309064" height="3.51857355"></rect>
						<rect fill="#C9252C" x="5.51560178" y="3.13818722" width="3.70876672" height="3.04309064"></rect>
						<rect fill="#C9252C" x="0" y="3.13818722" width="3.70876672" height="3.04309064"></rect>
						<rect fill="#B8292F" x="3.04309064" y="3.13818722" width="3.04309064" height="3.04309064"></rect>
				</g>
				<g transform="translate(50.306092, 21.301634)">
						<rect fill="#F7941E" x="-1.35140372e-14" y="5.23031204" width="6.46656761" height="5.32540862"></rect>
						<rect fill="#F7941E" x="9.50965825" y="5.23031204" width="6.27637444" height="5.32540862"></rect>
						<rect fill="#FAA61A" x="5.23031204" y="0" width="5.32540862" height="6.27637444"></rect>
						<rect fill="#F15A22" x="5.23031204" y="9.60475483" width="5.32540862" height="6.27637444"></rect>
						<rect fill="#F37021" x="5.23031204" y="5.23031204" width="5.32540862" height="5.32540862"></rect>
				</g>
				<g transform="translate(66.092125, -0.000000)">
						<rect fill="#FFF200" x="7.70282318" y="-3.37850929e-15" width="7.70282318" height="10.1753343"></rect>
						<rect fill="#F7941E" x="7.70282318" y="14.1693908" width="7.70282318" height="8.93907875"></rect>
						<rect fill="#FFDD00" x="13.9791976" y="7.70282318" width="9.2243685" height="7.70282318"></rect>
						<rect fill="#FFDD00" x="0" y="7.70282318" width="9.69985141" height="7.70282318"></rect>
						<rect fill="#FDB913" x="7.70282318" y="7.70282318" width="7.70282318" height="7.70282318"></rect>
				</g>
				<g transform="translate(0.000000, 64.855869)" fill="#58585A">
						<polygon points="-1.01355279e-14 90.4368499 52.6835067 11.4115899 105.367013 90.4368499"></polygon>
						<polygon points="34.9004458 90.4368499 88.820208 2.70280743e-14 140.172363 90.4368499"></polygon>
				</g>
    </g>
</svg>
