<?xml version="1.0" encoding="UTF-8" standalone="no"?>
<svg width="256px" height="281px" viewBox="0 0 256 281" version="1.1" xmlns="http://www.w3.org/2000/svg" xmlns:xlink="http://www.w3.org/1999/xlink" preserveAspectRatio="xMidYMid">
	<g>
		<path d="M247.218195,221.541637 C243.003995,224.015479 238.861477,226.275944 236.084239,227.507864 C231.474958,230.383455 228.380989,226.609346 231.364935,224.820645 C237.646227,221.088211 241.767074,218.272632 245.067753,215.763783 L233.72042,185.31919 C222.341414,197.651726 204.424397,210.902783 180.479474,213.453308 C175.685155,213.966747 173.539714,213.616675 169.663918,213.366623 C167.936896,213.256601 168.597032,213.298276 166.855007,213.188253 C154.162397,212.383088 138.127434,208.352259 128.210395,201.812581 C124.384609,199.287062 117.631554,195.162881 110.435074,188.656543 C104.807251,183.555495 103.216924,180.944958 100.696406,176.750762 C99.4594848,174.738682 99.0944097,172.641584 100.863107,172.523226 C103.513652,172.351525 105.42071,175.398818 109.464875,178.7195 C118.638428,186.226044 132.064521,189.546726 138.975942,187.296264 C130.252482,179.147922 123.859501,168.604087 120.745527,156.809996 C120.072056,154.206127 118.143326,147.479745 114.279198,143.022162 C111.381936,139.701479 109.106468,135.67065 107.556149,130.994689 C104.46218,121.576086 107.217746,113.072671 108.099594,111.033919 C119.536946,84.6168212 144.787137,70.1038376 175.051692,71.7641789 L175.051692,71.7475088 C175.455108,71.7641789 175.753503,71.782516 175.775174,71.782516 C177.512198,71.8942056 177.660562,71.9025407 179.390917,72.0142303 C180.706188,72.0992478 198.661546,72.6176877 224.293482,78.0304671 C234.583931,80.2042474 245.81624,76.0750652 251.817473,67.2899258 C253.567833,64.7394014 254.604713,63.0790601 255.05814,60.400176 C249.25528,56.2243175 243.047337,53.3253882 240.330112,45.6871513 C238.856476,41.5613031 240.543489,35.6600899 234.06049,25.3212978 C231.113217,20.6520045 222.878191,15.5259507 216.276834,12.2302732 C208.75362,8.47283403 178.539075,2.64496926 164.201128,1.8698099 L164.184458,1.71144401 C164.184458,1.71144401 159.655193,1.42971943 148.931322,0.744578575 C81.4657856,-3.50962935 22.0385684,41.0578663 5.063412,103.967466 C5.03507284,104.06582 5.01506873,104.172508 4.98672957,104.275863 C4.6016504,105.726161 4.20323516,107.18146 3.85816422,108.65843 C2.04779204,116.019944 0.815872114,123.781539 0.300766218,131.98656 L0.300766218,132.13659 C0.289097152,132.213273 0.279095096,132.303291 0.279095096,132.384975 C-4.54356302,208.837359 53.7134136,274.947616 130.105785,279.756938 C130.610889,279.775276 131.107658,279.775276 131.601093,279.816951 C131.896153,279.835288 132.172877,279.885298 132.467937,279.903635 C132.547954,279.903635 132.619635,279.860293 132.707987,279.843623 C132.767999,279.860293 132.828011,279.860293 132.883023,279.860293 C135.930316,280.048665 130.817598,279.800281 134.238301,280.015325 C146.649186,280.793818 163.691023,280.383734 181.594704,275.719442 C195.010795,272.22539 205.142878,264.737184 222.869856,255.957046 C227.342442,253.739923 241.10027,250.976022 256,245.156492 L247.218195,221.541637 L247.218195,221.541637 Z M220.204308,35.678427 C223.783377,35.8918042 226.512271,38.9991097 226.285558,42.5765118 C226.06718,46.16725 222.97321,48.8844753 219.382472,48.6710981 C215.793401,48.4310487 213.076176,45.3454144 213.304556,41.7680122 C213.531269,38.1772741 216.626906,35.4600488 220.204308,35.678427 L220.204308,35.678427 Z" fill="#556780"></path>
		<path d="M136.669744,137.615618 C138.249727,112.377777 160.093034,93.1297964 185.320823,94.7131304 C210.582122,96.3048418 229.818373,118.146474 228.236715,143.387666 C226.636626,168.635561 204.794994,187.881866 179.557152,186.288479 C154.314284,184.696767 135.078032,162.880268 136.669744,137.615618" fill="#FA930D"></path>
	</g>
</svg>