<?xml version="1.0" encoding="UTF-8" standalone="no"?>
<svg width="256px" height="249px" viewBox="0 0 256 249" version="1.1" xmlns="http://www.w3.org/2000/svg" xmlns:xlink="http://www.w3.org/1999/xlink" preserveAspectRatio="xMidYMid">
	<g>
		<path d="M256,124.8323 C256,193.4083 198.692,249.0003 128,249.0003 C57.308,249.0003 0,193.4083 0,124.8323 C0,56.2563 57.308,0.6643 128,0.6643 C198.692,0.6643 256,56.2563 256,124.8323" fill="#72C7E6"></path>
		<path d="M45.6048,112.1856 C45.6048,112.1856 40.4308,86.4136 92.6468,80.5686 C94.7868,46.1416 216.1438,45.3756 185.8678,89.1916 C208.2878,96.9516 204.6468,112.5686 204.6468,112.5686 C204.6468,112.5686 205.5408,121.3836 197.7488,129.4316 C189.9558,137.4786 181.6338,142.4826 155.5928,142.4606 C145.1458,142.4526 130.2998,142.9716 112.9258,135.0516 C89.4208,139.9066 63.9338,135.0656 56.2078,129.1756 C43.3058,119.3396 45.6048,112.1856 45.6048,112.1856" fill="#FFFFFF"></path>
		<path d="M45.6048,112.1856 L45.6048,152.0416 C45.6048,152.0416 48.2878,188.0656 113.8208,173.8866 C139.8798,193.0476 200.0478,180.7846 204.6468,158.1736 L204.6468,112.5686 C205.0298,123.6826 153.2938,153.9576 114.2038,127.8986 C55.9518,140.9286 45.6048,112.1856 45.6048,112.1856" fill="#002C77"></path>
	</g>
</svg>
