<?xml version="1.0" encoding="UTF-8" standalone="no"?>
<svg width="256px" height="294px" viewBox="0 0 256 294" version="1.1" xmlns="http://www.w3.org/2000/svg" xmlns:xlink="http://www.w3.org/1999/xlink">
    <title>Cobalt.io logo</title>
    <g id="Page-1" stroke="none" stroke-width="1" fill="none" fill-rule="evenodd">
        <g id="Artboard-1" transform="translate(-1539.000000, -1834.000000)">
            <g id="Mark-only" transform="translate(1539.000000, 1834.000000)">
                <path d="M197.21025,224.207025 L206.558357,240.499303 C207.220603,241.646169 206.827705,243.112693 205.681181,243.774939 L200.863042,246.557057 C199.736026,247.207666 198.294828,246.821613 197.644218,245.694597 L188.365929,229.286297 C187.750229,228.220201 186.429844,227.829014 185.318571,228.358126 C175.753822,232.91342 165.241052,235.785206 154.177266,236.697292 C152.946207,236.798939 151.990657,237.802404 151.990657,239.037912 L151.943769,257.77896 C151.943769,259.08326 150.886229,260.1408 149.581929,260.1408 L144.030015,260.1408 C142.701758,260.1408 141.62471,259.063752 141.62471,257.735495 L141.609651,238.994789 C141.609651,237.766126 140.657523,236.768821 139.432625,236.671624 C128.360625,235.792051 118.055256,233.013356 108.474421,228.487495 C107.344667,227.953934 106.005117,228.35265 105.380518,229.435174 L96.0710845,245.53511 C95.4084963,246.682661 93.9409455,247.075902 92.7930524,246.413313 L87.9793626,243.633591 C86.8509775,242.981955 86.4642396,241.539046 87.1158759,240.410661 L96.2627422,224.477399 C96.8866567,223.396928 96.5604963,222.038554 95.5341005,221.328394 C86.6216727,215.163174 78.8790417,207.434233 72.6997904,198.532073 C71.9971594,197.520051 70.6558973,197.199367 69.5891166,197.81541 L53.5637904,207.067345 C52.4230845,207.725827 50.9644321,207.334982 50.3056086,206.194618 L47.555662,201.431923 C46.8834909,200.268287 47.2822075,198.779859 48.4461861,198.10803 L64.4191487,188.886554 C65.4859294,188.270511 65.8781433,186.949442 65.3493733,185.836458 C60.7937369,176.247752 57.8774588,165.732586 56.9790631,154.641763 C56.8791273,153.407624 55.8739508,152.449335 54.6357048,152.449335 L35.9791914,152.449335 C34.6505925,152.449335 33.5738866,151.372287 33.5738866,150.04403 L33.5738866,144.485613 C33.5738866,143.184736 34.6283465,142.130276 35.9292235,142.130276 L54.6014802,142.130276 C55.858892,142.130276 56.7795337,141.157271 56.8804963,139.903624 C57.8292021,128.107089 60.440539,118.45096 64.9869348,108.876287 C65.5198118,107.75372 65.223769,106.36865 64.1477476,105.747132 L48.0765604,96.3353668 C46.9249027,95.6703829 46.5306353,94.1976984 47.1956193,93.0460406 L49.9541219,88.2689711 C50.6149989,87.1241583 52.078785,86.7319444 53.2235979,87.3931636 L69.315662,96.576308 C70.3803893,97.1913241 71.7192556,96.8713241 72.4201754,95.8610139 C78.6038759,86.9513241 86.4478118,78.9876021 95.3684535,72.8189604 C96.3859508,72.1153027 96.7093733,70.7685647 96.0909348,69.6973348 L86.7116834,53.5809711 C86.0593626,52.4508749 86.4464428,51.0055701 87.576539,50.352907 L92.3912556,47.5728428 C93.5367529,46.9112813 95.0015658,47.3038374 95.6631273,48.4493348 L104.895897,64.537292 C105.513651,65.6071529 106.837459,66.0014203 107.954207,65.4733348 C117.535384,60.9443936 128.355149,57.8634952 139.429544,56.9815273 C140.66471,56.8833027 141.62471,55.877784 141.62471,54.6385112 L141.62471,36.0042439 C141.62471,34.6619551 142.71271,33.5739551 144.054999,33.5739551 L149.571662,33.5739551 C150.88178,33.5739551 151.943769,34.6359444 151.943769,35.9457198 L151.943769,54.6744471 C151.943769,55.9099551 152.898978,56.9134203 154.130379,57.0150674 C165.182186,57.9264684 175.960197,60.9594524 185.516732,65.5061904 C186.645459,66.0431743 187.986036,65.6458267 188.61132,64.5636449 L197.910486,48.3535059 C198.564518,47.2210139 200.01256,46.8332492 201.145052,47.486939 L205.944026,50.2581048 C207.096026,50.923431 207.490293,52.3964578 206.825309,53.5484578 L197.566871,69.7541476 C196.943641,70.8335914 197.267405,72.1916235 198.291063,72.9028107 C202.871341,76.0853561 207.328068,79.8469818 211.237544,83.799923 C214.155191,86.7493989 218.797758,87.0755594 221.980304,84.4139123 L253.293074,58.0965647 C256.59609,55.3339551 256.907534,50.352907 253.970379,47.2045861 C225.379149,16.5585112 187.755705,-3.4224599e-05 146.857309,-3.4224599e-05 C64.9643465,-3.4224599e-05 -0.000102673797,66.7817412 -0.000102673797,146.81665 C-0.000102673797,225.329249 63.2034909,293.714105 146.857309,293.714105 C188.690379,293.714105 226.54347,276.242789 252.956304,248.448308 C256.478015,244.742468 256.065266,238.799025 252.14347,235.518597 L220.754036,209.262853 C217.968496,206.932843 213.887897,207.201848 211.360753,209.809763 C207.271256,214.03034 202.766956,217.741313 197.924175,221.10388 C196.915234,221.804458 196.595919,223.143324 197.21025,224.207025" id="Fill-1" fill="#248BD2"></path>
                <path d="M146.748783,161.155833 C138.879863,161.155833 132.501082,154.777052 132.501082,146.908133 C132.501082,139.039555 138.879863,132.66009 146.748783,132.66009 C154.61736,132.66009 160.996483,139.039555 160.996483,146.908133 C160.996483,154.777052 154.61736,161.155833 146.748783,161.155833 M146.90382,103.414828 C128.194259,103.414828 112.051542,114.981373 105.678237,132.375341 C105.279863,133.462314 105.778516,134.684817 106.781296,135.263897 L123.399393,144.858079 C124.977489,145.769138 124.977489,148.046785 123.399393,148.958186 L106.778216,158.554421 C105.777489,159.132133 105.291842,160.349159 105.677553,161.438528 C111.661382,178.354379 127.783564,190.477074 146.748783,190.477074 C170.461639,190.477074 190.267756,171.858207 190.267756,146.806828 C190.267756,125.534186 172.743393,103.414828 146.90382,103.414828" id="Fill-4" fill="#423B3D"></path>
            </g>
        </g>
    </g>
</svg>
