<?xml version="1.0" encoding="UTF-8"?>
<svg width="256px" height="190px" viewBox="0 0 256 190" version="1.1" xmlns="http://www.w3.org/2000/svg" preserveAspectRatio="xMidYMid">
    <title>Codeception</title>
    <g>
        <path d="M112.532328,92.3799965 L71.1701599,62.1861069 L110.169534,127.292205 L256,6.98557056 L112.532328,92.3799965 Z M94.7883017,172.223216 C51.8360833,172.223216 17.0170783,137.471877 17.0170783,94.6037282 C17.0170783,51.7362114 51.8360833,16.983893 94.7883017,16.983893 C113.807276,16.983893 131.223558,23.8075825 144.736615,35.1223819 L155.638463,22.1398469 C139.160535,8.33475877 117.935528,-2.84217094e-14 94.7883017,-2.84217094e-14 C42.5211254,-2.84217094e-14 0,42.4392683 0,94.6037282 C0,146.76882 42.5211254,189.208088 94.7883017,189.208088 C121.893429,189.208088 146.359535,177.77654 163.651609,159.51103 L151.314575,147.882582 C137.136547,162.861482 117.063545,172.223216 94.7883017,172.223216 Z M94.7883017,149.724525 C64.2862628,149.724525 39.5600478,125.046666 39.5600478,94.6040442 C39.5600478,64.1614228 64.2862628,39.4826154 94.7883017,39.4826154 C108.294406,39.4826154 120.655459,44.3371519 130.251386,52.3724211 L138.435515,42.6254221 C126.616489,32.7226101 111.391385,26.7443558 94.7883017,26.7443558 C57.2971209,26.7443558 26.7960933,57.1858711 26.7960933,94.6040442 C26.7960933,132.021269 57.2971209,162.462626 94.7883017,162.462626 C114.230468,162.462626 131.780439,154.262695 144.183527,141.161451 L134.902386,132.414436 C124.834596,143.050485 110.607264,149.724525 94.7883017,149.724525 Z" fill="#236BFD"></path>
    </g>
</svg>
