<?xml version="1.0" encoding="UTF-8"?>
<svg width="256px" height="248px" viewBox="0 0 256 248" version="1.1" xmlns="http://www.w3.org/2000/svg" xmlns:xlink="http://www.w3.org/1999/xlink" preserveAspectRatio="xMidYMid">
    <g>
				<path d="M221.138585,124.670461 C215.204322,121.125197 210.52178,115.840956 207.734996,109.544531 C205.087786,103.420943 203.769768,95.1840498 203.780937,84.8338532 L203.780937,47.8427169 C203.881498,43.9621483 203.407306,40.087967 202.37356,36.3443474 C201.586762,33.5615881 200.038208,31.0501157 197.900112,29.0892258 C195.535782,27.1669471 192.715216,25.8779942 189.707168,25.3451836 C189.070498,25.195422 188.417073,25.0623005 187.730139,24.9458192 C183.026718,24.0914492 178.253449,23.6736432 173.472071,23.6962201 L153.031597,23.6962201 C157.819092,23.6780987 162.598023,24.1014802 167.30642,24.9624594 C167.993354,25.0789406 168.646778,25.2120622 169.283449,25.3618238 C172.287634,25.8908953 175.103693,27.1804255 177.459638,29.105866 C179.608004,31.0612924 181.163254,33.5742147 181.949841,36.3609876 C182.975357,40.1062112 183.449401,43.9791895 183.357218,47.859357 L183.357218,85.2664981 C183.357218,95.4502927 183.541517,104.535835 186.188726,110.742625 C188.744286,116.691995 193.170288,121.659901 198.804855,124.903424 C193.160367,128.2183 188.737639,133.246698 186.188726,139.247266 C183.541517,145.454055 183.357218,154.356555 183.357218,164.523711 L183.357218,201.914211 C183.449138,205.799844 182.975112,209.678275 181.949841,213.429221 C181.159596,216.209642 179.604678,218.716265 177.459638,220.667702 C175.101049,222.592146 172.286762,223.886591 169.283449,224.428385 L167.30642,224.827749 C162.596904,225.680554 157.818737,226.103867 153.031597,226.092848 L173.472071,226.092848 C178.25921,226.103867 183.037378,225.680554 187.746893,224.827749 L189.723923,224.428385 C192.731121,223.882957 195.549952,222.589073 197.916867,220.667702 C200.050985,218.710269 201.599087,216.205288 202.390315,213.429221 C203.424023,209.679917 203.898199,205.800255 203.797691,201.914211 L203.797691,164.923075 C203.797691,154.589519 205.104541,146.335985 207.751751,140.229037 C210.544984,133.93238 215.225568,128.644538 221.15534,125.086466 L220.837004,124.886784 L221.138585,124.670461 Z" fill="#0FCE7C"></path>
				<path d="M238.328729,104.853059 C234.601442,99.8522467 232.652668,93.7558364 232.790468,87.527549 L232.790468,49.7838745 C232.885969,42.5782355 232.107414,35.3875005 230.471737,28.3680804 C229.147101,22.5183933 226.305579,17.1175946 222.231071,12.7052868 C217.672939,8.15642383 211.994861,4.88223917 205.766421,3.21117312 C201.596129,2.00415071 197.324999,1.17496726 193.005066,0.733724915 C188.262542,0.226472284 183.495405,-0.0177692488 178.725694,0.00100509968 L0,0.00100509968 C0,0.00100509968 6.3222922,63.0191013 42.8714799,80.0952043 C46.0242852,98.7010072 54.5485365,125.520631 77.3855233,136.195273 C80.7218252,156.314148 90.4805084,182.568449 117.78814,190.150438 C117.761581,190.476903 117.761581,190.804976 117.78814,191.131441 C117.78814,191.131441 121.124442,247.813461 179.509725,247.813461 C184.514178,247.813461 189.034867,247.630563 193.055111,247.314647 C197.104065,247.047175 201.116271,246.378795 205.032435,245.319386 C211.398214,243.737697 217.239983,240.528313 221.980849,236.008172 C226.173122,231.695899 229.108387,226.327318 230.471737,220.478395 C232.127488,213.394731 232.906199,206.135535 232.790468,198.863075 L232.790468,160.919875 C232.676547,154.776941 234.625915,148.772311 238.328729,143.860399 C242.020902,138.972011 247.814947,136.533359 255.710862,136.544444 L255.710862,112.169014 C247.803826,112.169014 242.009781,109.730363 238.328729,104.853059 Z M207.684795,139.354435 C205.026874,145.517573 203.697914,153.648259 203.697914,163.746493 L203.697914,200.692063 C203.697914,209.748329 201.723936,215.844957 197.775979,218.98195 C196.337794,220.091219 194.725841,220.956366 193.005066,221.542534 C189.802521,222.626006 186.471108,223.285646 183.09625,223.50454 C179.759948,223.50454 149.199423,227.428552 144.211651,192.278715 L172.570217,192.278715 C171.435875,169.665766 153.3698,168.35222 151.067752,168.269084 L140.65849,168.269084 C118.055044,168.269084 107.912686,151.409133 103.341952,136.178647 L170.618481,136.178647 C170.618481,122.876911 159.975677,111.60369 149.783276,112.169014 L105.644,112.169014 C83.3908668,111.936233 73.3485979,95.2093012 68.8112274,80.0952043 L167.415631,80.0952043 C167.415631,66.7934688 158.257482,56.0855717 144.945638,56.0855717 L69.9956145,56.0855717 C47.3921689,56.0855717 40.4860239,39.225622 35.9319718,23.9944968 L173.120707,23.9944968 C177.937079,23.9757367 182.744998,24.3987466 187.483487,25.2587997 C188.167429,25.3751899 188.834689,25.5082072 189.468587,25.6578518 C190.649928,25.9124921 191.80992,26.2571325 192.938341,26.6887363 C194.678275,27.2854766 196.294866,28.192551 197.709253,29.3657105 C199.855511,31.2926271 201.416035,33.7813325 202.21326,36.5486477 C203.255375,40.2643619 203.733318,44.1146868 203.631189,47.971513 L203.631189,84.7009302 C203.631189,94.9765208 204.960149,103.146004 207.618069,109.209378 C210.475325,115.466261 215.199765,120.692088 221.146773,124.17383 C215.184495,127.715146 210.478694,133.021715 207.684795,139.354435 L207.684795,139.354435 Z" fill="#15003E"></path>
		</g>
</svg>
