<?xml version="1.0" encoding="UTF-8"?>
<svg width="256px" height="316px" viewBox="0 0 256 316" version="1.1" xmlns="http://www.w3.org/2000/svg" preserveAspectRatio="xMidYMid">
    <title>CodeIgniter</title>
    <g>
        <path d="M81.8339408,315.106502 C61.6109376,306.172131 47.86954,286.924324 46.066905,264.878985 C47.2489607,242.203216 59.2271253,221.477839 78.2483718,209.115506 C75.1257746,216.729915 75.8842604,225.398324 80.2184647,232.362602 C85.1535473,239.257927 93.6446475,242.567683 101.958439,240.843852 C113.798697,237.514395 120.733424,225.221016 117.403967,213.370907 C116.221912,209.223862 113.8578,205.460984 110.626848,202.624051 C97.2302165,191.729437 90.5023494,174.60933 92.8960122,157.499074 C95.1911704,148.436646 100.205057,140.24106 107.287541,134.054969 C101.96829,148.239637 116.970547,162.237147 127.037721,169.122621 C144.906464,179.839927 162.105374,191.621082 178.575351,204.397134 C196.572149,218.581803 206.383211,240.784749 204.846539,263.49992 C200.797998,287.672959 183.697592,307.63 160.391394,315.116353 C207.013641,304.743814 255.083907,267.706068 256,215.173542 C255.083907,173.141611 229.994774,135.424183 191.646917,118.244973 L189.942786,118.244973 C190.789926,120.30372 191.203646,122.520075 191.124842,124.75613 C191.252898,123.308112 191.252898,121.869944 191.124842,120.421926 C191.331702,122.126056 191.331702,123.840037 191.124842,125.544167 C188.209105,137.492781 176.152136,144.851077 164.173972,141.93534 C159.386646,140.753284 155.111545,138.064108 152.0382,134.183025 C136.671476,114.482096 152.0382,92.0624393 154.609171,70.3914178 C156.185245,42.6820618 143.527399,16.1941633 121.06834,-2.13162821e-14 C132.30772,18.7355831 117.335014,43.3420429 106.450251,57.3395527 C95.5457871,71.3370624 79.7850443,81.7687041 66.9400388,93.9832798 C53.1001365,106.857837 40.4127385,121.012954 29.0256018,136.143267 C4.40929149,166.216734 -5.25401398,205.884554 2.75441349,243.907346 C13.7376812,280.551074 44.1953168,308.083121 81.7551371,315.224708 L81.9619969,315.224708 L81.8339408,315.106502 Z" fill="#DD4814"></path>
    </g>
</svg>
