<?xml version="1.0" encoding="UTF-8" standalone="no"?>
<svg width="256px" height="296px" viewBox="0 0 256 296" version="1.1" xmlns="http://www.w3.org/2000/svg" xmlns:xlink="http://www.w3.org/1999/xlink" preserveAspectRatio="xMidYMid">
	<g>
		<path d="M125.305643,214.373041 L126.239812,292.10423 L127.919749,295.563636 L255.598746,221.813166 L183.29279,180.002508 L127.919749,211.94232 L125.305643,214.373041 Z" fill="#A3BAF0"></path>
		<path d="M0.240752351,221.813166 L127.919749,295.563636 L127.919749,212.022571 L72.6269592,180.082759 L72.6269592,116.203135 L72.6269568,113.083071 L4.9545453,74.3924765 L0.240752351,74.3924765 L0.240752351,221.813166 Z" fill="#4474E1"></path>
		<path d="M2.96584007,75.9665017 C13.2811402,81.9246739 50.3589941,103.34104 70.344363,114.884695 C71.1052284,115.324175 72.6269592,116.203135 72.6269592,116.203135 L127.919749,84.2633229 L183.29279,116.203135 L255.598746,74.3924765 L127.919749,0.64200627 L0.240752351,74.3924765 C0.240752351,74.3924765 1.21998708,74.9580877 2.96584007,75.9665017 Z" fill="#C7D6F7"></path>
	</g>
</svg>
