<?xml version="1.0" encoding="UTF-8"?>
<svg width="256px" height="257px" viewBox="0 0 256 257" version="1.1" xmlns="http://www.w3.org/2000/svg" xmlns:xlink="http://www.w3.org/1999/xlink" preserveAspectRatio="xMidYMid">
    <title>Commitizen</title>
    <g>
			<path d="M127.74902,194.258824 C91.5712,194.258824 62.2431373,164.930761 62.2431373,128.752941 C62.2431373,92.5751216 91.5712,63.2470588 127.74902,63.2470588 C163.926839,63.2470588 193.254902,92.5751216 193.254902,128.752941 C193.254902,164.930761 163.926839,194.258824 127.74902,194.258824 Z" fill="#3385FF"></path>
				<path d="M161.631373,229.898039 C159.967875,229.898039 158.619608,228.549773 158.619608,226.886275 C158.619608,225.222776 159.967875,223.87451 161.631373,223.87451 C163.294871,223.87451 164.643137,225.222776 164.643137,226.886275 C164.643137,228.549773 163.294871,229.898039 161.631373,229.898039 Z M156.611765,215.843137 C154.948267,215.843137 153.6,214.494871 153.6,212.831373 C153.6,211.167875 154.948267,209.819608 156.611765,209.819608 C158.275263,209.819608 159.623529,211.167875 159.623529,212.831373 C159.623529,214.494871 158.275263,215.843137 156.611765,215.843137 Z M172.172549,202.290196 C170.231969,202.290196 168.658824,200.717051 168.658824,198.776471 C168.658824,196.83589 170.231969,195.262745 172.172549,195.262745 C174.113129,195.262745 175.686275,196.83589 175.686275,198.776471 C175.686275,200.717051 174.113129,202.290196 172.172549,202.290196 Z M203.545098,181.709804 C197.446275,181.709804 192.501961,176.76549 192.501961,170.666667 C192.501961,164.567843 197.446275,159.623529 203.545098,159.623529 C209.643922,159.623529 214.588235,164.567843 214.588235,170.666667 C214.588235,176.76549 209.643922,181.709804 203.545098,181.709804 Z M186.729412,200.784314 C182.016502,200.784314 178.196078,196.96389 178.196078,192.25098 C178.196078,187.538071 182.016502,183.717647 186.729412,183.717647 C191.442322,183.717647 195.262745,187.538071 195.262745,192.25098 C195.262745,196.96389 191.442322,200.784314 186.729412,200.784314 Z M170.666667,219.858824 C167.894337,219.858824 165.647059,217.611545 165.647059,214.839216 C165.647059,212.066886 167.894337,209.819608 170.666667,209.819608 C173.438996,209.819608 175.686275,212.066886 175.686275,214.839216 C175.686275,217.611545 173.438996,219.858824 170.666667,219.858824 Z M160.12549,208.815686 C157.630243,208.815686 155.607843,206.793286 155.607843,204.298039 C155.607843,201.802792 157.630243,199.780392 160.12549,199.780392 C162.620737,199.780392 164.643137,201.802792 164.643137,204.298039 C164.643137,206.793286 162.620737,208.815686 160.12549,208.815686 Z M148.078431,211.827451 C146.137851,211.827451 144.564706,210.254306 144.564706,208.313725 C144.564706,206.373145 146.137851,204.8 148.078431,204.8 C150.019012,204.8 151.592157,206.373145 151.592157,208.313725 C151.592157,210.254306 150.019012,211.827451 148.078431,211.827451 Z M135.529412,214.839216 C132.757082,214.839216 130.509804,212.591937 130.509804,209.819608 C130.509804,207.047278 132.757082,204.8 135.529412,204.8 C138.301741,204.8 140.54902,207.047278 140.54902,209.819608 C140.54902,212.591937 138.301741,214.839216 135.529412,214.839216 Z M104.658824,219.858824 C100.084455,219.858824 96.3764706,216.150839 96.3764706,211.576471 C96.3764706,207.002102 100.084455,203.294118 104.658824,203.294118 C109.233192,203.294118 112.941176,207.002102 112.941176,211.576471 C112.941176,216.150839 109.233192,219.858824 104.658824,219.858824 Z M85.3333333,208.815686 C81.5907137,208.815686 78.5568627,205.781835 78.5568627,202.039216 C78.5568627,198.296596 81.5907137,195.262745 85.3333333,195.262745 C89.0759529,195.262745 92.1098039,198.296596 92.1098039,202.039216 C92.1098039,205.781835 89.0759529,208.815686 85.3333333,208.815686 Z M54.9647059,191.247059 C49.4200471,191.247059 44.9254902,186.752502 44.9254902,181.207843 C44.9254902,175.663184 49.4200471,171.168627 54.9647059,171.168627 C60.5093647,171.168627 65.0039216,175.663184 65.0039216,181.207843 C65.0039216,186.752502 60.5093647,191.247059 54.9647059,191.247059 Z M45.9294118,167.152941 C41.6324267,167.152941 38.1490196,163.669333 38.1490196,159.372549 C38.1490196,155.075765 41.6324267,151.592157 45.9294118,151.592157 C50.2261961,151.592157 53.7098039,155.075765 53.7098039,159.372549 C53.7098039,163.669333 50.2261961,167.152941 45.9294118,167.152941 Z M35.3882353,178.698039 C32.3387733,178.698039 29.8666667,176.225882 29.8666667,173.176471 C29.8666667,170.127059 32.3387733,167.654902 35.3882353,167.654902 C38.4376973,167.654902 40.9098039,170.127059 40.9098039,173.176471 C40.9098039,176.225882 38.4376973,178.698039 35.3882353,178.698039 Z M32.3764706,165.647059 C30.2972988,165.647059 28.6117647,163.961475 28.6117647,161.882353 C28.6117647,159.803231 30.2972988,158.117647 32.3764706,158.117647 C34.4556424,158.117647 36.1411765,159.803231 36.1411765,161.882353 C36.1411765,163.961475 34.4556424,165.647059 32.3764706,165.647059 Z M17.8196078,178.698039 C15.6017945,178.698039 13.8039216,176.900016 13.8039216,174.682353 C13.8039216,172.46469 15.6017945,170.666667 17.8196078,170.666667 C20.0374212,170.666667 21.8352941,172.46469 21.8352941,174.682353 C21.8352941,176.900016 20.0374212,178.698039 17.8196078,178.698039 Z M14.8078431,183.215686 C13.56032,183.215686 12.5490196,182.204235 12.5490196,180.956863 C12.5490196,179.70949 13.56032,178.698039 14.8078431,178.698039 C16.0553663,178.698039 17.0666667,179.70949 17.0666667,180.956863 C17.0666667,182.204235 16.0553663,183.215686 14.8078431,183.215686 Z M4.76862745,181.709804 C3.93695373,181.709804 3.2627451,181.035671 3.2627451,180.203922 C3.2627451,179.372173 3.93695373,178.698039 4.76862745,178.698039 C5.60032627,178.698039 6.2745098,179.372173 6.2745098,180.203922 C6.2745098,181.035671 5.60032627,181.709804 4.76862745,181.709804 Z M33.1294118,144.564706 C32.4363545,144.564706 31.8745098,144.003012 31.8745098,143.309804 C31.8745098,142.616596 32.4363545,142.054902 33.1294118,142.054902 C33.822469,142.054902 34.3843137,142.616596 34.3843137,143.309804 C34.3843137,144.003012 33.822469,144.564706 33.1294118,144.564706 Z M19.5764706,121.976471 C18.467589,121.976471 17.5686275,121.077459 17.5686275,119.968627 C17.5686275,118.859796 18.467589,117.960784 19.5764706,117.960784 C20.6853522,117.960784 21.5843137,118.859796 21.5843137,119.968627 C21.5843137,121.077459 20.6853522,121.976471 19.5764706,121.976471 Z M12.5490196,118.964706 C10.8856722,118.964706 9.5372549,117.616439 9.5372549,115.952941 C9.5372549,114.289443 10.8856722,112.941176 12.5490196,112.941176 C14.2123671,112.941176 15.5607843,114.289443 15.5607843,115.952941 C15.5607843,117.616439 14.2123671,118.964706 12.5490196,118.964706 Z M43.4196078,144.564706 C40.6473788,144.564706 38.4,142.317427 38.4,139.545098 C38.4,136.772769 40.6473788,134.52549 43.4196078,134.52549 C46.1918369,134.52549 48.4392157,136.772769 48.4392157,139.545098 C48.4392157,142.317427 46.1918369,144.564706 43.4196078,144.564706 Z M31.8745098,136.533333 C29.3794635,136.533333 27.3568627,134.510933 27.3568627,132.015686 C27.3568627,129.520439 29.3794635,127.498039 31.8745098,127.498039 C34.3695561,127.498039 36.3921569,129.520439 36.3921569,132.015686 C36.3921569,134.510933 34.3695561,136.533333 31.8745098,136.533333 Z M42.9176471,128.501961 C40.4226008,128.501961 38.4,126.479561 38.4,123.984314 C38.4,121.489067 40.4226008,119.466667 42.9176471,119.466667 C45.4126933,119.466667 47.4352941,121.489067 47.4352941,123.984314 C47.4352941,126.479561 45.4126933,128.501961 42.9176471,128.501961 Z M30.8705882,122.478431 C28.6527749,122.478431 26.854902,120.680408 26.854902,118.462745 C26.854902,116.245082 28.6527749,114.447059 30.8705882,114.447059 C33.0884016,114.447059 34.8862745,116.245082 34.8862745,118.462745 C34.8862745,120.680408 33.0884016,122.478431 30.8705882,122.478431 Z M42.1647059,113.945098 C36.6201976,113.945098 32.1254902,109.450541 32.1254902,103.905882 C32.1254902,98.3612235 36.6201976,93.8666667 42.1647059,93.8666667 C47.7092141,93.8666667 52.2039216,98.3612235 52.2039216,103.905882 C52.2039216,109.450541 47.7092141,113.945098 42.1647059,113.945098 Z M21.0823529,114.447059 C17.2011922,114.447059 14.054902,111.300769 14.054902,107.419608 C14.054902,103.538447 17.2011922,100.392157 21.0823529,100.392157 C24.9635137,100.392157 28.1098039,103.538447 28.1098039,107.419608 C28.1098039,111.300769 24.9635137,114.447059 21.0823529,114.447059 Z M25.0980392,98.3843137 C21.7713443,98.3843137 19.0745098,95.6872784 19.0745098,92.3607843 C19.0745098,89.0342902 21.7713443,86.3372549 25.0980392,86.3372549 C28.4247341,86.3372549 31.1215686,89.0342902 31.1215686,92.3607843 C31.1215686,95.6872784 28.4247341,98.3843137 25.0980392,98.3843137 Z M54.2117647,88.345098 C50.8852706,88.345098 48.1882353,85.6480627 48.1882353,82.3215686 C48.1882353,78.9950745 50.8852706,76.2980392 54.2117647,76.2980392 C57.5382588,76.2980392 60.2352941,78.9950745 60.2352941,82.3215686 C60.2352941,85.6480627 57.5382588,88.345098 54.2117647,88.345098 Z M68.7686275,72.2823529 C64.6103843,72.2823529 61.2392157,68.9111843 61.2392157,64.7529412 C61.2392157,60.594698 64.6103843,57.2235294 68.7686275,57.2235294 C72.9268706,57.2235294 76.2980392,60.594698 76.2980392,64.7529412 C76.2980392,68.9111843 72.9268706,72.2823529 68.7686275,72.2823529 Z M83.827451,61.2392157 C80.7780392,61.2392157 78.3058824,58.7670588 78.3058824,55.7176471 C78.3058824,52.6682353 80.7780392,50.1960784 83.827451,50.1960784 C86.8768627,50.1960784 89.3490196,52.6682353 89.3490196,55.7176471 C89.3490196,58.7670588 86.8768627,61.2392157 83.827451,61.2392157 Z M88.8470588,45.1764706 C86.9064784,45.1764706 85.3333333,43.6033255 85.3333333,41.6627451 C85.3333333,39.7221647 86.9064784,38.1490196 88.8470588,38.1490196 C90.7876392,38.1490196 92.3607843,39.7221647 92.3607843,41.6627451 C92.3607843,43.6033255 90.7876392,45.1764706 88.8470588,45.1764706 Z M107.921569,37.145098 C105.980988,37.145098 104.407843,35.5719529 104.407843,33.6313725 C104.407843,31.6907922 105.980988,30.1176471 107.921569,30.1176471 C109.862149,30.1176471 111.435294,31.6907922 111.435294,33.6313725 C111.435294,35.5719529 109.862149,37.145098 107.921569,37.145098 Z M115.952941,50.1960784 C112.903529,50.1960784 110.431373,47.7239718 110.431373,44.6745098 C110.431373,41.6250478 112.903529,39.1529412 115.952941,39.1529412 C119.002353,39.1529412 121.47451,41.6250478 121.47451,44.6745098 C121.47451,47.7239718 119.002353,50.1960784 115.952941,50.1960784 Z M122.478431,37.145098 C118.597271,37.145098 115.45098,33.9988078 115.45098,30.1176471 C115.45098,26.2364863 118.597271,23.0901961 122.478431,23.0901961 C126.359592,23.0901961 129.505882,26.2364863 129.505882,30.1176471 C129.505882,33.9988078 126.359592,37.145098 122.478431,37.145098 Z M129.505882,47.1843137 C127.010635,47.1843137 124.988235,45.1617129 124.988235,42.6666667 C124.988235,40.1716204 127.010635,38.1490196 129.505882,38.1490196 C132.001129,38.1490196 134.023529,40.1716204 134.023529,42.6666667 C134.023529,45.1617129 132.001129,47.1843137 129.505882,47.1843137 Z M149.584314,51.2 C144.039655,51.2 139.545098,46.7052925 139.545098,41.1607843 C139.545098,35.6162761 144.039655,31.1215686 149.584314,31.1215686 C155.128973,31.1215686 159.623529,35.6162761 159.623529,41.1607843 C159.623529,46.7052925 155.128973,51.2 149.584314,51.2 Z M169.662745,42.6666667 C166.197208,42.6666667 163.388235,39.8574933 163.388235,36.3921569 C163.388235,32.9268204 166.197208,30.1176471 169.662745,30.1176471 C173.128282,30.1176471 175.937255,32.9268204 175.937255,36.3921569 C175.937255,39.8574933 173.128282,42.6666667 169.662745,42.6666667 Z M172.172549,59.7333333 C168.429929,59.7333333 165.396078,56.6994824 165.396078,52.9568627 C165.396078,49.2143435 168.429929,46.1803922 172.172549,46.1803922 C175.915169,46.1803922 178.94902,49.2143435 178.94902,52.9568627 C178.94902,56.6994824 175.915169,59.7333333 172.172549,59.7333333 Z M202.792157,88.345098 C199.049537,88.345098 196.015686,85.3112471 196.015686,81.5686275 C196.015686,77.8260078 199.049537,74.7921569 202.792157,74.7921569 C206.534776,74.7921569 209.568627,77.8260078 209.568627,81.5686275 C209.568627,85.3112471 206.534776,88.345098 202.792157,88.345098 Z M192.25098,75.7960784 C189.755733,75.7960784 187.733333,73.7736784 187.733333,71.2784314 C187.733333,68.7831843 189.755733,66.7607843 192.25098,66.7607843 C194.746227,66.7607843 196.768627,68.7831843 196.768627,71.2784314 C196.768627,73.7736784 194.746227,75.7960784 192.25098,75.7960784 Z M206.807843,69.2705882 C204.312596,69.2705882 202.290196,67.2481882 202.290196,64.7529412 C202.290196,62.2576941 204.312596,60.2352941 206.807843,60.2352941 C209.30309,60.2352941 211.32549,62.2576941 211.32549,64.7529412 C211.32549,67.2481882 209.30309,69.2705882 206.807843,69.2705882 Z M184.721569,66.2588235 C182.503906,66.2588235 180.705882,64.4608 180.705882,62.2431373 C180.705882,60.0254745 182.503906,58.227451 184.721569,58.227451 C186.939231,58.227451 188.737255,60.0254745 188.737255,62.2431373 C188.737255,64.4608 186.939231,66.2588235 184.721569,66.2588235 Z M219.356863,66.2588235 C217.693365,66.2588235 216.345098,64.9105569 216.345098,63.2470588 C216.345098,61.5835608 217.693365,60.2352941 219.356863,60.2352941 C221.020361,60.2352941 222.368627,61.5835608 222.368627,63.2470588 C222.368627,64.9105569 221.020361,66.2588235 219.356863,66.2588235 Z M180.705882,43.6705882 C179.042384,43.6705882 177.694118,42.322171 177.694118,40.6588235 C177.694118,38.9954761 179.042384,37.6470588 180.705882,37.6470588 C182.36938,37.6470588 183.717647,38.9954761 183.717647,40.6588235 C183.717647,42.322171 182.36938,43.6705882 180.705882,43.6705882 Z M172.172549,29.1137255 C170.231969,29.1137255 168.658824,27.5405804 168.658824,25.6 C168.658824,23.6594196 170.231969,22.0862745 172.172549,22.0862745 C174.113129,22.0862745 175.686275,23.6594196 175.686275,25.6 C175.686275,27.5405804 174.113129,29.1137255 172.172549,29.1137255 Z M211.32549,26.1019608 C208.830243,26.1019608 206.807843,24.07936 206.807843,21.5843137 C206.807843,19.0892675 208.830243,17.0666667 211.32549,17.0666667 C213.820737,17.0666667 215.843137,19.0892675 215.843137,21.5843137 C215.843137,24.07936 213.820737,26.1019608 211.32549,26.1019608 Z M179.701961,6.5254902 C177.899922,6.5254902 176.439216,5.06473412 176.439216,3.2627451 C176.439216,1.46078118 177.899922,0 179.701961,0 C181.504,0 182.964706,1.46078118 182.964706,3.2627451 C182.964706,5.06473412 181.504,6.5254902 179.701961,6.5254902 Z M196.266667,59.2313725 C195.157835,59.2313725 194.258824,58.3323608 194.258824,57.2235294 C194.258824,56.114698 195.157835,55.2156863 196.266667,55.2156863 C197.375498,55.2156863 198.27451,56.114698 198.27451,57.2235294 C198.27451,58.3323608 197.375498,59.2313725 196.266667,59.2313725 Z M216.847059,80.3137255 C214.074729,80.3137255 211.827451,78.0664471 211.827451,75.2941176 C211.827451,72.5217882 214.074729,70.2745098 216.847059,70.2745098 C219.619388,70.2745098 221.866667,72.5217882 221.866667,75.2941176 C221.866667,78.0664471 219.619388,80.3137255 216.847059,80.3137255 Z M230.4,83.3254902 C227.904753,83.3254902 225.882353,81.3030902 225.882353,78.8078431 C225.882353,76.3125961 227.904753,74.2901961 230.4,74.2901961 C232.895247,74.2901961 234.917647,76.3125961 234.917647,78.8078431 C234.917647,81.3030902 232.895247,83.3254902 230.4,83.3254902 Z M237.929412,104.407843 C235.988831,104.407843 234.415686,102.834698 234.415686,100.894118 C234.415686,98.9535373 235.988831,97.3803922 237.929412,97.3803922 C239.869992,97.3803922 241.443137,98.9535373 241.443137,100.894118 C241.443137,102.834698 239.869992,104.407843 237.929412,104.407843 Z M209.819608,120.470588 C207.324361,120.470588 205.301961,118.448188 205.301961,115.952941 C205.301961,113.457694 207.324361,111.435294 209.819608,111.435294 C212.314855,111.435294 214.337255,113.457694 214.337255,115.952941 C214.337255,118.448188 212.314855,120.470588 209.819608,120.470588 Z M225.882353,128.501961 C223.387106,128.501961 221.364706,126.479561 221.364706,123.984314 C221.364706,121.489067 223.387106,119.466667 225.882353,119.466667 C228.3776,119.466667 230.4,121.489067 230.4,123.984314 C230.4,126.479561 228.3776,128.501961 225.882353,128.501961 Z M210.823529,136.533333 C207.912659,136.533333 205.552941,134.173616 205.552941,131.262745 C205.552941,128.351875 207.912659,125.992157 210.823529,125.992157 C213.7344,125.992157 216.094118,128.351875 216.094118,131.262745 C216.094118,134.173616 213.7344,136.533333 210.823529,136.533333 Z M223.372549,138.541176 C221.293427,138.541176 219.607843,136.855592 219.607843,134.776471 C219.607843,132.697349 221.293427,131.011765 223.372549,131.011765 C225.451671,131.011765 227.137255,132.697349 227.137255,134.776471 C227.137255,136.855592 225.451671,138.541176 223.372549,138.541176 Z M208.313725,155.607843 C204.155482,155.607843 200.784314,152.236675 200.784314,148.078431 C200.784314,143.920188 204.155482,140.54902 208.313725,140.54902 C212.471969,140.54902 215.843137,143.920188 215.843137,148.078431 C215.843137,152.236675 212.471969,155.607843 208.313725,155.607843 Z M235.419608,168.658824 C232.924361,168.658824 230.901961,166.636424 230.901961,164.141176 C230.901961,161.645929 232.924361,159.623529 235.419608,159.623529 C237.914855,159.623529 239.937255,161.645929 239.937255,164.141176 C239.937255,166.636424 237.914855,168.658824 235.419608,168.658824 Z M222.870588,146.572549 C221.20709,146.572549 219.858824,145.224282 219.858824,143.560784 C219.858824,141.897286 221.20709,140.54902 222.870588,140.54902 C224.534086,140.54902 225.882353,141.897286 225.882353,143.560784 C225.882353,145.224282 224.534086,146.572549 222.870588,146.572549 Z M237.929412,149.584314 C236.82058,149.584314 235.921569,148.685302 235.921569,147.576471 C235.921569,146.467639 236.82058,145.568627 237.929412,145.568627 C239.038243,145.568627 239.937255,146.467639 239.937255,147.576471 C239.937255,148.685302 239.038243,149.584314 237.929412,149.584314 Z M232.909804,135.027451 C231.800973,135.027451 230.901961,134.128439 230.901961,133.019608 C230.901961,131.910776 231.800973,131.011765 232.909804,131.011765 C234.018635,131.011765 234.917647,131.910776 234.917647,133.019608 C234.917647,134.128439 234.018635,135.027451 232.909804,135.027451 Z M113.443137,18.0705882 C110.94789,18.0705882 108.92549,16.0479875 108.92549,13.5529412 C108.92549,11.0578949 110.94789,9.03529412 113.443137,9.03529412 C115.938384,9.03529412 117.960784,11.0578949 117.960784,13.5529412 C117.960784,16.0479875 115.938384,18.0705882 113.443137,18.0705882 Z M109.427451,26.1019608 C108.31862,26.1019608 107.419608,25.2029992 107.419608,24.0941176 C107.419608,22.9852361 108.31862,22.0862745 109.427451,22.0862745 C110.536282,22.0862745 111.435294,22.9852361 111.435294,24.0941176 C111.435294,25.2029992 110.536282,26.1019608 109.427451,26.1019608 Z M135.027451,34.1333333 C133.91862,34.1333333 133.019608,33.2343718 133.019608,32.1254902 C133.019608,31.0166086 133.91862,30.1176471 135.027451,30.1176471 C136.136282,30.1176471 137.035294,31.0166086 137.035294,32.1254902 C137.035294,33.2343718 136.136282,34.1333333 135.027451,34.1333333 Z M145.568627,27.1058824 C143.07338,27.1058824 141.05098,25.0832816 141.05098,22.5882353 C141.05098,20.093189 143.07338,18.0705882 145.568627,18.0705882 C148.063875,18.0705882 150.086275,20.093189 150.086275,22.5882353 C150.086275,25.0832816 148.063875,27.1058824 145.568627,27.1058824 Z M37.6470588,85.3333333 C35.1520125,85.3333333 33.1294118,83.3109333 33.1294118,80.8156863 C33.1294118,78.3204392 35.1520125,76.2980392 37.6470588,76.2980392 C40.1421051,76.2980392 42.1647059,78.3204392 42.1647059,80.8156863 C42.1647059,83.3109333 40.1421051,85.3333333 37.6470588,85.3333333 Z M47.6862745,58.227451 C46.0229271,58.227451 44.6745098,56.8791843 44.6745098,55.2156863 C44.6745098,53.5521882 46.0229271,52.2039216 47.6862745,52.2039216 C49.3497725,52.2039216 50.6980392,53.5521882 50.6980392,55.2156863 C50.6980392,56.8791843 49.3497725,58.227451 47.6862745,58.227451 Z M62.745098,53.2078431 C61.6362667,53.2078431 60.7372549,52.3088314 60.7372549,51.2 C60.7372549,50.0911184 61.6362667,49.1921569 62.745098,49.1921569 C63.8539294,49.1921569 64.7529412,50.0911184 64.7529412,51.2 C64.7529412,52.3088314 63.8539294,53.2078431 62.745098,53.2078431 Z M71.7803922,53.2078431 C70.1168941,53.2078431 68.7686275,51.8595765 68.7686275,50.1960784 C68.7686275,48.532731 70.1168941,47.1843137 71.7803922,47.1843137 C73.4438902,47.1843137 74.7921569,48.532731 74.7921569,50.1960784 C74.7921569,51.8595765 73.4438902,53.2078431 71.7803922,53.2078431 Z M55.7176471,71.2784314 C54.885898,71.2784314 54.2117647,70.604298 54.2117647,69.772549 C54.2117647,68.9408 54.885898,68.2666667 55.7176471,68.2666667 C56.5493961,68.2666667 57.2235294,68.9408 57.2235294,69.772549 C57.2235294,70.604298 56.5493961,71.2784314 55.7176471,71.2784314 Z M45.1764706,74.2901961 C44.067589,74.2901961 43.1686275,73.3911843 43.1686275,72.2823529 C43.1686275,71.1735216 44.067589,70.2745098 45.1764706,70.2745098 C46.2853522,70.2745098 47.1843137,71.1735216 47.1843137,72.2823529 C47.1843137,73.3911843 46.2853522,74.2901961 45.1764706,74.2901961 Z M54.2117647,29.1137255 C52.5482667,29.1137255 51.2,27.7653082 51.2,26.1019608 C51.2,24.4386133 52.5482667,23.0901961 54.2117647,23.0901961 C55.8752627,23.0901961 57.2235294,24.4386133 57.2235294,26.1019608 C57.2235294,27.7653082 55.8752627,29.1137255 54.2117647,29.1137255 Z M7.52941176,37.145098 C6.69771294,37.145098 6.02352941,36.4709145 6.02352941,35.6392157 C6.02352941,34.8075169 6.69771294,34.1333333 7.52941176,34.1333333 C8.36111059,34.1333333 9.03529412,34.8075169 9.03529412,35.6392157 C9.03529412,36.4709145 8.36111059,37.145098 7.52941176,37.145098 Z M26.6039216,83.3254902 C24.1088753,83.3254902 22.0862745,81.3030902 22.0862745,78.8078431 C22.0862745,76.3125961 24.1088753,74.2901961 26.6039216,74.2901961 C29.0989678,74.2901961 31.1215686,76.3125961 31.1215686,78.8078431 C31.1215686,81.3030902 29.0989678,83.3254902 26.6039216,83.3254902 Z M4.51764706,96.3764706 C2.02262086,96.3764706 0,94.3540706 0,91.8588235 C0,89.3635765 2.02262086,87.3411765 4.51764706,87.3411765 C7.01269333,87.3411765 9.03529412,89.3635765 9.03529412,91.8588235 C9.03529412,94.3540706 7.01269333,96.3764706 4.51764706,96.3764706 Z M87.8431373,219.858824 C85.3478902,219.858824 83.3254902,217.836424 83.3254902,215.341176 C83.3254902,212.845929 85.3478902,210.823529 87.8431373,210.823529 C90.3383843,210.823529 92.3607843,212.845929 92.3607843,215.341176 C92.3607843,217.836424 90.3383843,219.858824 87.8431373,219.858824 Z M74.7921569,216.847059 C72.2969098,216.847059 70.2745098,214.824659 70.2745098,212.329412 C70.2745098,209.834165 72.2969098,207.811765 74.7921569,207.811765 C77.2874039,207.811765 79.3098039,209.834165 79.3098039,212.329412 C79.3098039,214.824659 77.2874039,216.847059 74.7921569,216.847059 Z M86.8392157,230.901961 C84.8986353,230.901961 83.3254902,229.328816 83.3254902,227.388235 C83.3254902,225.447655 84.8986353,223.87451 86.8392157,223.87451 C88.7797961,223.87451 90.3529412,225.447655 90.3529412,227.388235 C90.3529412,229.328816 88.7797961,230.901961 86.8392157,230.901961 Z M76.2980392,226.886275 C74.6345412,226.886275 73.2862745,225.538008 73.2862745,223.87451 C73.2862745,222.211012 74.6345412,220.862745 76.2980392,220.862745 C77.9615373,220.862745 79.3098039,222.211012 79.3098039,223.87451 C79.3098039,225.538008 77.9615373,226.886275 76.2980392,226.886275 Z M67.7647059,224.878431 C66.6558745,224.878431 65.7568627,223.97942 65.7568627,222.870588 C65.7568627,221.761757 66.6558745,220.862745 67.7647059,220.862745 C68.8735373,220.862745 69.772549,221.761757 69.772549,222.870588 C69.772549,223.97942 68.8735373,224.878431 67.7647059,224.878431 Z M96.3764706,226.886275 C95.2676392,226.886275 94.3686275,225.987263 94.3686275,224.878431 C94.3686275,223.7696 95.2676392,222.870588 96.3764706,222.870588 C97.485302,222.870588 98.3843137,223.7696 98.3843137,224.878431 C98.3843137,225.987263 97.485302,226.886275 96.3764706,226.886275 Z M56.7215686,218.854902 C54.5039059,218.854902 52.7058824,217.056878 52.7058824,214.839216 C52.7058824,212.621553 54.5039059,210.823529 56.7215686,210.823529 C58.9392314,210.823529 60.7372549,212.621553 60.7372549,214.839216 C60.7372549,217.056878 58.9392314,218.854902 56.7215686,218.854902 Z M122.478431,210.823529 C121.3696,210.823529 120.470588,209.924518 120.470588,208.815686 C120.470588,207.706855 121.3696,206.807843 122.478431,206.807843 C123.587263,206.807843 124.486275,207.706855 124.486275,208.815686 C124.486275,209.924518 123.587263,210.823529 122.478431,210.823529 Z M117.458824,223.87451 C116.349992,223.87451 115.45098,222.975498 115.45098,221.866667 C115.45098,220.757835 116.349992,219.858824 117.458824,219.858824 C118.567655,219.858824 119.466667,220.757835 119.466667,221.866667 C119.466667,222.975498 118.567655,223.87451 117.458824,223.87451 Z M181.709804,232.909804 C179.769224,232.909804 178.196078,231.336659 178.196078,229.396078 C178.196078,227.455498 179.769224,225.882353 181.709804,225.882353 C183.650384,225.882353 185.223529,227.455498 185.223529,229.396078 C185.223529,231.336659 183.650384,232.909804 181.709804,232.909804 Z M206.556863,194.258824 C204.200659,194.258824 202.290196,192.348361 202.290196,189.992157 C202.290196,187.635953 204.200659,185.72549 206.556863,185.72549 C208.913067,185.72549 210.823529,187.635953 210.823529,189.992157 C210.823529,192.348361 208.913067,194.258824 206.556863,194.258824 Z M199.529412,202.792157 C198.42058,202.792157 197.521569,201.893145 197.521569,200.784314 C197.521569,199.675482 198.42058,198.776471 199.529412,198.776471 C200.638243,198.776471 201.537255,199.675482 201.537255,200.784314 C201.537255,201.893145 200.638243,202.792157 199.529412,202.792157 Z M242.94902,203.796078 C241.840188,203.796078 240.941176,202.897067 240.941176,201.788235 C240.941176,200.679404 241.840188,199.780392 242.94902,199.780392 C244.057851,199.780392 244.956863,200.679404 244.956863,201.788235 C244.956863,202.897067 244.057851,203.796078 242.94902,203.796078 Z M219.356863,186.729412 C216.861616,186.729412 214.839216,184.707012 214.839216,182.211765 C214.839216,179.716518 216.861616,177.694118 219.356863,177.694118 C221.85211,177.694118 223.87451,179.716518 223.87451,182.211765 C223.87451,184.707012 221.85211,186.729412 219.356863,186.729412 Z M221.866667,200.784314 C219.094337,200.784314 216.847059,198.537035 216.847059,195.764706 C216.847059,192.992376 219.094337,190.745098 221.866667,190.745098 C224.638996,190.745098 226.886275,192.992376 226.886275,195.764706 C226.886275,198.537035 224.638996,200.784314 221.866667,200.784314 Z M220.360784,175.184314 C218.281663,175.184314 216.596078,173.498729 216.596078,171.419608 C216.596078,169.340486 218.281663,167.654902 220.360784,167.654902 C222.439906,167.654902 224.12549,169.340486 224.12549,171.419608 C224.12549,173.498729 222.439906,175.184314 220.360784,175.184314 Z M235.419608,216.847059 C232.924361,216.847059 230.901961,214.824659 230.901961,212.329412 C230.901961,209.834165 232.924361,207.811765 235.419608,207.811765 C237.914855,207.811765 239.937255,209.834165 239.937255,212.329412 C239.937255,214.824659 237.914855,216.847059 235.419608,216.847059 Z M128.501961,242.94902 C127.393129,242.94902 126.494118,242.050008 126.494118,240.941176 C126.494118,239.832345 127.393129,238.933333 128.501961,238.933333 C129.610792,238.933333 130.509804,239.832345 130.509804,240.941176 C130.509804,242.050008 129.610792,242.94902 128.501961,242.94902 Z M107.921569,257.003922 C106.812737,257.003922 105.913725,256.10491 105.913725,254.996078 C105.913725,253.887247 106.812737,252.988235 107.921569,252.988235 C109.0304,252.988235 109.929412,253.887247 109.929412,254.996078 C109.929412,256.10491 109.0304,257.003922 107.921569,257.003922 Z M69.2705882,243.952941 C68.1617569,243.952941 67.2627451,243.053929 67.2627451,241.945098 C67.2627451,240.836267 68.1617569,239.937255 69.2705882,239.937255 C70.3794196,239.937255 71.2784314,240.836267 71.2784314,241.945098 C71.2784314,243.053929 70.3794196,243.952941 69.2705882,243.952941 Z M250.980392,117.458824 C249.871561,117.458824 248.972549,116.559812 248.972549,115.45098 C248.972549,114.342149 249.871561,113.443137 250.980392,113.443137 C252.089224,113.443137 252.988235,114.342149 252.988235,115.45098 C252.988235,116.559812 252.089224,117.458824 250.980392,117.458824 Z M254.996078,38.1490196 C254.441412,38.1490196 253.992157,37.6995639 253.992157,37.145098 C253.992157,36.5906322 254.441412,36.1411765 254.996078,36.1411765 C255.550745,36.1411765 256,36.5906322 256,37.145098 C256,37.6995639 255.550745,38.1490196 254.996078,38.1490196 Z" fill="#99C9FF"></path>
				<path d="M170.682729,157.114227 C170.682729,157.114227 156.996267,144.920094 156.330667,143.980424 C158.805333,139.349333 160.12549,134.158055 160.12549,128.752941 C160.12549,123.462776 158.861051,118.37691 156.487278,113.821616 C157.583059,112.58629 162.290949,108.073161 170.610447,100.282729 C176.179702,108.653427 179.2,118.490353 179.2,128.752941 C179.2,138.970353 176.206306,148.76662 170.682729,157.114227 Z M156.719686,86.2283294 C156.719686,86.2283294 145.187137,98.9906824 143.558776,100.490039 C138.784627,97.8110745 133.383027,96.3764706 127.74902,96.3764706 C109.868173,96.3764706 95.372549,110.872094 95.372549,128.752941 C95.372549,146.633788 109.868173,161.129412 127.74902,161.129412 C133.223906,161.129412 138.479435,159.77462 143.153694,157.239216 C144.471341,158.459984 148.931765,163.180925 156.534965,171.402541 C148.099012,177.105318 138.14262,180.203922 127.74902,180.203922 C99.3335216,180.203922 76.2980392,157.168439 76.2980392,128.752941 C76.2980392,100.337443 99.3335216,77.3019608 127.74902,77.3019608 C138.219922,77.3019608 148.246086,80.4467451 156.719686,86.2283294 Z" fill="#FFFFFF"></path>
		</g>
</svg>
