<?xml version="1.0" encoding="UTF-8" standalone="no"?>
<svg width="256px" height="148px" viewBox="0 0 256 148" version="1.1" xmlns="http://www.w3.org/2000/svg" xmlns:xlink="http://www.w3.org/1999/xlink" preserveAspectRatio="xMidYMid">
	<g fill="#000000">
		<path d="M202.150846,29.5362716 L202.022983,29.5362716 L152.412276,0.639313238 L103.440882,29.1526836 L53.1908614,0 L1.42108547e-14,30.9427607 L1.42108547e-14,87.2023256 L102.673706,147.042045 L151.772963,118.656537 L202.150846,147.809221 L255.725295,116.86646 L255.725295,60.6068949 L202.150846,29.5362716 L202.150846,29.5362716 Z M201.89512,87.2023256 L159.828309,62.7805599 L202.278708,37.9752063 L244.345519,62.6526973 L201.89512,87.2023256 L201.89512,87.2023256 Z M102.290118,37.5916184 L144.740517,62.1412467 L102.801569,86.5630124 L60.4790323,61.8855214 L102.290118,37.5916184 L102.290118,37.5916184 Z M194.60695,33.755739 L153.051589,57.9217793 L110.729053,33.372151 L152.412276,9.07824798 L194.60695,33.755739 L194.60695,33.755739 Z M95.5133977,32.9885631 L86.9466003,37.9752063 L52.2958228,57.5381914 L10.9961877,32.9885631 L53.318724,8.43893474 L95.5133977,32.9885631 L95.5133977,32.9885631 Z M7.41603356,39.1259701 L48.971394,64.1870491 L48.971394,108.427525 L7.41603356,83.1107209 L7.41603356,39.1259701 L7.41603356,39.1259701 Z M57.2824661,68.5343791 L98.8378266,93.2118701 L98.8378266,137.324483 L57.2824661,112.646992 L57.2824661,68.5343791 L57.2824661,68.5343791 Z M156.120293,69.0458297 L198.442829,93.9790459 L198.442829,137.708071 L156.120293,112.51913 L156.120293,69.0458297 L156.120293,69.0458297 Z"></path>
		<path d="M57.2824661,112.774855 L98.8378266,137.196621 L98.8378266,93.2118701 L57.2824661,68.5343791 L57.2824661,112.774855 Z M7.41603356,82.9828583 L48.971394,108.299662 L48.971394,64.1870491 L7.41603356,39.1259701 L7.41603356,82.9828583 Z M156.120293,112.646992 L198.442829,137.835934 L198.442829,93.9790459 L156.120293,69.0458297 L156.120293,112.646992 Z" opacity="0.5"></path>
	</g>
</svg>