<?xml version="1.0" encoding="UTF-8"?>
<svg width="256px" height="256px" viewBox="0 0 256 256" version="1.1" xmlns="http://www.w3.org/2000/svg" preserveAspectRatio="xMidYMid">
    <title>ConcreteCMS</title>
    <g>
        <path d="M20.8979592,0 L235.102041,0 C246.595918,0 256,9.40408163 256,20.8979592 L256,235.102041 C256,246.595918 246.595918,256 235.102041,256 L20.8979592,256 C9.40408163,256 0,246.595918 0,235.102041 L0,20.8979592 C0,9.40408163 9.40408163,0 20.8979592,0 Z" fill="#181819"></path>
        <path d="M154.122449,213.206465 C146.808163,217.124833 137.404082,219.475853 131.918367,219.998302 C109.97551,221.826873 88.0326531,216.079935 72.8816327,201.451363 C57.9918367,185.777894 54.8571429,164.879935 68.4408163,147.639118 C80.9795918,131.704424 101.355102,124.651363 122.514286,123.86769 C134.269388,123.345241 173.97551,128.047282 162.220408,147.116669 C152.816327,162.790139 126.955102,147.116669 112.065306,152.079935 C95.3469388,157.565649 90.644898,179.769731 106.318367,189.173812 C117.812245,195.965649 134.269388,195.4432 145.240816,188.390139 C160.914286,178.202384 190.171429,130.398302 208.979592,153.124833 C212.636735,157.826873 168.489796,205.369731 154.122449,213.206465 M43.8857143,89.3860571 C42.3183673,81.5493224 44.4081633,72.6676898 52.244898,73.7125878 C59.0367347,74.7574857 61.3877551,84.4227918 62.6938776,91.2146286 C63.7387755,96.9615673 77.844898,137.712588 70.5306122,136.406465 C63.477551,134.839118 45.4530612,97.4840163 43.8857143,89.3860571 M81.5020408,43.6717714 C91.9510204,34.7901388 96.9142857,49.9411592 98.2204082,57.5166694 C99.2653061,64.8309551 112.587755,120.210547 98.4816327,119.165649 C87.7714286,118.381976 80.4571429,71.3615673 79.6734694,64.0472816 C78.6285714,58.3003429 76.277551,48.1125878 81.5020408,43.6717714 M135.314286,27.998302 C144.195918,29.8268735 141.844898,48.1125878 141.583673,54.9044245 C141.583673,62.2187102 142.367347,116.814629 130.873469,115.247282 C119.118367,113.41871 121.991837,59.3452408 121.469388,50.7248327 C121.730612,41.8432 123.036735,25.6472816 135.314286,27.998302 M162.481633,67.1819755 C163.526531,61.6962612 164.571429,51.5085061 170.840816,49.1574857 C183.118367,44.1942204 182.857143,59.6064653 181.55102,66.920751 C179.983673,73.9738122 170.579592,129.09218 158.040816,123.86769 C148.636735,119.949322 160.914286,74.2350367 162.481633,67.1819755" fill="#FFFFFF"></path>
    </g>
</svg>
