<?xml version="1.0" encoding="UTF-8"?>
<svg width="512px" height="106px" viewBox="0 0 512 106" version="1.1" xmlns="http://www.w3.org/2000/svg" preserveAspectRatio="xMidYMid">
    <title>conda</title>
    <g>
        <path d="M14.6204054,51.9000995 C19.3818824,49.1622502 23.6672118,48.6861025 25.2146918,48.5670655 C25.4527657,46.7815116 25.8098765,45.1149947 26.2860242,43.4484778 C24.7385441,42.2581084 21.7626209,39.8773699 19.0247716,36.3062621 C23.4291379,35.9491513 27.2383196,36.5443359 29.1429104,36.9014468 C30.0952058,35.2349297 31.2855751,33.6874497 32.7140182,32.1399697 C31.8807596,30.7115266 30.3332797,27.8546404 29.3809842,23.9264218 C32.9520921,25.4739019 35.5709044,27.3784926 36.8803105,28.4498249 C38.6658645,27.1404187 40.5704554,26.0690864 42.4750462,25.1167911 C42.4750462,23.450274 42.4750462,20.4743509 43.1892676,16.9032431 C45.6890432,19.5220555 47.2365232,22.021831 47.8317079,23.3312371 C50.2124464,22.8550895 52.7122219,22.6170156 55.3310343,22.7360526 C55.8071819,21.4266464 56.7594774,19.1649448 58.4259943,16.4270954 C59.6163635,19.5220555 60.0925112,22.021831 60.3305852,23.3312371 C62.9493976,23.9264218 65.4491729,24.7596802 67.8299115,25.9500495 C71.6390931,22.7360526 75.2102009,21.3076094 79.3764933,20.2362771 C79.3764933,14.9986523 78.6622718,9.88006449 75.9244225,4.76147662 C73.1865733,3.45207042 70.21065,2.49977501 67.2347268,1.78555345 C64.1397667,3.45207042 61.6399914,5.35666124 59.4973267,7.38028899 C57.9498467,4.99955046 55.9262188,2.49977501 53.4264433,0.238073408 C52.2360741,0.238073408 49.9743725,0.119036483 45.5700063,0.833258045 C43.4273415,3.57110735 41.8798616,6.30895666 40.6894922,9.04680597 C38.0706799,7.38028899 34.8566829,5.95184588 31.1665382,4.99955046 C29.0238735,5.95184588 27.0002457,7.02317821 24.976618,8.21354749 C24.2623964,11.6656184 24.0243226,14.8796154 24.1433595,17.8555386 C21.0483994,17.2603538 17.4772916,17.02228 13.6681099,17.4984278 C12.3587037,18.9268709 11.0492976,20.4743509 9.8589283,22.1408678 C10.0970022,26.4261973 11.1683345,30.1163419 12.7158145,33.330339 C9.14470675,34.1635975 5.45456202,35.7110776 2.00249116,38.0918161 C1.52634345,39.6392961 1.16923266,41.305813 0.81212189,42.8532931 C2.95478656,46.5434378 5.69263588,49.5193609 8.43048519,51.7810626 C5.69263588,54.0427642 2.95478656,57.1377243 0.45501111,61.3040167 C0.693084962,63.0895706 1.05019574,64.7560876 1.52634345,66.4226045 L1.64538038,66.4226045 C4.50226661,60.4707582 7.95433748,56.5425396 11.2873714,53.9237272 C18.0724762,58.5661675 24.7385441,59.8755736 25.6908395,59.9946105 C25.5718025,58.9232782 25.3337287,57.8519458 25.2146918,56.4235027 C23.1910641,55.9473551 19.0247716,54.6379488 14.6204054,51.9000995 Z M73.9007947,16.3080585 C71.75813,17.1413169 68.4250961,18.6887969 65.2110991,21.3076094 C64.7349514,19.0459078 63.9016929,15.7128739 62.116139,11.9036922 C64.2588038,9.76102748 66.9966531,7.61836286 70.4487239,5.83280896 C72.8294624,9.40391675 73.6627209,13.8082831 73.9007947,16.3080585 Z M56.1642927,11.3085076 C53.6645172,14.5225045 52.1170371,17.6174647 51.2837787,19.7601293 C50.0934095,17.6174647 47.9507448,14.7605784 44.7367477,11.9036922 C45.80808,9.16584289 47.3555601,6.18991974 49.6172617,3.45207042 C52.4741479,5.83280896 54.6168126,8.68969519 56.1642927,11.3085076 Z M39.3800861,13.5702092 C38.1897167,17.7365016 37.951643,21.4266464 37.951643,23.8073848 C35.8089782,22.2599047 32.7140182,20.355314 28.6667627,19.0459078 C28.3096519,16.1890216 28.4286888,12.8559876 29.2619473,9.28487982 C33.4282398,10.1181383 36.6422368,11.6656184 39.3800861,13.5702092 Z M28.4286888,32.8541913 C25.6908395,32.3780435 21.5245471,32.0209328 16.882107,32.6161174 C15.3346269,29.6401942 14.1442577,25.9500495 13.9061838,21.7837571 C17.9534394,21.3076094 21.643584,21.6647202 24.857581,22.3789417 C25.6908395,27.0213819 27.2383196,30.5924897 28.4286888,32.8541913 Z M14.7394423,36.9014468 C17.2392177,40.8296654 20.3341778,43.6865515 22.4768425,45.4721054 C19.7389932,45.9482532 15.6917377,47.0195856 11.4064083,49.7574348 C8.78759597,47.733807 6.16878358,44.9959577 4.02611891,41.4248499 C7.47818977,38.9250745 11.2873714,37.6156683 14.7394423,36.9014468 Z" fill="#FFFFFF"></path>
        <path d="M52.1439812,0.106041965 L53.1497348,0.112304365 L53.223,0.115041965 L53.5454803,0.113103968 C58.5406189,0.113103968 63.0561284,0.611569297 67.3833006,1.66412469 L67.6998639,1.7411266 L67.661,1.76204197 L68.0059075,1.84714443 C70.9501491,2.59413487 73.6098909,3.5180681 76.0346187,4.70253451 L76.058,4.74804197 L76.5639057,5.01890256 C76.8435881,5.17146285 77.1799895,5.35786747 77.5653605,5.57531484 L78.1460578,5.90553624 C80.6677841,7.35086439 83.2195975,8.95012842 85.5270276,10.6042651 L86.0814736,11.0064684 C87.4602367,12.0188214 88.6760253,13.0051493 89.6895817,13.9470864 C91.8402225,15.5916941 92.1988395,19.0184787 90.3074986,21.0272225 L90.1371781,21.2322525 C89.5572889,21.9043281 88.0038491,23.5451876 86.2462908,25.3425335 L85.2683414,26.3372214 L84.3757854,27.2351983 L83.0375545,28.5606734 C81.5455268,30.0215887 80.479886,30.9988162 80.0254066,31.3005042 C77.7579618,32.3802398 75.9904445,32.0140501 73.9226468,30.2824885 L73.6999115,30.0917431 C71.8689812,28.5049367 69.9692072,27.2189359 67.8930604,26.1808625 L67.877,26.049042 L67.7740235,26.0618256 C65.5552474,24.9524376 63.1603566,24.1171171 60.5058402,23.4997599 L60.4234373,23.5724695 C58.7625883,23.2165733 57.1018447,22.9793242 55.4411675,22.8607045 L55.406,22.806042 L55.3253597,22.8608931 C52.875778,22.7495485 50.4408406,22.9469851 47.9862822,23.428028 L47.9743449,23.4539579 C46.6927666,23.7004153 45.4362739,24.0669548 44.291226,24.4958334 L43.9601639,24.6231889 C43.3123592,24.8788242 42.7696005,25.1302929 42.6762236,25.2027852 L42.573,25.159042 L42.5309342,25.2285672 C40.3616304,26.313219 38.5716718,27.3644644 36.9542129,28.5506009 L36.806,28.546042 L36.5892455,28.7150704 C35.7666734,29.3659903 35.0343057,30.0185421 34.242158,30.7820187 L33.1206202,31.883099 L32.9447335,32.0451464 C32.9091084,32.0758593 32.8793682,32.099442 32.854191,32.116848 C32.8400919,32.1265953 32.8269447,32.1349037 32.8141181,32.1417435 L32.8058462,32.224734 C31.3570106,33.7943058 30.2186996,35.2942803 29.3166089,36.8501857 L29.3700631,36.9641232 L29.2242051,37.2157228 C27.8690982,39.5794083 26.6760501,42.5440353 26.5319159,43.3551708 L26.5193954,43.4505094 L26.398,43.510042 L26.2060589,44.2101464 C25.8223589,45.6609895 25.5372923,47.0931272 25.338565,48.583582 L25.278,48.639042 L25.3384052,48.7037759 C24.9889716,51.1498113 24.9830528,53.8258943 25.3207533,56.3930552 L25.3392295,56.4131246 C25.3757121,56.8509154 25.4218497,57.2535937 25.4875017,57.7226854 L25.7065553,59.1670349 C25.7527243,59.4755277 25.7868884,59.7287183 25.8140552,59.9719284 C25.8602708,59.9786599 25.9033664,59.9845121 25.944414,59.989643 L26.0501918,60.0834991 C31.2573621,81.0305252 56.0108698,89.1457609 73.2291448,75.6086394 C75.9753094,73.4842479 77.9105255,73.0764853 79.8944797,74.1160968 C80.893396,74.6395388 81.872957,75.4761548 83.3918292,77.0356005 L85.9425894,79.7126907 C86.7985989,80.6054226 87.5663079,81.3819108 88.3560082,82.1456033 L88.7532016,82.5268623 C88.7904736,82.5672403 89.6678398,83.4721714 89.9556002,83.7966538 C92.1785417,86.3032718 92.5010294,88.6711989 89.823151,91.5065974 C77.9896494,103.917343 58.923446,108.52826 40.6300522,104.05551 C21.5868891,99.3994402 6.74272595,85.8494042 1.64360358,66.573601 L1.68,66.525042 L1.64538038,66.547574 L1.52634345,66.547574 L1.40618234,66.4569363 C0.91648534,64.7429968 0.564615512,63.0716151 0.347850699,61.2397205 L0.595,60.833042 L0.571220357,60.6729724 C-0.27706218,54.8348501 -0.18742741,48.7762552 0.886184671,43.1619523 L0.690352768,42.8251925 L1.18944624,40.659539 L1.24116919,40.443306 C1.46195598,39.5261915 1.66532844,38.7626528 1.93154189,37.9889396 L2.045,37.911042 L2.22268208,37.3349958 C3.81126205,32.2890142 6.28102889,27.2916209 9.42259553,22.7190032 L9.766,22.227042 L9.75723649,22.0682308 C10.8564669,20.5293083 12.111395,19.0117208 13.6526093,17.3744234 L13.981,17.336042 L14.2518924,17.0465928 C14.846966,16.4178991 15.4487437,15.816225 16.058287,15.24151 L16.6775065,14.6694947 C18.9690788,12.5168056 21.4794723,10.5706086 24.1737077,8.85197249 L24.8,8.45804197 L24.8542404,8.18822798 L24.913256,8.10583205 C27.0575198,6.84450034 29.0689876,5.7950389 31.1977653,4.87854539 L31.474,4.95204197 L31.8386105,4.7943424 C35.7673276,3.09953394 39.9130131,1.85123121 44.1677489,1.08038507 L45.0201181,0.932591098 L45.426,0.867041965 L45.5500023,0.709900026 C48.236058,0.274323408 50.2500705,0.114482692 52.1439812,0.106041965 Z M10.2061869,54.9826034 L10.1448294,55.0363004 C7.16843719,57.6531278 4.53410386,61.0473649 2.32628773,65.3339193 L2.03970798,65.9001751 L1.787,66.416042 L1.80576353,66.4163115 L2.05906594,65.9089019 C4.36409594,61.3598843 7.14814844,57.695794 10.2061869,54.9826034 Z M52.5810186,0.355979602 L52.1445599,0.355979602 C50.3225802,0.364100851 48.3875819,0.513415159 45.9093978,0.874730629 L45.7874572,1.02931466 C43.7705283,3.60650155 42.1944077,6.29174404 40.9231349,9.21567147 L40.7414361,9.2712748 C38.0895664,7.58372133 35.1859865,6.29212121 31.8821548,5.40255027 L31.3805313,5.26626518 L31.3428592,5.28457832 C29.3598772,6.16791142 27.4400535,7.16392826 25.5968475,8.2664882 L25.1850463,8.51447086 L25.0818878,9.04319971 C24.5446326,11.8647712 24.3121023,14.5999089 24.3655985,17.2491806 L24.3872659,17.9695807 L24.2387962,18.0972963 C21.0703623,17.487982 17.7596643,17.3189373 14.4337922,17.6688383 L13.9647901,17.7212194 L13.8545924,17.8407894 C12.7802696,19.0162158 11.730866,20.2774838 10.7191837,21.571896 L10.3676698,22.0271664 L10.1197304,22.3920772 L10.1644313,23.0074406 C10.4539118,26.4860313 11.3098222,29.7008774 12.6837742,32.7135945 L12.9474492,33.2761253 L12.8632483,33.4520393 C9.23562357,34.2984851 5.68360217,35.8672946 2.19084865,38.1957969 L2.079,38.269042 L2.01191951,38.4950765 C1.86644227,38.9917366 1.724957,39.522926 1.57732653,40.1198706 L1.4325888,40.7174284 L1.10397905,42.1236839 C1.03920649,42.3899619 0.959709236,42.7001891 0.92019408,42.7905415 L0.949,42.838042 L0.991475202,42.6223242 L1.15826793,42.9095784 C3.14391907,46.3293109 5.75684808,49.3326776 8.74814976,51.8037528 L8.74856252,51.9961037 C5.53658517,54.6727514 2.98390521,57.6843402 0.921951711,61.4826755 L0.746742935,61.8054285 L0.688721987,61.4427976 L0.647702806,61.1747158 C0.624731491,61.2122437 0.60179196,61.2498386 0.578884306,61.2875003 C0.777611652,62.7779554 1.06267825,64.2100932 1.44637821,65.660936 L1.6018134,66.2263579 L1.81617344,65.7883639 C4.29440488,60.804929 7.33299491,56.9800155 10.8073488,54.1478532 L11.2101626,53.8254615 L11.3579396,53.820589 L11.538,53.941042 L11.5960136,53.939626 C13.0980611,54.9673427 14.6481916,55.8705402 16.2211386,56.6560207 C17.7080524,57.3851522 19.2139142,58.0107444 20.7177224,58.5375021 C22.59964,59.1967049 24.3679528,59.6510509 25.3811428,59.8221192 L25.5479576,59.8479177 L25.4491884,59.1367612 L25.3292495,58.3619764 C25.2458334,57.8197723 25.1859435,57.3845975 25.1397103,56.954349 L25.11,56.646042 L24.995137,56.6183208 C21.9015819,55.8603723 18.1367552,54.352122 14.5544298,52.1252711 L14.555,52.007042 L14.5581118,51.7917627 C18.2060521,49.694197 21.6113159,48.7739623 24.7915664,48.4776243 L25.1040661,48.4507048 L25.1981856,47.8046087 C25.3511573,46.8155772 25.5436944,45.8468671 25.779423,44.8756664 L25.9643746,44.1464425 L26.1438119,43.4949167 L25.6978351,43.1492447 L25.3469282,42.8703527 C23.9446207,41.841979 22.4677403,40.5050895 21.0734462,38.9334481 C20.4868083,38.3001194 19.9124579,37.6324535 19.3441958,36.9182845 L18.925595,36.3822975 L19.0146721,36.1817014 C19.9721001,36.1040721 20.9084025,36.0669557 21.8278417,36.0656566 C24.3473582,36.0539851 26.7394033,36.3115952 29.0911393,36.7426787 L29.2921283,36.4007563 C30.0840336,35.0888794 31.0462098,33.8119385 32.2222107,32.4955607 L32.559243,32.1226977 L32.3416544,31.7421083 C31.1237183,29.5831195 30.1310742,27.2978721 29.4098984,24.5515431 L29.2595327,23.9558646 L29.2004076,23.7119737 L29.337,23.770042 L29.4293133,23.6921387 C32.4661788,24.965663 34.7927503,26.4613162 36.9594459,28.234067 L36.959,28.238042 L37.2554092,28.0262915 C38.4649131,27.1740073 39.7750911,26.3862203 41.2659174,25.5976293 L41.8336013,25.3017425 L42.3498488,25.0394298 L42.3504428,24.6917469 C42.356697,22.1311862 42.4979382,19.9770014 42.9389061,17.5483966 L43.066725,16.8787345 L43.279665,16.8169547 L43.303,16.841042 L43.3966714,16.8148763 C45.3806721,18.7988771 46.5948361,20.5955483 48.0045231,23.1690687 L48.4934378,23.0786978 C50.3222242,22.7516804 52.1421237,22.5822217 53.9669497,22.5807015 L54.6515174,22.5880238 L55.2446955,22.6080244 L55.3630655,22.2922579 C55.9823771,20.6693383 56.859342,18.8261909 58.0224821,16.8569898 L58.4513957,16.1450143 L58.537,16.369042 L58.6616709,16.382234 C59.719279,19.132015 60.3889744,21.635943 60.5570296,23.2571264 L61.0411784,23.3706958 C63.2987455,23.9246344 65.3704736,24.6417907 67.3083877,25.5575517 L67.8116224,25.8022433 L68.1213351,25.5454048 C71.3420254,22.9104826 74.4900918,21.4148656 78.8382607,20.2484202 L79.250825,20.139628 L79.2480491,19.6185984 C79.2434909,19.2173939 79.234423,18.82164 79.2206982,18.4310273 C78.871046,15.5372068 77.9439887,11.682262 76.7270057,7.54051382 L76.3453721,6.26475272 L75.97,5.06704197 L75.8705038,4.87421583 C73.3395716,3.66376999 70.4814422,2.69820065 67.3763618,1.91627468 L67.4130118,1.89558543 C64.516952,3.45500225 62.0101717,5.29136457 59.7021705,7.47114342 L59.5970676,7.45798997 C59.5924221,7.46237307 59.5877775,7.46675755 59.5831336,7.47114342 L59.3925468,7.44839588 C57.7222569,4.87871901 55.678264,2.44396282 53.4264433,0.363042848 L52.5810186,0.355979602 Z M14.8339707,36.7789042 L14.9639111,36.8343537 C16.9373094,39.9354081 19.3218239,42.5108945 22.1419904,44.9252157 L22.8954346,45.559061 L22.6120428,45.5960251 L22.1763093,45.6580376 L22.4982549,45.5952268 C20.916815,45.8702598 19.3468722,46.2622591 17.7859267,46.7996852 C15.7578764,47.5258321 13.6512551,48.5475758 11.5927276,49.8627461 L11.4796902,49.8589139 L11.329996,49.8563213 C8.4575833,47.6367295 5.92544546,44.8332911 3.9189585,41.4891462 L3.95282311,41.3236319 C7.07864139,39.0601084 10.679722,37.6137727 14.7141228,36.7790691 L14.7527072,36.7952749 C14.779787,36.7897802 14.8068748,36.7843233 14.8339707,36.7789042 Z M24.8846907,22.2569482 L24.9805848,22.3568641 C25.6501259,26.0871641 26.8078666,29.3755703 28.2630005,32.2599012 L28.6576263,33.0208518 L28.526,32.998042 L28.5385894,33.0208518 L28.2882395,32.9773127 C24.7485314,32.3617112 20.8821839,32.2436548 16.7816081,32.8587411 L16.651294,32.7910423 C14.9098461,29.3081467 13.8821053,25.7550999 13.662381,21.9099235 L13.7694735,21.7790806 L13.793,21.776042 L13.8915822,21.6596436 C17.6329064,21.2194879 21.2850348,21.4570247 24.8846907,22.2569482 Z M29.2864558,9.1623372 C33.1724068,9.93952736 36.4260593,11.3630003 39.4514517,13.4676212 L39.5002472,13.604541 C38.488383,17.1460653 38.0766124,20.5872914 38.0766124,23.8073848 L37.8784745,23.9086949 L37.828,23.873042 L37.7594375,23.9086949 C34.9788798,21.9005143 31.9891362,20.2906523 28.5092577,19.1648093 L28.423188,19.0562859 C28.205451,16.4434423 28.3076593,13.7515414 28.7774399,11.0419232 C28.7911439,10.9668648 28.8043295,10.8919834 28.8178116,10.8170538 L28.7774399,11.0419232 C28.8066748,10.873301 28.8373331,10.7046102 28.8694265,10.5358656 C28.9041802,10.3542475 28.9403924,10.1721339 28.9783575,9.98979447 C28.9857155,9.9540911 28.99315,9.91873669 29.0006479,9.88338076 C29.0448886,9.674827 29.0914132,9.46577039 29.1402469,9.25648307 L29.2864558,9.1623372 Z M65.2883079,21.4058752 L65.0891055,21.3347191 L65.089,21.333042 L65.075,21.273042 L64.9338874,20.6506103 C64.202864,17.4970426 63.3682637,14.8693295 62.0029843,11.9567334 L62.0254171,11.8177451 C64.3517378,9.36218449 67.1334268,7.29706854 70.3772563,5.72854735 C70.3818997,5.72667765 70.3866044,5.72424285 70.3913101,5.7218089 L70.474,5.74304197 L70.5527047,5.76348838 C72.563537,8.77973681 73.6778298,12.6488089 74.0252012,16.2962103 L74.001,16.335042 L73.9483768,16.423615 C70.9355039,17.6642097 68.0723271,19.2222601 65.3112535,21.3878623 C65.3039779,21.3931377 65.2970076,21.3988119 65.2900389,21.4044901 Z M49.6972652,3.35606623 C52.4033295,5.61111988 54.6042049,8.29437885 56.2730865,11.2470155 L56.263,11.375042 L56.2629376,11.3852314 C54.0795072,14.192499 52.4325735,17.1508799 51.4002508,19.805424 L51.352,19.929042 L51.3087649,20.0406734 L51.3037874,20.0534728 L51.1745358,19.8208199 L51.165,19.805042 L50.865782,19.3243495 C49.1883843,16.6713591 47.2349383,14.3149823 44.6557092,12.1178613 L44.6197352,11.9788494 L44.637,11.931042 L44.6203708,11.8581534 C45.8408207,8.73922599 47.4483885,5.88132762 49.5209151,3.3724797 L49.6972652,3.35606623 Z" fill="#43B02A"></path>
        <path d="M54.4977759,89.158657 C63.5445822,89.158657 71.7581302,85.9446601 78.1861242,80.4689614 C78.6622719,80.2308875 83.0666382,85.2304385 84.8521921,87.1350294 C85.2093029,87.611177 85.2093029,87.7302139 85.2093029,87.7302139 C63.5445822,106.657085 26.762172,103.919235 9.38278073,71.1840811 C10.8112238,66.4226041 12.8348516,63.5657179 12.8348516,63.5657179 C17.4772917,65.4703087 20.9293626,65.5893456 20.9293626,65.5893456 C24.7385443,75.7074844 38.07068,89.158657 54.4977759,89.158657 Z" fill="#FFFFFF"></path>
        <path d="M150.560575,0.119036927 C179.843659,0.119036927 203.174896,23.6883484 203.174896,52.8523954 C203.174896,82.0164423 179.724622,105.347679 150.560575,105.347679 C121.396528,105.347679 98.0652899,82.1354792 98.0652899,52.8523954 C98.0652899,23.8621422 120.815568,0.588625698 149.68392,0.126054391 L150.560575,0.119036927 Z M150.560575,86.4208086 C169.011298,86.4208086 184.248025,71.3031189 184.248025,52.9714323 C184.248025,34.6397455 169.011298,19.1649452 150.560575,19.1649452 C132.109851,19.1649452 117.111199,34.5207087 117.111199,52.9714323 C117.111199,71.2376486 131.811378,86.1204904 150.0081,86.4163205 L150.560575,86.4208086 Z M219.006807,2.7378493 C219.006807,1.30940619 220.316213,0.119036927 221.744656,0.119036927 L225.434802,0.119036927 L286.262671,64.7560881 L286.381708,64.7560881 L286.381708,4.40436628 C286.381708,2.97592316 287.572077,1.66651697 289.119556,1.66651697 L302.57073,1.66651697 C303.999173,1.66651697 305.308579,2.97592316 305.308579,4.40436628 L305.308579,102.847904 C305.308579,104.276348 303.999173,105.466717 302.57073,105.466717 L299.118658,105.466717 L237.933678,38.3298903 L237.814642,38.3298903 L237.814642,101.181388 C237.814642,102.609831 236.624273,103.919237 235.076793,103.919237 L221.744656,103.919237 C220.316213,103.919237 219.006807,102.609831 219.006807,101.181388 L219.006807,2.7378493 Z M365.30319,1.66651697 C393.514941,1.66651697 416.608105,24.6406438 416.608105,52.7333584 C416.608105,81.064147 393.514941,104.038273 365.30319,104.038273 L330.663444,104.038273 C329.235001,104.038273 328.044632,102.728868 328.044632,101.300425 L328.044632,4.40436628 C328.044632,2.97592316 329.235001,1.66651697 330.663444,1.66651697 L365.30319,1.66651697 Z M464.222875,0 C465.651319,0 466.246504,0.714221559 466.722651,1.66651697 L511.718609,100.110055 C512.551868,102.014646 511.480536,103.919237 509.218834,103.919237 L496.481883,103.919237 C494.339218,103.919237 493.267886,103.085978 492.196554,100.943314 L485.054338,85.1114024 L441.367786,85.1114024 L434.22557,100.943314 C433.630387,102.371757 432.32098,103.919237 429.940241,103.919237 L417.20329,103.919237 C415.179663,103.919237 413.989293,102.014646 414.822552,100.110055 L460.294657,1.66651697 C460.770805,0.833258489 461.485027,0 462.794433,0 L464.222875,0 Z M363.636673,19.2839821 L346.971503,19.2839821 L346.971503,86.0636978 L363.636673,86.0636978 C382.682581,86.0636978 396.490865,71.7792666 396.490865,52.6143214 C396.490865,33.5684133 382.563545,19.2839821 363.636673,19.2839821 Z M463.389617,36.9014472 L462.91347,36.9014472 L448.629038,69.0414173 L478.03116,69.0414173 L463.389617,36.9014472 Z" fill="#43B02A"></path>
    </g>
</svg>
