<?xml version="1.0" encoding="UTF-8"?>
<svg width="256px" height="259px" viewBox="0 0 256 259" version="1.1" xmlns="http://www.w3.org/2000/svg" preserveAspectRatio="xMidYMid">
    <title>Consul</title>
    <g>
        <path d="M216.745115,34.1670844 L186.192292,66.2251728 C152.21161,35.5872594 100.065089,37.384755 68.2747392,70.2898021 C36.4843893,103.194849 36.4843893,155.372341 68.2747392,188.277388 C100.065089,221.182435 152.21161,222.979931 186.192292,192.342018 L216.745115,224.278057 C192.922276,246.255825 161.689151,258.444007 129.276981,258.411105 C71.4480872,258.438385 20.6435263,220.036403 4.89468049,164.393295 C-10.8541653,108.750186 12.2885721,49.4186659 61.5539027,19.1348607 C110.819233,-11.1489446 174.207846,-5.00895899 216.745115,34.1670844 Z M233.262353,172.610834 C239.104168,172.610834 243.839895,177.346561 243.839895,183.188376 C243.839895,189.030191 239.104168,193.765918 233.262353,193.765918 C227.420538,193.765918 222.684812,189.030191 222.684812,183.188376 C222.684812,177.346561 227.420538,172.610834 233.262353,172.610834 Z M245.422458,136.443777 C251.264273,136.443777 256,141.179504 256,147.021319 C255.977696,152.853871 251.255009,157.576557 245.422458,157.598861 C239.580643,157.598861 234.844916,152.863134 234.844916,147.021319 C234.844916,141.179504 239.580643,136.443777 245.422458,136.443777 Z M128.459255,101.212427 C143.917597,101.212427 156.449058,113.743888 156.449058,129.20223 C156.449058,144.660571 143.917597,157.192033 128.459255,157.192033 C113.000914,157.192033 100.469452,144.660571 100.469452,129.20223 C100.469452,113.743888 113.000914,101.212427 128.459255,101.212427 Z M213.937998,135.223292 C219.779813,135.223292 224.51554,139.959019 224.51554,145.800834 C224.51554,151.642649 219.779813,156.378375 213.937998,156.378375 C208.096183,156.378375 203.360456,151.642649 203.360456,145.800834 C203.360456,139.959019 208.096183,135.223292 213.937998,135.223292 Z M213.937998,102.066766 C219.779813,102.066766 224.51554,106.802493 224.51554,112.644308 C224.51554,118.486123 219.779813,123.22185 213.937998,123.22185 C208.096183,123.22185 203.360456,118.486123 203.360456,112.644308 C203.360456,106.802493 208.096183,102.066766 213.937998,102.066766 Z M245.422458,100.846281 C251.264273,100.846281 256,105.582008 256,111.423823 C255.977696,117.256374 251.255009,121.97906 245.422458,122.001365 C239.580643,122.001365 234.844916,117.265638 234.844916,111.423823 C234.844916,105.582008 239.580643,100.846281 245.422458,100.846281 Z M233.868528,65.2487843 C239.710343,65.2487843 244.44607,69.9845111 244.44607,75.8263261 C244.44607,81.6681412 239.710343,86.403868 233.868528,86.403868 C228.026713,86.403868 223.290986,81.6681412 223.290986,75.8263261 C223.290986,69.9845111 228.026713,65.2487843 233.868528,65.2487843 Z" fill="#E03875"></path>
    </g>
</svg>
