<?xml version="1.0" encoding="UTF-8" standalone="no"?>
<svg width="256px" height="256px" viewBox="0 0 256 256" version="1.1" xmlns="http://www.w3.org/2000/svg" xmlns:xlink="http://www.w3.org/1999/xlink" preserveAspectRatio="xMidYMid">
    <g>
        <path d="M128,256 C198.692448,256 256,198.692448 256,128 C256,57.307552 198.692448,0 128,0 C57.307552,0 0,57.307552 0,128 C0,198.692448 57.307552,256 128,256 L128,256 Z M128,229.877551 C71.7345822,229.877551 26.122449,184.265418 26.122449,128 C26.122449,71.7345822 71.7345822,26.122449 128,26.122449 C184.265418,26.122449 229.877551,71.7345822 229.877551,128 C229.877551,184.265418 184.265418,229.877551 128,229.877551 L128,229.877551 Z M126.955102,56.1632653 C92.9959184,56.1632653 64.522449,79.9346939 57.2081633,111.804082 L91.4285714,111.804082 C97.6979592,98.2204082 111.281633,88.8163265 126.955102,88.8163265 C148.636735,88.8163265 166.138776,106.318367 166.138776,128 C166.138776,149.681633 148.636735,167.183673 126.955102,167.183673 C111.281633,167.183673 97.6979592,157.779592 91.4285714,144.457143 L57.2081633,144.457143 C64.522449,176.065306 92.9959184,199.836735 126.955102,199.836735 C166.661224,199.836735 198.791837,167.706122 198.791837,128 C198.791837,88.2938776 166.661224,56.1632653 126.955102,56.1632653 L126.955102,56.1632653 Z" fill="#000000"></path>
    </g>
</svg>