<?xml version="1.0" encoding="UTF-8" standalone="no"?>
<svg width="512px" height="89px" viewBox="0 0 512 89" version="1.1" xmlns="http://www.w3.org/2000/svg" xmlns:xlink="http://www.w3.org/1999/xlink" preserveAspectRatio="xMidYMid">
	<g>
		<g transform="translate(2.813187, 2.813187)" fill="#DCE1E2">
			<path d="M52.043956,26.443956 C50.6373626,24.9435897 49.3245421,23.7245421 47.9179487,22.8805861 C46.6051282,22.03663 44.7296703,21.6615385 42.385348,21.6615385 C39.4783883,21.6615385 36.9465201,22.4117216 34.8835165,23.818315 C32.8205128,25.2249084 31.0388278,27.0065934 29.6322344,29.2571429 C28.225641,31.4139194 27.1003663,33.7582418 26.2564103,36.3838828 C25.4124542,38.9157509 24.8498168,41.3538462 24.4747253,43.6043956 C24.2871795,44.7296703 24.1934066,45.7611722 24.0996337,46.8864469 C24.0058608,48.0117216 23.9120879,49.1369963 23.9120879,50.2622711 C23.9120879,52.2315018 24.0996337,54.1069597 24.4747253,55.8886447 C24.8498168,57.6703297 25.4124542,59.3582418 26.2564103,60.7648352 C27.1003663,62.1714286 28.225641,63.2967033 29.6322344,64.1406593 C31.0388278,64.9846154 32.8205128,65.359707 35.0710623,65.359707 C37.6029304,65.359707 39.8534799,64.8908425 41.7289377,63.9531136 C43.6043956,63.0153846 45.5736264,61.796337 47.7304029,60.1084249 L42.8542125,83.0827839 C40.4161172,84.1142857 38.1655678,84.8644689 35.9150183,85.3333333 C33.6644689,85.8021978 31.3201465,86.0835165 28.8820513,86.0835165 C24.9435897,86.0835165 21.2864469,85.4271062 17.9106227,84.1142857 C14.5347985,82.8014652 11.5340659,80.8322344 9.0021978,78.2065934 C6.47032967,75.5809524 4.5010989,72.2989011 3.09450549,68.3604396 C1.68791209,64.421978 0.937728938,59.7333333 0.937728938,54.4820513 C0.937728938,52.7941392 1.03150183,51.1062271 1.12527473,49.5120879 C1.31282051,47.8241758 1.5003663,46.0424908 1.78168498,44.167033 C2.71941392,38.0717949 4.21978022,32.7267399 6.18901099,28.225641 C8.15824176,23.7245421 10.4087912,19.7860806 13.0344322,16.5978022 C15.5663004,13.4095238 18.2857143,10.7838828 21.2864469,8.81465201 C24.1934066,6.84542125 27.1003663,5.25128205 29.9135531,4.12600733 C32.7267399,3.0007326 35.4461538,2.25054945 37.978022,1.78168498 C40.5098901,1.31282051 42.6666667,1.12527473 44.5421245,1.12527473 C46.5113553,1.12527473 48.3868132,1.31282051 50.356044,1.59413919 C52.2315018,1.87545788 54.0131868,2.43809524 55.7010989,3.09450549 L52.043956,26.443956 L52.043956,26.443956 Z"></path>
			<path d="M57.0139194,43.4168498 C57.8578755,38.4468864 59.170696,33.3831502 61.1399267,28.3194139 C63.1091575,23.2556777 65.6410256,18.7545788 68.7355311,14.6285714 C71.9238095,10.596337 75.6747253,7.22051282 79.9882784,4.68864469 C84.3018315,2.15677656 89.3655678,0.843956044 94.9919414,0.843956044 C99.6805861,0.843956044 103.619048,1.68791209 106.901099,3.46959707 C110.18315,5.25128205 112.808791,7.5956044 114.871795,10.596337 C116.934799,13.5970696 118.341392,16.9728938 119.279121,20.9113553 C120.21685,24.756044 120.685714,28.7882784 120.685714,32.9142857 C120.685714,34.6959707 120.591941,36.3838828 120.498168,38.1655678 C120.310623,39.9472527 120.123077,41.6351648 119.841758,43.3230769 C118.997802,48.2930403 117.684982,53.3567766 115.715751,58.4205128 C113.74652,63.4842491 111.214652,67.985348 108.120147,72.1113553 C104.931868,76.1435897 101.180952,79.5194139 96.8673993,82.0512821 C92.5538462,84.5831502 87.4901099,85.8959707 81.8637363,85.8959707 C77.1750916,85.8959707 73.1428571,84.9582418 69.9545788,83.2703297 C66.7663004,81.4886447 64.1406593,79.1443223 62.0776557,76.1435897 C60.1084249,73.1428571 58.6080586,69.767033 57.7641026,65.8285714 C56.8263736,61.9838828 56.3575092,57.8578755 56.3575092,53.6380952 C56.3575092,51.9501832 56.4512821,50.2622711 56.5450549,48.4805861 C56.5450549,46.792674 56.7326007,45.1047619 57.0139194,43.4168498 L57.0139194,43.4168498 Z M79.7069597,43.4168498 C79.5194139,44.4483516 79.425641,45.8549451 79.1443223,47.63663 C78.9567766,49.418315 78.8630037,51.3875458 78.8630037,53.4505495 C78.8630037,54.9509158 78.9567766,56.3575092 79.1443223,57.7641026 C79.3318681,59.170696 79.6131868,60.3897436 80.0820513,61.5150183 C80.5509158,62.640293 81.207326,63.4842491 81.9575092,64.1406593 C82.8014652,64.7970696 83.7391941,65.1721612 85.0520147,65.1721612 C86.4586081,65.1721612 87.6776557,64.7970696 88.8029304,63.9531136 C89.9282051,63.1091575 90.8659341,61.9838828 91.7098901,60.6710623 C92.5538462,59.3582418 93.3040293,57.8578755 93.8666667,56.1699634 C94.5230769,54.5758242 94.9919414,52.8879121 95.4608059,51.2937729 C95.9296703,49.6996337 96.210989,48.1992674 96.4923077,46.792674 C96.7736264,45.3860806 96.9611722,44.2608059 97.0549451,43.3230769 C97.2424908,42.2915751 97.4300366,40.8849817 97.6175824,39.0095238 C97.8989011,37.1340659 97.992674,35.2586081 97.992674,33.1956044 C97.992674,31.789011 97.8989011,30.2886447 97.7113553,28.9758242 C97.5238095,27.5692308 97.2424908,26.3501832 96.7736264,25.2249084 C96.3047619,24.0996337 95.6483516,23.2556777 94.8981685,22.5992674 C94.0542125,21.9428571 93.1164835,21.5677656 91.803663,21.5677656 C90.3970696,21.5677656 89.178022,21.9428571 88.0527473,22.7868132 C86.9274725,23.6307692 85.9897436,24.756044 85.1457875,26.0688645 C84.3018315,27.381685 83.5516484,28.8820513 82.989011,30.5699634 C82.3326007,32.1641026 81.8637363,33.8520147 81.3948718,35.4461538 C80.9260073,37.040293 80.5509158,38.5406593 80.2695971,39.9472527 C79.9882784,41.447619 79.8007326,42.5728938 79.7069597,43.4168498 L79.7069597,43.4168498 Z"></path>
			<path d="M132.501099,84.4893773 L126.405861,2.34432234 L149.755311,2.34432234 L149.755311,36.1025641 C149.661538,39.4783883 149.567766,42.7604396 149.473993,46.0424908 C149.286447,49.3245421 149.192674,52.6065934 149.005128,55.9824176 L149.192674,55.9824176 C150.224176,52.6065934 151.161905,49.3245421 151.912088,46.0424908 C152.756044,42.7604396 153.693773,39.4783883 154.819048,36.1025641 L166.165568,2.34432234 L190.265201,2.34432234 L155.194139,84.4893773 L132.501099,84.4893773 L132.501099,84.4893773 Z"></path>
			<path d="M195.141392,2.34432234 L236.401465,2.34432234 L233.494505,21.7553114 L214.458608,21.7553114 L212.58315,33.1956044 L229.74359,33.1956044 L226.649084,52.6065934 L209.582418,52.6065934 L207.613187,65.1721612 L226.649084,65.1721612 L223.742125,84.5831502 L182.482051,84.5831502 L195.141392,2.34432234 L195.141392,2.34432234 Z"></path>
			<path d="M269.972161,84.4893773 L263.032967,50.2622711 L262.751648,50.4498168 C262.564103,52.5128205 262.282784,54.4820513 262.095238,56.4512821 C261.907692,58.4205128 261.626374,60.4835165 261.251282,62.4527473 L257.875458,84.3956044 L235.651282,84.3956044 L248.404396,2.25054945 L269.878388,2.25054945 C274.191941,2.25054945 278.130403,2.53186813 281.787546,3.18827839 C285.444689,3.84468864 288.539194,4.96996337 291.164835,6.47032967 C293.790476,8.06446886 295.85348,10.1274725 297.260073,12.8468864 C298.666667,15.5663004 299.41685,18.9421245 299.41685,23.0681319 C299.41685,24.0996337 299.323077,25.1311355 299.229304,26.1626374 C299.135531,27.1941392 298.947985,28.3194139 298.854212,29.4446886 C298.104029,34.0395604 296.50989,38.1655678 293.884249,41.8227106 C291.258608,45.5736264 287.695238,48.2930403 282.912821,49.9809524 L294.165568,84.2080586 L269.972161,84.2080586 L269.972161,84.4893773 Z M266.0337,40.4161172 C267.440293,40.4161172 268.846886,40.1347985 270.065934,39.5721612 C271.284982,39.0095238 272.410256,38.1655678 273.254212,37.2278388 C274.191941,36.2901099 274.942125,35.1648352 275.504762,33.8520147 C276.067399,32.5391941 276.442491,31.3201465 276.72381,30.007326 C276.817582,29.5384615 276.817582,29.16337 276.911355,28.7882784 C276.911355,28.4131868 277.005128,28.0380952 277.005128,27.6630037 C277.005128,25.0373626 276.254945,23.1619048 274.754579,21.8490842 C273.254212,20.6300366 271.284982,19.9736264 268.753114,19.9736264 L267.909158,19.9736264 L264.627106,40.3223443 L266.0337,40.4161172 L266.0337,40.4161172 Z"></path>
			<path d="M337.863736,84.4893773 L337.863736,73.9868132 L322.953846,73.9868132 L319.484249,84.5831502 L296.603663,84.5831502 L329.049084,2.43809524 L356.149451,2.43809524 L360.838095,84.5831502 L337.863736,84.5831502 L337.863736,84.4893773 Z M337.957509,56.5450549 L338.520147,37.5091575 C338.613919,34.9772894 338.707692,32.3516484 338.801465,29.8197802 C338.989011,27.1941392 339.082784,24.6622711 339.27033,22.1304029 L339.082784,22.1304029 C338.332601,24.6622711 337.582418,27.2879121 336.926007,29.8197802 C336.175824,32.4454212 335.425641,34.9772894 334.675458,37.5091575 L328.673993,56.5450549 L337.957509,56.5450549 L337.957509,56.5450549 Z"></path>
			<path d="M366.652015,84.4893773 L379.405128,2.34432234 L401.629304,2.34432234 L391.78315,65.0783883 L408.474725,65.0783883 L405.567766,84.4893773 L366.652015,84.4893773 L366.652015,84.4893773 Z"></path>
			<path d="M411.663004,84.4893773 L424.416117,2.34432234 L446.640293,2.34432234 L436.794139,65.0783883 L453.485714,65.0783883 L450.578755,84.4893773 L411.663004,84.4893773 L411.663004,84.4893773 Z"></path>
			<path d="M460.14359,56.8263736 C460.706227,57.9516484 461.45641,59.0769231 462.300366,60.2021978 C463.144322,61.3274725 464.175824,62.2652015 465.207326,63.1091575 C466.332601,63.9531136 467.457875,64.7032967 468.676923,65.1721612 C469.895971,65.6410256 471.208791,65.9223443 472.709158,65.9223443 C474.209524,65.9223443 475.803663,65.4534799 477.304029,64.5157509 C478.898168,63.578022 479.835897,62.2652015 480.117216,60.3897436 C480.210989,60.1084249 480.210989,59.7333333 480.210989,59.170696 C480.210989,57.9516484 479.835897,56.8263736 478.991941,55.7948718 C478.61685,55.2322344 478.147985,54.6695971 477.585348,54.2007326 C477.022711,53.7318681 476.460073,53.1692308 475.803663,52.7003663 C473.928205,51.0124542 472.14652,49.3245421 470.552381,47.7304029 C468.958242,46.0424908 467.551648,44.2608059 466.426374,42.2915751 C465.582418,40.8849817 465.01978,39.2908425 464.550916,37.6029304 C464.082051,35.9150183 463.894505,34.1333333 463.894505,32.1641026 C463.894505,30.8512821 463.988278,29.4446886 464.175824,27.9443223 C464.550916,25.5062271 465.394872,22.7868132 466.707692,19.6923077 C468.020513,16.5978022 469.802198,13.5970696 472.240293,10.8776557 C474.584615,8.15824176 477.585348,5.81391941 481.054945,3.84468864 C484.618315,1.87545788 488.744322,0.937728938 493.432967,0.937728938 C496.152381,0.937728938 498.778022,1.31282051 501.403663,2.06300366 C504.029304,2.81318681 506.467399,3.84468864 508.624176,5.06373626 L504.87326,30.007326 C504.404396,28.9758242 503.747985,27.9443223 502.904029,26.9128205 C502.060073,25.8813187 501.216117,24.9435897 500.184615,24.0996337 C499.153114,23.2556777 498.027839,22.5992674 496.902564,22.03663 C495.683516,21.4739927 494.464469,21.192674 493.151648,21.192674 C491.838828,21.192674 490.526007,21.6615385 489.119414,22.5054945 C487.712821,23.3494505 486.868864,24.5684982 486.587546,26.2564103 L486.587546,26.9128205 C486.587546,28.3194139 487.05641,29.6322344 488.087912,30.8512821 C488.556777,31.5076923 489.119414,32.0703297 489.775824,32.632967 C490.432234,33.1956044 490.994872,33.6644689 491.557509,34.2271062 C493.620513,35.9150183 495.495971,37.5091575 497.09011,39.1032967 C498.684249,40.6974359 499.903297,42.385348 500.841026,44.2608059 C501.591209,45.5736264 502.153846,46.9802198 502.528938,48.4805861 C502.904029,49.9809524 503.091575,51.6688645 503.091575,53.5443223 C503.091575,55.2322344 502.904029,56.9201465 502.622711,58.5142857 C502.060073,62.3589744 500.841026,65.9223443 499.059341,69.2043956 C497.277656,72.4864469 495.027106,75.3934066 492.307692,77.9252747 C489.588278,80.4571429 486.587546,82.4263736 483.117949,83.832967 C479.648352,85.2395604 475.991209,85.9897436 472.14652,85.9897436 C466.520147,85.9897436 461.081319,84.8644689 456.017582,82.6139194 L460.14359,56.8263736 L460.14359,56.8263736 Z"></path>
		</g>
		<g fill="#394A56">
			<path d="M51.2937729,25.8813187 C49.8871795,24.3809524 48.574359,23.1619048 47.1677656,22.3179487 C45.8549451,21.4739927 43.9794872,21.0989011 41.6351648,21.0989011 C38.7282051,21.0989011 36.196337,21.8490842 34.1333333,23.2556777 C32.0703297,24.6622711 30.2886447,26.443956 28.8820513,28.6945055 C27.4754579,30.8512821 26.3501832,33.1956044 25.5062271,35.8212454 C24.6622711,38.3531136 24.0996337,40.7912088 23.7245421,43.0417582 C23.5369963,44.167033 23.4432234,45.1985348 23.3494505,46.3238095 C23.2556777,47.4490842 23.1619048,48.574359 23.1619048,49.6996337 C23.1619048,51.6688645 23.3494505,53.5443223 23.7245421,55.3260073 C24.0996337,57.1076923 24.6622711,58.7956044 25.5062271,60.2021978 C26.3501832,61.6087912 27.4754579,62.7340659 28.8820513,63.578022 C30.2886447,64.421978 32.0703297,64.7970696 34.3208791,64.7970696 C36.8527473,64.7970696 39.1032967,64.3282051 40.9787546,63.3904762 C42.8542125,62.4527473 44.8234432,61.2336996 46.9802198,59.5457875 L42.1040293,82.5201465 C39.6659341,83.5516484 37.4153846,84.3018315 35.1648352,84.770696 C32.9142857,85.2395604 30.5699634,85.5208791 28.1318681,85.5208791 C24.1934066,85.5208791 20.5362637,84.8644689 17.1604396,83.5516484 C13.7846154,82.2388278 10.7838828,80.2695971 8.25201465,77.643956 C5.72014652,75.018315 3.75091575,71.7362637 2.34432234,67.7978022 C1.03150183,63.7655678 0.281318681,59.0769231 0.281318681,53.825641 C0.281318681,52.1377289 0.375091575,50.4498168 0.468864469,48.8556777 C0.656410256,47.1677656 0.843956044,45.3860806 1.12527473,43.5106227 C2.06300366,37.4153846 3.56336996,32.0703297 5.53260073,27.5692308 C7.5018315,23.0681319 9.75238095,19.1296703 12.378022,15.9413919 C14.9098901,12.7531136 17.629304,10.1274725 20.6300366,8.15824176 C23.5369963,6.18901099 26.443956,4.59487179 29.2571429,3.46959707 C32.0703297,2.34432234 34.7897436,1.59413919 37.3216117,1.12527473 C39.8534799,0.656410256 42.0102564,0.468864469 43.8857143,0.468864469 C45.8549451,0.468864469 47.7304029,0.656410256 49.6996337,0.937728938 C51.5750916,1.21904762 53.3567766,1.78168498 55.0446886,2.43809524 L51.2937729,25.8813187 L51.2937729,25.8813187 Z"></path>
			<path d="M56.2637363,42.8542125 C57.1076923,37.8842491 58.4205128,32.8205128 60.3897436,27.7567766 C62.3589744,22.6930403 64.8908425,18.1919414 67.985348,14.0659341 C71.1736264,10.0336996 74.9245421,6.65787546 79.2380952,4.12600733 C83.5516484,1.59413919 88.6153846,0.281318681 94.2417582,0.281318681 C98.9304029,0.281318681 102.868864,1.12527473 106.150916,2.90695971 C109.432967,4.68864469 112.058608,7.03296703 114.121612,10.0336996 C116.184615,13.0344322 117.591209,16.4102564 118.528938,20.3487179 C119.466667,24.1934066 119.935531,28.225641 119.935531,32.3516484 C119.935531,34.1333333 119.841758,35.8212454 119.747985,37.6029304 C119.56044,39.3846154 119.372894,41.0725275 119.091575,42.7604396 C118.247619,47.7304029 116.934799,52.7941392 114.965568,57.8578755 C112.996337,62.9216117 110.464469,67.4227106 107.369963,71.5487179 C104.181685,75.5809524 100.430769,78.9567766 96.1172161,81.4886447 C91.803663,84.0205128 86.7399267,85.3333333 81.1135531,85.3333333 C76.4249084,85.3333333 72.392674,84.3956044 69.2043956,82.7076923 C66.0161172,80.9260073 63.3904762,78.581685 61.3274725,75.5809524 C59.3582418,72.5802198 57.8578755,69.2043956 57.0139194,65.2659341 C56.0761905,61.4212454 55.607326,57.2952381 55.607326,53.0754579 C55.607326,51.3875458 55.7010989,49.6996337 55.7948718,47.9179487 C55.7948718,46.2300366 55.9824176,44.5421245 56.2637363,42.8542125 L56.2637363,42.8542125 Z M78.9567766,42.8542125 C78.7692308,43.8857143 78.6754579,45.2923077 78.3941392,47.0739927 C78.2065934,48.8556777 78.1128205,50.8249084 78.1128205,52.8879121 C78.1128205,54.3882784 78.2065934,55.7948718 78.3941392,57.2014652 C78.581685,58.6080586 78.8630037,59.8271062 79.3318681,60.952381 C79.8007326,62.0776557 80.4571429,62.9216117 81.207326,63.578022 C82.0512821,64.2344322 82.989011,64.6095238 84.3018315,64.6095238 C85.7084249,64.6095238 86.9274725,64.2344322 88.0527473,63.3904762 C89.178022,62.5465201 90.1157509,61.4212454 90.959707,60.1084249 C91.803663,58.7956044 92.5538462,57.2952381 93.1164835,55.607326 C93.7728938,54.0131868 94.2417582,52.3252747 94.7106227,50.7311355 C95.1794872,49.1369963 95.4608059,47.63663 95.7421245,46.2300366 C96.0234432,44.8234432 96.210989,43.6981685 96.3047619,42.7604396 C96.4923077,41.7289377 96.6798535,40.3223443 96.8673993,38.4468864 C97.1487179,36.5714286 97.2424908,34.6959707 97.2424908,32.632967 C97.2424908,31.2263736 97.1487179,29.7260073 96.9611722,28.4131868 C96.7736264,27.0065934 96.4923077,25.7875458 96.0234432,24.6622711 C95.5545788,23.5369963 94.8981685,22.6930403 94.1479853,22.03663 C93.3040293,21.3802198 92.3663004,21.0051282 91.0534799,21.0051282 C89.6468864,21.0051282 88.4278388,21.3802198 87.3025641,22.2241758 C86.1772894,23.0681319 85.2395604,24.1934066 84.3956044,25.5062271 C83.5516484,26.8190476 82.8014652,28.3194139 82.2388278,30.007326 C81.5824176,31.6014652 81.1135531,33.2893773 80.6446886,34.8835165 C80.1758242,36.4776557 79.8007326,37.978022 79.5194139,39.3846154 C79.2380952,40.8849817 79.0505495,42.0102564 78.9567766,42.8542125 L78.9567766,42.8542125 Z"></path>
			<path d="M131.750916,83.9267399 L125.655678,1.78168498 L149.005128,1.78168498 L149.005128,35.5399267 C148.911355,38.9157509 148.817582,42.1978022 148.72381,45.4798535 C148.536264,48.7619048 148.442491,52.043956 148.254945,55.4197802 L148.442491,55.4197802 C149.473993,52.043956 150.411722,48.7619048 151.161905,45.4798535 C152.005861,42.1978022 152.94359,38.9157509 154.068864,35.5399267 L165.415385,1.78168498 L189.421245,1.78168498 L154.350183,83.9267399 L131.750916,83.9267399 L131.750916,83.9267399 Z"></path>
			<path d="M194.391209,1.78168498 L235.651282,1.78168498 L232.744322,21.192674 L213.708425,21.192674 L211.832967,32.632967 L228.899634,32.632967 L225.805128,52.043956 L208.738462,52.043956 L206.769231,64.6095238 L225.805128,64.6095238 L222.898168,84.0205128 L181.638095,84.0205128 L194.391209,1.78168498 L194.391209,1.78168498 Z"></path>
			<path d="M269.221978,83.9267399 L262.282784,49.6996337 L262.001465,49.8871795 C261.813919,51.9501832 261.532601,53.9194139 261.345055,55.8886447 C261.157509,57.8578755 260.87619,59.9208791 260.501099,61.8901099 L257.125275,83.832967 L234.901099,83.832967 L247.56044,1.78168498 L269.034432,1.78168498 C273.347985,1.78168498 277.286447,2.06300366 280.94359,2.71941392 C284.600733,3.37582418 287.695238,4.5010989 290.320879,6.0014652 C292.94652,7.5956044 295.009524,9.65860806 296.416117,12.378022 C297.822711,15.0974359 298.572894,18.4732601 298.572894,22.5992674 C298.572894,23.6307692 298.479121,24.6622711 298.385348,25.6937729 C298.291575,26.7252747 298.104029,27.8505495 298.010256,28.9758242 C297.260073,33.570696 295.665934,37.6967033 293.040293,41.3538462 C290.414652,45.1047619 286.851282,47.8241758 282.068864,49.5120879 L293.321612,83.7391941 L269.221978,83.7391941 L269.221978,83.9267399 Z M265.283516,39.8534799 C266.69011,39.8534799 268.096703,39.5721612 269.315751,39.0095238 C270.534799,38.4468864 271.660073,37.6029304 272.504029,36.6652015 C273.441758,35.7274725 274.191941,34.6021978 274.754579,33.2893773 C275.317216,31.9765568 275.692308,30.7575092 275.973626,29.4446886 C276.067399,28.9758242 276.067399,28.6007326 276.161172,28.225641 C276.161172,27.8505495 276.254945,27.4754579 276.254945,27.1003663 C276.254945,24.4747253 275.504762,22.5992674 274.004396,21.2864469 C272.504029,20.0673993 270.534799,19.410989 268.00293,19.410989 L267.158974,19.410989 L263.970696,39.6659341 L265.283516,39.8534799 L265.283516,39.8534799 Z"></path>
			<path d="M337.113553,83.9267399 L337.113553,73.4241758 L322.203663,73.4241758 L318.734066,84.0205128 L295.85348,84.0205128 L328.298901,1.87545788 L355.399267,1.87545788 L360.087912,84.0205128 L337.113553,84.0205128 L337.113553,83.9267399 Z M337.207326,55.9824176 L337.769963,36.9465201 C337.863736,34.414652 337.957509,31.789011 338.051282,29.2571429 C338.238828,26.6315018 338.332601,24.0996337 338.520147,21.5677656 L338.332601,21.5677656 C337.582418,24.0996337 336.832234,26.7252747 336.175824,29.2571429 C335.425641,31.8827839 334.675458,34.414652 333.925275,36.9465201 L327.92381,55.9824176 L337.207326,55.9824176 L337.207326,55.9824176 Z"></path>
			<path d="M365.901832,83.9267399 L378.654945,1.78168498 L400.879121,1.78168498 L391.032967,64.5157509 L407.724542,64.5157509 L404.817582,83.9267399 L365.901832,83.9267399 L365.901832,83.9267399 Z"></path>
			<path d="M410.912821,83.9267399 L423.665934,1.78168498 L445.89011,1.78168498 L436.043956,64.5157509 L452.735531,64.5157509 L449.828571,83.9267399 L410.912821,83.9267399 L410.912821,83.9267399 Z"></path>
			<path d="M459.393407,56.2637363 C459.956044,57.389011 460.706227,58.5142857 461.550183,59.6395604 C462.394139,60.7648352 463.425641,61.7025641 464.457143,62.5465201 C465.582418,63.3904762 466.707692,64.1406593 467.92674,64.6095238 C469.145788,65.0783883 470.458608,65.359707 471.958974,65.359707 C473.459341,65.359707 475.05348,64.8908425 476.553846,63.9531136 C478.147985,63.0153846 479.085714,61.7025641 479.367033,59.8271062 C479.460806,59.5457875 479.460806,59.170696 479.460806,58.6080586 C479.460806,57.389011 479.085714,56.2637363 478.241758,55.2322344 C477.866667,54.6695971 477.397802,54.1069597 476.835165,53.6380952 C476.272527,53.1692308 475.70989,52.6065934 475.05348,52.1377289 C473.178022,50.4498168 471.396337,48.7619048 469.802198,47.1677656 C468.208059,45.4798535 466.801465,43.6981685 465.67619,41.7289377 C464.832234,40.3223443 464.269597,38.7282051 463.800733,37.040293 C463.331868,35.352381 463.144322,33.570696 463.144322,31.6014652 C463.144322,30.2886447 463.238095,28.8820513 463.425641,27.381685 C463.800733,24.9435897 464.644689,22.2241758 465.957509,19.1296703 C467.27033,16.0351648 469.052015,13.0344322 471.49011,10.3150183 C473.834432,7.5956044 476.835165,5.25128205 480.304762,3.28205128 C483.868132,1.31282051 487.994139,0.375091575 492.682784,0.375091575 C495.402198,0.375091575 498.027839,0.75018315 500.65348,1.5003663 C503.279121,2.25054945 505.717216,3.28205128 507.873993,4.5010989 L503.935531,29.4446886 C503.466667,28.4131868 502.810256,27.381685 501.9663,26.3501832 C501.122344,25.3186813 500.278388,24.3809524 499.246886,23.5369963 C498.215385,22.6930403 497.09011,22.03663 495.964835,21.4739927 C494.745788,20.9113553 493.52674,20.6300366 492.213919,20.6300366 C490.901099,20.6300366 489.588278,21.0989011 488.181685,21.9428571 C486.775092,22.7868132 485.931136,24.0058608 485.649817,25.6937729 L485.649817,26.3501832 C485.649817,27.7567766 486.118681,29.0695971 487.150183,30.2886447 C487.619048,30.9450549 488.181685,31.5076923 488.838095,32.0703297 C489.494505,32.632967 490.057143,33.1018315 490.61978,33.6644689 C492.682784,35.352381 494.558242,36.9465201 496.152381,38.5406593 C497.74652,40.1347985 498.965568,41.8227106 499.903297,43.6981685 C500.65348,45.010989 501.216117,46.4175824 501.591209,47.9179487 C501.9663,49.418315 502.153846,51.1062271 502.153846,52.981685 C502.153846,54.6695971 501.9663,56.3575092 501.684982,57.9516484 C501.122344,61.796337 499.903297,65.359707 498.121612,68.6417582 C496.339927,71.9238095 494.089377,74.8307692 491.369963,77.3626374 C488.650549,79.8945055 485.649817,81.8637363 482.18022,83.2703297 C478.710623,84.6769231 475.05348,85.4271062 471.208791,85.4271062 C465.582418,85.4271062 460.14359,84.3018315 455.079853,82.0512821 L459.393407,56.2637363 L459.393407,56.2637363 Z"></path>
		</g>
	</g>
</svg>
