<?xml version="1.0" encoding="UTF-8"?>
<svg width="256px" height="235px" viewBox="0 0 256 235" version="1.1" xmlns="http://www.w3.org/2000/svg" xmlns:xlink="http://www.w3.org/1999/xlink" preserveAspectRatio="xMidYMid">
    <title>Creat React App</title>
    <g>
        <path d="M233.805001,104.895991 C233.805001,91.8479065 218.446516,80.276964 194.831188,73.2131972 C200.512502,49.2191153 198.031661,30.1299009 186.725847,23.6721408 C183.953644,22.1324743 180.825344,21.3487665 177.654683,21.3996153 C167.106377,21.3996153 153.774227,28.7663856 140.309513,41.5114662 C126.8448,28.8610741 113.550525,21.5321793 103.021157,21.5321793 C99.8013469,21.4610353 96.6218976,22.2591687 93.8174286,23.8425803 C82.5684273,30.319278 80.2390886,49.2948661 85.8446516,73.1753218 C62.3429501,80.2012132 47.060216,91.6774671 47.0222709,104.668738 C46.9844652,117.660009 62.3997633,129.287764 86.015091,136.332594 C80.3337772,160.345613 82.7956798,179.41589 94.120432,185.87365 C96.8823698,187.421896 100.006944,188.206308 103.172659,188.146175 C113.739902,188.146175 127.072052,180.779405 140.536766,168.034325 C153.982542,180.684717 167.276816,188.013611 177.825122,188.013611 C181.043571,188.072744 184.219909,187.275392 187.02885,185.703211 C198.277852,179.226513 200.588253,160.250925 195.001627,136.465158 C218.503329,129.344578 233.786063,117.868324 233.805001,104.895991 Z M148.982986,45.7913893 C164.492972,31.9100459 174.189081,30.4139666 177.635745,30.4139666 L177.635745,30.4139666 C179.234233,30.3626109 180.817126,30.7419821 182.218671,31.5123539 C187.634857,34.5992011 189.793756,45.4883859 188.070425,59.9189229 C187.628998,63.6041603 186.996893,67.2640465 186.176653,70.8838586 C178.329258,69.0598609 170.371104,67.7503714 162.353011,66.963752 C157.57826,60.2634052 152.365311,53.886399 146.748336,47.8745377 C147.449031,47.1738423 148.206539,46.4731469 148.982986,45.7913893 Z M102.036396,115.633674 C103.513538,118.474331 105.085368,121.314987 106.714011,124.174582 C108.342654,127.034177 110.047048,129.931647 111.94082,132.791241 C106.8087,132.052671 101.828081,131.124723 97.0936529,130.026335 C98.4192928,125.216156 100.104749,120.481728 102.036396,115.633674 Z M96.7906495,79.5762687 C101.581891,78.4589436 106.600385,77.5309957 111.808256,76.8113626 C109.914484,79.6141441 108.285841,82.4926764 106.581447,85.5037727 C104.877053,88.5148691 103.380974,91.1850866 101.92277,94.0636189 C99.9911229,89.1398136 98.2804162,84.3106968 96.7906495,79.5762687 Z M106.657198,104.839177 C109.005474,99.8774967 111.587316,94.9158159 114.402722,89.9541352 C117.243379,84.9924545 120.292351,80.1633378 123.436011,75.5425359 C128.946886,75.1259062 134.628199,74.8986536 140.479953,74.9175914 C146.331706,74.9365291 151.84258,75.1448439 157.315579,75.5804113 C160.45924,80.1633378 163.470336,85.0492676 166.310993,89.8783844 C169.15165,94.7075011 171.765054,99.7638704 174.11333,104.706613 C171.783992,109.668294 169.189525,114.648913 166.386744,119.572718 C163.583962,124.496523 160.497115,129.382453 157.353455,134.003255 C151.84258,134.438822 146.161266,134.647137 140.309513,134.647137 C134.45776,134.647137 128.946886,134.400947 123.473887,133.965379 C120.330226,129.382453 117.300192,124.610149 114.459535,119.667406 C111.618879,114.724663 109.100163,109.78192 106.732949,104.839177 L106.657198,104.839177 Z M168.886522,76.8681758 C174.03758,77.5878088 179.018198,78.5157568 183.733688,79.6141441 C182.332298,84.2917591 180.665779,89.0830004 178.734132,93.9121172 C177.238053,91.0714603 175.685161,88.2308034 174.03758,85.3712088 C172.389999,82.5116141 170.647729,79.6330818 168.962273,76.8681758 L168.886522,76.8681758 Z M174.11333,124.060956 C175.741974,121.195049 177.294866,118.335454 178.772008,115.482172 C180.665779,120.405977 182.55955,125.254032 183.88519,129.98846 C179.112887,131.105785 174.094393,132.014795 168.886522,132.734428 C170.717167,129.931647 172.484687,127.040489 174.189081,124.060956 L174.11333,124.060956 Z M140.347389,54.31336 C143.756177,57.9494008 147.108152,61.888445 150.384376,66.111555 C147.146028,65.978991 143.831928,65.8843024 140.479953,65.8843024 C137.127978,65.8843024 133.700252,65.8843024 130.386152,66.111555 C133.624501,61.9073827 136.9386,57.9494008 140.347389,54.31336 Z M98.3435419,31.5881047 C99.7803346,30.8239521 101.395293,30.4578076 103.021157,30.5275928 C106.433132,30.6697849 109.779088,31.5143326 112.84983,33.0084332 C119.789965,36.2805345 126.178907,40.6122369 131.787543,45.8482024 L134.003255,47.8745377 C128.443672,53.8424405 123.281532,60.1685915 118.550081,66.8122503 C110.488716,67.5932008 102.486509,68.8963272 94.5938748,70.7134191 C93.7606155,67.0395029 93.0788578,63.4413375 92.7001036,59.9757361 C90.7305814,45.677763 93.003107,34.7696405 98.3246042,31.6638556 L98.3435419,31.5881047 Z M88.3254919,127.602308 C84.7672011,126.516002 81.2656375,125.251899 77.8339991,123.814765 C64.3882231,118.133452 56.0556295,110.842432 56.0556295,104.611925 C56.0556295,98.3814174 64.4260985,91.1282734 77.8529368,85.5416482 C81.223413,84.1455946 84.6617683,82.9194164 88.1550525,81.8677319 C90.5224574,89.7135764 93.4073133,97.3938725 96.7906495,104.858115 C93.4793172,112.248174 90.651642,119.845574 88.3254919,127.602308 L88.3254919,127.602308 Z M131.882231,163.773339 C116.372244,177.654683 106.676136,179.131824 103.210534,179.131824 C101.611856,179.185056 100.028472,178.805567 98.6276076,178.033437 C93.2114218,174.94659 91.0525226,164.057405 92.7758544,149.626868 C93.2156924,145.947658 93.8478143,142.293994 94.6696257,138.68087 C102.519301,140.489093 110.476838,141.792156 118.493268,142.582039 C123.262218,149.286813 128.475475,155.664196 134.097943,161.671253 L131.882231,163.773339 Z M140.536766,155.232431 C137.127978,151.59639 133.776002,147.657346 130.48084,143.434236 C133.738127,143.585738 137.052227,143.661488 140.404202,143.661488 C143.756177,143.661488 147.183903,143.661488 150.498003,143.453174 C147.221778,147.657346 143.888741,151.59639 140.517828,155.232431 L140.536766,155.232431 Z M182.540613,177.957686 C181.103739,178.744868 179.481481,179.130809 177.84406,179.075011 C174.397396,179.075011 164.587661,177.559994 149.134487,163.735464 L146.918775,161.709129 C152.47206,155.740818 157.627873,149.414667 162.353011,142.771416 C170.422044,142.001409 178.431264,140.698171 186.328155,138.870247 C187.161414,142.544163 187.824234,146.142329 188.221926,149.60793 C190.09676,163.886966 187.918923,174.795088 182.521675,177.881935 L182.540613,177.957686 Z M202.993342,124.098831 C199.754993,125.424471 196.327267,126.655422 192.691227,127.75381 C190.314464,119.908582 187.423357,112.228485 184.036692,104.763427 C187.363214,97.3817244 190.203615,89.7904528 192.539725,82.0381713 C196.098016,83.1244778 199.599579,84.3885801 203.031218,85.8257139 C216.458056,91.5070277 224.809587,98.798047 224.790682,105.028555 C224.771712,111.259062 216.420181,118.436455 202.974404,124.02308 L202.993342,124.098831 Z M140.347389,122.167195 C149.948751,122.177638 157.740669,114.402672 157.751137,104.801309 C157.761583,95.1999461 149.98662,87.4080255 140.385257,87.3975541 C130.783894,87.3871037 122.991971,95.1620638 122.981465,104.763427 C122.971447,109.375704 124.796619,113.802521 128.054445,117.067452 C131.312271,120.332383 135.7351,122.167195 140.347389,122.167195 L140.347389,122.167195 Z M24.8273413,1.42108547e-14 L24.8273413,209.545791 L256,209.545791 L256,1.42108547e-14 L24.8273413,1.42108547e-14 Z M246.966711,200.53144 L33.879568,200.53144 L33.879568,9.03328895 L246.966711,9.03328895 L246.966711,200.53144 Z M85.9961533,136.332594 C80.3148395,160.345613 82.7767421,179.41589 94.1014943,185.87365 C96.8634321,187.421896 99.988006,188.206308 103.153721,188.146175 C113.720965,188.146175 127.053114,180.779405 140.517828,168.034325 C153.963604,180.684717 167.257878,188.013611 177.806184,188.013611 C181.024633,188.072744 184.200971,187.275392 187.009913,185.703211 C198.258914,179.226513 200.569315,160.250925 194.98269,136.465158 C218.484391,129.420328 233.767125,117.944075 233.78608,104.971741 C233.805001,91.9994082 218.427578,80.3527149 194.81225,73.2889481 C200.493564,49.2948661 198.012724,30.2056517 186.706909,23.7478917 C183.934707,22.2082252 180.806406,21.4245174 177.635745,21.4753662 C167.087439,21.4753662 153.755289,28.8421364 140.290576,41.587217 C126.825862,28.936825 113.531588,21.6079302 103.002219,21.6079302 C99.7824092,21.5367861 96.6029598,22.3349195 93.7984909,23.9183311 C82.5494896,30.3950289 80.2201509,49.370617 85.8257139,73.2510726 C62.3240124,80.276964 47.0412783,91.7532179 47.0033333,104.744489 C46.9655274,117.73576 62.3997633,129.249889 86.015091,136.332594 L85.9961533,136.332594 Z M131.844356,163.773339 C116.334369,177.654683 106.63826,179.131824 103.172659,179.131824 C101.57398,179.185056 99.9905968,178.805567 98.5897322,178.033437 C93.1735464,174.94659 91.0146471,164.057405 92.737979,149.626868 C93.177817,145.947658 93.8099388,142.293994 94.6317503,138.68087 C102.481425,140.489093 110.438963,141.792156 118.455393,142.582039 C123.224343,149.286813 128.4376,155.664196 134.060068,161.671253 L131.844356,163.773339 Z M178.790945,93.9121172 C177.294866,91.0714603 175.741974,88.2308034 174.094393,85.3712088 C172.446812,82.5116141 170.685604,79.689895 168.943335,76.8681758 C174.094393,77.5878088 179.075011,78.5157568 183.790502,79.6141441 C182.408049,84.2917591 180.74153,89.0830004 178.809883,93.9121172 L178.790945,93.9121172 Z M183.942003,129.893771 C179.1697,131.011096 174.151206,131.920107 168.943335,132.63974 C170.72348,129.836958 172.465749,126.945801 174.170144,123.966267 C175.874538,120.986734 177.42743,118.127139 178.828821,115.387483 C180.817281,120.405977 182.540613,125.216156 183.904128,129.98846 L183.942003,129.893771 Z M174.075455,104.611925 C171.746116,109.573606 169.15165,114.554224 166.348868,119.478029 C163.546087,124.401835 160.45924,129.287764 157.315579,133.908566 C151.804705,134.344134 146.123391,134.552449 140.271638,134.552449 C134.419885,134.552449 128.90901,134.306258 123.436011,133.870691 C120.292351,129.287764 117.262317,124.515461 114.42166,119.572718 C111.581003,114.629975 108.986536,109.687232 106.619322,104.744489 C108.967599,99.7828081 111.54944,94.8211274 114.364847,89.8594467 C117.205504,84.8977659 120.254476,80.0686492 123.398136,75.4478473 C128.90901,75.0312176 134.590324,74.8039651 140.442077,74.8229028 C146.29383,74.8418405 151.804705,75.0501553 157.277704,75.4857227 C160.421364,80.0686492 163.43246,84.9545791 166.273117,89.7836958 C169.113774,94.6128125 171.746116,99.7638704 174.094393,104.706613 L174.075455,104.611925 Z M111.94082,132.791241 C106.8087,132.052671 101.828081,131.124723 97.0936529,130.026335 C98.4950436,125.367658 100.1805,120.557479 102.112147,115.728362 C103.589288,118.569019 105.161119,121.409676 106.789762,124.269271 C108.418405,127.128865 110.047048,129.931647 111.94082,132.791241 Z M106.657198,85.4469596 C105.009617,88.2876165 103.456724,91.1282734 101.99852,94.0068057 C100.016373,89.1208759 98.2804162,84.3106968 96.7906495,79.5762687 C101.581891,78.4589436 106.600385,77.5309957 111.808256,76.8113626 C110.047048,79.6141441 108.361592,82.5116141 106.657198,85.4469596 Z M140.517828,155.232431 C137.10904,151.59639 133.757065,147.657346 130.461903,143.434236 C133.719189,143.585738 137.033289,143.661488 140.385264,143.661488 C143.737239,143.661488 147.164965,143.661488 150.479065,143.453174 C147.221778,147.657346 143.888741,151.59639 140.517828,155.232431 Z M182.521675,177.957686 C181.084801,178.744868 179.462544,179.130809 177.825122,179.075011 C174.378458,179.075011 164.568723,177.559994 149.11555,163.735464 L146.899837,161.709129 C152.453122,155.740818 157.608936,149.414667 162.334073,142.771416 C170.403106,142.001409 178.412326,140.698171 186.309217,138.870247 C187.142477,142.544163 187.805297,146.142329 188.202989,149.60793 C190.09676,163.886966 187.918923,174.795088 182.521675,177.881935 L182.521675,177.957686 Z M192.520787,82.0192336 C196.079078,83.10554 199.580642,84.3696424 203.01228,85.8067762 C216.439118,91.48809 224.79065,98.7791093 224.771744,105.009617 C224.752774,111.240124 216.420181,118.569019 202.974404,124.155644 C199.736056,125.481284 196.30833,126.712236 192.672289,127.810623 C190.295527,119.965395 187.404419,112.285298 184.017754,104.82024 C187.350465,97.3892731 190.190937,89.7472013 192.520787,81.9434828 L192.520787,82.0192336 Z M148.964048,45.8671401 C164.474035,31.9857967 174.170144,30.4897174 177.616807,30.4897174 L177.616807,30.4897174 C179.215295,30.4383617 180.798189,30.8177329 182.199734,31.5881047 C187.61592,34.6749519 189.774819,45.5641367 188.051487,59.9946738 C187.61006,63.6799112 186.977955,67.3397974 186.157716,70.9596094 C178.31032,69.1356117 170.352166,67.8261222 162.334073,67.0395029 C157.559323,60.3391561 152.346373,53.9621498 146.729398,47.9502885 C147.449031,47.1738423 148.206539,46.4731469 148.982986,45.7913893 L148.964048,45.8671401 Z M140.347389,54.31336 C143.756177,57.9494008 147.108152,61.888445 150.384376,66.111555 C147.146028,65.978991 143.831928,65.8843024 140.479953,65.8843024 C137.127978,65.8843024 133.700252,65.8843024 130.386152,66.111555 C133.624501,61.9073827 136.9386,57.9494008 140.347389,54.31336 Z M98.3435419,31.5881047 C99.7803346,30.8239521 101.395293,30.4578076 103.021157,30.5275928 C106.433132,30.6697849 109.779088,31.5143326 112.84983,33.0084332 C119.789965,36.2805345 126.178907,40.6122369 131.787543,45.8482024 L134.003255,47.8745377 C128.443672,53.8424405 123.281532,60.1685915 118.550081,66.8122503 C110.488716,67.5932008 102.486509,68.8963272 94.5938748,70.7134191 C93.7606155,67.0395029 93.0788578,63.4413375 92.7001036,59.9757361 C90.7305814,45.677763 93.003107,34.7696405 98.3246042,31.6638556 L98.3435419,31.5881047 Z M77.8529368,85.5416482 C81.223413,84.1455946 84.6617683,82.9194164 88.1550525,81.8677319 C90.5224574,89.7135764 93.4073133,97.3938725 96.7906495,104.858115 C93.4672059,112.241085 90.6268811,119.832153 88.2876165,127.58337 C84.7293256,126.497064 81.2277621,125.232962 77.7961237,123.795828 C64.3503477,118.114514 56.0177541,110.823495 56.0177541,104.592987 C56.0177541,98.3624797 64.4260985,91.1282734 77.8529368,85.5416482 Z M140.347389,87.4354194 C130.746026,87.4249661 122.954108,95.1999324 122.943641,104.801295 C122.933194,114.402658 130.708157,122.194578 140.30952,122.20505 C149.910883,122.2155 157.702806,114.44054 157.713271,104.839177 C157.748605,100.210533 155.934601,95.759321 152.674029,92.4738588 C149.413457,89.1883966 144.976168,87.3407309 140.347389,87.3407309 L140.347389,87.4354194 Z M140.347389,87.4354194 C130.746026,87.4249661 122.954108,95.1999324 122.943641,104.801295 C122.933194,114.402658 130.708157,122.194578 140.30952,122.20505 C149.910883,122.2155 157.702806,114.44054 157.713271,104.839177 C157.748605,100.210533 155.934601,95.759321 152.674029,92.4738588 C149.413457,89.1883966 144.976168,87.3407309 140.347389,87.3407309 L140.347389,87.4354194 Z M140.347389,87.4354194 C130.746026,87.4249661 122.954108,95.1999324 122.943641,104.801295 C122.933194,114.402658 130.708157,122.194578 140.30952,122.20505 C149.910883,122.2155 157.702806,114.44054 157.713271,104.839177 C157.748605,100.210533 155.934601,95.759321 152.674029,92.4738588 C149.413457,89.1883966 144.976168,87.3407309 140.347389,87.3407309 L140.347389,87.4354194 Z M233.805001,104.933866 C233.805001,91.8857819 218.446516,80.3148395 194.831188,73.2510726 C200.512502,49.2569907 198.031661,30.1677763 186.725847,23.7100163 C183.953644,22.1703497 180.825344,21.3866419 177.654683,21.4374908 C167.106377,21.4374908 153.774227,28.804261 140.309513,41.5493416 C126.8448,28.8989495 113.550525,21.5700547 103.021157,21.5700547 C99.8013469,21.4989107 96.6218976,22.2970441 93.8174286,23.8804557 C82.5684273,30.3571534 80.2390886,49.3327415 85.8446516,73.2131972 C62.3429501,80.2390886 47.060216,91.7153425 47.0222709,104.706613 C46.9844652,117.697884 62.3997633,129.32564 86.015091,136.370469 C80.3337772,160.383489 82.7956798,179.453765 94.120432,185.911525 C96.8823698,187.459772 100.006944,188.244184 103.172659,188.184051 C113.739902,188.184051 127.072052,180.817281 140.536766,168.0722 C153.982542,180.722592 167.276816,188.051487 177.825122,188.051487 C181.043571,188.11062 184.219909,187.313267 187.02885,185.741086 C198.277852,179.264388 200.588253,160.2888 195.001627,136.503033 C218.503329,129.344578 233.786063,117.868324 233.805001,104.895991 L233.805001,104.933866 Z M148.982986,45.7913893 C164.492972,31.9100459 174.189081,30.4139666 177.635745,30.4139666 L177.635745,30.4139666 C179.234233,30.3626109 180.817126,30.7419821 182.218671,31.5123539 C187.634857,34.5992011 189.793756,45.4883859 188.070425,59.9189229 C187.628998,63.6041603 186.996893,67.2640465 186.176653,70.8838586 C178.329258,69.0598609 170.371104,67.7503714 162.353011,66.963752 C157.57826,60.2634052 152.365311,53.886399 146.748336,47.8745377 C147.449031,47.1738423 148.206539,46.4731469 148.982986,45.7913893 Z M102.036396,115.633674 C103.513538,118.474331 105.085368,121.314987 106.714011,124.174582 C108.342654,127.034177 110.047048,129.931647 111.94082,132.791241 C106.8087,132.052671 101.828081,131.124723 97.0936529,130.026335 C98.4192928,125.216156 100.104749,120.481728 102.036396,115.633674 Z M96.7906495,79.5762687 C101.581891,78.4589436 106.600385,77.5309957 111.808256,76.8113626 C109.914484,79.6141441 108.285841,82.4926764 106.581447,85.5037727 C104.877053,88.5148691 103.380974,91.1850866 101.92277,94.0636189 C99.9911229,89.1398136 98.2804162,84.3106968 96.7906495,79.5762687 Z M106.657198,104.839177 C109.005474,99.8774967 111.587316,94.9158159 114.402722,89.9541352 C117.243379,84.9924545 120.292351,80.1633378 123.436011,75.5425359 C128.946886,75.1259062 134.628199,74.8986536 140.479953,74.9175914 C146.331706,74.9365291 151.84258,75.1448439 157.315579,75.5804113 C160.45924,80.1633378 163.470336,85.0492676 166.310993,89.8783844 C169.15165,94.7075011 171.765054,99.7638704 174.11333,104.706613 C171.783992,109.668294 169.189525,114.648913 166.386744,119.572718 C163.583962,124.496523 160.497115,129.382453 157.353455,134.003255 C151.84258,134.438822 146.161266,134.647137 140.309513,134.647137 C134.45776,134.647137 128.946886,134.400947 123.473887,133.965379 C120.330226,129.382453 117.300192,124.610149 114.459535,119.667406 C111.618879,114.724663 109.100163,109.78192 106.732949,104.839177 L106.657198,104.839177 Z M168.886522,76.8681758 C174.03758,77.5878088 179.018198,78.5157568 183.733688,79.6141441 C182.332298,84.2917591 180.665779,89.0830004 178.734132,93.9121172 C177.238053,91.0714603 175.685161,88.2308034 174.03758,85.3712088 C172.389999,82.5116141 170.647729,79.6330818 168.962273,76.8681758 L168.886522,76.8681758 Z M174.11333,124.060956 C175.741974,121.195049 177.294866,118.335454 178.772008,115.482172 C180.665779,120.405977 182.55955,125.254032 183.88519,129.98846 C179.112887,131.105785 174.094393,132.014795 168.886522,132.734428 C170.717167,129.931647 172.484687,127.040489 174.189081,124.060956 L174.11333,124.060956 Z M140.347389,54.31336 C143.756177,57.9494008 147.108152,61.888445 150.384376,66.111555 C147.146028,65.978991 143.831928,65.8843024 140.479953,65.8843024 C137.127978,65.8843024 133.700252,65.8843024 130.386152,66.111555 C133.624501,61.9073827 136.9386,57.9494008 140.347389,54.31336 Z M98.3435419,31.5881047 C99.7803346,30.8239521 101.395293,30.4578076 103.021157,30.5275928 C106.433132,30.6697849 109.779088,31.5143326 112.84983,33.0084332 C119.789965,36.2805345 126.178907,40.6122369 131.787543,45.8482024 L134.003255,47.8745377 C128.443672,53.8424405 123.281532,60.1685915 118.550081,66.8122503 C110.488716,67.5932008 102.486509,68.8963272 94.5938748,70.7134191 C93.7606155,67.0395029 93.0788578,63.4413375 92.7001036,59.9757361 C90.7305814,45.677763 93.003107,34.7696405 98.3246042,31.6638556 L98.3435419,31.5881047 Z M88.3254919,127.602308 C84.7672011,126.516002 81.2656375,125.251899 77.8339991,123.814765 C64.3882231,118.133452 56.0556295,110.842432 56.0556295,104.611925 C56.0556295,98.3814174 64.4260985,91.1282734 77.8529368,85.5416482 C81.223413,84.1455946 84.6617683,82.9194164 88.1550525,81.8677319 C90.5224574,89.7135764 93.4073133,97.3938725 96.7906495,104.858115 C93.4793172,112.248174 90.651642,119.845574 88.3254919,127.602308 L88.3254919,127.602308 Z M131.882231,163.773339 C116.372244,177.654683 106.676136,179.131824 103.210534,179.131824 C101.611856,179.185056 100.028472,178.805567 98.6276076,178.033437 C93.2114218,174.94659 91.0525226,164.057405 92.7758544,149.626868 C93.2156924,145.947658 93.8478143,142.293994 94.6696257,138.68087 C102.519301,140.489093 110.476838,141.792156 118.493268,142.582039 C123.262218,149.286813 128.475475,155.664196 134.097943,161.671253 L131.882231,163.773339 Z M140.536766,155.232431 C137.127978,151.59639 133.776002,147.657346 130.48084,143.434236 C133.738127,143.585738 137.052227,143.661488 140.404202,143.661488 C143.756177,143.661488 147.183903,143.661488 150.498003,143.453174 C147.221778,147.657346 143.888741,151.59639 140.517828,155.232431 L140.536766,155.232431 Z M182.540613,177.957686 C181.103739,178.744868 179.481481,179.130809 177.84406,179.075011 C174.397396,179.075011 164.587661,177.559994 149.134487,163.735464 L146.918775,161.709129 C152.47206,155.740818 157.627873,149.414667 162.353011,142.771416 C170.422044,142.001409 178.431264,140.698171 186.328155,138.870247 C187.161414,142.544163 187.824234,146.142329 188.221926,149.60793 C190.09676,163.886966 187.918923,174.795088 182.521675,177.881935 L182.540613,177.957686 Z M202.993342,124.098831 C199.754993,125.424471 196.327267,126.655422 192.691227,127.75381 C190.314464,119.908582 187.423357,112.228485 184.036692,104.763427 C187.363214,97.3817244 190.203615,89.7904528 192.539725,82.0381713 C196.098016,83.1244778 199.599579,84.3885801 203.031218,85.8257139 C216.458056,91.5070277 224.809587,98.798047 224.790682,105.028555 C224.771712,111.259062 216.420181,118.436455 202.974404,124.02308 L202.993342,124.098831 Z M140.347389,122.167195 C149.948751,122.177638 157.740669,114.402672 157.751137,104.801309 C157.761583,95.1999461 149.98662,87.4080255 140.385257,87.3975541 C130.783894,87.3871037 122.991971,95.1620638 122.981465,104.763427 C122.971447,109.375704 124.796619,113.802521 128.054445,117.067452 C131.312271,120.332383 135.7351,122.167195 140.347389,122.167195 L140.347389,122.167195 Z M9.07116437,225.377719 L9.07116437,15.7561769 L0,24.846279 L0,234.411008 L231.134783,234.411008 L240.18701,225.377719 L9.07116437,225.377719 Z" fill="#09D3AC"></path>
    </g>
</svg>
