<?xml version="1.0" encoding="UTF-8" standalone="no"?>
<svg width="256px" height="295px" viewBox="0 0 256 295" version="1.1" xmlns="http://www.w3.org/2000/svg" xmlns:xlink="http://www.w3.org/1999/xlink" preserveAspectRatio="xMidYMid">
    <g>
        <path d="M123.44816,294.206044 C95.0294451,281.207696 69.8823861,262.611304 42.9275488,247.106342 C33.9107264,241.920244 25.1329793,236.316683 16.2761535,230.85105 C5.53614875,224.223143 -0.0306311113,214.799893 0.0153449364,201.941312 C0.151434038,165.175186 0.190053918,128.410899 0.000632601111,91.6466122 C-0.0729290752,77.3020853 6.26992647,67.6894133 18.580473,60.436232 C48.111808,43.0352174 77.3746428,25.1597301 106.405758,6.9366638 C121.027981,-2.24199436 134.684706,-2.33946358 149.286699,6.80976991 C176.258087,23.7105651 203.363726,40.4182608 230.813265,56.5282679 C248.068996,66.6540327 253.770026,82.7787521 249.911716,101.95812 C248.512205,108.906021 244.249306,114.119704 238.334947,117.860316 C227.73287,124.567301 217.029646,131.11613 206.376077,137.742198 C203.27913,139.669514 200.20793,141.640966 196.334908,144.092409 C198.55647,146.006852 200.143564,147.671185 202.006513,148.930929 C214.940495,157.68109 227.957233,166.306197 240.893054,175.05268 C249.437243,180.83095 254.888163,188.560443 255.829753,199.133095 C257.107887,213.488656 251.158586,223.939931 239.01907,231.303455 C218.083417,244.0002 197.208453,256.798093 176.307741,269.557365 C173.172175,271.469969 170.100975,273.496593 166.895525,275.282303 C155.50266,281.632515 144.06382,287.903648 132.643369,294.204205 C129.579525,294.206044 126.513843,294.206044 123.44816,294.206044 L123.44816,294.206044 Z M14.7920467,145.749386 C14.7920467,163.510853 15.067903,181.275998 14.6798651,199.031947 C14.4757315,208.381636 18.275192,214.531393 26.1315791,219.266925 C56.2624417,237.432981 86.2939961,255.760873 116.207852,274.280025 C124.489057,279.407274 131.962924,279.217853 140.163212,274.138419 C169.815923,255.779264 199.643344,237.699642 229.391686,219.494967 C231.475321,218.220511 233.639873,216.986513 235.456846,215.384708 C241.944986,209.667127 243.173466,201.029147 238.717468,193.768609 C234.038945,186.14762 225.397287,183.366988 217.204355,187.186678 C213.340528,188.988939 209.732328,191.361304 206.078152,193.590222 C182.832662,207.771074 159.509933,221.826872 136.444669,236.294614 C130.465944,240.044421 125.609034,240.094075 119.652377,236.364498 C98.9098236,223.377184 78.0072732,210.636302 56.9796681,198.112426 C51.0138161,194.559397 48.5016849,190.092365 48.6635205,183.162855 C49.0074214,168.472588 48.7205308,153.767609 48.8106439,139.068147 C48.8271953,136.351882 48.99087,133.506884 49.8147608,130.954294 C51.2436963,126.524042 54.8518966,124.940627 59.2472067,126.533237 C61.233372,127.254142 63.0742529,128.434807 64.8949044,129.543749 C81.6173125,139.730202 98.2937445,149.986539 115.051094,160.115981 C117.897931,161.837325 120.945224,163.431774 124.110215,164.382559 C130.589159,166.333782 139.114958,162.90213 142.568678,157.407073 C146.708362,150.819625 146.05918,142.806919 140.538376,137.129797 C138.443707,134.976279 135.786292,133.297233 133.196921,131.708301 C111.034627,118.104908 88.8300349,104.571399 66.6346381,91.0176599 C58.0187267,85.756161 49.5149969,80.2942065 40.7464451,75.3012077 C32.9249999,70.8470482 24.8847087,72.3900044 19.1634493,78.8744661 C15.7409923,82.7566836 14.7074507,87.3487713 14.7442316,92.4668249 C14.8711255,110.228292 14.7920467,127.987919 14.7920467,145.749386 L14.7920467,145.749386 Z" fill="#3A485D"></path>
    </g>
</svg>