<?xml version="1.0" encoding="UTF-8"?>
<svg width="256px" height="540px" viewBox="0 0 256 540" version="1.1" xmlns="http://www.w3.org/2000/svg" xmlns:xlink="http://www.w3.org/1999/xlink" preserveAspectRatio="xMidYMid">
    <title>Crossplane</title>
    <defs>
        <path d="M0.13671987,122.022484 C-0.0436251546,126.177024 -0.0345010275,130.337626 0.164063843,134.491336 C0.109375896,135.557751 8.72789896e-15,136.610494 8.72789896e-15,137.690581 L8.72789896e-15,347.733316 C8.72789896e-15,387.901614 32.7854247,420.769071 72.8580185,420.769071 L182.507354,420.769071 C222.566276,420.769071 255.365372,387.901614 255.365372,347.733316 L255.365372,137.690581 C255.365372,136.460102 255.228652,135.284311 255.173965,134.081176 C255.373,130.064185 255.377563,126.039916 255.187637,122.022484 C252.097767,54.1000524 196.179341,3.79473868e-15 127.669014,3.79473868e-15 C59.1450156,3.79473868e-15 3.22658892,54.1000524 0.13671987,122.008812 L0.13671987,122.022484 Z" id="path-1"></path>
        <path d="M0.13671987,122.022484 C-0.0436251546,126.177024 -0.0345010275,130.337626 0.164063843,134.491336 C0.109375896,135.557751 8.72789896e-15,136.610494 8.72789896e-15,137.690581 L8.72789896e-15,347.733316 C8.72789896e-15,387.901614 32.7854247,420.769071 72.8580185,420.769071 L182.507354,420.769071 C222.566276,420.769071 255.365372,387.901614 255.365372,347.733316 L255.365372,137.690581 C255.365372,136.460102 255.228652,135.284311 255.173965,134.081176 C255.373,130.064185 255.377563,126.039916 255.187637,122.022484 C252.097767,54.1000524 196.179341,3.79473868e-15 127.669014,3.79473868e-15 C59.1450156,3.79473868e-15 3.22658892,54.1000524 0.13671987,122.008812 L0.13671987,122.022484 Z" id="path-3"></path>
        <path d="M0.13671987,122.022484 C-0.0436251546,126.177024 -0.0345010275,130.337626 0.164063843,134.491336 C0.109375896,135.557751 8.72789896e-15,136.610494 8.72789896e-15,137.690581 L8.72789896e-15,347.733316 C8.72789896e-15,387.901614 32.7854247,420.769071 72.8580185,420.769071 L182.507354,420.769071 C222.566276,420.769071 255.365372,387.901614 255.365372,347.733316 L255.365372,137.690581 C255.365372,136.460102 255.228652,135.284311 255.173965,134.081176 C255.373,130.064185 255.377563,126.039916 255.187637,122.022484 C252.097767,54.1000524 196.179341,3.79473868e-15 127.669014,3.79473868e-15 C59.1450156,3.79473868e-15 3.22658892,54.1000524 0.13671987,122.008812 L0.13671987,122.022484 Z" id="path-5"></path>
    </defs>
    <g>
        <path d="M126.758707,173.661578 C109.070243,173.691757 94.7511395,188.047576 94.7662315,205.73606 L94.7662315,507.613532 C94.7553728,516.109337 98.1198826,524.2615 104.119632,530.276633 C110.119382,536.291767 118.262902,539.677142 126.758707,539.688013 C144.436586,539.688013 158.764841,525.332427 158.764841,507.613532 L158.764841,205.73606 C158.779947,188.047576 144.460844,173.691757 126.772379,173.661578" fill="#F7D186" fill-rule="nonzero"></path>
        <path d="M255.179681,134.094848 C255.365317,130.077427 255.365317,126.053576 255.179681,122.036156 C252.117156,54.1137244 196.198729,0 127.67473,0 C59.1507318,0 3.23230516,54.1137244 0.142436107,122.036156 C-0.0519341741,126.190278 -0.0473716254,130.351322 0.156108094,134.505008 C0.115092133,135.571423 0.00571623784,136.624166 0.00571623784,137.704253 L0.00571623784,347.746988 C0.00571623784,387.915286 32.791141,420.782743 72.8637347,420.782743 L182.51307,420.782743 C222.571992,420.782743 255.357417,387.915286 255.357417,347.746988 L255.357417,137.704253 C255.357417,136.473774 255.234369,135.297983 255.179681,134.094848" fill="#FF9234" fill-rule="nonzero"></path>
        <g transform="translate(0.6346, 0.0137)">
            <mask id="mask-2" fill="white">
                <use xlink:href="#path-1"></use>
            </mask>
            <g></g>
            <polygon fill="#FFCD3C" fill-rule="nonzero" mask="url(#mask-2)" points="331.873811 126.028376 15.1895775 443.464569 -78.600253 349.442315 238.070309 32.0061215"></polygon>
        </g>
        <g transform="translate(0.6346, 0.0137)">
            <mask id="mask-4" fill="white">
                <use xlink:href="#path-3"></use>
            </mask>
            <g></g>
            <polygon fill="#F3807B" fill-rule="nonzero" mask="url(#mask-4)" points="237.783197 31.7053378 -78.8873647 349.141531 -195.591445 232.150339 121.051773 -85.2858546"></polygon>
        </g>
        <g transform="translate(0.6346, 0.0137)">
            <mask id="mask-6" fill="white">
                <use xlink:href="#path-5"></use>
            </mask>
            <g></g>
            <polygon fill="#35D0BA" fill-rule="nonzero" mask="url(#mask-6)" points="425.964426 220.351414 109.293864 537.773935 15.5040332 443.751681 332.174595 126.329159"></polygon>
        </g>
        <polyline fill="#D8AE64" fill-rule="nonzero" points="103.44797 421.138214 158.956237 476.783201 158.956237 420.673367 103.44797 421.138214"></polyline>
    </g>
</svg>
