<?xml version="1.0" encoding="UTF-8"?>
<svg width="512px" height="152px" viewBox="0 0 512 152" version="1.1" xmlns="http://www.w3.org/2000/svg"  preserveAspectRatio="xMidYMid">
    <title>Cube</title>
    <g>
        <g transform="translate(0.000000, 0.571922)">
            <polygon fill="#FF6492" points="130.927055 37.9734862 65.4797142 0 65.4797142 26.2760554 130.927055 64.0822813 130.927055 37.9680907"></polygon>
            <polygon fill="#141446" points="130.927055 64.0822813 111.292853 75.5369149 65.4635277 48.9964803 39.2791957 64.1038633 19.6395979 53.4909267 65.4743187 26.2760554 130.927055 64.0822813"></polygon>
            <polygon fill="#A14474" points="39.2791957 64.1038633 19.6395979 53.4909267 19.6395979 75.5369149"></polygon>
            <polygon fill="#141446" points="9.58432253e-15 113.100344 65.4635277 75.5369149 130.927055 113.100344 65.4635277 151.07383"></polygon>
            <polygon fill="#FF6492" points="130.927055 87.0293169 65.4635277 48.5864227 65.4635277 75.5369149 130.927055 113.100344"></polygon>
            <polygon fill="#7A77FF" points="19.6395979 75.5369149 19.6395979 53.4909267 65.4743187 26.2760554 65.4743187 0 4.79216126e-15 37.9734862 4.79216126e-15 113.100344 65.4635277 75.5369149 65.4635277 48.5864227"></polygon>
        </g>
        <path d="M171.538938,79.4972074 C171.538938,56.782178 189.554492,39.1119354 212.253335,39.1119354 C226.821169,39.1119354 238.092356,46.2124054 244.669463,57.0897212 L233.085337,66.2404789 C228.067528,59.1400089 221.652286,54.4081607 212.420596,54.4081607 C198.32217,54.4081607 188.302738,65.4527367 188.302738,79.4864164 C188.302738,93.8384302 198.32217,104.715746 212.420596,104.715746 C221.501212,104.715746 227.92185,100.151158 233.085337,93.0506881 L244.674858,102.044977 C237.941282,112.922292 226.653909,120.022767 212.253335,120.022767 C189.554492,120.033553 171.538938,102.363311 171.538938,79.4972074 L171.538938,79.4972074 Z M258.924358,85.8045398 L258.924358,40.8600755 L275.207958,40.8600755 L275.207958,87.0670854 C275.207958,97.9444011 282.874955,104.726537 292.59224,104.726537 C301.99119,104.726537 309.507113,97.9444011 309.507113,87.0670854 L309.507113,40.85468 L325.952579,40.85468 L325.952579,85.8099353 C325.952579,106.787616 311.384745,120.033553 292.603031,120.033553 C273.486796,120.033553 258.924358,106.787616 258.924358,85.8099353 L258.924358,85.8045398 Z M425.720657,79.6482812 C425.720657,102.676249 409.901069,120.033553 388.130251,120.033553 C376.853668,120.033553 366.98531,115.46357 361.195945,107.575358 L361.195945,118.3016 L345.85116,118.3016 L345.85116,0 L362.296626,0 L362.296626,50.3183763 C368.096782,43.2233018 377.328472,39.1227264 387.979177,39.1227264 C409.901069,39.1119354 425.715261,56.6203132 425.715261,79.6482812 L425.720657,79.6482812 Z M408.800388,79.4972074 C408.800388,64.5085253 398.468017,54.2624823 385.303012,54.2624823 C373.718886,54.2624823 362.12397,62.1506945 362.12397,79.6590722 C362.12397,97.3239193 373.86996,104.893797 385.303012,104.893797 C398.619091,104.893797 408.800388,94.480494 408.800388,79.4972074 Z M510.753641,85.0167977 L453.431914,85.0167977 C455.633275,97.7933273 465.334373,105.363205 478.488587,105.363205 C487.41813,105.363205 494.459249,101.888507 500.879887,96.2178431 L508.71954,107.575358 C500.572344,115.301705 490.234578,120.033553 478.019179,120.033553 C454.219656,120.033553 436.673509,102.525175 436.673509,79.6482812 C436.673509,56.9386473 454.052395,39.1119354 476.454486,39.1119354 C496.968154,39.1119354 512,54.2516914 512,74.5980989 C512,78.8605391 511.217653,82.9719055 510.753641,85.0167977 L510.753641,85.0167977 Z M453.750248,72.0784033 L495.565326,72.0784033 C495.246991,59.927751 486.32824,53.1456151 475.834004,53.1456151 C465.021434,53.1564061 456.248361,60.5644192 453.750248,72.0837988 L453.750248,72.0784033 Z" fill="#000000"></path>
    </g>
</svg>
