<?xml version="1.0" encoding="UTF-8" standalone="no"?>
<svg width="256px" height="172px" viewBox="0 0 256 172" version="1.1" xmlns="http://www.w3.org/2000/svg" xmlns:xlink="http://www.w3.org/1999/xlink" preserveAspectRatio="xMidYMid">
	<g>
		<path d="M48.832,73.919 L77.026,54.421 L127.98,89.744 L256,1.052 L0,0.998 L48.832,34.866 L48.832,73.919 L48.832,73.919 Z M127.978,77.244 L82.038,45.372 L227.547,11.806 L127.978,77.244 L127.978,77.244 Z M32.992,11.333 L224.819,7.303 L60.172,30.246 L32.992,11.333 L32.992,11.333 Z" fill="#235A5A"></path>
		<path d="M255.998,13.362 L127.91,102.313 L127.872,102.287 L127.869,102.288 L76.96,66.88 L38.47,93.646 L38.47,40.279 L0.288,13.678 L0.288,139.288 C0.773,149.332 5.28,158.054 11.664,164.299 C14.948,167.506 19.377,170.725 27.691,171.951 L33.419,167.97 L27.696,171.951 C28.894,172.106 30.117,172.201 31.352,172.201 L129.638,172.201 L129.641,172.199 L224.894,172.199 C242,172.199 256,156.552 256,137.423 L256,84.329 L255.998,84.326 L255.998,13.362" fill="#235A5A"></path>
		<path d="M38.47,40.279 L0.288,13.678 L0.288,120.197 L38.47,93.646 L38.47,40.279" fill="#82BFBE"></path>
		<path d="M224.894,172.198 C242,172.198 256,156.552 256,137.423 L256,84.329 L129.638,172.198 L224.894,172.198" fill="#235A5A"></path>
		<path d="M256,13.36 L127.91,102.314 L127.872,102.287 L27.696,171.951 C28.894,172.106 30.117,172.201 31.352,172.201 L129.638,172.201 L255.998,84.327 L255.998,13.36 L256,13.36" fill="#2C7A79"></path>
		<path d="M76.96,66.88 L0.288,120.197 L0.288,139.288 C0.773,149.332 5.28,158.054 11.664,164.299 C14.948,167.506 19.377,170.725 27.691,171.951 L127.905,102.314 L76.96,66.88" fill="#389798"></path>
	</g>
</svg>