<?xml version="1.0" encoding="UTF-8"?>
<svg width="256px" height="256px" viewBox="0 0 256 256" version="1.1" xmlns="http://www.w3.org/2000/svg" xmlns:xlink="http://www.w3.org/1999/xlink" preserveAspectRatio="xMidYMid">
    <title>daisyUI</title>
    <defs>
        <radialGradient cx="-0.0444510578%" cy="-0.0441805097%" fx="-0.0444510578%" fy="-0.0441805097%" r="141.466371%" id="radialGradient-1">
            <stop stop-color="#FFE600" offset="0%"></stop>
            <stop stop-color="#FFA573" offset="100%"></stop>
        </radialGradient>
    </defs>
    <g>
        <g>
            <g opacity="0.7" fill-rule="nonzero">
                <path d="M84.3148414,22.5350797 C81.047792,27.3469726 78.4512723,32.9294328 76.7404227,39.2825741 C71.8218727,57.5511726 57.5518574,71.8211879 39.2830307,76.7403086 C32.9297752,78.4505875 27.3471438,81.0471072 22.5351367,84.3147272 C15.7150213,48.6410015 48.6412298,15.7148501 84.3148414,22.5350797 Z" fill="#FFD819"></path>
                <path d="M22.5358215,84.3141566 C23.6280147,90.0270704 25.7395273,95.8107465 29.0222699,101.512818 C38.4620739,117.908555 38.4620739,138.089505 29.0222699,154.485813 C25.7394131,160.187884 23.6279005,165.970989 22.5357644,171.684474 C-7.51195953,151.281536 -7.51190246,104.717094 22.5358215,84.3141566 Z" fill="#FFE029"></path>
                <path d="M84.3148414,233.46338 C81.047792,228.651544 78.4512723,223.068741 76.7404227,216.715543 C71.8218727,198.446887 57.5518574,184.176872 39.2830307,179.258322 C32.9297752,177.547472 27.3471438,174.950953 22.5351367,171.683332 C15.7150213,207.357229 48.6412298,240.283381 84.3148414,233.46338 Z" fill="#FFC141"></path>
                <path d="M171.685159,233.462809 C165.972245,232.370559 160.189139,230.259103 154.487068,226.976646 C138.09076,217.536728 117.909811,217.536728 101.514073,226.976646 C95.812002,230.259103 90.0283259,232.371129 84.315412,233.462809 C104.717779,263.510533 151.282792,263.510533 171.685159,233.462809 Z" fill="#FFB655"></path>
                <path d="M233.464635,171.683903 C228.652799,174.951523 223.070567,177.547472 216.717369,179.258322 C198.448713,184.176872 184.178698,198.446887 179.259577,216.716113 C177.549298,223.068741 174.952779,228.651544 171.685159,233.46338 C207.358485,240.283381 240.284636,207.357229 233.464635,171.683903 Z" fill="#FFB35B"></path>
                <path d="M233.464635,84.3147272 C232.372385,90.0276411 230.260929,95.8107465 226.977901,101.512818 C217.538554,117.908555 217.538554,138.089505 226.977901,154.485813 C230.260929,160.187884 232.372385,165.970989 233.464635,171.683903 C263.511788,151.281536 263.511788,104.717665 233.464635,84.3147272 Z" fill="#FFB656"></path>
                <path d="M171.685159,22.5349085 C174.952779,27.3468585 177.549298,32.9293757 179.259577,39.2825741 C184.178698,57.5511726 198.448713,71.8211879 216.717369,76.7403086 C223.070567,78.4505875 228.652799,81.0471072 233.464635,84.3141566 C240.284636,48.6409444 207.358485,15.7152495 171.685159,22.5349085 Z" fill="#FFC042"></path>
                <path d="M84.315412,22.5353079 C90.0283259,23.6275011 95.8114313,25.7389566 101.513503,29.0217563 C117.909811,38.4615603 138.09076,38.4616174 154.486497,29.0217563 C160.188569,25.7390707 165.971674,23.6276152 171.684588,22.5354221 C151.28165,-7.51178833 104.717779,-7.51178833 84.315412,22.5353079 Z" fill="#FFCE2A"></path>
            </g>
            <path d="M76.7421347,39.2822888 C78.4524137,32.9292045 81.0489333,27.3467444 84.3165534,22.5346802 C90.0288965,23.6269875 95.8125727,25.7385001 101.514073,29.0211857 C117.910381,38.4609897 138.091331,38.4609897 154.487068,29.0211857 C160.189139,25.7383859 165.972815,23.6268163 171.685729,22.5346802 C174.953349,27.3466302 177.549869,32.9291474 179.260148,39.2822888 C184.179269,57.5511726 198.449284,71.8211879 216.717939,76.7397379 C223.070567,78.4505875 228.65337,81.0465365 233.465206,84.3141566 C232.372955,90.0270704 230.2615,95.8107465 226.978472,101.512247 C217.538554,117.908555 217.538554,138.089505 226.978472,154.485813 C230.2615,160.187313 232.372955,165.970989 233.465206,171.683903 C228.65337,174.951523 223.070567,177.547472 216.717939,179.258322 C198.449284,184.176872 184.179269,198.446887 179.260148,216.715543 C177.549869,223.068741 174.953349,228.651544 171.685729,233.46338 C165.972815,232.371129 160.189139,230.259674 154.487068,226.976646 C138.091331,217.537298 117.910381,217.537298 101.514073,226.976646 C95.8125727,230.259674 90.0288965,232.371129 84.3165534,233.46338 C81.0489333,228.651544 78.4524137,223.068741 76.7421347,216.715543 C71.823014,198.446887 57.5529987,184.176872 39.2844003,179.258322 C32.9311447,177.547472 27.3485134,174.950953 22.5365063,171.683332 C23.6286995,165.970989 25.740155,160.187313 29.0228977,154.485813 C38.4627017,138.089505 38.4627017,117.908555 29.0228977,101.512247 C25.740155,95.8107465 23.6286995,90.0276411 22.5365063,84.3147272 C27.3484564,81.0471072 32.9310877,78.4505875 39.2844003,76.7397379 C57.5529987,71.8211879 71.823014,57.5511726 76.7421347,39.2822888 Z" fill="url(#radialGradient-1)"></path>
        </g>
        <path d="M174.575126,149.416597 L183.506183,149.416597 C185.972426,149.416597 187.971712,151.415883 187.971712,153.882126 C187.971712,156.348369 185.972426,158.347655 183.506183,158.347655 L174.575126,158.347655 C172.108882,158.347655 170.109597,156.348369 170.109597,153.882126 C170.109597,151.415883 172.108882,149.416597 174.575126,149.416597 Z" fill="#FFA17A" fill-rule="nonzero" transform="translate(179.0407, 153.8821) rotate(60) translate(-179.0407, -153.8821)"></path>
        <path d="M163.412374,149.416597 L172.343431,149.416597 C174.809675,149.416597 176.80896,151.415883 176.80896,153.882126 C176.80896,156.348369 174.809675,158.347655 172.343431,158.347655 L163.412374,158.347655 C160.946131,158.347655 158.946845,156.348369 158.946845,153.882126 C158.946845,151.415883 160.946131,149.416597 163.412374,149.416597 Z" fill="#FFA17A" fill-rule="nonzero" transform="translate(167.8779, 153.8821) rotate(60) translate(-167.8779, -153.8821)"></path>
        <path d="M84.1489046,149.416597 L93.0799619,149.416597 C95.5462053,149.416597 97.5454906,151.415883 97.5454906,153.882126 C97.5454906,156.348369 95.5462053,158.347655 93.0799619,158.347655 L84.1489046,158.347655 C81.6826612,158.347655 79.6833759,156.348369 79.6833759,153.882126 C79.6833759,151.415883 81.6826612,149.416597 84.1489046,149.416597 Z" fill="#FFAB89" fill-rule="nonzero" transform="translate(88.6144, 153.8821) rotate(60) translate(-88.6144, -153.8821)"></path>
        <path d="M72.9850115,149.416597 L81.9160689,149.416597 C84.3823123,149.416597 86.3815976,151.415883 86.3815976,153.882126 C86.3815976,156.348369 84.3823123,158.347655 81.9160689,158.347655 L72.9850115,158.347655 C70.5187681,158.347655 68.5194828,156.348369 68.5194828,153.882126 C68.5194828,151.415883 70.5187681,149.416597 72.9850115,149.416597 Z" fill="#FFAB89" fill-rule="nonzero" transform="translate(77.4505, 153.8821) rotate(60) translate(-77.4505, -153.8821)"></path>
        <path d="M171.561086,95.8369743 L180.492143,95.8369743 C182.958386,95.8369743 184.957672,97.8362596 184.957672,100.302503 C184.957672,102.768746 182.958386,104.768032 180.492143,104.768032 L171.561086,104.768032 C169.094842,104.768032 167.095557,102.768746 167.095557,100.302503 C167.095557,97.8362596 169.094842,95.8369743 171.561086,95.8369743 Z" fill="#FFA17A" fill-rule="nonzero" transform="translate(176.0266, 100.3025) rotate(15) translate(-176.0266, -100.3025)"></path>
        <path d="M75.5518312,95.8368651 L84.4828886,95.8368651 C86.949132,95.8368651 88.9484173,97.8361504 88.9484173,100.302394 C88.9484173,102.768637 86.949132,104.767922 84.4828886,104.767922 L75.5518312,104.767922 C73.0855878,104.767922 71.0863025,102.768637 71.0863025,100.302394 C71.0863025,97.8361504 73.0855878,95.8368651 75.5518312,95.8368651 Z" fill="#FFAB89" fill-rule="nonzero" transform="translate(80.0174, 100.3024) rotate(-15) translate(-80.0174, -100.3024)"></path>
        <g transform="translate(118.2391, 142.7986)" stroke-linecap="round" stroke-width="12">
            <path d="M0,1.1162181 C2.3551289,3.72529233 6.53238683,5.58166119 10.0476749,5.58166119 C13.5623924,5.58166119 17.7396503,3.72529233 20.0947792,1.1162181" stroke-opacity="0.05" stroke="#8B2C0C"></path>
            <path d="M0,0 C2.3551289,2.60907422 6.53238683,4.46544308 10.0476749,4.46544308 C13.5623924,4.46544308 17.7396503,2.60907422 20.0947792,0" stroke="#D05B34"></path>
        </g>
        <g transform="translate(64.6529, 109.3069)">
            <g transform="translate(-0, 0)">
                <path d="M5.00728816,5.00728816 L13.9383455,5.00728816 C16.4045889,5.00728816 18.4038742,7.00657345 18.4038742,9.47281684 C18.4038742,11.9390602 16.4045889,13.9383455 13.9383455,13.9383455 L5.00728816,13.9383455 C2.54104477,13.9383455 0.541759474,11.9390602 0.541759474,9.47281684 C0.541759474,7.00657345 2.54104477,5.00728816 5.00728816,5.00728816 Z" fill="#000000" fill-rule="nonzero" transform="translate(9.4728, 9.4728) rotate(45) translate(-9.4728, -9.4728)"></path>
                <rect fill="#000000" fill-rule="nonzero" x="2.23211279" y="2.23300687" width="33.4914509" height="33.4914509" rx="16.7457254"></rect>
                <rect fill-opacity="0.05" fill="#000000" fill-rule="nonzero" x="2.23211279" y="3.34865431" width="33.4914509" height="33.4914509" rx="16.7457254"></rect>
                <path d="M6.34317375,23.4428629 C8.1824227,18.2401223 13.1443432,14.5125474 18.9770964,14.5125474 C24.8104202,14.5125474 29.7723407,18.240693 31.6115896,23.4445749 C29.7723407,28.6467447 24.8098496,32.3743197 18.977667,32.3743197 C13.1443432,32.3743197 8.18185204,28.646174 6.34317375,23.4428629 Z" fill="#784012"></path>
                <path d="M30.1655279,26.3521062 C31.5625126,24.2372267 32.3757083,21.7029094 32.3757083,18.9785611 C32.3757083,11.5799068 26.3774626,5.58166119 18.9788083,5.58166119 C11.5801541,5.58166119 5.5824791,11.5799068 5.5824791,18.9785611 C5.5824791,21.4210015 6.23588898,23.7110748 7.37778695,25.6827177 C9.77514495,22.0538675 13.8902006,19.6593628 18.5645065,19.6593628 C23.5207204,19.6593628 27.8486335,22.3511833 30.1655279,26.3521062 Z" fill-opacity="0.35" fill="#000000"></path>
                <rect fill="#000000" fill-rule="nonzero" x="11.162999" y="11.163893" width="15.6293361" height="15.6293361" rx="7.81466806"></rect>
                <circle fill="#FFFFFF" fill-rule="nonzero" cx="15.3185717" cy="11.0640269" r="6.69827876"></circle>
                <circle fill="#FFFFFF" fill-rule="nonzero" cx="27.8925746" cy="20.2123359" r="3.34913938"></circle>
                <circle fill="#FFFFFF" fill-rule="nonzero" cx="23.7136047" cy="27.1818511" r="2.23276149"></circle>
            </g>
            <g transform="translate(91.5427, 0.0003)">
                <path d="M21.8970492,5.00728816 L30.8281066,5.00728816 C33.29435,5.00728816 35.2936353,7.00657345 35.2936353,9.47281684 C35.2936353,11.9390602 33.29435,13.9383455 30.8281066,13.9383455 L21.8970492,13.9383455 C19.4308058,13.9383455 17.4315205,11.9390602 17.4315205,9.47281684 C17.4315205,7.00657345 19.4308058,5.00728816 21.8970492,5.00728816 Z" fill="#000000" fill-rule="nonzero" transform="translate(26.3626, 9.4728) rotate(135) translate(-26.3626, -9.4728)"></path>
                <rect fill-opacity="0.05" fill="#000000" fill-rule="nonzero" x="0" y="3.34890156" width="33.4914509" height="33.4914509" rx="16.7457254"></rect>
                <rect fill="#000000" fill-rule="nonzero" x="0" y="2.23268345" width="33.4914509" height="33.4914509" rx="16.7457254"></rect>
                <path d="M4.1338875,23.5047418 C5.86585169,18.1113996 10.9225023,14.2086309 16.8910735,14.2086309 C22.7015708,14.2086309 27.6475127,17.9076727 29.5038815,23.0790267 C27.7719173,28.4717982 22.714696,32.3751376 16.7466956,32.3751376 C10.9361982,32.3751376 5.9896857,28.6760958 4.1338875,23.5047418 Z" fill="#784012"></path>
                <path d="M28.2347256,25.8712839 C29.4456738,23.8574119 30.1418835,21.4994297 30.1418835,18.9788083 C30.1418835,11.5801541 24.1436378,5.58190843 16.7449836,5.58190843 C9.34632931,5.58190843 3.34865431,11.5801541 3.34865431,18.9788083 C3.34865431,21.5975839 4.10021835,24.0405949 5.39904882,26.1046854 C7.74162311,22.2076233 12.0107579,19.6008317 16.8887908,19.6008317 C21.6686696,19.6008317 25.8641887,22.1043332 28.2347256,25.8712839 Z" fill-opacity="0.35" fill="#000000"></path>
                <rect fill="#000000" fill-rule="nonzero" x="8.93088617" y="11.1641403" width="15.6293361" height="15.6293361" rx="7.81466806"></rect>
                <circle fill="#FFFFFF" fill-rule="nonzero" cx="13.0870296" cy="11.0637035" r="6.69827876"></circle>
                <circle fill="#FFFFFF" fill-rule="nonzero" cx="25.6610325" cy="20.2120125" r="3.34913938"></circle>
                <circle fill="#FFFFFF" fill-rule="nonzero" cx="21.4820625" cy="27.1815277" r="2.23276149"></circle>
            </g>
        </g>
    </g>
</svg>
