<?xml version="1.0" encoding="UTF-8" standalone="no"?>
<svg width="256px" height="296px" viewBox="0 0 256 296" version="1.1" xmlns="http://www.w3.org/2000/svg" xmlns:xlink="http://www.w3.org/1999/xlink" preserveAspectRatio="xMidYMid">
	<g>
		<path d="M0,74.0550788 L128,0.154472727 L256,74.0550788 L256,221.856291 L128,295.757867 L0,221.856291 L0,74.0550788 Z" fill="#FFFFFF"></path>
		<g transform="translate(12.606061, 14.545455)">
			<path d="M115.630255,0.496581818 L0.605769697,67.1118545 L1.28746667,68.2939152 L58.2009212,101.607855 L114.944679,2.69003636 L115.630255,0.496581818 Z" fill="#95CA71"></path>
			<path d="M115.550352,0.604412121 L116.223321,2.00853333 L116.734352,132.024533 L115.550352,133.612897 L113.751564,133.386958 L57.5198061,101.266715 L115.550352,0.604412121 Z" fill="#7DC262"></path>
			<path d="M115.478982,48.271903 L115.610861,133.504388 L117.7568,133.132024 L190.091345,91.6386909 L115.478982,48.271903 Z" fill="#67BC59"></path>
			<path d="M115.478982,49.2683636 L115.630255,0.496484848 L230.664436,67.0545455 L229.710255,68.3791515 L189.494982,92.150303 L115.478982,49.2683636 Z" fill="#51B755"></path>
			<path d="M172.881261,164.059539 L228.601988,197.032145 L230.664533,200.028509 L115.626473,266.556509 L117.671564,259.910206 L172.881261,164.059539 Z" fill="#51B755"></path>
			<path d="M174.159224,164.826376 L119.715588,133.642861 L115.610861,133.505164 L113.581285,138.244073 L114.093285,262.466133 L115.610861,266.556315 L174.159224,164.826376 Z" fill="#67BC59"></path>
			<path d="M115.61057,133.504776 L110.769842,134.665503 L40.9904485,175.561503 L113.069964,217.991564 L115.61057,217.65217 L115.61057,133.504776 Z" fill="#95CA71"></path>
			<path d="M115.626376,217.651685 L115.626376,266.556412 L0.605769697,200.019685 L2.90589091,197.288048 L41.2467394,174.794958 L115.626376,217.651685 Z" fill="#7DC262"></path>
			<path d="M230.664824,67.0542545 L230.664824,200.02783 L115.610279,133.504679 L230.664824,67.0542545 Z" fill="#39B353"></path>
			<path d="M115.61057,133.504776 L0.605478788,67.1115636 L0.605478788,200.02017 L115.61057,133.504776 Z" fill="#B1D58B"></path>
		</g>
	</g>
</svg>
