<?xml version="1.0" encoding="UTF-8"?>
<svg width="256px" height="256px" viewBox="0 0 256 256" version="1.1" xmlns="http://www.w3.org/2000/svg" preserveAspectRatio="xMidYMid">
    <title>Datasette</title>
    <g fill="#0E0C82">
        <path d="M224,0 C241.488171,0 256,14.5118289 256,32 L256,224 C256,241.488171 241.488171,256 224,256 L32,256 C14.5118289,256 0,241.488171 0,224 L0,32 C0,14.5118289 14.5118289,0 32,0 L224,0 Z M246.153846,216.615385 L9.84615385,216.615385 L9.84615385,224 C9.84615385,235.835107 19.5920901,245.792384 31.3563575,246.144227 L32,246.153846 L224,246.153846 C236.05029,246.153846 246.153846,236.05029 246.153846,224 L246.153846,216.615385 Z M246.153846,174.769231 L9.84615385,174.769231 L9.84615385,206.769231 L246.153846,206.769231 L246.153846,174.769231 Z M246.153846,132.923077 L9.84615385,132.923077 L9.84615385,164.923077 L246.153846,164.923077 L246.153846,132.923077 Z M246.153846,91.0769231 L9.84615385,91.0769231 L9.84615385,123.076923 L246.153846,123.076923 L246.153846,91.0769231 Z M246.153846,46.7692308 L9.84615385,46.7692308 L9.84615385,81.2307692 L246.153846,81.2307692 L246.153846,46.7692308 Z M224,9.84615385 L32,9.84615385 C19.9497095,9.84615385 9.84615385,19.9497095 9.84615385,32 L9.84615385,36.9230769 L246.153846,36.9230769 L246.153846,32 C246.153846,20.1648933 236.40791,10.2076159 224.643643,9.85577279 L224,9.84615385 Z"></path>
        <path d="M46.7692308,41.8461538 C49.4881711,41.8461538 51.6923077,44.0502905 51.6923077,46.7692308 L51.6923077,251.076923 C51.6923077,253.795863 49.4881711,256 46.7692308,256 C44.0502905,256 41.8461538,253.795863 41.8461538,251.076923 L41.8461538,46.7692308 C41.8461538,44.0502905 44.0502905,41.8461538 46.7692308,41.8461538 Z M169.846154,41.8461538 C172.565094,41.8461538 174.769231,44.0502905 174.769231,46.7692308 L174.769231,251.076923 C174.769231,253.795863 172.565094,256 169.846154,256 C167.127214,256 164.923077,253.795863 164.923077,251.076923 L164.923077,46.7692308 C164.923077,44.0502905 167.127214,41.8461538 169.846154,41.8461538 Z M209.230769,41.8461538 C211.94971,41.8461538 214.153846,44.0502905 214.153846,46.7692308 L214.153846,251.076923 C214.153846,253.795863 211.94971,256 209.230769,256 C206.511829,256 204.307692,253.795863 204.307692,251.076923 L204.307692,46.7692308 C204.307692,44.0502905 206.511829,41.8461538 209.230769,41.8461538 Z M86.1538462,36.9230769 C88.8727865,36.9230769 91.0769231,39.1272135 91.0769231,41.8461538 L91.0769231,246.153846 C91.0769231,248.872786 88.8727865,251.076923 86.1538462,251.076923 C83.4349058,251.076923 81.2307692,248.872786 81.2307692,246.153846 L81.2307692,41.8461538 C81.2307692,39.1272135 83.4349058,36.9230769 86.1538462,36.9230769 Z M128,36.9230769 C130.71894,36.9230769 132.923077,39.1272135 132.923077,41.8461538 L132.923077,246.153846 C132.923077,248.872786 130.71894,251.076923 128,251.076923 C125.28106,251.076923 123.076923,248.872786 123.076923,246.153846 L123.076923,41.8461538 C123.076923,39.1272135 125.28106,36.9230769 128,36.9230769 Z" fill-opacity="0.3"></path>
        <path d="M251.076923,41.8461538 L4.92307692,41.8461538 C7.38461538,14.7692308 12.3076923,4.92307692 39.3846154,4.92307692 L214.153846,4.92307692 C243.692308,4.92307692 251.076923,14.7692308 251.076923,41.8461538 Z" fill-opacity="0.3"></path>
    </g>
</svg>
