<?xml version="1.0" encoding="UTF-8"?>
<svg width="256px" height="321px" viewBox="0 0 256 321" version="1.1" xmlns="http://www.w3.org/2000/svg" preserveAspectRatio="xMidYMid">
    <title>DataStation</title>
    <g>
        <path d="M253.873754,117.160215 C255.048047,117.160215 256,118.112168 256,119.286461 L256,153.490173 C256,170.727297 247.707402,186.911861 233.716598,196.980419 L63.0558795,319.797338 C62.7664495,320.005628 62.4188795,320.117692 62.0622924,320.117692 C61.1228578,320.117692 60.3612957,319.35613 60.3612957,318.416695 L60.3612957,258.069591 C60.3612957,256.976814 60.8862382,255.950559 61.7723333,255.311031 L252.629407,117.562361 C252.991644,117.300921 253.427025,117.160215 253.873754,117.160215 Z M253.448505,38.1743355 C254.857657,38.1743355 256,39.3166788 256,40.7258305 L256,82.6582435 C256,84.2978613 255.212154,85.8376129 253.882402,86.7968352 L2.69612739,267.99121 C2.40640348,268.200203 2.05823371,268.312676 1.70099668,268.312676 C0.761562153,268.312676 0,267.551114 0,266.611679 L0,222.270761 C0,221.178073 0.524857786,220.15189 1.41083377,219.512348 L251.955135,38.6570208 C252.389849,38.3432227 252.912366,38.1743355 253.448505,38.1743355 Z M176.459718,-2.84217094e-14 C177.634011,-2.84217094e-14 178.585963,0.951952691 178.585963,2.12624585 L178.585963,61.904863 C178.585963,62.9968375 178.061787,64.0224413 177.17677,64.6620916 L2.6973964,190.767851 C2.40743156,190.977425 2.05876842,191.090234 1.70099668,191.090234 C0.761562153,191.090234 0,190.328671 0,189.389237 L0,149.88407 C0,135.402465 6.95770104,121.802694 18.701575,113.329305 L175.215622,0.40196445 C175.577811,0.140638961 176.013094,-2.84217094e-14 176.459718,-2.84217094e-14 Z" fill="#252539"></path>
    </g>
</svg>
