<?xml version="1.0" encoding="UTF-8"?>
<svg width="256px" height="275px" viewBox="0 0 256 275" version="1.1" xmlns="http://www.w3.org/2000/svg" preserveAspectRatio="xMidYMid">
    <title>Datadog</title>
    <g>
        <path d="M214.433958,194.557927 L191.638284,179.519174 L172.621733,211.285408 L150.504142,204.819867 L131.029777,234.543215 L132.027466,243.898166 L237.916353,224.384931 L231.766099,158.222192 L214.433958,194.557927 Z M115.688695,166.035261 L132.679635,163.698682 C135.426518,164.933916 137.339834,165.404687 140.63523,166.242573 C145.770519,167.577143 151.709142,168.859886 160.506942,164.428593 C162.554148,163.413628 166.821318,159.513573 168.544599,157.289289 L238.149579,144.664856 L245.250013,230.604289 L125.998144,252.095625 L115.688695,166.035261 Z M244.982235,135.068041 L238.110708,136.376698 L224.911849,0 L0,26.0781131 L27.7106946,250.933815 L54.0393096,247.111501 C51.9359573,244.109797 48.6621565,240.477519 43.0733724,235.830277 C35.32077,229.39065 38.0590151,218.446308 42.6371535,211.53591 C48.6880705,199.861657 79.8669209,185.025897 78.1004505,166.367823 C77.4655577,159.582677 76.390127,150.754644 70.0887082,144.699408 C69.8511633,147.213065 70.2787441,149.627385 70.2787441,149.627385 C70.2787441,149.627385 67.691664,146.32767 66.4046024,141.831593 C65.1261789,140.103993 64.1198522,139.555481 62.7593677,137.249135 C61.787593,139.913957 61.917163,143.00636 61.917163,143.00636 C61.917163,143.00636 59.8008537,138.009279 59.4596528,133.789618 C58.2071432,135.67702 57.8918563,139.261789 57.8918563,139.261789 C57.8918563,139.261789 55.1449733,131.383935 55.771228,127.13836 C54.5187185,123.445616 50.8000607,116.116276 51.8495774,99.4622172 C58.712466,104.269263 73.8246419,103.129047 79.7114369,94.4521789 C81.6636242,91.5757259 83.0068328,83.7324245 78.7353432,68.2704098 C75.9927792,58.3583082 69.2033135,43.5959712 66.5557674,37.9942301 L66.2404805,38.223137 C67.635517,42.7364905 70.51197,52.1907783 71.6176337,56.7818737 C74.9605385,70.689049 75.8545712,75.5349653 74.2867748,81.9486782 C72.9522042,87.5245053 69.7518263,91.16974 61.6407471,95.2468746 C53.5296678,99.3369662 42.7624045,89.3816746 42.0843217,88.8331618 C34.2021494,82.5533379 28.1037234,72.3129924 27.4256407,67.3331871 C26.7173249,61.88693 30.5655526,58.6174481 32.504783,54.1645606 C29.7276669,54.9549373 26.6352639,56.3672498 26.6352639,56.3672498 C26.6352639,56.3672498 30.3280077,52.5449361 34.8802321,49.2409023 C36.7676345,47.9927117 37.8732981,47.198016 39.8600375,45.5481585 C36.9835844,45.5006495 34.6470062,45.5827105 34.6470062,45.5827105 C34.6470062,45.5827105 39.4454136,42.9913114 44.4165809,41.103909 C40.7799841,40.9441061 37.2945523,41.077995 37.2945523,41.077995 C37.2945523,41.077995 48.0013497,36.2882257 56.4536298,32.7768799 C62.2670018,30.3927927 67.9464849,31.0967894 71.1382248,35.7137989 C75.3276534,41.7603968 79.7287129,45.0428357 89.0534307,47.077084 C94.7804228,44.5375129 96.5166602,43.2374943 103.712112,41.27235 C110.043764,34.3058053 115.014931,33.4074536 115.014931,33.4074536 C115.014931,33.4074536 112.548783,35.6706089 111.887976,39.2251447 C115.477064,36.3962006 119.411671,34.0337084 119.411671,34.0337084 C119.411671,34.0337084 117.887065,35.9124728 116.466114,38.9012198 L116.794358,39.3935856 C120.983787,36.8799285 125.907445,34.9018271 125.907445,34.9018271 C125.907445,34.9018271 124.499452,36.6812545 122.849594,38.9832808 C126.011101,38.9573668 132.416176,39.1171697 134.903919,39.3979046 C149.584195,39.7218295 152.629089,23.7242589 158.261063,21.7159246 C165.313988,19.1979485 168.466857,17.673342 180.48663,29.481484 C190.796079,39.6224925 198.85533,57.7622864 194.851619,61.826464 C191.495757,65.1996018 184.879051,60.5091694 177.545392,51.3701685 C173.67125,46.5285712 170.73865,40.8058981 169.365208,33.5327046 C168.207717,27.3954077 163.698682,23.8365529 163.698682,23.8365529 C163.698682,23.8365529 166.311676,29.6672009 166.311676,34.8024902 C166.311676,37.6098392 166.661515,48.1006867 171.161912,53.9918007 C170.717055,54.8512814 170.509743,58.2503332 170.017377,58.902502 C164.782751,52.5751691 153.540398,48.0488587 151.704823,46.7142881 C157.911224,51.7977494 172.172557,63.4763214 177.649048,74.6754846 C182.831846,85.26135 179.778314,94.9661397 182.399946,97.4754779 C183.147133,98.1924316 193.542962,111.149427 195.542659,117.658158 C199.032409,128.999848 195.74997,140.924603 191.184789,148.318729 L178.430786,150.305468 C176.564979,149.787188 175.30815,149.528048 173.636698,148.560593 C174.560964,146.928011 176.392219,142.859514 176.409495,142.01731 L175.688222,140.756162 C171.719063,146.379498 165.072124,151.838712 159.548125,154.974305 C152.318121,159.073035 143.986773,158.438142 138.562111,156.762371 C123.1692,152.015791 108.609856,141.611324 105.09851,138.877398 C105.09851,138.877398 104.990535,141.058492 105.651342,141.550858 C109.529803,145.930322 118.422621,153.847047 127.021747,159.371046 L108.696236,161.388018 L117.360147,228.837818 C113.520557,229.386331 112.920217,229.658428 108.717831,230.25445 C105.01213,217.163565 97.9246537,208.616267 90.1763704,203.636462 C83.3437147,199.24404 73.9196599,198.25499 64.9015909,200.043055 L64.3228451,200.716819 C70.594031,200.06465 77.9967945,200.97164 85.6025509,205.787323 C93.0657804,210.507988 99.0821453,222.700521 101.297792,230.0385 C104.135374,239.419365 106.096199,249.456717 98.4602095,260.094411 C93.0312284,267.656977 77.1805038,271.833449 64.3703541,262.793785 C67.791001,268.296189 72.4123294,272.792266 78.6403253,273.63879 C87.8829821,274.895619 96.6548682,273.288951 102.692828,267.091188 C107.845393,261.791777 110.583638,250.709227 109.862366,239.039293 L118.020954,237.855887 L120.966511,258.80303 L256,242.542001 L244.982235,135.068041 Z M162.826245,78.1825114 C162.450492,79.0419921 161.85447,79.6077809 162.744184,82.406492 L162.796012,82.5662949 L162.938539,82.9290908 L163.309973,83.7669765 C164.912321,87.0450964 166.670153,90.1331804 169.61571,91.7139338 C170.375854,91.5843639 171.166231,91.4979839 171.982522,91.4591129 C174.746681,91.338181 176.491556,91.7743998 177.592901,92.3704216 C177.692238,91.8175898 177.713833,91.0142561 177.653367,89.8265315 C177.437417,85.6759739 178.473976,78.6187303 170.496786,74.9043915 C167.486444,73.509355 163.262464,73.9369359 161.85447,75.6818113 C162.109291,75.7163633 162.338198,75.7681913 162.519596,75.8286572 C164.653181,76.567206 163.210636,77.3014357 162.826245,78.1825114 M185.190019,116.906652 C184.144821,116.327906 179.255715,116.556813 175.817792,116.967118 C169.27019,117.740219 162.19999,120.007693 160.653788,121.217013 C157.837801,123.393788 159.116225,127.185869 161.197982,128.745027 C167.032949,133.102897 172.146643,136.026859 177.541073,135.314224 C180.853745,134.878005 183.777707,129.630422 185.846507,124.870886 C187.263138,121.592766 187.263138,118.055506 185.190019,116.906652 M127.22474,83.3178007 C129.068952,81.5642873 118.029592,79.2622611 109.460699,85.1058661 C103.142004,89.4162266 102.939011,98.6588835 108.989928,103.897829 C109.594588,104.416109 110.095592,104.783223 110.557724,105.085553 C112.324195,104.251987 114.336848,103.414101 116.65615,102.662595 C120.569163,101.39281 123.825688,100.736322 126.499148,100.386483 C127.777572,98.9568944 129.267626,96.4389182 128.896192,91.8780558 C128.38655,85.6889309 123.704756,86.6693435 127.22474,83.3178007" fill="#632CA6"></path>
    </g>
</svg>
