<?xml version="1.0" encoding="UTF-8"?>
<svg width="256px" height="201px" viewBox="0 0 256 201" version="1.1" xmlns="http://www.w3.org/2000/svg" xmlns:xlink="http://www.w3.org/1999/xlink" preserveAspectRatio="xMidYMid">
    <defs>
        <linearGradient x1="0%" y1="5.55111512e-15%" x2="100%" y2="100%" id="linearGradient-1">
            <stop stop-color="#7D58FF" offset="0%"></stop>
            <stop stop-color="#FF007D" offset="100%"></stop>
        </linearGradient>
    </defs>
    <g>
        <path d="M40.3527167,17.0210267 L137.787152,73.4489242 L219.906665,17.0210267 L40.3527167,17.0210267 Z M154.164775,82.930436 L180.753775,98.3352479 L218.038365,39.0430112 L154.164775,82.930436 Z M34.3321617,33.2677934 L83.186502,110.96457 L122.206555,84.1574054 L34.3321617,33.2677934 Z M195.627331,106.945188 L238.761073,131.924592 L238.761073,38.3533698 L195.627331,106.945188 Z M17.2389274,38.3533698 L17.2389274,156.277818 L69.0157008,120.699938 L17.2389274,38.3533698 Z M92.2923238,125.44704 L128,182.226104 L171.660808,112.796563 L138.579894,93.6389168 L92.2923238,125.44704 Z M127.995715,200.533333 C122.416524,200.533333 117.278699,197.448986 113.893475,192.067245 L113.893475,192.063014 L78.1215226,135.182407 L24.0950755,172.308807 C18.610157,176.078565 12.636738,176.789361 7.730307,174.255034 C2.81530582,171.720708 0,166.482818 0,159.878338 L0,21.2011844 C0,12.959335 4.78644838,5.80060343 11.7625791,2.29739435 C13.8922701,0.960420845 16.9818218,0.00423092881 21.4554585,5.54223334e-13 L21.4597436,5.54223334e-13 L21.4768839,5.54223334e-13 L234.523116,5.54223334e-13 L234.540257,5.54223334e-13 L234.544542,5.54223334e-13 C238.713937,0.00423092881 241.692076,0.867340407 243.821767,2.09007884 C251.020723,5.51713118 256,12.7943288 256,21.2011844 L256,134.090827 C256,140.551455 253.236115,145.823193 248.411101,148.556373 C243.581802,151.281091 237.569817,150.972233 231.930635,147.705956 L186.53008,121.410733 L142.10224,192.063014 C138.717017,197.448986 133.579191,200.533333 127.995715,200.533333 Z" fill="url(#linearGradient-1)"></path>
    </g>
</svg>