<?xml version="1.0" encoding="UTF-8"?>
<svg width="256px" height="189px" viewBox="0 0 256 189" version="1.1" xmlns="http://www.w3.org/2000/svg" xmlns:xlink="http://www.w3.org/1999/xlink" preserveAspectRatio="xMidYMid">
    <title>deepseek</title>
    <g>
        <path d="M253.314225,15.8117863 C250.602656,14.4831038 249.434763,17.0152074 247.849181,18.3015287 C247.306685,18.7164858 246.848,19.2557933 246.38886,19.7536507 C242.425587,23.9861217 237.795013,26.7673816 231.745567,26.4348694 C222.901197,25.9365565 215.34998,28.7178165 208.674683,35.482391 C207.256268,27.1408885 202.542337,22.1600373 195.36645,18.9651867 C191.61225,17.304903 187.815689,15.6446192 185.18702,12.0339006 C183.35137,9.46171341 182.85078,6.59800862 181.932955,3.77575399 C181.348553,2.07447557 180.764607,0.33083601 178.803696,0.0402294166 C176.676073,-0.291371838 175.841604,1.49235139 175.007135,2.98729002 C171.669714,9.0882065 170.37656,15.8113308 170.501366,22.6173555 C170.793339,37.9315942 177.260019,50.1320607 190.109112,58.8060754 C191.569433,59.8022456 191.944762,60.7975049 191.486078,62.2509933 C190.609703,65.2390486 189.566616,68.143748 188.649247,71.1318033 C188.064845,73.0412435 187.188471,73.4562006 185.144659,72.6253754 C178.094033,69.6796813 172.002682,65.3214934 166.620994,60.0514021 C157.484651,51.2115867 149.224226,41.458957 138.919991,33.8225627 C136.500395,32.0379285 134.080343,30.3785557 131.576936,28.8007168 C121.063628,18.5921353 132.953901,10.2082717 135.707376,9.21301247 C138.585656,8.17539206 136.708557,4.60566812 127.405046,4.64802927 C118.101536,4.68902393 109.591044,7.80188515 98.7443124,11.9519113 C97.1591855,12.5745746 95.4897918,13.0305264 93.7794035,13.4040333 C83.9338525,11.5369542 73.7125171,11.1210862 63.032497,12.3254182 C42.923705,14.5660041 26.8624525,24.069933 15.0559903,40.2969861 C0.871837703,59.8022456 -2.46558316,81.9630481 1.62295098,105.079482 C5.92010241,129.439876 18.351961,149.609249 37.4595723,165.38035 C57.2763912,181.730843 80.0967523,189.740744 106.129273,188.205266 C121.940913,187.292452 139.546298,185.176216 159.404567,168.368405 C164.410471,170.858603 169.667353,171.853862 178.386917,172.600876 C185.103664,173.22354 191.570344,172.269275 196.576248,171.23211 C204.419437,169.571826 203.877397,162.308939 201.040566,160.981167 C178.053494,150.274273 183.100847,154.63155 178.512178,151.103732 C190.193379,137.284432 207.799219,122.924457 214.682678,76.4018947 C215.224719,72.7087313 214.766034,70.384334 214.682678,67.3962787 C214.640773,65.5706499 215.058007,64.8655417 217.14418,64.6573799 C222.901197,63.9932664 228.491502,62.416794 233.623123,59.5945393 C248.516938,51.4607432 254.524023,38.0973948 255.942438,22.078048 C256.151511,19.6293002 255.900988,17.0971967 253.314225,15.8117863 Z M123.52604,159.984542 C101.248175,142.472078 90.4433491,136.702763 85.9790306,136.951919 C81.8071406,137.201076 82.5582539,141.973765 83.4756233,145.086626 C84.4353538,148.157127 85.6870575,150.274273 87.438896,152.971266 C88.6486939,154.7559 89.4836185,157.411443 86.2295535,159.404239 C79.0536659,163.844872 66.5794462,157.909756 65.9950445,157.619605 C51.4774687,149.069941 39.3371277,137.781378 30.784275,122.344155 C22.5238509,107.485868 17.7265647,91.5503328 16.9335457,74.5348156 C16.7249284,70.4266951 17.9347264,68.9732067 22.0232606,68.2271039 C27.4049485,67.2309336 32.9538036,67.0227718 38.3354915,67.8112358 C61.0729523,71.1318033 80.4301755,81.2993901 96.6585951,97.4016373 C105.9202,106.573054 112.92892,117.530016 120.146714,128.23691 C127.822736,139.607462 136.08316,150.440074 146.596469,159.320884 C150.309218,162.433289 153.27131,164.798681 156.108141,166.542321 C147.556199,167.496585 133.28778,167.704747 123.525585,159.984542 L123.52604,159.984542 Z M134.20606,91.3011763 C134.20606,89.4750919 135.666381,88.02297 137.502486,88.02297 C137.919721,88.02297 138.29505,88.1049593 138.628929,88.2293098 C139.088069,88.3960214 139.505303,88.6451778 139.838727,89.0177737 C140.423128,89.5994424 140.756552,90.428901 140.756552,91.3007208 C140.756552,93.1268052 139.296686,94.5789272 137.461492,94.5789272 C135.626297,94.5789272 134.206971,93.1268052 134.206971,91.3007208 L134.20606,91.3011763 Z M167.373018,108.316693 C165.245395,109.188513 163.117772,109.934616 161.073505,110.017972 C157.902796,110.183772 154.440114,108.896996 152.563014,107.320068 C149.642827,104.87132 147.556655,103.502554 146.680735,99.2277217 C146.304951,97.4016373 146.513568,94.5793827 146.847903,92.9614601 C147.59856,89.4750919 146.764091,87.234506 144.303045,85.2002598 C142.300228,83.5399761 139.755371,83.0840244 136.95999,83.0840244 C135.916904,83.0840244 134.958085,82.6271616 134.248421,82.2536547 C133.080074,81.672897 132.121254,80.2203196 133.038623,78.4356853 C133.330597,77.8553831 134.749467,76.4438003 135.083346,76.1950994 C138.879907,74.0365028 143.260414,74.7425219 147.307043,76.3609 C151.062154,77.8963778 153.898984,80.7186324 157.987063,84.7024025 C162.158953,89.5160866 162.909611,90.8452246 165.287756,94.4550322 C167.165767,97.2772868 168.876156,100.181986 170.044048,103.502554 C170.753256,105.577795 169.835431,107.279073 167.373929,108.316693 L167.373018,108.316693 Z" fill="#4D6BFE" fill-rule="nonzero"></path>
    </g>
</svg>
