<?xml version="1.0" encoding="UTF-8"?>
<svg width="512px" height="109px" viewBox="0 0 512 109" version="1.1" xmlns="http://www.w3.org/2000/svg" xmlns:xlink="http://www.w3.org/1999/xlink" preserveAspectRatio="xMidYMid">
    <title>deepseek</title>
    <g fill="#4D6BFE">
        <path d="M147.00226,9.11341063 C145.439398,8.3476003 144.766262,9.80702423 143.852383,10.5484189 C143.539706,10.787587 143.275334,11.0984267 143.010701,11.3853758 C140.726396,13.8248375 138.05748,15.4278672 134.570772,15.2362177 C129.473159,14.9490061 125.120878,16.5520358 121.273449,20.4509214 C120.455919,15.6431447 117.73896,12.7723405 113.603007,10.9309303 C111.439205,9.97399556 109.250988,9.01706082 107.735907,6.93595748 C106.677897,5.45343061 106.389373,3.80288227 105.860368,2.17622448 C105.523537,1.19566173 105.186969,0.190683352 104.056762,0.0231869559 C102.830468,-0.167937458 102.349507,0.860143868 101.868545,1.72177893 C99.9449619,5.23815311 99.1996292,9.11314809 99.2715634,13.0359242 C99.4398474,21.8625642 103.167036,28.8945249 110.572845,33.8939511 C111.414527,34.4681119 111.630855,35.0417477 111.366483,35.8794922 C110.861369,37.6017122 110.260167,39.2758885 109.731425,40.9981085 C109.394594,42.0986491 108.889479,42.3378172 107.711492,41.858956 C103.647735,40.1611516 100.136874,37.6492308 97.0350402,34.6117177 C91.7691426,29.5167294 87.0080969,23.8956239 81.0690632,19.4942492 C79.6744851,18.4656428 78.2796444,17.5092331 76.8367601,16.5998169 C70.7772236,10.7159153 77.630399,5.88372307 79.2174142,5.3100873 C80.8763636,4.7120359 79.7944629,2.65456058 74.4322155,2.6789762 C69.069968,2.70260422 64.1647914,4.4967584 57.9130803,6.88870145 C56.9994636,7.24758479 56.0372782,7.51038086 55.0514648,7.72565836 C49.3768024,6.6495334 43.4855499,6.40984028 37.3299261,7.10397895 C25.7398581,8.39538141 16.4826631,13.8731436 9.67779382,23.2259008 C1.50249952,34.4681119 -0.421083699,47.2408935 1.93541732,60.5644704 C4.41215869,74.6050264 11.5774865,86.2300114 22.5905058,95.3199725 C34.0122898,104.743876 47.1652199,109.360529 62.1695365,108.475528 C71.2828632,107.949411 81.4300469,106.72968 92.8757214,97.0421925 C95.760965,98.4774634 98.7908645,99.0510991 103.816544,99.4816541 C107.687863,99.8405375 111.415052,99.2905297 114.300296,98.6927409 C118.820861,97.7358061 118.508446,93.5497089 116.873387,92.7844236 C103.624369,86.6133104 106.533504,89.1247062 103.888741,87.0913839 C110.621413,79.126379 120.768859,70.8497467 124.736266,44.0356215 C125.048681,41.9069996 124.78431,40.567291 124.736266,38.845071 C124.712113,37.7928366 124.952594,37.3864347 126.154997,37.2664569 C129.473159,36.883683 132.695233,35.9750544 135.652936,34.3483966 C144.237257,29.6603353 147.69955,21.9581264 148.517079,12.7250845 C148.637582,11.3137042 148.493188,9.85428027 147.00226,9.11341063 Z M72.1964799,92.2100003 C59.3562272,82.1163734 53.1286692,78.7911237 50.555578,78.9347295 C48.1510333,79.0783354 48.5839511,81.8291617 49.1126937,83.6233159 C49.6658518,85.3930545 50.387294,86.6133104 51.396998,88.1677714 C52.094287,89.1963778 52.575511,90.7269483 50.6999714,91.8755325 C46.5640181,94.434972 39.3742747,91.01416 39.0374442,90.8469262 C30.6699753,85.9191717 23.672669,79.4128031 18.7430768,70.515279 C13.9820311,61.9514351 11.2170279,52.7666993 10.7599571,42.9594966 C10.6397167,40.5917066 11.3370058,39.7539621 13.6935068,39.3239322 C16.7953405,38.7497713 19.993524,38.6297935 23.0953578,39.0842391 C36.2005068,40.9981085 47.3573945,46.8583821 56.7109393,56.1392051 C62.0490336,61.4253179 66.0886372,67.7405621 70.2487436,73.9116754 C74.6729587,80.4653 79.4340044,86.7088726 85.4935409,91.8274889 C87.6334518,93.6213806 89.3407073,94.9847172 90.9757662,95.9896956 C86.0466991,96.5397033 77.8228361,96.6596812 72.1962173,92.2100003 L72.1964799,92.2100003 Z M78.3521037,52.6230935 C78.3521037,51.5705966 79.1937862,50.7336396 80.2520589,50.7336396 C80.4925396,50.7336396 80.7088672,50.7808957 80.9013043,50.8525673 C81.1659381,50.9486546 81.4064188,51.0922604 81.5985934,51.3070129 C81.9354239,51.6422682 82.1275985,52.1203418 82.1275985,52.622831 C82.1275985,53.6753279 81.2861785,54.5122848 80.2284309,54.5122848 C79.1706832,54.5122848 78.3526287,53.6753279 78.3526287,52.622831 L78.3521037,52.6230935 Z M97.4684831,62.4302963 C96.2421889,62.9327854 95.0158948,63.3628154 93.8376443,63.410859 C92.0101483,63.5064212 90.0143684,62.764764 88.9324677,61.8558729 C87.2493652,60.4444926 86.0469616,59.6555793 85.5421096,57.1917021 C85.3255195,56.1392051 85.4457598,54.5125474 85.6384594,53.5800282 C86.0711147,51.5705966 85.5901533,50.2791941 84.1716846,49.1067193 C83.0173246,48.1497846 81.5505497,47.8869885 79.9393814,47.8869885 C79.3381796,47.8869885 78.7855465,47.6236674 78.3765193,47.4083899 C77.7031208,47.0736596 77.1504877,46.2364402 77.6792302,45.2078338 C77.8475142,44.8733661 78.6653062,44.0597746 78.8577433,43.9164313 C81.0459603,42.6722849 83.5707453,43.0792119 85.9030932,44.0119935 C88.0674197,44.8969941 89.7024786,46.5236519 92.058717,48.8197702 C94.4632617,51.5942246 94.895917,52.3602974 96.2666046,54.4408757 C97.3490303,56.0675335 98.3348437,57.7417098 99.0079797,59.6555793 C99.4167444,60.8516821 98.8877394,61.8322449 97.4690081,62.4302963 L97.4684831,62.4302963 Z"></path>
        <path d="M314.620472,38.9275065 C311.218825,38.9275065 307.789349,39.6741519 305.563065,41.7759954 C305.369578,41.9558309 305.189742,42.1493181 305.009907,42.3430678 L303.378261,42.3430678 L303.378261,38.9275065 L294.43138,38.9275065 L294.43138,92.6917493 L303.378261,92.6917493 L303.378261,59.2827817 C303.378261,55.8396544 304.124906,52.3826128 306.199184,50.1284998 C308.273461,47.8607352 311.453792,47.0586952 314.620472,47.0586952 C317.773237,47.0586952 320.967745,47.8607352 323.04176,50.1284998 C325.116037,52.3826128 325.862683,55.8396544 325.862683,59.2827817 C325.862683,62.7122573 325.116037,66.1692989 323.04176,68.4231493 C320.967483,70.690914 317.773237,71.4929539 314.620472,71.4929539 L309.531784,71.4929539 L309.531784,79.62388 L314.620472,79.62388 C319.888995,79.62388 325.185346,78.2825962 328.642388,74.5212782 C332.09943,70.7599603 333.330187,65.007588 333.330187,59.2825192 C333.330187,53.5574503 332.09943,47.7911638 328.642388,44.0301083 C325.185346,40.2687904 319.888995,38.9275065 314.620472,38.9275065 Z M189.64112,60.6931118 C189.64112,64.1362392 188.894474,67.5932808 186.820197,69.8473937 C184.745919,72.1015066 181.565588,72.9171983 178.398909,72.9171983 C175.232229,72.9171983 172.051635,72.1012441 169.97762,69.8473937 C167.903343,67.5932808 167.156697,64.1362392 167.156697,60.6931118 C167.156697,57.2636363 167.903343,53.7929429 169.97762,51.53883 C172.051898,49.2847171 175.232229,48.4826771 178.398909,48.4826771 L183.487596,48.4826771 L183.487596,40.351751 L178.398909,40.351751 C173.130386,40.351751 167.834034,41.6930348 164.376992,45.4543528 C160.919951,49.2156707 159.689194,54.968043 159.689194,60.6931118 C159.689194,66.4181807 160.919951,72.1844672 164.376992,75.9455227 C167.834034,79.7068406 173.130386,81.0481245 178.398909,81.0481245 C181.800556,81.0481245 185.216117,80.2875648 187.456315,78.1996356 C187.649803,78.0198001 187.829638,77.8263129 187.995559,77.6325632 L189.64112,77.6325632 L189.64112,81.0481245 L198.588,81.0481245 L198.588,27.2704925 L189.64112,27.2704925 L189.64112,60.6933744 L189.64112,60.6931118 Z M224.045614,38.9275065 C218.56969,38.9275065 213.065937,40.3241849 209.47054,44.2099438 C205.889058,48.0957027 204.602906,54.055739 204.602906,59.9879468 C204.602906,65.9065028 205.889058,71.8801909 209.47054,75.7659497 C213.065937,79.6517086 218.569427,81.048387 224.045614,81.048387 C229.521801,81.048387 235.025292,79.6517086 238.620689,75.7659497 C240.459736,73.7609811 241.704408,71.2165061 242.478882,68.3955833 L233.628876,68.3955833 C233.379994,68.7689059 233.103284,69.1285769 232.79927,69.4604193 C230.642032,71.7974928 227.336997,72.6270988 224.046139,72.6270988 C220.768933,72.6270988 217.463899,71.7974928 215.306661,69.4604193 C213.149423,67.1233457 212.374949,63.5418632 212.374949,59.9882093 C212.374949,56.4345554 213.149423,52.8528103 215.306661,50.5159993 C217.463899,48.1789258 220.768933,47.3493198 224.046139,47.3493198 C227.33726,47.3493198 230.642295,48.1789258 232.79927,50.5159993 C234.292823,52.1339935 235.122429,54.3327119 235.495752,56.7249175 L219.676269,56.7249175 L219.676269,63.2517637 L243.502237,63.2517637 L243.502237,59.9882093 C243.502237,54.0560015 242.216085,48.0959652 238.620951,44.2102063 C235.039469,40.3244475 229.522064,38.9275065 224.045877,38.9275065 L224.045614,38.9275065 Z M268.959589,38.9275065 C263.497316,38.9275065 257.979912,40.3241849 254.398429,44.2099438 C250.803032,48.0957027 249.517143,54.055739 249.517143,59.9879468 C249.517143,65.9065028 250.803295,71.8801909 254.398429,75.7659497 C257.979912,79.6517086 263.497316,81.048387 268.959589,81.048387 C274.435514,81.048387 279.939267,79.6517086 283.534663,75.7659497 C285.387625,73.7609811 286.618382,71.2165061 287.392856,68.3955833 L278.542851,68.3955833 C278.293969,68.7689059 278.017259,69.1285769 277.713245,69.4604193 C275.556007,71.7974928 272.250972,72.6270988 268.973766,72.6270988 C265.682646,72.6270988 262.377611,71.7974928 260.220373,69.4604193 C258.063135,67.1233457 257.288923,63.5418632 257.288923,59.9882093 C257.288923,56.4345554 258.063397,52.8528103 260.220373,50.5159993 C262.377611,48.1789258 265.682646,47.3493198 268.973766,47.3493198 C272.250972,47.3493198 275.556007,48.1789258 277.713245,50.5159993 C279.206798,52.1339935 280.036404,54.3327119 280.409727,56.7249175 L264.590243,56.7249175 L264.590243,63.2517637 L288.416212,63.2517637 L288.416212,59.9882093 C288.416212,54.0560015 287.130323,48.0959652 283.534926,44.2102063 C279.953443,40.3244475 274.436039,38.9275065 268.959852,38.9275065 L268.959589,38.9275065 Z M373.362875,59.2964334 C369.781393,57.0008402 364.263988,56.1851485 358.801715,56.1851485 L358.995203,56.1851485 C356.658129,56.1851485 354.307404,55.8672204 352.772633,54.9683056 C351.237599,54.083305 350.698355,52.7141926 350.698355,51.3592571 C350.698355,50.0043215 351.237599,48.6352091 352.772633,47.7502085 C354.307666,46.8512937 356.658392,46.5333656 358.995203,46.5333656 C361.332014,46.5333656 363.683001,46.865208 365.204121,47.7502085 C366.739154,48.6352091 367.292313,50.0043215 367.292313,51.3592571 L376.405114,51.3592571 C376.405114,47.8607352 375.229751,44.348299 371.980111,42.0529683 C368.730471,39.757375 363.75231,38.9277691 358.801715,38.9277691 C353.851121,38.9277691 348.87296,39.757375 345.62332,42.0529683 C342.373679,44.3485615 341.212231,47.8607352 341.212231,51.3592571 C341.212231,54.857779 342.373679,58.3838669 345.62332,60.6655458 C348.87296,62.9611391 353.851121,63.790745 358.801715,63.790745 C361.373756,63.790745 364.194679,64.1086731 365.88172,64.9936737 C367.582675,65.8925885 368.190965,67.2614384 368.190965,68.6166365 C368.190965,69.9718346 367.582412,71.3406845 365.88172,72.225685 C364.194679,73.1106856 361.595072,73.4286137 359.009117,73.4286137 C356.437076,73.4286137 353.837469,73.1106856 352.136514,72.225685 C350.449474,71.3267702 349.840921,69.9715721 349.840921,68.6166365 L339.345355,68.6166365 C339.345355,72.1012441 340.631507,75.6275946 344.226641,77.9229253 C347.822038,80.2185185 353.325528,81.0342102 358.801715,81.0342102 C364.263988,81.0342102 369.781393,80.218256 373.362875,77.9229253 C376.958272,75.627332 378.244161,72.1012441 378.244161,68.6166365 C378.244161,65.1181146 376.95801,61.5920267 373.362875,59.2964334 L373.362875,59.2964334 Z M403.71569,38.9275065 C398.239766,38.9275065 392.736013,40.3241849 389.140616,44.2099438 C385.559133,48.0957027 384.25933,54.055739 384.25933,59.9879468 C384.25933,65.9065028 385.559133,71.8801909 389.140616,75.7659497 C392.736013,79.6517086 398.239503,81.048387 403.71569,81.048387 C409.191877,81.048387 414.695368,79.6517086 418.290502,75.7659497 C420.129549,73.7609811 421.374221,71.2165061 422.134781,68.3955833 L413.298427,68.3955833 C413.049545,68.7689059 412.773097,69.1285769 412.468821,69.4604193 C410.311583,71.7974928 407.006548,72.6270988 403.715428,72.6270988 C400.438222,72.6270988 397.119273,71.7974928 394.975949,69.4604193 C392.818711,67.1233457 392.044499,63.5418632 392.044499,59.9882093 C392.044499,56.4345554 392.818973,52.8528103 394.975949,50.5159993 C397.119273,48.1789258 400.438222,47.3493198 403.715428,47.3493198 C407.006548,47.3493198 410.311583,48.1789258 412.468821,50.5159993 C413.962374,52.1339935 414.79198,54.3327119 415.165303,56.7249175 L399.331905,56.7249175 L399.331905,63.2517637 L423.171788,63.2517637 L423.171788,59.9882093 C423.171788,54.0560015 421.885899,48.0959652 418.290502,44.2102063 C414.695105,40.3244475 409.191615,38.9275065 403.71569,38.9275065 L403.71569,38.9275065 Z M448.629665,38.9275065 C443.15374,38.9275065 437.649987,40.3241849 434.054853,44.2099438 C430.473371,48.0957027 429.173567,54.055739 429.173567,59.9879468 C429.173567,65.9065028 430.473371,71.8801909 434.054853,75.7659497 C437.65025,79.6517086 443.15374,81.048387 448.629665,81.048387 C454.105589,81.048387 459.609342,79.6517086 463.204739,75.7659497 C465.043787,73.7609811 466.288458,71.2165061 467.062932,68.3955833 L458.212927,68.3955833 C457.964045,68.7689059 457.687334,69.1285769 457.383321,69.4604193 C455.226083,71.7974928 451.921048,72.6270988 448.629927,72.6270988 C445.352721,72.6270988 442.033772,71.7974928 439.890449,69.4604193 C437.733211,67.1233457 436.958737,63.5418632 436.958737,59.9882093 C436.958737,56.4345554 437.733211,52.8528103 439.890449,50.5159993 C442.033772,48.1789258 445.352721,47.3493198 448.629927,47.3493198 C451.921048,47.3493198 455.226083,48.1789258 457.383321,50.5159993 C458.876874,52.1339935 459.70648,54.3327119 460.079803,56.7249175 L444.260319,56.7249175 L444.260319,63.2517637 L468.086288,63.2517637 L468.086288,59.9882093 C468.086288,54.0560015 466.800136,48.0959652 463.205002,44.2102063 C459.609605,40.3244475 454.106114,38.9275065 448.629927,38.9275065 L448.629665,38.9275065 Z M474.087542,25.3897022 L483.034422,25.3897022 L483.034422,81.048387 L474.087542,81.048387 L474.087542,25.3897022 Z M501.909796,40.7943825 L487.224195,58.7296235 L501.909796,81.048387 L513,81.048387 L498.314399,58.7296235 L513,40.7943825 L501.909796,40.7943825 Z"></path>
    </g>
</svg>
