<?xml version="1.0" encoding="UTF-8" standalone="no"?>
<svg width="256px" height="228px" viewBox="0 0 256 228" version="1.1" xmlns="http://www.w3.org/2000/svg" xmlns:xlink="http://www.w3.org/1999/xlink" preserveAspectRatio="xMidYMid">
    <defs>
        <radialGradient cx="50%" cy="68.0889505%" fx="50%" fy="68.0889505%" r="61.6834038%" id="radialGradient-1">
            <stop stop-color="#BF7715" offset="0%"></stop>
            <stop stop-color="#DC9636" offset="100%"></stop>
        </radialGradient>
        <linearGradient x1="50%" y1="0%" x2="50%" y2="100%" id="linearGradient-2">
            <stop stop-color="#F2B968" offset="0%"></stop>
            <stop stop-color="#BF7A1D" offset="100%"></stop>
        </linearGradient>
        <radialGradient cx="50%" cy="11.9817919%" fx="50%" fy="11.9817919%" r="47.2093627%" id="radialGradient-3">
            <stop stop-color="#E85C66" offset="0%"></stop>
            <stop stop-color="#C92935" offset="100%"></stop>
        </radialGradient>
        <radialGradient cx="50%" cy="11.9817919%" fx="50%" fy="11.9817919%" r="47.2093627%" id="radialGradient-4">
            <stop stop-color="#75ED9F" offset="0%"></stop>
            <stop stop-color="#39BD67" offset="100%"></stop>
        </radialGradient>
        <radialGradient cx="50%" cy="11.9817919%" fx="50%" fy="11.9817919%" r="47.2093627%" id="radialGradient-5">
            <stop stop-color="#F7DE4A" offset="0%"></stop>
            <stop stop-color="#FACF40" offset="100%"></stop>
        </radialGradient>
        <linearGradient x1="54.5768621%" y1="100%" x2="52.4935257%" y2="39.4324544%" id="linearGradient-6">
            <stop stop-color="#F7DB48" offset="0%"></stop>
            <stop stop-color="#FACE40" offset="100%"></stop>
        </linearGradient>
        <linearGradient x1="45.5460005%" y1="100%" x2="50%" y2="44.5060811%" id="linearGradient-7">
            <stop stop-color="#F7DB48" offset="0%"></stop>
            <stop stop-color="#FACE40" offset="100%"></stop>
        </linearGradient>
        <linearGradient x1="50%" y1="0%" x2="50%" y2="100%" id="linearGradient-8">
            <stop stop-color="#EDA23B" offset="0%"></stop>
            <stop stop-color="#D89334" offset="100%"></stop>
        </linearGradient>
        <linearGradient x1="50%" y1="0%" x2="50%" y2="100%" id="linearGradient-9">
            <stop stop-color="#F6CF9A" offset="0%"></stop>
            <stop stop-color="#E39B38" offset="100%"></stop>
        </linearGradient>
    </defs>
	<g transform="translate(-1.000000, 0.000000)">
		<g transform="translate(1.468061, 126.044734)">
			<path d="M0.0461932075,28.9473852 L0.0461932075,72.499637 C0.0461932075,72.499637 -0.250662638,101.495587 127.322078,101.495593 C254.894817,101.495597 254.894817,72.499637 254.894817,72.499637 L254.894817,28.9473852 C254.894817,28.9473852 254.894821,65.2214888 127.322078,65.2214888 C-0.250665834,65.2214888 0.0461932075,28.9473852 0.0461932075,28.9473852 L0.0461932075,28.9473852 Z" fill="url(#radialGradient-1)"></path>
			<path d="M127.146831,65.8433039 C205.648555,65.8433039 254.894817,48.6609611 254.894817,31.4225485 C254.894817,14.1841359 196.65447,0.402514646 127.146831,0.402514646 C57.6391912,0.402514646 0.046193166,14.1841359 0.046193166,31.4225485 C0.046193166,48.6609611 48.6451055,65.8433039 127.146831,65.8433039 L127.146831,65.8433039 Z" fill="url(#linearGradient-2)"></path>
			<path d="M127.146831,65.4047373 L127.146831,65.4047373 C164.442939,65.4047373 196.913481,61.5052489 220.336217,54.6762941 C242.154818,48.3150285 254.45625,39.8206566 254.45625,31.4225485 C254.45625,14.7130517 196.868542,0.841081199 127.146831,0.841081199 C57.548021,0.841081199 0.484759719,14.6830771 0.484759719,31.4225485 C0.484759719,39.8340045 12.6517896,48.3237418 34.2819522,54.6765378 C57.5427188,61.5082436 89.8625533,65.4047373 127.146831,65.4047373 L127.146831,65.4047373 L127.146831,65.4047373 Z M127.146831,65.8433039 L127.146831,65.8433039 C48.6451055,65.8433039 0.046193166,48.6609611 0.046193166,31.4225485 C0.046193166,14.1841359 57.6391912,0.402514646 127.146831,0.402514646 C196.65447,0.402514646 254.894817,14.1841359 254.894817,31.4225485 C254.894817,48.6609611 205.648555,65.8433039 127.146831,65.8433039 L127.146831,65.8433039 L127.146831,65.8433039 Z" fill="#BB791D"></path>
		</g>
		<g transform="translate(1.468061, 120.428434)">
			<path d="M0.0461931387,31.7833145 L0.0461931387,39.2217665 C0.0461931387,39.2217665 0.0461931387,70.9051878 127.470505,70.9051878 C254.894817,70.9051878 254.894817,39.2217665 254.894817,39.2217665 L254.894817,31.7833145 C254.894817,31.7833145 254.894817,65.4434262 127.470505,65.4434262 C0.0461931387,65.4434262 0.0461931387,31.7833145 0.0461931387,31.7833145 L0.0461931387,31.7833145 Z" fill="#C92935"></path>
			<path d="M127.146824,65.797756 C224.184805,65.7977608 254.89481,48.5808461 254.89481,31.3424336 C254.89481,14.1040211 196.654464,0.322399714 127.146824,0.322399714 C57.6391849,0.322399714 0.0461868374,14.1040211 0.0461868374,31.3424336 C0.0461868374,48.5808461 30.1088439,65.7977512 127.146824,65.797756 L127.146824,65.797756 Z" fill="url(#radialGradient-3)"></path>
			<path d="M127.146824,65.3591895 L127.146824,65.3591895 C172.709779,65.3591917 205.952641,61.5703465 227.274092,54.6175439 C245.605414,48.6398058 254.456244,40.5079595 254.456244,31.3424336 C254.456244,14.6329367 196.868536,0.760966267 127.146824,0.760966267 C57.5480146,0.760966267 0.48475339,14.6029622 0.48475339,31.3424336 C0.48475339,40.5358313 9.19532466,48.6508614 27.3442415,54.6178714 C48.4987424,61.5730589 81.5957592,65.3591872 127.146824,65.3591895 L127.146824,65.3591895 L127.146824,65.3591895 Z M127.146824,65.797756 L127.146824,65.797756 C30.1088439,65.7977512 0.0461868374,48.5808461 0.0461868374,31.3424336 C0.0461868374,14.1040211 57.6391849,0.322399714 127.146824,0.322399714 C196.654464,0.322399714 254.89481,14.1040211 254.89481,31.3424336 C254.89481,48.5808461 224.184805,65.7977608 127.146824,65.797756 L127.146824,65.797756 L127.146824,65.797756 Z" fill="#AD222C"></path>
		</g>
		<g transform="translate(1.468061, 84.261977)">
			<path d="M0.0461932075,28.8646899 L0.0461932075,72.4169418 C0.0461932075,72.4169418 -0.250662638,101.412892 127.322078,101.412897 C254.894817,101.412902 254.894817,72.4169418 254.894817,72.4169418 L254.894817,28.8646899 C254.894817,28.8646899 254.894821,65.1387936 127.322078,65.1387936 C-0.250665834,65.1387936 0.0461932075,28.8646899 0.0461932075,28.8646899 L0.0461932075,28.8646899 Z" fill="#340405"></path>
			<path d="M127.146824,65.7731187 C205.648549,65.7731187 254.89481,48.5907759 254.89481,31.3523634 C254.89481,14.1139507 196.654464,0.332329443 127.146824,0.332329443 C57.6391849,0.332329443 0.0461868374,14.1139507 0.0461868374,31.3523634 C0.0461868374,48.5907759 48.6450992,65.7731187 127.146824,65.7731187 L127.146824,65.7731187 Z" fill="#340405"></path>
			<path d="M127.146824,65.3345521 L127.146824,65.3345521 C164.442933,65.3345521 196.913475,61.4350637 220.33621,54.6061089 C242.154811,48.2448433 254.456244,39.7504714 254.456244,31.3523634 C254.456244,14.6428665 196.868536,0.770895996 127.146824,0.770895996 C57.5480146,0.770895996 0.48475339,14.6128919 0.48475339,31.3523634 C0.48475339,39.7638193 12.6517832,48.2535565 34.2819459,54.6063526 C57.5427125,61.4380584 89.8625472,65.3345521 127.146824,65.3345521 L127.146824,65.3345521 L127.146824,65.3345521 Z M127.146824,65.7731187 L127.146824,65.7731187 C48.6450992,65.7731187 0.0461868374,48.5907759 0.0461868374,31.3523634 C0.0461868374,14.1139507 57.6391849,0.332329443 127.146824,0.332329443 C196.654464,0.332329443 254.89481,14.1139507 254.89481,31.3523634 C254.89481,48.5907759 205.648549,65.7731187 127.146824,65.7731187 L127.146824,65.7731187 L127.146824,65.7731187 Z" fill="#150101"></path>
		</g>
		<g transform="translate(1.468061, 80.465956)">
			<path d="M0.0461931387,31.1489894 L0.0461931387,38.5874415 C0.0461931387,38.5874415 0.0461931387,70.9287272 127.470505,70.9287272 C254.894817,70.9287272 254.894817,38.5874415 254.894817,38.5874415 L254.894817,31.1489894 C254.894817,31.1489894 254.894817,65.5078497 127.470505,65.5078497 C0.0461931387,65.5078497 0.0461931387,31.1489894 0.0461931387,31.1489894 L0.0461931387,31.1489894 Z" fill="#39BD67"></path>
			<path d="M127.146824,65.797756 C224.184805,65.7977608 254.89481,48.5808461 254.89481,31.3424336 C254.89481,14.1040211 196.654464,0.322399714 127.146824,0.322399714 C57.6391849,0.322399714 0.0461868374,14.1040211 0.0461868374,31.3424336 C0.0461868374,48.5808461 30.1088439,65.7977512 127.146824,65.797756 L127.146824,65.797756 Z" fill="url(#radialGradient-4)"></path>
			<path d="M127.146824,65.3591895 L127.146824,65.3591895 C172.709779,65.3591917 205.952641,61.5703465 227.274092,54.6175439 C245.605414,48.6398058 254.456244,40.5079595 254.456244,31.3424336 C254.456244,14.6329367 196.868536,0.760966267 127.146824,0.760966267 C57.5480146,0.760966267 0.48475339,14.6029622 0.48475339,31.3424336 C0.48475339,40.5358313 9.19532466,48.6508614 27.3442415,54.6178714 C48.4987424,61.5730589 81.5957592,65.3591872 127.146824,65.3591895 L127.146824,65.3591895 L127.146824,65.3591895 Z M127.146824,65.797756 L127.146824,65.797756 C30.1088439,65.7977512 0.0461868374,48.5808461 0.0461868374,31.3424336 C0.0461868374,14.1040211 57.6391849,0.322399714 127.146824,0.322399714 C196.654464,0.322399714 254.89481,14.1040211 254.89481,31.3424336 C254.89481,48.5808461 224.184805,65.7977608 127.146824,65.797756 L127.146824,65.797756 L127.146824,65.797756 Z" fill="#33A65B"></path>
		</g>
		<g transform="translate(1.468061, 44.304683)">
			<path d="M0.0461932075,28.8595058 L0.0461932075,72.4117577 C0.0461932075,72.4117577 -0.250662638,101.407708 127.322078,101.407713 C254.894817,101.407718 254.894817,72.4117577 254.894817,72.4117577 L254.894817,28.8595058 C254.894817,28.8595058 254.894821,65.1336094 127.322078,65.1336094 C-0.250665834,65.1336094 0.0461932075,28.8595058 0.0461932075,28.8595058 L0.0461932075,28.8595058 Z" fill="#340405"></path>
			<path d="M127.146824,65.7679345 C205.648549,65.7679345 254.89481,48.5855917 254.89481,31.3471791 C254.89481,14.1087666 196.654464,0.327145289 127.146824,0.327145289 C57.6391849,0.327145289 0.0461868374,14.1087666 0.0461868374,31.3471791 C0.0461868374,48.5855917 48.6450992,65.7679345 127.146824,65.7679345 L127.146824,65.7679345 Z" fill="#340405"></path>
			<path d="M127.146824,65.329368 L127.146824,65.329368 C164.442933,65.329368 196.913475,61.4298795 220.33621,54.6009247 C242.154811,48.2396592 254.456244,39.7452873 254.456244,31.3471791 C254.456244,14.6376823 196.868536,0.765711842 127.146824,0.765711842 C57.5480146,0.765711842 0.48475339,14.6077078 0.48475339,31.3471791 C0.48475339,39.7586352 12.6517832,48.2483724 34.2819459,54.6011685 C57.5427125,61.4328742 89.8625472,65.329368 127.146824,65.329368 L127.146824,65.329368 L127.146824,65.329368 Z M127.146824,65.7679345 L127.146824,65.7679345 C48.6450992,65.7679345 0.0461868374,48.5855917 0.0461868374,31.3471791 C0.0461868374,14.1087666 57.6391849,0.327145289 127.146824,0.327145289 C196.654464,0.327145289 254.89481,14.1087666 254.89481,31.3471791 C254.89481,48.5855917 205.648549,65.7679345 127.146824,65.7679345 L127.146824,65.7679345 L127.146824,65.7679345 Z" fill="#150101"></path>
		</g>
		<g transform="translate(1.468061, 43.040779)">
			<path d="M127.146824,65.7631889 C205.648549,65.7631889 254.89481,48.5808461 254.89481,31.3424336 C254.89481,14.1040211 196.654464,0.322399714 127.146824,0.322399714 C57.6391849,0.322399714 0.0461868374,14.1040211 0.0461868374,31.3424336 C0.0461868374,48.5808461 48.6450992,65.7631889 127.146824,65.7631889 L127.146824,65.7631889 Z" fill="url(#radialGradient-5)"></path>
			<path d="M213.831387,52.8685688 C229.300724,49.0174383 238.613374,46.2693413 246.990528,43.3739941 C233.227706,51.0385486 233.284486,73.5727636 228.438507,73.5727636 C223.592527,73.5727636 211.942574,60.7339741 176.61846,63.2437311 C176.61846,63.2437311 198.36205,56.7196992 213.831387,52.8685688 L213.831387,52.8685688 Z" fill="url(#linearGradient-6)"></path>
			<path d="M29.1627558,50.7630924 C38.1582858,53.9739517 47.7724464,58.2100339 56.3443446,60.1309539 C31.3330264,58.2100339 22.293806,72.8701087 20.6008297,65.0822821 C18.9078534,57.2944555 21.6747279,52.5543625 6.08267104,41.9058785 C6.08267104,41.9058785 16.662207,46.3011536 29.1627558,50.7630924 L29.1627558,50.7630924 Z" fill="url(#linearGradient-7)"></path>
		</g>
		<g transform="translate(0.610386, 0.400532)">
			<path d="M0.903868193,28.9952284 L0.903868193,72.5474802 C0.903868193,72.5474802 0.60701235,101.543431 128.179753,101.543436 C255.752492,101.54344 255.752492,72.5474802 255.752492,72.5474802 L255.752492,28.9952284 C255.752492,28.9952284 255.752496,65.2693321 128.179753,65.2693321 C0.607009153,65.2693321 0.903868193,28.9952284 0.903868193,28.9952284 L0.903868193,28.9952284 Z" fill="url(#linearGradient-8)"></path>
			<path d="M128.004506,65.8911472 C206.506231,65.8911472 255.752492,48.7088043 255.752492,31.4703918 C255.752492,14.2319793 197.512145,0.450357931 128.004506,0.450357931 C58.4968662,0.450357931 0.903868149,14.2319793 0.903868149,31.4703918 C0.903868149,48.7088043 49.5027806,65.8911472 128.004506,65.8911472 L128.004506,65.8911472 Z" fill="url(#linearGradient-9)"></path>
			<path d="M128.004506,66.1104305 C165.358898,66.1104305 197.890075,62.20366 221.378023,55.3556926 C243.459976,48.9176459 255.971775,40.2780124 255.971775,31.4703918 C255.971775,14.153191 198.175893,0.231074655 128.004506,0.231074655 C57.958479,0.231074655 0.684584877,14.1241644 0.684584877,31.4703918 C0.684584877,40.2891164 13.0623645,48.9259076 34.9542463,55.3555708 C58.2807431,62.2065814 90.6615865,66.1104305 128.004506,66.1104305 L128.004506,66.1104305 L128.004506,66.1104305 Z M128.004506,65.6718639 C90.7006812,65.6718639 58.3605103,61.7729184 35.0778336,54.9347776 C13.3604312,48.5563592 1.12315143,40.017604 1.12315143,31.4703918 C1.12315143,14.5286684 58.2566237,0.669641208 128.004506,0.669641208 C197.876109,0.669641208 255.533209,14.558327 255.533209,31.4703918 C255.533209,40.0050041 243.161653,48.5477965 221.255268,54.9346558 C197.810796,61.7699482 165.320042,65.6718639 128.004506,65.6718639 L128.004506,65.6718639 L128.004506,65.6718639 Z" fill="#C58020"></path>
			<g transform="translate(6.201497, 5.316612)" fill="#FCF1DE">
				<path d="M72.3162717,7.80164894 C73.6210356,7.80164894 75.568653,6.84095533 75.568653,6.02430812 C75.568653,5.20766091 73.6034609,4.20990423 72.3162717,4.20990422 C71.0290825,4.20990422 69.5354434,3.8568427 69.5354434,6.02430807 C69.5354434,8.19177345 71.0115078,7.80164894 72.3162717,7.80164894 L72.3162717,7.80164894 Z"></path>
				<path d="M91.4461882,14.0957274 C92.7509518,14.0957274 94.6985697,13.1350339 94.6985697,12.3183866 C94.6985697,11.5017394 92.7333775,10.5039827 91.4461882,10.5039827 C90.1589989,10.5039827 88.6653596,10.1509212 88.6653596,12.3183866 C88.6653596,14.4858519 90.1414247,14.0957274 91.4461882,14.0957274 L91.4461882,14.0957274 Z"></path>
				<path d="M74.9481211,18.6317594 C73.6365367,18.289746 71.4510758,18.6060867 71.2575489,19.30897 C71.064022,20.0118533 72.8030413,21.3857456 74.0969591,21.7231522 C75.3908769,22.0605588 76.8086563,22.7559593 77.3222964,20.8904351 C77.8359366,19.0249108 76.2597055,18.9737728 74.9481211,18.6317594 L74.9481211,18.6317594 L74.9481211,18.6317594 Z"></path>
				<path d="M42.1443911,25.293295 C43.4496529,24.915885 45.139502,23.5528442 44.9197518,22.8730665 C44.7000018,22.1932888 42.4655753,21.9311978 41.1778949,22.3035242 C39.8902146,22.6758507 38.3010009,22.8140052 38.8842403,24.6182048 C39.4674797,26.4224045 40.8391294,25.670705 42.1443911,25.293295 L42.1443911,25.293295 L42.1443911,25.293295 Z"></path>
				<path d="M29.5794696,14.2615113 C28.2678851,13.9194979 26.0824242,14.2358386 25.8888974,14.9387219 C25.6953705,15.6416051 27.4343897,17.0154975 28.7283075,17.352904 C30.0222253,17.6903106 31.4400047,18.3857111 31.9536449,16.5201869 C32.467285,14.6546627 30.891054,14.6035246 29.5794696,14.2615113 L29.5794696,14.2615113 L29.5794696,14.2615113 Z"></path>
				<path d="M69.4504221,45.2011945 C70.7867529,45.2011945 72.7814901,44.2405009 72.7814901,43.4238537 C72.7814901,42.6072065 70.768753,41.6094497 69.4504221,41.6094497 C68.1320912,41.6094497 66.6023156,41.2563882 66.6023156,43.4238536 C66.6023156,45.591319 68.1140913,45.2011945 69.4504221,45.2011945 L69.4504221,45.2011945 Z"></path>
				<path d="M59.6174688,32.4290667 C58.4291381,33.0615639 57.2786955,34.5116696 57.8086017,34.9417821 C58.338508,35.3718945 60.7757568,34.9447474 61.9480811,34.3207698 C63.1204053,33.696792 64.7098512,33.1586864 63.3034256,32.0171239 C61.8970001,30.8755614 60.8057993,31.7965694 59.6174688,32.4290667 L59.6174688,32.4290667 L59.6174688,32.4290667 Z"></path>
				<path d="M40.0622145,42.0213022 C40.9876121,42.7594755 43.4504327,43.5962792 44.3697575,43.3709576 C45.2890822,43.1456359 45.0184843,41.7585322 44.1055515,41.0303018 C43.1926187,40.3020715 42.5307143,39.3596282 40.0907322,39.9576549 C37.6507501,40.5556815 39.1368169,41.283129 40.0622145,42.0213022 L40.0622145,42.0213022 L40.0622145,42.0213022 Z"></path>
				<path d="M20.4892606,60.6653785 C21.7945223,60.2879684 23.4843715,58.9249276 23.2646213,58.24515 C23.0448712,57.5653723 20.8104447,57.3032813 19.5227644,57.6756077 C18.2350841,58.0479341 16.6458703,58.1860886 17.2291097,59.9902882 C17.8123491,61.7944879 19.1839988,61.0427884 20.4892606,60.6653785 L20.4892606,60.6653785 L20.4892606,60.6653785 Z"></path>
				<path d="M31.8117429,78.3881539 C33.1480736,78.3881539 35.1428107,77.4274603 35.1428107,76.610813 C35.1428107,75.7941658 33.1300737,74.7964092 31.8117429,74.7964092 C30.493412,74.7964092 28.9636364,74.4433477 28.9636364,76.610813 C28.9636364,78.7782784 30.4754121,78.3881539 31.8117429,78.3881539 L31.8117429,78.3881539 Z"></path>
				<path d="M45.8543451,62.4054585 C44.911066,63.1404219 44.5614213,64.5123827 45.4611123,64.7460498 C46.3608033,64.9797169 48.8807562,64.1582275 49.8113296,63.4331638 C50.7419029,62.7081003 52.2106933,61.9677663 49.8228212,61.3475899 C47.4349491,60.7274134 46.7976241,61.6704952 45.8543451,62.4054585 L45.8543451,62.4054585 L45.8543451,62.4054585 Z"></path>
				<path d="M69.9867018,79.7548775 C71.2919636,79.3774675 72.9818127,78.0144267 72.7620626,77.334649 C72.5423124,76.6548713 70.3078859,76.3927803 69.0202056,76.7651067 C67.7325253,77.1374331 66.1433115,77.2755876 66.7265509,79.0797872 C67.3097904,80.883987 68.6814401,80.1322874 69.9867018,79.7548775 L69.9867018,79.7548775 L69.9867018,79.7548775 Z"></path>
				<path d="M103.336389,68.4824244 C104.67272,68.4824244 106.667456,67.5217309 106.667456,66.7050836 C106.667456,65.8884364 104.654719,64.8906798 103.336389,64.8906798 C102.018058,64.8906797 100.488282,64.5376182 100.488282,66.7050835 C100.488282,68.872549 102.000057,68.4824244 103.336389,68.4824244 L103.336389,68.4824244 Z"></path>
				<path d="M67.5174814,60.8961552 C66.5742024,61.6311185 66.2245577,63.0030793 67.1242487,63.2367464 C68.0239397,63.4704136 70.5438925,62.6489241 71.4744659,61.9238605 C72.4050393,61.1987969 73.8738295,60.4584629 71.4859574,59.8382865 C69.0980855,59.21811 68.4607605,60.1611918 67.5174814,60.8961552 L67.5174814,60.8961552 L67.5174814,60.8961552 Z"></path>
				<path d="M56.0457632,16.376431 C56.9711608,17.1146043 59.4339814,17.951408 60.3533062,17.7260863 C61.272631,17.5007647 61.002033,16.113661 60.0891002,15.3854306 C59.1761674,14.6572003 58.5142631,13.7147569 56.0742809,14.3127837 C53.6342988,14.9108103 55.1203656,15.6382577 56.0457632,16.376431 L56.0457632,16.376431 L56.0457632,16.376431 Z"></path>
				<path d="M93.6835443,83.3799777 C95.019875,83.3799777 97.0146125,82.4192841 97.0146125,81.6026369 C97.0146125,80.7859897 95.0018753,79.788233 93.6835443,79.788233 C92.3652132,79.788233 90.8354378,79.4351715 90.8354378,81.6026368 C90.8354378,83.7701022 92.3472135,83.3799777 93.6835443,83.3799777 L93.6835443,83.3799777 Z"></path>
				<path d="M170.000106,53.2662996 C171.336436,53.2662996 173.331173,52.3056061 173.331173,51.4889588 C173.331173,50.6723116 171.318437,49.674555 170.000106,49.6745549 C168.681775,49.6745549 167.151999,49.3214934 167.151999,51.4889588 C167.151999,53.6564241 168.663775,53.2662996 170.000106,53.2662996 L170.000106,53.2662996 Z"></path>
				<path d="M96.7731316,52.3287557 C98.1094623,52.3287557 100.1042,51.3680621 100.1042,50.5514149 C100.1042,49.7347676 98.0914627,48.737011 96.7731316,48.737011 C95.4548005,48.737011 93.9250251,48.3839494 93.9250251,50.5514149 C93.9250251,52.7188802 95.4368009,52.3287557 96.7731316,52.3287557 L96.7731316,52.3287557 Z"></path>
				<path d="M130.970293,29.3871672 C132.306623,29.3871672 134.30136,28.4264736 134.30136,27.6098265 C134.30136,26.7931792 132.288624,25.7954225 130.970293,25.7954225 C129.651962,25.7954225 128.122186,25.442361 128.122186,27.6098264 C128.122186,29.7772918 129.633962,29.3871672 130.970293,29.3871672 L130.970293,29.3871672 Z"></path>
				<path d="M115.878957,39.2871236 C117.184219,38.9097137 118.874069,37.5466729 118.654319,36.8668952 C118.434568,36.1871174 116.200141,35.9250265 114.912462,36.2973529 C113.624781,36.6696792 112.035567,36.8078338 112.618807,38.6120334 C113.202046,40.4162331 114.573695,39.6645336 115.878957,39.2871236 L115.878957,39.2871236 L115.878957,39.2871236 Z"></path>
				<path d="M94.2198243,27.1134936 C95.5250861,26.7360837 97.2149348,25.3730428 96.9951849,24.6932651 C96.7754349,24.0134874 94.5410085,23.7513964 93.253328,24.1237229 C91.9656475,24.4960492 90.376434,24.6342037 90.9596732,26.4384034 C91.5429123,28.2426031 92.9145625,27.4909035 94.2198243,27.1134936 L94.2198243,27.1134936 L94.2198243,27.1134936 Z"></path>
				<path d="M122.379166,6.14723414 C121.067582,5.80522076 118.882121,6.12156147 118.688593,6.82444475 C118.495067,7.52732803 120.234086,8.90122035 121.528004,9.23862697 C122.821922,9.57603349 124.239701,10.271434 124.753342,8.40590979 C125.266981,6.54038555 123.69075,6.48924752 122.379166,6.14723414 L122.379166,6.14723414 L122.379166,6.14723414 Z"></path>
				<path d="M103.991508,4.16125173 C105.327839,4.16125173 107.322576,3.20055812 107.322576,2.3839109 C107.322576,1.5672637 105.309839,0.56950701 103.991508,0.569507005 C102.673178,0.569507 101.143402,0.216445481 101.143402,2.38391086 C101.143402,4.55137623 102.655177,4.16125173 103.991508,4.16125173 L103.991508,4.16125173 Z"></path>
				<path d="M148.849463,2.80155811 C149.77486,3.53973138 152.23768,4.37653501 153.157005,4.1512134 C154.07633,3.92589178 153.805732,2.53878804 152.8928,1.81055769 C151.979866,1.08232735 151.317963,0.139884027 148.87798,0.73791068 C146.437998,1.33593733 147.924065,2.06338482 148.849463,2.80155811 L148.849463,2.80155811 L148.849463,2.80155811 Z"></path>
				<path d="M139.567794,15.9159261 C140.904125,15.9159261 142.898862,14.9552324 142.898862,14.1385852 C142.898862,13.321938 140.886126,12.3241813 139.567794,12.3241813 C138.249463,12.3241813 136.719688,11.9711198 136.719688,14.1385852 C136.719688,16.3060506 138.231464,15.9159261 139.567794,15.9159261 L139.567794,15.9159261 Z"></path>
				<path d="M184.940449,6.81493301 C186.27678,6.81493301 188.271517,5.85423941 188.271517,5.03759219 C188.271517,4.22094498 186.25878,3.2231883 184.940449,3.2231883 C183.622118,3.22318829 182.092342,2.87012677 182.092342,5.03759215 C182.092342,7.20505753 183.604118,6.81493301 184.940449,6.81493301 L184.940449,6.81493301 Z"></path>
				<path d="M212.093279,8.80091544 C210.781694,8.45890204 208.596233,8.77524272 208.402706,9.47812605 C208.209179,10.1810093 209.948199,11.5549017 211.242117,11.8923082 C212.536034,12.2297148 213.953814,12.9251153 214.467453,11.0595911 C214.981094,9.19406685 213.404863,9.14292885 212.093279,8.80091544 L212.093279,8.80091544 L212.093279,8.80091544 Z"></path>
				<path d="M228.380162,19.7525806 C227.436884,20.487544 227.087238,21.8595048 227.98693,22.0931719 C228.886621,22.326839 231.406573,21.5053496 232.337147,20.7802859 C233.26772,20.0552224 234.736511,19.3148885 232.348639,18.694712 C229.960767,18.0745355 229.323442,19.0176174 228.380162,19.7525806 L228.380162,19.7525806 L228.380162,19.7525806 Z"></path>
				<path d="M208.146377,22.1063728 C209.482708,22.1063728 211.477445,21.1456792 211.477445,20.329032 C211.477445,19.5123848 209.464708,18.5146281 208.146377,18.5146281 C206.828046,18.514628 205.298271,18.1615665 205.298271,20.3290319 C205.298271,22.4964974 206.810046,22.1063728 208.146377,22.1063728 L208.146377,22.1063728 Z"></path>
				<path d="M176.715559,19.1028482 C178.020821,18.7254382 179.710671,17.3623974 179.49092,16.6826198 C179.27117,16.0028421 177.036744,15.7407511 175.749063,16.1130774 C174.461383,16.4854039 172.872169,16.6235584 173.455408,18.427758 C174.038648,20.2319577 175.410298,19.4802582 176.715559,19.1028482 L176.715559,19.1028482 L176.715559,19.1028482 Z"></path>
				<path d="M153.484947,27.5669686 C154.821278,27.5669686 156.816014,26.6062751 156.816014,25.7896278 C156.816014,24.9729806 154.803277,23.9752239 153.484947,23.9752239 C152.166616,23.9752239 150.636841,23.6221624 150.636841,25.7896277 C150.636841,27.9570931 152.148616,27.5669686 153.484947,27.5669686 L153.484947,27.5669686 Z"></path>
				<path d="M182.358454,36.1002014 C183.694785,36.1002014 185.689522,35.1395078 185.689522,34.3228607 C185.689522,33.5062134 183.676785,32.5084567 182.358454,32.5084567 C181.040123,32.5084567 179.510348,32.1553952 179.510348,34.3228606 C179.510348,36.490326 181.022123,36.1002014 182.358454,36.1002014 L182.358454,36.1002014 Z"></path>
				<path d="M214.861831,39.2871236 C216.167093,38.9097137 217.856942,37.5466729 217.637192,36.8668952 C217.417442,36.1871174 215.183015,35.9250265 213.895335,36.2973529 C212.607655,36.6696792 211.018441,36.8078338 211.601681,38.6120334 C212.18492,40.4162331 213.55657,39.6645336 214.861831,39.2871236 L214.861831,39.2871236 L214.861831,39.2871236 Z"></path>
				<path d="M240.447184,48.8541423 C239.1356,48.5121289 236.950139,48.8284696 236.756613,49.5313529 C236.563085,50.2342362 238.302104,51.6081285 239.596022,51.945535 C240.88994,52.2829417 242.30772,52.9783422 242.82136,51.1128179 C243.334999,49.2472937 241.758768,49.1961556 240.447184,48.8541423 L240.447184,48.8541423 L240.447184,48.8541423 Z"></path>
				<path d="M229.483941,64.7592507 C230.820271,64.7592507 232.815008,63.7985571 232.815008,62.9819099 C232.815008,62.1652627 230.802272,61.1675059 229.483941,61.1675059 C228.16561,61.1675059 226.635834,60.8144444 226.635834,62.9819098 C226.635834,65.1493752 228.14761,64.7592507 229.483941,64.7592507 L229.483941,64.7592507 Z"></path>
				<path d="M212.779655,57.9389613 C213.705052,58.6771345 216.167872,59.5139382 217.087197,59.2886166 C218.006522,59.0632949 217.735924,57.6761912 216.822992,56.9479608 C215.910058,56.2197305 215.248155,55.2772872 212.808172,55.8753139 C210.36819,56.4733405 211.854257,57.200788 212.779655,57.9389613 L212.779655,57.9389613 L212.779655,57.9389613 Z"></path>
				<path d="M204.864748,77.2022803 C206.20108,77.2022803 208.195817,76.2415868 208.195817,75.4249395 C208.195817,74.6082923 206.183079,73.6105356 204.864748,73.6105356 C203.546418,73.6105356 202.016642,73.2574741 202.016642,75.4249394 C202.016642,77.5924048 203.528418,77.2022803 204.864748,77.2022803 L204.864748,77.2022803 Z"></path>
				<path d="M186.604688,60.1992645 C185.661408,60.9342278 185.311764,62.3061887 186.211455,62.5398558 C187.111146,62.7735229 189.631099,61.9520334 190.561672,61.2269698 C191.492246,60.5019061 192.961036,59.7615723 190.573164,59.1413958 C188.185291,58.5212193 187.547967,59.4643012 186.604688,60.1992645 L186.604688,60.1992645 L186.604688,60.1992645 Z"></path>
				<path d="M153.484947,47.0213931 C154.821278,47.0213931 156.816014,46.0606995 156.816014,45.2440522 C156.816014,44.4274051 154.803277,43.4296484 153.484947,43.4296484 C152.166616,43.4296484 150.636841,43.0765869 150.636841,45.2440522 C150.636841,47.4115176 152.148616,47.0213931 153.484947,47.0213931 L153.484947,47.0213931 Z"></path>
				<path d="M120.331267,57.9472282 C121.667598,57.9472282 123.662336,56.9865347 123.662336,56.1698875 C123.662336,55.3532402 121.649598,54.3554835 120.331267,54.3554835 C119.012936,54.3554835 117.483161,54.002422 117.483161,56.1698874 C117.483161,58.3373527 118.994937,57.9472282 120.331267,57.9472282 L120.331267,57.9472282 Z"></path>
				<path d="M140.434139,51.5035456 C140.434139,50.71626 138.803467,49.5410811 137.417298,49.5410811 C136.031129,49.5410811 134.337547,50.7268645 134.337547,51.5035456 C134.337547,52.2802267 133.738263,53.1814783 137.417298,53.1814783 C141.096332,53.1814783 140.434139,52.2908312 140.434139,51.5035456 L140.434139,51.5035456 L140.434139,51.5035456 Z"></path>
				<path d="M125.709387,69.2594658 C125.2656,68.4803681 123.124167,67.4155152 121.866935,67.4989096 C120.609704,67.582304 119.742072,68.857644 120.179881,69.6262475 C120.617691,70.394851 120.582181,71.3227833 123.919002,71.1014462 C127.255824,70.8801089 126.153174,70.0385634 125.709387,69.2594658 L125.709387,69.2594658 L125.709387,69.2594658 Z"></path>
				<path d="M156.574534,72.9275581 C157.910865,72.9275581 159.905602,71.9668644 159.905602,71.1502172 C159.905602,70.3335701 157.892865,69.3358133 156.574534,69.3358133 C155.256203,69.3358133 153.726427,68.9827518 153.726427,71.1502172 C153.726427,73.3176826 155.238203,72.9275581 156.574534,72.9275581 L156.574534,72.9275581 Z"></path>
				<path d="M114.288627,86.0593885 C112.977043,85.7173751 110.791582,86.0337159 110.598055,86.7365991 C110.404528,87.4394823 112.143547,88.813375 113.437465,89.1507809 C114.731383,89.4881877 116.149162,90.1835884 116.662803,88.318064 C117.176442,86.4525399 115.600211,86.4014019 114.288627,86.0593885 L114.288627,86.0593885 L114.288627,86.0593885 Z"></path>
				<path d="M127.701026,82.0285511 C129.037357,82.0285511 131.032095,81.0678575 131.032095,80.2512103 C131.032095,79.4345631 129.019358,78.4368064 127.701026,78.4368064 C126.382695,78.4368064 124.85292,78.0837449 124.85292,80.2512102 C124.85292,82.4186756 126.364696,82.0285511 127.701026,82.0285511 L127.701026,82.0285511 Z"></path>
				<path d="M3.77467643,44.4294343 C2.46579632,44.0874209 0.284841511,44.4037616 0.0917136708,45.106645 C-0.101414169,45.8095282 1.63401944,47.1834206 2.92526938,47.5208271 C4.21651932,47.8582337 5.63137549,48.5536342 6.14395656,46.68811 C6.65653763,44.8225858 5.08355653,44.7714478 3.77467643,44.4294343 L3.77467643,44.4294343 L3.77467643,44.4294343 Z"></path>
				<path d="M23.5085298,41.5607973 C24.8421052,41.5607973 26.8327295,40.6001036 26.8327295,39.7834565 C26.8327295,38.9668093 24.8241424,37.9690526 23.5085298,37.9690526 C22.1929171,37.9690526 20.6662957,37.615991 20.6662957,39.7834564 C20.6662957,41.9509218 22.1749543,41.5607973 23.5085298,41.5607973 L23.5085298,41.5607973 Z"></path>
				<path d="M4.96495652,67.2959602 C5.88653805,68.0341334 8.33920268,68.8709371 9.25473639,68.6456155 C10.1702702,68.4202939 9.90078808,67.0331901 8.99161997,66.3049598 C8.08245183,65.5767294 7.42327701,64.6342861 4.99335665,65.2323128 C2.56343629,65.8303394 4.04337499,66.5577869 4.96495652,67.2959602 L4.96495652,67.2959602 L4.96495652,67.2959602 Z"></path>
				<path d="M179.367605,78.8722228 C180.667484,78.4948129 182.350364,77.131772 182.13152,76.4519943 C181.912677,75.7722166 179.687465,75.5101256 178.405094,75.8824521 C177.122724,76.2547784 175.540063,76.3929329 176.120897,78.1971326 C176.701732,80.0013323 178.067726,79.2496328 179.367605,78.8722228 L179.367605,78.8722228 L179.367605,78.8722228 Z"></path>
				<path d="M156.95581,89.3093455 C158.28663,89.3093455 160.273142,88.3486523 160.273142,87.5320047 C160.273142,86.7153575 158.268705,85.7176009 156.95581,85.7176009 C155.642916,85.7176008 154.119448,85.3645393 154.119448,87.5320046 C154.119448,89.6994697 155.62499,89.3093455 156.95581,89.3093455 L156.95581,89.3093455 Z"></path>
				<path d="M237.511834,29.9257032 C238.429599,30.6638765 240.872108,31.5006801 241.783851,31.2753585 C242.695593,31.0500369 242.427227,29.6629332 241.521824,28.9347028 C240.61642,28.2064724 239.959975,27.2640291 237.540116,27.8620557 C235.120258,28.4600824 236.594068,29.1875299 237.511834,29.9257032 L237.511834,29.9257032 L237.511834,29.9257032 Z"></path>
				<path d="M14.6829001,27.5669686 C16.0082096,27.5669686 17.9864952,26.6062751 17.9864952,25.7896278 C17.9864952,24.9729806 15.9903581,23.9752239 14.6829001,23.9752239 C13.375442,23.9752239 11.8582832,23.6221624 11.8582832,25.7896277 C11.8582832,27.9570931 13.3575906,27.5669686 14.6829001,27.5669686 L14.6829001,27.5669686 Z"></path>
				<path d="M42.2876437,10.4553302 C43.6129532,10.4553302 45.5912389,9.49463659 45.5912389,8.67798941 C45.5912389,7.8613422 43.5951017,6.86358552 42.2876437,6.86358551 C40.9801857,6.86358551 39.4630268,6.51052399 39.4630268,8.67798936 C39.4630268,10.8454547 40.9623343,10.4553302 42.2876437,10.4553302 L42.2876437,10.4553302 Z"></path>
			</g>
		</g>
	</g>
</svg>
