<?xml version="1.0" encoding="UTF-8" standalone="no" ?>
<svg width="256px" height="164px" viewBox="0 0 256 164" version="1.1" xmlns="http://www.w3.org/2000/svg" xmlns:xlink="http://www.w3.org/1999/xlink" preserveAspectRatio="xMidYMid">
    <defs>
        <radialGradient cx="17.9974183%" cy="25.9963022%" fx="17.9974183%" fy="25.9963022%" r="65.3683878%" id="radialGradient-1">
            <stop stop-color="#5FB0E2" offset="0%"></stop>
            <stop stop-color="#45A1D7" offset="9.123212%"></stop>
            <stop stop-color="#2C93CD" offset="20.8%"></stop>
            <stop stop-color="#1888C4" offset="33.83%"></stop>
            <stop stop-color="#0B80BE" offset="48.76%"></stop>
            <stop stop-color="#027BBB" offset="67.24%"></stop>
            <stop stop-color="#007ABA" offset="100%"></stop>
        </radialGradient>
    </defs>
    <g>
        <g transform="translate(31.000000, 0.000000)">
            <path d="M11.8,100.2 C45.8,78.3 84.4,94.1 103.7,104.6 C77,94 38,91.6 11.8,100.2 L11.8,100.2 Z" fill="#5FB0E2"></path>
            <path d="M71.6,0 C88,0 102,9.6 108.3,23.5 L95.5,23.5 C89.9,16.5 81.2,12.1 71.4,12.1 C61.8,12.1 53.3,16.4 47.6,23.2 C47.9,23 48.2,22.7 48.5,22.5 C61.9,13 79.7,23.5 79.7,23.5 C79.7,23.5 62.8,18.6 51.3,26.6 C39.8,34.6 41.7,50.7 41.7,50.7 C41.7,50.7 41.6,50.5 41.5,50.1 C41.5,50.3 41.6,50.5 41.6,50.7 C38.9,48.7 35.5,47.4 31.9,47 C31.5,44.7 31.2,42.3 31.2,39.8 C31.3,17.8 49.3,0 71.6,0 L71.6,0 L71.6,0 Z M20.1,90.9 L20.1,87.5 C30.7,79.6 50.3,69.4 73.9,76.8 C109.7,88 132.4,103.3 160.1,96.4 C187.7,89.5 190.2,74.4 190.2,74.4 C190.2,74.4 185.3,95.7 158.1,100.4 C130.9,105.1 105.8,99.8 73.8,87.9 C52.2,79.9 31.4,86.1 20.1,90.9 L20.1,90.9 L20.1,90.9 Z M20.1,84 C22.1,82.7 24.1,81.4 25.9,80.4 C25,79.8 24.2,79.2 23.4,78.4 C22,77 20.9,75.4 20.1,73.8 L20.1,81.2 C20.2,81.3 20.2,81.3 20.3,81.4 C20.7,81.7 21,82 21.4,82.3 C20.9,82.1 20.5,81.9 20.1,81.6 L20.1,84 L20.1,84 L20.1,84 Z M20.1,49.5 L20.1,36.9 C22.7,36 25.5,35.5 28.3,35.3 C28.2,36.7 28.1,38.2 28.1,39.7 C28.1,42.2 28.3,44.6 28.7,47 C25.6,47.2 22.7,48.1 20.1,49.5 L20.1,49.5 Z M20.1,36.9 L20.1,49.5 C14.5,52.7 10.7,58.7 10.7,65.6 C10.7,72.5 14.5,78.5 20.1,81.7 L20.1,84 C17.8,85.5 15.6,87.2 13.8,88.6 C5.7,83.4 0.4,74.5 0.4,64.3 C0.4,51.6 8.6,40.8 20.1,36.9 L20.1,36.9 L20.1,36.9 Z M20.1,73.9 C16.5,67 17.7,59.1 17.7,59.1 C17.7,59.1 11.7,73 20.1,81.3 L20.1,73.9 L20.1,73.9 Z M20.1,87.4 C14.6,91.5 11.5,94.9 11.5,94.9 C11.5,95 14.7,93.1 20.1,90.8 L20.1,87.4 L20.1,87.4 Z" fill="url(#radialGradient-1)"></path>
            <path d="M110.1,82 C110.1,82 127.2,90.7 143.2,89.3 C159.3,87.9 164.1,82.2 164.1,82.2 C164.1,82.2 158.2,93.1 142.8,93.7 C127.4,94.3 110.1,82.4 110.1,82 L110.1,82 Z" fill="#5FB0E2"></path>
            <rect fill="#5FB0E2" x="97" y="26.8" width="14.4" height="14.4"></rect>
            <rect fill="#0088CF" x="154" y="66.5" width="11.1" height="11.1"></rect>
            <rect fill="#5FB0E2" x="114.3" y="13.6" width="19.1" height="19.1"></rect>
            <rect fill="#0088CF" x="169.9" y="46.7" width="19.1" height="19.1"></rect>
            <rect fill="#5FB0E2" x="135.3" y="34.2" width="10.7" height="10.7"></rect>
            <rect fill="#5FB0E2" x="142.4" y="55.2" width="10.7" height="10.7"></rect>
            <rect fill="#0088CF" x="119.9" y="56.3" width="10.7" height="10.7"></rect>
            <rect fill="#0088CF" x="157.4" y="34.6" width="10.7" height="10.7"></rect>
        </g>
        <g transform="translate(0.000000, 118.000000)" fill="#0A8CCC">
            <path d="M31.5,19.3 C31.5,21.9 31.1,24.3 30.2,26.5 C29.3,28.7 28.1,30.6 26.5,32.1 C24.9,33.7 23,34.9 20.8,35.8 C18.6,36.7 16.1,37.1 13.5,37.1 L0,37.1 L0,1.6 L13.6,1.6 C16.3,1.6 18.7,2 20.9,2.9 C23.1,3.8 25,5 26.6,6.6 C28.2,8.2 29.4,10 30.3,12.2 C31.1,14.4 31.5,16.7 31.5,19.3 L31.5,19.3 Z M24.8,19.3 C24.8,17.4 24.5,15.6 24,14.1 C23.5,12.6 22.7,11.2 21.8,10.2 C20.8,9.1 19.7,8.3 18.3,7.7 C16.9,7.1 15.4,6.8 13.6,6.8 L6.7,6.8 L6.7,31.8 L13.6,31.8 C15.3,31.8 16.9,31.5 18.3,30.9 C19.7,30.3 20.9,29.5 21.8,28.4 C22.8,27.3 23.5,26 24,24.5 C24.5,23 24.8,21.3 24.8,19.3 L24.8,19.3 Z"></path>
            <path d="M41.3,4.6 C41.3,5.1 41.2,5.6 41,6.1 C40.8,6.6 40.5,7 40.2,7.3 C39.8,7.6 39.4,7.9 39,8.1 C38.5,8.3 38,8.4 37.5,8.4 C37,8.4 36.5,8.3 36,8.1 C35.5,7.9 35.1,7.6 34.8,7.3 C34.5,7 34.2,6.6 34,6.1 C33.8,5.6 33.7,5.2 33.7,4.6 C33.7,4.1 33.8,3.6 34,3.1 C34.2,2.6 34.5,2.2 34.8,1.9 C35.1,1.6 35.5,1.3 36,1.1 C36.5,0.9 37,0.8 37.5,0.8 C38,0.8 38.5,0.9 39,1.1 C39.5,1.3 39.9,1.6 40.2,1.9 C40.6,2.2 40.8,2.7 41,3.1 C41.2,3.5 41.3,4 41.3,4.6 L41.3,4.6 Z M40.4,11.9 L40.4,37.1 L34.3,37.1 L34.3,11.9 L40.4,11.9 L40.4,11.9 Z"></path>
            <path d="M53.5,11.5 C54.6,11.5 55.6,11.6 56.5,11.8 C57.4,12 58.3,12.3 59.1,12.8 L66.3,12.8 L66.3,15.1 C66.3,15.5 66.2,15.8 66,16 C65.8,16.2 65.5,16.4 65,16.4 L62.7,16.8 C62.9,17.2 63,17.7 63.1,18.1 C63.2,18.6 63.2,19.1 63.2,19.6 C63.2,20.8 63,22 62.5,23 C62,24 61.3,24.9 60.4,25.6 C59.5,26.3 58.5,26.8 57.3,27.2 C56.1,27.6 54.8,27.8 53.4,27.8 C52.5,27.8 51.5,27.7 50.6,27.5 C49.8,28 49.4,28.5 49.4,29.1 C49.4,29.6 49.6,30 50.1,30.2 C50.6,30.4 51.2,30.6 51.9,30.7 C52.7,30.8 53.5,30.8 54.5,30.8 C55.5,30.8 56.5,30.8 57.5,30.9 C58.5,31 59.5,31.1 60.5,31.3 C61.5,31.5 62.3,31.8 63.1,32.3 C63.9,32.7 64.5,33.3 64.9,34.1 C65.4,34.9 65.6,35.8 65.6,37 C65.6,38.1 65.3,39.2 64.8,40.3 C64.3,41.4 63.5,42.3 62.4,43.1 C61.4,43.9 60.1,44.6 58.6,45.1 C57.1,45.6 55.4,45.9 53.4,45.9 C51.5,45.9 49.8,45.7 48.4,45.3 C47,44.9 45.8,44.4 44.9,43.8 C44,43.2 43.3,42.5 42.8,41.7 C42.3,40.9 42.1,40.1 42.1,39.2 C42.1,38 42.5,37 43.2,36.2 C43.9,35.4 44.9,34.8 46.2,34.3 C45.6,34 45.1,33.5 44.7,32.9 C44.3,32.3 44.1,31.6 44.1,30.7 C44.1,30.3 44.2,29.9 44.3,29.5 C44.4,29.1 44.6,28.7 44.9,28.3 C45.2,27.9 45.5,27.5 45.9,27.2 C46.3,26.8 46.8,26.5 47.3,26.3 C46,25.6 45,24.7 44.3,23.5 C43.6,22.4 43.2,21 43.2,19.5 C43.2,18.3 43.4,17.1 43.9,16.1 C44.4,15.1 45.1,14.2 46,13.5 C46.9,12.8 47.9,12.2 49.2,11.9 C50.7,11.7 52,11.5 53.5,11.5 L53.5,11.5 Z M60.1,38.2 C60.1,37.7 60,37.3 59.7,37 C59.4,36.7 59,36.4 58.5,36.3 C58,36.1 57.4,36 56.7,35.9 C56,35.8 55.3,35.8 54.5,35.8 L52.1,35.8 C51.3,35.8 50.5,35.7 49.8,35.5 C49.1,35.9 48.6,36.3 48.1,36.8 C47.7,37.3 47.5,37.9 47.5,38.6 C47.5,39 47.6,39.5 47.8,39.8 C48,40.2 48.4,40.5 48.9,40.8 C49.4,41.1 50,41.3 50.8,41.5 C51.6,41.7 52.5,41.7 53.6,41.7 C54.7,41.7 55.7,41.6 56.5,41.4 C57.3,41.2 58,41 58.5,40.7 C59,40.4 59.4,40 59.7,39.6 C60,39.1 60.1,38.7 60.1,38.2 L60.1,38.2 Z M53.5,23.9 C54.3,23.9 54.9,23.8 55.5,23.6 C56.1,23.4 56.5,23.1 56.9,22.8 C57.3,22.4 57.5,22 57.7,21.5 C57.9,21 58,20.4 58,19.8 C58,18.6 57.6,17.6 56.9,16.8 C56.2,16.1 55,15.7 53.5,15.7 C52,15.7 50.9,16.1 50.1,16.8 C49.4,17.5 49,18.5 49,19.8 C49,20.4 49.1,20.9 49.3,21.4 C49.5,21.9 49.8,22.3 50.1,22.7 C50.5,23.1 50.9,23.4 51.5,23.6 C52.1,23.8 52.7,23.9 53.5,23.9 L53.5,23.9 Z"></path>
            <path d="M75.1,4.6 C75.1,5.1 75,5.6 74.8,6.1 C74.6,6.6 74.3,7 74,7.3 C73.6,7.6 73.2,7.9 72.8,8.1 C72.3,8.3 71.8,8.4 71.3,8.4 C70.8,8.4 70.3,8.3 69.8,8.1 C69.3,7.9 68.9,7.6 68.6,7.3 C68.3,7 68,6.6 67.8,6.1 C67.6,5.6 67.5,5.2 67.5,4.6 C67.5,4.1 67.6,3.6 67.8,3.1 C68,2.6 68.3,2.2 68.6,1.9 C68.9,1.6 69.3,1.3 69.8,1.1 C70.3,0.9 70.8,0.8 71.3,0.8 C71.8,0.8 72.3,0.9 72.8,1.1 C73.3,1.3 73.7,1.6 74,1.9 C74.4,2.2 74.6,2.7 74.8,3.1 C75,3.5 75.1,4 75.1,4.6 L75.1,4.6 Z M74.2,11.9 L74.2,37.1 L68.1,37.1 L68.1,11.9 L74.2,11.9 L74.2,11.9 Z"></path>
            <path d="M86.8,37.5 C84.6,37.5 82.9,36.9 81.8,35.6 C80.6,34.4 80,32.7 80,30.5 L80,16.4 L77.4,16.4 C77.1,16.4 76.8,16.3 76.6,16.1 C76.4,15.9 76.2,15.6 76.2,15.1 L76.2,12.7 L80.3,12 L81.6,5.1 C81.7,4.8 81.8,4.5 82.1,4.3 C82.3,4.1 82.6,4 83,4 L86.1,4 L86.1,11.9 L92.7,11.9 L92.7,16.2 L86.1,16.2 L86.1,29.9 C86.1,30.7 86.3,31.3 86.7,31.7 C87.1,32.1 87.6,32.4 88.3,32.4 C88.7,32.4 89,32.4 89.2,32.3 C89.5,32.2 89.7,32.1 89.9,32 C90.1,31.9 90.3,31.8 90.4,31.7 C90.5,31.6 90.7,31.6 90.8,31.6 C91,31.6 91.1,31.6 91.2,31.7 C91.3,31.8 91.4,31.9 91.6,32.1 L93.4,35 C92.5,35.7 91.5,36.3 90.4,36.7 C89.3,37.3 88.1,37.5 86.8,37.5 L86.8,37.5 Z"></path>
            <path d="M114.9,37.1 L112.2,37.1 C111.6,37.1 111.2,37 110.8,36.8 C110.5,36.6 110.2,36.3 110.1,35.8 L109.6,34 C109,34.6 108.3,35.1 107.7,35.5 C107.1,35.9 106.5,36.3 105.8,36.6 C105.1,36.9 104.4,37.1 103.7,37.3 C103,37.4 102.1,37.5 101.2,37.5 C100.1,37.5 99.2,37.4 98.3,37.1 C97.4,36.8 96.6,36.4 96,35.8 C95.4,35.2 94.8,34.5 94.5,33.7 C94.1,32.8 94,31.9 94,30.7 C94,29.7 94.2,28.8 94.7,27.9 C95.2,27 96,26.1 97.2,25.4 C98.4,24.7 99.9,24 101.8,23.5 C103.7,23 106.1,22.8 109,22.8 L109,21.3 C109,19.6 108.6,18.3 107.9,17.5 C107.2,16.7 106.2,16.3 104.8,16.3 C103.8,16.3 103,16.4 102.3,16.6 C101.6,16.8 101.1,17.1 100.6,17.4 C100.1,17.7 99.7,17.9 99.3,18.2 C98.9,18.4 98.4,18.5 97.9,18.5 C97.5,18.5 97.1,18.4 96.8,18.2 C96.5,18 96.3,17.7 96.1,17.4 L95,15.5 C97.9,12.8 101.4,11.5 105.5,11.5 C107,11.5 108.3,11.7 109.4,12.2 C110.6,12.7 111.5,13.4 112.3,14.2 C113.1,15.1 113.7,16.1 114.1,17.3 C114.5,18.5 114.7,19.8 114.7,21.2 L114.7,37.1 L114.9,37.1 Z M103.1,33.3 C103.7,33.3 104.3,33.2 104.8,33.1 C105.3,33 105.8,32.8 106.3,32.6 C106.8,32.4 107.2,32.1 107.7,31.8 C108.1,31.5 108.6,31.1 109,30.6 L109,26.4 C107.2,26.4 105.8,26.5 104.6,26.7 C103.4,26.9 102.5,27.2 101.7,27.6 C101,27.9 100.5,28.4 100.2,28.8 C99.9,29.3 99.7,29.8 99.7,30.3 C99.7,31.4 100,32.1 100.6,32.6 C101.2,33.1 102.1,33.3 103.1,33.3 L103.1,33.3 Z"></path>
            <path d="M124.8,0.6 L124.8,37.1 L118.7,37.1 L118.7,0.6 L124.8,0.6 L124.8,0.6 Z"></path>
            <path d="M163.6,19.3 C163.6,21.9 163.2,24.3 162.3,26.5 C161.4,28.7 160.2,30.6 158.6,32.3 C157,33.9 155.1,35.2 152.9,36.1 C150.7,37 148.2,37.5 145.6,37.5 C143,37.5 140.5,37 138.2,36.1 C136,35.2 134.1,33.9 132.5,32.3 C130.9,30.7 129.7,28.8 128.8,26.5 C127.9,24.3 127.5,21.9 127.5,19.3 C127.5,16.7 127.9,14.3 128.8,12.1 C129.7,9.9 130.9,8 132.5,6.3 C134.1,4.7 136,3.4 138.2,2.5 C140.4,1.6 142.9,1.1 145.6,1.1 C148.3,1.1 150.7,1.6 152.9,2.5 C155.1,3.4 157,4.7 158.6,6.3 C160.2,7.9 161.4,9.8 162.3,12 C163.2,14.3 163.6,16.7 163.6,19.3 L163.6,19.3 Z M156.9,19.3 C156.9,17.4 156.6,15.6 156.1,14.1 C155.6,12.6 154.8,11.2 153.9,10.2 C152.9,9.1 151.8,8.3 150.4,7.7 C149,7.1 147.5,6.8 145.7,6.8 C143.9,6.8 142.4,7.1 141,7.7 C139.6,8.3 138.4,9.1 137.5,10.2 C136.5,11.3 135.8,12.6 135.3,14.1 C134.8,15.6 134.5,17.4 134.5,19.3 C134.5,21.2 134.8,23 135.3,24.5 C135.8,26 136.6,27.4 137.5,28.4 C138.5,29.5 139.7,30.3 141,30.9 C142.4,31.5 144,31.8 145.7,31.8 C147.4,31.8 149,31.5 150.4,30.9 C151.8,30.3 153,29.5 153.9,28.4 C154.9,27.3 155.6,26 156.1,24.5 C156.6,23 156.9,21.3 156.9,19.3 L156.9,19.3 Z"></path>
            <path d="M183.7,17.2 L183.2,17.7 C183,17.8 182.8,17.9 182.5,17.9 C182.2,17.9 181.9,17.8 181.6,17.6 C181.3,17.4 181,17.2 180.5,17 C180.1,16.8 179.6,16.5 179,16.4 C178.4,16.2 177.7,16.1 176.9,16.1 C175.8,16.1 174.9,16.3 174.1,16.7 C173.3,17.1 172.6,17.6 172.1,18.4 C171.6,19.1 171.2,20 170.9,21 C170.6,22 170.5,23.2 170.5,24.5 C170.5,25.8 170.6,27 170.9,28.1 C171.2,29.1 171.6,30 172.1,30.7 C172.6,31.4 173.3,32 174.1,32.3 C174.9,32.7 175.7,32.9 176.7,32.9 C177.7,32.9 178.4,32.8 179,32.5 C179.6,32.3 180.1,32 180.5,31.7 C180.9,31.4 181.3,31.2 181.6,30.9 C181.9,30.7 182.2,30.5 182.6,30.5 C183.1,30.5 183.5,30.7 183.7,31.1 L185.4,33.3 C184.7,34.1 184,34.7 183.2,35.3 C182.4,35.8 181.6,36.3 180.8,36.6 C180,36.9 179.1,37.1 178.2,37.3 C177.3,37.4 176.4,37.5 175.5,37.5 C173.9,37.5 172.5,37.2 171.1,36.6 C169.7,36 168.5,35.2 167.5,34.1 C166.5,33 165.7,31.6 165.1,30 C164.5,28.4 164.2,26.6 164.2,24.5 C164.2,22.7 164.5,20.9 165,19.4 C165.5,17.8 166.3,16.5 167.3,15.3 C168.3,14.1 169.6,13.2 171.1,12.6 C172.6,11.9 174.4,11.6 176.4,11.6 C178.3,11.6 179.9,11.9 181.3,12.5 C182.7,13.1 184,14 185.1,15.1 L183.7,17.2 L183.7,17.2 Z"></path>
            <path d="M197.4,11.5 C199,11.5 200.4,11.8 201.8,12.3 C203.1,12.8 204.3,13.5 205.3,14.5 C206.3,15.5 207,16.7 207.6,18.1 C208.1,19.5 208.4,21.1 208.4,22.9 C208.4,23.4 208.4,23.7 208.3,24 C208.3,24.3 208.2,24.5 208.1,24.7 C208,24.9 207.9,25 207.7,25.1 C207.5,25.2 207.3,25.2 207,25.2 L191.4,25.2 C191.6,27.8 192.3,29.7 193.5,30.9 C194.7,32.1 196.3,32.7 198.3,32.7 C199.3,32.7 200.1,32.6 200.8,32.4 C201.5,32.2 202.1,31.9 202.7,31.6 C203.2,31.3 203.7,31.1 204.1,30.8 C204.5,30.6 204.9,30.5 205.3,30.5 C205.5,30.5 205.8,30.5 205.9,30.6 C206.1,30.7 206.2,30.8 206.4,31 L208.2,33.2 C207.5,34 206.8,34.6 205.9,35.2 C205.1,35.7 204.2,36.2 203.3,36.5 C202.4,36.8 201.5,37 200.5,37.2 C199.6,37.3 198.6,37.4 197.8,37.4 C196,37.4 194.4,37.1 192.9,36.5 C191.4,35.9 190.1,35.1 189,33.9 C187.9,32.8 187,31.4 186.4,29.7 C185.8,28 185.4,26.1 185.4,23.9 C185.4,22.2 185.7,20.6 186.2,19.1 C186.8,17.6 187.6,16.3 188.6,15.1 C189.6,14 190.9,13.1 192.4,12.4 C193.8,11.8 195.5,11.5 197.4,11.5 L197.4,11.5 Z M197.5,15.9 C195.7,15.9 194.3,16.4 193.4,17.4 C192.4,18.4 191.8,19.8 191.5,21.6 L202.9,21.6 C202.9,20.8 202.8,20.1 202.6,19.4 C202.4,18.7 202.1,18.1 201.6,17.6 C201.2,17.1 200.6,16.7 199.9,16.4 C199.2,16 198.4,15.9 197.5,15.9 L197.5,15.9 Z"></path>
            <path d="M230.5,37.1 L227.8,37.1 C227.2,37.1 226.8,37 226.4,36.8 C226.1,36.6 225.8,36.3 225.7,35.8 L225.2,34 C224.6,34.6 223.9,35.1 223.3,35.5 C222.7,35.9 222.1,36.3 221.4,36.6 C220.7,36.9 220,37.1 219.3,37.3 C218.6,37.4 217.7,37.5 216.8,37.5 C215.7,37.5 214.8,37.4 213.9,37.1 C213,36.8 212.2,36.4 211.6,35.8 C211,35.2 210.4,34.5 210.1,33.7 C209.7,32.8 209.6,31.9 209.6,30.7 C209.6,29.7 209.8,28.8 210.3,27.9 C210.8,27 211.6,26.1 212.8,25.4 C214,24.7 215.5,24 217.4,23.5 C219.3,23 221.7,22.8 224.6,22.8 L224.6,21.3 C224.6,19.6 224.2,18.3 223.5,17.5 C222.8,16.7 221.8,16.3 220.4,16.3 C219.4,16.3 218.6,16.4 217.9,16.6 C217.2,16.8 216.7,17.1 216.2,17.4 C215.7,17.7 215.3,17.9 214.9,18.2 C214.5,18.4 214,18.5 213.6,18.5 C213.2,18.5 212.8,18.4 212.5,18.2 C212.2,18 212,17.7 211.8,17.4 L210.7,15.5 C213.6,12.8 217.1,11.5 221.2,11.5 C222.7,11.5 224,11.7 225.1,12.2 C226.3,12.7 227.2,13.4 228,14.2 C228.8,15.1 229.4,16.1 229.8,17.3 C230.2,18.5 230.4,19.8 230.4,21.2 L230.4,37.1 L230.5,37.1 Z M218.8,33.3 C219.4,33.3 220,33.2 220.5,33.1 C221,33 221.5,32.8 222,32.6 C222.5,32.4 222.9,32.1 223.4,31.8 C223.8,31.5 224.3,31.1 224.7,30.6 L224.7,26.4 C222.9,26.4 221.5,26.5 220.3,26.7 C219.1,26.9 218.2,27.2 217.4,27.6 C216.7,27.9 216.2,28.4 215.9,28.8 C215.6,29.3 215.4,29.8 215.4,30.3 C215.4,31.4 215.7,32.1 216.3,32.6 C216.9,33.1 217.7,33.3 218.8,33.3 L218.8,33.3 Z"></path>
            <path d="M234,37.1 L234,11.9 L237.7,11.9 C238.5,11.9 239,12.3 239.2,13 L239.6,15 C240.1,14.5 240.6,14 241.2,13.6 C241.8,13.2 242.4,12.8 243,12.5 C243.6,12.2 244.3,12 245,11.8 C245.7,11.6 246.5,11.6 247.4,11.6 C248.8,11.6 250,11.8 251.1,12.3 C252.2,12.8 253.1,13.4 253.8,14.3 C254.5,15.1 255.1,16.1 255.4,17.3 C255.8,18.5 256,19.8 256,21.2 L256,37.2 L249.9,37.2 L249.9,21.2 C249.9,19.7 249.5,18.5 248.8,17.6 C248.1,16.8 247,16.3 245.6,16.3 C244.6,16.3 243.6,16.5 242.7,17 C241.8,17.5 240.9,18.1 240.1,18.9 L240.1,37.1 L234,37.1 L234,37.1 Z"></path>
        </g>
    </g>
</svg>
