<?xml version="1.0" encoding="UTF-8"?>
<svg width="256px" height="259px" viewBox="0 0 256 259" version="1.1" xmlns="http://www.w3.org/2000/svg" preserveAspectRatio="xMidYMid">
    <title>Discourse</title>
    <g>
        <path d="M129.095081,0 C59.0099164,0 0,56.819755 0,126.929808 L0,258.364379 L129.070192,258.239938 C199.155357,258.239938 256,199.230021 256,129.144857 C256,59.0596928 199.10558,0 129.095081,0 Z" fill="#000000"></path>
        <path d="M130.339491,49.129302 C102.619002,49.1456632 76.9515766,63.745111 62.7691338,87.5628371 C48.5866907,111.380563 47.9812117,140.903334 61.1751896,165.28252 L46.9391406,211.076803 L98.0594983,199.52868 C127.332994,212.717583 161.683856,206.793982 184.849284,184.5623 C208.014712,162.330619 215.34579,128.252384 203.371751,98.4613268 C191.397711,68.6702695 162.521545,49.1449581 130.414155,49.129302 L130.339491,49.129302 Z" fill="#FFF9AE"></path>
        <path d="M191.856714,176.491821 C169.510363,204.681699 130.885875,214.116738 98.0594983,199.404239 L46.9391406,211.101692 L98.9803617,204.954307 C133.480104,225.163991 177.652417,216.272059 201.645448,184.287718 C225.638479,152.303378 221.815066,107.407485 192.75909,79.9408905 C214.574652,108.543511 214.203065,148.301944 191.856714,176.491821 Z" fill="#00AEEF"></path>
        <path d="M187.45572,161.546412 C168.175412,191.914512 130.748701,205.331016 96.5662065,194.127941 L46.9391406,211.101692 L98.0594983,199.52868 C134.467243,215.974525 177.420324,202.512353 197.928478,168.228167 C218.436631,133.943982 209.98342,89.7315341 178.274159,65.4310714 C202.955222,91.5996965 206.736028,131.178311 187.45572,161.546412 Z" fill="#00A94F"></path>
        <path d="M65.8790589,167.024694 C51.6312704,132.680971 63.3728789,93.0516744 94.0298199,72.0125972 C124.686761,50.9735201 165.887242,54.2700097 192.808866,79.9160023 C167.87543,47.1952633 121.943027,39.2083898 87.4278666,61.5920164 C52.9127062,83.9756427 41.4699552,129.171209 61.1751896,165.28252 L46.9391406,211.076803 L65.8790589,167.024694 Z" fill="#F15D22"></path>
        <path d="M61.1751896,165.28252 C43.4964018,132.627896 51.0576256,92.0582625 79.3129436,67.9646737 C107.568261,43.8710849 148.822979,42.8148828 178.274159,65.4310714 C150.022771,35.683495 103.654717,32.6392369 71.7564946,58.4377377 C39.8582724,84.2362388 33.1395004,130.215822 56.3219911,164.062998 L46.9640288,211.101692 L61.1751896,165.28252 Z" fill="#D0232B"></path>
    </g>
</svg>
