<?xml version="1.0" encoding="UTF-8" standalone="no"?>
<svg width="256px" height="236px" viewBox="0 0 256 236" version="1.1" xmlns="http://www.w3.org/2000/svg" xmlns:xlink="http://www.w3.org/1999/xlink" preserveAspectRatio="xMidYMid">
	<g>
		<path d="M118.355277,0.359325301 L44.5249799,0.359325301 C41.8513735,0.359325301 39.3808193,1.78531727 38.0442731,4.10114056 L1.12886747,68.0399679 C-0.207678715,70.3552771 -0.207678715,73.2082892 1.12886747,75.5235984 L38.0442731,139.462426 C39.3808193,141.777735 41.8513735,143.204241 44.5249799,143.204241 L118.355277,143.204241 C121.028884,143.204241 123.499438,141.777735 124.836498,139.462426 L161.75139,75.5235984 C163.08845,73.2082892 163.08845,70.3552771 161.75139,68.0399679 L124.836498,4.10114056 C123.499438,1.78531727 121.028884,0.359325301 118.355277,0.359325301" fill="#3B97D3"></path>
		<path d="M221.839422,92.6241928 L165.244916,92.6241928 C163.195373,92.6241928 161.30159,93.7175904 160.276562,95.4921124 L131.979309,144.504803 C130.954795,146.279839 130.954795,148.466635 131.979309,150.241671 L160.276562,199.253847 C161.30159,201.028884 163.195373,202.122281 165.244916,202.122281 L221.839422,202.122281 C223.888964,202.122281 225.782747,201.028884 226.807775,199.253847 L255.105028,150.241671 C256.129542,148.466635 256.129542,146.279839 255.105028,144.504803 L226.807775,95.4921124 C225.782747,93.7175904 223.888964,92.6241928 221.839422,92.6241928" fill="#4EBA6F"></path>
		<path d="M120.289157,151.740659 L77.1115181,151.740659 C75.5482731,151.740659 74.103261,152.574972 73.3213815,153.928996 L51.7330763,191.321446 C50.9511968,192.67547 50.9511968,194.344096 51.7330763,195.69812 L73.3213815,233.09057 C74.103261,234.444594 75.5482731,235.278908 77.1115181,235.278908 L120.289157,235.278908 C121.852402,235.278908 123.297414,234.444594 124.079293,233.09057 L145.667598,195.69812 C146.449478,194.344096 146.449478,192.67547 145.667598,191.321446 L124.079293,153.928996 C123.297414,152.574972 121.852402,151.740659 120.289157,151.740659" fill="#F0C419"></path>
	</g>
</svg>