<?xml version="1.0" encoding="UTF-8" standalone="no"?>
<svg width="256px" height="339px" viewBox="0 0 256 339" version="1.1" xmlns="http://www.w3.org/2000/svg" xmlns:xlink="http://www.w3.org/1999/xlink" preserveAspectRatio="xMidYMid">
	<g>
		<path d="M208.493,111.5005 C208.199,111.1825 207.931,110.8485 207.621,110.5395 L106.545,9.9055 C94.453,-2.1325 74.89,-2.0925 62.85,10.0005 C50.81,22.0935 50.853,41.6555 62.945,53.6945 L96.348,86.9515 C40.966,101.0405 0,151.2325 0,210.9995 C0,281.6925 57.308,338.9995 128,338.9995 C198.692,338.9995 256,281.6925 256,210.9995 C256,170.8115 237.465,134.9675 208.493,111.5005" fill="#FE8439"></path>
		<path d="M203.6328,195.181 L130.5848,123.016 C120.8738,113.422 105.2258,113.521 95.6298,123.228 C86.0358,132.94 86.1308,148.59 95.8428,158.184 L126.0728,188.048 L62.2348,188.048 C48.5828,188.048 37.5168,199.114 37.5168,212.765 C37.5168,226.417 48.5828,237.483 62.2348,237.483 L126.7278,237.483 L96.0118,268.39 C86.3898,278.072 86.4398,293.722 96.1208,303.347 C100.9428,308.138 107.2448,310.531 113.5448,310.531 C119.8948,310.531 126.2468,308.098 131.0778,303.238 L201.8088,232.065 C201.9388,231.935 202.0478,231.791 202.1738,231.658 C205.1608,229.144 207.5798,225.921 209.1258,222.155 C212.9348,212.881 210.7638,202.228 203.6328,195.181" fill="#FFFFFF"></path>
	</g>
</svg>
