<?xml version="1.0" encoding="UTF-8"?>
<svg width="256px" height="218px" viewBox="0 0 256 218" version="1.1" xmlns="http://www.w3.org/2000/svg" xmlns:xlink="http://www.w3.org/1999/xlink" preserveAspectRatio="xMidYMid">
		<g>
				<rect fill="#FFFFFF" x="126.030769" y="45.9487179" width="110.276923" height="44.6358974"></rect>
				<path d="M26.2564103,191.671795 C16.5441641,191.671795 8.0830359,186.385067 3.54067692,178.54359 C1.30231795,182.408533 0,186.883938 0,191.671795 C0,206.17321 11.7549949,217.928205 26.2564103,217.928205 L52.5128205,217.928205 L52.5128205,191.671795 L26.2564103,191.671795 Z" fill="#3ECC5F"></path>
				<path d="M144.384656,53.006441 L236.308349,47.2615385 L236.308349,34.1333333 C236.308349,19.6319179 224.552041,7.87692308 210.051938,7.87692308 L91.8980923,7.87692308 L88.616041,2.19241026 C87.1561846,-0.334769231 83.5104821,-0.334769231 82.0519385,2.19241026 L78.7698872,7.87692308 L75.4878359,2.19241026 C74.0279795,-0.334769231 70.3822769,-0.334769231 68.9237333,2.19241026 L65.6416821,7.87692308 L62.3596308,2.19241026 C60.8997744,-0.334769231 57.2540718,-0.334769231 55.7955282,2.19241026 L52.5134769,7.87692308 C52.4845949,7.87692308 52.4570256,7.88086154 52.4281436,7.88086154 L46.990441,2.44447179 C44.928,0.382030769 41.4070154,1.3246359 40.6508308,4.14326154 L38.8548923,10.8438974 L32.0374154,9.01645128 C29.2187897,8.26157949 26.6404103,10.839959 27.3965949,13.6585846 L29.2227282,20.4760615 L22.5234051,22.2706872 C19.7047795,23.0268718 18.7608615,26.5491692 20.8233026,28.6116103 L26.2596923,34.0493128 C26.2596923,34.0768821 26.2570667,34.1044513 26.2570667,34.1333333 L20.571241,37.4153846 C18.0453744,38.8739282 18.0453744,42.5209436 20.571241,43.9794872 L26.2570667,47.2615385 L20.571241,50.5435897 C18.0453744,52.0021333 18.0453744,55.6491487 20.571241,57.1076923 L26.2570667,60.3897436 L20.571241,63.6717949 C18.0453744,65.1303385 18.0453744,68.7773538 20.571241,70.2358974 L26.2570667,73.5179487 L20.571241,76.8 C18.0453744,78.2585436 18.0453744,81.905559 20.571241,83.3641026 L26.2570667,86.6461538 L20.571241,89.9282051 C18.0453744,91.3867487 18.0453744,95.0337641 20.571241,96.4923077 L26.2570667,99.774359 L20.571241,103.05641 C18.0453744,104.514954 18.0453744,108.161969 20.571241,109.620513 L26.2570667,112.902564 L20.571241,116.184615 C18.0453744,117.643159 18.0453744,121.290174 20.571241,122.748718 L26.2570667,126.030769 L20.571241,129.312821 C18.0453744,130.771364 18.0453744,134.418379 20.571241,135.876923 L26.2570667,139.158974 L20.571241,142.441026 C18.0453744,143.899569 18.0453744,147.546585 20.571241,149.005128 L26.2570667,152.287179 L20.571241,155.569231 C18.0453744,157.027774 18.0453744,160.67479 20.571241,162.133333 L26.2570667,165.415385 L20.571241,168.697436 C18.0453744,170.155979 18.0453744,173.802995 20.571241,175.261538 L26.2570667,178.54359 L20.571241,181.825641 C18.0453744,183.284185 18.0453744,186.9312 20.571241,188.389744 L26.2570667,191.671795 C26.2570667,206.17321 38.0120615,217.928205 52.5134769,217.928205 L210.051938,217.928205 C224.552041,217.928205 236.308349,206.17321 236.308349,191.671795 L236.308349,86.6461538 L144.384656,80.9012513 C137.019733,80.4404513 131.282708,74.3332103 131.282708,66.9538462 C131.282708,59.5744821 137.019733,53.467241 144.384656,53.006441" fill="#3ECC5F"></path>
				<polygon fill="#3ECC5F" points="183.794872 217.928205 223.179487 217.928205 223.179487 165.415385 183.794872 165.415385"></polygon>
				<path d="M249.435897,185.107692 C249.14839,185.107692 248.87401,185.156267 248.597005,185.191713 C248.547118,184.99479 248.499856,184.796554 248.444718,184.599631 C250.815672,183.609764 252.481641,181.272944 252.481641,178.54359 C252.481641,174.917579 249.543549,171.979487 245.917538,171.979487 C244.423549,171.979487 243.062154,172.499364 241.958072,173.339569 C241.812349,173.191221 241.666626,173.044185 241.518277,172.898462 C242.341415,171.800944 242.845538,170.45399 242.845538,168.977067 C242.845538,165.351056 239.907446,162.412964 236.281436,162.412964 C233.570462,162.412964 231.244144,164.057928 230.243774,166.405251 C230.049477,166.350113 229.853867,166.304164 229.659569,166.254277 C229.695015,165.977272 229.74359,165.702892 229.74359,165.415385 C229.74359,161.789374 226.805497,158.851282 223.179487,158.851282 C219.553477,158.851282 216.615385,161.789374 216.615385,165.415385 C216.615385,165.702892 216.663959,165.977272 216.699405,166.254277 C216.505108,166.304164 216.309497,166.350113 216.1152,166.405251 C215.114831,164.057928 212.788513,162.412964 210.077538,162.412964 C206.451528,162.412964 203.513436,165.351056 203.513436,168.977067 C203.513436,170.45399 204.017559,171.800944 204.840697,172.898462 C199.960944,177.666626 196.923077,184.31081 196.923077,191.671795 C196.923077,206.17321 208.678072,217.928205 223.179487,217.928205 C235.439918,217.928205 245.707487,209.513026 248.597005,198.151877 C248.87401,198.187323 249.14839,198.235897 249.435897,198.235897 C253.061908,198.235897 256,195.297805 256,191.671795 C256,188.045785 253.061908,185.107692 249.435897,185.107692" fill="#44D860"></path>
				<polygon fill="#3ECC5F" points="196.923077 139.158974 236.307692 139.158974 236.307692 112.902564 196.923077 112.902564"></polygon>
				<path d="M249.435897,129.312821 C251.248903,129.312821 252.717949,127.843774 252.717949,126.030769 C252.717949,124.217764 251.248903,122.748718 249.435897,122.748718 C249.2928,122.748718 249.154954,122.773662 249.017108,122.790728 C248.990851,122.692267 248.968533,122.593805 248.940964,122.495344 C250.125128,122.00041 250.958769,120.830687 250.958769,119.466667 C250.958769,117.653662 249.489723,116.184615 247.676718,116.184615 C246.929723,116.184615 246.248369,116.443241 245.696985,116.864656 C245.624779,116.789826 245.551262,116.716308 245.476431,116.644103 C245.888656,116.096656 246.140718,115.421867 246.140718,114.682749 C246.140718,112.871056 244.671672,111.400697 242.858667,111.400697 C241.502523,111.400697 240.339364,112.223836 239.839179,113.397497 C238.714092,113.083733 237.533867,112.902564 236.307692,112.902564 C229.058297,112.902564 223.179487,118.781374 223.179487,126.030769 C223.179487,133.280164 229.058297,139.158974 236.307692,139.158974 C237.533867,139.158974 238.714092,138.977805 239.839179,138.664041 C240.339364,139.837703 241.502523,140.660841 242.858667,140.660841 C244.671672,140.660841 246.140718,139.190482 246.140718,137.37879 C246.140718,136.639672 245.888656,135.964882 245.476431,135.417436 C245.551262,135.345231 245.624779,135.271713 245.696985,135.196882 C246.248369,135.618297 246.929723,135.876923 247.676718,135.876923 C249.489723,135.876923 250.958769,134.407877 250.958769,132.594872 C250.958769,131.230851 250.125128,130.061128 248.940964,129.566195 C248.968533,129.469046 248.990851,129.369272 249.017108,129.27081 C249.154954,129.287877 249.2928,129.312821 249.435897,129.312821" fill="#44D860"></path>
				<path d="M78.7692308,50.5435897 C76.9562256,50.5435897 75.4871795,49.0745436 75.4871795,47.2615385 C75.4871795,41.8317128 71.0708513,37.4153846 65.6410256,37.4153846 C60.2112,37.4153846 55.7948718,41.8317128 55.7948718,47.2615385 C55.7948718,49.0745436 54.3258256,50.5435897 52.5128205,50.5435897 C50.6998154,50.5435897 49.2307692,49.0745436 49.2307692,47.2615385 C49.2307692,38.2122667 56.5917538,30.8512821 65.6410256,30.8512821 C74.6902974,30.8512821 82.0512821,38.2122667 82.0512821,47.2615385 C82.0512821,49.0745436 80.5822359,50.5435897 78.7692308,50.5435897" fill="#000000"></path>
				<path d="M131.282051,217.928205 L210.051282,217.928205 C224.552697,217.928205 236.307692,206.17321 236.307692,191.671795 L236.307692,99.774359 L157.538462,99.774359 C143.037046,99.774359 131.282051,111.529354 131.282051,126.030769 L131.282051,217.928205 Z" fill="#FFFF50"></path>
				<path d="M216.640985,140.471795 L150.948759,140.471795 C150.222769,140.471795 149.635938,139.884964 149.635938,139.158974 C149.635938,138.432985 150.222769,137.846154 150.948759,137.846154 L216.640985,137.846154 C217.366974,137.846154 217.953805,138.432985 217.953805,139.158974 C217.953805,139.884964 217.366974,140.471795 216.640985,140.471795" fill="#000000"></path>
				<path d="M216.640985,166.728205 L150.948759,166.728205 C150.222769,166.728205 149.635938,166.141374 149.635938,165.415385 C149.635938,164.689395 150.222769,164.102564 150.948759,164.102564 L216.640985,164.102564 C217.366974,164.102564 217.953805,164.689395 217.953805,165.415385 C217.953805,166.141374 217.366974,166.728205 216.640985,166.728205" fill="#000000"></path>
				<path d="M216.640985,192.984615 L150.948759,192.984615 C150.222769,192.984615 149.635938,192.397785 149.635938,191.671795 C149.635938,190.945805 150.222769,190.358974 150.948759,190.358974 L216.640985,190.358974 C217.366974,190.358974 217.953805,190.945805 217.953805,191.671795 C217.953805,192.397785 217.366974,192.984615 216.640985,192.984615" fill="#000000"></path>
				<path d="M216.640985,127.587118 L150.948759,127.587118 C150.222769,127.587118 149.635938,126.998974 149.635938,126.274297 C149.635938,125.548308 150.222769,124.961477 150.948759,124.961477 L216.640985,124.961477 C217.366974,124.961477 217.953805,125.548308 217.953805,126.274297 C217.953805,126.998974 217.366974,127.587118 216.640985,127.587118" fill="#000000"></path>
				<path d="M216.640985,153.6 L150.948759,153.6 C150.222769,153.6 149.635938,153.013169 149.635938,152.287179 C149.635938,151.56119 150.222769,150.974359 150.948759,150.974359 L216.640985,150.974359 C217.366974,150.974359 217.953805,151.56119 217.953805,152.287179 C217.953805,153.013169 217.366974,153.6 216.640985,153.6" fill="#000000"></path>
				<path d="M216.640985,179.85641 L150.948759,179.85641 C150.222769,179.85641 149.635938,179.269579 149.635938,178.54359 C149.635938,177.8176 150.222769,177.230769 150.948759,177.230769 L216.640985,177.230769 C217.366974,177.230769 217.953805,177.8176 217.953805,178.54359 C217.953805,179.269579 217.366974,179.85641 216.640985,179.85641" fill="#000000"></path>
				<path d="M236.307692,58.5666297 C236.291938,58.5666297 236.27881,58.5587528 236.263056,58.5600656 C232.206441,58.6979118 230.287097,62.75584 228.593559,66.3359015 C226.826503,70.0761272 225.459856,72.5100964 223.220185,72.4365785 C220.740267,72.3473067 219.322421,69.5457477 217.820554,66.5800862 C216.095508,63.1759426 214.126277,59.3136246 209.992205,59.4580349 C205.993354,59.5945682 204.067446,63.1260554 202.368656,66.2413785 C200.560903,69.5601887 199.33079,71.5779938 196.958523,71.4847836 C194.428718,71.3928862 193.08439,69.1151426 191.528697,66.478999 C189.794462,63.5435323 187.789785,60.2431015 183.735795,60.3560041 C179.80521,60.4912246 177.874051,63.487081 176.17001,66.1324144 C174.367508,68.9287221 173.104574,70.6327631 170.702113,70.5316759 C168.111918,70.4384656 166.774154,68.5493169 165.226338,66.3608451 C163.488164,63.9019323 161.529436,61.1187528 157.487262,61.2539733 C153.643323,61.3852554 151.712164,63.8389169 150.009436,66.0037579 C148.392041,68.0570092 147.129108,69.682281 144.457518,69.579881 C143.732841,69.550999 143.125005,70.1194503 143.098749,70.84544 C143.071179,71.5688041 143.638318,72.1779528 144.362995,72.2055221 C148.323774,72.3381169 150.329764,69.8411323 152.071877,67.6277169 C153.617067,65.6637374 154.950892,63.9688862 157.576533,63.8796144 C160.105026,63.7719631 161.290503,65.3434092 163.083815,67.8771528 C164.786544,70.2848656 166.719015,73.0155323 170.60759,73.1560041 C174.681272,73.2925374 176.641313,70.2481067 178.376862,67.554199 C179.928615,65.1464862 181.267692,63.0682913 183.825067,62.9803323 C186.178954,62.8923733 187.460267,64.75264 189.266708,67.8128246 C190.969436,70.6970913 192.897969,73.9647015 196.864,74.1091118 C200.966564,74.2508964 202.94761,70.6682092 204.673969,67.4990605 C206.169272,64.7578913 207.580554,62.1676964 210.081477,62.0823631 C212.435364,62.0272246 213.662851,64.1763118 215.478482,67.7668759 C217.174646,71.1185067 219.097928,74.9151836 223.125662,75.0609067 C223.200492,75.0635323 223.27401,75.0648451 223.347528,75.0648451 C227.37001,75.0648451 229.278851,71.0279221 230.968451,67.4583631 C232.463754,64.2944656 233.878974,61.3130503 236.307692,61.1922708 L236.307692,58.5666297 Z" fill="#000000"></path>
				<polygon fill="#3ECC5F" points="105.025641 217.928205 157.538462 217.928205 157.538462 165.415385 105.025641 165.415385"></polygon>
				<path d="M183.794872,185.107692 C183.507364,185.107692 183.232985,185.156267 182.955979,185.191713 C182.906092,184.99479 182.858831,184.796554 182.803692,184.599631 C185.174646,183.609764 186.840615,181.272944 186.840615,178.54359 C186.840615,174.917579 183.902523,171.979487 180.276513,171.979487 C178.782523,171.979487 177.421128,172.499364 176.317046,173.339569 C176.171323,173.191221 176.0256,173.044185 175.877251,172.898462 C176.70039,171.800944 177.204513,170.45399 177.204513,168.977067 C177.204513,165.351056 174.266421,162.412964 170.64041,162.412964 C167.929436,162.412964 165.603118,164.057928 164.602749,166.405251 C164.408451,166.350113 164.212841,166.304164 164.018544,166.254277 C164.05399,165.977272 164.102564,165.702892 164.102564,165.415385 C164.102564,161.789374 161.164472,158.851282 157.538462,158.851282 C153.912451,158.851282 150.974359,161.789374 150.974359,165.415385 C150.974359,165.702892 151.022933,165.977272 151.058379,166.254277 C150.864082,166.304164 150.668472,166.350113 150.474174,166.405251 C149.473805,164.057928 147.147487,162.412964 144.436513,162.412964 C140.810503,162.412964 137.87241,165.351056 137.87241,168.977067 C137.87241,170.45399 138.376533,171.800944 139.199672,172.898462 C134.319918,177.666626 131.282051,184.31081 131.282051,191.671795 C131.282051,206.17321 143.037046,217.928205 157.538462,217.928205 C169.798892,217.928205 180.066462,209.513026 182.955979,198.151877 C183.232985,198.187323 183.507364,198.235897 183.794872,198.235897 C187.420882,198.235897 190.358974,195.297805 190.358974,191.671795 C190.358974,188.045785 187.420882,185.107692 183.794872,185.107692" fill="#44D860"></path>
				<polygon fill="#3ECC5F" points="105.025641 139.158974 157.538462 139.158974 157.538462 112.902564 105.025641 112.902564"></polygon>
				<path d="M170.666667,129.312821 C172.479672,129.312821 173.948718,127.843774 173.948718,126.030769 C173.948718,124.217764 172.479672,122.748718 170.666667,122.748718 C170.523569,122.748718 170.385723,122.773662 170.247877,122.790728 C170.221621,122.692267 170.199303,122.593805 170.171733,122.495344 C171.355897,122.00041 172.189538,120.830687 172.189538,119.466667 C172.189538,117.653662 170.720492,116.184615 168.907487,116.184615 C168.160492,116.184615 167.479138,116.443241 166.927754,116.864656 C166.855549,116.789826 166.782031,116.716308 166.7072,116.644103 C167.119426,116.096656 167.371487,115.421867 167.371487,114.682749 C167.371487,112.871056 165.902441,111.400697 164.089436,111.400697 C162.733292,111.400697 161.570133,112.223836 161.069949,113.397497 C159.944862,113.083733 158.764636,112.902564 157.538462,112.902564 C150.289067,112.902564 144.410256,118.781374 144.410256,126.030769 C144.410256,133.280164 150.289067,139.158974 157.538462,139.158974 C158.764636,139.158974 159.944862,138.977805 161.069949,138.664041 C161.570133,139.837703 162.733292,140.660841 164.089436,140.660841 C165.902441,140.660841 167.371487,139.190482 167.371487,137.37879 C167.371487,136.639672 167.119426,135.964882 166.7072,135.417436 C166.782031,135.345231 166.855549,135.271713 166.927754,135.196882 C167.479138,135.618297 168.160492,135.876923 168.907487,135.876923 C170.720492,135.876923 172.189538,134.407877 172.189538,132.594872 C172.189538,131.230851 171.355897,130.061128 170.171733,129.566195 C170.199303,129.469046 170.221621,129.369272 170.247877,129.27081 C170.385723,129.287877 170.523569,129.312821 170.666667,129.312821" fill="#44D860"></path>
				<path d="M183.794872,32.4923077 C183.584821,32.4923077 183.361641,32.4660513 183.15159,32.4266667 C182.941538,32.3872821 182.730174,32.321641 182.534564,32.2428718 C182.337641,32.1641026 182.153846,32.0590769 181.968738,31.9409231 C181.798072,31.8227692 181.628718,31.678359 181.469867,31.5339487 C181.326769,31.3764103 181.182359,31.2188718 181.064205,31.0350769 C180.946051,30.8512821 180.841026,30.6674872 180.760944,30.4705641 C180.683487,30.273641 180.617846,30.0635897 180.578462,29.8535385 C180.539077,29.6434872 180.512821,29.4203077 180.512821,29.2102564 C180.512821,29.0002051 180.539077,28.7770256 180.578462,28.5669744 C180.617846,28.3569231 180.683487,28.16 180.760944,27.9499487 C180.841026,27.7530256 180.946051,27.5692308 181.064205,27.3854359 C181.182359,27.2147692 181.326769,27.0441026 181.469867,26.8865641 C181.628718,26.7421538 181.798072,26.5977436 181.968738,26.4795897 C182.153846,26.3614359 182.337641,26.2564103 182.534564,26.177641 C182.730174,26.0988718 182.941538,26.0332308 183.15159,25.9938462 C183.571692,25.9019487 184.004923,25.9019487 184.438154,25.9938462 C184.646892,26.0332308 184.858256,26.0988718 185.055179,26.177641 C185.25079,26.2564103 185.435897,26.3614359 185.619692,26.4795897 C185.790359,26.5977436 185.959713,26.7421538 186.118564,26.8865641 C186.262974,27.0441026 186.407385,27.2147692 186.525538,27.3854359 C186.643692,27.5692308 186.748718,27.7530256 186.827487,27.9499487 C186.906256,28.16 186.971897,28.3569231 187.011282,28.5669744 C187.049354,28.7770256 187.076923,29.0002051 187.076923,29.2102564 C187.076923,30.0767179 186.721149,30.9300513 186.118564,31.5339487 C185.959713,31.678359 185.790359,31.8227692 185.619692,31.9409231 C185.435897,32.0590769 185.25079,32.1641026 185.055179,32.2428718 C184.858256,32.321641 184.646892,32.3872821 184.438154,32.4266667 C184.228103,32.4660513 184.004923,32.4923077 183.794872,32.4923077" fill="#000000"></path>
				<path d="M210.051282,30.8512821 C209.184821,30.8512821 208.344615,30.4968205 207.726277,29.8929231 C207.583179,29.7353846 207.438769,29.5647179 207.320615,29.3940513 C207.202462,29.2102564 207.097436,29.0264615 207.017354,28.8295385 C206.939897,28.6326154 206.874256,28.4225641 206.834872,28.2125128 C206.795487,28.0024615 206.769231,27.7792821 206.769231,27.5692308 C206.769231,26.7027692 207.123692,25.8625641 207.726277,25.2455385 C207.885128,25.1011282 208.054482,24.9567179 208.225149,24.8385641 C208.410256,24.7204103 208.594051,24.6153846 208.790974,24.5366154 C208.986585,24.4578462 209.197949,24.3922051 209.408,24.3528205 C209.828103,24.2609231 210.274462,24.2609231 210.694564,24.3528205 C210.903303,24.3922051 211.114667,24.4578462 211.31159,24.5366154 C211.5072,24.6153846 211.692308,24.7204103 211.876103,24.8385641 C212.046769,24.9567179 212.216123,25.1011282 212.374974,25.2455385 C212.977559,25.8625641 213.333333,26.7027692 213.333333,27.5692308 C213.333333,27.7792821 213.305764,28.0024615 213.267692,28.2125128 C213.228308,28.4225641 213.162667,28.6326154 213.083897,28.8295385 C212.992,29.0264615 212.900103,29.2102564 212.781949,29.3940513 C212.663795,29.5647179 212.519385,29.7353846 212.374974,29.8929231 C212.216123,30.0373333 212.046769,30.1817436 211.876103,30.2998974 C211.692308,30.4180513 211.5072,30.5230769 211.31159,30.6018462 C211.114667,30.6806154 210.903303,30.7462564 210.694564,30.785641 C210.484513,30.8250256 210.261333,30.8512821 210.051282,30.8512821" fill="#000000"></path>
		</g>
</svg>
