<?xml version="1.0" encoding="UTF-8"?>
<svg width="512px" height="147px" viewBox="0 0 512 147" version="1.1" xmlns="http://www.w3.org/2000/svg" xmlns:xlink="http://www.w3.org/1999/xlink" preserveAspectRatio="xMidYMid">
    <defs>
        <linearGradient x1="50%" y1="95.3158867%" x2="50%" y2="14.5198648%" id="linearGradient-1">
            <stop stop-color="#FFFA8F" offset="0%"></stop>
            <stop stop-color="#FB784B" offset="100%"></stop>
        </linearGradient>
        <linearGradient x1="57.4158585%" y1="48.6362007%" x2="68.3114661%" y2="19.7325573%" id="linearGradient-2">
            <stop stop-color="#5BCB99" offset="0%"></stop>
            <stop stop-color="#85A8E8" offset="100%"></stop>
        </linearGradient>
        <linearGradient x1="9.85614077%" y1="88.6828183%" x2="151.349423%" y2="-41.4538244%" id="linearGradient-3">
            <stop stop-color="#34E28B" offset="0%"></stop>
            <stop stop-color="#000000" offset="100%"></stop>
        </linearGradient>
        <linearGradient x1="0.00029640403%" y1="50.0934579%" x2="100%" y2="50.0934579%" id="linearGradient-4">
            <stop stop-color="#C297FF" offset="0%"></stop>
            <stop stop-color="#AE31BB" offset="100%"></stop>
        </linearGradient>
        <linearGradient x1="-63.3906838%" y1="194.889303%" x2="115.247554%" y2="3.93130561%" id="linearGradient-5">
            <stop stop-color="#000000" offset="0%"></stop>
            <stop stop-color="#D23DE2" offset="100%"></stop>
        </linearGradient>
        <linearGradient x1="68.7499819%" y1="-12.4353404%" x2="61.5187036%" y2="21.0221395%" id="linearGradient-6">
            <stop stop-color="#000000" offset="0%"></stop>
            <stop stop-color="#000000" stop-opacity="0" offset="100%"></stop>
        </linearGradient>
        <linearGradient x1="24.8314345%" y1="47.344334%" x2="190.586495%" y2="93.6656212%" id="linearGradient-7">
            <stop stop-color="#2DB5F9" offset="0%"></stop>
            <stop stop-color="#000000" offset="100%"></stop>
        </linearGradient>
        <linearGradient x1="97.218685%" y1="-45.3425453%" x2="21.8179137%" y2="94.7216551%" id="linearGradient-8">
            <stop stop-color="#000000" offset="0%"></stop>
            <stop stop-color="#48080A" offset="21%"></stop>
            <stop stop-color="#891014" offset="42%"></stop>
            <stop stop-color="#BC151B" offset="61%"></stop>
            <stop stop-color="#E01A21" offset="78%"></stop>
            <stop stop-color="#F71C24" offset="91%"></stop>
            <stop stop-color="#FF1D25" offset="100%"></stop>
        </linearGradient>
    </defs>
    <g>
				<path d="M404.491907,37.5941556 L404.523093,32.4329505 L413.676046,32.4329505 L413.676046,37.5941556 L413.676046,117.99045 C413.676046,128.094562 409.341258,133.44288 401.201834,133.44288 C400.414289,133.434963 399.629978,133.340846 398.86292,133.16221 L398.86292,128.14134 C399.504807,128.308215 400.164448,128.397214 400.827608,128.406417 C405.427474,128.406417 408.28095,126.488507 408.28095,116.945735 L408.28095,37.5941556 L404.491907,37.5941556 Z M253.257684,32.4485433 C277.972215,32.4485433 292.754156,46.5288097 292.754156,70.6664094 C292.754156,94.8040091 278.362035,108.650384 253.273276,108.650384 L228.012998,108.650384 L228.012998,103.535958 L232.051524,103.535958 L232.051524,37.5629701 L227.981812,37.5629701 L227.981812,32.4485433 L253.257684,32.4485433 Z M253.382426,103.535958 C282.9619,103.535958 287.374653,83.0626573 287.374653,70.6820022 C287.374653,58.301347 283.008678,37.5629701 253.382426,37.5629701 L237.415435,37.5629701 L237.415435,103.535958 L253.382426,103.535958 Z M348.623032,30.6865608 C370.78035,30.6865608 386.856491,47.43319 386.856491,70.5416673 C386.856491,93.6501444 370.78035,110.396774 348.623032,110.396774 C326.465713,110.396774 310.389573,93.6345517 310.389573,70.5416673 C310.389573,47.4487828 326.465713,30.6865608 348.623032,30.6865608 Z M348.623032,105.282347 C367.989246,105.282347 381.49258,91.0617456 381.49258,70.6040383 C381.49258,50.1463312 367.95806,35.8633587 348.623032,35.8633587 C329.288004,35.8633587 315.753484,50.08396 315.753484,70.5416673 C315.753484,90.9993745 329.272411,105.282347 348.623032,105.282347 Z M473.287185,30.6865608 C495.444504,30.6865608 511.505051,47.4487828 511.505051,70.5416673 C511.505051,93.6345517 495.428912,110.396774 473.271593,110.396774 C451.114274,110.396774 435.038134,93.6345517 435.038134,70.5416673 C435.038134,47.4487828 451.145459,30.6865608 473.287185,30.6865608 Z M473.287185,105.282347 C492.637806,105.282347 506.156733,91.0617456 506.156733,70.6040383 C506.156733,50.1463312 492.622214,35.8633587 473.287185,35.8633587 C453.952157,35.8633587 440.417638,50.08396 440.417638,70.5416673 C440.417638,90.9993745 453.936565,105.282347 473.287185,105.282347 Z" fill="#000000"></path>
				<path d="M24.8548669,94.0867419 L25.3382426,94.8507873 C27.8341453,98.3919186 30.7446805,101.621775 34.0078197,104.471523 C41.5978963,110.687814 51.1101578,114.077178 60.9209315,114.061074 L62.7764705,114.061074 C69.5897204,113.506608 76.2674379,111.847712 82.5480961,109.149352 C79.7311003,109.601391 76.8866911,109.861868 74.0344465,109.928991 C64.2288501,109.921177 54.8879024,105.749492 48.3375704,98.452716 C40.3022791,98.5186854 32.3294909,97.0363609 24.8548669,94.0867419 Z" fill="url(#linearGradient-1)"></path>
				<path d="M60.9053387,28.9869494 C75.8072205,28.9739574 89.6276364,36.7656901 97.3300369,49.5226206 C88.4016935,41.4242495 75.9059889,38.5483478 64.335747,41.9289442 C72.1321293,45.6868004 82.750802,48.5558691 97.3768152,49.5538061 C97.3768152,49.5538061 96.6595481,35.6294672 78.8370181,28.3476461 C53.8885947,18.1967563 50.4425936,20.208223 44.127524,9.63632855 C43.1950332,17.0233924 45.2243723,24.4792512 49.7721047,30.3747055 C53.4057023,29.4229538 57.149287,28.9563165 60.9053387,28.9869494 Z" fill="#F15A24"></path>
				<path d="M78.8370181,28.3476461 C70.3077758,24.9484234 64.3045614,22.8278075 59.8138452,21.2061599 C60.9742074,24.0626511 62.5505276,26.7318865 64.4916746,29.1272843 C78.0966625,30.2502906 90.3352181,37.8370349 97.3924079,49.5226206 C92.0551134,44.6696925 85.3316882,41.6106157 78.1665292,40.7750795 C84.0924353,44.3107415 90.3616114,47.236357 96.8778467,49.5070277 L97.4235936,49.5070277 C97.4235936,49.5070277 96.6751408,35.6294672 78.8370181,28.3476461 Z" fill="#ED1C24"></path>
				<path d="M97.3456297,49.5538061 L97.4391863,49.5538061 C97.7198561,47.9945296 99.3882818,36.0036936 85.8225766,25.4785774 C65.5831681,9.77666344 61.6381987,8.31094356 60.6714472,0 C57.3872197,6.62622566 57.0754123,14.3363708 59.8138452,21.2061599 C64.2889687,22.7654363 70.3077758,24.8704596 78.8214253,28.3476461 C96.6751408,35.6294672 97.3768152,49.5538061 97.3768152,49.5538061 L97.3456297,49.5538061 Z" fill="#C1272D"></path>
				<path d="M158.76553,35.8633587 C166.360837,35.8540671 173.703696,38.5896425 179.441536,43.5661844 C186.074746,43.8536099 192.388251,46.4962154 197.248473,51.0195259 C197.248473,51.0195259 180.236767,26.3049939 150.25188,36.5806258 C147.565018,37.5491149 144.992435,38.809262 142.58024,40.3384821 C147.470955,37.4095853 153.064869,35.862906 158.76553,35.8633587 Z" fill="url(#linearGradient-2)"></path>
				<path d="M158.76553,35.8633587 C153.066227,35.857413 147.472212,37.3987314 142.58024,40.3228893 L143.453434,39.7927354 C119.222278,54.0601151 89.5180619,97.9069692 48.3375704,98.452716 C54.9019085,105.72061 64.2409453,109.863107 74.0344465,109.851027 C76.8866911,109.783905 79.7311003,109.523428 82.5480961,109.071389 C109.336466,98.0317114 135.064527,71.6487536 146.743508,58.8470938 C157.564887,46.9809999 169.430981,42.9424738 179.488314,43.5505916 C173.736076,38.5691042 166.374921,35.8384426 158.76553,35.8633587 Z" fill="url(#linearGradient-3)"></path>
				<path d="M96.2073579,120.843926 C95.6654715,122.613517 95.3767414,124.45089 95.3497558,126.301393 C95.3453902,128.443602 95.6714743,130.573669 96.3165073,132.616464 C95.6144347,127.445352 97.5457725,122.265855 101.462119,118.816866 L101.586862,118.349084 C102.952975,113.855997 105.92895,110.024985 109.944584,107.590076 C108.676388,107.997839 107.43219,108.476777 106.217913,109.024611 C101.395206,111.416959 97.77334,115.693243 96.2073579,120.843926 Z" fill="url(#linearGradient-4)"></path>
				<path d="M204.639443,74.1435959 C204.649173,65.8266463 202.047603,57.7165122 197.201695,50.9571549 C192.343752,46.4679487 186.050068,43.8488032 179.441536,43.5661844 C186.390016,49.5756202 190.375145,58.3144382 190.356471,67.5010781 C190.356471,78.1197509 186.505058,90.2665146 174.015254,96.799883 C155.834089,106.31147 127.938634,101.789568 109.819842,107.714819 C105.813096,110.148811 102.843325,113.973433 101.477713,118.458233 L101.35297,118.926016 C106.654511,114.248187 117.117256,110.926928 137.528184,113.562105 C152.107419,115.433237 163.67725,115.947798 173.625434,113.094322 C183.242534,110.99583 191.693661,105.300384 197.248473,97.1741093 C202.046772,90.4524667 204.630279,82.402171 204.639443,74.1435959 Z" fill="url(#linearGradient-5)"></path>
				<path d="M204.639443,74.1435959 C204.649173,65.8266463 202.047603,57.7165122 197.201695,50.9571549 C192.343752,46.4679487 186.050068,43.8488032 179.441536,43.5661844 C186.390016,49.5756202 190.375145,58.3144382 190.356471,67.5010781 C190.356471,78.1197509 186.505058,90.2665146 174.015254,96.799883 C155.834089,106.31147 127.938634,101.789568 109.819842,107.714819 C105.813096,110.148811 102.843325,113.973433 101.477713,118.458233 L101.35297,118.926016 C106.654511,114.248187 117.117256,110.926928 137.528184,113.562105 C152.107419,115.433237 163.67725,115.947798 173.625434,113.094322 C183.242534,110.99583 191.693661,105.300384 197.248473,97.1741093 C202.046772,90.4524667 204.630279,82.402171 204.639443,74.1435959 Z" fill="url(#linearGradient-6)" opacity="0.49"></path>
				<path d="M114.310558,142.283977 C104.356044,139.234008 98.6626371,128.789168 101.493305,118.770089 C97.576958,122.219077 95.6456203,127.398573 96.3476928,132.569685 C98.3532524,138.846719 103.378824,143.695842 109.723502,145.475869 C116.068179,147.255894 122.882692,145.728556 127.86067,141.410783 C123.604072,143.354446 118.781419,143.665226 114.310558,142.283977 Z" fill="url(#linearGradient-7)"></path>
				<path d="M120.953075,140.896221 C122.933356,135.111305 129.357576,126.192244 136.233985,130.277548 C136.233985,130.277548 141.831787,133.396101 143.001244,124.555004 C143.001244,124.555004 147.195699,145.418123 126.987475,144.716448 C126.987475,144.716448 131.540562,141.395189 131.493784,137.980374 C128.263445,139.78004 124.649067,140.779875 120.953075,140.896221 Z" fill="#2DB5F9" style="mix-blend-mode: screen;"></path>
				<path d="M129.030128,128.125748 C131.282683,126.604477 134.190334,126.448603 136.592618,127.720335 C139.446095,128.98335 143.03243,124.040442 139.92947,119.612097 C139.92947,119.612097 140.132176,124.180778 136.452283,124.133999 C133.433907,124.004954 130.586481,125.536343 129.030128,128.125748 Z" fill="#5FD2FF" style="mix-blend-mode: screen;"></path>
				<path d="M149.331907,61.747348 C144.49815,68.3430875 137.38785,73.8629261 136.561433,75.2194967 C135.735016,76.5760672 137.964781,80.9420413 141.239262,81.2538966 C144.513742,81.5657519 142.003307,79.9908827 141.722638,78.447199 C141.441968,76.9035153 142.704982,79.4295431 146.665544,78.8370181 C150.626107,78.244493 145.23101,76.7787731 145.605236,74.7828993 C145.979463,72.7870254 150.049174,68.9979836 151.670822,65.193349 C153.292469,61.3887144 156.067981,65.193349 154.64904,68.1715671 C154.087701,69.3566171 159.155348,64.8503082 156.598136,61.4198999 C154.040922,57.9894917 152.154197,57.8959351 149.331907,61.747348 Z" fill="#219058"></path>
				<path d="M135.532311,76.1706553 C134.815044,76.8567369 132.725613,78.3848279 132.725613,78.3848279 C132.725613,78.3848279 134.783858,81.2383039 137.403442,81.1915255 C137.403442,81.1915255 137.964781,80.9264486 137.153958,80.0844392 C136.250819,78.9614329 135.688096,77.603322 135.532311,76.1706553 Z" fill="#219058"></path>
				<path d="M64.335747,41.9289442 C58.6361487,39.33286 53.645976,35.4016949 49.7876975,30.4682621 C36.7854398,33.9876983 26.2185559,43.4576499 21.3007695,55.9980054 C16.3829829,68.5383609 17.6955487,82.6669202 24.8392741,94.0867419 C32.3187692,97.038331 40.2970415,98.5206908 48.3375704,98.452716 C40.331282,89.5992028 37.4436981,77.2491 40.6945018,65.7635604 C43.9453057,54.2780206 52.8770691,45.2732007 64.335747,41.9289442 Z" fill="url(#linearGradient-8)"></path>
				<path d="M64.4137107,29.1272843 C66.3004352,31.8560182 71.7267173,36.5650331 78.1197509,40.7750795 C85.2794169,41.6137623 91.9969455,44.6726369 97.3300369,49.5226206 C90.2696991,37.8328032 78.0243646,30.2454524 64.4137107,29.1272843 Z" fill="#F7B852"></path>
				<path d="M64.4137107,29.1272843 C63.2598462,29.0337278 62.0903888,28.9869494 60.9209315,28.9869494 C57.157239,29.0122364 53.4135227,29.5365664 49.7876975,30.5462259 C53.645976,35.4796588 58.6361487,39.4108239 64.335747,42.0069079 C68.8058768,40.697708 73.4954137,40.3104498 78.1197509,40.8686362 C71.7267173,36.5650331 66.3004352,31.8560182 64.4137107,29.1272843 Z" fill="#FF8431"></path>
				<path d="M88.0211564,38.8103912 C84.7473943,35.7376118 80.8487174,33.4079795 76.59166,31.9807603 C79.3359865,37.2043364 81.7060868,38.8103912 88.0211564,38.8103912 Z" fill="#FFFB69"></path>
				<path d="M75.9835422,16.5907016 C78.1146156,17.8893213 80.1613592,19.321521 82.1114986,20.8787118 C82.5948743,21.2529382 81.2383039,17.557453 79.6634345,16.8557785 C78.4824105,16.4407446 77.2118575,16.3492218 75.9835422,16.5907016 Z" fill="#C1272D"></path>
				<path d="M83.5460329,21.9390198 C85.6533686,23.2735175 87.6836603,24.725957 89.6272112,26.2894012 C90.1261797,26.6480347 88.7852019,22.9525496 87.2103327,22.2352824 C86.0369357,21.8126264 84.7720894,21.7103623 83.5460329,21.9390198 Z" fill="#C1272D"></path>
				<path d="M90.6563337,27.1781888 C91.9455,28.3847892 93.0536312,29.7712662 93.946407,31.2946786 C94.1958913,31.6533123 93.946407,28.8778002 93.088805,28.0825692 C92.373003,27.5698388 91.5332349,27.2576174 90.6563337,27.1781888 Z" fill="#C1272D"></path>
				<path d="M57.8803423,94.6013032 C57.6932292,93.9931853 60.0789221,93.2135471 60.7182256,93.1823615 C61.8820608,93.3725883 63.0083452,93.7462621 64.0550772,94.2894479 C62.5856257,94.8449524 61.0394399,95.1710188 59.4708044,95.2561993 C58.9009741,95.1505482 58.3593489,94.927526 57.8803423,94.6013032 Z" fill="#44C688"></path>
				<path d="M66.4719557,92.5586509 C66.2692497,92.090868 68.109196,91.2644515 68.6237572,91.1864877 C69.5700937,91.2420149 70.5016367,91.4472701 71.3836765,91.7946054 C70.2544665,92.360839 69.0448782,92.7500109 67.7973407,92.9484701 C67.333273,92.9119574 66.8818952,92.7791993 66.4719557,92.5586509 Z" fill="#44C688"></path>
				<path d="M73.675813,89.9234737 C73.4731071,89.5492474 74.9076414,88.7228309 75.3130532,88.5980887 C76.0958088,88.5580573 76.8799651,88.642262 77.6363751,88.847573 C76.7759763,89.4123911 75.8349136,89.8434924 74.8452703,90.1261797 C74.4453952,90.1437259 74.0464557,90.0745764 73.675813,89.9234737 Z" fill="#44C688"></path>
				<path d="M79.3983576,87.3194821 C79.1800589,86.992034 80.4430728,86.1344319 80.8017064,85.994097 C81.5093061,85.8812626 82.2303155,85.8812626 82.9379152,85.994097 C82.175392,86.5719935 81.3287347,87.029504 80.42748,87.3506676 C80.0859041,87.4105907 79.7356784,87.3999779 79.3983576,87.3194821 Z" fill="#44C688"></path>
				<path d="M84.7310831,84.403635 C84.5283772,84.138558 85.5730923,83.3277343 85.8849476,83.1873994 C86.4996019,83.089692 87.1258324,83.089692 87.7404866,83.1873994 C87.1101048,83.7293248 86.4001328,84.1710853 85.6354635,84.4971917 C85.3307773,84.5289026 85.0228257,84.4970456 84.7310831,84.403635 Z" fill="#44C688"></path>
				<path d="M49.2575435,95.2873848 C49.1639869,94.6013032 51.8147569,94.1958913 52.5008386,94.273855 C53.6983764,94.6760971 54.8246219,95.265534 55.8376902,96.0202447 C54.1918909,96.3592815 52.5037688,96.4434248 50.8324128,96.2697289 C50.2445719,96.0559428 49.7080775,95.7212978 49.2575435,95.2873848 Z" fill="#44C688"></path>
				<path d="M50.8947838,14.8754975 C52.7004351,16.4755205 54.8268582,17.6716334 57.1318897,18.3838695 C56.3642658,16.1022992 56.0672166,13.6887753 56.2586949,11.2891616 C56.2586949,11.1176412 50.879191,11.195605 50.021589,6.78285262 C49.7876975,5.89406504 49.023652,12.7548815 50.8947838,14.8754975 Z" fill="#C1272D"></path>
				<path d="M32.5888782,116.820993 C32.7420452,115.365734 33.5075576,114.044516 34.6939013,113.187879 L34.8654217,113.094322 C34.4227798,112.993196 33.9751843,112.915126 33.524444,112.860431 C27.1158177,111.909272 25.4785774,115.729499 25.1511294,120.017509 C25.1511294,120.266993 25.1511294,120.516478 25.1511294,120.75037 C26.6431829,118.116945 29.5245702,116.585068 32.5420998,116.820993 L32.5888782,116.820993 Z" fill="#F15A24"></path>
				<path d="M40.4008532,115.386458 C34.0234125,111.519452 30.4370766,111.238783 29.018135,122.075754 C29.018135,122.075754 35.7230238,116.774215 38.9039478,120.282587 C42.3499487,124.102814 47.0277782,120.578849 44.5797142,118.364676 C43.3399909,117.17281 41.9320296,116.169375 40.4008532,115.386458 Z" fill="#F15A24"></path>
				<path d="M37.765676,116.680658 C34.1481546,119.081944 34.1481546,124.742117 34.1481546,124.742117 C34.1481546,124.742117 40.743894,121.171374 40.2293328,118.941609 C40.0150884,117.716893 39.0042418,116.789217 37.765676,116.680658 Z" fill="#F15A24"></path>
				<path d="M7.79638233,72.1321293 C9.02527276,71.3393007 10.5334694,71.1068342 11.9440577,71.4928259 L12.1311709,71.4928259 C11.9334242,71.0867956 11.7148341,70.6912518 11.4762748,70.3077758 C8.13942315,64.7723444 4.1476754,65.8950234 0.592525057,68.3119019 C0.374226352,68.4522368 0.187113175,68.6081644 0,68.7640921 C2.98676229,68.281028 5.98331419,69.569606 7.68723297,72.0697582 L7.79638233,72.1321293 Z" fill="#F15A24"></path>
				<path d="M14.5636422,78.7902398 C12.2403203,69.5905087 10.3691885,66.0353583 1.48131264,72.3972063 C1.48131264,72.3972063 9.09058179,70.2142192 9.96377661,81.0355979 C10.3691885,86.1500247 15.2965021,87.1791472 15.2341311,83.8734811 C15.2603548,82.1553998 15.0344546,80.4427611 14.5636422,78.7902398 Z" fill="#F15A24"></path>
				<path d="M11.3203472,73.8629261 C7.09470791,72.8649892 2.94703252,76.7319949 2.94703252,76.7319949 C2.94703252,76.7319949 9.44921538,76.5136961 10.2288536,80.4430728 C10.6810438,82.6416527 11.3203472,73.8629261 11.3203472,73.8629261 Z" fill="#F15A24"></path>
				<path d="M146.743508,58.8626866 C150.830403,54.1155737 155.743493,50.1481219 161.244779,47.1525203 C166.611187,44.402073 172.538827,42.9241647 178.56834,42.8333245 L180.299138,44.392601 L179.394757,44.392601 C173.243159,43.9917222 167.093672,45.2065683 161.556634,47.9165657 C156.000774,50.6446615 150.98269,54.3527607 146.743508,58.8626866 Z" fill="#29B36E"></path>
				<path d="M179.223236,42.8956956 C182.598828,43.2135091 185.903354,44.0606886 189.015493,45.4061306 C192.105549,46.7200248 194.907953,48.6271424 197.264065,51.0195259 C194.7562,48.8111901 191.836294,47.1207184 188.672452,46.045434 C185.928779,45.1783284 183.101203,44.6034053 180.236767,44.3302299 L178.505969,42.7709534 L179.223236,42.8956956 Z" fill="#6FD191"></path>
				<path d="M101.867531,117.553852 C102.798965,116.89729 103.773067,116.303452 104.783378,115.776278 C105.489269,115.418083 106.212638,115.095429 106.950772,114.809526 C107.683633,114.497671 108.51005,114.263779 109.180538,114.014295 C112.178912,113.09573 115.269304,112.510072 118.395862,112.267905 C124.600033,111.866663 130.82912,112.112272 136.982438,113.000766 C143.086949,113.899906 149.233239,114.487993 155.397493,114.762748 C161.571,115.077451 167.756879,114.467797 173.750177,112.953987 C167.773831,114.580803 161.58806,115.306068 155.397493,115.105789 C149.213082,114.946667 143.040767,114.473074 136.904474,113.686847 C130.799242,112.940335 124.63294,112.830595 118.505011,113.359399 C115.469528,113.633214 112.473326,114.239775 109.570358,115.16816 C108.85309,115.417644 108.135823,115.651535 107.449741,115.963391 C106.753072,116.251175 106.071327,116.573833 105.407089,116.930142 C104.090141,117.632361 102.855842,118.479635 101.727197,119.45617 L101.228228,119.892768 C101.386189,119.099095 101.599818,118.317526 101.867531,117.553852 Z" fill="#C83AD7"></path>
				<path d="M65.4896115,44.6732707 C59.5331754,45.983063 60.4531486,50.7076706 60.4531486,50.7076706 C60.4531486,50.7076706 62.3398731,48.431127 72.7090616,47.1992986 C70.2404656,46.546589 67.8266377,45.7020099 65.4896115,44.6732707 Z" fill="#C1272D"></path>
				<path d="M96.3165073,132.647648 C96.1196644,131.336361 96.0934585,130.005104 96.2385434,128.687087 C96.3708071,127.343343 96.6586003,126.019495 97.0961455,124.742117 C97.5355538,123.457642 98.1215509,122.228095 98.8425351,121.077817 C99.5937696,119.946121 100.467,118.900336 101.446527,117.959264 L101.867531,117.569446 C101.867531,117.569446 101.275007,119.45617 101.212635,119.923952 C100.653499,120.491773 100.132599,121.096017 99.6533589,121.732713 C98.0829396,123.797651 97.0152001,126.200065 96.5348059,128.749458 C96.2946254,130.034051 96.221253,131.344272 96.3165073,132.647648 Z" fill="#FBA9FF"></path>
				<path d="M46.9654071,98.452716 C43.2861072,94.077614 40.7326754,88.8690414 39.5276584,83.280956 C38.8887907,80.3639748 38.6319554,77.3762995 38.7636129,74.3930802 L38.888355,72.1633148 L39.2002103,69.9491422 C39.3079237,69.2144244 39.4536517,68.4857844 39.6368077,67.7661552 C39.7803646,67.0382261 39.96782,66.3196469 40.1981473,65.6143536 C41.0285604,62.769385 42.2346345,60.0478526 43.7844832,57.5217088 C44.5475643,56.2563569 45.3858824,55.0379319 46.2949183,53.8730019 L47.7294526,52.1889833 C48.1972355,51.6276437 48.7585751,51.1286753 49.288729,50.6297068 C51.38853,48.5687716 53.740977,46.7821692 56.2898804,45.312574 C58.8399605,43.8713158 61.5510082,42.7356066 64.3669325,41.9289442 C61.5885157,42.8190189 58.9245947,44.0332226 56.4302153,45.5464655 C53.9584951,47.0735854 51.6899248,48.9073027 49.6785482,51.0039332 C49.1951724,51.5340872 48.6650185,52.0330557 48.2128283,52.5632096 L46.778294,54.2940065 C45.9211951,55.4620607 45.1349468,56.6804853 44.4237865,57.9427135 C42.9868229,60.4468829 41.8908333,63.1317953 41.1648987,65.9262089 C40.9607655,66.6173087 40.7993355,67.3203106 40.681523,68.0312322 C40.5401315,68.7373315 40.4360355,69.4503892 40.3696677,70.1674409 L40.1357762,72.3036497 L40.1357762,74.4554512 C40.0983299,77.3194353 40.4337931,80.1761136 41.1337132,82.953508 C42.5263863,88.497527 45.2996594,93.5988475 49.1951724,97.7822271 L49.818883,98.452716 C49.818883,98.452716 47.4799683,98.4994943 46.9654071,98.452716 Z" fill="#FF737D"></path>
				<path d="M82.5480961,109.149352 C79.4762624,109.835316 76.339873,110.190773 73.1924373,110.20966 C70.0172457,110.120249 66.8693364,109.595597 63.8367785,108.650384 C60.8018839,107.749152 57.874017,106.520493 55.1048302,104.986084 C52.2971419,103.449724 49.732824,101.505467 47.4955612,99.2167614 L46.840665,98.5306798 L49.6161771,98.5306798 C51.4650311,100.507232 53.5614043,102.23674 55.8532829,103.676292 C58.5131034,105.286368 61.342024,106.598862 64.2889687,107.590076 C67.1853965,108.645861 70.2123091,109.301605 73.2859938,109.539172 C76.37853,109.730334 79.4825592,109.599693 82.5480961,109.149352 Z" fill="#FFF4C0"></path>
		</g>
</svg>
