<?xml version="1.0" encoding="UTF-8"?>
<svg width="256px" height="183px" viewBox="0 0 256 183" version="1.1" xmlns="http://www.w3.org/2000/svg" xmlns:xlink="http://www.w3.org/1999/xlink" preserveAspectRatio="xMidYMid">
    <defs>
        <linearGradient x1="50%" y1="95.3158867%" x2="50%" y2="14.5198648%" id="linearGradient-1">
            <stop stop-color="#FFFA8F" offset="0%"></stop>
            <stop stop-color="#FB784B" offset="100%"></stop>
        </linearGradient>
        <linearGradient x1="57.4158585%" y1="48.6362007%" x2="68.3114661%" y2="19.7325573%" id="linearGradient-2">
            <stop stop-color="#5BCB99" offset="0%"></stop>
            <stop stop-color="#85A8E8" offset="100%"></stop>
        </linearGradient>
        <linearGradient x1="9.85614077%" y1="88.6828183%" x2="151.349423%" y2="-41.4538244%" id="linearGradient-3">
            <stop stop-color="#34E28B" offset="0%"></stop>
            <stop stop-color="#000000" offset="100%"></stop>
        </linearGradient>
        <linearGradient x1="0.00029640403%" y1="50.0934579%" x2="100%" y2="50.0934579%" id="linearGradient-4">
            <stop stop-color="#C297FF" offset="0%"></stop>
            <stop stop-color="#AE31BB" offset="100%"></stop>
        </linearGradient>
        <linearGradient x1="-63.3906838%" y1="194.889303%" x2="115.247554%" y2="3.93130561%" id="linearGradient-5">
            <stop stop-color="#000000" offset="0%"></stop>
            <stop stop-color="#D23DE2" offset="100%"></stop>
        </linearGradient>
        <linearGradient x1="68.7499819%" y1="-12.4353404%" x2="61.5187036%" y2="21.0221395%" id="linearGradient-6">
            <stop stop-color="#000000" offset="0%"></stop>
            <stop stop-color="#000000" stop-opacity="0" offset="100%"></stop>
        </linearGradient>
        <linearGradient x1="24.8314345%" y1="47.344334%" x2="190.586495%" y2="93.6656212%" id="linearGradient-7">
            <stop stop-color="#2DB5F9" offset="0%"></stop>
            <stop stop-color="#000000" offset="100%"></stop>
        </linearGradient>
        <linearGradient x1="97.218685%" y1="-45.3425453%" x2="21.8179137%" y2="94.7216551%" id="linearGradient-8">
            <stop stop-color="#000000" offset="0%"></stop>
            <stop stop-color="#48080A" offset="21%"></stop>
            <stop stop-color="#891014" offset="42%"></stop>
            <stop stop-color="#BC151B" offset="61%"></stop>
            <stop stop-color="#E01A21" offset="78%"></stop>
            <stop stop-color="#F71C24" offset="91%"></stop>
            <stop stop-color="#FF1D25" offset="100%"></stop>
        </linearGradient>
    </defs>
    <g>
				<path d="M31.0351705,117.481944 L31.6387403,118.435974 C34.7552634,122.857628 38.3895199,126.890606 42.464057,130.44896 C51.9414492,138.210968 63.8189886,142.443115 76.0692668,142.423007 L78.3861961,142.423007 C86.8935993,141.73067 95.2317692,139.659279 103.074148,136.289959 C99.5566908,136.854399 96.0050031,137.179645 92.4435317,137.263458 C80.1997181,137.253701 68.5360908,132.044703 60.3569816,122.933542 C50.3236695,123.015916 40.3684024,121.165003 31.0351705,117.481944 Z" fill="url(#linearGradient-1)"></path>
				<path d="M76.0497968,36.1947189 C94.6571161,36.1784963 111.914056,45.9076875 121.531703,61.8367011 C110.383276,51.7246243 94.7804437,48.1336132 80.3331954,52.354814 C90.0681925,57.0470826 103.327258,60.6295615 121.590113,61.8756411 C121.590113,61.8756411 120.694493,44.4889364 98.44029,35.3964492 C67.2882994,22.7214831 62.9854307,25.2331123 55.1000832,12.0324563 C53.9357233,21.2563555 56.469669,30.566156 62.148221,37.9275484 C66.6853333,36.7391383 71.3597815,36.1564689 76.0497968,36.1947189 Z" fill="#F15A24"></path>
				<path d="M98.44029,35.3964492 C87.7902032,31.1519905 80.2942555,28.5040713 74.6868972,26.4791919 C76.1357901,30.0459658 78.1040713,33.3789218 80.5278954,36.3699489 C97.5158409,37.7721969 112.797583,47.2454284 121.609582,61.8367011 C114.945139,55.7770651 106.549897,51.9573315 97.6030802,50.9140344 C105.002497,55.3288588 112.830539,58.9819452 120.967073,61.8172312 L121.648523,61.8172312 C121.648523,61.8172312 120.713963,44.4889364 98.44029,35.3964492 Z" fill="#ED1C24"></path>
				<path d="M121.551173,61.8756411 L121.667993,61.8756411 C122.018453,59.9286418 124.101742,44.9562163 107.162847,31.8139703 C81.890795,12.2076863 76.9648865,10.3775068 75.7577469,0 C71.6568775,8.27387426 71.2675375,17.9011907 74.6868972,26.4791919 C80.2747855,28.4261913 87.7902032,31.0546405 98.4208199,35.3964492 C120.713963,44.4889364 121.590113,61.8756411 121.590113,61.8756411 L121.551173,61.8756411 Z" fill="#C1272D"></path>
				<path d="M198.24348,44.7809863 C207.727402,44.7693842 216.896106,48.185176 224.060692,54.3991634 C232.343287,54.7580588 240.226681,58.0577631 246.295425,63.7058206 C246.295425,63.7058206 225.053661,32.84588 187.612863,45.676606 C184.257896,46.8859154 181.045626,48.4594054 178.033626,50.3688746 C184.140446,46.711691 191.125317,44.7804211 198.24348,44.7809863 Z" fill="url(#linearGradient-2)"></path>
				<path d="M198.24348,44.7809863 C191.127013,44.7735622 184.142014,46.6981382 178.033626,50.3494047 L179.123945,49.6874248 C148.867575,67.5024694 111.777236,122.252092 60.3569816,122.933542 C68.5535795,132.008639 80.2148208,137.181192 92.4435317,137.166108 C96.0050031,137.082296 99.5566908,136.757049 103.074148,136.192608 C136.523598,122.407853 168.649089,89.4646227 183.232114,73.4797576 C196.74429,58.6630921 211.560955,53.6203636 224.119101,54.3796934 C216.936537,48.1595308 207.744989,44.7498746 198.24348,44.7809863 Z" fill="url(#linearGradient-3)"></path>
				<path d="M120.129863,150.892454 C119.453234,153.102063 119.09271,155.39631 119.059013,157.706952 C119.053563,160.381834 119.460729,163.041552 120.266154,165.5923 C119.389506,159.135362 121.801082,152.667954 126.691252,148.361355 L126.847011,147.777255 C128.552816,142.166938 132.268785,137.383322 137.282928,134.342959 C135.699389,134.852114 134.145814,135.450143 132.629599,136.134198 C126.607699,139.121418 122.085235,144.461025 120.129863,150.892454 Z" fill="url(#linearGradient-4)"></path>
				<path d="M255.524202,92.5798217 C255.536351,82.1948153 252.287887,72.0680505 246.237015,63.6279405 C240.171118,58.0224679 232.312473,54.7520569 224.060692,54.3991634 C232.736952,61.9028795 237.713005,72.8146541 237.689687,84.2856042 C237.689687,97.5446703 232.880599,112.711795 217.285134,120.869723 C194.58312,132.74642 159.751302,127.100121 137.127168,134.498719 C132.124124,137.537939 128.415902,142.313574 126.710722,147.913545 L126.554961,148.497645 C133.174759,142.656647 146.239126,138.509538 171.725347,141.799967 C189.929792,144.136366 204.376528,144.778875 216.798384,141.215866 C228.80683,138.595572 239.359377,131.483921 246.295425,121.337003 C252.286847,112.943985 255.512759,102.891939 255.524202,92.5798217 Z" fill="url(#linearGradient-5)"></path>
				<path d="M255.524202,92.5798217 C255.536351,82.1948153 252.287887,72.0680505 246.237015,63.6279405 C240.171118,58.0224679 232.312473,54.7520569 224.060692,54.3991634 C232.736952,61.9028795 237.713005,72.8146541 237.689687,84.2856042 C237.689687,97.5446703 232.880599,112.711795 217.285134,120.869723 C194.58312,132.74642 159.751302,127.100121 137.127168,134.498719 C132.124124,137.537939 128.415902,142.313574 126.710722,147.913545 L126.554961,148.497645 C133.174759,142.656647 146.239126,138.509538 171.725347,141.799967 C189.929792,144.136366 204.376528,144.778875 216.798384,141.215866 C228.80683,138.595572 239.359377,131.483921 246.295425,121.337003 C252.286847,112.943985 255.512759,102.891939 255.524202,92.5798217 Z" fill="url(#linearGradient-6)" opacity="0.49"></path>
				<path d="M142.734527,177.663696 C130.304767,173.855334 123.195662,160.813325 126.730192,148.302944 C121.840023,152.609544 119.428446,159.076952 120.305094,165.53389 C122.809347,173.371744 129.084555,179.426629 137.006872,181.649268 C144.929191,183.871908 153.438172,181.964789 159.653951,176.573376 C154.338926,179.000342 148.317093,179.3884 142.734527,177.663696 Z" fill="url(#linearGradient-7)"></path>
				<path d="M151.028744,175.930866 C153.501433,168.707499 161.52307,157.570662 170.109338,162.671801 C170.109338,162.671801 177.099066,166.5658 178.559315,155.526313 C178.559315,155.526313 183.796744,181.577165 158.563631,180.701015 C158.563631,180.701015 164.24887,176.553906 164.19046,172.289978 C160.156878,174.53714 155.643764,175.785589 151.028744,175.930866 Z" fill="#2DB5F9" style="mix-blend-mode: screen;"></path>
				<path d="M161.1142,159.984941 C163.926868,158.085399 167.557522,157.890766 170.557148,159.478722 C174.120157,161.055791 178.598255,154.883803 174.723727,149.354324 C174.723727,149.354324 174.976836,155.059032 170.381918,155.000623 C166.613005,154.83949 163.057551,156.751667 161.1142,159.984941 Z" fill="#5FD2FF" style="mix-blend-mode: screen;"></path>
				<path d="M186.464134,77.1011765 C180.428435,85.336984 171.550118,92.2293618 170.518208,93.9232513 C169.486298,95.6171409 172.270508,101.068739 176.359206,101.458139 C180.447905,101.847539 177.313236,99.8810695 176.962776,97.9535401 C176.612316,96.0260107 178.189385,99.1801498 183.134764,98.44029 C188.080143,97.7004302 181.343525,95.8702508 181.810804,93.3780915 C182.278085,90.8859323 187.359753,86.1547237 189.384632,81.4040452 C191.409511,76.6533666 194.87517,81.4040452 193.103401,85.122814 C192.402481,86.6025335 198.730229,80.9757052 195.53715,76.6923066 C192.344071,72.4089079 189.988202,72.292088 186.464134,77.1011765 Z" fill="#219058"></path>
				<path d="M169.233188,95.1109209 C168.337569,95.9676007 165.728589,97.8756601 165.728589,97.8756601 C165.728589,97.8756601 168.298629,101.438669 171.569588,101.380259 C171.569588,101.380259 172.270508,101.049269 171.258068,99.9978895 C170.130359,98.5956413 169.427711,96.8998284 169.233188,95.1109209 Z" fill="#219058"></path>
				<path d="M80.3331954,52.354814 C73.2163599,49.1131988 66.9853523,44.2045273 62.167691,38.0443684 C45.932348,42.4389323 32.7379486,54.2636411 26.5973266,69.9222272 C20.4567046,85.5808132 22.0956474,103.222519 31.0157006,117.481944 C40.3550146,121.167462 50.3171295,123.01842 60.3569816,122.933542 C50.3598842,111.878553 46.7542861,96.4575272 50.8134207,82.1160428 C54.8725553,67.7745584 66.0252523,56.5306389 80.3331954,52.354814 Z" fill="url(#linearGradient-8)"></path>
				<path d="M80.4305454,36.3699489 C82.7864147,39.7771979 89.5619727,45.6571361 97.5446703,50.9140344 C106.484628,51.9612604 114.872508,55.7807416 121.531703,61.8367011 C112.715772,47.2401444 97.4255657,37.7661558 80.4305454,36.3699489 Z" fill="#F7B852"></path>
				<path d="M80.4305454,36.3699489 C78.9897659,36.253129 77.5295164,36.1947189 76.0692668,36.1947189 C71.3697108,36.2262937 66.6950981,36.8810013 62.167691,38.1417184 C66.9853523,44.3018773 73.2163599,49.2105488 80.3331954,52.452164 C85.9148485,50.817424 91.7704655,50.3338719 97.5446703,51.0308545 C89.5619727,45.6571361 82.7864147,39.7771979 80.4305454,36.3699489 Z" fill="#FF8431"></path>
				<path d="M109.908117,48.4608153 C105.820315,44.6239718 100.95221,41.7150632 95.6366108,39.9329578 C99.0633297,46.4554058 102.022768,48.4608153 109.908117,48.4608153 Z" fill="#FFFB69"></path>
				<path d="M94.8772811,20.7160737 C97.538258,22.3376026 100.093936,24.1259268 102.528989,26.070322 C103.132559,26.5376019 101.438669,21.9232134 99.4721997,21.0470636 C97.9975072,20.528829 96.411024,20.4145485 94.8772811,20.7160737 Z" fill="#C1272D"></path>
				<path d="M104.320228,27.3942816 C106.951565,29.0606097 109.4867,30.8742065 111.913526,32.82641 C112.536566,33.2742198 110.862146,28.6598313 108.895677,27.7642116 C107.430508,27.2364597 105.85115,27.108767 104.320228,27.3942816 Z" fill="#C1272D"></path>
				<path d="M113.198546,33.9361997 C114.80827,35.4428281 116.191945,37.1740605 117.306714,39.0762781 C117.618234,39.524088 117.306714,36.058429 116.235864,35.0654593 C115.342074,34.4252358 114.293493,34.0353786 113.198546,33.9361997 Z" fill="#C1272D"></path>
				<path d="M72.2726179,118.124454 C72.0389781,117.365125 75.0178871,116.391625 75.8161569,116.352685 C77.2693863,116.590213 78.6757277,117.056802 79.9827356,117.735055 C78.1478966,118.428688 76.217243,118.835832 74.2585573,118.942194 C73.5470355,118.810272 72.8707322,118.531794 72.2726179,118.124454 Z" fill="#44C688"></path>
				<path d="M83.0005846,115.573884 C82.7474747,114.989785 85.0449341,113.957875 85.6874439,113.860526 C86.8690923,113.92986 88.0322687,114.186153 89.1336328,114.619855 C87.7236382,115.326886 86.2132789,115.812827 84.6555342,116.060635 C84.0760735,116.015043 83.512458,115.849273 83.0005846,115.573884 Z" fill="#44C688"></path>
				<path d="M91.9957219,112.283455 C91.742612,111.816176 93.5338514,110.784266 94.0400713,110.628507 C95.0174636,110.57852 95.9966046,110.683663 96.9411004,110.940026 C95.8667584,111.645289 94.6916951,112.183586 93.4559715,112.536566 C92.9566651,112.558475 92.458527,112.472131 91.9957219,112.283455 Z" fill="#44C688"></path>
				<path d="M99.1412098,109.031967 C98.8686298,108.623097 100.445699,107.552247 100.893509,107.377017 C101.777058,107.236126 102.67735,107.236126 103.560899,107.377017 C102.60877,108.098611 101.551586,108.669884 100.426229,109.070906 C99.9997186,109.145731 99.5624074,109.132479 99.1412098,109.031967 Z" fill="#44C688"></path>
				<path d="M105.799948,105.391078 C105.546837,105.060088 106.851327,104.047648 107.240727,103.872419 C108.008219,103.750415 108.790165,103.750415 109.557657,103.872419 C108.770527,104.549097 107.884016,105.100704 106.929207,105.507898 C106.548759,105.547494 106.164234,105.507716 105.799948,105.391078 Z" fill="#44C688"></path>
				<path d="M61.5057112,118.981134 C61.3888913,118.124454 64.6987902,117.618234 65.55547,117.715585 C67.0507825,118.217845 68.4570754,118.953849 69.7220488,119.896224 C67.6670122,120.319563 65.5591288,120.42463 63.4721806,120.207743 C62.7381699,119.940798 62.068273,119.522941 61.5057112,118.981134 Z" fill="#44C688"></path>
				<path d="M63.5500606,18.5743743 C65.8046974,20.5722522 68.4598676,22.0657854 71.3380582,22.9551229 C70.3795603,20.1062273 70.0086482,17.0925669 70.2477385,14.0962757 C70.2477385,13.8821058 63.5305906,13.9794557 62.459741,8.46944742 C62.167691,7.35965775 61.2136614,15.9264551 63.5500606,18.5743743 Z" fill="#C1272D"></path>
				<path d="M40.6922875,145.869196 C40.8835405,144.052078 41.839402,142.402332 43.3207368,141.332687 L43.5349067,141.215866 C42.9821993,141.089595 42.4233066,140.992113 41.8604872,140.923817 C33.8583197,139.736147 31.8139703,144.506296 31.4051004,149.860545 C31.4051004,150.172065 31.4051004,150.483585 31.4051004,150.775634 C33.2681615,147.487395 36.8660221,145.574608 40.6338776,145.869196 L40.6922875,145.869196 Z" fill="#F15A24"></path>
				<path d="M50.4467546,144.077957 C42.4835271,139.249398 38.0054284,138.898938 36.2336589,152.430584 C36.2336589,152.430584 44.6057564,145.810785 48.5776352,150.191534 C52.8805039,154.961683 58.7215021,150.561464 55.664713,147.796725 C54.1167257,146.308494 52.3586667,145.055549 50.4467546,144.077957 Z" fill="#F15A24"></path>
				<path d="M47.1563256,145.693965 C42.639287,148.692344 42.639287,155.759952 42.639287,155.759952 C42.639287,155.759952 50.8750944,151.301324 50.2325846,148.517115 C49.9650671,146.987866 48.7028678,145.829519 47.1563256,145.693965 Z" fill="#F15A24"></path>
				<path d="M9.73499703,90.0681925 C11.269458,89.0782226 13.1526763,88.787952 14.9140155,89.2699227 L15.1476553,89.2699227 C14.9007378,88.7629307 14.6277941,88.2690327 14.3299156,87.7902032 C10.1633369,80.8783553 5.17901842,82.2801949 0.739859774,85.298044 C0.467279857,85.4732739 0.233639929,85.6679738 0,85.8626738 C3.72943769,85.259493 7.47109921,86.8684834 9.59870707,89.9903126 L9.73499703,90.0681925 Z" fill="#F15A24"></path>
				<path d="M18.1849745,98.38188 C15.2839453,86.8945835 12.9475461,82.4554248 1.84964943,90.3991824 C1.84964943,90.3991824 11.3510066,87.6733833 12.4413262,101.185559 C12.9475461,107.571717 19.1000641,108.856737 19.0221842,104.729098 C19.0549286,102.583806 18.7728571,100.44531 18.1849745,98.38188 Z" fill="#F15A24"></path>
				<path d="M14.1352157,92.2293618 C8.85884729,90.9832822 3.67982888,95.8118408 3.67982888,95.8118408 C3.67982888,95.8118408 11.7988164,95.5392608 12.7723161,100.445699 C13.3369459,103.190969 14.1352157,92.2293618 14.1352157,92.2293618 Z" fill="#F15A24"></path>
				<path d="M183.232114,73.4992276 C188.335239,67.5717181 194.469995,62.6177368 201.339208,58.877262 C208.040004,55.4429003 215.441585,53.5975017 222.970372,53.4840737 L225.131541,55.4310731 L224.002282,55.4310731 C216.321053,54.9305136 208.642462,56.4474381 201.728608,59.8312918 C194.791251,63.2377439 188.525393,67.8678831 183.232114,73.4992276 Z" fill="#29B36E"></path>
				<path d="M223.788111,53.5619537 C228.003063,53.9587933 232.129278,55.0166289 236.015268,56.6966227 C239.873685,58.3372242 243.372921,60.7185573 246.314895,63.7058206 C243.183434,60.9483694 239.537478,58.8375523 235.586928,57.4948924 C232.161025,56.4121762 228.630355,55.6942951 225.053661,55.3531931 L222.892492,53.4061937 L223.788111,53.5619537 Z" fill="#6FD191"></path>
				<path d="M127.197471,146.784285 C128.360511,145.964465 129.576828,145.222966 130.83836,144.564706 C131.719773,144.117444 132.623013,143.71456 133.544689,143.357566 C134.459779,142.968166 135.491688,142.676117 136.328899,142.364597 C140.072836,141.217625 143.931671,140.48634 147.835665,140.183958 C155.582539,139.682942 163.360522,139.989625 171.043898,141.099047 C178.66633,142.221764 186.340931,142.956082 194.037961,143.299156 C201.746546,143.692111 209.470578,142.930865 216.954144,141.040637 C209.491747,143.07197 201.767847,143.977575 194.037961,143.727497 C186.315761,143.528808 178.608666,142.937454 170.946548,141.955727 C163.323215,141.023589 155.623627,140.886562 147.971954,141.546856 C144.181682,141.888757 140.440458,142.646142 136.815648,143.805376 C135.920029,144.116896 135.024409,144.408945 134.167729,144.798346 C133.29783,145.157689 132.446563,145.560579 131.61716,146.005486 C129.972746,146.882315 128.431531,147.940268 127.022242,149.159625 L126.399202,149.704784 C126.59644,148.713761 126.863189,147.73785 127.197471,146.784285 Z" fill="#C83AD7"></path>
				<path d="M81.7739751,55.781533 C74.3364373,57.4170125 75.4851669,63.3164207 75.4851669,63.3164207 C75.4851669,63.3164207 77.8410362,60.4738016 90.7885823,58.935672 C87.706156,58.1206625 84.692116,57.0660741 81.7739751,55.781533 Z" fill="#C1272D"></path>
				<path d="M120.266154,165.631239 C120.020365,163.993893 119.987643,162.331612 120.168803,160.685861 C120.333956,159.007989 120.69331,157.354957 121.239653,155.759952 C121.788323,154.156085 122.520031,152.620804 123.420293,151.184503 C124.358326,149.771405 125.448689,148.46558 126.671782,147.290506 L127.197471,146.803755 C127.197471,146.803755 126.457611,149.159625 126.379732,149.743724 C125.681562,150.452736 125.031138,151.207228 124.432732,152.002244 C122.47182,154.58064 121.138581,157.580428 120.538733,160.763741 C120.238831,162.367755 120.147214,164.00377 120.266154,165.631239 Z" fill="#FBA9FF"></path>
				<path d="M58.6436221,122.933542 C54.0494433,117.470546 50.8610863,110.966833 49.356435,103.989238 C48.5587092,100.346933 48.2380103,96.6163554 48.4024052,92.8913416 L48.5581651,90.1071325 L48.947565,87.3423933 C49.082062,86.4249839 49.2640261,85.5151633 49.4927249,84.6165942 C49.671978,83.7076616 49.9060453,82.8104034 50.1936447,81.929735 C51.2305448,78.3773487 52.7365161,74.9790918 54.6717433,71.8248081 C55.6245689,70.2448193 56.6713395,68.7234259 57.8064124,67.2688295 L59.5976518,65.1660702 C60.1817517,64.4651503 60.8826714,63.8421105 61.5446512,63.2190707 C64.1665796,60.6456723 67.1039759,58.4148211 70.2866785,56.5798028 C73.4708505,54.7801674 76.8560156,53.3620576 80.3721355,52.354814 C76.9028496,53.466211 73.5765295,54.9823332 70.4619085,56.8718527 C67.3755811,58.7786995 64.542918,61.068381 62.0314011,63.6863506 C61.4278313,64.3483304 60.7658514,64.9713702 60.2012216,65.63335 L58.4099822,67.7945193 C57.3397609,69.2530168 56.3580075,70.7744095 55.470013,72.3504979 C53.6757404,75.4773433 52.3072267,78.8298744 51.4007843,82.3191349 C51.1458923,83.1820806 50.9443218,84.0598878 50.7972145,84.9475841 C50.6206653,85.829259 50.4906852,86.7196225 50.4078146,87.6149733 L50.1157647,90.2823625 L50.1157647,92.9692216 C50.0690072,96.5453517 50.4878851,100.112359 51.3618443,103.580369 C53.1008137,110.502939 56.5636768,116.872732 61.4278313,122.096333 L62.2066311,122.933542 C62.2066311,122.933542 59.286132,122.991952 58.6436221,122.933542 Z" fill="#FF737D"></path>
				<path d="M103.074148,136.289959 C99.238486,137.146491 95.3222156,137.590335 91.3921521,137.613918 C87.4274312,137.502273 83.4967764,136.847164 79.7101557,135.666919 C75.9206173,134.541589 72.2647197,133.007418 68.806959,131.09147 C65.3011229,129.173085 62.099173,126.745377 59.3056019,123.887572 L58.4878621,123.030892 L61.9535211,123.030892 C64.2621032,125.498925 66.8797514,127.658485 69.7415187,129.45599 C73.0627185,131.466421 76.5950664,133.105273 80.2747855,134.342959 C83.8914266,135.661271 87.6709982,136.480069 91.5089721,136.776708 C95.370485,137.015404 99.2463484,136.852279 103.074148,136.289959 Z" fill="#FFF4C0"></path>
		</g>
</svg>
