<?xml version="1.0" encoding="UTF-8"?>
<svg width="512px" height="174.06729px" viewBox="0 0 512 174.06729" version="1.1" xmlns="http://www.w3.org/2000/svg" xmlns:xlink="http://www.w3.org/1999/xlink" preserveAspectRatio="xMidYMid">
    <title>dolt</title>
    <g>
        <path d="M89.1482724,0.145512252 C100.199936,0.145512252 109.159079,9.10465551 109.159079,20.1563188 L109.159079,142.968947 C109.118066,151.123863 105.909931,158.954536 100.195712,164.777619 C94.4146486,170.666328 86.5370823,174.016698 78.1647082,174.06642 L31.0603385,174.06642 C22.7759679,174.06642 14.8502314,170.737964 9.02937436,164.844199 C3.27462703,159.017617 0.0405308113,151.156997 0,142.868924 L0,76.0957652 C0.0405289945,67.9060171 3.27459168,60.0447795 9.02937072,54.2184074 C14.8505217,48.3245899 22.7763159,44.9958488 31.0603385,44.9960956 L68.0986023,44.9960956 L69.1298943,45.0291666 L69.1374658,20.1563188 C69.1374658,9.56514148 77.3655679,0.89574037 87.7782097,0.191677738 L89.1482724,0.145512252 Z M69.1298943,84.9754126 L68.0986023,85.0177087 L40.0187411,85.0102242 L40.0187411,134.042283 L69.1298943,134.042283 L69.1298943,84.9754126 Z M226.364063,2.15866381 C245.024893,2.15866381 260.010551,17.4067341 260.010551,36.0440461 L260.010551,139.529627 C260.010551,158.166983 245.025029,173.415444 226.364063,173.415444 L184.552788,173.415444 C165.891822,173.415444 150.9063,158.166983 150.9063,139.529627 L150.9063,36.0440461 C150.9063,17.4067341 165.891958,2.15866381 184.552788,2.15866381 L226.364063,2.15866381 Z M219.983977,42.1774049 L190.925041,42.1774049 L190.925041,133.392352 L219.983977,133.392352 L219.983977,42.1774049 Z M345.257668,-7.10542736e-15 L346.734877,0.0536968586 L348.182968,0.212291862 C358.54304,0.960223638 366.720116,9.60865085 366.720116,20.1669363 L366.711761,134.041848 L375.925767,134.045677 C386.97743,134.045677 395.936574,143.00482 395.936574,154.056484 C395.936574,165.108147 386.97743,174.06729 375.925767,174.06729 L312.169296,174.06729 C301.117632,174.06729 292.158489,165.108147 292.158489,154.056484 C292.158489,143.00482 301.117632,134.045677 312.169296,134.045677 L326.695892,134.041848 L326.695892,40.0158692 L310.198092,40.0216131 C299.146429,40.0216131 290.187285,31.0624698 290.187285,20.0108065 C290.187285,8.95914325 299.146429,-7.10542736e-15 310.198092,-7.10542736e-15 L345.257668,-7.10542736e-15 Z M457.330821,0.156129772 C468.382484,0.156129772 477.341627,9.11527303 477.341627,20.1669363 L477.338494,45.9159036 L491.124997,45.9185145 C502.17666,45.9185145 511.135803,54.8776577 511.135803,65.929321 C511.135803,76.9809843 502.17666,85.9401275 491.124997,85.9401275 L477.338494,85.9317728 L477.338494,134.041326 L491.989193,134.045677 C503.040857,134.045677 512,143.00482 512,154.056484 C512,165.108147 503.040857,174.06729 491.989193,174.06729 L457.161115,174.06729 C446.109451,174.06729 437.150308,165.108147 437.150308,154.056484 C437.150308,153.191958 437.205131,152.340238 437.311491,151.504609 L437.305219,85.9317728 L422.04323,85.9401275 C410.991566,85.9401275 402.032423,76.9809843 402.032423,65.929321 C402.032423,54.8776577 410.991566,45.9185145 422.04323,45.9185145 L437.313922,45.9159036 L437.320014,20.1669363 C437.320014,9.11527303 446.279158,0.156129772 457.330821,0.156129772 Z" fill="#29E3C1"></path>
    </g>
</svg>
