<?xml version="1.0" encoding="UTF-8"?>
<svg width="512px" height="117px" viewBox="0 0 512 117" version="1.1" xmlns="http://www.w3.org/2000/svg" xmlns:xlink="http://www.w3.org/1999/xlink" preserveAspectRatio="xMidYMid">
    <g>
        <path d="M310.38987,0.518081029 C312.132662,0.807699654 312.7119,2.55049243 311.843044,3.70896693 C311.746504,3.80550648 311.682145,3.90204602 311.628512,3.99858556 L311.478339,4.28820418 C311.424706,4.38474373 311.360346,4.48128327 311.263807,4.57782281 L282.251134,37.3555377 L281.387359,38.2294746 C280.218722,39.6775678 281.387359,41.4203605 283.414689,41.7099792 L295.014677,41.7099792 C297.047089,41.9995978 297.915945,43.7423906 297.047089,45.1904837 L296.178233,46.0593396 L275.000506,70.1383337 L274.13165,71.0071896 C273.262794,72.4603637 274.421269,74.1980755 276.164062,74.1980755 L283.993927,74.1980755 C285.058487,74.1932505 286.04846,74.7440916 286.605575,75.6512496 C286.895194,76.5150245 286.895194,77.3889614 286.026338,77.9681986 L285.44202,78.5525169 L236.130638,115.679592 L235.261782,116.553529 C234.677464,116.843148 234.098227,116.843148 233.808608,116.553529 C233.502754,116.232863 233.300862,115.827309 233.229371,115.389974 C233.229371,115.100355 233.518989,114.521118 233.518989,114.521118 L247.151389,86.6770815 L247.441007,85.8031446 C248.314944,84.0603518 247.441007,82.3226401 245.408596,82.0330214 L233.813689,82.0330214 C232.075977,81.7434028 231.20204,80.2902287 231.781278,79.1317542 C232.075977,78.8421355 232.365596,78.2578173 232.365596,78.2578173 L249.1838,50.1241624 C249.1838,50.1241624 249.4785,49.8294627 249.4785,49.5398441 C250.347356,47.8021324 249.188881,46.3489582 247.15647,46.3489582 L236.135719,46.3489582 C234.882801,46.4091297 233.773499,45.5458594 233.52407,44.3165468 C233.52407,43.7423906 233.52407,43.1580723 234.103308,42.578835 L239.326605,33.5854146 L256.439509,3.70896693 L256.729128,3.12972968 C257.603064,1.67655553 259.051158,0.807699654 261.083569,0.807699654 L308.946858,0.518081029 L310.38987,0.518081029 Z M183.912908,0.518081029 C210.313932,0.518081029 224.23595,18.504922 224.23595,39.9671864 C224.23595,59.6968201 212.9205,70.4279523 203.93216,74.7773127 L224.23595,115.389974 L185.655701,115.389974 L185.655701,115.684673 L170.570127,80.5747663 L157.806584,80.5747663 L157.806584,115.674511 L123.865313,115.674511 L123.865313,0.518081029 L183.912908,0.518081029 Z M405.247591,0.513 L405.247591,30.9686849 L353.903798,30.9686849 L353.903798,46.3438772 L404.089116,46.3438772 L404.089116,76.8046431 L353.903798,76.8046431 L353.903798,115.674511 L319.672909,115.684673 L319.672909,0.513 L405.247591,0.513 Z M512,0.518081029 L512,30.9737659 L481.544315,30.9737659 L481.544315,115.684673 L447.603045,115.684673 L447.603045,30.9686849 L417.431897,30.9686849 L417.431897,0.518081029 L512,0.518081029 Z M50.4749372,0.513 C86.1539194,0.513 112.554944,21.1064086 112.554944,57.9489463 C112.554944,94.786403 86.1539194,115.674511 50.7696369,115.674511 L0,115.674511 L0,0.513 L50.4749372,0.513 Z M50.7645559,30.9737659 L34.2308891,30.9737659 L34.2308891,85.2239073 L50.4749372,85.2239073 C67.5878413,85.2239073 77.7448173,72.4603637 77.7448173,57.9540273 L77.7397362,57.9540273 C77.7397362,42.2892164 69.0410154,30.9737659 50.7645559,30.9737659 Z M178.694692,30.9737659 L158.096202,30.9737659 L158.096202,53.8892045 L178.694692,53.8892045 C184.492145,53.8892045 189.720524,50.413781 189.720524,42.2892164 C189.720524,34.4593515 184.202527,30.9737659 178.694692,30.9737659 Z" fill="#111111"></path>
    </g>
</svg>