<?xml version="1.0" encoding="UTF-8"?>
<svg width="512px" height="132px" viewBox="0 0 512 132" version="1.1" xmlns="http://www.w3.org/2000/svg" xmlns:xlink="http://www.w3.org/1999/xlink" preserveAspectRatio="xMidYMid">
		<g>
				<path d="M289.800296,23.0528441 C313.206653,23.0528441 332.183142,42.0307937 332.183142,65.4327684 C332.183142,84.8555308 319.11923,101.210619 301.308458,106.227727 C281.412397,111.075384 272.446753,95.6216078 270.816503,91.5649734 C270.647781,91.1435333 270.492936,90.6841125 269.799058,90.6914165 C269.0698,90.7016878 268.99405,91.460475 268.98743,91.5552833 L268.986854,91.5649734 L268.983933,102.351502 L268.980555,102.348123 L268.976629,102.346389 L268.976629,131.149662 L247.41818,131.149662 L247.41818,65.4327684 C247.41818,42.0307937 266.393208,23.0528441 289.800296,23.0528441 Z M382.753027,23.0528441 C405.92749,23.0528441 424.754512,41.6531325 425.128735,64.7320509 L425.134412,65.4327684 L425.134412,104.819519 L403.575964,104.819519 L403.563547,91.5649734 C403.563547,91.5649734 403.531409,90.7023725 402.754265,90.6914165 C402.058195,90.6841125 401.905542,91.1435333 401.736089,91.5649734 C400.104379,95.6216078 391.142386,111.075384 371.244134,106.227727 C353.433362,101.210619 340.369451,84.8555308 340.369451,65.4327684 C340.369451,42.0307937 359.343748,23.0528441 382.753027,23.0528441 Z M239.799391,24.5757254 L239.792818,64.836763 C239.792818,88.0868147 224.623897,106.929641 201.376767,106.929641 C178.355601,106.929641 163.477384,88.461787 163.182122,65.532928 L163.177645,64.836763 L163.184219,24.6151669 L184.646254,24.6151669 L184.646254,64.836763 C184.646254,76.6027558 189.736403,86.1205814 201.507509,86.1205814 C213.150939,86.1205814 218.21182,76.8000111 218.315991,65.2037103 L218.317635,64.836763 L218.282576,24.5757254 L239.799391,24.5757254 Z M455.237795,0.0445543213 L455.237795,104.853117 L433.826157,104.853117 L433.826157,0.0445543213 L455.237795,0.0445543213 Z M145.681675,23.7007077 C148.640374,24.3834844 150.928682,25.2060083 154.114042,26.8320785 L154.624676,27.0956009 L154.624676,51.4806922 L154.613024,51.4692538 C154.371771,51.2346627 150.370286,47.4477501 141.319003,45.3066319 C123.030491,40.9803562 113.502721,57.5759152 113.313994,61.3440615 L113.311134,61.4542866 L113.311134,104.783729 L91.8103874,104.783729 L91.8103874,24.7342219 L110.991388,24.7342219 L113.281918,38.7600683 C113.281918,38.7600683 113.35861,39.4882758 114.034229,39.5021534 C114.851545,39.5240654 114.86104,39.2428619 115.09842,38.7600683 C115.581944,37.7769516 127.22523,19.4410224 145.681675,23.7007077 Z M26.2424952,0 C58.0192215,0 82.1201877,5.8307729 82.1201877,52.3257635 C82.1201877,98.3730198 56.591292,104.651527 24.4574008,104.651527 L0,104.651527 L0,0 L26.2424952,0 Z M382.735497,43.9846103 C370.886239,43.9846103 361.280035,53.5908141 361.280035,65.4327684 C361.280035,77.2849482 370.886239,86.891152 382.735497,86.891152 C394.581834,86.891152 404.186577,77.2849482 404.186577,65.4327684 C404.186577,53.5908141 394.581834,43.9846103 382.735497,43.9846103 Z M289.817825,43.9846103 C277.969298,43.9846103 268.368207,53.5908141 268.368207,65.4327684 C268.368207,77.2849482 277.969298,86.891152 289.817825,86.891152 C301.668544,86.891152 311.272557,77.2849482 311.272557,65.4327684 C311.272557,53.5908141 301.668544,43.9846103 289.817825,43.9846103 Z M30.2962081,18.1401823 L21.6504785,18.1401823 L21.6504785,86.4945455 L30.5292052,86.7216995 C48.7380451,86.7216995 60.4653267,85.0651553 60.4653267,52.3257635 C60.4653267,20.9303054 50.1111946,18.1401823 30.2962081,18.1401823 Z M487.732503,0.143888546 L487.732503,3.90909389 L481.629291,3.90909389 L481.629291,20.504483 L477.151947,20.504483 L477.151947,3.90909389 L471.045814,3.90909389 L471.045814,0.143888546 L487.732503,0.143888546 Z M496.370928,0.143888546 L501.133858,14.1434406 L501.19083,14.1434406 L505.694468,0.143888546 L512,0.143888546 L512,20.504483 L507.808242,20.504483 L507.808242,6.07472606 L507.74981,6.07472606 L502.760456,20.504483 L499.307862,20.504483 L494.319238,6.21715381 L494.262267,6.21715381 L494.262267,20.504483 L490.070509,20.504483 L490.070509,0.143888546 L496.370928,0.143888546 Z" fill="#369ECC"></path>
		</g>
</svg>
