<?xml version="1.0" encoding="UTF-8" standalone="no"?>
<svg width="256px" height="255px" viewBox="0 0 256 255" version="1.1" xmlns="http://www.w3.org/2000/svg" xmlns:xlink="http://www.w3.org/1999/xlink" preserveAspectRatio="xMidYMid">
    <defs>
        <linearGradient x1="0.00126665777%" y1="49.9926211%" x2="100.00817%" y2="49.9926211%" id="linearGradient-1">
            <stop stop-color="#6176B9" offset="0.56%"></stop>
            <stop stop-color="#394A9F" offset="69.1%"></stop>
        </linearGradient>
        <linearGradient x1="0.00512491992%" y1="49.9965807%" x2="100.001281%" y2="49.9965807%" id="linearGradient-2">
            <stop stop-color="#6176B9" offset="0.56%"></stop>
            <stop stop-color="#394A9F" offset="69.1%"></stop>
        </linearGradient>
    </defs>
	<g>
		<circle fill="#DE5833" cx="128.145129" cy="127.483901" r="108.642567"></circle>
		<g transform="translate(16.991995, 17.108151)">
			<g>
				<g transform="translate(48.851985, 23.363993)">
					<path d="M106.822299,248.843516 C102.996977,231.246181 80.7778193,191.412698 72.3497899,174.569383 C63.9281325,157.72182 55.4894831,133.979755 59.3317979,118.661472 C60.0284697,115.874785 52.0337361,94.6432871 54.3319034,93.1416196 C72.207482,81.4829871 76.9142645,94.4138952 84.0721423,89.1867328 C87.7551572,86.4828816 92.7592997,91.4105601 94.0315753,86.9352935 C98.6151659,70.8629904 87.6468333,42.8410669 75.401977,30.5940867 C71.3982382,26.6030919 65.2683761,24.0946486 58.3462622,22.7629011 C55.682767,19.1244902 51.3901643,15.6262632 45.3091542,12.3999082 C38.5378442,8.79548132 23.8121567,4.03559877 16.1742551,2.76757116 C10.8812487,1.89673142 9.68543704,3.37715897 7.42550173,3.74673486 C9.53250909,3.9336468 19.530174,8.87406929 21.4757574,9.1608092 C19.530174,10.4755648 13.8144918,9.10133722 10.1675849,10.7368167 C8.33032546,11.5694245 6.95609788,14.7235635 6.96884187,16.2167351 C17.3976787,15.1632314 33.6760097,16.1827511 43.2892308,20.4647338 C35.6385851,21.3355735 24.0033167,22.3062412 18.9991742,24.9357524 C4.45402664,32.5991421 -1.9710714,50.4980846 1.85849943,71.94623 C5.69019426,93.3455235 22.5420051,171.4556 27.9029795,197.536188 C33.2660778,223.584916 16.416391,240.417611 5.69656626,245.016069 L17.1831548,245.787081 L13.3578319,254.212986 C27.1298437,255.740142 42.446003,251.156551 42.446003,251.156551 C39.391692,259.578209 18.7081863,262.651636 18.7081863,262.651636 C18.7081863,262.651636 28.6718673,265.705947 44.7441703,259.578209 C60.8398374,253.454719 70.7907744,249.6209 70.7907744,249.6209 L78.4456681,269.529146 L93.0035596,254.986122 L99.1312977,270.302282 C99.1610337,270.300158 110.65187,266.462091 106.822299,248.843516 L106.822299,248.843516 Z" fill="#D5D7D8"></path>
					<path d="M111.44837,245.273073 C107.635791,227.667243 85.4166339,187.833759 76.9801085,170.9777 C68.5478311,154.121641 60.1261737,130.383824 63.9599925,115.071913 C64.6715323,112.291598 64.6842763,100.909085 66.9951876,99.3989217 C84.8601461,87.7296692 83.5878705,99.0081058 90.7563683,93.7809434 C94.4521272,91.0813402 97.4108583,87.8210012 98.6958779,83.3478586 C103.292212,67.2649355 92.3111358,39.253632 80.0620316,27.0002798 C76.0710368,23.009285 69.9348027,20.4965937 63.0211848,19.1712181 C60.3619376,15.5221873 56.0735829,12.0324563 50.0010687,8.80185331 C38.5505882,2.72296717 24.3559006,0.293111911 11.2040966,2.67836318 C13.3068559,2.86952312 18.1198385,7.2194738 20.0569259,7.50621371 C17.1236828,9.4942771 9.32435715,9.23727318 9.37533314,13.6573158 C19.816914,12.6123082 31.2588985,14.2626556 40.8827395,18.5361423 C33.2320939,19.4069821 26.110324,21.2973415 21.1061816,23.9374727 C6.54829,31.5902424 2.72084317,46.9021537 6.54829,68.3587951 C10.3863568,89.8048166 27.2402917,167.917017 32.5800261,193.942381 C37.9473724,219.982613 21.1061816,236.82168 10.3863568,241.422262 L21.8729453,242.184778 L18.0476225,250.623428 C31.8196343,252.154831 47.1357936,247.566992 47.1357936,247.566992 C44.0814825,256.007766 23.3979769,259.049333 23.3979769,259.049333 C23.3979769,259.049333 33.3510378,262.105768 49.4339609,255.980154 C65.536,249.856664 75.493309,246.022845 75.493309,246.022845 L83.1482026,265.931091 L97.7039702,251.375323 L103.844452,266.699979 C103.810468,266.714847 115.288561,262.883152 111.44837,245.273073 L111.44837,245.273073 Z" fill="#FFFFFF"></path>
					<path d="M23.4085969,69.4356628 C23.4085969,64.9901322 27.0045278,61.3920773 31.4564304,61.3920773 C35.895589,61.3920773 39.4957679,64.9901322 39.4957679,69.4356628 C39.4957679,73.8833175 35.895589,77.4771244 31.4564304,77.4771244 C27.0045278,77.4792484 23.4085969,73.8833175 23.4085969,69.4356628 L23.4085969,69.4356628 Z" fill="#2D4F8E"></path>
					<path d="M32.9368579,66.7551756 C32.9368579,65.597596 33.8735417,64.6672843 35.0183773,64.6672843 C36.171709,64.6672843 37.1083927,65.597596 37.1083927,66.7551756 C37.1083927,67.9085073 36.171709,68.845191 35.0183773,68.845191 C33.8756657,68.847315 32.9368579,67.9085073 32.9368579,66.7551756 L32.9368579,66.7551756 Z" fill="#FFFFFF"></path>
					<path d="M78.3054841,64.6651603 C78.3054841,60.8568294 81.4086472,57.7621624 85.21273,57.7621624 C89.0380528,57.7621624 92.1284719,60.8568294 92.1284719,64.6651603 C92.1284719,68.4904831 89.0380528,71.5851502 85.21273,71.5851502 C81.4086472,71.5851502 78.3054841,68.4904831 78.3054841,64.6651603 L78.3054841,64.6651603 Z" fill="#2D4F8E"></path>
					<path d="M86.4998736,62.366993 C86.4998736,61.3835813 87.3048694,60.5764615 88.2797851,60.5764615 C89.2971807,60.5764615 90.0766885,61.3835813 90.0766885,62.366993 C90.0766885,63.3631487 89.2971807,64.1554004 88.2797851,64.1554004 C87.3048694,64.1554004 86.4998736,63.3631487 86.4998736,62.366993 L86.4998736,62.366993 Z" fill="#FFFFFF"></path>
					<path d="M33.7418537,46.1290179 C33.7418537,46.1290179 27.6799596,43.3869348 21.7858614,47.0911896 C15.9023831,50.7911965 16.1190311,54.5740393 16.1190311,54.5740393 C16.1190311,54.5740393 12.99038,47.6009495 21.3292015,44.1834345 C29.6765189,40.7659196 33.7418537,46.1290179 33.7418537,46.1290179 L33.7418537,46.1290179 Z" fill="url(#linearGradient-1)"></path>
					<path d="M89.3736447,45.5767781 C89.3736447,45.5767781 85.0173221,43.0874509 81.6359151,43.1299308 C74.6883132,43.2212628 72.7958298,46.2904419 72.7958298,46.2904419 C72.7958298,46.2904419 73.9619054,38.9732641 82.8465947,40.4409477 C87.6638252,41.2416954 89.3736447,45.5767781 89.3736447,45.5767781 L89.3736447,45.5767781 Z" fill="url(#linearGradient-2)"></path>
				</g>
			</g>
			<path d="M104.925568,123.818542 C105.730564,118.95246 118.30464,109.747047 127.208445,109.190559 C136.131366,108.627699 138.911682,108.755139 146.345679,106.975227 C153.800917,105.195316 172.970011,100.416317 178.275762,97.9652221 C183.594256,95.5098789 206.108649,99.1801497 190.236002,108.028731 C183.371236,111.871046 164.869078,118.926972 151.638686,122.869115 C138.429534,126.821877 130.419932,119.096892 126.023254,125.589958 C122.527151,130.755524 125.313838,137.828442 141.101525,139.296125 C162.420106,141.271445 182.859352,129.693524 185.108668,135.844627 C187.368603,141.993605 166.789173,149.667614 154.257577,149.911874 C141.740849,150.147638 116.511984,141.636773 112.72277,139.00089 C108.929307,136.371378 103.876312,130.228772 104.925568,123.818542 L104.925568,123.818542 Z" fill="#FDD20A"></path>
		</g>
		<g transform="translate(99.827970, 189.152099)">
			<path d="M31.7389223,16.1254031 C31.7389223,16.1254031 1.78628345,0.150803954 1.2977636,6.63112598 C0.792251758,13.122068 1.2977636,39.5722319 4.78749454,41.5730393 C8.28359747,43.5653507 33.2405899,28.5996513 33.2405899,28.5996513 L31.7389223,16.1254031 L31.7389223,16.1254031 Z" fill="#65BC46"></path>
			<path d="M43.2148908,15.1186274 C43.2148908,15.1186274 63.6796246,-0.354707892 68.1803792,0.643571804 C72.6641418,1.66096749 73.6645455,33.5868018 69.6693027,35.1139573 C65.67406,36.5795168 42.2527191,27.0151478 42.2527191,27.0151478 L43.2148908,15.1186274 L43.2148908,15.1186274 Z" fill="#65BC46"></path>
			<path d="M24.4875885,17.8182306 C24.4875885,28.2937954 22.981673,32.790302 27.4824276,33.7885817 C31.9619422,34.7932334 40.4473197,33.7885817 43.4506547,31.7962703 C46.4454938,29.8039589 43.9434226,16.335679 42.9578869,13.8166158 C41.9447392,11.3230405 24.4875885,13.3238479 24.4875885,17.8182306 L24.4875885,17.8182306 Z" fill="#43A244"></path>
			<path d="M26.3928159,15.4882033 C26.3928159,25.9658921 24.8911484,30.4623987 29.385531,31.4585544 C33.8586737,32.4759501 42.3504231,31.4585544 45.3558822,29.466243 C48.3507212,27.4675596 45.846526,14.0056517 44.8546183,11.4844645 C43.8499666,8.99301326 26.3928159,11.0023166 26.3928159,15.4882033 L26.3928159,15.4882033 Z" fill="#65BC46"></path>
		</g>
		<path d="M128.143005,254.921738 C198.526152,254.921738 255.582966,197.864924 255.582966,127.481777 C255.582966,57.0986303 198.526152,0.0418162372 128.143005,0.0418162372 C57.7598579,0.0418162372 0.703043785,57.0986303 0.703043785,127.481777 C0.703043785,197.864924 57.7598579,254.921738 128.143005,254.921738 L128.143005,254.921738 Z M128.143005,244.301742 C63.6251201,244.301742 11.3230405,191.999662 11.3230405,127.481777 C11.3230405,62.9638926 63.6251201,10.661813 128.143005,10.661813 C192.66089,10.661813 244.962969,62.9638926 244.962969,127.481777 C244.962969,191.999662 192.66089,244.301742 128.143005,244.301742 L128.143005,244.301742 Z" fill="#DE5833"></path>
	</g>
</svg>