<?xml version="1.0" encoding="UTF-8"?>
<svg width="512px" height="232.726691px" viewBox="0 0 512 232.726691" version="1.1" xmlns="http://www.w3.org/2000/svg" xmlns:xlink="http://www.w3.org/1999/xlink" preserveAspectRatio="xMidYMid">
    <title>edgeDB</title>
    <g>
        <path d="M433.666909,115.237818 C433.666909,150.571345 419.499636,156.904436 403.665455,156.904436 L369.998545,156.904436 L369.998545,73.5714909 L403.665455,73.5714909 C419.499636,73.5714909 433.666909,79.9045818 433.666909,115.237818 L433.666909,115.237818 Z M416.500364,115.2416 C416.500364,90.5751273 409.000727,89.4085818 398.167273,89.4085818 L387.668364,89.4085818 L387.668364,141.074909 L398.167273,141.074909 C409.000727,141.074909 416.500364,139.908364 416.500364,115.2416 L416.500364,115.2416 Z M238.164073,156.904436 L238.164073,73.5714909 L291.165091,73.5714909 L291.165091,89.4048 L255.830691,89.4048 L255.830691,106.404655 L282.497164,106.404655 L282.497164,122.071273 L255.830691,122.071273 L255.830691,141.071127 L291.165091,141.071127 L291.165091,156.904436 L238.164073,156.904436 Z M320,232.726691 L337.454545,232.726691 L337.454545,0 L320,0 L320,232.726691 Z M468.994909,119.910691 L468.994909,141.077236 L483.662545,141.077236 C492.829091,141.077236 495.162182,135.077236 495.162182,130.577164 C495.162182,127.077236 493.495273,119.910691 480.994909,119.910691 L468.994909,119.910691 Z M468.994909,89.4085818 L468.994909,105.2416 L480.994909,105.2416 C487.828364,105.2416 491.828364,102.241745 491.828364,97.2418909 C491.828364,92.2417455 487.828364,89.4085818 480.994909,89.4085818 L468.994909,89.4085818 Z M451.333818,73.5714909 L485.332364,73.5714909 C503.168,73.5714909 508.500364,86.0712727 508.500364,95.0714182 C508.500364,103.4048 503.168,109.404509 499.499636,111.071418 C510.167273,116.237964 512,126.738036 512,132.071273 C512,139.071127 508.500364,156.904436 485.332364,156.904436 L451.333818,156.904436 L451.333818,73.5714909 Z M136.6688,115.237818 C136.6688,150.571345 122.502109,156.904436 106.6688,156.904436 L73.0021818,156.904436 L73.0021818,73.5714909 L106.6688,73.5714909 C122.502109,73.5714909 136.6688,79.9045818 136.6688,115.237818 L136.6688,115.237818 Z M188.6656,141.745455 C197.665455,141.745455 202.332218,138.745309 203.998836,136.745309 L203.998836,127.578764 L189.665455,127.578764 L189.665455,113.245382 L218.165527,113.245382 L218.165527,146.411927 C215.665455,150.245236 201.998836,157.745164 189.498764,157.745164 C168.998982,157.745164 151.665745,149.745164 151.665745,114.411927 C151.665745,79.0786909 169.165673,72.7456 184.998982,72.7456 C209.832145,72.7456 215.998836,85.7454545 217.998836,97.2453818 L203.332073,100.578618 C202.498909,95.2453818 197.832145,88.5789091 187.165673,88.5789091 C176.332218,88.5789091 168.832291,89.7454545 168.832291,114.411927 C168.832291,139.078691 176.6656,141.745455 188.6656,141.745455 L188.6656,141.745455 Z M119.499927,115.2416 C119.499927,90.5751273 112,89.4085818 101.166836,89.4085818 L90.6667636,89.4085818 L90.6667636,141.074909 L101.166836,141.074909 C112,141.074909 119.499927,139.908364 119.499927,115.2416 L119.499927,115.2416 Z M0,156.904436 L0,73.5714909 L52.9998545,73.5714909 L52.9998545,89.4048 L17.6666182,89.4048 L17.6666182,106.404655 L44.3330909,106.404655 L44.3330909,122.071273 L17.6666182,122.071273 L17.6666182,141.071127 L52.9998545,141.071127 L52.9998545,156.904436 L0,156.904436 Z" fill="#4D4D4D"></path>
    </g>
</svg>
