<?xml version="1.0" encoding="UTF-8"?>
<svg width="256px" height="163px" viewBox="0 0 256 163" version="1.1" xmlns="http://www.w3.org/2000/svg" xmlns:xlink="http://www.w3.org/1999/xlink" preserveAspectRatio="xMidYMid">
    <title>epsagon</title>
    <defs>
        <path d="M49.8269497,58.2314954 C50.5965967,57.4618484 57.3233119,53.8675967 58.1314413,53.5058625 L64.0577235,50.8505802 L60.2633636,25.6831219 L64.0577235,5.89549636 L70.2148999,0.815825867 L75.3638386,3.84823522 L75.4254104,10.7750586 L82.5215561,0 L90.502796,0.17701882 L91.5033371,11.6678492 L92.5500571,33.3026276 L84.5765137,54.6988155 L99.6692923,70.0917564 L99.6692923,97.2526006 L88.9635019,104.433407 L67.7982082,104.433407 L45.4091756,109.543864 L40.0216463,124.444231 L44.5471709,137.281943 L51.0045097,144.431964 L41.2607781,148.2802 L18.4715291,123.143527 L19.5644279,111.106247 L4.38698815,103.363598 L-2.18746847e-14,70.1071493 L25.3521737,51.5894414 L49.8269497,58.2314954 Z" id="path-1"></path>
        <linearGradient x1="-1246.11407%" y1="-445.363409%" x2="12.9734989%" y2="35.839599%" id="epsagonLinearGradient-3">
            <stop stop-color="#5CCD53" offset="0%"></stop>
            <stop stop-color="#0000F3" offset="99%"></stop>
        </linearGradient>
        <linearGradient x1="81.7683363%" y1="62.1572763%" x2="838.157296%" y2="351.401024%" id="epsagonLinearGradient-4">
            <stop stop-color="#5CCD53" offset="0%"></stop>
            <stop stop-color="#0000F3" offset="99%"></stop>
        </linearGradient>
        <linearGradient x1="26.8825591%" y1="38.7020969%" x2="394.258018%" y2="212.237889%" id="epsagonLinearGradient-5">
            <stop stop-color="#5CCD53" offset="0%"></stop>
            <stop stop-color="#0000F3" offset="99%"></stop>
        </linearGradient>
        <linearGradient x1="-9.27872861%" y1="24.4937015%" x2="100.745721%" y2="58.0914602%" id="epsagonLinearGradient-6">
            <stop stop-color="#5CCD53" offset="0%"></stop>
            <stop stop-color="#0000F3" offset="99%"></stop>
        </linearGradient>
        <linearGradient x1="46.6684251%" y1="50%" x2="98.9940473%" y2="50%" id="epsagonLinearGradient-7">
            <stop stop-color="#FFFFFF" stop-opacity="0" offset="0%"></stop>
            <stop stop-color="#FFFFFF" stop-opacity="0.8" offset="100%"></stop>
        </linearGradient>
        <linearGradient x1="100%" y1="50%" x2="5.92723867e-15%" y2="50%" id="epsagonLinearGradient-8">
            <stop stop-color="#EEF1FE" offset="0%"></stop>
            <stop stop-color="#C6D4FC" offset="87.0709685%"></stop>
            <stop stop-color="#C2D1FC" stop-opacity="0" offset="100%"></stop>
        </linearGradient>
    </defs>
    <g>
        <g fill="#1A1233">
            <path d="M245.371174,141.692021 L239.206301,146.379171 L240.19145,154.052552 L247.326078,157.046479 L253.490951,152.359329 L252.505802,144.678251 L245.371174,141.692021 Z M10.2440022,90.7106007 L0,98.5071252 L1.63165173,111.283266 L13.5073056,116.255186 L23.7513078,108.458662 L22.1196561,95.6825206 L10.2440022,90.7106007 L10.2440022,90.7106007 Z M54.4140461,71.1307799 L53.2749684,62.1720883 L43.7159521,58.1699236 L35.4730323,64.4425471 L36.3427334,71.215441 L29.0079971,76.7953821 L31.2091877,94.0277794 L47.2332391,100.746798 L61.0561001,90.2180266 L58.8549095,72.9856292 L54.4140461,71.1307799 Z"></path>
            <path d="M240.891829,66.8130599 L248.865372,45.4168721 L247.818652,23.7820937 L246.818111,12.2912633 L238.836871,12.1142445 L231.740725,22.8893031 L231.679153,15.9624797 L226.530215,13.0070351 L220.373038,18.0867055 L216.578678,37.8743311 L220.373038,63.0417894 C220.373038,63.0417894 215.254885,65.3507306 214.446756,65.6970717 C214.04654,65.8740906 212.97673,66.3666647 211.891528,66.9054176 L211.121881,60.9252601 L182.14467,48.7879262 L180.412964,50.1040226 L179.712585,44.5856533 L145.617221,30.3087006 L135.865793,37.7280981 L126.799351,33.9260417 L116.632313,41.6225122 L107.181047,37.6665264 L118.57952,28.9926042 L115.916541,8.12747279 L96.5137394,0 L79.7739162,12.7453551 L81.9366244,29.67759 L69.6992364,38.9903193 L71.1615658,50.4657567 L67.1286152,53.5443449 L71.5309963,88.0014431 L103.571403,101.424088 L120.734532,88.3400878 L120.865372,89.325236 L130.332031,93.2966148 L132.340809,109.043593 L160.048103,120.649871 L164.319644,117.40196 L175.810474,123.258974 L174.763754,135.311647 L196.88341,159.670976 L196.88341,159.794119 L197.03734,159.855691 L197.583789,160.448319 L198.030185,160.271301 L202.648067,162.210811 L207.63538,158.416451 L206.865733,152.2054 L201.255006,149.896458 L200.885575,149.480849 L196.313872,136.61235 L201.701401,121.711984 L202.355601,121.565751 L202.263243,121.635019 L203.802537,133.903193 L214.30822,138.297877 L214.977813,143.577656 L224.659972,147.633696 L233.010643,141.276412 L231.68685,130.863087 L224.644579,127.915339 L223.497805,118.918165 L220.103662,117.502014 L224.128916,116.578438 L245.29421,116.578438 L256,109.397631 L256,82.2752691 L240.891829,66.8130599 Z"></path>
        </g>
        <g>
            <polygon fill="#A1BEFF" opacity="0.77" points="211.114184 60.9021706 182.136973 48.7648368 157.131141 67.7905117 161.110216 98.9535205 190.095124 111.090854 215.09326 92.0651795 211.114184 60.9021706"></polygon>
            <polygon fill="#A1BEFF" opacity="0.74" points="179.697192 44.5625639 145.601828 30.2779147 116.185918 52.6669473 120.865372 89.3406289 154.960736 103.617582 184.384342 81.2362456 179.697192 44.5625639"></polygon>
            <polygon fill="#A1BEFF" opacity="0.79" points="126.82244 45.9094462 94.7820336 32.4868018 67.1363117 53.528952 71.5309963 87.9937466 103.579099 101.408695 131.224821 80.3742409"></polygon>
            <polygon fill="#A1BEFF" opacity="0.7" points="98.2916241 35.3421923 82.944862 28.907943 69.6992364 38.9903193 71.8080693 55.4915519 87.1548313 61.9181047 100.400457 51.8434249 98.2916241 35.3421923"></polygon>
            <polygon fill="#A1BEFF" opacity="0.37" points="144.031748 41.1222416 126.791654 33.9029523 111.914377 45.2244603 114.277193 63.7729541 131.524983 70.9922434 146.402261 59.6707354 144.031748 41.1222416"></polygon>
            <polygon fill="#A1BEFF" opacity="0.7" points="231.671457 130.855391 224.629186 127.907642 223.482412 118.918165 212.068547 114.138657 202.224761 121.627322 203.794841 133.903193 214.292827 138.297877 214.970116 143.56996 224.652276 147.626 233.002946 141.268715 231.671457 130.855391"></polygon>
            <path d="M206.82725,152.2054 L201.054897,149.788708 L196.075281,153.575371 L196.868018,159.786423 L202.64037,162.203115 L207.619987,158.416451 L206.82725,152.2054 L206.82725,152.2054 Z M252.505802,144.678251 L245.371174,141.692021 L239.206301,146.379171 L240.19145,154.052552 L247.326078,157.046479 L253.490951,152.359329 L252.505802,144.678251 Z M22.1196561,95.6825206 L10.2440022,90.7106007 L0,98.5071252 L1.63165173,111.283266 L13.5073056,116.255186 L23.7513078,108.458662 L22.1196561,95.6825206 L22.1196561,95.6825206 Z" fill="#A1BEFF"></path>
            <polygon fill="#A1BEFF" opacity="0.29" points="58.8549095 72.9856292 42.830858 66.274307 29.0079971 76.7953821 31.2091877 94.0277794 47.2332391 100.746798 61.0561001 90.2180266"></polygon>
            <g transform="translate(156.292225, 12.168120)">
                <mask id="mask-2" fill="white">
                    <use xlink:href="#path-1"></use>
                </mask>
                <use fill="#A1BEFF" opacity="0.46" xlink:href="#path-1"></use>
                <path d="M52.9517167,56.2535025 C53.7213637,55.4838555 57.3233119,53.8368108 58.1314413,53.4750767 L64.0577235,50.8197944 L60.2633636,25.652336 L64.0577235,5.86471048 L70.2148999,0.785039986 L75.3638386,3.81744934 L75.4254104,10.7442727 L82.5215561,-0.0307858818 L90.502796,0.146232938 L91.5033371,11.6370633 L92.5500571,33.2718417 L84.5765137,54.6680296 L99.6692923,70.0609705 L99.6692923,97.2218147 L88.9635019,104.402622 L67.7982082,104.402622 L45.4091756,109.543864 L40.0216463,124.444231 L44.5471709,137.281943 L51.0045097,144.431964 L41.2607781,148.2802 L18.4715291,123.143527 L19.5644279,111.106247 L4.38698815,103.363598 L-2.18746847e-14,70.1071493 L28.0767242,45.6631592 L52.9517167,56.2535025 Z" fill="#A1BEFF" mask="url(#mask-2)"></path>
            </g>
            <polygon fill="#A1BEFF" opacity="0.7" points="53.2749684 62.1720883 43.7159521 58.1699236 35.4730323 64.4425471 36.7891287 74.7173351 46.3404486 78.7194997 54.5833684 72.4468763 53.2749684 62.1720883"></polygon>
            <polygon fill="#A1BEFF" opacity="0.22" points="180.166677 72.6623775 152.451687 61.0484036 128.538753 79.2505562 132.348506 109.05129 160.063496 120.665264 183.968733 102.463111"></polygon>
            <polygon fill="#A1BEFF" opacity="0.22" points="188.4019 69.6992364 167.367446 60.8867777 149.219169 74.7019422 152.113042 97.3218688 173.147496 106.126631 191.288076 92.319163 188.4019 69.6992364"></polygon>
            <polygon fill="#A1BEFF" points="115.916541 8.12747279 96.5137394 4.37493693e-14 79.7816127 12.7376586 82.4445914 33.60279 101.839697 41.7302628 118.57952 28.9926042 115.916541 8.12747279"></polygon>
        </g>
        <g opacity="0.3" style="mix-blend-mode: color;">
            <path d="M245.371174,141.692021 L239.206301,146.379171 L240.19145,154.052552 L247.326078,157.046479 L253.490951,152.359329 L252.505802,144.678251 L245.371174,141.692021 Z M10.2440022,90.7106007 L0,98.5071252 L1.63165173,111.283266 L13.5073056,116.255186 L23.7513078,108.458662 L22.1196561,95.6825206 L10.2440022,90.7106007 L10.2440022,90.7106007 Z M54.4140461,71.1307799 L53.2749684,62.1720883 L43.7159521,58.1699236 L35.4730323,64.4425471 L36.3427334,71.215441 L29.0079971,76.7953821 L31.2091877,94.0277794 L47.2332391,100.746798 L61.0561001,90.2180266 L58.8549095,72.9856292 L54.4140461,71.1307799 Z" fill="#1A1233"></path>
            <path d="M240.891829,66.8130599 L248.865372,45.4168721 L247.818652,23.7820937 L246.818111,12.2912633 L238.836871,12.1142445 L231.740725,22.8893031 L231.679153,15.9624797 L226.530215,13.0070351 L220.373038,18.0867055 L216.578678,37.8743311 L220.373038,63.0417894 C220.373038,63.0417894 215.254885,65.3507306 214.446756,65.6970717 C214.04654,65.8740906 212.97673,66.3666647 211.891528,66.9054176 L211.121881,60.9252601 L182.14467,48.7879262 L180.412964,50.1040226 L179.712585,44.5856533 L145.617221,30.3087006 L135.865793,37.7280981 L126.799351,33.9260417 L116.632313,41.6225122 L107.181047,37.6665264 L118.57952,28.9926042 L115.916541,8.12747279 L96.5137394,0 L79.7739162,12.7453551 L81.9366244,29.67759 L69.6992364,38.9903193 L71.1615658,50.4657567 L67.1286152,53.5443449 L71.5309963,88.0014431 L103.571403,101.424088 L120.734532,88.3400878 L120.865372,89.325236 L130.332031,93.2966148 L132.340809,109.043593 L160.048103,120.649871 L164.319644,117.40196 L175.810474,123.258974 L174.763754,135.311647 L196.88341,159.670976 L196.88341,159.794119 L197.03734,159.855691 L197.583789,160.448319 L198.030185,160.271301 L202.648067,162.210811 L207.63538,158.416451 L206.865733,152.2054 L201.255006,149.896458 L200.885575,149.480849 L196.313872,136.61235 L201.701401,121.711984 L202.355601,121.565751 L202.263243,121.635019 L203.802537,133.903193 L214.30822,138.297877 L214.977813,143.577656 L224.659972,147.633696 L233.010643,141.276412 L231.68685,130.863087 L224.644579,127.915339 L223.497805,118.918165 L220.103662,117.502014 L224.128916,116.578438 L245.29421,116.578438 L256,109.397631 L256,82.2752691 L240.891829,66.8130599 Z" fill="#1A1233"></path>
            <polygon fill="url(#epsagonLinearGradient-3)" points="245.371174 141.692021 239.206301 146.379171 240.19145 154.052552 247.326078 157.046479 253.490951 152.359329 252.505802 144.678251"></polygon>
            <polygon fill="url(#epsagonLinearGradient-4)" points="10.2440022 90.7106007 0 98.5071252 1.63165173 111.283266 13.5073056 116.255186 23.7513078 108.458662 22.1196561 95.6825206 10.2440022 90.7106007"></polygon>
            <polygon fill="url(#epsagonLinearGradient-5)" points="54.4140461 71.1307799 53.2749684 62.1720883 43.7159521 58.1699236 35.4730323 64.4425471 36.3427334 71.215441 29.0079971 76.7953821 31.2091877 94.0277794 47.2332391 100.746798 61.0561001 90.2180266 58.8549095 72.9856292"></polygon>
            <path d="M240.891829,66.8130599 L248.865372,45.4168721 L247.818652,23.7820937 L246.818111,12.2912633 L238.836871,12.1142445 L231.740725,22.8893031 L231.679153,15.9624797 L226.530215,13.0070351 L220.373038,18.0867055 L216.578678,37.8743311 L220.373038,63.0417894 C220.373038,63.0417894 215.254885,65.3507306 214.446756,65.6970717 C214.04654,65.8740906 212.97673,66.3666647 211.891528,66.9054176 L211.121881,60.9252601 L182.14467,48.7879262 L180.412964,50.1040226 L179.712585,44.5856533 L145.617221,30.3087006 L135.865793,37.7280981 L126.799351,33.9260417 L116.632313,41.6225122 L107.181047,37.6665264 L118.57952,28.9926042 L115.916541,8.12747279 L96.5137394,0 L79.7739162,12.7453551 L81.9366244,29.67759 L69.6992364,38.9903193 L71.1615658,50.4657567 L67.1286152,53.5443449 L71.5309963,88.0014431 L103.571403,101.424088 L120.734532,88.3400878 L120.865372,89.325236 L130.332031,93.2966148 L132.340809,109.043593 L160.048103,120.649871 L164.319644,117.40196 L175.810474,123.258974 L174.763754,135.311647 L196.88341,159.670976 L196.88341,159.794119 L197.03734,159.855691 L197.583789,160.448319 L198.030185,160.271301 L202.648067,162.210811 L207.63538,158.416451 L206.865733,152.2054 L201.255006,149.896458 L200.885575,149.480849 L196.313872,136.61235 L201.701401,121.711984 L202.355601,121.565751 L202.263243,121.635019 L203.802537,133.903193 L214.30822,138.297877 L214.977813,143.577656 L224.659972,147.633696 L233.010643,141.276412 L231.68685,130.863087 L224.644579,127.915339 L223.497805,118.918165 L220.103662,117.502014 L224.128916,116.578438 L245.29421,116.578438 L256,109.397631 L256,82.2752691 L240.891829,66.8130599 Z" fill="url(#epsagonLinearGradient-6)"></path>
        </g>
        <path d="M252.498106,144.685948 L253.475558,152.382418 L247.318381,157.069569 L240.183753,154.060249 L239.206301,146.363778 L245.363478,141.676628 L252.498106,144.685948 Z M10.2440022,90.7413866 L0,98.5148217 L1.59316938,111.283266 L13.4688233,116.262883 L23.7513078,108.443269 L22.1196561,95.6748241 L10.2440022,90.7413866 Z M54.4140461,71.1538693 L53.267272,62.2028742 L43.7159521,58.2007095 L35.4576393,64.4502435 L36.319644,71.215441 L28.9849077,76.8030786 L31.1860983,94.0354759 L47.2255427,100.746798 L61.0791895,90.225723 L58.8549095,72.9933257 L54.4140461,71.1538693 Z M240.891829,66.8361494 L248.865372,45.4399615 L247.818652,23.7820937 L246.818111,12.2912633 L238.836871,12.1142445 L231.740725,22.8893031 L231.679153,15.9624797 L226.530215,13.0070351 L220.373038,18.0867055 L216.578678,37.8743311 L220.373038,63.0417894 C220.373038,63.0417894 215.254885,65.3507306 214.446756,65.6970717 C214.04654,65.8740906 212.97673,66.3666647 211.891528,66.9054176 L211.121881,60.9252601 L182.14467,48.7879262 L180.412964,50.1040226 L179.712585,44.5856533 L145.617221,30.3087006 L135.865793,37.7280981 L126.799351,33.9260417 L116.632313,41.6225122 L107.181047,37.6665264 L118.57952,28.9926042 L115.916541,8.12747279 L96.5137394,0 L79.7739162,12.7453551 L81.9366244,29.67759 L69.6992364,38.9903193 L71.1615658,50.4657567 L67.1286152,53.5443449 L71.5309963,88.0014431 L103.571403,101.424088 L120.734532,88.3400878 L120.865372,89.325236 L130.332031,93.2966148 L132.340809,109.043593 L160.048103,120.649871 L164.319644,117.40196 L175.810474,123.258974 L174.763754,135.311647 L196.88341,159.670976 L196.88341,159.794119 L197.03734,159.855691 L197.583789,160.448319 L198.030185,160.271301 L202.648067,162.210811 L207.63538,158.416451 L206.865733,152.2054 L201.255006,149.896458 L200.885575,149.480849 L196.313872,136.61235 L201.701401,121.711984 L202.355601,121.565751 L202.263243,121.635019 L203.802537,133.903193 L214.30822,138.297877 L214.977813,143.577656 L224.659972,147.633696 L233.010643,141.276412 L231.68685,130.863087 L224.644579,127.915339 L223.497805,118.918165 L220.103662,117.502014 L224.128916,116.578438 L245.29421,116.578438 L256,109.397631 L256,82.2752691 L240.891829,66.8361494 Z" fill="url(#epsagonLinearGradient-7)"></path>
        <path d="M207.296735,68.4447117 C208.066382,67.6750646 213.615537,66.0357164 214.423667,65.6739823 L220.349949,63.0187 L216.555589,37.8512417 L220.349949,18.0636161 L226.507125,12.9839456 L231.656064,16.016355 L231.717636,22.9431784 L238.813781,12.1681198 L246.795021,12.3451386 L247.795563,23.835969 L248.842282,45.4707474 L240.868739,66.8669352 L255.961518,82.2598761 L255.961518,109.42072 L245.255727,116.601527 L224.090434,116.601527 L201.701401,121.711984 L196.313872,136.61235 L200.839396,149.450063 L207.296735,156.600084 L197.553003,160.448319 L174.763754,135.311647 L175.856653,123.274367 L175.856653,116.255186 L168.69141,120.665264 L168.69141,70.9922434 L184.384342,58.2007095 L207.296735,68.4447117 Z" fill="url(#epsagonLinearGradient-8)"></path>
    </g>
</svg>
