<?xml version="1.0" encoding="UTF-8"?>
<svg width="512px" height="92px" viewBox="0 0 512 92" version="1.1" xmlns="http://www.w3.org/2000/svg" xmlns:xlink="http://www.w3.org/1999/xlink" preserveAspectRatio="xMidYMid">
    <g>
        <path d="M24.2098322,31.2390554 C41.0242965,27.3981879 57.8387607,37.7258537 61.6796281,54.1989075 C62.0589731,55.9438942 62.3034398,57.75632 62.4130284,59.5762391 L62.4478016,60.2589429 L52.8883093,62.3927581 L47.9378579,63.5023421 L17.2962708,70.4159035 C21.1371383,75.8784705 28.1360523,78.6951067 35.0496137,77.1587597 C39.1051559,76.2483319 42.6791495,73.8932582 45.0711602,70.5604949 L45.291927,70.2451983 L59.8018707,73.6593027 C55.8756506,82.1092111 48.1939157,88.7667147 38.2930129,90.9858826 C21.4785487,94.82675 4.74943708,84.5844368 0.823217011,68.0260304 C-3.10300306,51.467624 7.395368,35.0799228 24.2098322,31.2390554 Z M473.762031,31.324408 C490.576495,27.4835405 507.390959,37.8112064 511.231827,54.2842601 C511.611171,56.0292468 511.855638,57.8416726 511.965227,59.6615917 L512,60.3442955 L502.440508,62.4781107 L497.490056,63.5876947 L466.848469,70.5012561 C470.689337,75.9638232 477.688251,78.7804593 484.601812,77.2441123 C488.657354,76.3336845 492.231348,73.9786108 494.623359,70.6458475 L494.844125,70.3305509 L509.354069,73.6593027 C505.427849,82.1092111 497.746114,88.7667147 487.845211,90.9858826 C471.030747,94.82675 454.216283,84.4990842 450.375415,68.0260304 C446.449195,51.5529766 456.947566,35.1652754 473.762031,31.324408 Z M141.655024,31.324408 C158.469488,27.4835405 175.1986,37.8112064 179.12482,54.2842601 C179.504165,56.0292468 179.748632,57.8416726 179.85822,59.6615917 L179.892993,60.3442955 L170.333501,62.4781107 L165.38305,63.5876947 L134.741463,70.5012561 C138.753035,76.1345284 145.751949,78.7804593 152.494805,77.2441123 C156.677083,76.3052336 160.347246,73.8300079 162.737119,70.3305509 L172.995435,72.6461493 C175.385239,73.192934 177.247062,73.6287286 177.247062,73.6593027 C173.320842,82.1092111 165.639107,88.7667147 155.738205,90.9858826 C138.92374,94.82675 122.109276,84.4990842 118.268409,68.0260304 C114.342189,51.5529766 124.84056,35.1652754 141.655024,31.324408 Z M300.922995,0 L300.922995,35.8480963 C305.702741,32.0072289 311.336013,30.3855293 317.566754,30.3855293 C335.149391,30.3855293 349.232572,43.9565943 349.232572,60.9417637 C349.232572,77.8415806 335.149391,91.6687034 317.566754,91.6687034 C311.421366,91.6687034 305.702741,90.0470038 300.922995,86.2061364 L300.922995,90.0470038 L285.474172,90.0470038 L285.474172,3.49945702 L300.922995,0 Z M369.461141,31.4097606 L369.461141,36.6162698 C374.141309,33.2732926 378.65781,32.0579811 386.295911,31.6081518 L386.787721,31.5804658 L386.787721,46.6025252 C371.831383,47.1095197 369.506813,52.1338353 369.461817,61.0129314 L369.461141,90.0470038 L354.012318,90.0470038 L354.012318,31.4097606 L369.461141,31.4097606 Z M268.574355,7.34032448 L268.574355,31.4097606 L280.609074,31.4097606 L280.609074,46.0050569 L268.574355,46.0050569 L268.574355,90.0470038 L252.528065,90.0470038 L252.528065,46.0050569 L243.053925,46.0050569 L243.053925,31.4097606 L252.528065,31.4097606 L252.528065,10.9251341 L268.574355,7.34032448 Z M215.314327,30.3001767 C228.373276,30.3001767 239.725173,37.8112064 239.725173,56.1620176 L239.725173,89.9616512 L224.190998,89.9616512 L224.190998,58.7225959 C224.190998,47.609686 218.30164,45.0036273 212.288295,44.8988239 L211.900222,44.895473 L211.51215,44.8985993 C205.498805,44.9964775 199.609446,47.4371839 199.609446,58.466538 L199.609446,90.0470038 L184.160624,90.0470038 L184.160624,31.4097606 L199.609446,31.4097606 L199.609446,35.7627437 L200.7556,34.9389293 C203.966182,32.6712863 208.014351,30.3001767 215.314327,30.3001767 Z M74.5678723,31.4097606 L89.7606369,71.184077 L105.124107,31.4097606 L121.938571,31.4097606 L97.8691349,90.0470038 L81.8228442,90.0470038 L57.7534081,31.4097606 L74.5678723,31.4097606 Z M407.613758,31.4097606 L407.613758,90.0470038 L392.164935,90.0470038 L392.164935,31.4097606 L407.613758,31.4097606 Z M438.76746,10.9251341 L438.76746,31.4097606 L450.802178,31.4097606 L450.802178,46.2611148 L438.76746,46.2611148 L438.76746,89.9616512 L422.72117,89.9616512 L422.72117,46.3464674 L413.24703,46.3464674 L413.24703,31.4097606 L422.72117,31.4097606 L422.72117,10.9251341 L438.76746,10.9251341 Z M317.481401,44.46871 C308.348672,44.46871 300.922995,51.7236818 300.581584,60.1735902 L300.581584,61.6245846 C301.008347,70.1598457 308.434024,77.3294649 317.481401,77.3294649 C326.699483,77.3294649 334.295865,69.8184352 334.295865,60.8564111 C334.295865,52.0650923 326.699483,44.46871 317.481401,44.46871 Z M464.117186,58.466538 L494.67342,51.5529766 C490.661847,46.0050569 483.662933,43.359126 477.00543,44.895473 C470.203377,46.4070402 465.384241,51.8018181 464.173799,58.1534063 L464.117186,58.466538 L494.67342,51.5529766 L464.117186,58.466538 Z M132.010179,58.466538 L162.566413,51.5529766 C158.725546,46.1757622 151.811985,43.359126 144.898423,44.895473 C138.094601,46.4074335 133.192062,51.804626 132.061912,58.1583648 L132.010179,58.466538 L162.566413,51.5529766 L132.010179,58.466538 Z M14.5649873,58.466538 L45.1212217,51.5529766 C41.2803543,46.1757622 34.3667929,43.359126 27.4532314,44.895473 C20.6494091,46.4074335 15.7468704,51.7219614 14.61672,58.1544284 L14.5649873,58.466538 L45.1212217,51.5529766 L14.5649873,58.466538 Z M399.932023,1.36564176 C405.479942,1.36564176 409.576868,5.46256706 409.576868,10.8397815 C409.576868,16.3023486 405.39459,20.4846265 399.932023,20.4846265 C394.384103,20.4846265 390.116473,16.3023486 390.116473,10.8397815 C390.116473,5.37721445 394.384103,1.36564176 399.932023,1.36564176 Z" fill="#F05537" fill-rule="nonzero"></path>
    </g>
</svg>
