<?xml version="1.0" encoding="UTF-8"?>
<svg width="512px" height="83px" viewBox="0 0 512 83" version="1.1" xmlns="http://www.w3.org/2000/svg" xmlns:xlink="http://www.w3.org/1999/xlink" preserveAspectRatio="xMidYMid">
    <g>
        <path d="M45.8039051,66.7271507 C36.4049051,66.7261507 27.0069051,66.7271507 17.6079051,66.7251507 C17.1679051,66.7251507 16.7239051,66.7401507 16.2899051,66.6861507 C15.5309051,66.5901507 15.2489051,66.2921507 15.1449051,65.5311507 C15.1069051,65.2561507 15.1169051,64.9731507 15.1169051,64.6931507 C15.1159051,60.6931507 15.1159051,56.6941507 15.1169051,52.6951507 C15.1169051,52.4151507 15.1069051,52.1311507 15.1499051,51.8561507 C15.2649051,51.1171507 15.5799051,50.8401507 16.3499051,50.7931507 C16.7089051,50.7711507 17.0699051,50.7851507 17.4299051,50.7851507 C25.4289051,50.7851507 33.4269051,50.7851507 41.4259051,50.7841507 C41.7459051,50.7841507 42.0659051,50.7851507 42.3859051,50.7741507 C42.9159051,50.7571507 43.1879051,50.4611507 43.2209051,49.9471507 C43.2449051,49.5881507 43.2479051,49.2271507 43.2479051,48.8681507 C43.2499051,45.6281507 43.2509051,42.3891507 43.2489051,39.1491507 C43.2479051,37.2071507 43.2459051,37.2031507 41.3479051,37.2031507 C33.4699051,37.2021507 25.5909051,37.2031507 17.7119051,37.2011507 C17.2719051,37.2011507 16.8289051,37.2181507 16.3929051,37.1771507 C15.5079051,37.0921507 15.2179051,36.7851507 15.1339051,35.8831507 C15.1049051,35.5651507 15.1159051,35.2431507 15.1159051,34.9231507 C15.1149051,31.1641507 15.1139051,27.4041507 15.1159051,23.6451507 C15.1179051,21.4881507 15.2789051,21.3251507 17.4319051,21.3251507 C26.5109051,21.3231507 35.5889051,21.3241507 44.6679051,21.3231507 C45.0679051,21.3231507 45.4679051,21.3191507 45.8669051,21.2991507 C46.2859051,21.2781507 46.5359051,21.0461507 46.5729051,20.6281507 C46.6039051,20.2701507 46.6079051,19.9091507 46.6079051,19.5501507 C46.6109051,16.1501507 46.6109051,12.7511507 46.6089051,9.35115069 C46.6079051,7.44115069 46.6059051,7.43915069 44.6839051,7.43915069 C34.0449051,7.43815069 23.4069051,7.43815069 12.7679051,7.43915069 C12.3279051,7.43915069 11.8879051,7.45115069 11.4489051,7.46015069 C6.79390512,7.55015069 1.75390512,10.9211507 0.379905124,16.5231507 C0.079905124,17.7481507 0.022905124,19.0551507 0.018905124,20.3251507 C-0.010094876,29.8441507 0.00290512397,39.3631507 0.00290512397,48.8811507 C0.00290512397,58.8001507 0.00290512397,68.7181507 0.00390512397,78.6371507 C0.00390512397,79.0771507 0.00690512397,79.5171507 0.032905124,79.9561507 C0.062905124,80.4691507 0.331905124,80.7671507 0.866905124,80.7801507 C1.10690512,80.7861507 1.34690512,80.7891507 1.58690512,80.7891507 C13.1059051,80.7891507 24.6239051,80.8061507 36.1419051,80.7661507 C37.5679051,80.7611507 39.0249051,80.5801507 40.4129051,80.2511507 C44.0729051,79.3841507 46.6089051,77.2131507 47.6519051,73.5021507 C48.0909051,71.9401507 48.0779051,70.3401507 47.9609051,68.7391507 C47.8229051,66.8571507 47.6799051,66.7271507 45.8039051,66.7271507 Z M110.783705,25.7815507 C110.471705,25.7285507 110.145705,25.7515507 109.825705,25.7515507 C106.666705,25.7505507 103.507705,25.7505507 100.348705,25.7505507 C99.3887051,25.7505507 98.4287051,25.7705507 97.4697051,25.7475507 C96.8627051,25.7325507 96.4827051,25.9845507 96.2947051,26.5525507 C96.2067051,26.8175507 96.1077051,27.0795507 96.0157051,27.3435507 C91.7857051,39.4885507 87.5557051,51.6335507 83.3247051,63.7785507 C83.1937051,64.1545507 83.0847051,64.5465507 82.8987051,64.8955507 C82.7797051,65.1185507 82.4777051,65.4625507 82.3657051,65.4255507 C82.1107051,65.3415507 81.8567051,65.0915507 81.7237051,64.8435507 C81.5177051,64.4605507 81.4087051,64.0255507 81.2647051,63.6105507 C77.7617051,53.5385507 74.2577051,43.4665507 70.7577051,33.3935507 C70.1767051,31.7215507 69.4017051,30.1545507 68.3737051,28.7095507 C64.3507051,23.0475507 57.8127051,23.8895507 53.6457051,26.5335507 C53.0827051,26.8915507 52.9537051,27.3775507 53.1727051,27.9815507 C53.2677051,28.2445507 53.3747051,28.5025507 53.4747051,28.7635507 C55.5867051,34.2855507 57.6977051,39.8085507 59.8117051,45.3295507 C64.1817051,56.7445507 68.5537051,68.1595507 72.9267051,79.5725507 C73.3837051,80.7645507 73.4177051,80.7865507 74.6607051,80.7895507 C77.1407051,80.7955507 79.6197051,80.7915507 82.0987051,80.7915507 C84.5387051,80.7915507 86.9777051,80.7935507 89.4167051,80.7905507 C90.7767051,80.7885507 90.8317051,80.7525507 91.3237051,79.4625507 C97.9097051,62.2225507 104.493705,44.9825507 111.076705,27.7425507 C111.204705,27.4065507 111.352705,27.0735507 111.433705,26.7255507 C111.556705,26.1995507 111.297705,25.8685507 110.783705,25.7815507 Z M128.323805,57.2531507 C128.642805,57.2381507 128.963805,57.2481507 129.283805,57.2481507 C134.081805,57.2471507 138.880805,57.2471507 143.679805,57.2471507 C148.678805,57.2471507 153.676805,57.2201507 158.675805,57.2571507 C161.595805,57.2791507 163.650805,55.3081507 163.461805,52.5061507 C163.332805,50.5941507 163.329805,48.6711507 163.161805,46.7631507 C162.837805,43.0801507 162.034805,39.5011507 160.470805,36.1311507 C157.949805,30.6961507 153.811805,27.1181507 148.023805,25.5351507 C143.443805,24.2841507 138.787805,24.1201507 134.130805,25.0141507 C125.602805,26.6511507 119.403805,31.4261507 115.777805,39.2981507 C112.233805,46.9961507 111.786805,55.0511507 114.007805,63.1791507 C116.027805,70.5711507 120.619805,75.9311507 127.595805,79.1891507 C131.189805,80.8691507 135.004805,81.7261507 138.936805,81.9661507 C143.338805,82.2361507 147.722805,81.9631507 152.049805,81.0301507 C154.527805,80.4961507 156.910805,79.7331507 159.011805,78.2511507 C163.142805,75.3391507 163.447805,70.5021507 161.327805,66.6261507 C160.857805,65.7661507 160.596805,65.6851507 159.675805,66.1001507 C155.181805,68.1251507 150.473805,69.2481507 145.558805,69.5591507 C141.314805,69.8261507 137.269805,69.1821507 133.543805,67.0331507 C131.128805,65.6401507 129.220805,63.7431507 128.048805,61.1851507 C127.685805,60.3921507 127.391805,59.5501507 127.191805,58.7011507 C126.944805,57.6571507 127.267805,57.3021507 128.323805,57.2531507 Z M127.305805,47.5281507 C128.171805,43.7151507 129.779805,40.3191507 133.215805,38.1631507 C136.429805,36.1461507 139.914805,35.9151507 143.457805,37.1721507 C146.383805,38.2111507 148.138805,40.4321507 149.064805,43.3141507 C149.428805,44.4461507 149.631805,45.6391507 149.811805,46.8191507 C150.021805,48.2011507 149.681805,48.5611507 148.300805,48.5651507 C145.024805,48.5741507 141.747805,48.5681507 138.470805,48.5681507 C135.314805,48.5681507 132.157805,48.5691507 129.000805,48.5671507 C128.681805,48.5671507 128.356805,48.5871507 128.043805,48.5361507 C127.458805,48.4421507 127.172805,48.1121507 127.305805,47.5281507 Z M222.191105,38.1017507 C220.661105,32.3147507 217.164105,28.2997507 211.500105,26.2387507 C208.581105,25.1767507 205.548105,24.7017507 202.463105,24.5647507 C195.100105,24.2357507 187.867105,25.1727507 180.741105,26.9747507 C178.653105,27.5027507 176.599105,28.1727507 174.546105,28.8287507 C173.481105,29.1687507 173.392105,29.3607507 173.361105,30.4837507 C173.351105,30.8437507 173.357105,31.2037507 173.357105,31.5637507 L173.357105,54.9617507 C173.357105,62.9207507 173.356105,70.8797507 173.357105,78.8387507 C173.358105,80.7887507 173.360105,80.7887507 175.359105,80.7887507 C178.879105,80.7897507 182.399105,80.7897507 185.918105,80.7887507 C187.883105,80.7887507 187.884105,80.7877507 187.884105,78.7777507 C187.884105,66.1787507 187.883105,53.5807507 187.886105,40.9817507 C187.886105,39.4257507 188.106105,39.0537507 189.618105,38.7357507 C191.685105,38.3007507 193.767105,37.8417507 195.865105,37.6757507 C197.721105,37.5277507 199.637105,37.5797507 201.473105,37.8757507 C205.011105,38.4467507 207.295105,40.5677507 208.090105,44.1087507 C208.333105,45.1897507 208.427105,46.3257507 208.432105,47.4367507 C208.461105,54.8357507 208.419105,62.2347507 208.470105,69.6337507 C208.480105,71.1397507 208.645105,72.6747507 208.980105,74.1417507 C209.618105,76.9357507 211.071105,79.2427507 213.651105,80.6717507 C216.370105,82.1787507 219.281105,82.3167507 222.266105,81.7397507 C222.804105,81.6357507 223.092105,81.2787507 223.128105,80.7327507 C223.146105,80.4537507 223.142105,80.1727507 223.142105,79.8927507 C223.143105,68.5347507 223.163105,57.1757507 223.127105,45.8167507 C223.119105,43.2197507 222.860105,40.6297507 222.191105,38.1017507 Z M269.723705,66.7329507 C269.018705,67.0149507 268.330705,67.3429507 267.614705,67.5909507 C264.974705,68.5029507 262.283705,68.9989507 259.487705,68.4739507 C257.040705,68.0139507 255.373705,66.6539507 254.586705,64.2479507 C254.132705,62.8609507 253.982705,61.4339507 253.978705,59.9949507 C253.960705,53.3149507 253.969705,46.6349507 253.972705,39.9549507 C253.972705,39.5949507 253.966705,39.2309507 254.023705,38.8779507 C254.137705,38.1719507 254.424705,37.9129507 255.130705,37.8439507 C255.447705,37.8129507 255.769705,37.8299507 256.089705,37.8299507 L267.850705,37.8299507 C268.170705,37.8299507 268.490705,37.8279507 268.810705,37.8239507 C269.382705,37.8159507 269.729705,37.5419507 269.730705,36.9539507 C269.737705,33.4739507 269.736705,29.9939507 269.727705,26.5139507 C269.726705,26.0379507 269.444705,25.7849507 268.970705,25.7639507 C268.651705,25.7489507 268.330705,25.7489507 268.011705,25.7489507 C264.090705,25.7479507 260.170705,25.7489507 256.250705,25.7479507 C254.108705,25.7469507 253.973705,25.6109507 253.971705,23.4119507 C253.967705,19.9319507 253.975705,16.4519507 253.966705,12.9709507 C253.963705,11.5779507 253.878705,11.4949507 252.451705,11.4929507 C248.611705,11.4849507 244.771705,11.4839507 240.930705,11.4939507 C239.529705,11.4969507 239.431705,11.6049507 239.429705,12.9939507 C239.425705,16.4339507 239.428705,19.8739507 239.427705,23.3139507 C239.427705,25.7469507 239.427705,25.7469507 237.052705,25.7479507 C235.532705,25.7489507 234.012705,25.7399507 232.492705,25.7519507 C231.307705,25.7609507 231.200705,25.8629507 231.188705,27.0689507 C231.171705,28.8689507 231.183705,30.6699507 231.182705,32.4699507 C231.182705,33.7099507 231.178705,34.9499507 231.184705,36.1899507 C231.191705,37.7909507 231.226705,37.8239507 232.772705,37.8289507 C233.372705,37.8319507 233.975705,37.8659507 234.572705,37.8239507 C237.386705,37.6259507 239.540705,39.9609507 239.456705,42.6799507 C239.341705,46.3559507 239.427705,50.0389507 239.427705,53.7189507 C239.427705,57.0789507 239.375705,60.4399507 239.449705,63.7989507 C239.488705,65.5899507 239.592705,67.4059507 239.935705,69.1589507 C241.072705,74.9629507 244.373705,78.9869507 250.072705,80.8529507 C254.512705,82.3069507 259.030705,82.3039507 263.569705,81.3639507 C265.751705,80.9119507 267.770705,80.0789507 269.524705,78.6759507 C273.514705,75.4849507 273.308705,70.5319507 271.501705,67.2939507 C271.015705,66.4229507 270.694705,66.3449507 269.723705,66.7329507 Z M322.276705,26.8186507 C318.297705,25.0766507 314.098705,24.4176507 309.766705,24.5096507 C306.178705,24.5856507 302.690705,25.1436507 299.358705,26.5176507 C297.930705,27.1066507 297.815705,27.0376507 297.813705,25.4676507 C297.809705,21.5486507 297.857705,17.6296507 297.789705,13.7116507 C297.763705,12.2436507 297.614705,10.7486507 297.281705,9.32165069 C296.409705,5.58365069 294.221705,2.95365069 290.446705,1.83565069 C288.774705,1.33965069 287.054705,1.34265069 285.331705,1.48265069 C283.367705,1.64265069 283.270705,1.74465069 283.270705,3.71765069 C283.269705,15.7136507 283.270705,27.7106507 283.270705,39.7066507 L283.270705,64.4196507 C283.270705,68.0986507 283.266705,71.7776507 283.271705,75.4556507 C283.275705,78.1796507 283.368705,78.3026507 286.015705,79.1436507 C292.859705,81.3166507 299.873705,82.2316507 307.045705,82.0126507 C311.225705,81.8846507 315.316705,81.2506507 319.261705,79.8386507 C327.766705,76.7926507 333.533705,71.0416507 336.159705,62.3486507 C337.998705,56.2616507 338.221705,50.0556507 336.638705,43.8846507 C334.597705,35.9326507 329.859705,30.1386507 322.276705,26.8186507 Z M321.890705,58.4846507 C320.188705,64.4386507 316.141705,67.9056507 310.150705,69.1826507 C306.729705,69.9116507 303.319705,69.7246507 299.930705,68.9466507 C298.211705,68.5526507 297.819705,68.0666507 297.815705,66.2996507 C297.806705,62.2206507 297.813705,58.1426507 297.813705,54.0636507 C297.812705,50.0256507 297.842705,45.9866507 297.791705,41.9486507 C297.778705,40.9316507 298.108705,40.2956507 299.010705,39.8546507 C304.578705,37.1326507 310.196705,36.6076507 315.766705,39.7166507 C319.642705,41.8816507 321.757705,45.3516507 322.478705,49.7056507 C322.971705,52.6806507 322.709705,55.6206507 321.890705,58.4846507 Z M376.358805,25.7734507 C374.581805,25.0004507 372.693805,24.6494507 370.766805,24.5604507 C367.685805,24.4184507 364.617805,24.5624507 361.559805,25.0054507 C357.067805,25.6564507 352.736805,26.8444507 348.543805,28.5854507 C347.291805,29.1054507 346.812805,29.8344507 346.822805,31.2094507 C346.880805,39.1274507 346.850805,47.0464507 346.850805,54.9654507 L346.850805,55.8054507 C346.850805,63.5644507 346.848805,71.3234507 346.852805,79.0824507 C346.853805,80.7484507 346.897805,80.7874507 348.509805,80.7884507 C351.989805,80.7904507 355.468805,80.7994507 358.948805,80.7854507 C361.148805,80.7764507 361.416805,81.2674507 361.411805,78.2704507 C361.387805,66.0724507 361.401805,53.8734507 361.401805,41.6754507 C361.401805,41.3154507 361.393805,40.9554507 361.404805,40.5954507 C361.436805,39.6284507 361.576805,39.3744507 362.495805,39.1404507 C363.731805,38.8264507 364.979805,38.4944507 366.242805,38.3564507 C370.662805,37.8744507 375.014805,38.2764507 379.276805,39.5724507 C380.312805,39.8864507 380.523805,39.7924507 380.889805,38.7914507 C381.514805,37.0784507 381.717805,35.3024507 381.660805,33.4874507 C381.544805,29.7774507 379.720805,27.2354507 376.358805,25.7734507 Z M405.094405,26.6179507 C405.067405,26.1049507 404.792405,25.8049507 404.272405,25.7669507 C403.954405,25.7449507 403.633405,25.7489507 403.313405,25.7489507 C399.636405,25.7479507 395.958405,25.7469507 392.280405,25.7489507 C390.573405,25.7499507 390.566405,25.7529507 390.566405,27.5019507 C390.564405,41.6139507 390.557405,55.7259507 390.579405,69.8379507 C390.581405,71.0689507 390.673405,72.3209507 390.906405,73.5279507 C391.527405,76.7379507 393.057405,79.3599507 396.091405,80.8899507 C398.466405,82.0879507 400.996405,82.2549507 403.570405,81.8719507 C405.039405,81.6529507 405.106405,81.4949507 405.106405,79.9869507 C405.107405,71.2319507 405.107405,62.4769507 405.107405,53.7219507 C405.107405,45.0469507 405.107405,36.3719507 405.106405,27.6969507 C405.106405,27.3369507 405.113405,26.9769507 405.094405,26.6179507 Z M397.750905,0.00385069256 C393.300905,-0.134149307 388.970905,3.44885069 388.982905,8.85185069 C388.995905,14.1818507 393.473905,17.4858507 397.721905,17.4988507 C401.858905,17.5118507 406.491905,14.2658507 406.515905,8.88185069 C406.541905,3.40185069 402.083905,-0.128149307 397.750905,0.00385069256 Z M452.414605,66.7928507 C451.490605,67.1708507 450.572605,67.5758507 449.619605,67.8638507 C447.224605,68.5868507 444.787605,68.9618507 442.288605,68.4688507 C439.900605,67.9968507 438.159605,66.6968507 437.478605,64.3168507 C437.108605,63.0268507 436.866605,61.6538507 436.854605,60.3158507 C436.793605,53.4768507 436.825605,46.6368507 436.827605,39.7968507 C436.827605,39.4778507 436.815605,39.1528507 436.864605,38.8398507 C436.954605,38.2648507 437.284605,37.8958507 437.891605,37.8488507 C438.210605,37.8238507 438.531605,37.8308507 438.850605,37.8308507 C442.770605,37.8298507 446.690605,37.8298507 450.610605,37.8298507 C452.632605,37.8288507 452.633605,37.8288507 452.633605,35.7488507 L452.633605,27.7088507 C452.633605,27.4688507 452.639605,27.2288507 452.631605,26.9888507 C452.599605,25.9828507 452.419605,25.7928507 451.452605,25.7518507 C451.173605,25.7398507 450.892605,25.7478507 450.612605,25.7478507 C446.653605,25.7478507 442.693605,25.7508507 438.733605,25.7468507 C437.088605,25.7448507 436.835605,25.4988507 436.828605,23.8928507 C436.819605,22.0528507 436.826605,20.2128507 436.825605,18.3728507 C436.824605,16.4528507 436.837605,14.5328507 436.815605,12.6138507 C436.805605,11.7028507 436.653605,11.5688507 435.781605,11.5008507 C435.543605,11.4828507 435.302605,11.4898507 435.062605,11.4898507 C431.382605,11.4898507 427.702605,11.4888507 424.022605,11.4908507 C423.742605,11.4908507 423.462605,11.4958507 423.183605,11.5088507 C422.605605,11.5368507 422.304605,11.8258507 422.320605,12.4228507 C422.328605,12.7418507 422.316605,13.0618507 422.316605,13.3818507 C422.315605,16.9018507 422.321605,20.4218507 422.312605,23.9418507 C422.309605,25.4708507 422.028605,25.7388507 420.476605,25.7458507 C418.837605,25.7538507 417.197605,25.7448507 415.557605,25.7498507 C414.039605,25.7538507 413.955605,25.8398507 413.952605,27.4058507 C413.948605,29.8858507 413.950605,32.3658507 413.951605,34.8458507 C413.953605,38.2488507 413.690605,37.8008507 416.874605,37.8298507 C417.114605,37.8318507 417.354605,37.8278507 417.594605,37.8308507 C420.368605,37.8598507 422.276605,39.7058507 422.304605,42.4938507 C422.342605,46.3738507 422.313605,50.2538507 422.313605,54.1338507 L422.316605,54.1338507 C422.316605,56.2138507 422.286605,58.2938507 422.323605,60.3728507 C422.367605,62.8488507 422.336605,65.3348507 422.570605,67.7948507 C423.223605,74.6808507 427.628605,79.6508507 434.342605,81.2858507 C437.770605,82.1208507 441.230605,82.1848507 444.702605,81.6948507 C447.093605,81.3568507 449.393605,80.6958507 451.441605,79.3488507 C455.913605,76.4088507 456.490605,71.6948507 454.502605,67.5608507 C453.946605,66.4038507 453.586605,66.3138507 452.414605,66.7928507 Z M507.963905,66.1994507 C505.283905,67.3764507 502.524905,68.3134507 499.645905,68.8424507 C495.740905,69.5604507 491.814905,70.0034507 487.861905,69.1964507 C484.292905,68.4674507 481.111905,66.9904507 478.606905,64.2614507 C477.171905,62.6984507 476.204905,60.8754507 475.722905,58.8114507 C475.449905,57.6434507 475.765905,57.2854507 476.970905,57.2504507 C477.290905,57.2414507 477.610905,57.2474507 477.930905,57.2474507 L492.206905,57.2474507 C497.165905,57.2474507 502.124905,57.2054507 507.082905,57.2644507 C509.754905,57.2964507 512.211905,55.6944507 511.985905,52.2554507 C511.867905,50.4614507 511.847905,48.6604507 511.690905,46.8714507 C511.364905,43.1474507 510.565905,39.5304507 508.980905,36.1234507 C506.433905,30.6474507 502.254905,27.0814507 496.415905,25.5004507 C492.428905,24.4204507 488.370905,24.2144507 484.293905,24.7624507 C474.816905,26.0344507 467.981905,31.0194507 464.092905,39.7424507 C460.734905,47.2734507 460.362905,55.1444507 462.481905,63.0734507 C464.111905,69.1754507 467.598905,74.0364507 472.960905,77.4724507 C477.413905,80.3254507 482.362905,81.6414507 487.578905,81.9704507 C491.495905,82.2174507 495.406905,82.0094507 499.278905,81.2814507 C501.961905,80.7774507 504.580905,80.1094507 506.937905,78.6534507 C511.549905,75.8054507 511.988905,70.9294507 510.015905,66.9304507 C509.424905,65.7304507 509.191905,65.6604507 507.963905,66.1994507 Z M475.826905,47.4814507 C475.980905,46.7414507 476.185905,46.0064507 476.436905,45.2924507 C477.341905,42.7224507 478.654905,40.3994507 480.887905,38.7534507 C484.466905,36.1134507 488.391905,35.7344507 492.456905,37.3824507 C495.470905,38.6034507 497.037905,41.1264507 497.843905,44.1604507 C498.088905,45.0824507 498.228905,46.0374507 498.344905,46.9864507 C498.495905,48.2174507 498.166905,48.5594507 496.886905,48.5644507 C493.569905,48.5744507 490.252905,48.5674507 486.935905,48.5674507 C483.818905,48.5684507 480.701905,48.5684507 477.584905,48.5674507 C477.264905,48.5674507 476.941905,48.5874507 476.626905,48.5434507 C475.971905,48.4534507 475.693905,48.1194507 475.826905,47.4814507 Z" fill="#F7682F"></path>
    </g>
</svg>
