<?xml version="1.0" encoding="UTF-8"?>
<svg width="256px" height="308px" viewBox="0 0 256 308" version="1.1" xmlns="http://www.w3.org/2000/svg" preserveAspectRatio="xMidYMid">
    <title>Faker</title>
    <g>
        <path d="M43.5048592,91.6503792 C45.1381371,90.2928495 46.6065135,89.8255144 46.6065135,89.8255144 C46.4354538,92.9565911 46.8295754,95.6175957 47.5411837,97.8618988 C48.037941,99.4760181 48.7550233,101.014871 49.671219,102.433298 C52.3794361,106.603049 55.8670011,108.235643 55.8670011,108.235643 C56.2830183,100.214996 60.3966618,97.5054104 60.3966618,97.5054104 C59.7144757,102.188341 59.7589512,114.186467 63.8554888,123.706966 C68.6342124,134.793687 63.6994823,134.296245 70.3482305,148.20203 C78.7185234,165.685015 102.441766,165.470164 102.441766,165.470164 C88.8397834,169.387431 73.8132156,164.645656 66.4521749,152.468258 C63.5510025,147.652586 62.3782173,143.69837 61.8513534,140.254596 C58.4972149,139.126971 53.0144096,134.377669 52.6805011,134.081394 C52.94667,134.140923 57.3032183,135.134438 61.3983873,135.150175 C61.2581184,132.158683 61.1842206,129.505889 60.1072288,126.832569 C56.1454863,126.350864 51.8559934,123.708334 51.8559934,123.708334 C51.4187648,131.396441 47.4748125,135.224757 43.011523,136.555601 C43.011523,136.555601 41.8797921,142.377105 41.8797921,142.377105 C46.1904964,148.157554 57.061682,156.6688 57.061682,156.6688 C57.061682,156.6688 47.9277786,153.81963 40.9596962,147.066878 C40.1111033,151.415215 39.2625788,155.763552 38.4139858,160.11189 C42.859622,163.703459 47.4960239,166.805798 51.9298912,169.53591 C64.9749034,177.572295 82.7883756,181.22613 87.4021977,181.003752 C91.8394861,180.216193 96.4177278,179.245259 100.965863,178.161424 C96.2986702,177.085801 85.1982646,174.300265 79.0093249,170.897546 C83.5807241,171.126766 101.307298,173.471652 118.293526,173.575656 C134.172655,168.989888 146.579957,164.448595 146.579957,164.448595 C146.579957,164.448595 140.044792,155.314007 144.679825,144.643988 C149.315543,133.973284 159.246585,131.434759 164.017782,130.756678 C168.062317,127.707026 173.464382,116.212499 174.117146,105.720381 C174.79249,94.7746135 167.126963,90.9976155 162.734834,85.313644 C158.342021,79.6296725 155.499009,72.2022606 149.785615,64.8704368 C155.128836,67.5044824 158.65335,72.2617894 158.65335,72.2617894 C159.410118,70.2658649 163.372544,59.0305273 159.891822,52.2259096 C156.055295,44.7462903 147.389411,41.3770301 147.389411,41.3770301 C148.36103,40.2631578 150.861239,39.1217107 150.861239,39.1217107 C138.311615,32.8139872 126.826667,41.0362108 126.826667,41.0362108 C126.500285,39.1796657 126.73019,37.1849729 126.73019,37.1849729 C120.333926,42.5645265 118.52343,52.582398 118.52343,52.582398 C132.065884,52.4932417 136.888399,57.7323895 136.888399,57.7323895 C122.323008,55.2238333 105.968333,56.5598096 93.2934935,62.9857011 C80.6186545,69.4112506 69.2657648,82.7764866 69.2657648,82.7764866 C70.802565,75.0808531 74.8320472,71.615868 74.8320472,71.615868 C68.1237702,66.3615984 61.0001604,67.223055 61.0001604,67.223055 C62.3433211,68.1950846 63.8568572,70.7174624 63.8568572,70.7174624 C60.9543164,70.8871537 58.1078831,71.5864457 55.4571421,72.7804423 C54.2802514,73.3059377 53.1485204,73.9265423 52.0728971,74.6374664 C49.1491448,76.5444398 46.7755205,78.9789614 45.1572958,81.5530677 C42.9088872,85.1001615 42.0856795,88.9052133 43.1606871,91.9569182 C43.2742707,91.8508612 43.3933282,91.7468569 43.5048592,91.6503792 Z M111.802152,87.6954791 C111.802152,87.6954791 113.761128,81.046731 120.751311,78.0490809 C127.741495,75.0507466 141.715019,77.4407926 149.647399,86.0184099 C157.579779,94.5967114 155.256788,103.723772 148.763362,107.218864 C138.879533,112.531978 135.280437,106.707053 127.118837,103.924254 C118.956553,101.14214 108.96872,98.9156265 111.802152,87.6954791 Z M117.552495,110.350625 C122.353798,109.675281 123.971339,112.73246 122.16837,116.909738 C120.365401,121.087016 117.752977,123.073361 115.527148,123.602961 C111.096702,124.643004 105.798641,120.805793 105.664531,117.837566 C105.53042,114.869338 112.75256,111.018442 117.552495,110.350625 Z M120.171761,127.736448 C123.555322,129.777532 131.079896,128.167518 131.569811,118.891293 C131.569811,118.891293 135.903095,124.560212 131.116844,129.479888 C132.445636,131.342386 134.574987,141.449961 127.014149,145.382282 C118.710227,149.708039 112.9592,141.011364 111.720044,138.585738 C106.102443,138.013714 105.078822,132.960611 105.078822,132.960611 C115.556571,138.013714 120.172445,127.736448 120.172445,127.736448 L120.171761,127.736448 Z M71.5901239,114.49848 C72.7040646,101.571841 82.3203563,89.3581794 93.7108792,92.0965029 C104.744914,94.7527178 102.800991,104.896558 100.433525,111.441302 C98.066059,117.986045 98.8604602,121.547508 97.0355954,126.497292 C95.2100463,131.446391 90.4826406,135.313024 84.2273298,134.926429 C76.1888927,134.429672 70.6041358,126.987206 71.5908081,114.49848 L71.5901239,114.49848 Z" fill="#797979"></path>
        <path d="M179.128511,127.483964 C179.128511,127.483964 176.589985,133.401945 166.075288,135.461504 C154.329645,137.763283 146.291892,146.243054 151.702168,153.580831 C157.23766,161.091035 171.069546,159.10948 171.069546,159.10948 C158.640349,165.928604 149.230698,158.04891 149.230698,158.04891 C153.631721,168.668296 169.72707,172.094963 182.712553,161.335309 C195.697353,150.575654 196.840716,136.944249 196.840716,136.944249 C195.290231,140.417445 192.05515,144.164337 191.854668,144.394925 C192.031886,143.963855 195.927941,134.421461 195.386708,127.171951 C194.829738,119.751381 189.056131,114.06741 178.8685,109.489168 C178.415534,119.892335 170.854011,129.969803 170.854011,129.969803 C174.208834,129.466204 179.128511,127.483964 179.128511,127.483964 Z" fill="#797979"></path>
        <path d="M109.361473,119.292257 C112.937989,122.126374 115.646206,120.946747 118.013672,118.298058 C120.381138,115.648686 119.638055,113.430384 116.143647,114.468374 C112.648556,115.506364 110.882535,116.547776 109.279364,117.526237 C108.90098,117.756825 108.06963,118.267952 109.361473,119.292257 Z" fill="#797979"></path>
        <path d="M161.275353,190.434615 C168.761609,194.449728 180.767947,204.311662 184.559998,223.804256 C184.167245,222.97359 171.712731,196.802141 144.161857,195.800416 C113.655755,204.666782 81.7709126,210.670293 76.1375019,210.536866 C76.0417813,215.293694 85.1914222,271.13442 89.027949,289.996831 C110.079239,301.038392 141.159417,296.445097 154.69845,293.106012 C178.169892,286.472317 193.967597,259.142452 193.967597,259.142452 C192.802338,272.840912 183.199731,283.770942 182.902772,284.113062 C196.75587,277.619636 215.545067,261.145903 218.297759,255.031545 C210.145054,228.717775 201.993034,202.404688 193.840329,176.090918 C186.007163,181.126915 174.312838,186.009643 161.275353,190.434615 Z" fill="#797979"></path>
        <path d="M32.9454127,135.72083 C31.6086838,135.038644 30.556393,134.140923 29.9399623,133.109091 C29.9399623,133.109091 31.2982447,133.568899 33.2572887,133.791961 C34.3704768,133.920598 35.4933811,133.942494 36.6108798,133.858332 C37.9535616,133.747486 39.3637777,133.450526 40.7145334,132.834711 C42.0821899,132.225054 43.2947979,131.314332 44.260943,130.170969 C47.0437421,126.883202 47.5712902,122.631342 46.5250891,118.549858 C46.0769127,116.81805 45.3844631,115.158771 44.4689516,113.622655 C43.4494358,111.890162 42.1708673,110.32394 40.6774477,108.978042 C39.7565992,108.137112 38.749126,107.395398 37.6720657,106.766582 C36.4823114,106.065922 35.2047007,105.526742 33.8728299,105.163411 C23.543014,102.380612 11.2104312,115.151244 17.6095691,132.678705 C20.4367068,140.433183 24.9332504,146.9704 30.194636,152.543525 L32.9454127,135.72083 Z" fill="#797979"></path>
        <path d="M200.395336,124.638899 C200.395336,124.638899 207.200091,142.136937 189.478991,161.526211 C177.977621,173.76998 159.619495,176.738208 149.971728,168.382968 C149.971728,168.382968 120.660992,179.334894 96.3547778,184.0623 C72.0595117,188.789021 54.3548334,189.850275 58.4725823,178.467279 C56.6408751,177.687931 54.4369421,176.522672 52.2699579,175.291727 C40.0856496,179.550429 37.0728094,189.204354 40.239398,196.165115 C33.8869937,192.70013 30.7554381,181.020858 45.9681187,171.529098 C44.2828387,170.476054 43.1771088,169.74734 43.1771088,169.74734 C43.1771088,169.74734 29.7907983,175.282832 23.9137346,184.988759 C18.0366709,194.694686 22.6749887,204.341084 35.1710362,205.951098 C47.6670836,207.561112 82.723373,206.698287 132.998501,193.340577 C183.273629,179.983552 221.666951,156.423159 226.865113,141.583388 C232.063275,126.743617 210.784133,123.343635 200.395336,124.638899 Z" fill="#797979"></path>
        <path d="M117.752977,97.0606552 C117.952775,97.515674 119.917224,99.1941117 120.301766,99.6292876 C120.685624,100.064463 121.525185,100.337475 121.525185,100.337475 C122.957981,100.780861 124.390093,101.224248 125.822889,101.666951 C127.255001,102.110337 130.460659,102.657044 130.615982,102.750101 C130.77062,102.842473 134.488089,103.757984 134.488089,103.757984 C134.488089,103.757984 141.684228,103.553397 141.807391,103.553397 C141.930554,103.553397 144.250808,102.842473 144.34318,102.780207 C144.434868,102.717941 146.785228,100.552326 146.785228,100.552326 C147.104768,98.8410445 147.424307,97.1304476 147.743847,95.4191664 C147.743847,93.8426803 147.743847,92.2655099 147.743847,90.6890238 C147.743847,89.1118534 145.115686,85.1549006 145.084895,85.0310533 C145.05342,84.9072061 143.923057,83.3231934 143.923057,83.3231934 C143.238819,82.7799078 142.553896,82.2366222 141.868973,81.6933366 C141.868973,81.6933366 136.736498,79.9334745 136.736498,79.9334745 C136.736498,79.9334745 134.30266,79.2492357 134.211656,79.2280243 C134.119968,79.2074971 130.983418,78.9755402 130.890361,79.0590173 C130.797305,79.1418102 127.548539,79.0590173 127.548539,79.0590173 C126.498233,79.0145418 125.447242,78.9693821 124.396935,78.9249065 C123.346629,78.880431 120.731468,79.8787354 120.609674,79.9334745 C120.487879,79.9888978 117.534705,82.2845189 117.472439,82.3768911 C117.409489,82.4692634 116.235335,85.6099194 116.235335,85.6099194 C116.235335,85.6099194 115.741315,88.1587088 115.70984,88.2517653 C115.678365,88.3448217 116.359867,93.6935162 116.359867,93.6935162 C116.359867,93.6935162 117.552495,96.6056364 117.752977,97.0606552 Z" fill="#797979"></path>
        <path d="M79.1968063,126.279019 C80.5262823,126.773724 81.8557582,127.269113 83.1852341,127.763817 C85.1797902,127.763817 87.1736619,127.763817 89.168218,127.763817 C89.3078027,127.763817 92.5538314,125.769946 92.5538314,125.769946 C93.5275032,125.106234 94.5018592,124.442522 95.475531,123.778127 C96.449887,123.114415 97.0527014,120.436304 97.0992296,120.065447 C97.1457578,119.693905 97.5166152,115.451625 97.5166152,115.451625 C97.5166152,115.451625 98.5409207,112.169332 98.6339772,111.902478 C98.7277179,111.635625 99.0472574,109.908607 99.2655295,109.674597 C99.4838017,109.440587 99.9785063,107.446716 99.9785063,107.446716 C99.9785063,107.446716 100.620322,105.03409 100.620322,105.03409 C100.589532,104.161001 100.558741,103.287912 100.52795,102.414824 C100.558741,101.51026 100.589532,100.605696 100.620322,99.7011327 C100.064036,98.8513081 99.5077501,98.0007993 98.951464,97.1502905 C98.3322279,96.4414191 97.713676,95.733232 97.0944399,95.0243606 C95.9045487,94.8512482 94.7139732,94.6774516 93.5233978,94.5043392 C93.3687598,96.4831577 93.2141218,98.4619762 93.0594839,100.440795 C90.6790172,100.023409 88.2985505,99.6060235 85.9173996,99.1886378 C82.5092062,100.847233 79.1010129,102.505827 75.6928196,104.164422 C75.6928196,104.164422 74.9073134,105.776489 74.9073134,105.776489 C74.235391,108.111111 73.5627843,110.44505 72.8901775,112.779673 C73.2452975,115.206668 73.6011016,117.633662 73.9562215,120.060657 C74.3120257,122.487652 76.8786054,124.605371 77.0175058,124.698428 C77.1564063,124.791484 79.1968063,126.279019 79.1968063,126.279019 Z" fill="#797979"></path>
        <path d="M219.026474,246.907578 C217.712051,243.244164 216.398312,239.580749 215.084574,235.917335 C213.584723,231.03187 212.085556,226.146405 210.585704,221.26094 C210.585704,221.26094 204.973578,204.470405 204.973578,204.470405 C203.69063,199.847688 202.407682,195.224971 201.124735,190.602938 C199.130179,184.68222 197.135623,178.761502 195.141751,172.840784 C195.141751,172.840784 158.841515,188.640541 158.841515,188.640541 C152.059341,190.537251 145.276482,192.433277 138.494307,194.329987 C132.557851,196.081638 126.621396,197.833973 120.68494,199.586309 C120.68494,199.586309 102.384974,203.356464 102.384974,203.356464 C95.7895966,204.757785 89.1935348,206.159791 82.5981573,207.561112 C80.5160187,208.159136 78.4345643,208.757161 76.3524257,209.355186 C93.4193935,217.085031 111.850049,203.294199 135.097746,211.211526 C158.346126,219.129537 173.560176,236.441462 174.05488,248.809078 C174.05488,248.809078 180.176765,241.882529 180.548306,234.40243 C187.288058,263.280044 171.458194,288.633827 118.89634,298.279541 C118.89634,298.279541 140.107742,299.825921 151.361417,297.22855 C162.615092,294.631864 172.386022,291.230513 172.386022,291.230513 C176.663198,289.442597 180.940375,287.653997 185.216867,285.866081 C188.339733,284.320386 191.462599,282.77469 194.585465,281.228311 C197.939603,278.60015 201.294426,275.971989 204.649249,273.343827 C208.3284,269.865842 212.008237,266.387172 215.687388,262.909186 C217.465041,260.404872 219.242693,257.899874 221.020345,255.39556 L219.026474,246.907578 Z" fill="#4B4B4B"></path>
        <path d="M107.765828,178.639023 C109.342998,177.865833 110.919484,177.093328 112.496655,176.320138 C107.765828,163.936784 103.035001,151.554115 98.3041741,139.171446 C98.3041741,139.171446 62.4705895,131.040637 62.4705895,131.040637 C62.4705895,131.040637 56.2864395,129.772058 50.4396191,126.279019 C50.4396191,126.279019 48.3095838,121.223179 48.3095838,121.223179 C42.4308096,110.773484 31.5202802,109.489853 24.8427256,117.219698 C18.1651025,124.949543 21.1296355,138.05819 32.4485869,148.817845 C43.7676069,159.577499 69.4272451,177.3246 99.6042277,180.045818 L107.765828,178.639023 Z" fill="#4B4B4B"></path>
        <path d="M125.91663,100.058305 C132.005671,102.469563 141.016411,107.960579 146.952867,104.525016 C152.889322,101.090137 152.963904,93.3206061 144.993891,86.545958 C143.539199,85.313644 135.636926,79.2512884 127.14826,79.9930033 C118.659593,80.7347181 113.642755,87.414257 114.969494,92.5487848 C116.296233,97.6826283 120.261396,97.8174233 125.91663,100.058305 Z M123.964497,91.8734411 C124.275825,88.1039697 127.78597,85.3068016 131.815452,85.6352362 C135.844934,85.964355 138.858322,89.274018 138.553151,93.0407524 C138.531256,93.3685028 138.481306,93.6935162 138.404672,94.0130557 C137.358471,91.7571205 135.043007,90.0773143 132.241049,89.8494628 C128.567371,89.5525032 125.317921,91.8460715 124.552942,95.111259 C124.081501,94.1006383 123.878967,92.9853291 123.964497,91.8734411 Z" fill="#4B4B4B"></path>
        <path d="M84.4804981,131.795352 C93.4364994,131.520973 94.5942314,122.846193 95.9825519,115.982594 C97.3701881,109.118311 102.616247,101.898908 95.9825519,96.7335891 C88.8952067,91.2131507 76.3325828,99.8133478 75.0708465,112.131014 C74.3886605,118.779762 75.5313392,132.077259 84.4804981,131.795352 Z M82.3360938,110.090614 C84.139063,106.477149 88.3464472,104.919138 91.7300079,106.600312 C92.7269438,107.100491 93.5781369,107.849732 94.2014784,108.774823 C91.008136,107.742991 87.3693542,109.337952 85.7203388,112.635982 C84.4661291,115.151244 84.7028757,118.001099 86.0980386,120.062026 C85.783973,119.963495 85.4788025,119.839648 85.1852641,119.691168 C81.8010191,118.001099 80.525598,113.704763 82.3360938,110.090614 Z" fill="#4B4B4B"></path>
        <path d="M112.279751,121.297077 C114.507632,122.131848 114.70743,122.50339 116.222335,121.297077 C117.737239,120.091448 119.870696,118.00452 119.870696,118.00452 C120.149181,117.411969 120.426982,116.820103 120.705467,116.227552 C120.705467,115.814956 120.705467,115.40236 120.705467,114.990448 C120.705467,114.928867 120.025334,113.243586 120.025334,113.243586 C120.025334,113.243586 119.208353,112.686616 119.159088,112.686616 C119.110507,112.686616 117.98425,112.65651 117.659921,112.748882 C117.335591,112.841938 116.592508,112.887782 116.113541,113.120423 C115.634574,113.353065 112.094322,115.175877 112.094322,115.175877 C112.094322,115.175877 110.05187,120.465727 112.279751,121.297077 Z" fill="#4B4B4B"></path>
        <path d="M51.0916987,96.828014 C51.5323485,95.2515279 54.152983,92.9175895 54.152983,92.9175895 C52.854982,100.647435 57.2142672,105.22294 57.2142672,105.22294 C66.767609,106.583206 70.7875118,103.615663 70.7875118,103.615663 C70.7875118,103.615663 89.2783804,78.2002977 73.9411683,74.1188134 C58.6039562,70.0373291 51.3236556,81.6194388 51.3236556,81.6194388 C53.388004,80.8079316 57.2142672,80.923568 57.2142672,80.923568 C49.4228403,86.5322732 51.0916987,96.828014 51.0916987,96.828014 Z" fill="#4B4B4B"></path>
        <path d="M149.9382,72.6969652 C151.814383,72.037359 153.689882,71.3777529 155.56538,70.7174624 C161.068028,57.8556894 152.148976,52.1665177 152.148976,52.1665177 C154.011474,52.1080837 155.876024,52.1700757 157.730312,52.3521516 C149.307332,42.0869963 136.767288,45.9515085 136.767288,45.9515085 C137.817595,43.6331022 140.414965,41.2834947 140.414965,41.2834947 C130.39771,41.5307786 122.884768,48.549221 121.896043,53.9599075 C121.896043,53.9599075 126.069899,62.1851418 126.069899,62.1851418 L149.9382,72.6969652 Z" fill="#4B4B4B"></path>
        <path d="M176.752834,129.59484 C181.993418,126.742249 180.270505,120.12566 176.498297,116.969951 C176.498297,116.969951 170.561157,126.832569 169.540957,129.965698 C168.521441,133.098827 171.512249,132.446748 176.752834,129.59484 Z" fill="#4B4B4B"></path>
        <path d="M148.686728,181.282922 C186.267174,172.378238 216.722642,150.364224 219.072318,140.531713 C221.421994,130.699886 205.591445,130.761468 205.591445,130.761468 C204.293444,136.2648 199.873262,141.072946 199.873262,141.072946 C199.873262,141.072946 195.708985,147.513685 194.740787,149.584876 C195.596085,147.753169 196.451384,145.921462 197.306682,144.089755 C197.66796,142.82186 198.028554,141.55465 198.389832,140.286756 C198.667633,138.101981 198.946118,135.917207 199.224604,133.732432 C199.0077,131.64003 198.79148,129.548312 198.574577,127.45591 C197.873916,125.373771 197.173256,123.292317 196.473279,121.210179 C194.998745,118.974086 193.524895,116.73731 192.051044,114.501217 C190.793413,113.666446 189.536467,112.831675 188.278836,111.996903 C187.712286,112.192596 187.145052,112.388972 186.578503,112.584665 C186.011953,112.781041 195.606349,124.611529 189.021919,139.82421 C189.021919,139.82421 189.918956,133.609269 188.557321,129.929433 C188.557321,129.929433 184.817956,145.296752 171.398665,152.34578 C157.979374,159.395492 148.174917,146.705599 157.299241,137.443059 C157.299241,137.443059 152.1045,138.153983 151.246465,140.124591 C150.387745,142.095883 147.961435,142.885494 147.21972,146.347743 C146.770859,148.481883 146.584062,150.661868 146.662065,152.840484 C146.450635,154.566819 146.443793,156.311628 146.642222,158.038646 C146.972025,160.883027 149.692559,164.098949 149.692559,164.098949 C150.053153,164.393172 150.413746,164.688079 150.77434,164.982301 C148.620357,165.842389 146.467057,166.701793 144.313073,167.561882 C137.449474,169.987508 130.585191,172.413134 123.721592,174.839445 C117.136478,176.415931 110.552048,177.993102 103.967618,179.569588 C97.5521957,181.022911 91.1360887,182.476234 84.7206659,183.929557 C80.7938196,183.991139 76.8669733,184.05272 72.9408112,184.114302 C70.5288695,183.666125 68.1176121,183.217949 65.7056704,182.769772 C64.7785269,181.146758 63.8506991,179.52306 62.9228713,177.900045 C59.2977743,176.068338 55.671993,174.236631 52.046896,172.404924 C50.648312,172.768254 49.2490437,173.131585 47.8497754,173.494916 C45.8504297,174.732704 43.8517682,175.970492 41.8524225,177.20828 C39.8533505,178.446068 35.9776168,185.246033 37.029155,189.758587 C38.1111418,194.457255 39.5020623,205.403023 82.1698238,198.477158 C124.837585,191.551977 148.686728,181.282922 148.686728,181.282922 Z M189.734212,157.103976 C190.399976,156.230203 191.06574,155.357115 191.731505,154.483342 C190.849521,155.79229 189.883376,157.202506 188.930915,158.650356 C186.567555,162.242609 183.121044,163.444133 180.572255,165.397634 C182.080317,164.240587 183.588379,163.084223 185.097126,161.927175 L189.734212,157.103976 Z M174.058986,167.956687 C176.085017,167.208814 178.111048,166.460941 180.137079,165.713068 C177.983095,167.216341 175.114766,168.177696 171.10239,169.027521 L174.058986,167.956687 Z M153.933471,167.555039 C153.933471,167.555039 162.406399,170.117513 162.406399,170.117513 C160.186045,170.117513 158.36118,169.840397 156.877066,169.362798 C154.150374,168.485604 150.795552,165.002144 150.771603,164.978196 L153.933471,167.555039 Z" fill="#4B4B4B"></path>
        <path d="M118.89634,119.569374 C120.535092,118.796184 120.303135,117.157432 120.319557,117.080113 C120.335978,117.002794 120.720521,116.029123 120.890896,115.070504 C121.061956,114.111885 120.133444,113.864191 118.960658,113.23127 C117.787189,112.597665 115.497726,113.014366 115.497726,113.014366 C115.137132,113.385224 114.775854,113.756766 114.41526,114.128307 C117.909668,116.075651 113.581173,118.271373 113.271213,121.796571 C115.031075,122.460283 117.255535,120.342564 118.89634,119.569374 Z" fill="#383838"></path>
        <path d="M69.6893086,116.631937 C69.6893086,116.817366 70.8949373,125.072706 71.0352062,126.627981 C71.1747909,128.182572 73.4923077,132.632861 73.6339451,133.003034 C73.7755825,133.373891 82.3059873,138.939489 83.0490706,139.264503 C83.7914697,139.588832 88.984842,139.681204 89.1244267,139.588832 C89.2640114,139.495775 95.9880258,135.504611 96.1269263,135.368447 C96.2658268,135.232284 99.8840814,125.026178 99.8840814,125.026178 C99.2190013,121.563246 98.5539212,118.100313 97.8895254,114.637381 C95.6171684,114.684593 89.9284072,125.165763 84.4551813,125.628308 C78.9826396,126.090854 76.0766775,120.805109 74.5001914,113.632234 C74.4974544,113.632918 69.6893086,116.446508 69.6893086,116.631937 Z" fill="#383838"></path>
        <path d="M143.074601,113.632918 C143.26003,113.632918 151.793856,112.210386 153.711093,111.591834 C155.62833,110.973282 158.595874,106.583206 158.595874,106.583206 C159.585967,103.656033 160.576061,100.729544 161.566154,97.8023701 C162.556248,94.8758808 159.216478,91.6804858 159.154897,91.4943728 C159.093315,91.3089441 150.248161,79.1281254 145.05342,76.8147142 C139.858679,74.5013029 141.405059,75.5440828 140.787191,75.358654 C140.169323,75.1725411 137.323574,76.6573392 137.200411,76.8147142 C137.077248,76.9720891 136.890451,81.1089967 136.890451,81.1089967 C145.733553,85.7467671 147.604262,95.764707 142.734535,99.057264 C137.864123,102.350505 132.993711,99.5218621 126.626185,101.422677 C126.626185,101.422677 127.615595,106.02692 127.740126,106.21577 C127.865342,106.403936 142.888488,113.632918 143.074601,113.632918 Z" fill="#383838"></path>
        <path d="M59.1000293,88.5275135 C58.1113043,91.6462738 58.2344672,96.4578409 59.1150825,99.8660342 C59.1150825,99.8660342 59.1616108,101.466469 59.1616108,101.605369 C59.1616108,101.74427 71.2664789,96.3182562 71.2664789,96.3182562 C73.6318924,93.1645997 75.9973058,90.0109431 78.362035,86.8572866 C80.7274485,83.7036301 79.336391,80.4569171 71.9623498,78.1845602 C64.5883085,75.9122032 60.5191405,80.4726546 60.5191405,80.4726546 C61.5708155,80.4103889 63.0549294,80.7819306 63.0549294,80.7819306 C57.3039025,84.6314579 56.499922,90.4440663 56.499922,90.4440663 C57.0288385,89.6400857 59.1000293,88.5275135 59.1000293,88.5275135 Z" fill="#383838"></path>
        <path d="M147.001448,70.9480509 C147.001448,70.9480509 149.737718,72.1071514 152.01076,66.9133686 C154.283117,61.7195173 148.844787,56.5828684 148.844787,56.5828684 C149.684348,56.8428791 150.508856,57.1485286 151.314889,57.4985167 C147.372989,49.5228243 139.162124,50.7287951 139.162124,50.7287951 C139.77657,49.905998 141.435165,49.0126559 141.435165,49.0126559 C132.901339,47.0187157 127.676492,54.5473265 127.676492,54.5473265 C127.547171,55.6860366 127.418534,56.8246784 127.289213,57.9633885 C128.835592,60.1585634 130.381288,62.3537382 131.926983,64.548913 L147.001448,70.9480509 Z" fill="#383838"></path>
        <path d="M174.611851,121.331289 C172.674086,123.990241 170.736322,126.649877 168.798558,129.308829 C168.716449,130.339292 168.633656,131.369756 168.551548,132.400219 C170.78764,131.513446 173.024417,130.627357 175.261193,129.740583 C178.075467,126.062116 176.528403,122.782559 174.611851,121.331289 Z" fill="#383838"></path>
        <path d="M151.987496,157.931221 C150.997402,157.389988 150.007309,156.848755 149.017215,156.308206 C148.499246,156.578481 147.981962,156.848755 147.463993,157.119714 C147.463993,157.830638 147.463993,158.542246 147.463993,159.25317 C147.463993,159.322962 148.391137,161.455735 148.391137,161.455735 C149.356597,162.770157 150.321374,164.083896 151.286835,165.398319 C152.88727,166.294671 154.48702,167.191708 156.087454,168.088061 C158.189436,168.567028 160.292102,169.04668 162.394083,169.525647 C163.793351,169.664547 165.19262,169.804132 166.591888,169.943032 C167.990472,170.081933 172.08701,168.992625 172.18075,168.922832 C172.273807,168.85304 176.818521,167.416139 176.910209,167.299134 C177.002581,167.182813 179.894174,166.317935 185.153233,164.369908 C190.412292,162.42188 194.429458,158.063279 195.851306,155.991404 C201.014572,153.332452 207.24525,145.246802 198.896169,142.974445 C198.896169,142.974445 197.102779,141.953561 197.70833,138.708217 C198.313197,135.462188 196.301535,132.771761 194.352823,139.125602 C192.404111,145.479444 185.433087,152.373833 185.433087,152.373833 C186.299333,150.581128 186.654453,144.501666 186.654453,144.501666 C182.759082,150.206849 175.229718,160.254211 165.088615,160.193314 C161.904168,159.871722 158.719721,159.549445 155.534589,159.227853 L151.987496,157.931221 Z" fill="#383838"></path>
        <path d="M165.413629,171.682367 C160.48232,169.966297 155.550327,168.250226 150.619018,166.534155 C149.90741,166.339147 149.196486,166.143455 148.484877,165.947762 C143.723944,167.854051 138.962326,169.759656 134.200709,171.665946 C129.820896,172.964631 125.4404,174.263316 121.060587,175.562001 C119.869328,175.861698 118.677384,176.162079 117.486124,176.462459 C119.317831,175.87333 121.149538,175.2842 122.981245,174.695071 C125.764045,173.813771 128.546844,172.933156 131.329643,172.051856 C131.329643,172.051856 149.78151,165.143097 149.78151,165.143097 C148.885157,163.519399 147.988804,161.896384 147.091767,160.27337 C146.582009,157.738265 146.071567,155.203161 145.561809,152.667372 C145.175214,152.203458 144.788619,151.739544 144.402024,151.27563 C144.886466,150.065212 145.370907,148.854109 145.854663,147.643007 C131.324169,148.343667 116.793674,149.044328 102.26318,149.745672 C87.732685,150.446333 64.604046,140.717142 58.4814774,135.955524 C58.4814774,135.955524 53.3490024,134.564467 51.5562968,133.605848 C51.5562968,133.605848 53.4571121,137.59496 55.9853744,139.495775 C55.9853744,139.495775 49.3297838,136.57476 45.5726287,133.443684 C46.229498,131.913041 46.8870514,130.383084 47.5439206,128.852441 C47.4276001,128.365263 47.3119637,127.878085 47.1963273,127.390907 C47.080691,126.904414 44.9684459,116.909738 34.334828,119.136251 C23.7013469,121.362764 26.1408634,136.203219 33.4994408,141.211846 C33.4994408,141.211846 37.3031242,140.717142 41.9406893,145.231065 C46.5784597,149.744988 48.9821905,151.57738 48.9821905,151.57738 C50.4355137,152.496996 51.8881526,153.417298 53.3414758,154.336914 C59.0808706,158.209706 69.782365,163.565927 78.316191,166.673055 C78.316191,166.673055 70.6321896,167.183497 65.624246,166.376096 C65.624246,166.376096 81.2994721,172.560246 93.480975,174.167523 C105.663162,175.775484 110.826428,177.939731 110.826428,177.939731 C111.582512,177.815884 112.338596,177.692037 113.094679,177.568189 C113.094679,177.568189 108.909191,178.627391 108.909191,178.627391 C104.817443,179.709857 100.726379,180.792322 96.6353157,181.874788 C92.8528438,182.524131 89.0703718,183.173473 85.2878999,183.822816 C80.9388782,184.203937 76.5891723,184.585058 72.2401507,184.966179 C68.7977454,182.348281 65.3553402,179.731068 61.9136191,177.113171 C59.3880938,176.638309 56.8632527,176.164131 54.3384117,175.68927 C48.4950125,179.462847 45.1251366,189.263198 57.368221,193.281733 C69.6119896,197.300951 114.814856,191.67514 151.17462,173.123374 C151.17462,173.119953 162.25792,174.140153 165.413629,171.682367 Z" fill="#383838"></path>
        <path d="M217.805107,244.417633 C216.9806,241.470617 216.156092,238.5236 215.3309,235.5759 C215.3309,235.5759 211.00309,223.332815 211.00309,223.332815 C209.694141,219.065902 208.385192,214.798989 207.076243,210.532076 C206.107361,207.398947 205.138479,204.265818 204.169597,201.132688 C204.169597,201.132688 201.170579,190.650835 201.170579,190.650835 C200.047743,187.012053 198.924223,183.373271 197.800703,179.734489 C196.666919,177.518924 195.533135,175.303359 194.399352,173.08711 C192.328161,174.014937 190.25697,174.942081 188.185779,175.869909 C185.114232,177.404656 182.042684,178.939404 178.971136,180.474151 C174.292311,182.422179 169.614171,184.370891 164.935346,186.318919 C160.689644,187.524548 156.443258,188.730176 152.197557,189.935805 C147.951855,191.141434 161.658526,193.708014 164.255213,196.72277 C166.852583,199.736841 171.768154,201.498756 173.484909,204.375296 C175.20098,207.251152 177.519181,208.966538 178.400481,211.192367 C179.282464,213.418196 180.628362,214.430869 181.600665,217.314251 C185.635621,225.430692 189.206664,234.954611 189.392092,238.97383 C189.392092,238.97383 191.680187,231.119453 191.742453,221.967759 C191.742453,221.967759 202.779224,255.823894 186.672243,272.736223 C171.026439,289.246221 178.817866,288.720725 183.734122,286.432631 C188.650378,284.144536 197.616642,278.517357 197.616642,278.517357 C200.666979,276.116363 203.717315,273.714685 206.767652,271.313691 C209.406076,268.860695 212.045185,266.408383 214.68361,263.955387 C216.734274,261.409335 218.785622,258.863967 220.836969,256.317914 C220.908814,255.854 220.979975,255.390086 221.05182,254.926172 L217.805107,244.417633 Z" fill="#383838"></path>
        <path d="M115.000969,258.640905 C110.916063,226.547369 84.669348,213.654258 74.2805507,214.071644 C78.362035,239.646436 82.4428351,265.221913 86.5243193,290.79739 C86.7617502,291.085455 86.9984968,291.374203 87.2359277,291.662952 C92.3889299,293.455658 97.5419321,295.249048 102.695619,297.041753 C135.83946,288.013223 121.864568,248.128944 118.092359,243.366643 C118.772493,252.517652 115.000969,258.640905 115.000969,258.640905 Z" fill="#A7A5A5"></path>
        <path d="M229.623964,132.980454 C228.93562,131.874724 228.24796,130.769678 227.559615,129.664633 C226.431306,128.589694 225.302312,127.515439 224.174002,126.4405 C222.581778,125.745313 220.989555,125.049442 219.397331,124.354256 C216.669271,123.874604 213.940527,123.395637 211.211783,122.915986 C210.956562,123.201998 210.702025,123.488009 210.446804,123.774021 C224.174002,126.55682 227.324921,140.005533 217.217346,155.496015 C218.631668,154.885674 220.046674,154.274649 221.460995,153.664308 C222.373085,152.62837 223.285176,151.593117 224.197266,150.55718 C225.109356,149.521242 227.629408,146.243738 227.652672,146.175999 C227.675252,146.107575 229.461799,141.537544 229.461799,141.537544 C229.592489,140.208068 229.723863,138.878592 229.855236,137.548432 L229.623964,132.980454 Z" fill="#A7A5A5"></path>
        <path d="M32.4485869,200.390974 C22.0601318,191.980311 27.8109534,181.37461 40.9826866,169.316954 C40.9826866,169.316954 34.5219673,171.883534 26.111099,178.470016 C17.7002307,185.055814 18.3811851,190.7131 18.3811851,190.7131 C18.5975414,193.114094 18.8138977,195.515772 19.030254,197.916766 C19.2466103,200.31776 22.0289305,203.23467 22.5242509,203.730059 C23.0195714,204.225448 29.3563067,206.997299 29.3563067,206.997299 C31.7371155,207.381157 34.1179927,207.765015 36.4988015,208.148189 C38.8796103,208.532047 46.7939949,209.849206 46.9178422,209.849206 C49.1854095,209.849206 51.4522925,209.849206 53.7198598,209.849206 C58.749699,208.828322 63.778854,207.808122 68.8086933,206.787238 C73.8378482,205.766353 42.8370421,208.800952 32.4485869,200.390974 Z" fill="#A7A5A5"></path>
        <path d="M33.3501399,153.823735 C16.5870427,137.777652 14.7847577,120.88106 20.4828245,113.327748 C26.1808913,105.774436 34.1803953,105.219518 38.8796103,106.704317 C38.1736128,105.776489 37.4676836,104.849345 36.761686,103.921517 C35.3012468,103.565713 33.8407391,103.209909 32.3802315,102.854789 C30.8883857,102.854789 29.396403,102.854789 27.9044888,102.854789 C26.4205118,103.324861 24.9365347,103.794933 23.4524892,104.26569 C21.73635,105.710802 20.0201423,107.155914 18.304003,108.601711 C17.3533901,110.286991 16.4028456,111.972271 15.4523011,113.657551 C14.7953634,115.473521 14.1383574,117.290175 13.4814197,119.106829 C13.4814197,120.536888 13.4814197,121.966947 13.4814197,123.397006 C13.7363671,125.653625 13.9913144,127.910245 14.2463302,130.166864 C14.9419274,132.099839 15.6374561,134.032129 16.3330532,135.964419 C17.5311553,138.407152 18.7292574,140.849884 19.9273595,143.292616 C21.6588941,146.052151 23.3904288,148.811686 25.121895,151.570537 C26.567281,153.155234 28.012667,154.739247 29.458053,156.32326 C32.0628815,158.518982 34.6677786,160.71402 37.2726071,162.909742 C37.2726071,162.909742 45.6670537,168.482183 45.6670537,168.482183 C48.0783111,169.865713 50.4902528,171.249244 52.9015102,172.632775 C55.600148,173.985515 58.2981015,175.338255 60.9960549,176.690995 C64.8147915,177.98968 68.6328439,179.288366 72.4508962,180.587051 C72.4508962,180.587051 85.3227961,182.210065 85.3227961,182.210065 C69.0331236,177.209648 50.1139215,169.87324 33.3501399,153.823735 Z" fill="#A7A5A5"></path>
        <path d="M43.7949764,95.0503617 C44.0214594,94.5453935 44.2486267,94.0404253 44.4751097,93.5354571 C44.8979693,95.2665812 45.3201446,96.9983895 45.7430042,98.7301978 C46.5264576,100.255366 47.309911,101.780534 48.0933644,103.305703 C48.8768178,104.831555 51.1847552,107.078595 51.2778116,107.26334 C51.3701839,107.448084 56.7195626,110.788538 56.7195626,110.788538 C56.7606169,109.6137 56.8016713,108.438178 56.8427256,107.26334 C54.4773121,106.011183 47.5671848,98.6371414 48.6804412,88.1559718 C48.6804412,88.1559718 46.6400412,88.1867626 44.9677617,89.2377533 C44.9677617,89.2377533 45.9434862,75.0767477 63.1171951,70.4704522 C62.8448681,70.1125954 62.5725411,69.7540542 62.300214,69.3961974 C62.027887,69.0376563 69.4847212,68.2448972 75.6373962,72.3568985 C75.99799,72.1194677 76.3585839,71.8827211 76.719862,71.6452902 C76.5139061,71.0472655 76.3079502,70.4499251 76.1019943,69.8519004 C74.8443635,69.0376563 73.5867326,68.223549 72.3291017,67.4094417 C70.5877141,66.8633507 68.8456421,66.3172597 67.1042545,65.7712372 C65.7029335,65.637058 64.3009282,65.5028787 62.8996072,65.3686995 C61.6214492,65.5130055 60.3432911,65.6573799 59.0651331,65.8016858 C58.73533,66.0902977 58.4062112,66.3789096 58.0764081,66.6675216 C58.2002553,67.121035 58.3241025,67.5745485 58.4472655,68.0279935 C58.4472655,68.0279935 56.3172302,70.1310698 56.3172302,70.1310698 C54.8331163,70.564193 53.3490024,70.9973161 51.8648885,71.429755 C50.112553,72.862551 48.3609017,74.2946628 46.6085662,75.7274587 C45.7327406,77.1192004 44.856915,78.5102578 43.9804051,79.9019995 C43.2900082,81.3867976 42.5996113,82.87228 41.9094196,84.3570782 C41.5898801,86.1812587 41.2703406,88.0054393 40.9507327,89.8296199 C41.208417,91.2405202 41.4661013,92.6514206 41.7237856,94.0623209 L43.7949764,95.0503617 Z" fill="#A7A5A5"></path>
        <path d="M74.8368368,106.258877 C74.6979364,107.439189 74.5590359,108.618817 74.4194512,109.799128 C74.4194512,110.499789 74.4194512,111.200449 74.4194512,111.90111 C78.4085632,103.970783 82.7213202,95.9473987 96.4492028,96.3805219 C95.9134438,95.612806 95.3776848,94.8457743 94.8419259,94.0780584 C94.0071546,93.933684 93.1723833,93.7893097 92.337612,93.6456195 C91.621214,93.5320359 90.904816,93.4184522 90.188418,93.3048686 C88.8692056,93.5573527 87.5499933,93.8098368 86.2307809,94.0623209 C85.4165368,94.500918 84.6029769,94.9388308 83.7887327,95.3767436 C82.8971696,96.1444595 82.0062907,96.9114912 81.1154118,97.6792071 C80.2183748,98.6166142 79.322022,99.5547056 78.4256692,100.492113 C77.8584353,101.229038 77.2918856,101.965963 76.7246516,102.702888 L74.8368368,106.258877 Z" fill="#A7A5A5"></path>
        <path d="M126.069899,79.3135542 C126.069899,79.3135542 123.580639,78.2536683 119.591527,80.4343373 C115.602415,82.614322 113.910976,86.8572866 113.910976,86.8572866 C113.493591,87.8295899 113.076205,88.8018932 112.658135,89.7741965 C112.90583,90.9579296 113.153524,92.1423469 113.401218,93.3267642 C113.648913,94.5111816 115.048181,96.3182562 115.140553,96.4113126 C115.232241,96.5050533 117.505967,98.1937546 117.505967,98.1937546 C118.758124,98.8355706 120.010281,99.4773866 121.262438,100.118518 C122.453013,100.242366 123.642904,100.366213 124.83348,100.49006 C114.939387,95.1092062 115.000969,84.3071287 126.069899,79.3135542 Z" fill="#A7A5A5"></path>
        <path d="M158.062852,45.9055276 C158.062852,45.9055276 156.138088,43.7028946 156.068296,43.6331022 C155.998503,43.5633099 152.497253,40.641884 152.497253,40.641884 C153.193124,40.2165612 153.888995,39.7913068 154.584182,39.3660524 C155.280053,38.940798 152.868111,37.8808437 152.798318,37.8124882 C152.728526,37.7442012 149.806827,36.0970332 149.806827,36.0970332 C149.806827,36.0970332 144.961048,35.0796386 144.961048,35.0796386 C144.961048,35.0796386 137.677326,35.0796386 137.677326,35.0796386 C136.425169,35.319259 135.172328,35.5588794 133.920171,35.7984998 C132.676225,36.0460574 131.431594,36.293615 130.186964,36.5411042 C128.943018,36.7886618 128.23962,36.2856778 128.23962,36.1007965 C128.23962,35.9158468 128.076772,34.5702228 128.076772,34.5702228 C128.076772,34.5702228 126.502338,35.0053987 126.502338,35.0053987 C126.502338,35.0053987 123.85844,36.35027 122.327797,38.9709729 C120.79784,41.5916758 119.290461,43.9331409 119.290461,43.9331409 C118.626066,45.4094545 117.960986,46.8857681 117.295905,48.3620817 C116.863467,50.3332367 116.431028,52.3043918 115.997905,54.2755468 C117.319854,54.1750322 118.641119,54.0745175 119.963068,53.9740712 C121.284333,53.8735566 122.003468,45.533507 125.899524,41.4520227 C126.069215,42.3639761 126.23959,43.2759296 126.409282,44.187883 C126.579657,45.099768 136.009836,35.1442991 147.648053,38.9940318 C146.85981,39.9447815 146.071567,40.8955997 145.283324,41.8464179 C144.494397,42.7971677 157.297188,45.0559767 161.440938,55.0114456 C161.474466,53.939654 161.507994,52.867794 161.541522,51.7959339 C160.946234,50.6132272 160.350946,49.4304521 159.755658,48.2477454 L158.062852,45.9055276 Z" fill="#A7A5A5"></path>
        <path d="M184.752953,121.238917 C183.176467,121.578983 183.479585,128.998868 178.476431,133.668114 C176.152756,135.837151 175.592365,135.720146 174.804806,137.408847 C173.487646,140.235438 176.404556,143.670316 181.83057,137.408847 C187.257267,131.148062 186.32944,120.89885 184.752953,121.238917 Z" fill="#A7A5A5"></path>
        <path d="M170.213564,140.168382 C169.068832,140.168382 168.037,140.858095 167.599087,141.915244 C167.161175,142.973077 167.403395,144.189653 168.21285,144.999108 C169.022304,145.807878 170.239565,146.050099 171.296714,145.611502 C172.353863,145.173589 173.042891,144.141757 173.042891,142.997025 C173.042891,142.2471 172.744563,141.52728 172.214278,140.996995 C171.683309,140.46671 170.963489,140.168382 170.213564,140.168382 Z" fill="#A7A5A5"></path>
        <path d="M157.097391,73.2635149 C156.13193,71.9668824 155.166469,70.6709342 154.201008,69.3743017 C153.829466,68.8700178 153.481189,68.4023406 153.16986,67.9797547 C150.246108,64.4337557 140.443703,57.9767312 131.739502,56.2033896 C129.298138,55.7384493 126.856774,55.2735775 124.41541,54.8087057 C124.41541,54.8087057 116.669827,54.8087057 116.669827,54.8087057 C116.669827,54.8087057 105.999123,55.6501141 105.865697,55.6909632 C105.73227,55.7318122 95.1067263,59.1270734 94.9657731,59.214656 C94.8248199,59.302307 86.2465184,64.4538039 86.2465184,64.4538039 C87.5602568,66.9594178 88.8733111,69.4653055 90.1870495,71.9703036 C90.1870495,71.9703036 98.6155027,76.8099245 98.6155027,76.8099245 C98.6155027,76.8099245 103.683659,85.8042432 103.809559,86.1744163 C103.934775,86.5452738 106.896845,97.5574126 106.896845,98.0473275 C106.896845,98.5379267 104.922816,108.064583 104.297421,110.254147 C103.672027,112.443027 101.084236,131.380019 98.7694564,136.203219 C96.4546767,141.026418 86.3327325,149.656037 81.5095334,151.786072 C76.6863343,153.916108 77.7099555,160.289792 77.7694842,160.378743 C77.829013,160.468378 82.6590545,163.013746 82.6590545,163.013746 C84.4202851,163.641878 86.1815157,164.270009 87.9427463,164.898824 C89.3851217,164.917983 90.8268128,164.937826 92.2691881,164.956985 C100.543003,166.114717 114.73001,165.447584 126.800666,162.649047 C129.595782,160.90287 132.390897,159.156692 135.185328,157.410515 C136.462118,154.207593 137.738223,151.004672 139.014328,147.801066 C139.697199,144.150652 140.380069,140.499554 141.062939,136.84914 C142.514894,132.985928 143.966849,129.122031 145.418803,125.258135 C146.870758,121.394923 150.798289,117.095851 151.080879,116.353452 C151.362786,115.611737 155.807601,104.295112 155.807601,104.295112 C155.807601,104.295112 157.571568,84.5377172 157.571568,84.5377172 L157.097391,73.2635149 Z M111.624935,121.965578 C111.535299,121.921103 110.81548,121.543403 110.71216,121.483874 C110.60884,121.424345 109.68717,120.978906 109.479846,120.629944 C109.273206,120.280982 108.597178,119.487265 108.529438,119.413367 C108.461699,119.338785 107.320388,118.389062 107.320388,118.389062 C107.320388,118.389062 107.483921,117.186855 107.513344,117.119799 C107.54345,117.053428 108.529438,115.984647 108.529438,115.984647 C108.584177,115.767059 108.638917,115.549471 108.693656,115.331883 C108.760027,115.331883 110.651947,114.872075 110.71216,114.826915 C110.772373,114.781755 114.27636,113.023946 114.27636,113.023946 C115.122763,112.898046 115.968482,112.772146 116.814201,112.645562 C117.363645,112.591507 117.913089,112.536768 118.461848,112.482713 C118.717069,112.551821 118.971606,112.620929 119.226143,112.690722 C119.342464,112.801568 119.4581,112.912415 119.574421,113.023946 C119.859064,113.268903 120.143023,113.513177 120.427666,113.758134 C120.387296,113.933983 120.387296,114.117359 120.427666,114.293209 C120.502248,114.590168 120.427666,115.332567 120.427666,115.332567 C120.45093,115.589157 120.46051,115.846431 120.457773,116.104389 C120.450246,116.356873 119.923382,117.589187 119.870696,117.676769 C119.81801,117.765036 118.944237,118.931663 118.899761,119.094512 C118.854601,119.258045 117.994513,120.111291 117.8084,120.29672 C117.622972,120.482833 116.651353,121.180072 116.554191,121.269023 C116.457029,121.357974 114.95923,121.899891 114.95923,121.899891 C114.95923,121.899891 113.267792,122.107216 113.19321,122.107216 C113.118628,122.107216 111.706359,122.000474 111.624935,121.965578 Z M129.122288,140.190278 C128.632373,141.704498 126.754822,142.698697 126.710347,142.765068 C126.665871,142.830755 123.719539,144.093176 123.653168,144.115756 C123.586113,144.137651 121.144749,144.115756 121.099589,144.115756 C121.054429,144.115756 117.367066,142.720593 117.367066,142.720593 C117.367066,142.720593 115.186397,140.932677 115.139869,140.843726 C115.092657,140.754775 113.373849,136.828613 113.373849,136.828613 C113.675598,136.366067 113.977347,135.903522 114.279097,135.440977 C115.8939,134.459094 117.509388,133.477211 119.124191,132.495329 C119.542261,132.116945 119.960331,131.738561 120.377717,131.360176 C123.153674,131.189801 125.928946,131.018741 128.704219,130.848366 C131.479491,130.677306 129.632046,133.169988 129.883162,134.766317 C130.134962,136.361962 129.612203,138.682216 129.122288,140.188225 L129.122288,140.190278 Z M152.785318,99.6600783 C152.56294,101.328937 151.672061,102.657728 150.248161,103.867463 C148.82426,105.077197 146.040776,106.865113 143.325033,107.324921 C140.609289,107.78473 136.579123,106.798741 132.99508,104.765184 C129.403511,102.717257 125.57451,101.299514 125.545088,101.17293 C125.545088,101.17293 119.608633,99.7189229 118.095096,99.0736857 C116.58156,98.4284485 114.814856,95.9494515 113.639333,94.1540089 C112.463811,92.3585664 112.58629,90.9107171 113.053625,88.7738394 C113.52096,86.6362775 116.66709,82.749117 116.66709,82.749117 C117.89393,81.7371279 119.12077,80.725823 120.34761,79.7138338 C121.87141,79.4168742 123.39521,79.1199146 124.91901,78.822955 C126.568709,78.6888442 128.218409,78.5554176 129.868793,78.421991 C130.90952,78.5951034 131.950932,78.7682159 132.992343,78.9413283 C134.671465,79.3347656 136.351271,79.7275186 138.030393,80.1209559 C139.710199,80.513709 142.579212,82.4063134 142.668163,82.4364199 C142.757799,82.4658422 146.809176,85.43407 146.809176,85.43407 C146.809176,85.43407 148.946054,87.7269541 149.005583,87.8754339 C149.065112,88.0239137 151.728853,91.8973894 151.639902,91.9938671 C151.550951,92.0903448 152.871532,95.9487672 152.902323,96.1047737 C152.933114,96.2607801 153.000169,97.9877988 152.785318,99.6573414 L152.785318,99.6600783 Z" fill="#C6CACD"></path>
        <path d="M52.4369121,30.2994781 C52.2282193,30.6165543 52.0195265,30.9336306 51.8108336,31.2507752 C49.5384767,44.8970281 47.2661197,58.5433493 44.9937627,72.1899443 C45.7361618,72.3096861 46.4785609,72.4294279 47.2216442,72.5498539 C48.2493708,72.6039087 49.2770975,72.6579636 50.3055083,72.7127027 C52.0106314,71.994252 53.7157544,71.2764855 55.4208774,70.558719 C57.1253162,69.8409526 55.8861598,60.5186782 58.23652,50.006239 C60.5868801,39.4937998 61.7610339,32.0119225 61.7610339,32.0119225 C61.7610339,32.0119225 57.0753668,29.18629 52.4369121,30.2994781 Z" fill="#C6CACD"></path>
        <path d="M43.1367387,95.8098667 C43.1367387,95.8098667 41.507703,97.5553599 41.507703,97.5553599 C41.507703,97.5553599 39.4974779,105.068302 39.4974779,105.068302 C39.4974779,105.068302 46.2999746,109.891501 46.2999746,109.891501 C46.2999746,109.891501 47.9695172,104.54349 47.9695172,104.54349 C47.9695172,104.54349 44.4135283,95.6073321 44.4135283,95.6073321 C44.4135283,95.6073321 43.1367387,95.8098667 43.1367387,95.8098667 Z" fill="#C6CACD"></path>
        <path d="M32.5414381,147.513685 C32.5414381,147.513685 30.4769529,163.287442 30.4769529,163.287442 C30.4769529,163.287442 32.0082109,164.865297 32.0082109,164.865297 C32.0082109,164.865297 35.6945473,164.865297 35.6945473,164.865297 C35.6945473,164.865297 41.5998016,136.080056 41.5998016,136.080056 C41.5998016,136.080056 35.1383296,135.616142 35.1383296,135.616142 C35.1383296,135.616142 32.5414381,147.513685 32.5414381,147.513685 Z" fill="#C6CACD"></path>
        <path d="M175.910536,99.6573414 C174.858861,94.7109793 172.386022,92.4844663 172.386022,92.4844663 C172.386022,92.4844663 169.0442,88.8361052 166.449566,85.9294589 C163.854933,83.0228125 161.874062,79.6850958 161.874062,79.6850958 C161.874062,79.6850958 158.87299,75.6569821 156.139456,71.9812515 C155.990977,72.1577851 155.842497,72.3343187 155.694017,72.5115365 C142.646268,61.0095511 128.609109,61.3176821 128.609109,61.3176821 C137.204517,66.9460752 136.215108,74.3665078 136.215108,74.3665078 C150.376797,81.2916885 151.982706,90.3585364 151.982706,90.3585364 C151.982706,90.3585364 150.900924,90.3824848 151.518792,91.5258478 C152.13666,92.6692108 152.137344,95.2672654 152.817477,97.5861506 C153.497611,99.90572 151.982706,99.9050358 151.487317,102.223921 C150.992612,104.54349 149.942306,103.645769 148.551248,105.162042 C147.160191,106.677631 144.501239,106.49015 141.563118,107.325605 C138.625681,108.161061 132.132255,104.913664 132.132255,104.913664 C135.223646,108.005739 135.844934,116.848156 131.768924,119.46058 C131.768924,119.46058 131.838716,120.226243 132.024145,121.338815 C132.210258,122.451388 131.027209,125.072706 130.242387,127.345063 C129.456881,129.61742 129.383668,129.710477 129.383668,129.710477 C129.383668,129.710477 129.630678,133.698905 130.156857,136.295591 C130.682353,138.892961 129.600571,141.088683 129.600571,141.088683 C136.46417,151.786757 126.814351,162.650416 126.814351,162.650416 C134.11381,160.961714 140.642817,158.492297 144.627139,155.188108 C144.564873,154.816566 144.503292,154.445708 144.441026,154.074167 C146.193362,149.250968 147.945697,144.427769 149.698033,139.604569 C151.059668,138.780062 152.420619,137.95487 153.782254,137.130362 C154.916037,136.677396 156.049137,136.22443 157.182921,135.77078 C158.914045,135.173439 160.645853,134.575414 162.376977,133.97739 C163.795404,133.412209 165.111195,132.618492 166.273033,131.627714 C168.129372,130.020437 168.68429,129.028975 170.231354,126.000534 C171.777734,122.972093 173.38501,120.929641 174.436001,117.405127 C175.486992,113.880613 175.549942,112.519662 175.920799,109.118311 C176.292341,105.71696 176.961527,104.604388 175.910536,99.6573414 Z" fill="#A1A5A8"></path>
        <path d="M51.1847552,71.5837087 C52.5552854,70.9808944 53.9258157,70.3773958 55.296346,69.7745814 C55.4154035,68.223549 55.5337768,66.6725165 55.6521501,65.1214156 C55.7041523,64.5287964 55.7554702,63.9362457 55.8067881,63.3436264 C55.858106,62.7510072 56.7038251,58.9384288 56.7195626,58.8760262 C56.7353001,58.8136921 58.2659422,52.1182104 58.2659422,52.1182104 C58.4404231,50.5567775 58.6155882,48.9952762 58.7907534,47.4338433 C59.2697205,45.7127091 59.7493719,43.9915749 60.228339,42.2704407 C60.460296,40.4668557 60.6922529,38.6632707 60.9242099,36.8596857 C61.1151125,35.53541 61.3060151,34.2110659 61.4969177,32.8867217 C61.5632889,32.2735754 61.6303443,31.660429 61.6973997,31.0472826 C60.3111319,30.7432753 58.9248642,30.4393365 57.5385964,30.1353292 C59.3477237,35.0053987 52.1125829,64.1634813 51.1847552,71.5837087 Z" fill="#A1A5A8"></path>
        <path d="M44.0419866,108.408071 C44.0419866,108.408071 45.8983264,109.985241 45.8983264,109.985241 C45.8983264,109.985241 47.9695172,104.666653 47.9695172,104.666653 C47.9695172,104.666653 45.6814227,102.223921 45.6814227,102.223921 C45.6814227,102.223921 44.0419866,108.408071 44.0419866,108.408071 Z" fill="#A1A5A8"></path>
        <path d="M38.7088243,145.200274 C38.7088243,145.200274 41.5084557,136.358541 41.5084557,136.358541 C39.7407932,136.259326 37.9731308,136.160111 36.2054684,136.061581 C37.735221,137.412268 38.9412602,140.09859 38.7088243,145.200274 Z" fill="#A1A5A8"></path>
        <path d="M109.850703,115.426308 C111.428558,114.328105 113.006413,113.229217 114.584951,112.131014 C124.461938,106.425147 120.966846,102.952635 117.909668,99.9693543 C109.932128,87.5996857 114.533634,87.2281441 112.711506,78.6354735 C109.119936,60.5743753 86.2430972,64.4553092 86.2430972,64.4553092 C83.1708651,67.5222726 80.098633,70.5895098 77.0264009,73.656268 C71.4019582,78.6320523 62.2673706,91.91039 58.7866479,101.186615 C58.6012192,102.767207 58.4164748,104.347798 58.2310461,105.92839 C58.4157905,108.490864 58.6012192,111.053338 58.7866479,113.615812 C59.0815548,115.132085 59.3757775,116.648359 59.6700002,118.163947 C59.9642229,119.680221 61.844511,124.976229 61.8978816,125.303295 C61.9512523,125.629677 63.3299934,128.968762 63.3299934,128.968762 C63.6563753,130.964686 63.9827572,132.960611 64.3091391,134.95722 C64.710103,137.722229 65.1103827,140.487237 65.5113466,143.252931 C65.9123105,146.017939 66.8100318,145.99057 69.9671095,152.254092 C73.1241872,158.516929 79.1085395,159.673977 79.1085395,159.673977 C97.4666658,166.159876 119.22409,158.153598 116.114909,142.466056 C116.114909,142.466056 115.64689,141.397959 114.489842,138.704111 C113.332794,136.010947 114.073825,134.61989 114.073825,134.61989 C120.893633,127.436751 113.932872,123.073361 113.932872,123.073361 C113.932872,123.073361 114.192883,122.613552 112.590395,122.28717 C110.987908,121.961473 108.649864,120.150293 107.514712,118.740077 C106.378876,117.329176 109.850703,115.426308 109.850703,115.426308 Z M100.412314,105.341313 C100.412314,105.452844 99.6247549,109.097099 99.6247549,109.097099 C99.2320018,110.21104 98.8385646,111.324981 98.4458115,112.438922 C97.9880558,113.922351 97.5309843,115.406465 97.0732285,116.890579 C96.8727466,118.051048 96.6722646,119.210833 96.4717826,120.371302 C96.1625067,121.806835 95.8532308,123.242368 95.5439549,124.678585 C94.7009727,126.308442 93.8573063,127.938298 93.0143241,129.568839 C91.8244329,130.495983 90.6345417,131.423811 89.4453347,132.350954 C88.586615,132.613702 87.7278953,132.875765 86.8698599,133.138513 C86.8028045,133.167251 83.6272524,133.138513 83.6272524,133.138513 C83.6272524,133.138513 81.2378906,132.514487 81.118833,132.447432 C80.9997755,132.381061 78.8266331,131.237698 78.8266331,131.237698 C77.9535445,130.32766 77.0804558,129.417623 76.2073671,128.507585 C75.6031843,127.401855 74.9996857,126.296125 74.3961871,125.19108 C74.0643313,124.369309 73.7331597,123.548222 73.4013039,122.727136 C73.0701323,121.905365 73.4238838,118.786605 73.4013039,118.489645 C73.3794083,118.192686 73.0968176,113.392066 73.0968176,113.332538 C73.0968176,113.273009 74.2107584,109.050571 74.2545497,108.932882 C74.2983409,108.814509 75.2343796,105.13262 75.2343796,105.058722 C75.2343796,104.98414 77.7790636,100.332685 77.8762255,100.212943 C77.9740716,100.093201 81.4157927,97.059971 81.5150073,96.9929156 C81.6149061,96.9258602 86.6201128,93.7427814 86.6201128,93.7427814 C86.6201128,93.7427814 88.6605128,93.4389794 88.7795703,93.4157153 C88.8986279,93.3924512 91.9038046,93.4157153 91.9038046,93.4157153 C93.0635893,93.7249912 94.2240583,94.0342671 95.383843,94.3435431 C96.143348,94.9073558 96.9028531,95.4718528 97.6623581,96.0356655 C98.3719137,97.0503916 99.0821536,98.065802 99.7917092,99.0805281 C100.039404,100.194469 100.287098,101.30841 100.534792,102.42235 C100.781803,103.536291 100.412314,105.22294 100.412314,105.341313 Z" fill="#F6FBFD"></path>
        <path d="M51.4317654,30.8950395 C50.6893663,36.5015552 49.9469672,42.1080024 49.2038839,47.7145181 C47.6992428,56.4566263 46.1946018,65.1986662 44.6899607,73.9409113 C43.1853197,82.6827459 45.8490612,75.4948176 45.9188536,75.5180817 C45.9886459,75.5413458 47.4494957,75.6569821 47.4494957,75.6569821 C48.3533751,74.567674 49.2579388,73.4783659 50.1618182,72.389742 C48.3862186,70.0516981 51.1827024,61.8153107 52.3896996,54.3950833 C53.5973811,46.974856 56.8420413,33.4785883 54.7085848,30.0929748 L51.4317654,30.8950395 Z" fill="#F6FBFD"></path>
        <path d="M40.7733096,97.3624045 C40.7733096,97.3624045 39.937854,104.434696 39.937854,104.434696 C39.937854,104.434696 42.9916801,106.49015 42.9916801,106.49015 C42.9916801,106.49015 44.7535949,99.8434543 44.7535949,99.8434543 C44.7535949,99.8434543 43.8107139,95.3671643 43.8107139,95.3671643 C43.8107139,95.3671643 40.7733096,97.3624045 40.7733096,97.3624045 Z" fill="#F6FBFD"></path>
        <path d="M34.8910457,137.193312 C34.8910457,137.193312 32.4485869,147.921492 32.4485869,147.921492 C32.1188523,150.621498 31.7891176,153.322188 31.4593829,156.022195 C31.1297167,158.722201 29.7900456,158.835784 31.273749,161.278517 C32.7575207,163.720565 34.6749631,158.78994 35.324032,154.384127 C35.9730324,149.977629 36.8389366,142.204677 35.6024487,137.068781 L34.8910457,137.193312 Z" fill="#F6FBFD"></path>
        <path d="M89.0443707,218.584883 C83.0627554,218.614305 78.2176606,218.184603 74.9901063,217.330673 C75.2029046,219.042638 75.4150186,220.754604 75.6278169,222.465885 C75.6353435,222.517887 75.6428701,222.569889 75.6503968,222.621891 C76.7041245,229.228901 77.7578522,235.835911 78.8115799,242.442236 C89.592446,243.511017 100.28573,243.487753 110.637578,242.620138 C105.447627,230.813598 96.939802,223.000275 89.0443707,218.584883 Z" fill="#DF6064"></path>
        <path d="M121.003795,133.331468 C121.003795,133.331468 119.015398,136.128636 115.586677,137.746861 C119.408151,146.57012 131.22906,142.747962 127.757232,132.351638 C124.714422,134.325667 121.003795,133.331468 121.003795,133.331468 Z" fill="#AA282A"></path>
        <path d="M52.2384829,54.3720929 C52.1940074,54.669121 52.1420052,54.966149 52.0824764,55.2632455 C52.7797157,55.3597232 53.7253337,55.7236698 54.3041997,56.0503938 C54.6757414,54.210202 55.0548097,52.306855 55.4181405,50.4287564 C54.7804299,50.177025 53.8279695,49.948284 53.1074661,49.8347003 C52.7961375,51.4840579 52.4540181,53.0286585 52.2384829,54.3720929 Z" fill="#AA282A"></path>
        <path d="M181.599297,217.317672 C180.627678,214.438396 179.283833,213.421617 178.401165,211.195104 C177.519181,208.969275 175.203033,207.255941 173.480804,204.376664 C172.798618,203.233986 171.618306,202.269209 170.275829,201.331802 C160.013616,205.81425 148.704518,209.376397 137.50695,212.077772 C149.001478,216.411056 158.366654,223.022855 164.732127,230.065041 C171.604621,227.371193 177.903723,224.402965 183.491217,221.308837 C182.882929,219.95815 182.245218,218.622516 181.599297,217.317672 Z" fill="#AA282A"></path>
        <path d="M198.295407,183.750971 C191.082846,190.696679 181.272231,196.544183 170.275829,201.329749 C171.618306,202.265104 172.800671,203.22988 173.480804,204.374612 C175.203033,207.253889 177.517813,208.967222 178.401165,211.193051 C179.285201,213.41888 180.629046,214.436343 181.599297,217.314935 C182.245218,218.621832 182.882929,219.957466 183.491217,221.308153 C192.499905,216.320737 199.646095,211.00078 204.320814,205.954519 L198.295407,183.750971 Z" fill="#771C1C"></path>
        <path d="M55.2956617,50.3775754 C54.9316467,52.2548529 54.5532626,54.139657 54.181721,55.9798488 C54.9932282,56.4392467 55.7335745,57.0146231 56.3788117,57.6878456 C56.7640381,55.9244254 57.1499488,54.1609368 57.5358595,52.3974482 C57.1957928,51.424666 56.3493894,50.7941399 55.2956617,50.3775754 Z" fill="#771C1C"></path>
        <path d="M125.157125,143.901589 C125.157125,143.901589 127.601226,143.164664 128.91428,140.980574 C130.227334,138.796483 129.904373,138.645267 130.232124,136.786874 C130.560558,134.927797 128.91428,133.09609 128.91428,133.09609 C124.786952,136.157375 122.699339,140.330547 125.157125,143.901589 Z" fill="#771C1C"></path>
        <path d="M137.50695,212.077772 C119.475206,216.417898 101.725368,218.526722 89.0443707,218.584883 C96.939802,223.000275 105.450364,230.813598 110.637578,242.620138 C130.479818,240.965649 149.082902,236.216347 164.732127,230.065041 C158.366654,223.022855 149.001478,216.411056 137.50695,212.077772 Z" fill="#D63D3D"></path>
        <path d="M48.8542379,49.7254958 C48.8542379,49.7254958 48.4888544,51.8553259 48.4888544,51.8553259 C48.4888544,53.5371163 48.4888544,55.2189068 48.4888544,56.9006973 C49.6773771,55.4317735 51.0136955,55.0975913 52.2364302,55.2832937 C52.2959589,54.9861972 52.3479611,54.6891692 52.3924366,54.3921411 C52.6072876,53.0487067 52.8967206,51.4959637 53.2094177,49.850301 C51.422186,49.577016 49.6027951,49.6661039 48.8542379,49.7254958 Z" fill="#D63D3D"></path>
        <path d="M119.35957,143.22214 C119.710584,143.22214 120.061599,143.22214 120.411929,143.22214 C119.824168,139.944636 123.116725,133.884333 126.687767,132.215475 C124.572785,131.910989 122.457803,131.606502 120.342821,131.3027 C118.031462,133.250728 115.720104,135.198072 113.408745,137.1461 C114.39268,138.552894 115.376616,139.959689 116.361235,141.366484 L119.35957,143.22214 Z" fill="#D63D3D"></path>
        <path d="M228.332121,149.285864 C237.889568,136.671238 233.065685,116.850209 198.374779,118.987087 C198.374779,118.987087 192.439008,107.49256 179.409049,103.92357 C179.082667,96.8150135 174.941654,91.738646 171.045598,88.402982 C167.150227,85.067318 164.775234,79.9738446 162.660936,77.9108647 C162.660936,77.9108647 166.652101,70.1043845 165.969915,60.5765648 C165.287729,51.0488136 161.131663,45.5349439 157.096022,42.0111826 C158.205858,41.9146365 159.316377,41.8180904 160.426897,41.7216128 C155.566749,35.7999367 147.872484,30.5081025 131.361118,33.759263 C131.885245,32.4037176 132.410056,31.0482406 132.934183,29.6926951 C123.799595,30.8949711 117.180953,38.3812959 113.284898,52.7263618 C104.937185,52.3253979 86.8534382,58.8774631 78.1636058,67.7524506 C74.1197546,64.5837408 64.3761945,62.0684791 57.0897358,63.8641269 C59.1691374,53.2108029 61.248539,42.5575473 63.3279407,31.9042233 C61.2355385,27.9638975 53.7410712,25.4189398 49.9934955,30.6350972 C47.4084414,46.4604453 44.8240715,62.2858617 42.2391543,78.1113466 C41.5771533,78.9974358 40.9676334,79.9218424 40.4137421,80.8790925 C37.3341202,86.2072598 38.0373808,91.4389495 39.486188,94.9785166 C39.0878926,97.412354 38.6896656,99.8461913 38.2913703,102.279344 C30.9453828,99.0866862 19.1095573,99.5861805 13.1731017,112.957575 C7.43049096,125.884214 14.8068586,145.029214 29.0012552,159.186799 C28.7835988,160.523801 28.5660793,161.86012 28.3484914,163.197122 C28.6002228,165.897129 33.6210301,169.11784 37.0741779,166.12019 C37.4009703,166.365148 37.7351526,166.602579 38.0692663,166.840694 C38.0692663,166.840694 25.3504992,173.741242 18.2414636,183.326743 C11.132428,192.91156 13.2324936,208.370566 32.0288749,210.907724 C50.8255298,213.445565 69.9992687,211.523538 69.9992687,211.523538 C74.3653963,238.511968 78.7308397,265.500398 83.0962831,292.488828 C87.4617265,319.477258 97.0841763,302.610088 121.014743,303.633709 C144.945994,304.658015 201.52912,295.372211 223.78946,255.672677 C223.78946,255.672677 198.590314,172.983105 198.590314,172.983105 C198.590314,172.983105 218.781516,161.90049 228.332121,149.285864 Z M195.281335,127.172635 C195.822568,134.422145 191.926513,143.964539 191.749295,144.395609 C191.949777,144.165705 195.184174,140.418129 196.735343,136.944933 C196.735343,136.944933 195.592664,150.577022 182.606496,161.335993 C169.620329,172.094963 153.525664,168.668296 149.125325,158.049594 C149.125325,158.049594 158.534976,165.929288 170.964174,159.110848 C170.964174,159.110848 157.132287,161.09172 151.596795,153.581515 C146.186519,146.243054 154.224272,137.763967 165.969915,135.462188 C176.484612,133.399208 179.023138,127.484648 179.023138,127.484648 C179.023138,127.484648 174.103461,129.466204 170.748638,129.971172 C170.748638,129.971172 178.310161,119.893703 178.763127,109.490537 C188.950758,114.068094 194.724365,119.752066 195.281335,127.172635 Z M53.2463666,31.4044553 C53.2463666,31.4044553 56.9043071,29.8308429 60.1523885,32.6728287 C58.0449331,43.4721693 55.9374777,54.2715782 53.8300223,65.0709188 C53.130046,65.4269282 52.4704398,65.8573829 51.86352,66.3548929 C52.4259643,66.4545865 52.9699341,66.6422732 53.4742181,66.9111106 C53.3332649,67.6309298 53.1916275,68.3508174 53.0506743,69.0704997 C52.1830595,69.4858326 49.3852072,70.9405243 46.3430816,73.656268 L53.2463666,31.4044553 Z M45.0539757,81.5516992 C46.6715162,78.9769087 49.0458248,76.5430714 51.969577,74.6360979 C53.0445161,73.9251738 54.1769313,73.303885 55.353822,72.7790739 C58.0052473,71.5850772 60.8523648,70.8864694 63.7555899,70.7174624 C66.658815,70.5491397 62.2420537,68.1928951 60.898893,67.2229866 C60.898893,67.2229866 68.0225029,66.3615984 74.7307798,71.615868 C74.7307798,71.615868 70.7012977,75.0808531 69.1644974,82.7764866 C69.1644974,82.7764866 80.5187556,69.4187772 93.1922262,62.9856327 C105.865697,56.5523513 122.219688,55.2238333 136.785078,57.7293789 C136.785078,57.7293789 131.962564,52.490231 118.42011,52.5793873 C118.42011,52.5793873 120.230606,42.5615159 126.62687,37.1819622 C126.62687,37.1819622 126.396965,39.1781604 126.723347,41.0332001 C126.723347,41.0332001 138.210348,32.8109765 150.757918,39.1187001 C150.757918,39.1187001 148.25771,40.2615841 147.285407,41.3740195 C147.285407,41.3740195 155.951975,44.7432796 159.788502,52.2228989 C163.269224,59.0275167 159.306113,70.2624437 158.55003,72.2583682 C158.55003,72.2583682 155.025516,67.5014718 149.682295,64.8674262 C155.395689,72.1995236 158.245543,79.6194089 162.63083,85.310907 C167.0168,91.0024051 174.68917,94.7718765 174.013826,105.71696 C173.361062,116.209762 167.958313,127.703604 163.914462,130.753941 C159.143265,131.4286 149.214276,133.974653 144.576505,144.640567 C139.938735,155.307165 146.476636,164.443121 146.476636,164.443121 C146.476636,164.443121 134.069335,168.984414 118.190206,173.570866 C101.203978,173.466862 83.4774041,171.119923 78.9060048,170.892072 C85.0949445,174.297528 96.1953502,177.080327 100.862543,178.156635 C96.3144077,179.239785 91.7361661,180.211404 87.2988776,180.998278 C82.6830029,181.22134 64.8667937,177.569558 51.8210972,169.533858 C47.3906512,166.803061 42.753565,163.701406 38.3054656,160.109153 C38.3054656,160.109153 40.8541182,147.066193 40.8541182,147.066193 C47.8210373,153.818946 56.9563092,156.668116 56.9563092,156.668116 C56.9563092,156.668116 46.0851236,148.157554 41.7742825,142.377105 C42.1527349,140.435235 42.5311874,138.49405 42.9095714,136.55218 C47.3755979,135.223389 51.3168132,131.394388 51.7540418,123.704913 C51.7540418,123.704913 56.0435347,126.346759 60.0052772,126.829147 C61.082269,129.502468 61.1561668,132.15663 61.29712,135.14607 C57.2012667,135.131016 52.8454027,134.136817 52.5785495,134.077973 C52.9117738,134.374933 58.3952634,139.122865 61.7500861,140.251175 C62.2762657,143.694265 63.4490509,147.649165 66.3502233,152.464837 C73.7112641,164.643603 88.7378318,169.384009 102.339814,165.466742 C102.339814,165.466742 78.6165718,165.680909 70.2462789,148.198608 C63.5975308,134.29214 68.5322608,134.789581 63.7535372,123.703545 C59.6569997,114.183046 59.6125241,102.184919 60.2953944,97.5019892 C60.2953944,97.5019892 56.1769613,100.210206 55.7650495,108.231537 C55.7650495,108.231537 52.2747475,106.598259 49.5692674,102.429877 C48.6530717,101.010766 47.9359895,99.4725969 47.4399164,97.8584776 C46.7269395,95.6169114 46.3341865,92.9531699 46.5045619,89.821409 C46.5045619,89.821409 45.0348171,90.2894283 43.4029076,91.6469581 C43.2913767,91.7434357 43.1723191,91.84744 43.0614724,91.9514443 C41.9822226,88.9052133 42.8055671,85.098793 45.0532915,81.5516992 L45.0539757,81.5516992 Z M47.8757765,111.129289 C48.0516258,110.226778 48.2267909,109.323583 48.4026403,108.421072 C50.2596643,110.773484 52.766031,112.991787 56.1201694,114.432109 C56.1201694,114.432109 56.6764556,118.149578 57.7746588,120.220085 C57.7746588,120.220085 53.6781213,118.928242 50.7098935,116.769469 C50.7078407,116.767416 49.8251727,114.216574 47.8730395,111.129289 L47.8757765,111.129289 Z M42.1842099,99.1161085 C42.1842099,99.1161085 42.7111422,98.1807541 43.3721168,97.5567283 C43.3721168,97.5567283 43.9585095,100.972448 46.0734915,104.866451 C45.8777992,105.86544 45.6827912,106.865113 45.4870989,107.864101 C44.2794175,106.420357 42.9013606,105.127146 41.3836505,104.013205 L42.1842099,99.1161085 Z M17.5040595,132.682126 C11.1071796,115.156718 23.4398308,102.383349 33.7673203,105.166832 C35.0992595,105.530847 36.3768702,106.070027 37.5665561,106.770003 C38.6436848,107.399503 39.6510895,108.140534 40.5719381,108.981463 C42.0654261,110.327361 43.3440631,111.893583 44.3635788,113.626076 C45.2790903,115.162876 45.9715399,116.821471 46.4190321,118.553279 C47.4659174,122.637501 46.9390536,126.886623 44.1555702,130.174391 C43.1894251,131.317754 41.9767487,132.228475 40.6090923,132.838132 C39.2583365,133.453947 37.848052,133.750907 36.5054386,133.862438 C35.3879399,133.946599 34.2650356,133.924019 33.1517791,133.795382 C31.1928035,133.573005 29.8345211,133.113196 29.8345211,133.113196 C30.4508834,134.144344 31.5039269,135.044118 32.8399031,135.724936 C31.9222705,141.332272 31.0046379,146.939609 30.0870737,152.54763 C24.8255512,146.9704 20.3290077,140.433183 17.5018699,132.678705 L17.5040595,132.682126 Z M35.7137744,157.941484 C35.3107577,160.007201 34.9078095,162.072234 34.5047929,164.137266 C34.5047929,164.14274 34.5047929,164.14753 34.5047929,164.153007 C33.4652289,164.154372 32.4702773,163.730829 31.7512108,162.980219 C31.8081394,162.631257 31.8650681,162.282979 31.9219968,161.934018 C32.2756798,159.771823 32.6294312,157.609629 32.9831827,155.448118 C33.9980456,149.236599 35.012977,143.025763 36.0279084,136.814928 C37.2614541,137.074939 38.5240114,137.170048 39.7826002,137.098203 L35.7137744,157.941484 Z M35.0684688,205.959309 C22.5724213,204.349295 17.9341035,194.702897 23.8111672,184.996285 C29.6882309,175.290358 43.074473,169.754867 43.074473,169.754867 C43.074473,169.754867 44.1802028,170.482897 45.8654829,171.537309 C30.6528707,181.029069 33.7844263,192.707656 40.1368306,196.172642 C36.9680525,189.212565 39.9808242,179.55864 52.167322,175.299254 C54.3343062,176.530883 56.5382393,177.696142 58.3699465,178.47549 C54.2521976,189.858486 71.960297,188.797916 96.2528262,184.07051 C120.561093,179.343105 149.869092,168.391179 149.869092,168.391179 C159.516175,176.746419 177.874301,173.778191 189.376355,161.534422 C207.096771,142.144464 200.2927,124.64711 200.2927,124.64711 C210.681498,123.349109 231.955849,126.747039 226.761109,141.588862 C221.566368,156.430001 183.169625,179.989026 132.894497,193.348788 C82.6193687,206.70855 47.5548685,207.565217 35.0662108,205.955203 L35.0684688,205.959309 Z M218.197176,255.030177 C215.442431,261.141113 196.653234,277.617583 182.796715,284.108272 C183.093674,283.766837 192.694913,272.836122 193.862224,259.137662 C193.862224,259.137662 178.064519,286.466159 154.593077,293.101222 C141.050623,296.443044 109.973866,301.034286 88.921892,289.992041 C85.0860494,271.129631 75.9357243,215.290957 76.0321185,210.532076 C81.6655398,210.666187 113.550382,204.665413 144.056484,195.795626 C171.607358,196.797352 184.05982,222.9688 184.454625,223.799466 C180.662574,204.308241 168.656236,194.444939 161.16998,190.434615 C174.206781,186.01238 185.899053,181.129652 193.737693,176.090918 L218.197176,255.030177 Z" fill="#000000"></path>
        <path d="M111.720728,138.585738 C112.959884,141.011364 118.710911,149.708039 127.014833,145.382282 C134.575671,141.44654 132.44632,131.342386 131.117529,129.479888 C135.903779,124.560212 131.570495,118.891293 131.570495,118.891293 C131.08058,128.167518 123.55669,129.777532 120.172445,127.736448 C120.172445,127.736448 115.557255,138.013714 105.079498,132.960611 C105.076085,132.960611 106.103128,138.013714 111.720728,138.585738 Z M121.003111,133.331468 C121.003111,133.331468 124.716475,134.325667 127.756548,132.351638 C131.228375,142.748647 119.407466,146.57012 115.585993,137.746861 C119.015398,136.128636 121.003795,133.331468 121.003795,133.331468 L121.003111,133.331468 Z" fill="#000000"></path>
        <path d="M115.527832,123.602961 C117.755714,123.076782 120.355137,121.0877 122.169054,116.909738 C123.983655,112.731776 122.354483,109.675281 117.553179,110.350625 C112.751192,111.025284 105.522893,114.862495 105.665215,117.837566 C105.807536,120.812636 111.097386,124.638899 115.527832,123.602961 Z M109.279364,117.526237 C110.882535,116.546407 112.648556,115.500206 116.143647,114.468374 C119.638055,113.435858 120.380454,115.656212 118.013672,118.298058 C115.64689,120.93922 112.937989,122.126374 109.361473,119.292257 C108.06963,118.267952 108.90098,117.756825 109.279364,117.526237 Z" fill="#000000"></path>
        <path d="M127.118837,103.924254 C135.280437,106.707053 138.879533,112.531978 148.763362,107.218864 C155.256788,103.723772 157.571568,94.604238 149.647399,86.0184099 C141.72323,77.433266 127.740126,75.0445884 120.751311,78.0490809 C113.762496,81.0535734 111.802152,87.6954791 111.802152,87.6954791 C108.96872,98.9156265 118.955869,101.141455 127.118837,103.924254 Z M127.14826,79.9930033 C135.636242,79.2506042 143.539199,85.313644 144.993891,86.545958 C152.963904,93.3206061 152.889322,101.101085 146.952867,104.525016 C141.016411,107.949631 132.009092,102.469563 125.91663,100.058305 C120.261396,97.8174233 116.299654,97.6764701 114.970862,92.5481005 C113.642755,87.4204151 118.666436,80.7354023 127.14826,79.9930033 Z" fill="#000000"></path>
        <path d="M84.228014,134.926429 C90.4833249,135.313024 95.2107306,131.436127 97.0362796,126.497292 C98.8611444,121.557772 98.0756383,117.978519 100.434209,111.441302 C102.79278,104.904084 104.745598,94.7527178 93.7115634,92.0965029 C82.3210406,89.3581794 72.7040646,101.571841 71.5908081,114.49848 C70.6041358,126.987206 76.1888927,134.429672 84.228014,134.926429 Z M75.0708465,112.128277 C76.333267,99.8106109 88.8952067,91.2104137 95.9825519,96.7308521 C102.616247,101.895486 97.3770305,109.115574 95.9825519,115.979173 C94.5873891,122.843456 93.4364994,131.518236 84.4804981,131.792615 C75.5244968,132.067679 74.3886605,118.779762 75.0749519,112.131014 L75.0708465,112.128277 Z" fill="#000000"></path>
        <path d="M85.1852641,119.692537 C85.4788025,119.841017 85.783973,119.964864 86.0980386,120.064079 C84.7028757,118.001099 84.4640764,115.151244 85.7203388,112.637351 C87.3666173,109.342741 91.0101887,107.747781 94.2014784,108.776192 C93.5781369,107.851101 92.7269438,107.102543 91.7300079,106.601681 C88.3464472,104.917769 84.139063,106.475781 82.3360938,110.091983 C80.5331246,113.708869 81.8010191,118.001099 85.1852641,119.692537 Z" fill="#040002"></path>
        <path d="M132.238996,89.8474101 C135.043007,90.0779985 137.358471,91.7543835 138.402619,94.011003 C138.479254,93.6914635 138.528519,93.3664501 138.551099,93.0386997 C138.855585,89.2692283 135.835355,85.9520387 131.8134,85.6331835 C127.791444,85.3143282 124.273772,88.1039697 123.962444,91.8713884 C123.87623,92.9819079 124.07808,94.0965329 124.548152,95.1064693 C125.315868,91.8440188 128.565318,89.5504504 132.238996,89.8474101 Z" fill="#040002"></path>
        <path d="M28.0849226,221.635219 C28.0849226,221.635219 25.7085613,230.198467 18.7792068,235.82291 C25.7107509,241.448037 28.0849226,250.011285 28.0849226,250.011285 C28.0849226,250.011285 30.4672367,241.448037 37.3973439,235.82291 C30.4672367,230.198467 28.0849226,221.635219 28.0849226,221.635219 Z" fill="#000000"></path>
        <path d="M7.27763202,158.436189 C7.27763202,158.436189 5.42108696,165.134202 0,169.534542 C5.42108696,173.934881 7.27763202,180.632211 7.27763202,180.632211 C7.27763202,180.632211 9.1408142,173.934881 14.5619012,169.534542 C9.1408142,165.134202 7.27763202,158.436189 7.27763202,158.436189 Z" fill="#040002"></path>
        <path d="M7.27763202,158.436189 C7.27763202,158.436189 5.42108696,165.134202 0,169.534542 C5.42108696,173.934881 7.27763202,180.632211 7.27763202,180.632211 C7.27763202,180.632211 9.1408142,173.934881 14.5619012,169.534542 C9.1408142,165.134202 7.27763202,158.436189 7.27763202,158.436189 Z" fill="#000000"></path>
        <path d="M100.567636,26.1682496 C100.567636,26.1682496 102.764727,18.2735711 109.160991,13.0856043 C102.768148,7.8977059 100.571741,-1.24344979e-14 100.571741,-1.24344979e-14 C100.571741,-1.24344979e-14 98.3780719,7.89996389 91.985229,13.0856043 C98.3780719,18.2735711 100.567636,26.1682496 100.567636,26.1682496 Z" fill="#040002"></path>
        <path d="M100.567636,26.1682496 C100.567636,26.1682496 102.764727,18.2735711 109.160991,13.0856043 C102.768148,7.8977059 100.571741,-1.24344979e-14 100.571741,-1.24344979e-14 C100.571741,-1.24344979e-14 98.3780719,7.89996389 91.985229,13.0856043 C98.3780719,18.2735711 100.567636,26.1682496 100.567636,26.1682496 Z" fill="#000000"></path>
        <path d="M192.150943,79.5694595 C192.150943,79.5694595 194.140025,72.4205327 199.925948,67.7243284 C194.140025,63.0279871 192.150943,55.8788551 192.150943,55.8788551 C192.150943,55.8788551 190.168703,63.0279871 184.383465,67.7243284 C190.168703,72.4205327 192.150943,79.5694595 192.150943,79.5694595 Z" fill="#040002"></path>
        <path d="M192.150943,79.5694595 C192.150943,79.5694595 194.140025,72.4205327 199.925948,67.7243284 C194.140025,63.0279871 192.150943,55.8788551 192.150943,55.8788551 C192.150943,55.8788551 190.168703,63.0279871 184.383465,67.7243284 C190.168703,72.4205327 192.150943,79.5694595 192.150943,79.5694595 Z" fill="#000000"></path>
        <path d="M250.511037,134.502201 C250.511037,134.502201 249.111084,139.552567 245.025494,142.865651 C249.109716,146.182157 250.511037,151.229786 250.511037,151.229786 C250.511037,151.229786 251.91441,146.180104 256,142.865651 C251.91441,139.54983 250.511037,134.502201 250.511037,134.502201 Z" fill="#040002"></path>
        <path d="M250.511037,134.502201 C250.511037,134.502201 249.111084,139.552567 245.025494,142.865651 C249.109716,146.182157 250.511037,151.229786 250.511037,151.229786 C250.511037,151.229786 251.91441,146.180104 256,142.865651 C251.91441,139.54983 250.511037,134.502201 250.511037,134.502201 Z" fill="#000000"></path>
        <path d="M236.681202,160.975399 C236.681202,160.975399 234.490954,168.872883 228.098796,174.061466 C234.490954,179.249364 236.681202,187.147532 236.681202,187.147532 C236.681202,187.147532 238.876925,179.249364 245.270452,174.061466 C238.876925,168.872883 236.681202,160.975399 236.681202,160.975399 Z" fill="#000000"></path>
        <path d="M77.8769097,42.3884719 C77.8769097,42.3884719 79.7400919,35.9478007 85.1606315,31.7163313 C79.7400919,27.483425 77.8769097,21.0435065 77.8769097,21.0435065 C77.8769097,21.0435065 76.0198857,27.4841776 70.5986619,31.7163313 C76.0192015,35.9478007 77.8769097,42.3884719 77.8769097,42.3884719 Z" fill="#000000"></path>
    </g>
</svg>
