<?xml version="1.0" encoding="UTF-8"?>
<svg width="256px" height="244px" viewBox="0 0 256 244" version="1.1" xmlns="http://www.w3.org/2000/svg" preserveAspectRatio="xMidYMid">
    <title>FFmpeg</title>
    <defs>
        <radialGradient cx="19.9315782%" cy="18.8517713%" fx="19.9315782%" fy="18.8517713%" r="50.6480831%" gradientTransform="translate(0.199316,0.188518),scale(0.965227,1.000000),translate(-0.199316,-0.188518)" id="ffmpegRadialGradient-1">
            <stop stop-color="#FFFFFF" offset="0%"></stop>
            <stop stop-color="#007808" offset="100%"></stop>
        </radialGradient>
    </defs>
    <g>
        <polygon fill="#0B4819" points="2.13225538 51.5914003 2.13225538 21.1890271 22.5409855 28.2200453 22.5409855 56.5026813"></polygon>
        <polygon fill="#0B4819" points="18.589428 176.576617 18.589428 63.5336995 38.0968525 67.6605108 38.0968525 172.721031"></polygon>
        <polygon fill="#105C80" points="114.002641 21.1389545 63.8675164 78.6389138 63.8675164 103.107692 138.225229 19.2654072 256 10.1480334 82.7615524 190.717935 105.824127 191.932193 231.652231 63.2332643 231.652231 184.871966 217.673648 198.011834 253.125002 199.927108 253.125002 233.592541 141.922251 224.980066 198.608531 169.987906 198.608531 142.886147 117.566136 223.094 20.525566 215.591466 176.180209 48.1948135 150.563935 49.5801535 38.0968525 172.721031 38.0968525 67.6605108 48.749784 55.0839595 22.5409855 56.5026813 22.5409855 28.2200453"></polygon>
        <polygon fill="#0B4819" points="18.589428 63.5336995 29.8724389 49.9515248 48.749784 55.0839595 38.0968525 67.6605108"></polygon>
        <polygon fill="#084010" points="45.9165132 75.2715359 63.8675164 78.6389138 63.8675164 103.107692 45.9165132 101.638897"></polygon>
        <polygon fill="#0C541E" points="66.0122899 196.142459 82.7615524 190.717935 105.824127 191.932193 90.6062493 197.561181"></polygon>
        <polygon fill="#1A5C34" points="99.3439064 12.9604407 114.002641 21.1389545 63.8675164 78.6389138 45.9165132 75.2715359"></polygon>
        <polygon fill="#0B4819" points="45.9165132 101.638897 125.273133 10.7655947 138.225229 19.2654072 63.8675164 103.107692"></polygon>
        <polygon fill="#1A5C34" points="138.513146 43.5297224 150.563935 49.5801535 38.0968525 172.721031 18.589428 176.576617"></polygon>
        <polygon fill="#0B4819" points="0 222.589102 166.065557 41.9023651 176.180209 48.1948135 20.525566 215.591466"></polygon>
        <polygon fill="#1A5C34" points="190.263109 144.697104 198.608531 142.886147 117.566136 223.094 103.153592 231.322586"></polygon>
        <polygon fill="#0B4819" points="190.263109 174.156444 190.263109 144.697104 198.608531 142.886147 198.608531 169.987906"></polygon>
        <polygon fill="#0B4819" points="129.241382 233.525778 190.263109 174.156444 198.608531 169.987906 141.922251 224.980066"></polygon>
        <polygon fill="#13802D" points="226.027416 190.475917 210.880475 204.709035 217.673648 198.011834 231.652231 184.871966"></polygon>
        <polygon fill="#0B4819" points="90.6062493 197.561181 226.027416 58.0006846 231.652231 63.2332643 105.824127 191.932193"></polygon>
        <polygon fill="#084010" points="226.027416 58.0006846 231.652231 63.2332643 231.652231 184.871966 226.027416 190.475917"></polygon>
        <polygon fill="#084010" points="249.357044 206.983162 253.125002 199.927108 253.125002 233.592541 249.357044 243.698848"></polygon>
        <polygon fill="#1A5C34" points="252.478232 0 256 10.1480334 82.7615524 190.717935 66.0122899 196.142459"></polygon>
        <polygon fill="url(#ffmpegRadialGradient-1)" points="99.3439064 12.9604407 45.9165132 75.2715359 45.9165132 101.638897 125.273133 10.7655947 252.478232 0 66.0122899 196.142459 90.6062493 197.561181 226.027416 58.0006846 226.027416 190.475917 210.880475 204.709035 249.357044 206.983162 249.357044 243.698848 129.241382 233.525778 190.263109 174.156444 190.263109 144.697104 103.153592 231.322586 0 222.589102 166.065557 41.9023651 138.513146 43.5297224 18.589428 176.576617 18.589428 63.5336995 29.8724389 49.9515248 2.13225538 51.5914003 2.13225538 21.1890271"></polygon>
    </g>
</svg>
