<?xml version="1.0" encoding="utf-8"?>
<svg width="256px" height="265px" viewBox="0 0 256 265" xmlns="http://www.w3.org/2000/svg" xmlns:xlink="http://www.w3.org/1999/xlink"  preserveAspectRatio="xMidYMid">
  <defs>
    <linearGradient id="a" x1="70.786" y1="12.393" x2="6.447" y2="74.468" gradientUnits="userSpaceOnUse" gradientTransform="matrix(3.3067, 0, 0, 3.3067, -2.998711, -0.009424)">
      <stop offset="0.048" stop-color="#fff44f"/>
      <stop offset="0.111" stop-color="#ffe847"/>
      <stop offset="0.225" stop-color="#ffc830"/>
      <stop offset="0.368" stop-color="#ff980e"/>
      <stop offset="0.401" stop-color="#ff8b16"/>
      <stop offset="0.462" stop-color="#ff672a"/>
      <stop offset="0.534" stop-color="#ff3647"/>
      <stop offset="0.705" stop-color="#e31587"/>
    </linearGradient>
    <radialGradient id="b" cx="-7907.187" cy="-8515.121" r="80.797" gradientTransform="matrix(3.3067, 0, 0, 3.3067, 26367.937522, 28186.305366)" gradientUnits="userSpaceOnUse">
      <stop offset="0.129" stop-color="#ffbd4f"/>
      <stop offset="0.186" stop-color="#ffac31"/>
      <stop offset="0.247" stop-color="#ff9d17"/>
      <stop offset="0.283" stop-color="#ff980e"/>
      <stop offset="0.403" stop-color="#ff563b"/>
      <stop offset="0.467" stop-color="#ff3750"/>
      <stop offset="0.71" stop-color="#f5156c"/>
      <stop offset="0.782" stop-color="#eb0878"/>
      <stop offset="0.86" stop-color="#e50080"/>
    </radialGradient>
    <radialGradient id="c" cx="-7936.711" cy="-8482.089" r="80.797" gradientTransform="matrix(3.3067, 0, 0, 3.3067, 26367.937522, 28186.305366)" gradientUnits="userSpaceOnUse">
      <stop offset="0.3" stop-color="#960e18"/>
      <stop offset="0.351" stop-color="#b11927" stop-opacity=".74"/>
      <stop offset="0.435" stop-color="#db293d" stop-opacity=".343"/>
      <stop offset="0.497" stop-color="#f5334b" stop-opacity=".094"/>
      <stop offset="0.53" stop-color="#ff3750" stop-opacity="0"/>
    </radialGradient>
    <radialGradient id="d" cx="-7926.97" cy="-8533.457" r="58.534" gradientTransform="matrix(3.3067, 0, 0, 3.3067, 26367.937522, 28186.305366)" gradientUnits="userSpaceOnUse">
      <stop offset="0.132" stop-color="#fff44f"/>
      <stop offset="0.252" stop-color="#ffdc3e"/>
      <stop offset="0.506" stop-color="#ff9d12"/>
      <stop offset="0.526" stop-color="#ff980e"/>
    </radialGradient>
    <radialGradient id="e" cx="-7945.648" cy="-8460.984" r="38.471" gradientTransform="matrix(3.3067, 0, 0, 3.3067, 26367.937522, 28186.305366)" gradientUnits="userSpaceOnUse">
      <stop offset="0.353" stop-color="#3a8ee6"/>
      <stop offset="0.472" stop-color="#5c79f0"/>
      <stop offset="0.669" stop-color="#9059ff"/>
      <stop offset="1" stop-color="#c139e6"/>
    </radialGradient>
    <radialGradient id="f" cx="-7935.62" cy="-8491.546" r="20.397" gradientTransform="matrix(3.214113, -0.777075, 0.909343, 3.763025, 33365.913535, 25904.013598)" gradientUnits="userSpaceOnUse">
      <stop offset="0.206" stop-color="#9059ff" stop-opacity="0"/>
      <stop offset="0.278" stop-color="#8c4ff3" stop-opacity=".064"/>
      <stop offset="0.747" stop-color="#7716a8" stop-opacity=".45"/>
      <stop offset="0.975" stop-color="#6e008b" stop-opacity=".6"/>
    </radialGradient>
    <radialGradient id="g" cx="-7937.731" cy="-8518.427" r="27.676" gradientTransform="matrix(3.3067, 0, 0, 3.3067, 26367.937522, 28186.305366)" gradientUnits="userSpaceOnUse">
      <stop offset="0" stop-color="#ffe226"/>
      <stop offset="0.121" stop-color="#ffdb27"/>
      <stop offset="0.295" stop-color="#ffc82a"/>
      <stop offset="0.502" stop-color="#ffa930"/>
      <stop offset="0.732" stop-color="#ff7e37"/>
      <stop offset="0.792" stop-color="#ff7139"/>
    </radialGradient>
    <radialGradient id="h" cx="-7915.977" cy="-8535.981" r="118.081" gradientTransform="matrix(3.3067, 0, 0, 3.3067, 26367.937522, 28186.305366)" gradientUnits="userSpaceOnUse">
      <stop offset="0.113" stop-color="#fff44f"/>
      <stop offset="0.456" stop-color="#ff980e"/>
      <stop offset="0.622" stop-color="#ff5634"/>
      <stop offset="0.716" stop-color="#ff3647"/>
      <stop offset="0.904" stop-color="#e31587"/>
    </radialGradient>
    <radialGradient id="i" cx="-7927.165" cy="-8522.859" r="86.499" gradientTransform="matrix(0.347204, 3.290167, -2.159276, 0.228162, -15491.59662, 28008.376464)" gradientUnits="userSpaceOnUse">
      <stop offset="0" stop-color="#fff44f"/>
      <stop offset="0.06" stop-color="#ffe847"/>
      <stop offset="0.168" stop-color="#ffc830"/>
      <stop offset="0.304" stop-color="#ff980e"/>
      <stop offset="0.356" stop-color="#ff8b16"/>
      <stop offset="0.455" stop-color="#ff672a"/>
      <stop offset="0.57" stop-color="#ff3647"/>
      <stop offset="0.737" stop-color="#e31587"/>
    </radialGradient>
    <radialGradient id="j" cx="-7938.383" cy="-8508.176" r="73.72" gradientTransform="matrix(3.3067, 0, 0, 3.3067, 26367.937522, 28186.305366)" gradientUnits="userSpaceOnUse">
      <stop offset="0.137" stop-color="#fff44f"/>
      <stop offset="0.48" stop-color="#ff980e"/>
      <stop offset="0.592" stop-color="#ff5634"/>
      <stop offset="0.655" stop-color="#ff3647"/>
      <stop offset="0.904" stop-color="#e31587"/>
    </radialGradient>
    <radialGradient id="k" cx="-7918.923" cy="-8503.861" r="80.686" gradientTransform="matrix(3.3067, 0, 0, 3.3067, 26367.937522, 28186.305366)" gradientUnits="userSpaceOnUse">
      <stop offset="0.094" stop-color="#fff44f"/>
      <stop offset="0.231" stop-color="#ffe141"/>
      <stop offset="0.509" stop-color="#ffaf1e"/>
      <stop offset="0.626" stop-color="#ff980e"/>
    </radialGradient>
    <linearGradient id="l" x1="70.013" y1="12.061" x2="15.267" y2="66.806" gradientUnits="userSpaceOnUse" gradientTransform="matrix(3.3067, 0, 0, 3.3067, -2.998711, -0.009424)">
      <stop offset="0.167" stop-color="#fff44f" stop-opacity=".8"/>
      <stop offset="0.266" stop-color="#fff44f" stop-opacity=".634"/>
      <stop offset="0.489" stop-color="#fff44f" stop-opacity=".217"/>
      <stop offset="0.6" stop-color="#fff44f" stop-opacity="0"/>
    </linearGradient>
  </defs>
  <g>
    <path d="M 248.033 88.713 C 242.464 75.314 231.169 60.847 222.323 56.274 C 228.632 68.493 233.01 81.615 235.302 95.174 L 235.325 95.389 C 220.835 59.263 196.263 44.697 176.195 12.979 C 175.158 11.362 174.152 9.726 173.176 8.072 C 172.673 7.208 172.202 6.326 171.764 5.427 C 170.931 3.815 170.29 2.112 169.852 0.351 C 169.854 0.183 169.728 0.041 169.561 0.02 C 169.482 -0.001 169.399 -0.001 169.32 0.02 C 169.304 0.02 169.277 0.05 169.257 0.057 C 169.237 0.063 169.194 0.093 169.165 0.106 L 169.214 0.02 C 137.024 18.869 126.101 53.761 125.096 71.214 C 112.241 72.097 99.95 76.835 89.827 84.807 C 88.771 83.913 87.667 83.076 86.52 82.301 C 83.6 72.08 83.476 61.262 86.16 50.977 C 74.338 56.704 63.834 64.822 55.312 74.818 L 55.252 74.818 C 50.173 68.38 50.53 47.151 50.821 42.716 C 49.319 43.32 47.884 44.082 46.542 44.988 C 42.059 48.188 37.867 51.779 34.016 55.718 C 29.629 60.167 25.621 64.975 22.036 70.093 L 22.036 70.112 L 22.036 70.089 C 13.797 81.77 7.953 94.968 4.841 108.92 L 4.67 109.766 C 4.197 112.425 3.777 115.093 3.41 117.769 C 3.41 117.865 3.39 117.954 3.38 118.05 C 2.258 123.881 1.563 129.785 1.3 135.717 L 1.3 136.379 C 1.386 235.04 108.244 296.609 193.644 247.204 C 226.547 228.169 249.303 195.51 255.764 158.051 C 255.979 156.398 256.154 154.761 256.346 153.091 C 258.985 131.274 256.128 109.143 248.033 88.713 L 248.033 88.713 Z M 100.322 189.031 C 100.921 189.319 101.483 189.63 102.098 189.904 L 102.187 189.961 C 101.566 189.663 100.944 189.353 100.322 189.031 L 100.322 189.031 Z M 129.679 111.734 Z M 235.335 95.419 L 235.335 95.296 L 235.358 95.432 L 235.335 95.419 Z" fill="url(#a)"/>
    <path d="M 248.033 88.713 C 242.464 75.314 231.169 60.847 222.323 56.274 C 228.632 68.493 233.01 81.615 235.302 95.174 L 235.302 95.296 L 235.325 95.432 C 245.203 123.699 243.774 154.69 231.337 181.929 C 216.649 213.445 181.095 245.748 125.443 244.177 C 65.311 242.474 12.354 197.854 2.454 139.411 C 0.652 130.195 2.454 125.523 3.36 118.033 C 2.124 123.851 1.434 129.771 1.3 135.717 L 1.3 136.379 C 1.386 235.04 108.244 296.609 193.644 247.204 C 226.547 228.169 249.303 195.51 255.764 158.051 C 255.979 156.398 256.154 154.761 256.346 153.091 C 258.985 131.274 256.128 109.143 248.033 88.713 L 248.033 88.713 Z" fill="url(#b)"/>
    <path d="M 248.033 88.713 C 242.464 75.314 231.169 60.847 222.323 56.274 C 228.632 68.493 233.01 81.615 235.302 95.174 L 235.302 95.296 L 235.325 95.432 C 245.203 123.699 243.774 154.69 231.337 181.929 C 216.649 213.445 181.095 245.748 125.443 244.177 C 65.311 242.474 12.354 197.854 2.454 139.411 C 0.652 130.195 2.454 125.523 3.36 118.033 C 2.124 123.851 1.434 129.771 1.3 135.717 L 1.3 136.379 C 1.386 235.04 108.244 296.609 193.644 247.204 C 226.547 228.169 249.303 195.51 255.764 158.051 C 255.979 156.398 256.154 154.761 256.346 153.091 C 258.985 131.274 256.128 109.143 248.033 88.713 L 248.033 88.713 Z" fill="url(#c)"/>
    <path d="M 185.754 103.778 C 186.032 103.973 186.29 104.168 186.551 104.363 C 183.332 98.655 179.325 93.429 174.647 88.838 C 134.815 48.999 164.208 2.457 169.165 0.093 L 169.214 0.02 C 137.024 18.869 126.101 53.761 125.096 71.214 C 126.591 71.111 128.072 70.985 129.6 70.985 C 152.852 71.028 174.291 83.548 185.754 103.778 Z" fill="url(#d)"/>
    <path d="M 129.683 111.734 C 129.471 114.922 118.208 125.916 114.27 125.916 C 77.827 125.916 71.911 147.962 71.911 147.962 C 73.525 166.526 86.461 181.816 102.098 189.904 C 102.812 190.275 103.537 190.609 104.261 190.936 C 105.515 191.492 106.769 192.005 108.024 192.477 C 113.39 194.376 119.011 195.461 124.699 195.694 C 188.575 198.69 200.949 119.31 154.853 96.275 C 165.728 94.86 176.74 97.534 185.754 103.778 C 174.291 83.548 152.852 71.028 129.6 70.985 C 128.079 70.985 126.591 71.111 125.096 71.214 C 112.241 72.097 99.95 76.835 89.827 84.807 C 91.781 86.461 93.987 88.67 98.633 93.249 C 107.329 101.817 129.633 110.692 129.683 111.734 Z" fill="url(#e)"/>
    <path d="M 129.683 111.734 C 129.471 114.922 118.208 125.916 114.27 125.916 C 77.827 125.916 71.911 147.962 71.911 147.962 C 73.525 166.526 86.461 181.816 102.098 189.904 C 102.812 190.275 103.537 190.609 104.261 190.936 C 105.515 191.492 106.769 192.005 108.024 192.477 C 113.39 194.376 119.011 195.461 124.699 195.694 C 188.575 198.69 200.949 119.31 154.853 96.275 C 165.728 94.86 176.74 97.534 185.754 103.778 C 174.291 83.548 152.852 71.028 129.6 70.985 C 128.079 70.985 126.591 71.111 125.096 71.214 C 112.241 72.097 99.95 76.835 89.827 84.807 C 91.781 86.461 93.987 88.67 98.633 93.249 C 107.329 101.817 129.633 110.692 129.683 111.734 Z" fill="url(#f)"/>
    <path d="M 83.852 80.545 C 84.89 81.206 85.747 81.782 86.497 82.301 C 83.577 72.08 83.452 61.262 86.137 50.977 C 74.315 56.704 63.811 64.822 55.288 74.818 C 55.913 74.801 74.504 74.467 83.852 80.545 L 83.852 80.545 Z" fill="url(#g)"/>
    <path d="M 2.471 139.411 C 12.361 197.854 65.328 242.474 125.46 244.177 C 181.112 245.751 216.665 213.445 231.354 181.929 C 243.791 154.69 245.22 123.699 235.342 95.432 L 235.342 95.31 C 235.342 95.214 235.322 95.157 235.342 95.187 L 235.365 95.402 C 239.912 125.086 224.813 153.845 201.21 173.291 L 201.137 173.457 C 155.148 210.912 111.135 196.055 102.227 189.99 C 101.605 189.693 100.984 189.383 100.362 189.061 C 73.548 176.244 62.471 151.814 64.845 130.863 C 51.841 131.055 39.944 123.571 34.486 111.767 C 48.798 102.999 66.634 102.283 81.603 109.876 C 96.78 116.766 114.051 117.444 129.722 111.767 C 129.673 110.725 107.369 101.847 98.672 93.283 C 94.026 88.703 91.821 86.497 89.867 84.841 C 88.811 83.946 87.707 83.109 86.56 82.334 C 85.799 81.815 84.943 81.253 83.915 80.578 C 74.567 74.5 55.976 74.834 55.361 74.851 L 55.302 74.851 C 50.223 68.413 50.58 47.184 50.871 42.75 C 49.368 43.353 47.934 44.115 46.592 45.021 C 42.108 48.221 37.917 51.812 34.066 55.751 C 29.663 60.188 25.639 64.985 22.036 70.093 L 22.036 70.112 L 22.036 70.089 C 13.797 81.77 7.953 94.968 4.841 108.92 C 4.779 109.181 0.225 129.087 2.471 139.411 L 2.471 139.411 Z" fill="url(#h)"/>
    <path d="M 174.654 88.838 C 179.332 93.434 183.34 98.666 186.558 104.38 C 187.262 104.912 187.92 105.441 188.479 105.954 C 217.535 132.738 202.311 170.6 201.177 173.295 C 224.78 153.848 239.865 125.09 235.332 95.405 C 220.835 59.263 196.263 44.697 176.195 12.979 C 175.158 11.362 174.152 9.726 173.176 8.072 C 172.673 7.208 172.202 6.326 171.764 5.427 C 170.931 3.815 170.29 2.112 169.852 0.351 C 169.854 0.183 169.728 0.041 169.561 0.02 C 169.482 -0.001 169.399 -0.001 169.32 0.02 C 169.304 0.02 169.277 0.05 169.257 0.057 C 169.237 0.063 169.194 0.093 169.165 0.106 C 164.208 2.457 134.815 48.999 174.654 88.838 Z" fill="url(#i)"/>
    <path d="M 188.459 105.937 C 187.844 105.383 187.202 104.858 186.538 104.363 C 186.277 104.168 186.019 103.973 185.741 103.778 C 176.727 97.534 165.714 94.86 154.84 96.275 C 200.935 119.323 188.568 198.69 124.686 195.694 C 118.998 195.461 113.377 194.376 108.011 192.477 C 106.756 192.007 105.502 191.494 104.248 190.936 C 103.523 190.605 102.799 190.275 102.085 189.904 L 102.174 189.961 C 111.082 196.042 155.081 210.899 201.084 173.427 L 201.157 173.262 C 202.304 170.583 217.528 132.712 188.459 105.937 L 188.459 105.937 Z" fill="url(#j)"/>
    <path d="M 71.911 147.962 C 71.911 147.962 77.827 125.916 114.27 125.916 C 118.208 125.916 129.481 114.922 129.683 111.734 C 114.011 117.411 96.741 116.733 81.564 109.842 C 66.595 102.25 48.759 102.966 34.446 111.734 C 39.904 123.538 51.801 131.022 64.805 130.83 C 62.431 151.785 73.508 176.215 100.322 189.028 C 100.921 189.316 101.483 189.627 102.098 189.901 C 86.448 181.816 73.525 166.526 71.911 147.962 L 71.911 147.962 Z" fill="url(#k)"/>
    <path d="M 248.033 88.713 C 242.464 75.314 231.169 60.847 222.323 56.274 C 228.632 68.493 233.01 81.615 235.302 95.174 L 235.325 95.389 C 220.835 59.263 196.263 44.697 176.195 12.979 C 175.158 11.362 174.152 9.726 173.176 8.072 C 172.673 7.208 172.202 6.326 171.764 5.427 C 170.931 3.815 170.29 2.112 169.852 0.351 C 169.854 0.183 169.728 0.041 169.561 0.02 C 169.482 -0.001 169.399 -0.001 169.32 0.02 C 169.304 0.02 169.277 0.05 169.257 0.057 C 169.237 0.063 169.194 0.093 169.165 0.106 L 169.214 0.02 C 137.024 18.869 126.101 53.761 125.096 71.214 C 126.591 71.111 128.072 70.985 129.6 70.985 C 152.852 71.028 174.291 83.548 185.754 103.778 C 176.74 97.534 165.728 94.86 154.853 96.275 C 200.949 119.323 188.582 198.69 124.699 195.694 C 119.011 195.461 113.39 194.376 108.024 192.477 C 106.769 192.007 105.515 191.494 104.261 190.936 C 103.537 190.605 102.812 190.275 102.098 189.904 L 102.187 189.961 C 101.566 189.663 100.944 189.353 100.322 189.031 C 100.921 189.319 101.483 189.63 102.098 189.904 C 86.448 181.816 73.525 166.526 71.911 147.962 C 71.911 147.962 77.827 125.916 114.27 125.916 C 118.208 125.916 129.481 114.922 129.683 111.734 C 129.633 110.692 107.329 101.814 98.633 93.249 C 93.987 88.67 91.781 86.464 89.827 84.807 C 88.771 83.913 87.667 83.076 86.52 82.301 C 83.6 72.08 83.476 61.262 86.16 50.977 C 74.338 56.704 63.834 64.822 55.312 74.818 L 55.252 74.818 C 50.173 68.38 50.53 47.151 50.821 42.716 C 49.319 43.32 47.884 44.082 46.542 44.988 C 42.059 48.188 37.867 51.779 34.016 55.718 C 29.629 60.167 25.621 64.975 22.036 70.093 L 22.036 70.112 L 22.036 70.089 C 13.797 81.77 7.953 94.968 4.841 108.92 L 4.67 109.766 C 4.428 110.894 3.347 116.621 3.191 117.851 C 3.191 117.944 3.191 117.755 3.191 117.851 C 2.202 123.763 1.571 129.729 1.3 135.717 L 1.3 136.379 C 1.386 235.04 108.244 296.609 193.644 247.204 C 226.547 228.169 249.303 195.51 255.764 158.051 C 255.979 156.398 256.154 154.761 256.346 153.091 C 258.985 131.274 256.128 109.143 248.033 88.713 L 248.033 88.713 Z M 235.318 95.296 L 235.342 95.432 L 235.318 95.296 Z" fill="url(#l)"/>
  </g>
</svg>
