<?xml version="1.0" encoding="UTF-8" standalone="no"?>
<svg width="512px" height="116px" viewBox="0 0 512 116" version="1.1" xmlns="http://www.w3.org/2000/svg" xmlns:xlink="http://www.w3.org/1999/xlink" preserveAspectRatio="xMidYMid">
    <defs>
        <linearGradient x1="50%" y1="100%" x2="50%" y2="0%" id="linearGradient-1">
            <stop stop-color="#D22929" offset="0%"></stop>
            <stop stop-color="#B71717" offset="100%"></stop>
        </linearGradient>
        <linearGradient x1="50%" y1="0%" x2="50%" y2="100%" id="linearGradient-2">
            <stop stop-color="#E7762E" offset="0%"></stop>
            <stop stop-color="#E7562E" offset="100%"></stop>
        </linearGradient>
    </defs>
	<g>
		<path d="M0.0250618727,75.9308538 L0.00170290096,5.15934008 C0.000762414732,2.30991524 1.96335095,1.22709435 4.37481412,2.73425882 L55.1649832,34.4781145 L55.1649832,113.777778 L7.58395685,84.9008031 C0.989947764,81.310681 0.0343130915,79.0824357 0.0250618727,75.9308538 L0.0250618727,75.9308538 Z" fill="url(#linearGradient-1)"></path>
		<path d="M5.17636891,2.20268248e-13 C2.3175393,2.20268248e-13 -5.79781036e-15,2.31151171 0,5.18375159 L1.42648338e-13,75.8518519 C0.143594249,78.2808586 0.0201798227,80.8133544 7.73270885,84.9590282 C7.73270885,84.9590282 0.175491065,77.6162157 12.0673401,77.5757576 L96.5387205,77.5757576 L96.5387205,2.20268248e-13 L5.17636891,2.20268248e-13 L5.17636891,2.20268248e-13 Z" fill="url(#linearGradient-2)"></path>
		<path d="M139.636364,20.6868687 L139.636364,44.8215488 L165.494949,44.8215488 L165.494949,67.2323232 L139.636364,67.2323232 L139.636364,113.777778 L118.949495,113.777778 L118.949495,0 L168.942761,0 L168.942761,20.6868687 L139.636364,20.6868687 L139.636364,20.6868687 Z M175.838384,113.777778 L175.838384,0 L196.525253,0 L196.525253,93.0909091 L225.83165,93.0909091 L225.83165,113.777778 L175.838384,113.777778 L175.838384,113.777778 Z M272.377104,91.3670034 L256.861953,91.3670034 L253.414141,113.777778 L231.003367,113.777778 L251.690236,0 L277.548822,0 L298.23569,113.777778 L275.824916,113.777778 L272.377104,91.3670034 L272.377104,91.3670034 Z M262.03367,51.7171717 L260.309764,70.6801347 L270.653199,70.6801347 L268.929293,51.7171717 L265.481481,29.3063973 L262.03367,51.7171717 L262.03367,51.7171717 Z M330.989899,0 C335.561564,0 339.699195,0.572152639 343.057239,1.72390572 C347.24132,2.86079755 350.488576,4.76797302 353.400673,6.8956229 C355.935666,10.1081445 358.056857,13.5955511 360.296296,17.2390572 C361.094658,22.2052152 361.854097,27.4635705 362.020202,34.4781145 C361.854097,41.413406 360.858971,47.7343304 358.572391,53.4410774 C356.878403,57.5428087 353.840649,61.4661411 349.952862,63.7845118 L365.468013,113.777778 L343.057239,113.777778 L330.989899,68.956229 L325.818182,68.956229 L325.818182,113.777778 L305.131313,113.777778 L305.131313,0 L330.989899,0 L330.989899,0 Z M325.818182,20.6868687 L325.818182,48.2693603 L329.265993,48.2693603 C330.881029,48.2693603 332.40531,48.0731453 334.43771,48.2693603 C335.236158,47.2882738 336.515465,46.5314447 337.885522,44.8215488 C338.801919,44.2889545 339.700157,42.8033271 339.609428,41.3737374 C341.006701,39.1032182 341.333333,36.6645467 341.333333,34.4781145 C341.333333,29.1522045 340.271781,25.8726117 337.885522,24.1346801 C336.025507,21.7240048 333.27636,20.6868687 329.265993,20.6868687 L325.818182,20.6868687 L325.818182,20.6868687 Z M424.080808,86.1952862 C424.080808,96.3887582 421.749917,103.693356 417.185185,108.606061 C412.426211,113.140046 405.537132,115.501684 396.498316,115.501684 C378.083999,115.501684 368.915825,105.835448 368.915825,86.1952862 L368.915825,0 L389.602694,0 L389.602694,86.1952862 C389.602694,86.1952862 388.95757,94.543448 396.498316,94.8148148 C404.039063,95.0861816 403.393939,86.1952862 403.393939,86.1952862 L403.393939,0 L424.080808,0 L424.080808,86.1952862 Z M465.454545,91.3670034 L462.006734,77.5757576 L456.835017,60.3367003 L455.111111,60.3367003 L455.111111,113.777778 L434.424242,113.777778 L434.424242,0 L455.111111,0 L465.454545,31.030303 L472.350168,53.4410774 L474.074074,53.4410774 L480.969697,29.3063973 L491.313131,0 L512,0 L512,113.777778 L491.313131,113.777778 L491.313131,60.3367003 L489.589226,60.3367003 L484.417508,77.5757576 L480.969697,91.3670034 L465.454545,91.3670034 L465.454545,91.3670034 Z" fill="url(#linearGradient-2)"></path>
	</g>
</svg>