<?xml version="1.0" encoding="UTF-8" standalone="no"?>
<svg width="256px" height="329px" viewBox="0 0 256 329" version="1.1" xmlns="http://www.w3.org/2000/svg" xmlns:xlink="http://www.w3.org/1999/xlink" preserveAspectRatio="xMidYMid">
	<g fill="#000000">
		<path d="M76.5010971,203.351341 C66.7517513,195.681097 56.3478735,188.330586 49.2400916,177.97358 C34.2795999,159.710296 22.7641896,138.569416 14.891392,116.348809 C10.1305508,101.898885 8.50175383,86.4077375 2.36154086,72.5186025 C-4.05320726,62.4277618 3.46637743,51.404506 14.5180912,48.1988059 C19.4346139,47.2513248 28.0858191,42.6093372 17.6434395,45.9305429 C8.27911252,52.7972697 7.37682931,39.6915643 16.9771896,38.8612628 C23.5292052,37.9924595 25.9414318,32.6306542 23.6982787,27.8045271 C16.6624785,23.2144333 40.7529379,18.1790569 28.6298674,11.3324182 C16.0096206,-2.28887761 46.2905127,-4.91035349 38.8177999,10.5607066 C37.0316474,22.4561137 59.9837903,8.37614333 54.6537908,22.1146188 C60.069164,28.7135063 74.925868,23.6195401 74.5525671,32.8717094 C82.4387567,33.4140837 85.1456063,40.0447772 92.5413154,40.5553456 C100.218256,44.0205149 114.120782,46.7474524 116.728866,55.3919616 C109.118886,61.4149949 91.5017646,42.9491582 90.6513752,59.6238205 C92.9531181,84.2616761 92.3655459,109.641111 101.37666,133.102149 C105.638651,147.305995 115.977243,158.486606 125.30809,169.551712 C134.240526,180.385806 146.338487,188.017549 158.670806,194.438993 C169.486487,199.539655 181.145861,202.91945 192.935806,205.045424 C197.715061,201.389419 206.157017,187.794907 213.611316,193.523317 C213.971225,199.971546 198.814876,206.993954 212.899868,206.280832 C221.177773,203.783232 226.912879,212.675492 233.726038,204.652035 C240.003518,212.08792 259.816921,199.904586 255.350703,215.102785 C249.309255,218.999845 240.500695,216.644534 234.452552,222.008013 C224.480564,217.024531 216.540807,226.460839 205.497463,225.270629 C193.237125,227.46691 180.759168,228.35078 168.329756,228.369193 C147.933804,226.760484 127.107634,226.080843 107.706034,218.979757 C96.7731742,215.802514 86.1081533,209.576928 76.5010971,203.351341 L76.5010971,203.351341 Z M93.7248297,210.819032 C104.396547,215.429214 114.833904,220.293843 126.53178,221.765284 C145.089686,224.341562 164.255253,228.3173 182.878445,224.694775 C174.449881,220.889785 165.733391,226.172912 157.336633,221.974533 C147.267554,224.139009 136.458569,221.418767 126.217069,220.077897 C114.577783,214.893535 102.011104,211.3296 91.1100498,204.593445 C77.482058,199.618333 98.152546,210.976387 101.833661,211.898759 C110.347598,216.729908 92.4693336,209.419572 89.9449494,207.412452 C82.8120575,203.409931 81.9030783,204.246928 89.2401976,208.30804 C90.716661,209.171821 92.1763845,210.0808 93.7248297,210.819032 L93.7248297,210.819032 Z M73.4142506,196.4662 C83.7595386,200.297974 73.3690528,189.194367 68.6349955,189.835507 C66.535806,186.192894 60.6115383,183.891151 64.7898294,181.935925 C57.2769407,184.545683 56.9170318,172.015832 53.3865767,173.808681 C45.4351014,171.297688 50.2930343,162.403754 40.8182237,156.938161 C39.9544423,151.182967 31.4086988,146.194462 28.6884573,137.516473 C27.484855,133.070343 19.0295072,120.312828 24.2222391,132.186474 C28.6415854,143.61651 36.4172913,153.412728 42.8906292,163.188858 C47.9126137,172.499617 53.8502733,182.237244 62.9986549,188.044332 C66.0855014,191.005629 69.0601901,195.537133 73.4142506,196.4662 L73.4142506,196.4662 Z M43.623839,163.75132 C43.9820739,162.187809 45.5137791,167.131115 43.623839,163.75132 L43.623839,163.75132 Z M85.8068342,201.056294 C88.0951851,200.030135 82.5107384,199.762296 85.8068342,201.056294 L85.8068342,201.056294 Z M91.4163908,203.10359 C90.8355146,200.277887 88.8535048,204.685515 91.4163908,203.10359 L91.4163908,203.10359 Z M98.4471691,206.033081 C101.788463,202.847469 93.287917,204.024287 98.4471691,206.033081 L98.4471691,206.033081 Z M110.491562,212.747474 C112.525465,209.746001 103.984744,211.617527 110.491562,212.747474 L110.491562,212.747474 Z M87.3636494,196.623556 C92.5547073,193.262174 80.6475822,196.576684 87.3636494,196.623556 L87.3636494,196.623556 Z M92.6333851,199.251728 C92.4827255,197.478967 90.7568369,200.048549 92.6333851,199.251728 L92.6333851,199.251728 Z M118.978715,215.697053 C123.215596,218.372096 143.717011,221.556035 130.880819,216.795193 C128.728061,217.247172 107.078286,210.668372 118.978715,215.697053 L118.978715,215.697053 Z M77.155629,183.11944 C76.7438263,181.341657 70.5768294,181.150822 77.155629,183.11944 L77.155629,183.11944 Z M89.415967,190.274094 C92.6132971,188.044332 82.7919696,188.553227 89.415967,190.274094 L89.415967,190.274094 Z M99.7344711,196.596772 C104.317869,194.870883 92.3069561,194.864187 99.7344711,196.596772 L99.7344711,196.596772 Z M72.1587545,177.685653 C77.1288451,181.497339 92.2081904,178.176133 79.7704089,175.410694 C74.1139805,172.395829 61.363162,170.330119 70.0545431,177.228652 L72.1587545,177.685653 L72.1587545,177.685653 Z M106.725073,198.781335 C108.797479,195.255902 98.0403883,196.765845 106.725073,198.781335 L106.725073,198.781335 Z M96.2224299,190.436471 C108.372284,193.869834 86.0026916,182.746139 93.2226312,189.167583 L94.8246443,189.894097 L96.2224299,190.436471 L96.2224299,190.436471 Z M117.279611,202.606413 C128.788325,202.716897 106.882429,201.017792 117.279611,202.606413 L117.279611,202.606413 Z M67.7327122,171.028175 C67.2807336,168.883788 64.895291,171.205619 67.7327122,171.028175 L67.7327122,171.028175 Z M136.746496,213.525881 C137.052837,209.655605 132.991726,216.410175 136.746496,213.525881 L136.746496,213.525881 Z M87.3753674,183.054154 C86.6756375,181.013554 83.7796265,182.96878 87.3753674,183.054154 L87.3753674,183.054154 Z M68.8241569,169.682283 C75.4297404,169.283873 59.7745409,166.77288 68.8241569,169.682283 L68.8241569,169.682283 Z M46.846279,155.478437 C46.0226735,152.307891 39.6598193,149.783507 46.846279,155.478437 L46.846279,155.478437 Z M104.54051,192.092052 C103.331886,190.711006 103.971352,192.391697 104.54051,192.092052 L104.54051,192.092052 Z M140.446025,214.12852 C140.335541,212.015938 138.490799,214.925341 140.446025,214.12852 L140.446025,214.12852 Z M101.363268,188.809348 C102.011104,186.089107 95.7269275,187.984069 101.363268,188.809348 L101.363268,188.809348 Z M74.6111569,171.853455 C79.5293537,171.329494 66.7316633,168.530575 74.6111569,171.853455 L74.6111569,171.853455 Z M119.862585,199.971546 C127.526133,196.936593 112.394894,198.493408 119.862585,199.971546 L119.862585,199.971546 Z M96.3278916,183.996613 C105.154866,185.133255 85.8202262,177.986972 94.3860576,183.355473 L96.3278916,183.996613 L96.3278916,183.996613 Z M127.008869,202.860861 C135.254967,197.937642 132.534725,214.403055 140.996769,204.253624 C149.339959,198.160283 133.790222,211.786601 144.070224,205.340047 C151.511131,200.36326 162.495885,207.70038 169.434593,210.087496 C174.423098,209.844767 179.276009,214.403055 184.395085,211.629245 C194.243196,208.97429 165.132426,207.693684 172.762495,202.991432 C163.751381,205.614582 157.095577,199.866084 152.661165,194.092476 C142.55191,191.757253 130.867427,186.591305 125.818658,177.640455 C123.759645,174.285769 128.788325,178.117543 124.040876,172.625166 C117.952557,167.209793 114.912582,161.056188 110.824687,154.472367 C105.93997,151.869305 105.364116,144.19906 104.873635,154.217919 C104.913811,147.893567 98.9761514,143.636598 97.5247979,145.402663 C97.498014,139.314344 103.880956,142.36771 99.4147381,137.86299 C98.453865,131.55203 95.2883408,124.974904 94.3391858,117.847034 C92.8627224,114.413671 94.1299364,107.058137 89.2920914,114.832169 C87.5327229,123.051484 88.7095412,104.736307 91.4498707,110.771058 C95.0456116,104.612431 90.1541988,105.337271 89.9583414,106.18766 C92.3002601,100.989906 91.4431748,93.6126112 89.3439853,96.4249224 C90.5927854,90.9124575 91.3192991,76.1411273 87.480829,78.7626032 C89.8076818,72.9956911 91.8951534,52.3837929 81.7842247,60.2448726 C77.6913074,60.3034624 70.5969174,61.729706 67.2489277,63.3970048 C77.7565932,69.1907008 66.189289,65.4894983 61.9055363,64.5671272 C61.34977,69.9289326 57.1128892,67.6137977 51.8163696,67.6656916 C60.2784134,68.7119383 47.6966683,76.3168968 42.8521274,73.3622959 C36.5478629,76.3704646 48.2859145,83.8900493 42.976003,86.2169021 C43.6305349,89.7155512 33.3237489,84.949688 34.1289404,93.0451269 C28.0138374,90.4671749 33.291943,102.643813 36.3520055,98.5241119 C46.7558833,101.343119 43.6757328,107.757867 43.936876,113.857904 C42.2427932,117.408447 35.5669019,105.508018 42.4520426,106.057089 C37.0182554,97.2351359 36.4440752,102.866454 31.9309852,106.966068 C30.8847385,107.260691 43.4396995,112.798266 35.560206,115.531899 C42.4922185,116.60493 42.6947718,122.673161 44.1076235,126.511631 C48.2725226,130.8523 47.4154372,121.71731 52.4056158,126.936826 C49.2467875,122.286468 35.6907776,113.837816 46.6052237,116.54634 C46.5466339,111.870873 44.6299099,108.097688 47.9778995,108.188084 C51.2940832,102.191835 44.5060342,122.979502 51.9737251,115.35613 C54.0394347,114.453847 54.5566991,109.353184 58.2712936,115.839914 C63.6649049,121.149826 60.2198235,124.993318 52.6081691,120.128689 C53.9674529,124.752263 62.7894056,126.399474 61.1288027,133.626109 C62.8864973,139.982267 65.3455956,137.640349 67.489983,137.273744 C69.1706738,143.447437 70.1265248,138.909237 70.2052026,135.966354 C77.9005567,137.615239 76.0959903,142.165157 78.5082169,145.344073 C83.8114324,147.736211 70.9166504,129.119715 80.0198342,139.746234 C89.5984325,148.397439 83.615575,152.006572 75.0179377,150.620504 C80.4584208,150.181918 82.2094194,157.977712 89.0175563,157.703177 C95.223055,160.657777 99.42813,171.997418 88.7296292,167.275079 C85.0217307,163.927089 71.8842194,159.800692 82.6162001,166.163546 C92.5162054,170.75364 100.389003,173.49397 109.942491,179.25586 C116.775738,184.133881 119.730339,189.723349 122.320009,190.82986 C116.573185,193.575211 105.005881,188.638601 113.596822,187.128657 C108.235017,186.154392 102.206961,183.440847 107.339429,190.116738 C111.706882,193.766047 122.803794,193.379354 124.799195,193.791157 C123.111809,197.505751 120.215798,197.800374 124.864481,198.088301 C119.678445,200.853741 126.53178,201.285631 127.008869,202.860861 L127.008869,202.860861 Z M116.402437,172.906397 C113.243609,169.603606 112.4267,163.424891 115.839975,168.798414 C117.592648,169.50484 121.44451,178.902647 116.402437,172.906397 L116.402437,172.906397 Z M150.948668,194.850795 C152.917286,194.720224 151.007258,196.347347 150.948668,194.850795 L150.948668,194.850795 Z M111.420629,164.810958 C111.295079,159.82078 112.557271,168.661147 111.420629,164.810958 L111.420629,164.810958 Z M107.987265,160.194081 C104.011528,152.523837 112.989162,162.365252 107.987265,160.194081 L107.987265,160.194081 Z M66.3717545,131.475026 C68.7069772,130.8523 67.5234629,135.462481 66.3717545,131.475026 L66.3717545,131.475026 Z M99.4934158,149.423598 C100.924681,144.041705 101.174107,153.936688 99.4934158,149.423598 L99.4934158,149.423598 Z M76.0959903,133.154043 C74.4487794,130.18605 79.5427456,135.941244 76.0959903,133.154043 L76.0959903,133.154043 Z M96.1705361,139.588879 C92.4107438,131.167011 98.8388838,134.985393 97.0075335,140.96825 L96.1705361,139.588879 L96.1705361,139.588879 Z M61.5473014,116.499468 C59.8666106,113.734029 57.0877792,105.625198 57.9833665,103.147686 C58.786884,107.182013 66.5558939,120.50199 61.7883567,108.666846 C56.525317,98.7467532 68.0859252,111.882591 69.2761355,114.361777 C69.8319017,116.820875 66.0252375,113.688831 68.6015156,119.462439 C63.9009381,112.890335 65.8293801,123.09166 61.5473014,116.499468 L61.5473014,116.499468 Z M50.8488006,109.123847 C51.2873872,102.695707 53.294507,113.531475 50.8488006,109.123847 L50.8488006,109.123847 Z M55.6615357,110.78445 C57.9565825,105.933213 59.5518996,117.545715 55.6615357,110.78445 L55.6615357,110.78445 Z M44.0808396,101.826904 C40.0984059,97.862884 37.2141128,94.2152493 44.270001,99.3678053 C46.9835466,99.471593 38.2285537,91.069813 44.9245329,96.6994576 C51.9603331,97.9817376 48.3963982,108.241652 44.0808396,101.826904 L44.0808396,101.826904 Z M50.1624627,101.669548 C52.4775975,99.3745013 51.3911749,103.926093 50.1624627,101.669548 L50.1624627,101.669548 Z M53.9088631,102.866454 C50.396822,96.2943508 58.1658319,105.625198 53.9088631,102.866454 L53.9088631,102.866454 Z M46.4679562,95.7586725 C34.88726,85.4451905 61.0166451,101.145588 48.3578963,97.6670266 L46.4679562,95.7586725 L46.4679562,95.7586725 Z M79.6532293,115.034723 C74.6379408,112.03325 78.3190554,93.8821243 80.0332261,106.293122 C84.904551,104.716219 79.763713,112.70787 83.3929337,112.629192 C82.8254495,117.669591 81.1966525,119.482527 79.6532293,115.034723 L79.6532293,115.034723 Z M91.9269593,122.293164 C92.4174397,116.820875 92.9598141,126.034543 91.9269593,122.293164 L91.9269593,122.293164 Z M89.7959639,120.180583 C90.3450342,117.847034 89.8478577,122.934304 89.7959639,120.180583 L89.7959639,120.180583 Z M48.7362191,92.370507 C41.2953122,82.1038968 70.3608841,102.754297 53.5037563,94.9735689 C51.7443878,94.5098724 49.6200884,94.3458209 48.7362191,92.370507 L48.7362191,92.370507 Z M72.3746999,104.900358 C71.669948,96.255849 73.944907,106.331624 72.3746999,104.900358 L72.3746999,104.900358 Z M90.3182502,116.414094 C91.704318,111.490876 90.4237119,119.671688 90.3182502,116.414094 L90.3182502,116.414094 Z M49.8812316,88.4533591 C54.3022519,87.5058781 68.2031048,96.2156731 55.4388944,90.9392414 C54.0210207,89.3690343 50.9927641,90.0821561 49.8812316,88.4533591 L49.8812316,88.4533591 Z M87.8524559,107.37787 C88.3245224,98.5375039 90.4956937,102.101439 87.8725438,108.646759 L87.8524559,107.37787 L87.8524559,107.37787 Z M53.1706314,85.3748827 C54.9751978,82.7316449 48.3830062,73.4275817 54.1181124,82.038611 C56.5972988,84.0072289 61.2911802,85.3347068 57.1463691,86.1650082 C63.6649049,91.9135064 55.557748,87.7218234 53.1706314,85.3748827 L53.1706314,85.3748827 Z M85.9759077,104.619127 C87.2196859,94.5483743 87.0757223,110.516611 85.9759077,104.619127 L85.9759077,104.619127 Z M49.4041431,76.0758415 C50.7835148,75.4865953 50.1356788,77.9122138 49.4041431,76.0758415 L49.4041431,76.0758415 Z M57.9632785,81.1698077 C60.1662557,76.546234 62.0243899,86.3223637 57.9632785,81.1698077 L57.9632785,81.1698077 Z M82.0989357,94.5935721 C82.0788478,92.8224856 82.5559363,97.1765461 82.0989357,94.5935721 L82.0989357,94.5935721 Z M80.6994761,91.5017037 C77.3514864,83.2355173 83.8181284,95.8758521 80.6994761,91.5017037 L80.6994761,91.5017037 Z M78.6454844,86.0796345 C78.0846962,82.6663591 80.5555125,90.3700832 78.6454844,86.0796345 L78.6454844,86.0796345 Z M81.993474,80.6391514 C79.6917312,76.5914319 84.897855,62.7876707 85.4804052,71.3484802 C83.0531128,78.0176755 84.7806754,81.7456619 86.4663882,72.7998337 C89.5934105,65.7640335 85.7934423,86.6956646 81.993474,80.6391514 L81.993474,80.6391514 Z M85.4335334,60.114301 C86.4345823,58.8839148 85.6561747,61.5974604 85.4335334,60.114301 L85.4335334,60.114301 Z M79.6867092,173.324896 C78.3257514,172.134686 79.8624787,174.07652 79.6867092,173.324896 L79.6867092,173.324896 Z M91.5218525,179.307754 C98.1056741,181.001836 98.0738682,178.286617 92.1228167,177.476403 C88.9254866,174.501714 78.8229279,171.342886 87.8658478,177.109798 C88.46179,178.628112 90.3517301,178.587936 91.5218525,179.307754 L91.5218525,179.307754 Z M68.151211,163.783126 C71.7737357,166.491649 81.8110086,171.446674 73.3171589,164.817654 C76.1813641,161.488079 67.8364999,159.716992 70.6036133,157.487231 C63.5611172,153.176695 65.0442766,153.563387 69.9825613,153.700655 C61.5205175,149.914079 71.2045775,150.202006 70.7475769,148.260172 C67.484961,147.619032 54.5366111,142.504978 62.1549615,148.67867 C54.4127355,144.734739 60.3102193,150.150112 57.9699745,149.580954 C50.0503051,147.423174 65.0191667,155.610683 56.7144784,153.576779 C61.2526783,157.17252 68.9363145,162.797143 58.6295285,157.38177 C57.2769407,159.336995 66.0068236,162.299966 68.151211,163.783126 L68.151211,163.783126 Z M80.5287286,170.897604 C95.576268,175.743819 73.1464115,164.96664 80.5287286,170.897604 L80.5287286,170.897604 Z M143.89278,209.282305 C144.088638,206.294224 141.838789,211.831799 143.89278,209.282305 L143.89278,209.282305 Z M150.406294,212.022634 C153.878159,208.661253 150.550258,217.38444 156.159814,211.199029 C156.218404,206.771312 155.990741,204.156533 149.71326,209.536752 C147.979002,210.499299 147.208964,214.572128 150.406294,212.022634 L150.406294,212.022634 Z M47.0237224,147.096745 C45.9573877,142.905062 39.5493356,142.923476 47.0237224,147.096745 L47.0237224,147.096745 Z M53.9741489,151.653359 C51.3911749,147.371281 44.7604814,147.776387 53.9741489,151.653359 L53.9741489,151.653359 Z M93.5423643,175.514481 C97.4076183,178.947845 111.283361,178.03217 98.2312237,175.939676 C96.3011077,173.082167 85.9641897,173.768505 93.5423643,175.514481 L93.5423643,175.514481 Z M147.927108,209.106535 C153.871463,204.116357 142.166892,211.3296 147.927108,209.106535 L147.927108,209.106535 Z M160.292907,217.600385 C160.331409,215.998372 157.730021,218.300115 160.292907,217.600385 L160.292907,217.600385 Z M160.312995,215.357232 C166.896817,208.386717 153.936749,215.769035 160.312995,215.357232 L160.312995,215.357232 Z M29.9171695,132.77572 C24.3076128,124.772351 26.4319123,121.174936 21.018213,114.636312 C19.9903802,109.634415 11.7325638,98.2947746 16.7478523,110.307361 C21.337946,117.336466 22.6989038,128.217432 29.9171695,132.77572 L29.9171695,132.77572 Z M158.245612,213.140863 C170.36366,205.313263 153.277195,209.734283 158.245612,213.140863 L158.245612,213.140863 Z M167.492759,216.763387 C173.56099,211.557264 163.654289,215.676965 167.492759,216.763387 L167.492759,216.763387 Z M44.9630348,138.248009 C46.6972934,135.665035 40.4784027,137.914884 44.9630348,138.248009 L44.9630348,138.248009 Z M165.562643,214.290897 C171.435017,210.505995 164.210055,211.086871 164.497982,214.637414 L165.562643,214.290897 L165.562643,214.290897 Z M85.865424,164.057661 C85.6628707,161.494775 82.7601637,164.273606 85.865424,164.057661 L85.865424,164.057661 Z M90.7886428,166.89006 C89.2201097,163.724536 88.3831122,167.387236 90.7886428,166.89006 L90.7886428,166.89006 Z M174.98556,216.848761 C182.511841,211.419996 170.428946,215.807536 173.410331,217.881616 L174.98556,216.848761 L174.98556,216.848761 Z M172.102941,215.455998 C178.236458,210.321855 165.634625,217.730956 172.102941,215.455998 L172.102941,215.455998 Z M186.827399,225.257237 C190.942078,222.503516 181.825503,224.368346 186.827399,225.257237 L186.827399,225.257237 Z M48.7362191,136.384853 C54.248684,137.620261 70.7793828,149.965972 61.030037,137.241938 C56.0348365,135.763801 59.0296132,123.555356 53.935647,125.713136 C57.3556184,131.428154 56.7462843,133.853772 49.5665206,130.258032 C40.5503845,125.850403 44.4993383,132.435899 46.2654028,134.253857 C43.8581982,134.802927 49.4426449,136.339655 48.7362191,136.384853 L48.7362191,136.384853 Z M23.607883,116.539644 C24.593866,112.451749 14.5113952,94.0712857 18.8470418,107.325977 C20.4088789,110.104808 20.2465014,115.367848 23.607883,116.539644 L23.607883,116.539644 Z M69.733136,144.977468 C66.8890189,142.603743 69.5958685,144.637647 69.733136,144.977468 L69.733136,144.977468 Z M76.7237384,146.606265 C76.7237384,142.277314 68.9949043,144.846896 76.7237384,146.606265 L76.7237384,146.606265 Z M137.340765,184.813522 C136.184034,181.857248 132.770759,184.748237 137.340765,184.813522 L137.340765,184.813522 Z M140.250167,186.937822 C139.818277,185.283915 138.569477,187.259229 140.250167,186.937822 L140.250167,186.937822 Z M164.275341,202.075757 C166.58378,200.369956 161.391048,201.85479 164.275341,202.075757 L164.275341,202.075757 Z M36.1561481,119.74367 C42.7667536,117.185806 29.0734761,117.919016 36.1561481,119.74367 L36.1561481,119.74367 Z M132.004069,180.124663 C131.927065,175.847606 127.787276,181.190998 132.004069,180.124663 L132.004069,180.124663 Z M33.5463902,113.655351 C37.7899671,112.224085 29.6158504,112.714566 33.5463902,113.655351 L33.5463902,113.655351 Z M45.865318,119.624817 C45.7933362,118.220335 44.5646241,120.162169 45.865318,119.624817 L45.865318,119.624817 Z M196.166616,211.793297 C201.625513,210.68846 214.069991,214.572128 216.07711,210.348639 C209.446417,210.184588 193.145056,205.666476 192.373344,211.419996 L193.824697,211.649333 L196.166616,211.793297 L196.166616,211.793297 Z M49.7824659,120.612473 C49.8812316,116.276827 46.4026704,120.450096 49.7824659,120.612473 L49.7824659,120.612473 Z M17.3889923,98.1390931 C15.9175508,89.8796027 11.7911536,96.888619 17.3889923,98.1390931 L17.3889923,98.1390931 Z M25.1111303,100.080927 C25.209896,97.4259713 18.0418503,97.6938105 25.1111303,100.080927 L25.1111303,100.080927 Z M29.5254547,102.252098 C28.2498706,101.21757 28.5311017,103.552792 29.5254547,102.252098 L29.5254547,102.252098 Z M57.3087466,120.070099 C58.6178105,118.866497 54.2101822,119.181208 57.3087466,120.070099 L57.3087466,120.070099 Z M26.5892678,97.3606855 C25.8376441,91.1217069 17.6367435,96.4249224 26.5892678,97.3606855 L26.5892678,97.3606855 Z M10.7449069,87.0806834 C10.5222656,84.2030863 9.20148366,88.165432 10.7449069,87.0806834 L10.7449069,87.0806834 Z M13.1052396,85.3029009 C12.7202208,81.8879515 11.0780318,85.7331176 13.1052396,85.3029009 L13.1052396,85.3029009 Z M26.1188752,93.0702368 C31.6246442,90.9124575 16.0933203,88.5973227 24.9939507,92.6651301 L26.1188752,93.0702368 L26.1188752,93.0702368 Z M200.344907,200.689689 C203.868666,197.460553 195.871993,199.690314 200.344907,200.689689 L200.344907,200.689689 Z M221.393718,211.597439 C222.80657,207.425844 217.836479,212.14651 221.393718,211.597439 L221.393718,211.597439 Z M27.4513751,86.250382 C28.0339253,82.2093585 23.0839226,87.0538995 27.4513751,86.250382 L27.4513751,86.250382 Z M8.92694851,73.8393844 C7.93259559,68.1377581 8.06986316,58.1255951 17.5848497,61.5070647 C4.88592503,64.0314488 26.3800184,77.2978577 23.6664728,66.8219982 C29.0081903,67.0848154 34.1155484,63.664844 31.3099331,68.8492059 C41.8376865,67.6924755 49.1296079,58.5641818 59.2974524,59.8464618 C67.2154479,58.7935191 75.873349,58.0017195 84.4073746,54.8110854 C91.4230868,54.307213 98.1776559,46.7541484 94.3341638,42.2745383 C84.7672835,41.4643248 74.7484245,42.6612311 64.1754733,44.7671165 C52.4575096,47.199431 41.8125766,51.8280267 29.9891512,53.8167325 C18.460349,55.3668517 32.3042861,58.0803973 29.0014943,58.6880574 C22.9918529,60.7738549 36.1745621,62.1800106 28.2230867,64.3829877 C23.3132599,63.4488986 18.1992058,61.7615119 20.2983953,56.5821719 C9.26007348,58.0218075 -0.444074448,62.5985093 8.27911252,73.8326885 L8.92694851,73.8393844 L8.92694851,73.8393844 Z M35.535096,60.2900704 C38.11807,50.75667 49.3974471,68.1377581 39.7719769,61.5589585 C38.6269645,60.6951772 36.7303283,59.9954473 35.535096,60.2900704 L35.535096,60.2900704 Z M36.0372945,55.6664968 C39.7719769,52.8876654 38.0193043,57.2300079 36.0372945,55.6664968 L36.0372945,55.6664968 Z M40.7780478,55.7451745 C41.1195427,51.3576341 51.6406001,58.0670053 42.5123064,57.3220776 L40.7780478,55.7451745 L40.7780478,55.7451745 Z M47.2647777,53.1370906 C49.6385023,50.3632812 47.9527896,55.594515 47.2647777,53.1370906 L47.2647777,53.1370906 Z M48.9270545,52.025558 C52.8760083,47.2848047 71.2698633,48.9973014 57.805923,51.5601875 C54.1967902,48.8399459 51.4313508,53.1622005 48.9270545,52.025558 L48.9270545,52.025558 Z M72.9371621,48.3243555 C72.342894,35.3693097 84.8710711,52.9211453 72.9371621,48.3243555 L72.9371621,48.3243555 Z M79.751995,48.2841796 C82.2428993,41.7589479 89.422663,45.6627038 80.9087254,46.9700937 C81.0911908,47.6698235 80.6542782,50.3448673 79.751995,48.2841796 L79.751995,48.2841796 Z M24.7646134,82.9023923 C32.2055204,78.3441045 16.8650319,78.9467426 24.7646134,82.9023923 L24.7646134,82.9023923 Z M30.2703824,84.4257276 C32.8801403,81.6535922 24.593866,83.3008031 30.2703824,84.4257276 L30.2703824,84.4257276 Z M14.0543946,72.9237093 C18.3046674,69.6543974 9.01901822,71.6816051 14.0543946,72.9237093 L14.0543946,72.9237093 Z M233.818107,210.407229 C233.941983,206.613957 230.56721,212.11303 233.818107,210.407229 L233.818107,210.407229 Z M211.487017,195.163832 C212.121461,190.803076 208.616116,195.543829 211.487017,195.163832 L211.487017,195.163832 Z M239.95832,211.878671 C245.902676,211.898759 257.972179,210.027232 245.038895,210.033928 C243.004991,210.348639 233.210447,210.283354 239.95832,211.878671 L239.95832,211.878671 Z M35.1099014,81.7506839 C39.9226364,81.4242549 42.636182,76.4474684 34.1741383,76.7286995 C21.0634109,75.3761117 45.7414424,81.2217016 32.4934475,79.5477067 C30.715665,80.7245251 35.0044397,82.0787869 35.1099014,81.7506839 L35.1099014,81.7506839 Z M39.3467822,83.8967453 C38.8429098,80.8098988 37.8552528,85.5372602 39.3467822,83.8967453 L39.3467822,83.8967453 Z M44.3754626,70.4913948 C46.4612602,67.9017248 41.4844736,69.798361 44.3754626,70.4913948 L44.3754626,70.4913948 Z M28.3670503,43.7392837 C36.9596656,40.8231848 48.7044132,37.5404809 52.7588287,45.1789193 C48.6324314,40.2155247 51.0915298,35.3241118 54.9885897,42.5892493 C60.5010547,49.9330645 63.2597981,39.2479556 59.6757752,36.7821613 C63.7636705,41.8560396 68.4056582,44.2565481 62.4094087,37.1035683 C68.9296185,29.2625766 49.3639672,38.1297271 44.917837,38.0376574 C42.7801456,38.9985304 22.8294754,43.1249276 28.3670503,43.7392837 L28.3670503,43.7392837 Z M33.4024266,34.1020956 C38.3005355,30.407589 50.3449281,36.3050728 42.6160941,30.426003 C41.8577744,29.7597531 25.6936805,34.8855252 33.4024266,34.1020956 L33.4024266,34.1020956 Z M51.2606033,34.8403273 C56.9890135,34.9842909 48.789787,27.1366032 55.6163378,30.6938422 C54.4981093,27.0328155 47.6648624,26.3464776 44.3235688,24.8817322 C42.4336287,28.2297218 48.1670609,34.8855252 51.2606033,34.8403273 L51.2606033,34.8403273 Z M36.5344709,18.6293616 C38.5164808,15.9425999 33.0559097,19.9970153 36.5344709,18.6293616 L36.5344709,18.6293616 Z M43.8330883,20.3753381 C53.0718657,19.1533219 41.4777776,16.3996005 41.9682581,20.2782464 L43.8330883,20.3753381 L43.8330883,20.3753381 Z M30.2050966,9.71701318 C23.6982787,1.2231635 42.4403246,11.1432568 35.8280451,2.24932232 C30.2636864,-2.17671996 24.9219689,7.23950086 30.2050966,9.71701318 L30.2050966,9.71701318 Z M113.6755,54.6738178 C116.658559,49.3890162 101.363268,47.5459479 111.66838,52.8022916 C112.615861,53.1170027 112.40159,55.0387487 113.6755,54.6738178 L113.6755,54.6738178 Z"></path>
		<g transform="translate(0.000000, 244.000000)">
			<path d="M53.1076167,7.49458425 C52.4484426,10.1012239 52.0390499,14.4739527 51.8856572,20.611734 C51.8856572,21.818147 51.342564,22.4213535 50.2543049,22.4213535 C49.1650094,22.4213535 48.4073738,21.8948434 47.9782887,20.8459689 C46.8122968,18.0082037 45.7074547,16.0286085 44.6544345,14.8988919 C43.4117462,13.5795073 41.7596653,12.7814506 39.699228,12.5099041 C37.4843616,12.1585519 31.9663697,11.9844304 23.1442159,11.9844304 C21.1241997,11.9844304 19.8006693,12.1989729 19.1808798,12.6280579 C18.7922159,12.8985681 18.5984021,13.4820822 18.5984021,14.3765276 L18.5984021,40.7859851 C18.5984021,41.6804304 19.1611875,42.1053697 20.2857219,42.0690944 C23.7474223,42.0286733 28.7596329,41.7934021 35.3264993,41.3684628 C36.6096086,41.2109243 37.4760701,40.7942766 37.9217381,40.1133373 C38.3715519,39.4334345 38.8089284,37.6766733 39.2338677,34.8378717 C39.5043778,33.2832158 40.4195519,32.6800094 41.9742078,33.032398 C43.2946288,33.3039446 43.86156,33.9071511 43.6667098,34.8378717 C42.5774142,40.1257745 42.2250256,47.0046085 42.6136895,55.477483 C42.655147,56.4859365 42.0146288,57.0321389 40.6910985,57.1098717 C39.6018029,57.2269891 38.9219001,56.6434749 38.6503535,55.3603656 C37.6429365,50.5025842 35.7638758,47.9073454 33.026645,47.574649 C30.2863049,47.2471349 25.8244426,47.0813049 19.6462402,47.0813049 C18.946645,47.0813049 18.5984021,47.3321227 18.5984021,47.8379041 L18.5984021,74.0732401 C18.5984021,76.01656 19.3145802,77.3400903 20.7521187,78.0365762 C21.8818353,78.6200903 24.3102078,79.145564 28.039309,79.6119608 C29.9463535,79.8057745 30.7796491,80.6442523 30.54956,82.118066 C30.3142887,83.4011753 28.6062402,83.9069567 25.4160863,83.6354102 C16.2052685,82.895394 8.6061106,82.935815 2.62275837,83.753564 C0.949948653,83.9836531 0.116653106,83.3037502 0.116653106,81.7128191 C0.116653106,80.7002199 0.949948653,80.1177421 2.62275837,79.963313 C6.43166525,79.534228 8.33456404,76.1906814 8.33456404,69.9357826 L8.33456404,20.0282199 C8.33456404,17.466147 7.87749521,15.4938069 6.96646687,14.1132725 C6.05129278,12.7327381 4.35049926,11.4776126 1.86512274,10.3520417 C0.310466871,9.6524466 -0.272010861,8.7009972 0.116653106,7.49458425 C0.310466871,6.75767737 0.622434483,6.34828465 1.04737375,6.2715883 C1.43603772,6.15447089 2.46832922,6.23116724 4.13595675,6.50582312 C6.5860944,6.89448708 12.3590499,7.08933729 21.4517138,7.08933729 C32.1809122,7.08933729 41.4476976,6.85406603 49.2624345,6.38870571 C51.8649284,6.23116724 53.1687665,6.44570976 53.1687665,7.02818749 C53.1687665,7.18676239 53.1490742,7.3401551 53.1076167,7.49458425 L53.1076167,7.49458425 Z"></path>
			<path d="M90.9152389,81.5023158 C90.9152389,83.0569717 90.0404858,83.7368745 88.2920162,83.5420243 C82.9315628,83.0362429 76.2838543,83.1129393 68.3561457,83.7731498 C66.7610688,83.9306883 65.7816356,83.8902672 65.4095547,83.6601781 C65.040583,83.4249069 64.85817,82.7854251 64.85817,81.7324049 C64.85817,80.8016842 65.915336,80.0160648 68.0327773,79.3724372 C70.1543644,78.7329555 71.2104939,76.8176194 71.2104939,73.6316113 L71.2104939,20.8707368 C71.2104939,17.721004 70.7534251,15.4087126 69.8423968,13.930753 C68.9272227,12.45383 67.3238543,11.3075304 65.0322915,10.4939271 C63.8258785,10.0648421 63.2226721,9.46163563 63.2226721,8.68430769 C63.2226721,7.51831579 64.0974251,6.64356275 65.8458947,6.06108502 C68.4898462,5.20602429 71.2312227,3.88663968 74.0689879,2.09671255 C76.4009717,0.69648583 77.8789312,0 78.4976842,0 C79.9352227,0 80.656583,0.987724696 80.656583,2.97146559 C80.656583,2.81807287 80.5788502,4.76139271 80.4213117,8.8014251 C80.3083401,12.6476437 80.267919,16.4368583 80.3083401,20.1701053 L80.5384291,72.2303482 C80.5384291,74.602753 81.1219433,76.3242753 82.2879352,77.3928421 C83.4539271,78.4614089 85.4573603,79.170332 88.2920162,79.5185749 C90.0404858,79.7123887 90.9152389,80.3725992 90.9152389,81.5023158 L90.9152389,81.5023158 Z"></path>
			<path d="M143.643984,78.0644534 C143.643984,78.8822024 142.157733,80.1134899 139.186267,81.7645344 C136.210656,83.4166154 133.82996,84.2426559 132.044178,84.2426559 C130.525798,84.2426559 129.186721,83.505749 128.020729,82.0277895 C126.854737,80.5508664 126.035951,79.8139595 125.570591,79.8139595 C125.222348,79.8139595 123.376453,80.6109798 120.03187,82.2019109 C116.69247,83.7969879 113.328194,84.5950445 109.947336,84.5950445 C106.761328,84.5950445 104.096648,83.6601781 101.959514,81.7977004 C99.6275304,79.7362267 98.4615385,76.9388826 98.4615385,73.4004858 C98.4615385,66.676081 106.158121,61.8576842 121.550251,58.9432227 C124.190057,58.4374413 125.534316,57.3678381 125.570591,55.7364858 L125.688745,52.0042753 C125.92298,45.6312227 123.104907,42.4452146 117.234526,42.4452146 C115.562753,42.4452146 113.980113,43.9387206 112.481425,46.930915 C110.987919,49.9272551 108.838348,51.5378785 106.039968,51.7731498 C102.85396,52.0809717 101.258883,50.7408583 101.258883,47.748664 C101.258883,45.8820405 103.631287,43.7086316 108.371951,41.2180729 C113.347887,38.6155789 118.130008,37.3117409 122.716243,37.3117409 C130.60353,37.3117409 134.509862,41.0646802 134.433166,48.566413 L134.197895,72.5827368 C134.161619,75.1095709 135.231223,76.3719514 137.404632,76.3719514 C137.833717,76.3719514 138.651466,76.2755628 139.853733,76.0807126 C141.061182,75.8868988 141.760777,75.7894737 141.955628,75.7894737 C143.081198,75.7894737 143.643984,76.5502186 143.643984,78.0644534 L143.643984,78.0644534 Z M125.688745,64.7731822 C125.729166,63.801004 125.502186,63.1573765 125.016097,62.8495547 C124.530008,62.5386235 123.765117,62.4774737 122.716243,62.6723239 C113.347887,64.3440972 108.664227,67.3964049 108.664227,71.8261377 C108.664227,76.2952551 111.092599,78.5298138 115.951417,78.5298138 C117.894737,78.5298138 119.899206,78.1618785 121.955498,77.4249717 C124.368324,76.5668016 125.570591,75.5386559 125.570591,74.3322429 L125.688745,64.7731822 Z"></path>
			<path d="M186.987789,71.3566316 C186.987789,75.4775061 185.399968,78.7536842 182.234688,81.1820567 C179.068372,83.6114656 174.744356,84.82617 169.26264,84.82617 C165.611271,84.82617 161.954721,84.4375061 158.303352,83.6601781 C155.153619,82.9595466 153.327417,82.3200648 152.821636,81.7365506 C152.509668,81.1903482 152.356275,78.5308502 152.356275,73.7487287 C152.356275,71.6882915 152.821636,70.6197247 153.756502,70.5430283 C154.688259,70.4248745 155.485279,70.9316923 156.14549,72.0572632 C159.059951,77.1503158 163.76434,79.6968421 170.25451,79.6968421 C175.732081,79.6968421 178.473457,77.7897976 178.473457,73.9798543 C178.473457,72.3122267 177.853668,70.9109636 176.606834,69.7853927 C175.245992,68.5022834 172.607223,67.0046316 168.680162,65.2955466 C163.003595,62.769749 159.214381,60.5548826 157.311482,58.6478381 C155.250008,56.6278219 154.221862,53.9071741 154.221862,50.4858947 C154.221862,46.2872874 155.833522,43.024583 159.059951,40.6925992 C162.052146,38.4373117 166.055903,37.3117409 171.068113,37.3117409 C174.217846,37.3117409 177.092923,37.5625587 179.699563,38.0693765 C182.497943,38.5751579 183.955174,39.1949474 184.072291,39.9349636 C184.380113,42.1094089 185.023741,45.2591417 185.995919,49.3810526 C186.113036,49.8826883 185.565798,50.292081 184.36353,50.6030121 C183.080421,50.8745587 182.226397,50.6600162 181.797312,49.9635304 C178.728421,44.9471741 174.841781,42.4410688 170.137393,42.4410688 C164.813215,42.4410688 162.149571,44.1501538 162.149571,47.5714332 C162.149571,49.4774413 162.869895,50.9916761 164.307433,52.117247 C165.590543,53.0894251 168.602429,54.6078057 173.34413,56.6682429 C178.319028,58.8053765 181.699887,60.729004 183.489814,62.4370526 C185.821798,64.651919 186.987789,67.6275304 186.987789,71.3566316 L186.987789,71.3566316 Z"></path>
			<path d="M255.575061,81.5593198 C255.575061,82.9191255 254.659887,83.6404858 252.833684,83.7171822 C250.113036,83.7576032 246.553911,83.951417 242.165636,84.2996599 C239.988081,84.7287449 238.433425,84.4582348 237.501668,83.4860567 C231.359741,76.8787692 226.149571,69.9595142 221.874267,62.7293279 C221.526024,62.1095385 221.080356,61.7975709 220.534154,61.7975709 C219.873943,61.7975709 218.72868,62.381085 217.097328,63.5470769 C215.26698,64.5555304 214.355951,65.9961781 214.355951,67.8586559 C214.355951,69.1821862 214.392227,71.085085 214.473069,73.5756437 C214.550802,76.0610202 215.169555,77.6923725 216.335547,78.4697004 C217.153296,79.0169393 219.040648,79.4418785 221.991385,79.7538462 C223.817587,79.988081 224.732761,80.6679838 224.732761,81.7935547 C224.732761,82.6890364 224.586623,83.2435304 224.295385,83.4539271 C224.004146,83.6684696 223.234073,83.7171822 221.991385,83.6000648 C218.104745,83.2518219 211.537879,83.4456356 202.287676,84.1825425 C199.955692,84.3773927 198.692275,84.0851174 198.497425,83.3077895 C198.420729,83.0372794 198.380308,82.6486154 198.380308,82.1417976 C198.380308,80.9395304 199.567028,80.0243563 201.939433,79.4056032 C204.076567,78.8583644 205.145134,76.3522591 205.145134,71.8831417 L205.145134,20.9277409 C205.145134,17.7417328 204.834202,15.5268664 204.210267,14.2841781 C203.356243,12.6891012 201.566316,11.4453765 198.845668,10.5509312 C197.566704,10.1259919 196.923077,9.52278543 196.923077,8.74545749 C196.923077,7.61574089 197.838251,6.74098785 199.663417,6.12223482 C202.578915,5.15005668 205.35553,3.80994332 207.999482,2.09774899 C210.137652,0.700631579 211.461182,0 211.962818,0 C213.558931,0 214.355951,1.00845344 214.355951,3.03261538 C214.355951,2.75795951 214.336259,4.68469636 214.294802,8.80246154 C214.258526,11.6402267 214.238834,15.45017 214.238834,20.2312551 L214.355951,56.725247 C214.355951,57.7368097 214.627498,58.2394818 215.169555,58.2394818 C215.753069,58.2394818 216.647514,57.7368097 217.853927,56.725247 C221.080356,54.198413 225.044729,50.8952874 229.744972,46.8137976 C230.679838,45.8426559 231.145198,45.0653279 231.145198,44.4818138 C231.145198,43.4339757 229.57085,42.6929231 226.425263,42.2679838 C225.064421,42.1094089 224.420794,41.3528097 224.49749,39.9919676 C224.614607,38.6321619 225.295547,38.0486478 226.538235,38.243498 C229.339725,38.6321619 233.421215,38.8467045 238.780632,38.8871255 C242.513879,38.9234008 246.226397,38.9441296 249.919223,38.9441296 C251.12149,38.9845506 251.724696,39.7007287 251.724696,41.1019919 C251.724696,42.4213765 250.773247,43.1417004 248.870348,43.2598543 C245.874008,43.3728259 243.055935,44.0527287 240.417166,45.2995628 C236.72434,46.9682267 232.776551,49.903417 228.57898,54.1020243 C228.271158,54.3362591 228.112583,54.627498 228.112583,54.9757409 C228.112583,55.518834 228.772794,56.8226721 230.09736,58.8831093 C234.955142,66.2677247 239.542413,71.8427206 243.853992,75.6153522 C246.615061,77.9846478 249.197862,79.170332 251.606543,79.170332 C253.39647,79.170332 254.505457,79.2957409 254.930397,79.5507045 C255.360518,79.8025587 255.575061,80.47417 255.575061,81.5593198 L255.575061,81.5593198 Z"></path>
		</g>
	</g>
</svg>
