<?xml version="1.0" encoding="UTF-8"?>
<svg width="512px" height="160px" viewBox="0 0 512 160" version="1.1" xmlns="http://www.w3.org/2000/svg" xmlns:xlink="http://www.w3.org/1999/xlink" preserveAspectRatio="xMidYMid">
    <g>
        <path d="M21.3884398,75.8194592 L0,75.8194592 L0,49.9371717 L22.0070549,49.9371717 L22.0070549,42.9901951 C22.0070549,11.10663 37.02447,0 66.6326692,0 C74.6675573,0 80.8394874,1.23723023 85.5679822,2.06205038 L83.2926163,27.5674804 C80.2137618,26.5364552 77.1349072,25.903619 71.5602607,25.903619 C62.1032689,25.903619 58.4200203,32.4879592 58.4200203,42.9901951 L58.4200203,49.9371717 L85.2266773,49.9371717 L85.2266773,75.8194592 L58.4200203,75.8194592 L58.4200203,156.73716 L21.3884398,156.73716 L21.3884398,75.8194592 Z M99.5472617,2.43890786 L136.593063,2.43890786 L136.593063,156.73716 L99.5472617,156.73716 L99.5472617,2.43890786 Z M155.06619,4.91336831 L192.076439,4.91336831 L192.076439,32.0755491 L155.06619,32.0755491 L155.06619,4.91336831 Z M155.06619,49.8234034 L192.076439,49.8234034 L192.076439,156.722939 L155.06619,156.722939 L155.06619,49.8234034 Z M292.498293,80.1995386 C285.700637,76.0967694 278.931423,74.2551451 270.100159,74.2551451 C254.030387,74.2551451 241.700748,85.3688856 241.700748,103.870455 C241.700748,120.921478 256.092438,132.028108 272.133768,132.028108 C280.573953,132.028108 288.999918,130.193594 295.171848,126.908535 L296.003778,154.461794 C286.745883,157.540649 275.639253,159.1974 265.748522,159.1974 C230.380803,159.1974 203.439048,138.619559 203.439048,103.237619 C203.439048,67.6423629 230.387913,47.0858538 265.748522,47.0858538 C276.862262,47.0858538 286.738773,48.9488096 295.171848,53.0586893 L292.491182,80.1924281 L292.498293,80.1995386 Z M311.426493,2.43890786 L348.443853,2.43890786 L348.443853,94.6054492 L348.849152,94.6054492 L379.708803,49.5674247 L420.224537,49.5674247 L383.008083,98.7437709 L423.310502,156.73005 L378.471572,156.73005 L348.849152,103.650029 L348.443853,103.650029 L348.443853,156.722939 L311.426493,156.722939 L311.426493,2.42468682 L311.426493,2.43890786 Z M510.144155,79.1827344 C506.034275,77.9383937 501.938616,77.9383937 497.60831,77.9383937 C480.32975,77.9383937 470.645224,90.50268 470.645224,111.48582 L470.645224,156.73005 L433.649196,156.73005 L433.649196,49.5603142 L467.374386,49.5603142 L467.374386,69.3062242 L467.772575,69.3062242 C474.15782,55.7251338 483.415715,47.0858538 499.464156,47.0858538 C503.780241,47.0858538 508.316751,47.6902478 512,48.323084 L510.151265,79.1827344 L510.144155,79.1827344 Z" fill="#000000" fill-rule="nonzero"></path>
    </g>
</svg>
