<?xml version="1.0" encoding="UTF-8" standalone="no"?>
<svg width="256px" height="256px" viewBox="0 0 256 256" version="1.1" xmlns="http://www.w3.org/2000/svg" xmlns:xlink="http://www.w3.org/1999/xlink">
    <defs>
        <linearGradient x1="50%" y1="0%" x2="50%" y2="100%" id="linearGradient-1">
            <stop stop-color="#FFFFFF" offset="0%"></stop>
            <stop stop-color="#F3F3F3" offset="100%"></stop>
        </linearGradient>
        <linearGradient x1="50%" y1="3.29838967%" x2="50%" y2="100%" id="linearGradient-2">
            <stop stop-color="#DCDCDC" offset="0%"></stop>
            <stop stop-color="#D2D2D2" offset="100%"></stop>
        </linearGradient>
        <filter x="-50%" y="-50%" width="200%" height="200%" filterUnits="objectBoundingBox" id="filter-3">
            <feOffset dx="0" dy="1" in="SourceAlpha" result="shadowOffsetInner1"></feOffset>
            <feGaussianBlur stdDeviation="1.5" in="shadowOffsetInner1" result="shadowBlurInner1"></feGaussianBlur>
            <feComposite in="shadowBlurInner1" in2="SourceAlpha" operator="arithmetic" k2="-1" k3="1" result="shadowInnerInner1"></feComposite>
            <feColorMatrix values="0 0 0 0 0   0 0 0 0 0   0 0 0 0 0  0 0 0 0.248847939 0" in="shadowInnerInner1" type="matrix" result="shadowMatrixInner1"></feColorMatrix>
            <feMerge>
                <feMergeNode in="SourceGraphic"></feMergeNode>
                <feMergeNode in="shadowMatrixInner1"></feMergeNode>
            </feMerge>
        </filter>
        <filter x="-50%" y="-50%" width="200%" height="200%" filterUnits="objectBoundingBox" id="filter-4">
            <feOffset dx="0" dy="1" in="SourceAlpha" result="shadowOffsetInner1"></feOffset>
            <feGaussianBlur stdDeviation="1.5" in="shadowOffsetInner1" result="shadowBlurInner1"></feGaussianBlur>
            <feComposite in="shadowBlurInner1" in2="SourceAlpha" operator="arithmetic" k2="-1" k3="1" result="shadowInnerInner1"></feComposite>
            <feColorMatrix values="0 0 0 0 0   0 0 0 0 0   0 0 0 0 0  0 0 0 0.248847939 0" in="shadowInnerInner1" type="matrix" result="shadowMatrixInner1"></feColorMatrix>
            <feMerge>
                <feMergeNode in="SourceGraphic"></feMergeNode>
                <feMergeNode in="shadowMatrixInner1"></feMergeNode>
            </feMerge>
        </filter>
    </defs>
    <g stroke="none" stroke-width="1" fill="none" fill-rule="evenodd">
        <g>
            <rect fill="url(#linearGradient-1)" x="4.46424697" y="4.46424697" width="247.434627" height="247.434627" rx="28"></rect>
            <path d="M46.7031149,8.01718949 C25.2993361,8.01718949 7.8845864,25.4319392 7.8845864,46.835718 L7.8845864,209.147365 C7.8845864,230.551143 25.2993361,247.965894 46.7031149,247.965894 L209.013395,247.965894 C230.41854,247.965894 247.831923,230.551143 247.831923,209.147365 L247.831923,46.835718 C247.831923,25.4319392 230.41854,8.01718949 209.013395,8.01718949 L46.7031149,8.01718949 L46.7031149,8.01718949 Z M209.013395,255.619962 L46.7031149,255.619962 C21.0779101,255.619962 0.23051748,234.771203 0.23051748,209.147365 L0.23051748,46.835718 C0.23051748,21.2105132 21.0779101,0.360386483 46.7031149,0.360386483 L209.013395,0.360386483 C234.639966,0.360386483 255.487359,21.2105132 255.487359,46.835718 L255.487359,209.147365 C255.487359,234.771203 234.639966,255.619962 209.013395,255.619962 L209.013395,255.619962 L209.013395,255.619962 Z" fill="url(#linearGradient-2)"></path>
            <path d="M116.254118,127.990175 C116.254118,147.439083 100.490755,163.201078 81.0445804,163.201078 C61.598406,163.201078 45.8350431,147.439083 45.8350431,127.990175 C45.8350431,108.545367 61.598406,92.7792701 81.0445804,92.7792701 C100.490755,92.7792701 116.254118,108.545367 116.254118,127.990175" fill="#1D66D8" filter="url(#filter-3)"></path>
            <path d="M209.8842,127.990175 C209.8842,147.439083 194.11947,163.201078 174.673297,163.201078 C155.225755,163.201078 139.462392,147.439083 139.462392,127.990175 C139.462392,108.545367 155.225755,92.7792701 174.673297,92.7792701 C194.11947,92.7792701 209.8842,108.545367 209.8842,127.990175" fill="#FB0A84" filter="url(#filter-4)"></path>
        </g>
    </g>
</svg>