<?xml version="1.0" encoding="UTF-8" standalone="no"?>
<svg width="256px" height="256px" viewBox="0 0 256 256" version="1.1" xmlns="http://www.w3.org/2000/svg" xmlns:xlink="http://www.w3.org/1999/xlink" preserveAspectRatio="xMidYMid">
    <g>
        <path d="M128.0001,231.899 C70.6181,231.899 24.1011,185.382 24.1011,128 C24.1011,70.618 70.6181,24.101 128.0001,24.101 C185.3821,24.101 231.8991,70.618 231.8991,128 C231.8991,185.382 185.3821,231.899 128.0001,231.899 M128.0001,0 C57.3081,0 0.0001,57.308 0.0001,128 C0.0001,198.692 57.3081,256 128.0001,256 C198.6921,256 256.0001,198.692 256.0001,128 C256.0001,57.308 198.6921,0 128.0001,0 M140.9266,117.0906 C144.0646,109.2136 146.5946,101.0386 150.3846,93.4936 C154.3736,85.5506 159.5466,80.3806 169.2946,80.6796 C178.6276,80.9656 185.8856,86.9416 189.1346,94.7876 C194.2706,107.1906 198.0216,119.4856 202.2136,132.2616 C204.8896,140.4176 207.5036,149.3086 215.4076,153.4856 C222.7146,158.3466 219.8326,162.9366 217.9376,166.2086 C214.2636,170.7646 208.2516,169.2176 207.7246,169.1486 C201.5526,168.3396 192.2156,158.4086 189.4286,151.3666 C183.7226,136.9506 182.4776,128.6546 177.0836,114.1126 C176.5306,112.6206 175.0396,107.0366 174.2166,105.4456 C172.5366,102.1946 167.9196,102.0096 166.0196,105.1366 C165.4676,106.0446 165.0126,106.9076 164.6616,107.8116 C160.6346,118.1856 152.0726,143.0386 151.2196,144.9006 C140.1876,168.9836 124.0806,171.9166 105.2216,151.7336 C102.0206,148.3086 99.0756,143.6806 95.9636,140.1976 C90.3766,133.9456 85.5316,133.4126 80.5326,140.0506 C76.8376,144.9566 72.9586,149.6516 69.4566,154.7116 C64.3736,162.0546 57.6816,168.1986 48.6426,169.1486 C43.5226,169.6866 38.2966,167.4926 36.8866,161.9476 C35.5636,156.7476 39.1156,152.3676 43.7266,151.1536 C50.6996,149.3176 51.7136,148.0956 55.1826,142.5486 C55.6486,141.8036 59.1326,136.2456 59.5916,135.4946 C76.3666,108.0436 96.9706,108.3376 115.7266,134.2066 C117.0626,136.0506 119.2616,139.1026 121.2486,141.8656 C123.2776,144.6856 127.5656,144.3786 129.1696,141.2976 C135.4946,133.7316 138.5856,122.9676 140.9266,117.0906" fill="#298EEA"></path>
    </g>
</svg>
