<?xml version="1.0" encoding="UTF-8"?>
<svg width="512px" height="179px" viewBox="0 0 512 179" version="1.1" xmlns="http://www.w3.org/2000/svg" xmlns:xlink="http://www.w3.org/1999/xlink" preserveAspectRatio="xMidYMid">
    <g>
        <path d="M501.292209,104.619772 C493.359133,118.437477 483.675566,125.681531 474.01062,127.059577 C479.876628,114.97374 482.986543,101.863679 482.986543,91.1558886 C482.986543,68.3622609 469.876482,54.8983778 446.040009,54.8983778 C404.605514,54.8983778 385.275624,98.0461192 385.275624,124.284862 C385.275624,126.351931 385.275624,128.419001 385.629446,130.150869 C378.720594,138.083946 372.854586,142.236706 368.366625,142.236706 C364.92151,142.236706 361.457773,139.815814 370.433695,117.040809 L380.09864,93.9119808 C383.897578,83.8932131 385.964647,77.3381829 385.964647,71.8073762 C385.964647,61.7886084 379.409617,54.8983778 366.969957,54.8983778 C350.060959,54.8983778 334.865207,66.9842147 330.023423,71.8073762 C329.669601,61.7886084 323.468393,54.8983778 311.028734,54.8983778 C294.808758,54.8983778 279.948207,68.0084382 279.259184,68.7160835 L283.393322,59.3863388 L252.312796,59.3863388 L227.116898,120.485924 C222.275115,124.620063 217.098131,126.351931 212.274969,127.394777 C218.140976,115.30894 221.250891,102.19888 221.250891,91.491089 C221.250891,68.6974613 208.140831,54.8983778 184.304357,54.8983778 C164.620645,54.8983778 150.132538,68.3622609 140.11377,77.3381829 L130.095003,77.3381829 L147.004001,34.8794646 C152.870008,20.7265585 162.888776,16.9276206 162.888776,16.9276206 L157.432458,0 C148.456536,0 139.126791,3.4451153 132.571761,9.32974467 C110.820979,13.8177057 83.8932131,0 58.0082927,0 C26.9277661,0 13.1286826,19.6837128 13.1286826,39.3488034 C13.1286826,61.7886084 31.0805267,74.2096457 49.0323707,74.2096457 C66.2951917,74.2096457 77.0029825,63.501855 77.0029825,63.501855 L64.9171456,44.5071652 C64.9171456,44.5071652 59.3863388,50.3731723 51.0994399,50.3731723 C44.8796101,50.3731723 38.6784026,46.5742344 38.6784026,38.9763585 C38.6784026,31.7323052 44.2092093,24.1344293 58.6973158,24.1344293 C74.228268,24.1344293 95.97905,32.7565287 116.351786,34.4883975 L99.0889649,77.6361388 L81.8261439,77.6361388 L75.2711137,95.2527824 L92.5339347,95.2527824 L86.3141049,109.796756 C75.2711137,136.389321 62.4962537,153.29832 44.8796101,153.29832 C35.5498654,153.29832 26.5739434,146.054266 26.5739434,134.992653 C26.5739434,128.0838 31.4157271,116.686986 49.0137485,118.083655 L49.0137485,92.1987343 C17.951844,89.7592202 0,110.820979 0,134.992653 C0.353822652,156.389612 15.1957518,178.494217 47.989525,178.494217 C65.941369,178.494217 92.5339347,172.62821 111.510002,125.662908 L123.931039,95.2900269 L131.175093,95.2900269 C126.333309,108.75391 123.931039,116.351786 123.931039,125.327708 C123.931039,147.767513 137.394923,161.920419 161.566596,161.920419 C178.829417,161.920419 192.647123,153.63352 202.312068,142.236706 C208.178075,142.590529 213.708882,145.346621 219.221066,143.614752 L211.623191,166.054557 L242.703717,166.054557 L268.94246,97.3570961 C277.229359,88.0273514 286.205281,81.8261439 290.693242,81.8261439 C293.449334,81.8261439 295.870226,82.5151669 295.870226,84.9360588 C295.870226,88.0459737 292.425111,99.0889649 288.961373,108.064887 C282.406343,124.638685 273.076599,148.456536 266.521568,166.07318 L297.937295,166.07318 L324.176038,97.3757183 C332.462937,88.3997963 341.438859,81.8447661 346.280643,81.8447661 C349.036735,81.8447661 351.457627,82.5337892 351.457627,85.2898814 C351.457627,88.0459737 348.347712,95.3086492 344.548774,104.619772 L341.792682,111.528624 C327.639776,146.389467 336.261875,161.585219 356.634611,161.585219 C369.055649,161.585219 380.452462,155.365389 390.47123,145.365243 C396.337237,155.384011 407.380228,161.585219 422.929803,161.585219 C440.192624,161.585219 454.01033,153.652142 463.675275,142.255328 C483.694188,143.987197 501.310831,130.858515 512,112.57147 C510.621954,108.75391 505.44497,105.308795 501.292209,104.619772 L501.292209,104.619772 L501.292209,104.619772 Z M187.470139,105.308795 C177.805194,104.954972 170.896341,112.217647 170.896341,120.839747 C170.896341,124.973885 172.62821,128.772823 175.030479,131.882738 C170.896341,137.413545 165.700735,141.547683 161.212774,141.547683 C156.37099,141.547683 153.614898,137.413545 153.614898,131.193715 C153.614898,116.686986 168.81065,75.6063141 183.987779,75.6063141 C188.121918,75.6063141 191.585655,78.3624063 191.585655,85.6250818 C191.6229,90.4482433 190.244853,97.3570961 187.470139,105.308795 L187.470139,105.308795 L187.470139,105.308795 Z M449.168546,105.308795 C439.503601,104.954972 432.594748,112.217647 432.594748,120.839747 C432.594748,124.973885 434.326617,128.772823 436.728886,131.882738 C432.594748,137.413545 427.399142,141.547683 422.911181,141.547683 C418.069397,141.547683 415.313305,137.413545 415.313305,131.193715 C415.313305,116.686986 430.509057,75.6063141 445.686186,75.6063141 C449.820324,75.6063141 453.284062,78.3624063 453.284062,85.6250818 C453.302684,90.4482433 451.924638,97.3570961 449.168546,105.308795 L449.168546,105.308795 L449.168546,105.308795 Z" fill="#ECA16C"></path>
    </g>
</svg>
