<?xml version="1.0" encoding="UTF-8"?>
<svg width="256px" height="256px" viewBox="0 0 256 256" version="1.1" xmlns="http://www.w3.org/2000/svg" xmlns:xlink="http://www.w3.org/1999/xlink" preserveAspectRatio="xMidYMid">
    <defs>
        <path d="M8,0 L248,0 C252.418278,0 256,3.581722 256,8 L256,248 C256,252.418278 252.418278,256 248,256 L8,256 C3.581722,256 0,252.418278 0,248 L0,8 C0,3.581722 3.581722,0 8,0 Z" id="path-1"></path>
    </defs>
    <g>
        <mask id="mask-2" fill="white">
            <use xlink:href="#path-1"></use>
        </mask>
        <use fill="#9B183D" xlink:href="#path-1"></use>
        <rect fill="#9B183D" mask="url(#mask-2)" x="0" y="-1.42108547e-14" width="256" height="256"></rect>
        <rect fill="#EE0036" mask="url(#mask-2)" x="128" y="0" width="128" height="128"></rect>
        <rect fill="#702440" mask="url(#mask-2)" x="1.13686838e-13" y="128" width="128" height="128"></rect>
        <path d="M144.835747,86.902024 C175.704311,84.5761699 194.363443,69.8768146 200.177618,50.285712 C159.440623,69.0558604 108.608543,46.0932556 98.9878792,87.5673366 L94.0558863,109.677202 C102.635487,96.3654674 113.968293,89.2278781 144.835747,86.902024 Z M128.785049,90.6670146 C113.613532,92.8525723 101.444098,99.8904182 94.614416,112.251863 C92.4156288,116.229491 91.6434429,120.504151 91.6434429,120.504151 L88.152494,136.153797 C92.5256237,128.35528 100.346371,118.388742 120.843196,113.64606 C121.304286,111.164564 124.103044,96.9398064 128.785049,90.6670146 Z M84.9670866,150.433688 L79.6351123,174.337813 C93.7622334,147.439233 124.164153,142.218665 127.918422,141.433881 C154.392747,135.897646 167.138821,122.752514 172.207474,105.670309 C149.107437,118.733236 95.1877225,102.330593 84.9670866,150.433688 Z M77.0671207,185.855177 L73.1428587,203.448149 C104.451403,201.685673 107.904575,171.597537 113.013227,147.695602 C103.272568,151.095602 81.805789,164.419394 77.0671207,185.855177 Z" fill="#FFFFFF" mask="url(#mask-2)"></path>
    </g>
</svg>