<?xml version="1.0" encoding="UTF-8" standalone="no"?>
<svg width="256px" height="380px" viewBox="0 0 256 380" version="1.1" xmlns="http://www.w3.org/2000/svg" xmlns:xlink="http://www.w3.org/1999/xlink" preserveAspectRatio="xMidYMid">
	<g>
		<path d="M255.846266,364.169023 C255.846266,372.746026 198.585817,379.699467 127.950538,379.699467 C57.3152585,379.699467 0.0548093995,372.746026 0.0548093995,364.169023 C0.0548093995,355.590684 67.2250653,348.639248 127.950538,348.639248 C200.236783,348.639248 255.846266,355.590684 255.846266,364.169023" fill="#1A4658"></path>
		<path d="M247.92965,252.109201 C243.971342,252.109201 239.707572,250.281775 236.66164,236.274632 C233.615708,222.267488 229.049149,207.954883 229.049149,207.954883 C233.921838,207.954883 236.66164,205.822663 236.66164,205.822663 C233.311582,204.299363 226.003217,199.123885 221.131864,192.728564 C216.259843,186.333911 203.773995,175.979614 203.773995,175.979614 L203.773995,155.273692 C203.773995,141.265211 212.758057,130.304 212.758057,130.304 C206.668198,130.304 203.773995,135.784272 203.773995,135.784272 L203.773995,106.246684 C203.773995,77.0132219 218.542454,63.9204595 218.542454,63.9204595 C213.974559,63.6163342 210.929963,65.7472167 210.929963,65.7472167 C213.061514,44.1275822 219.685431,37.7322611 219.685431,37.7322611 C195.324658,31.3369399 181.735269,45.6495457 181.735269,45.6495457 C178.994799,32.5561149 189.710037,24.940282 189.710037,24.940282 C177.225525,22.199812 166.899969,25.8539948 166.899969,25.8539948 C166.899969,6.67003655 174.526496,0.271373368 174.526496,0.271373368 C136.462037,0.271373368 114.849755,28.891906 114.849755,28.891906 C113.327791,16.7108512 116.679854,6.04240209 116.679854,6.04240209 C79.8345692,21.572846 70.0925326,55.9650757 70.0925326,55.9650757 C67.6568564,50.1800104 67.3527311,37.0458068 67.3527311,37.0458068 C67.3527311,37.0458068 52.1264125,62.5488877 49.3859426,80.2095457 C46.6454726,97.8722089 51.8216188,148.573577 51.8216188,148.573577 C51.8216188,148.573577 49.386611,145.52965 44.2097963,144.920731 C44.2097963,144.920731 49.6907363,151.011258 49.6907363,164.714277 C49.6907363,164.714277 47.558517,162.886851 43.9050026,163.800564 C43.9050026,163.800564 49.6900679,168.97671 50.2996554,177.807708 C50.2996554,177.807708 43.6002089,182.375603 39.9460261,186.943499 C39.9460261,186.943499 34.159624,187.247624 31.1150287,188.161337 C31.1150287,188.161337 35.987718,190.901807 36.9014308,193.338151 C36.9014308,193.338151 22.5888251,207.954883 15.2804595,219.830475 C15.2804595,219.830475 21.6757807,215.872167 26.2430078,217.090005 C26.2430078,217.090005 16.1935039,229.270392 12.8441149,249.368063 C12.8441149,249.368063 17.7161358,246.933055 19.8476867,248.150893 C19.8476867,248.150893 13.7571593,260.93953 13.4530339,274.338423 L6.75425587,278.297399 L11.9310705,281.951582 C11.9310705,281.951582 7.97209399,298.39507 7.0583812,307.834987 C7.0583812,307.834987 10.1029765,304.790392 12.5393211,303.876679 C12.5393211,303.876679 15.8893786,311.793295 20.4572742,317.883822 C25.0251697,323.97435 35.3794674,329.151164 41.4693264,329.151164 L52.9158016,328.704668 C51.4961044,334.830621 48.6954778,340.025483 42.7921044,340.297525 L42.1370653,341.34893 C42.0134099,341.339572 41.8917598,341.334225 41.7727833,341.331551 C41.655812,343.120209 38.0457441,343.442381 37.0531593,344.681608 C34.0353003,348.446747 31.7339739,353.619551 30.2013159,358.23223 C29.0783916,361.612366 29.609107,361.611697 28.8310809,365.084073 C28.5764178,366.220366 27.3973473,367.434193 27.0043238,368.585191 C30.2922193,367.480982 39.4046162,366.74306 44.2044491,366.390809 L44.2853264,370.639206 C44.2853264,370.639206 45.0767206,371.375123 46.3874674,371.908512 C46.4329191,371.899822 46.4763655,371.887123 46.5311749,371.891802 C46.9763342,371.927896 47.4061201,371.993399 47.8265483,372.097671 C55.0293055,371.453326 60.0443655,372.668491 68.3927728,371.975352 C70.0170026,371.782183 71.5403029,371.553587 72.9620052,370.744146 C73.3663916,369.536334 73.4205326,369.462141 73.6110287,367.902078 C73.6518016,367.624021 73.6518016,367.337943 73.7186423,366.99906 C73.8496501,366.977003 73.9766475,366.958287 74.1043133,366.939572 C74.153107,366.920856 74.2306423,366.904815 74.402423,366.898131 C74.4378486,366.887436 74.4679269,366.870726 74.5080313,366.867384 C74.640376,366.855352 74.7720522,366.844658 74.9043969,366.833295 C74.9953003,366.799206 75.0821932,366.789849 75.1603969,366.811238 C76.6716658,366.676219 79.0973159,366.548554 80.6079164,366.466339 C85.518705,366.458319 91.97953,367.023791 91.97953,367.023791 C92.3792376,361.519457 92.7789452,352.978548 101.686141,328.084386 L103.89389,326.71482 C103.89389,326.71482 131.251133,336.35459 156.635238,326.325138 C158.643802,331.269347 165.143394,347.88729 166.165389,358.363238 C167.038997,359.591102 166.942078,361.149159 166.971488,362.800125 C166.996219,364.197097 167.113859,365.594736 167.15129,366.987697 C168.064334,366.863373 171.360251,366.459655 175.521086,366.466339 C177.031687,366.548554 179.457337,366.676219 180.968606,366.811238 C181.047478,366.789849 181.133702,366.799206 181.224606,366.833295 C181.35695,366.844658 181.488627,366.855352 181.620971,366.867384 C181.661076,366.870726 181.691154,366.887436 181.727248,366.898131 C181.89836,366.904815 181.975896,366.920856 182.025358,366.939572 C182.152355,366.958287 182.279352,366.977003 182.41036,366.99906 C182.477201,367.337943 182.477201,367.624021 182.518642,367.902078 C182.70847,369.462141 182.762611,369.536334 183.166997,370.744146 C183.297337,370.818339 183.429013,370.882507 183.561358,370.94801 C188.106527,370.371175 192.712522,370.265567 197.286433,370.482131 C200.883802,370.652574 204.419676,371.327666 207.96023,371.97201 C207.960898,372.005431 207.963572,372.03952 207.963572,372.073608 C208.320501,372.111708 208.66941,372.137107 209.01765,372.159833 C210.917264,372.499384 212.822225,372.81554 214.739217,373.022747 C214.775979,370.624501 214.762611,368.527708 214.71248,366.686245 C218.526413,366.868721 224.046789,367.628031 226.36282,367.965577 C227.281211,368.185483 228.027154,368.32117 228.809859,368.489608 C228.916136,368.521023 229.028428,368.553107 229.125347,368.585191 C229.121337,368.576501 229.117326,368.566475 229.113316,368.557786 C229.899363,368.734245 230.746903,368.957493 231.865817,369.346507 C231.695373,367.286475 231.710747,367.329253 231.438037,364.746527 C231.228157,362.749326 229.79576,356.680856 227.116115,354.177671 C227.116115,354.177671 230.035718,355.439624 230.927373,355.942266 C228.049211,352.042778 226.649567,346.467593 217.606684,342.623582 C217.606684,342.623582 219.258319,341.844888 220.768251,341.648376 C219.190141,340.675843 217.985003,340.293514 216.387509,340.409149 C216.930256,338.867802 219.318475,334.979676 221.32236,334.480376 C221.32236,334.480376 220.092491,333.625483 218.081253,334.286538 C217.333974,334.678225 216.608752,335.098653 215.902914,335.595948 C215.636219,335.784439 215.247206,335.589264 215.168334,335.29717 C214.536021,332.959081 214.12495,330.583561 213.751979,328.198016 C231.974768,327.537629 234.530757,318.189285 234.530757,318.189285 C236.053389,319.407791 236.052721,322.147593 236.052721,322.147593 C243.969337,311.793963 243.056292,301.440334 243.056292,301.440334 C244.883718,301.74446 246.40635,302.962966 246.40635,302.962966 C247.320063,287.128397 242.448042,260.026486 242.448042,260.026486 C244.884386,261.244324 246.40635,259.72236 246.40635,259.72236 C243.66588,258.504522 243.361755,255.45859 243.361755,255.45859 C247.320731,255.763384 247.92965,252.109201 247.92965,252.109201" fill="#EDF7FA"></path>
		<path d="M73.7186423,366.99906 C73.7186423,366.99906 74.4325013,359.297671 71.921295,353.740533 C71.921295,353.740533 76.6776815,354.063373 77.4770966,366.624752 C77.4770966,366.624752 74.1457546,367.01176 73.7186423,366.99906" fill="#CDE9EE"></path>
		<path d="M49.8424648,341.027426 L49.8718747,340.790809 C49.8892533,340.907781 49.8865796,340.998016 49.8424648,341.027426" fill="#CDE9EE"></path>
		<path d="M54.2960627,366.402172 C54.268658,366.39482 54.2532846,366.390809 54.2532846,366.390809 C54.2532846,366.390809 54.2726684,366.338005 54.3087624,366.246433 L54.2960627,366.402172" fill="#CDE9EE"></path>
		<path d="M114.851091,28.891906 C113.329128,16.7108512 116.681191,6.04240209 116.681191,6.04240209 C79.8352376,21.572846 70.0925326,55.9650757 70.0925326,55.9650757 C67.6568564,50.1800104 67.3527311,37.0458068 67.3527311,37.0458068 C67.3527311,37.0458068 52.1264125,62.5488877 49.3859426,80.2095457 C46.6454726,97.8722089 51.8216188,148.573577 51.8216188,148.573577 C51.8216188,148.573577 49.386611,145.52965 44.2097963,144.920731 C44.2097963,144.920731 49.6907363,151.011258 49.6907363,164.714277 C49.6907363,164.714277 47.558517,162.886851 43.9050026,163.800564 C43.9050026,163.800564 49.6900679,168.97671 50.2996554,177.807708 C50.2996554,177.807708 43.6002089,182.375603 39.9460261,186.943499 C39.9460261,186.943499 34.159624,187.247624 31.1150287,188.161337 C31.1150287,188.161337 35.987718,190.901807 36.9014308,193.338151 C36.9014308,193.338151 22.5888251,207.954883 15.2804595,219.830475 C15.2804595,219.830475 21.6757807,215.872167 26.2430078,217.090005 C26.2430078,217.090005 16.1935039,229.270392 12.8441149,249.368063 C12.8441149,249.368063 17.7161358,246.933055 19.8476867,248.150893 C19.8476867,248.150893 13.7571593,260.93953 13.4530339,274.338423 L6.75425587,278.297399 L11.9310705,281.951582 C11.9310705,281.951582 7.97209399,298.39507 7.0583812,307.834987 C7.0583812,307.834987 10.1029765,304.790392 12.5393211,303.876679 C12.5393211,303.876679 15.8893786,311.793295 20.4572742,317.883822 C25.0251697,323.97435 35.3794674,329.151164 41.4693264,329.151164 L42.24,329.045556 C41.9004491,331.145023 41.5181201,333.23647 40.9606684,335.29717 C40.8817963,335.589264 40.4934517,335.784439 40.2260888,335.595948 C39.5209191,335.098653 38.7956971,334.678225 38.0477493,334.286538 C36.0371802,333.625483 34.8066423,334.480376 34.8066423,334.480376 C36.8105274,334.979676 39.1987467,338.867802 39.7421619,340.409149 C38.144,340.293514 36.9388616,340.675843 35.360752,341.648376 C36.8713525,341.844888 38.5223185,342.623582 38.5223185,342.623582 C29.4801044,346.467593 28.0797911,352.042778 25.2022977,355.942266 C26.0932846,355.439624 29.0128877,354.177671 29.0128877,354.177671 C26.3332428,356.680856 24.9015144,362.749326 24.6909661,364.746527 C24.4189243,367.329253 24.4336292,367.286475 24.2638538,369.346507 C26.6607624,368.513003 27.8257963,368.430789 29.7661828,367.965577 C32.764658,367.529107 41.1444804,366.380115 44.2224961,366.699614 L43.7372324,372.619697 C43.7372324,372.619697 43.7987258,372.619697 43.8882924,372.617692 C45.4684073,372.164512 46.7557598,372.225337 48.1654308,372.073608 C48.1861514,370.442026 48.2717076,368.811781 48.405389,367.186214 C48.3111436,364.408313 48.6560418,361.878392 49.2235196,359.058381 C49.242235,358.963467 49.2656292,358.864543 49.2850131,358.769629 C50.4032585,354.919603 52.3476554,352.727896 53.6109452,351.379718 C54.0300366,350.931885 54.3943185,350.401838 54.7057963,349.858423 C55.4597598,348.855144 56.2431332,347.548407 56.8480418,345.898778 C58.0999687,342.482548 57.5632376,334.977671 55.0473525,327.653264 C57.7002611,331.469201 60.1165535,334.817922 61.2622037,335.963572 L61.1860052,326.638621 C61.1860052,326.638621 66.0580261,331.5073 70.4187154,335.185546 C72.5181828,337.018987 75.1075927,339.403196 76.9463812,340.353003 C77.0793943,340.436554 77.1990392,339.550914 77.3454204,340.887728 L77.3440836,340.887728 C77.362799,340.887728 77.380846,340.623039 77.3995614,340.633734 C79.8693264,342.019342 82.4099426,343.11954 84.7881358,344.658883 C85.042799,344.823311 85.3028094,344.902851 85.5527937,345.0753 C86.6536606,345.833274 88.5913734,346.675467 90.3325744,347.593191 L91.97953,367.041838 C93.4640627,346.601274 105.111728,327.028303 105.111728,327.028303 L104.685285,326.897295 C101.081232,325.78306 74.7105587,316.659969 59.1306527,284.08447 C58.1046475,281.938883 64.9163864,286.519478 64.9163864,286.519478 C58.5210653,270.989034 56.0847206,246.018674 56.0847206,246.018674 C58.2162715,247.846099 60.3484909,248.150225 60.3484909,248.150225 C55.7805953,235.360251 53.9538381,219.525681 53.9538381,205.213076 C52.736,128.171781 81.2081462,110.510454 81.2081462,110.510454 C76.3361253,108.683029 71.1593107,108.835426 71.1593107,108.835426 C76.7933159,95.2848042 95.5194151,76.4049713 95.5194151,76.4049713 C90.4949974,76.709765 70.8538486,82.0376397 70.8538486,82.0376397 C87.1456084,39.5583499 103.589765,28.2916762 103.589765,28.2916762 C102.371927,38.4922402 106.330903,49.3030601 106.330903,49.3030601 C141.654225,5.6045953 170.034799,7.6432376 170.034799,7.6432376 C172.139614,3.25982245 174.530507,0.271373368 174.530507,0.271373368 C136.466047,0.271373368 114.851091,28.891906 114.851091,28.891906" fill="#CDE9EE"></path>
		<path d="M214.698444,366.758433 C214.698444,366.758433 214.354883,355.719018 211.843676,350.16188 C211.843676,350.16188 218.390726,354.197055 218.353295,366.947593 C218.353295,366.947593 215.125556,366.771133 214.698444,366.758433" fill="#CDE9EE"></path>
		<path d="M44.3561775,309.98258 C48.6687415,267.744585 49.8424648,185.115405 49.8424648,185.115405 C40.4787467,203.614245 32.9424543,237.187008 32.9424543,237.187008 L34.7692115,244.495373 L30.6585065,242.668616 C24.0513003,265.598997 28.5216084,296.294266 30.0021305,304.941452 C34.2050757,308.268783 39.2114465,309.391039 44.3561775,309.98258" fill="#ABD8D7"></path>
		<path d="M35.5231749,309.069535 C36.8619948,315.829807 38.2509452,322.340094 39.7936292,329.054914 C40.9359373,329.226695 42.2206162,329.14047 42.2206162,329.14047 C43.2686789,325.056501 43.4424648,318.736042 44.2572533,310.961128 C41.2547676,310.609546 38.3090966,310.076157 35.5231749,309.069535" fill="#ABD8D7"></path>
		<path d="M178.633191,345.466987 C178.387885,345.537838 178.201399,345.428219 178.10047,345.260449 C177.626569,345.353358 177.264292,345.438914 177.020324,345.501744 C177.020324,345.500407 177.020992,345.500407 177.020992,345.500407 C183.303352,340.928501 183.880856,336.093911 183.880856,336.093911 C179.713337,337.972804 175.289149,338.674632 173.136877,338.921943 C187.658026,326.335164 190.070977,302.962966 190.070977,302.962966 C184.123488,310.263979 175.682841,316.434047 169.159854,320.575499 L169.17389,320.547426 C169.17389,320.547426 164.803175,322.991123 160.764658,324.894078 C160.58753,324.867342 160.409734,324.914799 160.276721,325.121337 C158.201984,326.082507 156.267614,326.866548 155.127979,327.057044 C155.127979,327.057044 158.491405,333.267217 159.895728,336.615937 L159.620345,336.839185 C159.620345,336.839185 164.485681,348.339133 166.256961,359.479478 C166.444115,361.361713 166.588491,363.011342 166.68942,364.27129 C166.774308,365.900867 166.889943,367.023791 166.889943,367.023791 C173.323363,366.071979 182.41036,366.99906 182.41036,366.99906 C182.366914,368.047123 182.942413,370.563008 183.048021,371.018862 C186.103311,370.607123 189.185337,370.427321 192.2687,370.400585 C192.227258,359.603133 191.752689,341.662413 178.633191,345.466987" fill="#CDE9EE"></path>
		<path d="M44.0186319,313.240397 C33.9303603,311.533953 24.7751854,299.93976 24.7751854,299.93976 C32.1310078,307.761462 41.288188,308.808856 41.288188,308.808856 C42.4966684,299.876261 35.1134413,279.431018 35.1134413,279.431018 C40.5816815,286.240752 43.5728042,294.117264 45.2083969,300.564052 L44.0186319,313.240397" fill="#83BAC0"></path>
		<path d="M66.9142559,297.423875 C66.9142559,297.423875 74.8509243,311.412303 81.8163969,317.464731 C89.3339739,323.995739 96.3188303,333.223102 99.2878956,338.818339 C99.2878956,338.818339 103.056376,330.064877 105.111728,327.018945 C105.111728,327.018945 82.8444073,320.490611 66.9142559,297.423875" fill="#ABD8D7"></path>
		<path d="M170.503352,324.706924 C171.606893,323.154214 172.870851,321.711123 174.075321,320.237285 C176.050465,317.818987 178.307008,315.47154 179.965326,312.840021 C177.103206,314.981598 173.91624,316.837097 170.658423,318.797535 C161.202465,325.204888 154.614642,327.018945 154.614642,327.018945 C156.669995,330.064877 160.438475,338.818339 160.438475,338.818339 C162.235154,335.432188 165.508345,330.715238 169.475342,326.069807 C169.808209,325.607937 170.178507,325.164783 170.503352,324.706924" fill="#ABD8D7"></path>
		<path d="M63.9037493,89.109389 C63.0381619,89.1722193 60.2669452,89.2424021 60.2669452,89.2424021 C35.1602298,90.9949661 16.7055039,71.5389661 16.7055039,71.5389661 C16.7055039,71.5389661 15.0558747,86.7258486 25.9622768,100.033838 C36.8720209,113.341828 58.9789243,115.619091 58.9789243,115.619091 C59.6974621,118.731196 58.1414099,125.671269 58.1414099,125.671269 C58.1414099,125.671269 64.605577,118.520648 66.2471854,104.972031 C67.3995196,95.4779739 64.439812,89.0706214 63.9037493,89.109389" fill="#545352"></path>
		<path d="M63.9037493,89.109389 C63.0709138,89.156846 60.2669452,89.2424021 60.2669452,89.2424021 C35.1602298,90.9949661 16.7055039,71.5389661 16.7055039,71.5389661 C16.7055039,71.5389661 28.1753734,104.732742 66.4811279,102.109911 C66.4811279,102.109911 67.5398851,95.9699217 63.9037493,89.109389" fill="#6E7979"></path>
		<path d="M189.256856,89.109389 C190.121775,89.1722193 192.892992,89.2424021 192.892992,89.2424021 C218.000376,90.9949661 236.454433,71.5389661 236.454433,71.5389661 C236.454433,71.5389661 238.104063,86.7258486 227.198329,100.033838 C216.287916,113.341828 194.181013,115.619091 194.181013,115.619091 C193.463144,118.731196 195.019196,125.671269 195.019196,125.671269 C195.019196,125.671269 188.55436,118.520648 186.912752,104.972031 C185.760418,95.4779739 188.720794,89.0706214 189.256856,89.109389" fill="#545352"></path>
		<path d="M189.256856,89.109389 C190.089023,89.156846 192.892992,89.2424021 192.892992,89.2424021 C218.000376,90.9949661 236.454433,71.5389661 236.454433,71.5389661 C236.454433,71.5389661 224.984564,104.732742 186.679478,102.109911 C186.679478,102.109911 185.620052,95.9699217 189.256856,89.109389" fill="#6E7979"></path>
		<path d="M50.7989556,201.558893 C50.7989556,201.558893 32.7519582,266.42047 50.7989556,307.986715 L50.7989556,201.558893" fill="#CDE9EE"></path>
		<path d="M230.495582,304.158747 C221.588386,310.955781 212.320919,311.386235 212.320919,311.386235 C211.907843,302.506444 221.615123,283.092554 221.615123,283.092554 C219.406037,284.396616 217.630747,285.974057 216.170277,287.704564 L216.106778,281.189598 L223.11035,275.404533 L217.477681,270.836637 L224.632982,242.059697 L217.781807,246.627593 C217.781807,246.627593 215.650924,205.671603 217.172888,188.009608 C217.172888,188.009608 208.494287,179.329671 204.231185,175.828554 C204.231185,175.828554 205.036616,188.438726 205.955676,208.587196 C209.845138,224.749953 215.885535,258.198392 208.3713,287.615666 C208.458193,293.578527 208.52236,299.634298 208.557117,305.747551 C208.557117,305.747551 212.301535,318.758099 213.518705,327.893222 C213.518705,327.893222 214.736543,328.236115 216.563969,327.93199 L216.426277,313.941556 C225.834778,311.100157 230.495582,304.158747 230.495582,304.158747" fill="#CDE9EE"></path>
		<path d="M146.067718,178.565013 C146.067718,185.483029 150.497922,191.090966 155.964825,191.090966 C161.43106,191.090966 165.862601,185.483029 165.862601,178.565013 C165.862601,171.645661 161.43106,166.037723 155.964825,166.037723 C150.497922,166.037723 146.067718,171.645661 146.067718,178.565013" fill="#CDE9EE"></path>
		<path d="M146.37318,175.218966 C146.37318,182.030037 150.735206,187.551749 156.11789,187.551749 C161.499906,187.551749 165.862601,182.030037 165.862601,175.218966 C165.862601,168.407227 161.499906,162.886183 156.11789,162.886183 C150.735206,162.886183 146.37318,168.407227 146.37318,175.218966" fill="#FFFFFF"></path>
		<path d="M153.530486,168.860407 C153.45295,169.163196 153.399478,169.478684 153.399478,169.813556 C153.399478,171.550747 154.53176,172.957076 155.927394,172.957076 C157.167958,172.957076 158.1953,171.844846 158.409191,170.379029 C159.205264,171.423081 159.695875,172.828742 159.695875,174.381452 C159.695875,177.598496 157.599749,180.205285 155.01435,180.205285 C152.42895,180.205285 150.332157,177.598496 150.332157,174.381452 C150.332157,171.810089 151.672313,169.633086 153.530486,168.860407" fill="#474746"></path>
		<path d="M98.563342,178.565013 C98.563342,185.483029 102.994214,191.090966 108.461117,191.090966 C113.926684,191.090966 118.358225,185.483029 118.358225,178.565013 C118.358225,171.645661 113.926684,166.037723 108.461117,166.037723 C102.994214,166.037723 98.563342,171.645661 98.563342,178.565013" fill="#CDE9EE"></path>
		<path d="M98.8688042,175.218966 C98.8688042,182.030037 103.231499,187.551749 108.613514,187.551749 C113.99553,187.551749 118.358225,182.030037 118.358225,175.218966 C118.358225,168.407227 113.99553,162.886183 108.613514,162.886183 C103.231499,162.886183 98.8688042,168.407227 98.8688042,175.218966" fill="#FFFFFF"></path>
		<path d="M107.853535,168.860407 C107.776,169.163196 107.722527,169.478684 107.722527,169.813556 C107.722527,171.550747 108.854141,172.957076 110.250444,172.957076 C111.490339,172.957076 112.51835,171.844846 112.73224,170.379029 C113.528313,171.423081 114.018924,172.828742 114.018924,174.381452 C114.018924,177.598496 111.922131,180.205285 109.336731,180.205285 C106.751332,180.205285 104.655206,177.598496 104.655206,174.381452 C104.655206,171.810089 105.995363,169.633086 107.853535,168.860407" fill="#474746"></path>
		<path d="M181.727916,188.393274 C181.106966,190.262141 178.998141,190.758768 172.989828,191.92046 L172.580762,191.999332 C166.694099,193.129608 156.169358,192.98189 150.405013,192.139697 C150.156366,192.104272 149.916407,192.067509 149.687812,192.02941 C144.345232,191.125723 143.736982,190.433922 142.018507,187.66471 C140.243885,184.79858 139.153044,176.383332 138.951854,174.723676 L138.941828,174.640125 C138.728606,172.886225 138.622997,172.007937 140.876198,170.999311 C143.906757,169.640439 157.357786,167.742162 162.869473,167.494183 C167.220804,167.30235 176.444825,167.907927 180.662475,168.524198 C181.32353,168.621786 181.813473,168.710684 182.116261,168.790893 C182.601525,168.919896 184.388178,169.788825 184.297274,171.688439 C184.178966,174.192292 182.567436,185.866695 181.727916,188.393274 L181.727916,188.393274 Z M123.063144,174.640125 L123.052449,174.723676 C122.851927,176.383332 121.761086,184.79858 119.986465,187.66471 C118.26799,190.433922 117.659739,191.125723 112.316491,192.02941 C112.088564,192.067509 111.848606,192.104272 111.59929,192.139697 C105.835614,192.98189 95.3108721,193.129608 89.4235405,191.999332 L89.0151436,191.92046 C83.0068303,190.758768 80.8980052,190.262141 80.2770548,188.393274 C79.4375352,185.866695 77.8260052,174.192292 77.7076971,171.688439 C77.6161253,169.788825 79.4034465,168.919896 79.8887102,168.790893 C80.1908303,168.710684 80.6807728,168.621786 81.3418277,168.524198 C85.5601462,167.907927 94.7834987,167.30235 99.1354987,167.494183 C104.647185,167.742162 118.097546,169.640439 121.128104,170.999311 C123.381974,172.007937 123.276366,172.886225 123.063144,174.640125 L123.063144,174.640125 Z M189.443342,163.523843 C185.029849,162.87883 177.327123,162.147593 168.081044,162.619488 C156.049044,163.238433 145.73953,164.908783 139.580825,165.906047 C137.742705,166.204157 136.298277,166.439436 135.196073,166.585149 L133.993608,166.74824 C132.642757,166.934057 131.757117,167.051697 131.002486,167.089128 C130.247854,167.051697 129.361546,166.934057 128.011363,166.74824 L126.80823,166.585149 C125.706695,166.439436 124.262266,166.204157 122.423478,165.906047 C116.265441,164.908783 105.955927,163.238433 93.9239269,162.619488 C84.6778486,162.147593 76.9751227,162.87883 72.5616292,163.523843 C72.5616292,163.523843 67.8520313,164.123405 63.8242089,165.827175 L64.5922089,170.946507 C64.5922089,170.946507 68.8479582,169.933201 73.0047833,169.378423 C73.7774621,176.597222 75.2807102,185.873379 75.2807102,185.873379 L75.3047728,186.160794 C75.4190705,186.628679 75.5253473,187.082527 75.6403133,187.577817 C76.4965431,191.225316 77.3467572,193.369567 80.7676658,194.655582 C84.1270809,195.923551 92.0764491,197.098611 100.093326,197.511687 C103.074423,197.666089 106.457901,197.482277 109.880146,196.984313 C114.955363,196.24305 119.545984,194.876825 121.299885,193.580115 C123.851864,191.693869 125.216752,186.947509 126.120439,183.807332 L126.391144,182.881587 C126.710642,181.810799 126.988031,180.686538 127.256063,179.595697 C127.641734,178.030287 128.039436,176.412073 128.379655,175.853285 C128.441149,175.755697 128.727227,175.418151 129.842799,175.254392 C130.187697,175.20493 130.576042,175.178193 131.002486,175.172846 C131.42893,175.178193 131.816606,175.20493 132.162172,175.254392 C133.277076,175.418151 133.563822,175.755697 133.625316,175.853285 C133.964867,176.412073 134.363238,178.030287 134.74824,179.595697 C135.01694,180.686538 135.294329,181.810799 135.613828,182.881587 L135.883864,183.807332 C136.787551,186.947509 138.153107,191.693869 140.705086,193.580115 C142.458987,194.876825 147.04894,196.24305 152.124157,196.984313 C155.546402,197.482277 158.930548,197.666089 161.910977,197.511687 C169.928522,197.098611 177.877222,195.923551 181.237305,194.655582 C184.657546,193.369567 185.50776,191.225316 186.364658,187.577817 C186.479624,187.082527 186.585901,186.628679 186.69953,186.160794 L186.723593,185.873379 C186.723593,185.873379 188.226841,176.597222 188.99952,169.378423 C193.157013,169.933201 197.412762,170.946507 197.412762,170.946507 L198.180762,165.827175 C194.15294,164.123405 189.443342,163.523843 189.443342,163.523843 L189.443342,163.523843 Z" fill="#545352"></path>
		<path d="M111.515739,150.559415 C111.515739,150.559415 100.507739,145.309744 94.2073316,155.057796 C94.2073316,155.057796 93.5569713,145.363885 102.446789,144.281065 C111.337274,143.19624 111.515739,150.559415 111.515739,150.559415" fill="#A0D1DE"></path>
		<path d="M107.386987,136.315655 C107.386987,136.315655 97.1824125,131.499781 92.5329713,140.755217 C92.5329713,140.755217 91.0143499,132.668825 98.2966475,130.717076 C105.579614,128.764658 107.386987,136.315655 107.386987,136.315655" fill="#A0D1DE"></path>
		<path d="M150.94776,156.502893 C150.94776,156.502893 159.496689,152.425608 164.390099,159.997326 C164.390099,159.997326 164.895415,152.469055 157.991436,151.626862 C151.08612,150.784668 150.94776,156.502893 150.94776,156.502893" fill="#A0D1DE"></path>
		<path d="M157.026924,143.019112 C157.026924,143.019112 165.677452,141.618799 167.158642,149.525389 C167.158642,149.525389 170.03012,143.817191 165.01506,140.795321 C159.999332,137.772115 157.026924,143.019112 157.026924,143.019112" fill="#A0D1DE"></path>
		<path d="M110.750413,227.354736 C110.750413,227.354736 116.790141,223.295499 120.355426,222.73671 C120.355426,222.73671 121.133452,230.39599 124.67601,234.170486 C124.67601,234.170486 132.321922,227.278538 139.882945,226.788595 C139.882945,226.788595 141.834695,230.988867 145.003614,232.546256 L144.985567,232.59505 C146.129211,233.308909 147.530193,234.030789 148.88706,234.33224 C148.88706,234.33224 153.22636,231.706068 154.482298,226.909577 C154.482298,226.909577 154.900052,237.035279 148.544167,242.554319 C148.544167,242.554319 143.697546,240.188825 140.205786,236.402966 C139.157055,235.38164 138.066883,234.19388 137.537504,233.228031 C137.537504,233.228031 126.324303,241.160689 125.914569,245.68447 C125.914569,245.68447 117.820157,237.792585 115.060303,231.712084 C115.060303,231.712084 109.658235,233.417191 108.159666,234.516052 C108.159666,234.516052 103.817692,227.414893 102.936063,221.006872 C102.936063,221.006872 108.157661,225.993859 110.750413,227.354736" fill="#B2DCE5"></path>
		<path d="M131.132825,207.453577 C130.684992,207.357995 142.506444,208.271708 154.114005,207.8593 C154.114005,207.8593 154.734287,205.644867 155.624606,204.428366 C155.624606,204.428366 155.430768,208.155405 156.473483,208.918057 C156.473483,208.918057 150.665023,211.204679 144.807102,211.187969 C144.807102,211.187969 151.190392,210.122527 153.3313,209.020992 C153.3313,209.020992 141.682966,209.669347 131.132825,207.453577" fill="#545352"></path>
	</g>
</svg>