<?xml version="1.0" encoding="UTF-8"?>
<svg width="256px" height="256px" viewBox="0 0 256 256" version="1.1" xmlns="http://www.w3.org/2000/svg" xmlns:xlink="http://www.w3.org/1999/xlink" preserveAspectRatio="xMidYMid">
    <g>
        <path d="M0,128 C0,97.2363864 10.8527678,69.0075725 28.9385285,46.9333334 L227.061471,46.9333334 L85.7353746,248.8579 C35.8106004,231.400232 0,183.882123 0,128 Z M237.562392,61.7812731 C249.26415,81.1009772 256,103.763867 256,128 C256,198.692447 198.692447,256 128,256 C119.530692,256 111.2535,255.177452 103.243954,253.607883 L237.562392,61.7812731 Z M45.8134841,29.8666666 C68.0490264,11.2247022 96.7136784,0 128,0 C159.286322,0 187.950974,11.2247022 210.186516,29.8666666 L45.8134841,29.8666666 L45.8134841,29.8666666 Z" fill="#EE350F"></path>
    </g>
</svg>