<?xml version="1.0" encoding="UTF-8" standalone="no"?>
<svg width="256px" height="217px" viewBox="0 0 256 217" version="1.1" xmlns="http://www.w3.org/2000/svg" xmlns:xlink="http://www.w3.org/1999/xlink" preserveAspectRatio="xMidYMid">
    <g>
        <path d="M219.171752,0 L148.091954,0 C147.355754,0 146.645661,0.268895553 146.092206,0.754473929 L130.000243,12.1812296 C128.854174,13.183714 127.144207,13.183714 126.000748,12.1812296 L109.908785,0.754473929 C109.35533,0.268895553 108.645237,0 107.909038,0 L36.8292396,0 C35.9886147,0 35.1793174,0.344604009 34.6049774,0.958103571 C13.252582,23.7306852 0.134133921,54.3169016 0.00099146343,87.9653946 C-0.273125362,157.810362 56.3280831,215.492374 126.167829,216.468752 C197.699267,217.468625 256,159.784003 256,88.4823006 C256,54.6275673 242.855446,23.8481638 221.393403,0.958103571 C220.819063,0.344604009 220.012377,0 219.171752,0 L219.171752,0 L219.171752,0 Z M191.585157,32.9462318 C204.565241,47.7903105 212.444142,67.2108349 212.444142,88.4823006 C212.444142,136.6381 172.133305,175.377334 123.418829,172.803247 C79.9804492,170.508497 45.1153996,134.951629 43.6090624,91.4793112 C42.8310928,69.0435017 50.8248615,48.4925717 64.4080029,32.951453 C65.4496468,31.7583922 65.3739384,29.9596637 64.256586,28.8397007 L38.118894,2.61846834 L124.196798,64.3861263 C126.41845,66.1718016 129.582541,66.1718016 131.804193,64.3861263 L217.824663,2.67590234 L191.744405,28.83709 C190.629664,29.9570531 190.546123,31.7557816 191.585157,32.9462318 L191.585157,32.9462318 L191.585157,32.9462318 Z" fill="#FF6B6B"></path>
    </g>
</svg>
