<?xml version="1.0" encoding="UTF-8"?>
<svg width="256px" height="256px" viewBox="0 0 256 256" version="1.1" xmlns="http://www.w3.org/2000/svg" xmlns:xlink="http://www.w3.org/1999/xlink" preserveAspectRatio="xMidYMid">
    <g>
        <path d="M128,0 C57.307552,0 0,57.307552 0,128 C0,198.692448 57.307552,256 128,256 C198.692448,256 256,198.692448 256,128 C256,94.0522893 242.514324,61.4949884 218.509668,37.490332 C194.505012,13.4856756 161.947711,0 128,0 Z M192.512,177.9712 L163.703467,102.229333 C163.703467,102.229333 152.064,132.5056 148.804267,141.482667 C146.551467,147.712 144.896,152.3712 140.9024,157.952 C135.259874,165.797795 127.590965,171.962419 118.715733,175.786667 C99.3948561,183.830777 77.1310521,179.448984 62.2994366,164.683241 C47.4678211,149.917497 42.986972,127.673418 50.9450016,108.316926 C58.9030312,88.9604346 77.7339519,76.3005174 98.6624,76.2368 C110.293767,76.0555702 121.617302,79.9771144 130.645333,87.3130667 L123.630933,105.813333 C118.9888,101.034667 112.674133,94.4810667 98.3722667,94.4810667 C80.0660088,94.8574019 65.3606466,109.691162 65.1434667,128 C65.0977817,143.841047 76.1590137,157.546723 91.6525853,160.846739 C107.146157,164.146754 122.832382,156.138087 129.245867,141.653333 C129.6896,140.680533 129.9968,139.946667 130.2016,139.298133 L89.9413333,139.298133 L89.9413333,123.426133 L150.3744,123.306667 L137.5744,119.893333 L152.9344,79.5306667 C156.438213,78.7551947 160.012705,78.3434132 163.601067,78.3018667 C167.1753,78.2498385 170.745014,78.5759182 174.250667,79.2746667 C185.856,109.7216 197.455644,140.1856 209.0496,170.666667 C203.978725,173.998896 198.390398,176.467218 192.512,177.9712 L192.512,177.9712 Z" fill="#000000"></path>
    </g>
</svg>