<?xml version="1.0" encoding="UTF-8"?>
<svg width="512px" height="789px" viewBox="0 0 512 789" version="1.1" xmlns="http://www.w3.org/2000/svg" xmlns:xlink="http://www.w3.org/1999/xlink" preserveAspectRatio="xMidYMid">
    <title>Ganache</title>
    <g>
				<path d="M63.9642006,598.198916 C67.3182413,598.179219 70.6542909,598.693127 73.8461244,599.723799 C76.7531776,600.654055 79.4458796,602.153899 81.7671442,604.135833 C83.9609936,606.066475 85.7198743,608.440964 86.9274177,611.102202 C88.2529611,613.998413 88.9141257,617.154372 88.8625202,620.339092 C88.8636211,623.566896 88.2416091,626.764563 87.0306231,629.756591 C85.7934722,632.818853 84.1347689,635.69336 82.102562,638.296844 C79.9816115,641.039177 77.538767,643.516672 74.8265763,645.676035 C72.142867,647.85525 69.2572216,649.773254 66.2089196,651.403938 C63.2791259,652.959212 60.1911432,654.196135 56.9978314,655.093534 C54.0616764,655.941514 51.0234031,656.384234 47.9673528,656.409404 C45.7586918,656.454779 43.6040218,655.724383 41.8782301,654.345294 C40.0397488,652.717961 39.0823534,650.314899 39.2980933,647.869151 C39.3057108,647.17078 39.3487685,646.473246 39.4271002,645.77924 C39.5203196,645.072526 39.666947,644.37389 39.8657234,643.68933 C40.0187096,643.120977 40.2441717,642.574665 40.536559,642.063843 C40.704647,641.683467 41.0755854,641.432833 41.4912096,641.418809 C41.8211466,641.425497 42.1427313,641.523759 42.4200588,641.702624 C42.776597,641.946842 43.1569589,642.154312 43.555319,642.321857 C44.1926162,642.576825 44.8480759,642.783813 45.5162229,642.94109 C46.6530758,643.176008 47.8131022,643.279891 48.9736061,643.250706 C51.7442053,643.184953 54.4731922,642.561936 56.9978314,641.418809 C59.8524365,640.174449 62.5117778,638.523224 64.8930499,636.516549 C67.3292345,634.561444 69.4145703,632.205625 71.0595767,629.55018 C72.6093938,627.083222 73.4403742,624.23287 73.4591039,621.319544 C73.4422337,620.191458 73.2328117,619.074541 72.839871,618.016969 C72.4026635,616.81266 71.7169781,615.713805 70.8273644,614.791798 C69.7896906,613.685243 68.5332211,612.806593 67.1377688,612.211661 C65.3430712,611.492765 63.4198093,611.150266 61.4872694,611.205408 C57.3796191,611.167284 53.3155008,612.048872 49.592839,613.785545 C45.630611,615.666108 42.0044746,618.185227 38.8594701,621.24214 C35.3865938,624.589254 32.3050854,628.319956 29.6741833,632.362529 C26.854031,636.683109 24.4686661,641.272344 22.5530059,646.063055 C20.5807756,651.046745 19.077784,656.203561 18.0635679,661.466472 C16.9936347,666.627279 16.4490282,671.883165 16.4380818,677.153703 C16.3635353,682.991577 16.9084119,688.820893 18.0635679,694.543825 C18.9678851,699.123157 20.532285,703.546933 22.7078141,707.676721 C24.4070438,710.943734 26.8133521,713.790758 29.7515874,716.010562 C32.3002226,717.892254 35.3818665,718.913444 38.5498537,718.926117 C41.7109032,718.960533 44.8427409,718.31833 47.7351405,717.042617 C50.4946208,715.829098 53.0322145,714.163529 55.2433384,712.114556 C57.5160449,709.975216 59.4864912,707.536029 61.1002488,704.864372 C62.7339995,702.1777 64.1324776,699.354846 65.2800704,696.427325 C66.3853384,693.607453 67.2485015,690.698593 67.8602071,687.732264 C68.4020393,685.108645 68.6871989,682.438514 68.7116522,679.759641 C68.7086957,678.699303 68.6484045,677.6399 68.5310427,676.586073 C68.4232238,675.669559 68.3629399,674.748076 68.3504331,673.825327 C68.2995719,673.12439 68.4809181,672.426207 68.8664604,671.838621 C69.2291365,671.368969 69.7099132,671.003934 70.2597343,670.780765 C70.9026138,670.527272 71.5821812,670.379161 72.272241,670.342142 L74.6717681,670.342142 C75.7142584,670.370338 76.7476992,670.544025 77.7421309,670.858169 C78.8950129,671.210858 80.0032346,671.695705 81.0447059,672.303046 C82.0123767,672.876249 82.8832009,673.599033 83.6248426,674.44456 C84.3068267,675.133905 84.7031161,676.055508 84.7343014,677.024696 C84.2182741,681.849552 83.9086577,686.442195 83.7796508,690.776825 C83.650644,695.111455 83.5732399,699.497687 83.5732399,703.987125 L83.5732399,732.059013 C85.4309384,731.749397 87.2370341,731.568787 88.9915271,731.43978 L94.0227937,731.104362 C96.3191154,731.104362 97.8155947,731.62039 98.4864303,733.065266 C99.1699961,734.58421 99.2710139,736.301512 98.7702453,737.890122 C98.2585472,739.74023 97.3220536,741.445356 96.0353004,742.869786 C94.9078797,744.269814 93.237736,745.123651 91.442657,745.21771 L87.2628354,745.21771 C86.4733136,745.21771 85.7023687,745.273441 84.8886968,745.345892 L83.1862194,745.501525 L83.1862194,745.501525 C83.0056098,748.855703 82.6959934,752.261484 82.3347743,755.693066 C81.9508419,759.062854 81.3213345,762.400105 80.4512744,765.678195 C79.6300532,768.798745 78.5066849,771.831839 77.0970967,774.734475 C75.7908229,777.459093 74.0477239,779.951724 71.9368232,782.113666 C69.833193,784.241892 67.3239446,785.926423 64.5576321,787.067528 C61.6745752,788.228245 58.6058424,788.849202 55.5041909,788.902662 L54.4692974,788.899426 C51.3763953,788.945485 48.3029765,788.402601 45.4130174,787.299741 C42.909658,786.282348 40.6304256,784.783315 38.7046619,782.887707 C36.7787592,780.996602 35.2751051,778.719137 34.2926281,776.205153 C33.2407143,773.544977 32.7149708,770.705962 32.744546,767.84551 C32.6682712,763.618176 33.7286545,759.447929 35.8149087,755.77047 C37.9000101,752.187138 40.6497272,749.034596 43.9165381,746.481977 C47.444806,743.700681 51.3330566,741.40939 55.4755507,739.670416 C59.8143024,737.814572 64.2703425,736.245908 68.8148577,734.974568 L68.8116325,730.423045 L68.8116325,730.423045 L68.7890563,727.795337 C68.7697053,726.523007 68.735841,725.312359 68.6765785,724.16067 L68.6084468,723.028534 C68.4794399,721.174061 68.4612983,719.480846 68.4658337,717.942591 L68.4794399,715.339727 L68.4794399,715.339727 C64.767748,720.502713 60.0776451,724.885987 54.6757083,728.240411 C49.6775878,731.278017 43.9341079,732.86797 38.0854291,732.833054 C32.4317231,732.9311 26.8491242,731.562119 21.8821703,728.859643 C17.0526926,726.126107 12.9545762,722.266974 9.93613718,717.610247 C6.49933938,712.25362 4.01177747,706.344569 2.58274745,700.142722 C0.812191487,692.670716 -0.0540637955,685.013019 0.0026107047,677.334313 C0.0240661902,671.208118 0.698715713,665.101675 2.01511737,659.118547 C3.35810865,652.911012 5.33809996,646.858637 7.92363051,641.05759 C10.4953726,635.194505 13.659578,629.609596 17.366931,624.389907 C20.9574999,619.315227 25.209253,614.742423 30.0096011,610.792586 C34.7224624,606.951233 39.9953558,603.853625 45.6452297,601.607299 C51.4776666,599.311339 57.6962975,598.155199 63.9642006,598.198916 Z M68.3504331,748.23647 C62.8034973,749.59337 57.6572971,752.24605 53.3340372,755.976881 C50.0385507,758.924418 48.1606174,763.140379 48.1737637,767.561695 C47.8644334,769.579196 48.4868179,771.62812 49.8660242,773.132708 C51.2452305,774.637297 53.2324041,775.435164 55.2691398,775.302105 L55.140133,775.173098 C57.229036,775.202126 59.2469052,774.415342 60.7648311,772.979982 C62.4815505,771.31545 63.8039429,769.287782 64.6350362,767.045667 C65.7533971,764.311951 66.5751456,761.466106 67.0861661,758.557017 C67.698949,755.142987 68.1210255,751.697464 68.3504331,748.23647 Z M381.32102,609.270305 C383.077676,610.575084 384.119182,612.62943 384.133369,614.817599 L384.133369,673.412505 C385.435721,670.990872 386.892193,668.655346 388.493801,666.420334 C390.002348,664.369607 391.732947,662.491907 393.654074,660.821437 C395.389139,659.268975 397.356693,657.9979 399.485183,657.054438 C401.354693,656.25911 403.350553,655.80995 405.375707,655.726221 L406.245141,655.712767 C409.030853,655.603955 411.801558,656.170489 414.320969,657.364054 C416.302436,658.368562 418.011054,659.838151 419.300633,661.647081 C420.543275,663.397943 421.42075,665.381036 421.88077,667.47819 C422.355417,669.534487 422.597746,671.637564 422.603208,673.747923 L422.603208,712.682186 C422.670246,713.623385 422.861101,714.551635 423.170838,715.442932 C423.49093,716.348876 424.00118,717.175835 424.667318,717.868261 C425.351468,718.518948 426.246131,718.893867 427.180497,718.931043 L427.582872,718.926117 C429.482159,718.963006 431.325276,718.281053 432.743146,717.016816 C434.252656,715.640234 435.517672,714.017523 436.484344,712.217761 C437.550763,710.227845 438.415125,708.136088 439.064481,705.973831 L439.442006,704.645163 L439.442006,704.645163 L439.856225,703.135768 C439.367556,700.627556 439.1439,698.067712 439.193488,695.498475 C439.145215,690.143102 440.017971,684.819289 441.773624,679.759641 C443.339306,675.217921 445.640468,670.964259 448.585185,667.168574 C451.210393,663.791217 454.471005,660.960095 458.183294,658.834732 C461.53547,656.902085 465.331193,655.870928 469.200478,655.841774 C471.73873,655.801623 474.261158,656.248303 476.631272,657.157643 C478.753942,657.960371 480.674169,659.219969 482.25597,660.847239 C483.799375,662.48622 484.985492,664.427938 485.739154,666.549341 C486.480831,668.874337 486.821114,671.308669 486.745408,673.747923 C486.732821,677.272418 486.095107,680.766736 484.861908,684.06847 C483.569344,687.645328 481.695036,690.984212 479.314614,693.950393 C476.710885,697.181361 473.641387,700.007386 470.206731,702.335838 C466.380338,704.899016 462.150122,706.800433 457.693068,707.960536 C458.356911,709.50555 459.224669,710.954705 460.273205,712.269364 C461.33651,713.646338 462.617654,714.840329 464.066006,715.804152 C465.654645,716.848364 467.395344,717.640382 469.226279,718.152076 C471.110192,718.686382 473.052849,718.979887 475.007896,719.026575 L475.986238,719.029322 C479.385197,719.120436 482.761525,718.45046 485.868161,717.068419 C488.506339,715.834539 490.867313,714.079168 492.808729,711.908145 C494.696701,709.742066 496.237293,707.296267 497.375571,704.657961 C498.502364,702.049741 499.366673,699.335812 499.955708,696.556331 C500.191138,694.875217 501.204419,693.403092 502.690653,692.582921 C503.997965,691.919519 505.501996,691.754442 506.922077,692.118496 C508.363156,692.466932 509.666461,693.239927 510.663275,694.337414 C511.683552,695.423236 512.157797,696.912365 511.953344,698.388229 C511.633326,700.473735 511.202696,702.540759 510.663275,704.580557 C509.999396,707.025595 509.082808,709.394887 507.92833,711.650131 C506.626597,714.149435 505.060991,716.502169 503.258283,718.668103 C501.265927,721.051612 498.926202,723.121703 496.317715,724.808829 C493.311863,726.723874 490.04405,728.192652 486.616401,729.16926 C482.470338,730.334894 478.176749,730.891148 473.870525,730.820547 C469.460188,730.811556 465.088456,729.998414 460.969842,728.42102 C456.853594,726.863074 453.077473,724.523806 449.849452,721.532055 C448.450294,720.208037 447.171372,718.76936 446.02485,717.233416 C445.162166,718.613102 444.206075,719.936773 443.166898,721.196637 C440.930258,723.940828 438.199946,726.242341 435.116871,727.982397 C432.009156,729.704199 428.529939,730.633407 424.986663,730.694419 L424.099688,730.691541 C421.708726,730.743031 419.334129,730.285702 417.133318,729.349869 C415.191319,728.487303 413.437947,727.251176 411.973045,725.711877 C410.536309,724.181912 409.429711,722.372713 408.722073,720.396795 C407.984735,718.326306 407.609432,716.144312 407.612614,713.946453 L407.612614,673.876929 C407.556442,672.784634 407.374634,671.702444 407.070785,670.651758 C406.839695,669.824403 406.4152,669.063849 405.832319,668.432841 C405.228035,667.862943 404.41714,667.564683 403.5876,667.607197 C401.627591,667.86668 399.810919,668.775016 398.427327,670.187334 C396.136826,672.19537 394.108356,674.4839 392.389807,676.998895 C390.329566,679.957646 388.599182,683.132901 387.229533,686.467997 C385.767871,689.835237 384.811504,693.399879 384.391383,697.046557 L384.391383,725.711877 C384.384074,726.552375 384.190197,727.38076 383.823753,728.137205 C383.465656,728.888998 382.902114,729.524102 382.198267,729.969102 C381.358111,730.445491 380.415071,730.704487 379.454467,730.726295 L378.973096,730.717342 C377.933747,730.708986 376.897354,730.605347 375.876932,730.407726 C374.791312,730.225304 373.749727,729.84018 372.806569,729.272465 C371.852101,728.700134 371.06123,727.891491 370.510247,726.924541 C369.837152,725.684189 369.515957,724.283424 369.581398,722.873726 L369.577686,721.152797 C368.136859,722.484253 366.575146,723.682514 364.911351,724.731425 C361.856835,726.641646 358.547205,728.109697 355.08103,729.091856 C350.92239,730.234009 346.621221,730.772741 342.309353,730.691541 C337.993769,730.697592 333.709019,729.964559 329.640881,728.524226 C325.619617,727.105327 321.919074,724.904293 318.752704,722.048082 C317.358281,720.780581 316.084882,719.393311 314.945819,717.904745 C314.209304,719.023789 313.412397,720.105472 312.560376,721.145035 C310.308482,723.894222 307.560307,726.196038 304.458747,727.930794 C301.073666,729.796837 297.254216,730.731667 293.38996,730.639938 C290.260946,730.7133 287.161243,730.022509 284.359481,728.627431 C281.925827,727.400805 279.847181,725.570887 278.321961,723.312349 C276.239164,725.413232 273.824511,727.156663 271.174983,728.472623 C268.425809,729.82035 265.418907,730.549845 262.365179,730.614674 L261.447867,730.614136 C257.962351,730.685559 254.505485,729.971258 251.333731,728.524226 C248.497764,727.191754 245.99452,725.243807 244.006143,722.822123 L243.490225,722.158573 C241.414887,724.426439 238.995086,726.357466 236.317335,727.879192 C233.20962,729.600994 229.730403,730.530201 226.187127,730.591213 L225.300151,730.588335 C222.90919,730.639826 220.534593,730.182496 218.333782,729.246664 C216.391783,728.384098 214.638411,727.147971 213.173509,725.608671 C211.727718,724.08563 210.619887,722.274414 209.922536,720.293589 C209.185199,718.2231 208.809896,716.041106 208.813078,713.843248 L208.813078,673.773724 C208.756905,672.681428 208.575097,671.599239 208.271249,670.548553 C208.040159,669.721197 207.615663,668.960643 207.032783,668.329635 C206.420573,667.755706 205.600131,667.457363 204.762263,667.503992 C202.802843,667.765395 200.986764,668.673435 199.601989,670.084128 C197.29333,672.088959 195.2474,674.377626 193.512867,676.895689 C191.455914,679.838165 189.725617,682.995957 188.352593,686.313189 C186.890931,689.680429 185.934563,693.245071 185.514443,696.891749 L185.514443,725.557068 C185.485548,726.397722 185.283527,727.223374 184.921011,727.982397 C184.562915,728.73419 183.999372,729.369293 183.295525,729.814294 C182.315343,730.370081 181.195125,730.629972 180.070354,730.562534 C179.031006,730.554178 177.994612,730.450539 176.97419,730.252917 C175.888571,730.070496 174.846985,729.685372 173.903827,729.117657 C172.949359,728.545326 172.158488,727.736682 171.607506,726.769733 C170.938947,725.537741 170.617561,724.147492 170.677386,722.747422 C168.739607,724.775103 166.504523,726.50505 164.047705,727.879192 C160.921769,729.598497 157.427678,730.527095 153.869596,730.590541 L152.978918,730.588335 C149.849904,730.661697 146.750202,729.970906 143.94844,728.575828 C141.514785,727.349203 139.436139,725.519284 137.91092,723.260747 C135.828122,725.361629 133.413469,727.105061 130.763941,728.42102 C128.014767,729.768747 125.007865,730.498242 121.954138,730.563071 L121.036825,730.562534 C117.55131,730.633956 114.094443,729.919655 110.922689,728.472623 C108.086722,727.140151 105.583478,725.192204 103.595101,722.770521 C101.546742,720.244111 100.028632,717.330744 99.1314645,714.204467 C98.1080223,710.772609 97.6036163,707.206981 97.6349852,703.625906 C97.5421992,696.791577 98.8871512,690.014074 101.582594,683.733052 C104.020811,678.038188 107.573717,672.888668 112.032148,668.587649 C116.332372,664.462484 121.398758,661.219296 126.945339,659.041143 C132.086542,657.010087 137.541336,655.898827 143.060722,655.754651 L144.33546,655.738568 C146.680029,655.623331 148.990537,656.335662 150.863206,657.751075 C152.563437,659.044806 153.526312,661.086101 153.443343,663.220965 C153.52517,664.315595 153.339202,665.413686 152.901514,666.420334 C152.474035,667.0712 151.71308,667.42164 150.94061,667.323382 C150.009675,667.321149 149.079516,667.269474 148.154063,667.168574 C147.170189,667.041803 146.178892,666.981463 145.186905,666.987964 C141.31514,667.022769 137.483384,667.775123 133.885906,669.206882 C130.008369,670.73287 126.492906,673.053075 123.565359,676.018443 C120.236267,679.323398 117.604178,683.262758 115.824949,687.603257 C113.688538,692.930757 112.65288,698.635657 112.780388,704.374146 C112.532944,708.227992 113.586943,712.053284 115.773346,715.236521 C117.595467,717.53802 120.349666,718.888142 123.264331,718.934363 L123.849174,718.926117 C126.372872,718.983937 128.805565,717.98279 130.55753,716.165371 C132.378016,714.288527 133.838496,712.093434 134.866358,709.689227 L134.866358,682.133367 C134.913625,681.403092 134.913625,680.670525 134.866358,679.940251 C134.763153,679.372621 134.659947,678.882395 134.556742,678.469573 C134.556742,678.056751 134.376132,677.695532 134.32453,677.385915 C134.301937,677.076711 134.301937,676.76627 134.32453,676.457066 C134.370755,675.496306 134.947574,674.641023 135.821009,674.238149 C136.749654,673.75723 137.76809,673.48011 138.808357,673.42278 L139.329995,673.412505 C142.095686,673.279647 144.824609,674.089228 147.070405,675.708827 C148.80821,676.986319 149.856281,678.99671 149.908556,681.152915 L149.908556,710.618077 C149.906988,711.602837 150.037149,712.583383 150.295576,713.533631 C150.546013,714.444485 150.928491,715.313754 151.430836,716.113768 C152.588978,717.808344 154.540564,718.784137 156.59111,718.693905 L156.513706,718.926117 C158.413861,718.968168 160.25881,718.285537 161.673979,717.016816 C163.183646,715.607198 164.440333,713.949069 165.389376,712.114556 C166.466509,710.129725 167.331336,708.036843 167.969513,705.870625 C168.640348,703.625906 169.182177,701.535995 169.646602,699.54929 C169.809678,698.606094 170.13673,697.703511 170.608735,696.880838 L170.523848,666.265526 C170.595036,665.027945 170.446536,663.787535 170.085225,662.601732 C169.821578,661.936023 169.681677,661.227776 169.672403,660.511821 C169.751154,659.573726 170.334575,658.75298 171.194684,658.370308 C172.321901,657.802616 173.570836,657.519169 174.832677,657.544664 C177.600872,657.39074 180.33668,658.202363 182.573087,659.840986 C184.329742,661.145764 185.371248,663.20011 185.385436,665.38828 L185.385436,673.412505 C186.687787,670.990872 188.144259,668.655346 189.745867,666.420334 C191.261042,664.37508 192.991008,662.498067 194.90614,660.821437 C196.654365,659.273709 198.629634,658.003272 200.763051,657.054438 C202.632561,656.25911 204.628421,655.80995 206.653575,655.726221 L207.523009,655.712767 C210.300664,655.600924 213.063728,656.167706 215.573036,657.364054 C217.566791,658.360737 219.28553,659.831411 220.578501,661.647081 C221.821143,663.397943 222.698618,665.381036 223.158638,667.47819 C223.633284,669.534487 223.875614,671.637564 223.881076,673.747923 L223.881076,712.682186 C223.948113,713.623385 224.138968,714.551635 224.448706,715.442932 C224.768798,716.348876 225.279048,717.175835 225.945186,717.868261 C226.629336,718.518948 227.523999,718.893867 228.458365,718.931043 L228.86074,718.926117 C230.760027,718.963006 232.603144,718.281053 234.021014,717.016816 C235.521471,715.605119 236.769338,713.947114 237.710609,712.114556 C238.028735,711.520939 238.32888,710.91826 238.6107,710.30735 C238.213979,708.122744 238.026531,705.90311 238.046027,703.677509 C237.945983,696.825839 239.291084,690.030004 241.993636,683.733052 C244.393644,678.049168 247.902131,672.900464 252.314183,668.587649 C256.614406,664.462484 261.680793,661.219296 267.227373,659.041143 C272.368577,657.010087 277.82337,655.898827 283.342757,655.754651 L284.617495,655.738568 C286.96151,655.62773 289.270553,656.339609 291.145241,657.751075 C292.845472,659.044806 293.808347,661.086101 293.725378,663.220965 C293.807204,664.315595 293.621237,665.413686 293.183549,666.420334 C292.75607,667.0712 291.995115,667.42164 291.222645,667.323382 C290.29171,667.321149 289.361551,667.269474 288.436098,667.168574 C287.452224,667.041803 286.460926,666.981463 285.46894,666.987964 C281.597175,667.022769 277.765419,667.775123 274.167941,669.206882 C270.290403,670.73287 266.774941,673.053075 263.847394,676.018443 C260.564649,679.335089 257.97696,683.273639 256.235991,687.603257 C254.647848,691.563558 253.667979,695.73241 253.322023,699.968579 C253.46739,700.46969 253.543355,700.987503 253.552649,701.510194 L253.552649,701.948817 C253.535421,702.215007 253.474399,702.476532 253.372039,702.722858 L253.180975,703.371738 C253.180521,703.705715 253.184002,704.039873 253.19143,704.374146 C252.943985,708.227992 253.997985,712.053284 256.184388,715.236521 C258.001265,717.595718 260.788473,718.986924 263.744419,719.037247 L264.33762,719.029322 C266.861318,719.087142 269.294011,718.085995 271.045976,716.268576 C272.866462,714.391733 274.326942,712.196639 275.354804,709.792433 L275.354804,682.133367 C275.402071,681.403092 275.402071,680.670525 275.354804,679.940251 C275.286001,679.561831 275.217197,679.217812 275.148393,678.908196 L275.045188,678.469573 C274.941982,678.056751 274.864578,677.695532 274.812975,677.385915 C274.790382,677.076711 274.790382,676.76627 274.812975,676.457066 C274.859201,675.496306 275.43602,674.641023 276.309455,674.238149 C277.416003,673.664462 278.649837,673.380414 279.895845,673.412505 C282.662784,673.26924 285.395089,674.079824 287.636255,675.708827 C289.428565,676.991684 290.50192,679.052143 290.526008,681.256121 L290.526008,710.721282 C290.52444,711.706043 290.654601,712.686589 290.913029,713.636837 C291.163466,714.547691 291.545944,715.416959 292.048289,716.216973 C293.20643,717.91155 295.158017,718.887343 297.208562,718.79711 L296.924747,718.926117 C298.824903,718.968168 300.669851,718.285537 302.085021,717.016816 C303.594531,715.640234 304.859547,714.017523 305.826219,712.217761 C306.903352,710.232931 307.768179,708.140048 308.406356,705.973831 C308.595045,705.342447 308.773528,704.723312 308.942953,704.115276 C308.500095,701.760133 308.3037,699.355766 308.354753,696.943352 C308.355561,691.825621 309.165399,686.740189 310.75428,681.875353 C312.239698,677.148773 314.469416,672.689335 317.35943,668.665053 C320.073736,664.893946 323.512007,661.701266 327.473566,659.273355 C331.101652,657.071337 335.23423,655.850702 339.466058,655.723294 L340.37425,655.712767 C343.366991,655.614386 346.337237,656.261634 349.017708,657.596267 C351.210423,658.713746 353.164662,660.247342 354.771413,662.111506 C356.188036,663.803001 357.27341,665.746171 357.970783,667.839409 C358.590223,669.572121 358.929891,671.392392 358.977036,673.231895 C358.995748,674.363088 358.642193,675.469082 357.970783,676.379662 C357.308228,677.300157 356.486948,678.095226 355.545454,678.727587 C354.567723,679.36869 353.497414,679.855984 352.371886,680.172463 C351.375373,680.463194 350.339012,680.593828 349.301523,680.559484 C348.496769,680.53879 347.726787,680.22713 347.134208,679.682237 C346.55429,679.048403 346.357476,678.152899 346.618181,677.334313 C346.321155,676.420952 346.079898,675.490388 345.895743,674.547765 C345.659735,673.432405 345.268931,672.355522 344.734681,671.348395 C344.181209,670.336573 343.415468,669.456411 342.489962,668.768259 C341.336217,667.988223 339.958714,667.607597 338.568154,667.684601 C336.620227,667.772744 334.777332,668.592832 333.407881,669.980923 C331.523732,671.789724 329.992594,673.933317 328.892642,676.302258 C327.496823,679.287879 326.440942,682.420904 325.744875,685.642353 C324.921774,689.361286 324.51505,693.160261 324.532211,696.969153 C324.470851,700.17207 324.97751,703.360523 326.02869,706.386652 C326.908703,708.957607 328.334602,711.307701 330.208511,713.275618 C331.991858,715.142302 334.168997,716.587852 336.581449,717.507042 C339.134275,718.482824 341.846994,718.972863 344.579873,718.951918 C348.01995,719.036502 351.436859,718.367211 354.590804,716.991014 C357.325281,715.767792 359.789659,714.013786 361.840988,711.830741 C363.818097,709.686202 365.438368,707.238373 366.640042,704.580557 C367.798595,701.984329 368.663989,699.266991 369.220179,696.478927 C369.274026,696.107246 369.36555,695.745822 369.491508,695.399367 L369.24598,615.694846 C369.281375,614.669135 369.168402,613.64369 368.910563,612.650284 C368.754751,612.025198 368.52975,611.419426 368.239727,610.844189 C368.118638,610.597821 367.97818,610.361706 367.819777,610.138035 L367.568891,609.812134 C367.356346,609.589466 367.236436,609.294301 367.233474,608.98649 C367.249746,608.612821 367.466912,608.2772 367.801104,608.109244 C368.287915,607.836197 368.80836,607.628019 369.349186,607.490011 C370.024824,607.301935 370.715416,607.172449 371.413295,607.10299 C372.132924,607.021467 372.856391,606.978403 373.58061,606.973984 C376.349058,606.817897 379.085581,607.629732 381.32102,609.270305 Z M467.291177,667.632999 C465.744324,667.61366 464.239031,668.133671 463.033951,669.103676 C461.706593,670.184914 460.594929,671.506656 459.757177,672.999683 C458.789399,674.704122 458.018989,676.513287 457.460856,678.392169 C456.858415,680.384398 456.367429,682.408641 455.990178,684.45549 C455.619021,686.373817 455.360564,688.31224 455.216137,690.260798 C455.087913,691.788097 455.044844,693.321352 455.08713,694.853441 C455.048706,695.377365 455.048706,695.9034 455.08713,696.427325 L455.08713,698.078612 C457.523638,697.071704 459.800782,695.715847 461.847088,694.053599 C463.843783,692.462605 465.584178,690.574277 467.007362,688.454702 C469.913814,684.160889 471.451982,679.087635 471.419396,673.902731 C471.513019,672.287534 471.127022,670.680709 470.309937,669.284286 C469.676157,668.228641 468.521943,667.597277 467.291177,667.632999 Z" fill="#5E464D"></path>
				<g transform="translate(7.278596, 0.000000)">
						<path d="M426.80622,413.618536 C432.559925,413.618536 434.546631,412.276865 437.281576,407.606817 C440.016521,402.93677 438.700651,395.351168 438.597445,393.287058 C438.339432,388.746018 436.817151,383.68895 436.61074,381.160416 C436.61074,379.612334 436.61074,369.73041 436.842952,365.679595 C440.300336,301.588998 467.804593,286.34039 475.751415,284.611699 C480.819777,283.11779 486.255115,283.483806 491.077427,285.643753 L491.077427,187.598557 L491.077427,187.598557 L491.077427,186.205283 L491.077427,160.197505 C491.077427,146.032554 481.014893,128.616631 468.733443,121.495454 L267.843996,5.38929999 C255.459339,-1.78348016 235.256868,-1.78348016 223.078623,5.31189589 L22.395587,121.263241 C10.1399374,128.358617 0.0774041024,145.77454 0.10320547,159.965292 L0.10320547,185.302235 C0.0929404549,185.448123 0.0929404549,185.594971 0.10320547,185.740859 L0.10320547,222.740019 C1.26426701,223.385054 2.42532854,224.055889 3.58639008,224.778327 C7.48239656,227.358464 11.3268003,228.777539 15.2486082,231.486683 C26.4240332,238.296648 36.8082763,246.32713 46.2102491,255.430352 C48.0421462,257.184845 54.1570703,264.873653 55.6019469,266.679748 C60.0427593,272.799391 65.034668,278.499495 70.5151373,283.708651 C73.5429091,286.469382 76.8756123,288.875853 80.4486637,290.881431 C86.3571769,293.951794 96.1100938,293.255157 101.089758,291.06204 C139.327384,274.497563 163.322656,282.805603 174.391443,289.462356 C201.766694,305.897827 210.900378,328.886845 213.815932,356.803925 C214.19875,360.419857 214.319471,364.058748 214.177151,367.692102 C214.177151,374.323053 213.944939,384.979018 220.93711,386.759312 C230.973841,389.339449 233.39917,378.60608 234.895649,371.484903 C238.275628,355.359048 259.742366,344.780488 275.455399,352.907918 C286.291973,358.506815 290.729809,361.680383 301.437376,356.958733 C314.828286,351.05022 321.743052,336.008023 326.4131,328.009599 C331.026816,320.221711 337.706712,313.863308 345.712523,309.639025 C366.61163,296.609334 419.143214,299.989314 421.052516,357.887582 C421.052516,361.035349 421.052516,369.085376 421.052516,373.987635 C421.052516,379.509128 421.233125,384.901614 420.871906,390.603716 C420.639694,394.396517 419.968858,398.344126 419.607639,402.240133 C419.504433,402.240133 417.54353,413.566933 426.80622,413.618536 Z" fill="#E4A663"></path>
						<path d="M491.025824,285.746959 C489.606749,285.308336 485.47853,282.599192 475.751415,284.714904 C467.778792,286.443596 440.300336,301.692204 436.842952,365.782801 C436.636541,369.73041 436.507535,379.612334 436.61074,381.263621 C436.817151,383.843758 438.339432,388.849223 438.597445,393.390264 C438.597445,395.454373 440.171329,402.93677 437.281576,407.710023 C434.391823,412.483276 432.559925,413.747543 426.80622,413.721741 C417.54353,413.721741 419.504433,402.343338 419.504433,402.343338 C419.865653,398.498935 420.536488,394.602928 420.7687,390.706922 C421.12992,385.004819 420.94931,379.612334 420.94931,374.090841 C420.94931,369.188581 420.94931,361.190157 420.94931,357.990788 C419.040009,300.092519 366.508425,296.71254 345.609317,309.742231 C337.603506,313.966513 330.92361,320.324917 326.309894,328.112804 C321.639847,336.111228 314.72508,351.153425 301.334171,357.061938 C290.626603,361.783589 286.188768,358.61002 275.352193,353.011124 C259.639161,344.883693 238.172423,355.462254 234.792444,371.588108 C233.295965,378.709286 230.870636,389.416853 220.833904,386.862518 C213.841733,385.082223 214.073946,374.426259 214.073946,367.795307 C214.216266,364.161953 214.095544,360.523063 213.712727,356.90713 C210.797172,328.990051 201.663488,306.001032 174.288237,289.565561 C163.219451,282.908808 139.224179,274.600768 100.986552,291.165246 C95.8262787,293.358362 86.1765673,294.054999 80.3454583,290.984636 C76.7724068,288.979059 73.4397036,286.572587 70.4119318,283.811856 C64.9314626,278.6027 59.9395538,272.902597 55.4987414,266.782954 C54.0538648,264.976858 47.9389407,257.28805 46.1070436,255.533557 C36.7050708,246.430335 26.3208277,238.399854 15.1454027,231.589888 C11.2235948,229.009752 7.40499246,227.358464 3.48318461,224.881533 C2.32212307,224.159095 1.16106154,223.488259 0,222.843225 L0,392.022791 C0,406.213543 10.0625333,423.629466 22.3439842,430.724843 L223.233431,546.830996 C235.514882,553.952173 255.614147,553.952173 267.895598,546.830996 L468.810847,430.879651 C481.092298,423.784275 491.12903,406.368352 491.103278,392.1776 L491.025824,285.746959 Z" fill="#5E464D"></path>
						<path d="M271.069167,257.313852 C257.188031,265.338077 234.457026,265.338077 220.57589,257.313852 L15.1454027,148.948109 C17.4675258,151.24443 223.465644,270.911172 223.465644,270.911172 C235.747094,278.03235 255.84636,278.03235 268.127811,270.911172 C268.127811,270.911172 473.842113,151.605649 476.164236,149.309328 L271.069167,257.313852 Z" fill="#FFFFFF"></path>
						<path d="M220.240473,20.8443191 C234.14741,12.8974979 256.852613,12.8974979 270.75955,20.8701205 L295.65787,31.1906675 C293.335747,28.8943457 267.843996,12.3814706 267.843996,12.3814706 C255.562545,5.28609452 235.489081,5.26029316 223.20763,12.3814706 C223.20763,12.3814706 182.493072,36.2993382 180.19675,38.5698585 L220.240473,20.8443191 Z" fill="#FFFFFF"></path>
				</g>
		</g>
</svg>
