<?xml version="1.0" encoding="UTF-8"?>
<svg width="256px" height="257px" viewBox="0 0 256 257" version="1.1" xmlns="http://www.w3.org/2000/svg" preserveAspectRatio="xMidYMid">
    <title>GeeTest</title>
    <g>
        <path d="M255.275481,115.988577 L174.85378,115.988577 C168.773042,92.3764309 146.129144,76.9810876 122.000052,80.0538934 C97.8709603,83.1267001 79.784904,103.708946 79.784904,128.095466 C79.784904,152.481985 97.8709603,173.064231 122.000052,176.137037 C146.129144,179.209843 168.773042,163.8145 174.85378,140.202354 L230.641806,140.202354 C225.426506,185.370519 191.454543,221.854866 146.868259,230.171342 C102.281973,238.487819 57.4962067,216.693794 36.4282889,176.428117 C15.360371,136.162442 22.9315235,86.830711 55.098458,54.7779766 C87.2653929,22.7252423 136.514287,15.4386517 176.544326,36.8095259 C170.071634,54.9008348 177.626435,75.0296402 194.389065,84.3545594 C211.151694,93.6794794 232.184272,89.4536085 244.068845,74.3728867 C255.953417,59.2921646 255.189066,37.7990205 242.263418,23.6052306 C229.337769,9.41144083 208.058418,6.69816521 192.000749,17.1963665 C141.829557,-11.8456864 78.4579002,-3.48094523 37.4931671,37.5905933 C-3.47156598,78.6621317 -11.8148942,142.199354 17.1511477,192.501845 C46.1171896,242.804335 105.169972,267.329259 161.128804,252.296505 C217.087636,237.263751 256,186.421709 256,128.337603 C256,123.494848 255.758493,119.378505 255.275481,115.988577 Z M128.001497,152.309243 C114.663456,152.309243 103.850836,141.468366 103.850836,128.095466 C103.850836,114.722566 114.663456,103.881688 128.001497,103.881688 C141.339539,103.881688 152.152158,114.722566 152.152158,128.095466 C152.152158,141.468366 141.339539,152.309243 128.001497,152.309243 Z M213.25333,35.598837 C219.114149,35.598837 224.397873,39.1385355 226.640711,44.5673765 C228.883549,49.9962175 227.643813,56.2450838 223.499588,60.4001388 C219.355364,64.5551939 213.122786,65.7981707 207.708096,63.5494711 C202.293405,61.3007715 198.762934,56.0032385 198.762934,50.1271033 C198.762934,42.1033634 205.250506,35.598837 213.25333,35.598837 Z" fill="#347EFF"></path>
    </g>
</svg>
