<?xml version="1.0" encoding="UTF-8"?>
<svg width="256px" height="228px" viewBox="0 0 256 228" version="1.1" xmlns="http://www.w3.org/2000/svg" preserveAspectRatio="xMidYMid">
    <title>glamorous</title>
    <g>
        <polygon fill="#DA233C" points="80.2809503 4.73976128 165.981587 90.4403976 118.227998 138.193986 0.975883838 20.9418716"></polygon>
        <path d="M36.7910751,2.18153333 C14.6197662,6.01887525 -1.58234411,13.6935591 0.123141188,19.6627577 C2.25499781,25.6319562 21.8680788,27.3374415 44.465759,23.5000996 C66.6370679,19.2363863 83.2655495,11.5617025 81.1336929,5.59250393 C79.0018363,-0.376694619 58.962384,-1.65580859 36.7910751,2.18153333" fill="#DA233C"></path>
        <path d="M37.6438178,2.18153333 C16.7516229,5.59250393 1.40225516,13.2671878 3.53411179,18.810015 C5.66596841,24.3528422 23.9999354,25.6319562 44.8921303,22.2209856 C65.7843252,18.810015 81.1336929,11.1353312 79.0018363,6.01887525 C76.8699797,0.0496767056 58.5360127,-1.65580859 37.6438178,2.18153333" fill="#FF8080"></path>
        <polygon fill="#E8E8E8" transform="translate(126.772096, 98.298720) rotate(-45.000000) translate(-126.772096, -98.298720) " points="87.9726773 47.5610185 165.571514 47.5610185 165.571514 149.036421 87.9726773 149.036421"></polygon>
        <polygon fill="#555B61" transform="translate(218.467641, 190.398507) rotate(-45.008103) translate(-218.467641, -190.398507) " points="177.962753 177.820674 258.972529 177.820674 258.972529 202.976341 177.962753 202.976341"></polygon>
        <polygon fill="#B2C1C0" transform="translate(148.104754, 120.082990) rotate(-45.016206) translate(-148.104754, -120.082990) " points="107.599865 108.35789 188.609643 108.35789 188.609643 131.808089 107.599865 131.808089"></polygon>
        <polygon fill="#3E4347" transform="translate(184.655926, 156.527825) rotate(-45.000000) translate(-184.655926, -156.527825) " points="139.887366 104.511022 229.424486 104.511022 229.424486 208.544628 139.887366 208.544628"></polygon>
    </g>
</svg>
