<?xml version="1.0" encoding="UTF-8"?>
<svg width="512px" height="175px" viewBox="0 0 512 175" version="1.1" xmlns="http://www.w3.org/2000/svg" preserveAspectRatio="xMidYMid">
    <title>Godot</title>
    <g>
        <path d="M251.607763,121.231195 C241.961393,121.231195 234.418201,118.194056 228.970831,112.120367 C223.519268,106.043956 220.798672,98.1572963 220.798672,88.4476622 C220.798672,77.047541 223.583562,68.405312 229.153268,62.5187682 C234.732905,56.6328864 242.058497,53.6933662 251.140635,53.6933662 C256.02473,53.6933662 260.359601,54.1144284 264.147381,54.960643 C267.938986,55.8035325 270.459268,56.668344 271.713377,57.5436014 L272.089456,86.9388032 C272.089456,88.6469455 267.580828,89.4234073 262.524006,89.5099178 C257.466889,89.5881305 251.679288,88.5335843 251.679288,88.5335843 L251.679288,78.6628463 L257.499331,78.6628463 L257.434669,74.263019 C257.434669,72.6330746 255.818775,71.8147552 252.596256,71.8147552 C249.369618,71.8147552 246.519772,73.1803127 244.047453,75.9052485 C241.569616,78.6334945 240.337282,82.6221025 240.337282,87.8769573 C240.337282,93.1429203 241.541368,97.024567 243.952629,99.5301366 C246.358888,102.032911 249.513582,103.288785 253.393021,103.288785 C255.022966,103.288785 256.710437,103.025884 258.465218,102.489225 C260.220809,101.95756 261.392821,101.459263 261.991112,100.99243 C262.584357,100.512341 263.148485,100.284456 263.68182,100.284456 C264.212661,100.284456 265.07261,100.906059 266.261542,102.161647 C267.452239,103.413843 268.518761,105.311411 269.459858,107.841625 C270.396762,110.385153 270.866096,112.334878 270.866096,113.717722 C270.866096,115.089754 270.835273,116.035338 270.774502,116.534539 C269.459041,117.973954 267.031155,119.115805 263.490033,119.964506 C259.955532,120.810706 255.992451,121.231195 251.608807,121.231195 L251.607763,121.231195 Z M309.240278,121.231195 C300.378095,121.231195 293.143133,118.381495 287.539073,112.686805 C281.936116,106.984832 279.135189,98.6111826 279.135189,87.5523956 C279.135189,76.4994937 281.905072,68.0919319 287.441969,62.3304458 C292.986664,56.5735207 300.159611,53.6948375 308.957059,53.6948375 C317.758185,53.6948375 324.94018,56.4623664 330.516287,61.9986749 C336.092614,67.5467535 338.878239,76.0014694 338.878239,87.3684871 C338.878239,98.7266771 336.15551,107.218837 330.701667,112.821426 C325.257607,118.434387 318.100991,121.23193 309.240278,121.23193 L309.240278,121.231195 Z M433.827264,121.231195 C424.962138,121.231195 417.731591,118.381495 412.122381,112.686805 C406.520233,106.984832 403.719233,98.6111826 403.719233,87.5523956 C403.719233,76.4994937 406.489999,68.0919319 412.034105,62.3304458 C417.573871,56.5735207 424.742184,53.6948375 433.542574,53.6948375 C442.340022,53.6948375 449.527902,56.4623664 455.101802,61.9986749 C460.677319,67.5467535 463.463754,76.0014694 463.463754,87.3684871 C463.463754,98.7266771 460.741172,107.218837 455.291595,112.821426 C449.840915,118.434387 442.689448,121.23193 433.827264,121.23193 L433.827264,121.231195 Z M351.399467,120.391174 C350.143077,120.391174 349.126872,119.93244 348.345555,119.029663 C347.55931,118.112768 347.169865,116.876535 347.169865,115.309855 L347.169865,58.9521935 C347.169865,56.06917 348.770163,54.6321088 351.961933,54.6321088 L368.02156,54.6321088 C387.68653,54.6321088 397.522693,66.152874 397.522693,89.2002895 C397.522693,99.9736504 394.937381,107.860383 389.766167,112.869316 C384.60415,117.879866 377.042641,120.391174 367.087305,120.391174 L351.399467,120.391174 Z M468.600687,120.390659 C467.534827,120.390659 466.783229,118.943593 466.34641,116.063071 C466.158374,114.686038 466.068392,113.273326 466.068392,111.838913 C466.068392,110.396187 466.158374,108.989287 466.34641,107.614755 C466.783237,104.726729 467.5349,103.2893 468.600687,103.2893 L479.871336,103.2893 L479.871336,56.1285357 C479.871336,54.8837693 482.976006,54.2524481 489.173429,54.2524481 C495.376296,54.2524481 498.473315,54.8837987 498.473315,56.1285357 L498.473315,103.2893 L509.464424,103.2893 C510.528592,103.2893 511.277394,104.726729 511.720908,107.614755 C511.904787,108.989287 512,110.396114 512,111.838913 C512,113.273326 511.904787,114.686038 511.720908,116.063071 C511.277431,118.943593 510.528592,120.390659 509.464424,120.390659 L468.600687,120.390659 Z M308.997519,103.194477 C312.006189,103.194477 314.527354,101.849149 316.559837,99.1599656 C318.595042,96.4674713 319.615882,92.6117189 319.615882,87.6031543 C319.615882,82.5901024 318.62741,78.7394994 316.65466,76.0492856 C314.68191,73.3492879 312.112709,72.0040339 308.9511,72.0040339 C305.787653,72.0040339 303.238166,73.3335453 301.296828,76.0019108 C299.352326,78.6619636 298.381951,82.4788745 298.381951,87.4652965 C298.381951,92.4409047 299.402644,96.307618 301.433656,99.0625676 C303.475482,101.814942 305.992748,103.195139 308.997445,103.195139 L308.997519,103.194477 Z M433.584505,103.194477 C436.593175,103.194477 439.11103,101.849149 441.146823,99.1599656 C443.182029,96.4674713 444.200735,92.6117189 444.200735,87.6031543 C444.200735,82.5901024 443.213146,78.7394994 441.239513,76.0492856 C439.269265,73.3492879 436.698444,72.0040339 433.535953,72.0040339 C430.372506,72.0040339 427.820518,73.3335453 425.881681,76.0019108 C423.942991,78.6619636 422.970041,82.4788745 422.970041,87.4652965 C422.970041,92.4409047 423.986172,96.307618 426.016375,99.0625676 C428.054891,101.814942 430.578925,103.195139 433.584579,103.195139 L433.584505,103.194477 Z M365.200698,102.54361 L366.140323,102.54361 C370.148278,102.54361 373.077352,101.627157 374.926736,99.8108767 C376.767219,97.9995249 377.692868,94.0998551 377.692868,88.1157662 C377.692868,82.134252 376.808047,77.8639698 375.018323,75.2988138 C373.232792,72.7311566 370.621438,71.4432085 367.173521,71.4432085 C366.236617,71.4432085 365.671356,71.6162296 365.484947,71.9615289 C365.296911,72.3084907 365.200469,73.1353802 365.200469,74.4475307 L365.200698,102.54361 Z" fill="#414042" transform="translate(366.399336, 87.462648) scale(-1, 1) rotate(-180.000000) translate(-366.399336, -87.462648) "></path>
        <path d="M174.145495,146.987629 C174.145495,146.987629 173.875083,148.646704 173.716995,148.631945 L143.611907,145.72712 C141.216461,145.495814 139.356043,143.585468 139.187951,141.185021 L138.360877,129.331013 L115.070702,127.669436 L113.486515,138.412636 C113.133726,140.80227 111.047005,142.603617 108.63155,142.603617 L76.8573079,142.603617 C74.4427362,142.603617 72.355963,140.80227 72.0031529,138.412636 L70.4180822,127.669436 L47.1279075,129.331013 L46.3008341,141.185021 C46.1327565,143.586277 44.2723232,145.496645 41.876878,145.728002 L11.7570766,148.631945 C11.6014826,148.646851 11.4874961,146.986084 11.3319022,146.986084 L11.291148,140.471161 L36.7999951,136.357569 L37.6353811,124.39763 C37.8042827,121.976364 39.7579061,120.018621 42.1807905,119.844718 L74.2566429,117.556601 C74.3781255,117.548289 74.4979382,117.543286 74.6177509,117.543286 C77.0282031,117.543286 79.1115923,119.345516 79.4644024,121.735076 L81.0943468,132.78945 L104.395556,132.78945 L106.0255,121.735076 C106.37745,119.346252 108.463392,117.544096 110.877154,117.544096 C110.995304,117.544096 111.113455,117.548509 111.229111,117.556601 L143.309377,119.844718 C145.731452,120.018614 147.685885,121.976438 147.854787,124.39763 L148.68929,136.357569 L174.187102,140.489479 L174.145495,146.987629 Z" fill="#FFFFFF" transform="translate(92.739125, 133.087616) scale(-1, 1) rotate(-180.000000) translate(-92.739125, -133.087616) "></path>
        <path d="M73.8804102,0 C65.4070091,1.88392759 57.0246428,4.50589294 49.165864,8.46143411 C49.3455886,15.4004864 49.7941691,22.049331 50.7035783,28.8030035 C47.6516532,30.7583189 44.4442519,32.4365025 41.593486,34.7252256 C38.6971475,36.9534244 35.7385744,39.0858989 33.1162229,41.6918642 C27.8768715,38.2264208 22.3321952,34.96964 16.6196288,32.0945982 C10.4618199,38.7219255 4.70346034,45.8750473 1.67263822e-14,53.8789299 C3.53865735,59.6036342 7.233122,64.9691652 11.2220977,70.0610404 L11.3330884,70.0610404 L11.3330884,119.186132 C11.4229479,119.186866 11.5134585,119.190971 11.6024849,119.199064 L41.718976,122.102079 C43.2965248,122.254344 44.5326659,123.524427 44.6424593,125.105342 L45.5713445,138.39972 L71.8417567,140.274705 L73.6510303,128.004328 C73.8856571,126.413483 75.250924,125.234942 76.8600868,125.234942 L108.633961,125.234942 C110.242297,125.234942 111.607321,126.413483 111.841914,128.004328 L113.651188,140.274705 L139.922704,138.39972 L140.850485,125.105342 C140.961145,123.524482 142.19642,122.255183 143.773969,122.102079 L173.878322,119.199064 C173.967348,119.19075 174.056783,119.187015 174.146637,119.186132 L174.146637,115.265846 L174.159569,115.261537 L174.159569,70.0608693 L174.27056,70.0608693 C178.260198,64.9687735 181.952235,59.6029115 185.492658,53.8787589 C180.790797,45.8743245 175.029734,38.7212028 168.871926,32.0944271 C163.161014,34.969138 157.613414,38.2257532 152.374228,41.6916931 C149.752483,39.0857278 146.799593,36.9533086 143.899172,34.7250546 C141.049399,32.4361108 137.837363,30.7579272 134.791286,28.8028325 C135.698213,22.04916 136.147373,15.4003154 136.327952,8.46126308 C128.468622,4.5057219 120.086807,1.88359104 111.608992,0 C108.224267,5.68884218 105.128976,11.8483062 102.433245,17.8709424 C99.2365469,17.3367672 96.0249525,17.1387474 92.809496,17.1004576 L92.809496,17.096147 C92.7870573,17.096147 92.7661193,17.1004576 92.7469965,17.1004576 C92.7270571,17.1004576 92.7055784,17.096147 92.6855729,17.096147 L92.6855729,17.1004576 C89.4638819,17.1387104 86.2546598,17.3367617 83.0574103,17.8709424 C80.3632792,11.848858 77.2703609,5.68884218 73.8805591,0 L73.8804102,0 Z M11.2816289,125.683252 C11.2941349,128.593715 11.3311982,131.782026 11.3311982,132.417062 C11.3311982,161.017412 47.6126705,174.764205 92.6886482,174.922551 L92.7996388,174.922551 C137.876168,174.764459 174.146054,161.017412 174.146054,132.417062 C174.146054,131.77055 174.185541,128.59537 174.19886,125.683252 L147.128997,128.294238 L146.195809,141.65979 C146.083483,143.270607 144.802316,144.552762 143.191498,144.668404 L111.111415,146.957182 C111.033203,146.963064 110.954963,146.9658 110.877583,146.9658 C109.283372,146.9658 107.908307,145.795094 107.67283,144.194262 L105.833377,131.719196 L79.6578617,131.719196 L77.8184087,144.194262 C77.5712908,145.873329 76.0705421,147.081166 74.3798343,146.957193 L42.2997521,144.668415 C40.6889341,144.552768 39.4077722,143.270618 39.2954409,141.659801 L38.3633006,128.294249 L11.2816289,125.683252 L11.2816289,125.683252 Z" fill="#478CBF" transform="translate(92.746329, 87.461275) rotate(-360.000000) translate(-92.746329, -87.461275) "></path>
        <path d="M50.0530387,71.8624243 C40.0337027,71.8624243 31.9062336,79.9816175 31.9062336,90.0026088 C31.9062336,100.030221 40.0331509,108.153276 50.0530387,108.153276 C60.0773403,108.153276 68.2026025,100.030221 68.2026025,90.0026088 C68.2026025,79.9816175 60.0773403,71.8624243 50.0530387,71.8624243 L50.0530387,71.8624243 Z M135.438085,71.8624243 C125.412129,71.8624243 117.287418,79.9816175 117.287418,90.0026088 C117.287418,100.030221 125.412129,108.153276 135.438085,108.153276 C145.45687,108.153276 153.582684,100.030221 153.582684,90.0026088 C153.582684,79.9816175 145.45687,71.8624243 135.438085,71.8624243 Z M92.7416999,82.4776239 C89.5150434,82.4776239 86.9000298,84.858099 86.9000298,87.7868789 L86.9000298,104.494784 C86.9000298,107.426047 89.5149882,109.804039 92.7416999,109.804039 C95.9684116,109.804039 98.5899908,107.426047 98.5899908,104.494784 L98.5899908,87.7868789 C98.5899908,84.858099 95.9685772,82.4776239 92.7416999,82.4776239 Z" fill="#FFFFFF" transform="translate(92.744459, 90.833232) rotate(-360.000000) translate(-92.744459, -90.833232) "></path>
        <path d="M51.789319,79.0348565 C45.1360606,79.0348565 39.7429433,84.4309531 39.7429433,91.0823357 C39.7429433,97.7337182 45.1362813,103.124298 51.789319,103.124298 C58.4458878,103.124298 63.8367982,97.7336079 63.8367982,91.0823357 C63.8367982,84.4310634 58.4456671,79.0348565 51.789319,79.0348565 Z M133.698495,79.0348565 C127.046891,79.0348565 121.657636,84.4309531 121.657636,91.0823357 C121.657636,97.7337182 127.047278,103.124298 133.698495,103.124298 C140.356719,103.124298 145.74487,97.7336079 145.74487,91.0823357 C145.74487,84.4310634 140.356498,79.0348565 133.698495,79.0348565 L133.698495,79.0348565 Z" fill="#414042" transform="translate(92.743907, 91.079577) rotate(-360.000000) translate(-92.743907, -91.079577) "></path>
    </g>
</svg>
