<?xml version="1.0" encoding="UTF-8"?>
<svg width="256px" height="228px" viewBox="0 0 256 228" version="1.1" xmlns="http://www.w3.org/2000/svg" preserveAspectRatio="xMidYMid">
    <title>Google Search Console</title>
    <defs>
        <radialGradient cx="21.6597926%" cy="28.7075835%" fx="21.6597926%" fy="28.7075835%" r="82.8696858%" gradientTransform="translate(0.216598,0.287076),scale(0.740246,1.000000),rotate(36.502479),translate(-0.216598,-0.287076)" id="gscRadialGradient-1">
            <stop stop-color="#F1F2F2" offset="0%"></stop>
            <stop stop-color="#E6E7E8" offset="100%"></stop>
        </radialGradient>
    </defs>
    <g>
        <polygon fill="#737373" points="165.979466 0 90.0205339 0 71.0965092 19.0554415 71.0965092 37.9794661 90.0205339 37.9794661 90.0205339 19.0554415 165.979466 19.0554415 165.979466 37.9794661 184.903491 37.9794661 184.903491 19.0554415"></polygon>
        <polygon fill="#BFBFBF" points="90.020534 8.8817842e-15 90.020534 19.0554415 165.979466 19.0554415 165.979466 8.8817842e-15"></polygon>
        <path d="M36.4024641,37.979466 L0,74.3819301 L0,208.558521 C0,219.071868 8.54209446,227.482546 18.9240246,227.482546 L237.075975,227.482546 C247.589322,227.482546 256,218.940452 256,208.558521 L256,74.5133469 L219.466119,37.979466 L36.4024641,37.979466 Z" fill="url(#gscRadialGradient-1)"></path>
        <polygon fill="#FFFFFF" points="28.5174538 109.075975 227.613963 109.075975 227.613963 227.613963 28.5174538 227.613963"></polygon>
        <polygon fill="#E0E0E0" points="36.4024641 37.979466 0 74.3819301 0 109.075975 256 109.075975 256 74.5133469 219.466119 37.979466"></polygon>
        <polygon fill="#D1D1D1" points="42.710472 213.289528 128 213.289528 128 227.482546 42.710472 227.482546"></polygon>
        <path d="M28.5174538,86.9979466 C28.5174538,78.8501027 35.0882957,72.2792608 43.2361396,72.2792608 L212.76386,72.2792608 C220.911704,72.2792608 227.482546,78.8501027 227.482546,86.9979466 L227.482546,109.075975 L28.5174538,109.075975 L28.5174538,86.9979466 Z" fill="#4285F4"></path>
        <path d="M56.9034908,90.1519507 C56.9034908,94.0944559 53.7494867,97.24846 49.8069815,97.24846 C45.8644764,97.24846 42.7104723,94.0944559 42.7104723,90.1519507 C42.7104723,86.2094456 45.8644764,83.0554415 49.8069815,83.0554415 C53.7494867,83.0554415 56.9034908,86.2094456 56.9034908,90.1519507 M80.5585216,90.1519507 C80.5585216,94.0944559 77.4045175,97.24846 73.4620123,97.24846 C69.5195072,97.24846 66.3655031,94.0944559 66.3655031,90.1519507 C66.3655031,86.2094456 69.5195072,83.0554415 73.4620123,83.0554415 C77.4045175,83.0554415 80.5585216,86.2094456 80.5585216,90.1519507" fill="#E6E6E6"></path>
        <path d="M227.482546,165.190965 L197.650924,135.359343 L187.663244,166.2423 L146.924025,125.634497 L145.741273,188.320329 L160.854209,211.975359 C163.088296,211.581109 149.552361,227.482546 149.552361,227.482546 L227.482546,227.482546 L227.482546,165.190965 Z" fill="#BABABA"></path>
        <path d="M208.821355,164.008214 C208.821355,147.186858 198.965092,132.731006 184.903491,125.765914 L184.903491,165.716632 L166.110883,175.835729 L147.055441,165.716632 L147.055441,125.634497 C132.99384,132.599589 123.400411,147.186858 123.400411,163.876797 C123.400411,180.698152 133.125257,195.154004 147.186858,202.119097 L147.186858,227.482546 L185.034908,227.482546 L185.034908,202.119097 C198.965092,195.285421 208.821355,180.698152 208.821355,164.008214" fill="#4D4D4D"></path>
        <polygon fill="#D1D1D1" points="42.710472 123.268994 109.075975 123.268994 109.075975 199.096509 42.710472 199.096509"></polygon>
    </g>
</svg>
