<?xml version="1.0" encoding="UTF-8"?>
<svg width="256px" height="218px" viewBox="0 0 256 218" version="1.1" xmlns="http://www.w3.org/2000/svg" xmlns:xlink="http://www.w3.org/1999/xlink" preserveAspectRatio="xMidYMid">
    <g>
				<path d="M232.503966,42.1689673 C207.253909,27.593266 174.966113,36.2544206 160.374443,61.5045895 L123.592187,125.222113 C112.948983,143.621675 126.650534,150.051007 141.928772,159.211427 L177.322148,179.639204 C189.30756,186.552676 204.616725,182.448452 211.530197,170.478784 L249.342585,104.997327 C262.045492,82.993425 254.507868,54.8722676 232.503966,42.1689673 Z" fill="#EA4335"></path>
				<path d="M190.884248,68.541767 L155.490872,48.1141593 C135.952653,37.2682465 124.888287,36.5503588 116.866523,49.3002175 L64.6660169,139.704135 C50.0900907,164.938447 58.7669334,197.211061 84.0012455,211.755499 C106.005147,224.458406 134.126867,216.920782 146.829774,194.91688 L200.029486,102.764998 C206.973884,90.7801476 202.869661,75.4552386 190.884248,68.541767 Z" fill="#FBBC04"></path>
				<path d="M197.696506,22.068674 L172.836685,7.71148235 C145.33968,-8.15950938 110.180221,1.25070674 94.3093189,28.7478917 L46.9771448,110.724347 C39.9857947,122.818845 44.1369141,138.299511 56.2315252,145.275398 L84.0720952,161.34929 C97.8203166,169.292894 115.392174,164.5797 123.335778,150.830917 L177.409304,57.1816314 C188.614245,37.7835939 213.411651,31.1355838 232.809294,42.3404686 L197.696506,22.068674 Z" fill="#34A853"></path>
				<path d="M101.033296,52.202526 L74.1604429,36.7216914 C62.1750303,29.8240204 46.8660906,33.9126683 39.9527877,45.8666484 L7.71149357,101.579108 C-8.15952065,128.997954 1.25071234,164.079816 28.7479029,179.904047 L49.2069432,191.685907 L74.0198681,205.980684 L84.7879024,212.176099 C65.670846,199.37985 59.6002612,173.739558 71.2887797,153.545698 L79.6378018,139.126091 L110.20946,86.3008703 C117.107187,74.3784352 113.002964,59.1001971 101.033296,52.202526 Z" fill="#4285F4"></path>
    </g>
</svg>
