<?xml version="1.0" encoding="UTF-8"?>
<svg width="256px" height="258px" viewBox="0 0 256 258" version="1.1" xmlns="http://www.w3.org/2000/svg" xmlns:xlink="http://www.w3.org/1999/xlink" preserveAspectRatio="xMidYMid">
    <title>Bard</title>
    <defs>
        <radialGradient cx="78.3021802%" cy="55.5203129%" fx="78.3021802%" fy="55.5203129%" r="78.1147983%" gradientTransform="translate(0.783022,0.555203),scale(0.999475,1.000000),rotate(78.858000),translate(-0.783022,-0.555203)" id="radialGradient-1">
            <stop stop-color="#1BA1E3" offset="0%"></stop>
            <stop stop-color="#1BA1E3" offset="0.01%"></stop>
            <stop stop-color="#5489D6" offset="30.0221%"></stop>
            <stop stop-color="#9B72CB" offset="54.5524%"></stop>
            <stop stop-color="#D96570" offset="82.5372%"></stop>
            <stop stop-color="#F49C46" offset="100%"></stop>
        </radialGradient>
        <radialGradient cx="-3.4086494%" cy="-54.2187761%" fx="-3.4086494%" fy="-54.2187761%" r="169.363094%" gradientTransform="translate(-0.034086,-0.542188),scale(0.999462,1.000000),rotate(78.858000),translate(0.034086,0.542188)" id="radialGradient-2">
            <stop stop-color="#1BA1E3" offset="0%"></stop>
            <stop stop-color="#1BA1E3" offset="0.01%"></stop>
            <stop stop-color="#5489D6" offset="30.0221%"></stop>
            <stop stop-color="#9B72CB" offset="54.5524%"></stop>
            <stop stop-color="#D96570" offset="82.5372%"></stop>
            <stop stop-color="#F49C46" offset="100%"></stop>
        </radialGradient>
    </defs>
    <g>
        <path d="M122.062138,172.769563 L111.792605,196.29076 C107.844875,205.33202 95.3333209,205.33202 91.3858292,196.29076 L81.116058,172.769563 C71.9768317,151.837202 55.526844,135.175312 35.0075623,126.067072 L6.74034181,113.519526 C-2.24678895,109.530321 -2.24677226,96.4562364 6.74034181,92.4670316 L34.1246742,80.3113505 C55.1716865,70.9688024 71.9167648,53.6893195 80.8998648,32.0430683 L91.3026413,6.97665083 C95.162893,-2.32553558 108.015303,-2.32555703 111.875793,6.976627 L122.278569,32.0433067 C131.261669,53.6893195 148.006509,70.9688024 169.053521,80.3113505 L196.438068,92.4670316 C205.42522,96.4562364 205.42522,109.530321 196.438068,113.519526 L168.170633,126.067072 C147.65159,135.175312 131.201602,151.837202 122.062138,172.769563 Z" fill="url(#radialGradient-1)"></path>
        <path d="M217.500574,246.936928 L214.612119,253.556205 C212.498336,258.402078 205.788482,258.402078 203.674699,253.556205 L200.786483,246.936928 C195.63813,235.134498 186.365183,225.737603 174.794201,220.596878 L165.895957,216.643427 C161.084646,214.505808 161.084646,207.51159 165.895957,205.373971 L174.296742,201.641481 C186.165198,196.368465 195.604282,186.623803 200.664204,174.420449 L203.630126,167.267483 C205.69719,162.282168 212.589628,162.282168 214.656692,167.267483 L217.622615,174.420449 C222.682536,186.623803 232.121858,196.368465 243.990792,201.641481 L252.390623,205.373971 C257.203126,207.51159 257.203126,214.505808 252.390623,216.643427 L243.492618,220.596878 C231.921874,225.737603 222.648689,235.134498 217.500574,246.936928 Z" fill="url(#radialGradient-2)"></path>
    </g>
</svg>
