<?xml version="1.0" encoding="UTF-8"?>
<svg width="512px" height="67px" viewBox="0 0 512 67" version="1.1" xmlns="http://www.w3.org/2000/svg" xmlns:xlink="http://www.w3.org/1999/xlink" preserveAspectRatio="xMidYMid">
    <title>Google Play Console</title>
    <g>
        <path d="M104.441765,37.348797 L104.441765,32.0849999 L122.007075,32.0849999 C122.187158,33.0123224 122.290653,34.1155878 122.290653,35.3119994 C122.290653,39.2593297 121.214297,44.1464021 117.747187,47.6259313 C114.375294,51.1509987 110.067798,53.0284132 104.350689,53.0284132 C93.7672072,53.0304827 84.8665672,44.3844424 84.8665672,33.7616321 C84.8665672,23.1388218 93.7672072,14.4907116 104.350689,14.4907116 C110.206482,14.4907116 114.375294,16.7945284 117.513287,19.8021168 L113.812276,23.5155466 C111.562277,21.4000921 108.5195,19.7545087 104.350689,19.7545087 C96.6216217,19.7545087 90.5774662,26.0056558 90.5774662,33.7595622 C90.5774662,41.5155385 96.6216217,47.7666856 104.350689,47.7666856 C109.361956,47.7666856 112.218441,45.7443774 114.046177,43.9125015 C115.534447,42.4200919 116.513517,40.2777286 116.894382,37.348797 L104.441765,37.348797 L104.441765,37.348797 Z M149.056741,40.6234046 C149.056741,47.7646157 143.482456,53.0304827 136.643453,53.0304827 C129.80445,53.0304827 124.232235,47.7666856 124.232235,40.6234046 C124.232235,33.4325154 129.806519,28.2142565 136.643453,28.2142565 C143.482456,28.2142565 149.056741,33.4304455 149.056741,40.6234046 Z M143.623211,40.6234046 C143.623211,36.1565253 140.392071,33.1033987 136.643453,33.1033987 C132.896904,33.1033987 129.663695,36.1565253 129.663695,40.6234046 C129.663695,45.0406059 132.896904,48.1413405 136.643453,48.1413405 C140.390001,48.1413405 143.623211,45.0406059 143.623211,40.6213347 L143.623211,40.6234046 Z M176.135385,40.6234046 C176.135385,47.7646157 170.561101,53.0304827 163.722098,53.0304827 C156.883094,53.0304827 151.31088,47.7666856 151.31088,40.6234046 C151.31088,33.4325154 156.885164,28.2142565 163.724167,28.2142565 C170.563171,28.2142565 176.137455,33.4304455 176.137455,40.6234046 L176.135385,40.6234046 Z M170.701855,40.6234046 C170.701855,36.1565253 167.468646,33.1033987 163.722098,33.1033987 C159.975549,33.1033987 156.74234,36.1565253 156.74234,40.6234046 C156.74234,45.0406059 159.973479,48.1413405 163.722098,48.1413405 C167.468646,48.1413405 170.701855,45.0406059 170.701855,40.6213347 L170.701855,40.6234046 Z M202.090066,28.9656361 L202.090066,51.244145 C202.090066,60.4097342 196.702074,64.1687022 190.332941,64.1687022 C184.336394,64.1687022 180.72853,60.1261557 179.372735,56.8370587 L184.102493,54.8623586 C184.947019,56.8846668 187.006586,59.2816299 190.332941,59.2816299 C194.408606,59.2816299 196.935974,56.7439125 196.935974,51.9955246 L196.935974,50.2112567 L196.749682,50.2112567 C195.532571,51.714016 193.189426,53.0304827 190.237725,53.0304827 C184.054885,53.0304827 178.387454,47.6259313 178.387454,40.6710126 C178.387454,33.666416 184.054885,28.2163264 190.237725,28.2163264 C193.189426,28.2163264 195.532571,29.5307233 196.749682,30.9900142 L196.935974,30.9900142 L196.935974,28.967706 L202.090066,28.967706 L202.090066,28.9656361 Z M197.312699,40.6689427 C197.312699,36.2972796 194.408606,33.1013288 190.707596,33.1013288 C186.961048,33.1013288 183.820985,36.2972796 183.820985,40.6689427 C183.820985,44.9929978 186.961048,48.1413405 190.707596,48.1413405 C194.408606,48.1413405 197.310629,44.9929978 197.310629,40.6689427 L197.312699,40.6689427 Z M211.292913,15.9293034 L211.292913,52.2770332 L205.859383,52.2770332 L205.859383,15.9293034 L211.292913,15.9293034 Z M232.275655,44.7114892 L236.490004,47.5307152 C235.132139,49.5509535 231.853392,53.0304827 226.185961,53.0304827 C219.158595,53.0304827 213.911357,47.5783232 213.911357,40.6213347 C213.911357,33.2420831 219.206203,28.2142565 225.577406,28.2142565 C231.994146,28.2142565 235.132139,33.3372993 236.162957,36.1109871 L236.723905,37.5185302 L220.189414,44.3823725 C221.454132,46.8745517 223.422623,48.1434104 226.185961,48.1434104 C228.949299,48.1434104 230.870181,46.7772656 232.275655,44.7114892 L232.275655,44.7114892 Z M219.29935,40.2466798 L230.352702,35.6390462 C229.746217,34.0886789 227.918481,33.0081826 225.763698,33.0081826 C223.00036,33.0081826 219.160665,35.4506838 219.29935,40.2466798 Z" fill="#5F6368"></path>
        <path d="M328.427405,29.141579 L322.225936,44.9081313 L322.039644,44.9081313 L315.604274,29.141579 L309.77332,29.141579 L319.425339,51.1737678 L313.921432,63.431812 L319.568164,63.431812 L334.440512,29.141579 L328.427405,29.141579 Z M284.828759,16.0452187 L279.420068,16.0452187 L279.420068,52.405368 L284.828759,52.405368 L284.828759,16.0431488 L284.828759,16.0452187 Z M264.543579,16.0452187 L251.583834,16.0452187 L251.583834,52.405368 L257.002874,52.405368 L257.002874,38.6445646 L264.558069,38.6445646 C270.550476,38.6445646 276.447668,34.2915307 276.447668,27.3531713 C276.447668,20.414812 270.540127,16.0452187 264.543579,16.0452187 L264.543579,16.0452187 Z M264.688474,33.5649901 L257.002874,33.5649901 L257.002874,21.1247933 L264.698823,21.1247933 C266.346476,21.1247933 267.925823,21.7830266 269.091185,22.9504594 C271.520302,25.38625 271.520302,29.3283723 269.091185,31.7641629 C267.927802,32.9321618 266.347363,33.5890644 264.698823,33.5898291 L264.688474,33.5649901 L264.688474,33.5649901 Z M298.119691,28.3446612 C294.20134,28.3446612 290.142234,30.0751112 288.465602,33.912736 L293.269877,35.9267645 C294.298626,33.9148059 296.209159,33.2731319 298.212838,33.2731319 C301.007224,33.2731319 303.853359,34.9601136 303.903037,37.9552825 L303.903037,38.3257975 C302.174908,37.3981073 300.2446,36.9110868 298.283215,36.9079049 C293.108424,36.9079049 287.836347,39.7602495 287.836347,45.0944237 C287.836347,49.958727 292.069326,53.0905103 296.832203,53.0905103 C300.475256,53.0905103 302.478935,51.4552764 303.712605,49.538534 L303.903037,49.538534 L303.903037,52.3412006 L309.127506,52.3412006 L309.127506,38.4065242 C309.127506,31.9483855 304.32116,28.3467312 298.119691,28.3467312 L298.119691,28.3446612 Z M297.467668,48.2738151 C295.695819,48.2738151 293.232619,47.3837511 293.232619,45.1855 C293.232619,42.3807635 296.308515,41.304407 298.970427,41.304407 C300.697261,41.2585196 302.40462,41.6782095 303.913387,42.5194479 C303.713895,44.0967419 302.950788,45.5487035 301.764814,46.6075325 C300.581137,47.6644534 299.054448,48.2564501 297.467668,48.2738151 L297.467668,48.2738151 Z" fill="#5F6368"></path>
        <path d="M362.403011,52.8069318 C357.302737,52.8069318 353.03664,51.0909712 349.602649,47.65905 C346.201776,44.2250589 344.502375,39.9424021 344.502375,34.8110797 C344.502375,29.6797572 346.201776,25.4115899 349.602649,22.0107174 C353.003521,18.5456776 357.269619,16.8152276 362.403011,16.8152276 C367.598501,16.8152276 371.81906,18.6905717 375.058479,22.4453999 L371.883228,25.5233654 C369.411748,22.540616 366.253055,21.0482064 362.403011,21.0482064 C358.586085,21.0482064 355.394275,22.3315545 352.827578,24.8982506 C350.291931,27.4318282 349.025142,30.7354145 349.025142,34.8110797 C349.025142,38.8867448 350.294001,42.1882613 352.827578,44.7239087 C355.394275,47.2906049 358.586085,48.573953 362.403011,48.573953 C366.412439,48.573953 369.894038,46.8890411 372.845739,43.5192174 L376.068598,46.6489308 C374.433323,48.6050842 372.377974,50.1672911 370.055492,51.219306 C367.796741,52.2187105 365.36287,52.7568292 362.896645,52.8040431 L362.403011,52.8069318 Z M390.311692,27.6884978 C393.805711,27.6884978 396.697384,28.8745598 398.974292,31.2487538 C401.284318,33.6229477 402.439332,36.6222564 402.439332,40.2487497 C402.439332,43.9042219 401.284318,46.9056005 398.974292,49.2466758 C396.697384,51.6208697 393.809851,52.8069318 390.311692,52.8069318 C386.813534,52.8069318 383.913581,51.6208697 381.603554,49.2466758 C379.326647,46.8724818 378.18819,43.8731731 378.18819,40.2487497 C378.186123,36.6222564 379.324577,33.6250176 381.601485,31.2487538 C383.913581,28.8745598 386.817674,27.6884978 390.311692,27.6884978 Z M390.311692,31.7310443 C388.161049,31.7310443 386.335383,32.5321019 384.826414,34.136287 C383.350564,35.7094233 382.611604,37.7462209 382.611604,40.2487497 C382.613674,42.7823272 383.350564,44.8356842 384.828484,46.4067506 C386.302264,47.979887 388.13207,48.7664552 390.313762,48.7664552 C392.493384,48.7664552 394.32319,47.979887 395.79904,46.4067506 C397.274891,44.8336143 398.011781,42.7823272 398.011781,40.2487497 C398.011781,37.744151 397.274891,35.7094233 395.79697,34.136287 C394.290071,32.5321019 392.462335,31.7310443 390.311692,31.7310443 Z M405.989238,28.4585066 L410.224287,28.4585066 L410.224287,31.7289743 L410.416789,31.7289743 C411.091582,30.576031 412.11826,29.6135199 413.496824,28.8435111 C414.834365,28.0930136 416.341005,27.6955173 417.874697,27.6884978 C420.76223,27.6884978 422.977041,28.522674 424.517059,30.1910265 C426.090195,31.8262604 426.874693,34.1694056 426.874693,37.2163224 L426.874693,52.0369229 L422.447142,52.0369229 L422.447142,37.5061107 C422.349856,33.6560664 420.410345,31.7310443 416.624468,31.7310443 C414.860899,31.7310443 413.385049,32.453445 412.196917,33.8961767 C411.010855,35.3078596 410.416789,37.0072608 410.416789,38.9964504 L410.416789,52.0369229 L405.989238,52.0369229 L405.989238,28.4585066 Z M449.881813,45.4939176 C449.881813,47.5452046 448.983469,49.2777245 447.186782,50.6894074 C445.390094,52.1010903 443.129746,52.8069318 440.401596,52.8069318 C438.027402,52.8069318 435.942996,52.1983764 434.146309,50.9791957 C432.388782,49.7781423 431.044355,48.06436 430.296265,46.0714242 L434.241525,44.3865124 C434.821102,45.7981953 435.653208,46.9035305 436.746124,47.7066581 C437.816114,48.4598934 439.093071,48.8633715 440.401596,48.8616713 C441.813279,48.8616713 442.984852,48.5573936 443.914244,47.9467683 C444.876755,47.338213 445.359046,46.6158122 445.359046,45.7816359 C445.359046,44.2747369 444.204032,43.1673317 441.894006,42.4614902 L437.851459,41.4513711 C433.264525,40.2963578 430.971058,38.0836173 430.971058,34.8110797 C430.971058,32.6604367 431.836283,30.9444761 433.568802,29.661128 C435.332371,28.3467312 437.57823,27.6884978 440.30638,27.6884978 C442.390786,27.6884978 444.2682,28.1852777 445.936552,29.1788375 C447.635953,30.1744672 448.824085,31.5054234 449.496808,33.1737759 L445.551548,34.8090098 C445.132266,33.886973 444.434321,33.1223588 443.559161,32.6208797 L443.336737,32.5010531 C442.312202,31.9152731 441.14902,31.6157196 439.968984,31.6337582 C438.81397,31.6337582 437.770733,31.9235465 436.84134,32.5010531 C435.942996,33.0785598 435.493825,33.7844012 435.493825,34.6185775 C435.493825,35.964023 436.760613,36.928604 439.296265,37.5061107 L442.856517,38.4189437 C447.427188,39.5464567 449.768908,41.8200051 449.877828,45.2415145 L449.881813,45.4939176 Z M464.747951,27.6884978 C468.24197,27.6884978 471.133643,28.8745598 473.410551,31.2487538 C475.720577,33.6229477 476.875591,36.6222564 476.875591,40.2487497 C476.875591,43.9042219 475.720577,46.9056005 473.410551,49.2466758 C471.133643,51.6208697 468.24611,52.8069318 464.747951,52.8069318 C461.249793,52.8069318 458.34777,51.6208697 456.039814,49.2466758 C453.762906,46.8724818 452.622382,43.8731731 452.622382,40.2487497 C452.622382,36.6222564 453.760836,33.6250176 456.037744,31.2487538 C458.34777,28.8745598 461.253933,27.6884978 464.747951,27.6884978 Z M464.747951,31.7310443 C462.597308,31.7310443 460.771642,32.5321019 459.262673,34.136287 C457.786823,35.7094233 457.047863,37.7462209 457.047863,40.2487497 C457.049933,42.7823272 457.786823,44.8356842 459.264743,46.4067506 C460.738523,47.979887 462.56626,48.7664552 464.750021,48.7664552 C466.933783,48.7664552 468.759449,47.979887 470.235299,46.4067506 C471.70908,44.8336143 472.44804,42.7823272 472.44804,40.2487497 C472.44804,37.744151 471.70908,35.7094233 470.233229,34.136287 C468.72633,32.5321019 466.898594,31.7310443 464.747951,31.7310443 Z M485.089019,17.5831665 L485.089019,52.0389928 L480.661468,52.0389928 L480.661468,17.5831665 L485.089019,17.5831665 Z M500.545083,27.6884978 C504.043242,27.6884978 506.81693,28.8269517 508.870287,31.1038596 C510.954692,33.3497188 512,36.5104809 512,40.5840762 L511.948252,41.0663667 L493.422501,41.0663667 C493.488739,43.3763932 494.258748,45.2372479 495.732528,46.6489308 C497.143406,48.0340218 499.050494,48.7959623 501.027374,48.7643853 C503.85074,48.7643853 506.06555,47.3547723 507.669735,44.5314065 L511.612926,46.4564286 C510.602484,48.394977 509.06946,50.0118936 507.187445,51.1240898 C505.440953,52.175866 503.472511,52.7346221 501.275297,52.8003582 L500.833734,52.8064978 L500.452372,52.8020507 C497.159081,52.7174455 494.430244,51.5329366 492.269558,49.2466758 C490.023699,46.8724818 488.899734,43.8731731 488.899734,40.2487497 C488.899734,36.6553751 489.99058,33.6705558 492.172272,31.2984318 C494.353964,28.8911191 497.144211,27.6884978 500.545083,27.6884978 Z M500.449867,31.7310443 C498.781515,31.7310443 497.336713,32.2443835 496.117532,33.271062 C494.93147,34.2977404 494.144902,35.6763047 493.759898,37.4088246 L507.280591,37.4088246 C507.186215,35.8427652 506.457396,34.3828842 505.262423,33.3662781 C504.074291,32.2754322 502.468036,31.7310443 500.449867,31.7310443 Z" fill="#2F80ED"></path>
        <g>
            <path d="M0,58.8966254 L0,7.34536064 C0,1.69862905 6.18283991,-1.8305782 11.1320097,0.994857512 L56.318282,26.7694549 C61.2653819,29.5928207 61.2653819,36.6470954 56.318282,39.4683913 L11.1320097,65.2450586 C6.18490983,68.0684244 0,64.5412871 0,58.8966254 Z" fill="#2F80ED"></path>
            <path d="M45.24216,20.4520705 L21.5002203,34.1238675 L16.9671037,26.0925923 C16.4588467,25.1899461 15.6106615,24.5280933 14.611539,24.2545067 C13.6111676,23.9737338 12.5403353,24.1002394 11.6329295,24.6063924 L0,31.0645312 L0,38.9840309 L12.3698197,32.1139788 L16.9236355,40.1866522 C17.4328349,41.0870658 18.3021997,41.7597886 19.308179,42.0330176 C20.3218525,42.3055374 21.4021507,42.1664081 22.3136974,41.6459432 L52.2115681,24.4263097 L45.24216,20.4520705 Z" fill="#CCF6FF"></path>
        </g>
    </g>
</svg>
