<?xml version="1.0" encoding="UTF-8" standalone="no"?>
<svg width="256px" height="256px" viewBox="0 0 256 256" version="1.1" xmlns="http://www.w3.org/2000/svg" xmlns:xlink="http://www.w3.org/1999/xlink" preserveAspectRatio="xMidYMid">
    <defs>
        <path id="path-1" d="M253.333333,128 L194.666667,128 L194.666667,61.3333333 L132.56,0.8 C132.08,0.293333333 131.413333,0 130.666667,0 C129.2,0 128,1.2 128,2.66666667 L128,61.3333333 L61.3333333,61.3333333 L0.8,123.44 C0.293333333,123.92 0,124.586667 0,125.333333 C0,126.8 1.2,128 2.66666667,128 L61.3333333,128 L61.3333333,194.666667 L123.44,255.2 C123.92,255.706667 124.586667,256 125.333333,256 C126.8,256 128,254.8 128,253.333333 L128,194.666667 L194.666667,194.666667 L255.2,132.56 C255.706667,132.08 256,131.413333 256,130.666667 C256,129.2 254.8,128 253.333333,128 L253.333333,128 Z"></path>
        <linearGradient x1="56.8668445%" y1="47.5389037%" x2="46.9040177%" y2="57.7763393%" id="linearGradient-3">
            <stop stop-color="#E88C22" offset="0%"></stop>
            <stop stop-color="#FCBB29" stop-opacity="0" offset="100%"></stop>
        </linearGradient>
        <linearGradient x1="50%" y1="40.5467566%" x2="58.2925937%" y2="48.5866614%" id="linearGradient-4">
            <stop stop-color="#5E8235" offset="0%"></stop>
            <stop stop-color="#8CC251" stop-opacity="0" offset="100%"></stop>
        </linearGradient>
    </defs>
	<g>
		<mask id="mask-2" fill="white">
			<use xlink:href="#path-1"></use>
		</mask>
		<use fill="#000000" xlink:href="#path-1"></use>
		<g mask="url(#mask-2)">
			<g transform="translate(0.000000, 60.333333)">
				<path d="M0.8,63.1066667 C0.293333333,63.5866667 0,64.2533333 0,65 C0,66.4666667 1.2,67.6666667 2.66666667,67.6666667 L128,67.6666667 L128,1 L61.3333333,1 L0.8,63.1066667 L0.8,63.1066667 Z" fill="#FCBB29"></path>
				<path d="M128,67.6666667 L128,1 L61.3333333,1 L128,67.6666667 L128,67.6666667 Z" fill="#FC9723"></path>
				<path d="M61.3333333,1 L0.8,63.1066667 C0.293333333,63.5866667 0,64.2533333 0,65 C0,65.24 0.08,65.4533333 0.133333333,65.6666667 C0.266666667,65.2133333 0.453333333,64.76 0.773333333,64.44 L61.3333333,2.33333333 L128,2.33333333 L128,1 L61.3333333,1 L61.3333333,1 Z" fill-opacity="0.2" fill="#FFFFFF"></path>
				<path d="M128,67.6666667 L128,66.3333333 L62.6666667,1 L61.3333333,1 L128,67.6666667 L128,67.6666667 Z" fill-opacity="0.1" fill="#3E2723"></path>
				<path d="M119.966797,59.6425785 L110.351888,63.7486983 L56.1292318,6.42382846 L61.4140625,0.888997729 L119.966797,59.6425785 Z" opacity="0.799999952" fill="url(#linearGradient-3)"></path>
			</g>
		</g>
		<g mask="url(#mask-2)">
			<g transform="translate(61.333333, 128.000000)">
				<path d="M62.1066667,127.2 C62.5866667,127.706667 63.2533333,128 64,128 C65.4666667,128 66.6666667,126.8 66.6666667,125.333333 L66.6666667,0 L0,0 L0,66.6666667 L62.1066667,127.2 L62.1066667,127.2 Z" fill="#8CC251"></path>
				<path d="M0,0 L0,66.6666667 L66.6666667,0 L0,0 L0,0 Z" fill="#1D9A59"></path>
				<path d="M64,126.666667 C63.2533333,126.666667 62.5866667,126.373333 62.1066667,125.866667 L0.666666667,66 L0,66.6666667 L62.1066667,127.2 C62.5866667,127.706667 63.2533333,128 64,128 C65.4666667,128 66.6666667,126.8 66.6666667,125.333333 L66.6666667,124 C66.6666667,125.466667 65.4666667,126.666667 64,126.666667 L64,126.666667 L64,126.666667 Z" fill-opacity="0.1" fill="#3E2723"></path>
				<path d="M59.0677087,8.97379557 L61.2970368,14.1644695 L5.96897413,72.4875488 L0.70589228,67.3541654 L59.0677087,8.97379557 Z" opacity="0.699999988" fill="url(#linearGradient-4)"></path>
				<path d="M66.6666667,1.33333333 L65.3333333,1.33333333 L0,66.6666667 L0,68 L66.6666667,1.33333333 L66.6666667,1.33333333 Z" opacity="0.200000018" fill="#000000"></path>
			</g>
		</g>
		<g mask="url(#mask-2)">
			<g transform="translate(128.000000, 128.000000)">
				<path d="M127.2,4.56 C127.706667,4.08 128,3.41333333 128,2.66666667 C128,1.2 126.8,0 125.333333,0 L0,0 L0,66.6666667 L66.6666667,66.6666667 L127.2,4.56 L127.2,4.56 Z" fill="#4B87F1"></path>
				<path d="M0,0 L0,66.6666667 L66.6666667,66.6666667 L0,0 L0,0 Z" fill="#3367D6"></path>
				<path d="M66.6666667,66.6666667 L127.2,4.56 C127.706667,4.08 128,3.41333333 128,2.66666667 C128,2.42666667 127.92,2.21333333 127.866667,2 C127.733333,2.45333333 127.546667,2.90666667 127.226667,3.22666667 L66.6666667,65.3333333 L0,65.3333333 L0,66.6666667 L66.6666667,66.6666667 L66.6666667,66.6666667 Z" fill-opacity="0.2" fill="#263238"></path>
				<path d="M0,0 L0,1.33333333 L65.3333333,66.6666667 L66.6666667,66.6666667 L0,0 L0,0 Z" fill-opacity="0.1" fill="#263238"></path>
				<path d="M127.866667,3.33333333 C127.92,3.12 128,2.90666667 128,2.66666667 C128,1.2 126.8,0 125.333333,0 L0,0 L0,1.33333333 L125.333333,1.33333333 C126.56,1.33333333 127.573333,2.18666667 127.866667,3.33333333 L127.866667,3.33333333 L127.866667,3.33333333 Z" fill-opacity="0.2" fill="#FFFFFF"></path>
			</g>
		</g>
		<g mask="url(#mask-2)">
			<g transform="translate(128.000000, 0.000000)">
				<path d="M4.56,0.8 C4.08,0.293333333 3.41333333,0 2.66666667,0 C1.2,0 0,1.2 0,2.66666667 L0,128 L66.6666667,128 L66.6666667,61.3333333 L4.56,0.8 L4.56,0.8 Z" fill="#D8443C"></path>
				<path d="M4.56,0.8 C4.08,0.293333333 3.41333333,0 2.66666667,0 C1.2,0 0,1.2 0,2.66666667 L0,4 C0,2.53333333 1.2,1.33333333 2.66666667,1.33333333 C3.41333333,1.33333333 4.08,1.62666667 4.56,2.13333333 L65.3066667,61.36 L66.6666667,61.3333333 L4.56,0.8 L4.56,0.8 Z" fill-opacity="0.2" fill="#FFFFFF"></path>
				<path d="M66.6666667,128 L66.6666667,61.3333333 L47.4503205,80.5496795 L0,128 L66.6666667,128 L66.6666667,128 Z" fill="#AB1657"></path>
				<path d="M0,126.666667 L1.33333333,126.666667 L66.6666667,61.3333333 L65.3066667,61.36 L0,126.666667 L0,126.666667 Z" opacity="0.2" fill="#FFFFFF"></path>
				<rect fill-opacity="0.1" fill="#3E2723" x="0" y="126.666667" width="66.6666667" height="1.33333333"></rect>
			</g>
		</g>
		<path d="M120,120 L128,101.333333 L136,120 L154.666667,128 L136,136 L128,154.666667 L120,136 L101.333333,128 L120,120 L120,120 Z" fill="#F1F1F1" mask="url(#mask-2)"></path>
	</g>
</svg>