<?xml version="1.0" encoding="UTF-8"?>
<svg width="256px" height="256px" viewBox="0 0 256 256" version="1.1" xmlns="http://www.w3.org/2000/svg" xmlns:xlink="http://www.w3.org/1999/xlink" preserveAspectRatio="xMidYMid">
    <g>
        <path d="M64,58.1485714 C99.328,58.1485714 128,86.8205714 128,122.148571 L128,122.148571 L128,128 L5.85142857,128 C2.63314286,128 0,125.366857 0,122.148571 C0,86.8205714 28.672,58.1485714 64,58.1485714 L64,58.1485714 Z" fill="#FBBB05"></path>
        <path d="M197.851429,64 C197.851429,99.328 169.179429,128 133.851429,128 L128,128 L128,5.85142857 C128,2.63314286 130.633143,0 133.851429,0 L133.851429,0 C169.179429,0 197.851429,28.672 197.851429,64 Z" fill="#E94335"></path>
        <path d="M192,197.851429 C156.672,197.851429 128,169.179429 128,133.851429 L128,133.851429 L128,128 L250.148571,128 C253.366857,128 256,130.633143 256,133.851429 L256,133.851429 C256,169.179429 227.328,197.851429 192,197.851429 L192,197.851429 Z" fill="#4285F4"></path>
        <path d="M58.1485714,192 C58.1485714,156.672 86.8205714,128 122.148571,128 L128,128 L128,250.148571 C128,253.366857 125.366857,256 122.148571,256 L122.148571,256 C86.8205714,256 58.1485714,227.328 58.1485714,192 Z" fill="#0F9D58"></path>
    </g>
</svg>