<?xml version="1.0" encoding="UTF-8" standalone="no"?>
<svg width="256px" height="256px" viewBox="0 0 256 256" version="1.1" xmlns="http://www.w3.org/2000/svg" xmlns:xlink="http://www.w3.org/1999/xlink" preserveAspectRatio="xMidYMid">
	<g>
		<path d="M127.995,127.87 L163.572,234.641 C163.582,234.662 163.582,234.683 163.592,234.715 C165.148,239.036 167.653,242.878 170.785,246.104 L174.722,237.9 L172.371,7.81 L170.785,0.292 L170.691,0.042 L167.406,2.846 L126.667,124.814 L127.995,127.87" fill="#097243"></path>
		<path d="M193.668,255.833 L256,255.843 L255.937,255.697 L170.816,0.271 L170.816,246.093 C176.6,252.075 184.669,255.833 193.668,255.833" fill="#13A564"></path>
		<path d="M85.319,0.031 L85.309,0.125 L85.278,0.031 L0.063,255.708 L0,255.843 L62.332,255.843 C71.321,255.843 79.4,252.085 85.184,246.083 C88.315,242.847 90.821,239.016 92.376,234.694 C92.387,234.662 92.387,234.641 92.397,234.631 L170.712,0 L85.309,0 L85.309,0.031 L85.319,0.031" fill="#4D7BBE"></path>
	</g>
</svg>