<?xml version="1.0" encoding="UTF-8" standalone="no"?>
<svg width="256px" height="256px" viewBox="0 0 256 256" version="1.1" xmlns="http://www.w3.org/2000/svg" xmlns:xlink="http://www.w3.org/1999/xlink" preserveAspectRatio="xMidYMid">
	<g>
		<path d="M13.9046848,0.0119533074 L242.089837,0.0119533074 C249.504374,0.0119533074 255.514397,6.02197665 255.514397,13.4365136 L255.514397,241.620669 C255.514397,249.036202 249.504374,255.045728 242.089837,255.045728 L13.9046848,255.045728 C6.49014786,255.045728 0.480124514,249.036202 0.480124514,241.620669 L0.480124514,13.4365136 C0.480124514,6.02197665 6.49014786,0.0119533074 13.9046848,0.0119533074" fill="#CD3C28"></path>
		<path d="M143.729556,51.3324825 L130.311969,51.3324825 C135.515642,55.56993 145.831346,63.7574475 145.831346,80.7176965 C145.831346,97.215751 136.323984,105.035206 126.817121,112.384996 C123.872623,115.280685 120.478381,118.412949 120.478381,123.323268 C120.478381,128.221634 123.872623,130.898677 126.360405,132.914304 L134.520529,139.144965 C144.478132,147.402708 153.529276,154.991066 153.529276,170.385432 C153.529276,191.349043 132.278786,212.69765 93.3463658,212.69765 C60.5151128,212.69765 45.320965,197.150879 45.320965,180.638381 C45.320965,172.603268 49.3850895,161.240156 62.756856,153.423191 C76.7800778,144.951284 95.807751,143.839626 105.991969,143.16028 C102.816872,139.144965 99.1965136,134.910506 99.1965136,128.001992 C99.1965136,124.211798 100.335564,121.976529 101.463658,119.302973 C98.9644202,119.521619 96.4841089,119.743751 94.216965,119.743751 C70.2226926,119.743751 56.6377588,102.118101 56.6377588,84.7335097 C56.6377588,74.4740856 59.8302879,62.3529339 69.5557977,54.1061479 C82.4643735,43.6225992 98.9579455,42.3595331 111.190163,42.3595331 L158.3873,42.3694942 L143.729556,51.3324825 L143.729556,51.3324825 Z M84.6797198,152.987393 C79.7001712,154.771424 65.2137588,160.118537 65.2137588,175.958163 C65.2137588,191.796794 80.8402179,203.17684 105.059611,203.17684 C126.786739,203.17684 138.342101,192.897992 138.342101,179.089432 C138.342101,167.694444 130.871284,161.690895 113.652047,149.639969 C111.848591,149.411362 110.716016,149.411362 108.460825,149.411362 C106.418802,149.411362 94.1875798,149.862101 84.6797198,152.987393 L84.6797198,152.987393 Z M97.3925603,50.4947549 C91.4985837,50.4947549 85.1673152,52.8346148 81.5345058,57.298677 C77.6885292,61.9858677 76.5614319,68.5586926 76.5614319,74.3645136 C76.5614319,89.3031595 85.3919377,114.063938 104.863875,114.063938 C110.519782,114.063938 116.620949,110.831564 120.253759,107.260016 C125.45793,102.118101 125.908669,95.5512529 125.908669,91.5359377 C125.908669,75.4761712 116.175689,50.4947549 97.3925603,50.4947549 L97.3925603,50.4947549 Z" fill="#FFFFFF"></path>
		<path d="M192.249525,95.6588327 L180.794272,95.6588327 L180.794272,118.070786 L158.381323,118.070786 L158.381323,129.028482 L180.794272,129.028482 L180.794272,151.439938 L192.249525,151.439938 L192.249525,129.028482 L214.661479,129.028482 L214.661479,118.070786 L192.249525,118.070786 L192.249525,95.6588327" fill="#FFFFFF"></path>
	</g>
</svg>