<?xml version="1.0" encoding="UTF-8" standalone="no"?>
<svg width="256px" height="256px" viewBox="0 0 256 256" version="1.1" xmlns="http://www.w3.org/2000/svg" xmlns:xlink="http://www.w3.org/1999/xlink" preserveAspectRatio="xMidYMid">
    <defs>
        <radialGradient cx="71.1394371%" cy="30.6560673%" fx="71.1394371%" fy="30.6560673%" r="62.8549372%" id="radialGradient-1">
            <stop stop-color="#8D5391" offset="0%"></stop>
            <stop stop-color="#56185B" offset="100%"></stop>
            <stop stop-color="#55175A" offset="100%"></stop>
        </radialGradient>
        <linearGradient x1="5.17702649%" y1="21.8254498%" x2="94.272313%" y2="78.1745502%" id="linearGradient-2">
            <stop stop-color="#6C8A55" offset="0%"></stop>
            <stop stop-color="#5E7A44" offset="100%"></stop>
        </linearGradient>
        <filter x="-50%" y="-50%" width="200%" height="200%" filterUnits="objectBoundingBox" id="filter-3">
            <feOffset dx="4" dy="6" in="SourceAlpha" result="shadowOffsetOuter1"></feOffset>
            <feGaussianBlur stdDeviation="3" in="shadowOffsetOuter1" result="shadowBlurOuter1"></feGaussianBlur>
            <feColorMatrix values="0 0 0 0 0   0 0 0 0 0   0 0 0 0 0  0 0 0 0.21 0" in="shadowBlurOuter1" type="matrix" result="shadowMatrixOuter1"></feColorMatrix>
            <feMerge>
                <feMergeNode in="shadowMatrixOuter1"></feMergeNode>
                <feMergeNode in="SourceGraphic"></feMergeNode>
            </feMerge>
        </filter>
        <linearGradient x1="100%" y1="73.9579166%" x2="0%" y2="23.8242915%" id="linearGradient-4">
            <stop stop-color="#90C567" offset="0%"></stop>
            <stop stop-color="#A2CE7F" offset="58.9756594%"></stop>
            <stop stop-color="#98C871" offset="100%"></stop>
        </linearGradient>
    </defs>
	<g>
		<path d="M256,128 C256,198.692429 198.692429,256 128,256 C57.3075712,256 0,198.692429 0,128 C0,57.3075712 57.3075712,0 128,0 C198.692429,0 256,57.3075712 256,128" fill="url(#radialGradient-1)"></path>
		<path d="M127.001949,0.008408577 C184.888889,-0.0746791423 256.083088,58.3112858 228.803119,145.973321 C164.262425,132.832237 115.191766,76.2761981 127.001949,0.008408577" fill="url(#linearGradient-2)" filter="url(#filter-3)"></path>
		<path d="M146.493031,2.09630565 C197.988204,11.8602355 244.397561,63.5093583 233.356625,126.506317 C181.270855,117.216961 136.055167,68.9427462 146.493031,2.09630565" fill="url(#linearGradient-4)"></path>
	</g>
</svg>
