<?xml version="1.0" encoding="UTF-8"?>
<svg width="256px" height="248px" viewBox="0 0 256 248" version="1.1" xmlns="http://www.w3.org/2000/svg" xmlns:xlink="http://www.w3.org/1999/xlink" preserveAspectRatio="xMidYMid">
    <g>
        <path d="M128.002368,0 C202.384366,0 256.00329,57.2695747 256.00329,123.893941 C256.00329,191.659134 205.122353,247.559715 128.002368,247.559715 C50.8823831,247.559715 0.000720818792,191.659134 0.000720818792,123.893941 C-0.226719402,57.2695747 53.3922051,0 128.002368,0 Z M43.3529171,123.893941 C43.3529171,169.298902 82.3692409,209.227888 127.774203,209.227888 C173.179164,209.227888 212.195488,169.298902 212.195488,123.893941 C212.195488,74.8383287 173.179164,38.1036613 127.774203,38.1036613 C82.5974066,38.1036613 43.3529171,74.8383287 43.3529171,123.893941 Z" fill="#FF3633"></path>
        <path d="M73.9271124,117.048971 C77.3495969,117.048971 80.3157502,118.874297 81.9129097,121.84045 L89.4423757,121.84045 L101.306989,93.3197452 C101.76332,91.9507514 103.132314,90.8099232 104.501308,90.353592 C107.01113,89.8972607 109.520952,91.2662545 109.977283,93.7760765 L122.526393,148.992161 L135.303669,74.6101631 L135.303669,74.6101631 C135.531834,72.784838 136.900828,71.4158442 138.726153,70.9595129 C141.235975,70.275016 143.745797,71.8721754 144.430294,74.3819974 L158.120232,130.282578 L165.193367,109.519505 C165.421533,108.606843 166.106029,107.69418 167.018692,107.009683 C169.072183,105.64069 172.038336,106.097021 173.40733,108.150512 L179.339636,116.59264 C179.567802,118.646131 179.567802,120.699622 179.567802,122.753112 C179.567802,125.4911 179.339636,128.229088 179.111471,130.73891 C178.198808,130.510744 177.514311,129.826247 176.829814,129.14175 L176.829814,129.14175 L170.897508,120.927787 L161.770882,148.535829 C160.85822,151.045651 158.348398,152.186479 155.838576,151.501983 C154.241416,151.045651 153.100588,149.676657 152.872423,148.307664 L152.872423,148.307664 L140.551478,98.5675549 L127.546037,174.09038 C127.089706,176.600202 124.808049,178.197362 122.298227,177.969196 C120.244737,177.741031 118.875743,176.143871 118.419411,174.09038 L104.501308,110.204002 L96.9718417,128.229088 C96.2873448,130.054413 94.4620197,131.195241 92.6366946,131.195241 L92.6366946,131.195241 L81.9129097,131.195241 C80.3157502,133.933229 77.3495969,135.758554 73.9271124,135.758554 C68.9074684,135.758554 64.5723213,131.651572 64.5723213,126.403763 C64.8004869,121.384119 68.9074684,117.048971 73.9271124,117.048971 Z" fill="#A6AFBD"></path>
    </g>
</svg>