<?xml version="1.0" encoding="UTF-8"?>
<svg width="256px" height="256px" viewBox="0 0 256 256" version="1.1" xmlns="http://www.w3.org/2000/svg" xmlns:xlink="http://www.w3.org/1999/xlink" preserveAspectRatio="xMidYMid">
    <title>graylog</title>
    <g>
        <path d="M128,0 C198.808511,0 256,57.1914894 256,128 C256,198.808511 198.808511,256 128,256 C57.1914894,256 0,198.808511 0,128 C0,57.1914894 57.1914894,0 128,0 Z M128,43.5744681 C81.1574468,43.5744681 43.5744681,81.1574468 43.5744681,128 C43.5744681,174.842553 81.1574468,212.425532 128,212.425532 C174.842553,212.425532 212.425532,174.842553 212.425532,128 C212.425532,81.1574468 174.842553,43.5744681 128,43.5744681 Z M139.982979,70.8085106 L163.404255,118.740426 C163.948936,119.829787 165.038298,120.374468 165.582979,120.374468 L184.646809,120.374468 C189.004255,120.374468 192.817021,124.187234 192.817021,128.544681 C192.817021,132.902128 189.548936,136.170213 185.191489,136.170213 L155.778723,136.170213 C154.689362,136.170213 153.6,135.625532 153.6,134.53617 L141.617021,110.025532 L121.46383,184.646809 C120.919149,186.825532 117.651064,187.370213 116.561702,185.191489 L93.1404255,137.259574 C92.5957447,136.170213 91.506383,135.625532 90.9617021,135.625532 L70.8085106,135.625532 C66.4510638,135.625532 62.6382979,131.812766 62.6382979,127.455319 C62.6382979,123.097872 66.4510638,119.285106 70.8085106,119.285106 L100.221277,119.285106 C101.310638,119.285106 102.4,119.829787 102.4,120.919149 L114.382979,145.429787 L135.080851,71.3531915 C135.625532,69.1744681 138.893617,68.6297872 139.982979,70.8085106 Z" fill="#03C3FF"></path>
    </g>
</svg>
