<?xml version="1.0" encoding="UTF-8"?>
<svg width="512px" height="188px" viewBox="0 0 512 188" version="1.1" xmlns="http://www.w3.org/2000/svg" xmlns:xlink="http://www.w3.org/1999/xlink" preserveAspectRatio="xMidYMid">
    <title>Grok</title>
    <g fill="#000000">
        <path d="M446.350851,142.018453 L446.350851,46.4395773 L461.459859,46.4395773 L461.459859,109.518306 L493.414994,72.810586 L511.73248,72.810586 L482.985824,104.268814 L512,142.018453 L493.949447,142.018453 L470.449349,109.582252 L461.459859,109.518306 L461.459859,142.018453 L446.350851,142.018453 Z M400.532202,143.624746 C378.069917,143.624746 365.903041,127.694992 365.903041,107.34764 C365.903041,86.8665274 378.069917,71.0705333 400.532202,71.0705333 C423.128247,71.0705333 435.161362,86.8665274 435.161362,107.34764 C435.161362,127.694992 423.128247,143.624746 400.532202,143.624746 Z M381.680262,107.34764 C381.680262,123.143634 390.236792,131.041338 400.532202,131.041338 C410.961371,131.041338 419.384728,123.143634 419.384728,107.34764 C419.384728,91.5516457 410.961371,83.5195953 400.532202,83.5195953 C390.236792,83.5195953 381.680262,91.5516457 381.680262,107.34764 Z M323.853137,142.018453 L323.853137,83.7877019 L336.555052,72.810586 L363.563416,72.810586 L363.563416,85.6615145 L338.962145,85.6615145 L338.962145,142.018453 L323.853137,142.018453 Z M266.082919,143.786079 C237.28581,143.786079 220.115843,122.876114 220.115843,94.3629513 C220.115843,65.5822687 237.898876,44.1639568 266.644945,44.1639568 C289.10723,44.1639568 305.553251,55.6762298 309.430529,77.0944244 L292.182536,77.0944244 C289.64227,64.9128823 279.480621,58.0858449 266.644945,58.0858449 C245.920953,58.0858449 236.828797,76.0237582 236.828797,94.3629513 C236.828797,112.702144 245.920953,130.506298 266.644945,130.506298 C286.433205,130.506298 295.124081,116.182836 295.792294,104.268814 L265.976732,104.268814 L265.976732,90.4082328 L311.035062,90.4082328 L310.961142,97.6547367 C310.961142,124.5839 299.98696,143.786079 266.082919,143.786079 Z"></path>
        <path d="M48.7587284,43.4207091 C69.7410025,22.4296584 100.423115,16.7881559 126.45357,26.7147461 L128.220997,27.4156857 C134.061262,29.5875836 139.15118,32.6783184 143.122325,35.5518693 L121.07892,45.7429695 C100.554394,37.1223167 77.0425631,42.9863412 62.6921152,57.3542718 C43.2854824,76.7670645 39.3640866,110.431159 62.108382,132.183577 L-2.08425791e-14,187.733263 C3.28171432,183.208598 7.22395803,178.892526 11.266648,174.611558 L15.7087583,169.928735 L17.701017,167.809362 C29.564942,155.087578 39.7088957,142.013685 33.3579384,124.491118 L32.7728304,122.978194 C21.6260506,95.8630574 28.1172215,64.086856 48.7587284,43.4207091 Z M168.652875,26.9312166 L195.552119,0 L187.815576,10.7466622 C171.702631,33.4466233 164.550916,47.7368817 171.690048,78.4713306 L171.640181,78.4214639 C177.163646,101.893988 171.256501,127.923205 152.183388,147.019198 C128.137691,171.110069 89.6582384,176.472787 57.9700369,154.787835 L80.0633086,144.546399 C100.287461,152.498663 122.414173,149.006824 138.316353,133.08587 C154.219121,117.164329 157.790159,93.9751648 149.797416,74.6791187 C148.278536,71.02008 143.723071,70.1013604 140.535713,72.4568262 L75.5242703,120.505395 L168.652875,26.8476753 L168.652875,26.9312166 Z"></path>
    </g>
</svg>
