<?xml version="1.0" encoding="UTF-8" standalone="no"?>
<svg width="256px" height="344px" viewBox="0 0 256 344" version="1.1" xmlns="http://www.w3.org/2000/svg" xmlns:xlink="http://www.w3.org/1999/xlink" preserveAspectRatio="xMidYMid">
	<g>
		<path d="M17.297408,83.373056 C17.297408,83.373056 23.172096,106.031104 24.009728,113.585152 C24.850432,121.137152 8.904704,137.920512 8.904704,146.313216 C8.904704,154.70592 12.25728,169.810944 30.722048,177.364992 C49.186816,184.918016 51.70176,204.218368 51.70176,215.969792 C51.70176,227.718144 44.98944,250.374144 44.98944,250.374144 C44.98944,250.374144 40.795136,306.599936 63.451136,316.669952 C86.107136,326.738944 81.074176,326.738944 86.107136,326.738944 C91.14112,326.738944 128.067584,341.848064 149.884928,335.973376 C171.70432,330.098688 177.574912,323.386368 177.574912,323.386368 C177.574912,323.386368 199.396352,325.062656 206.108672,305.759232 C212.825088,286.459904 217.018368,246.17984 214.500352,227.716096 C211.982336,209.251328 208.626688,184.91904 223.730688,176.525312 C238.839808,168.132608 254.782464,158.065664 252.264448,149.671936 C249.746432,141.279232 236.322816,129.529856 236.322816,129.529856 C236.322816,129.529856 232.96512,108.552192 235.481088,103.51616 C237.997056,98.481152 253.104128,85.890048 244.711424,76.660736 C236.32384,67.4304 221.213696,67.4304 221.213696,67.4304 L201.914368,69.106688 C201.914368,69.106688 169.186304,39.73632 126.3872,41.414656 C83.590144,43.092992 56.733696,69.106688 56.733696,69.106688 C56.733696,69.106688 42.469376,64.07168 29.88032,69.106688 C17.291264,74.143744 14.78144,69.105664 17.297408,83.373056 L17.297408,83.373056 L17.297408,83.373056 Z" fill="#FBA919"></path>
		<path d="M93.9776,208.319488 C93.9776,208.319488 77.359104,233.730048 65.169408,251.762688 C63.2832,254.552064 77.359104,254.7456 77.359104,254.7456 L93.9776,208.319488 L93.9776,208.319488 Z" fill="#E78724"></path>
		<path d="M101.890048,155.636736 C101.890048,155.636736 96.88064,168.134656 94.13632,174.759936 C91.157504,181.962752 79.80032,185.545728 79.80032,185.545728 C79.80032,185.545728 85.687296,179.371008 85.687296,163.728384 C85.687296,157.165568 94.159872,154.556416 94.159872,154.556416 L101.890048,155.636736 L101.890048,155.636736 Z" fill="#E78724"></path>
		<path d="M96.82944,162.70336 C96.82944,162.70336 86.565888,174.920704 67.509248,168.078336 C48.448512,161.238016 46.49472,136.800256 46.49472,129.957888 C46.49472,123.11552 82.659328,136.800256 87.547904,139.732992 C92.43648,142.665728 101.715968,154.3936 96.82944,162.70336 L96.82944,162.70336 L96.82944,162.70336 Z" fill="#E78724"></path>
		<path d="M24.843264,32.152576 C24.843264,32.152576 42.435584,28.729344 54.163456,38.016 C65.896448,47.300608 69.312512,54.633472 69.312512,54.633472 L49.544192,70.303744 C49.544192,70.303744 39.99232,65.874944 37.059584,53.167104 C34.127872,40.460288 36.082688,34.596864 24.843264,32.152576 L24.843264,32.152576 L24.843264,32.152576 Z" fill="#E78724"></path>
		<path d="M91.698176,127.413248 C84.123648,116.661248 71.641088,111.971328 61.674496,111.194112 C44.680192,109.86496 36.612096,115.872768 36.612096,115.872768 C36.612096,115.872768 64.444416,117.051392 72.466432,127.587328 C87.400448,147.196928 109.187072,148.790272 112.67072,144.483328 C108.642304,144.684032 104.210432,142.688256 99.467264,138.203136 C96.503808,135.397376 94.101504,130.82624 91.698176,127.413248 L91.698176,127.413248 L91.698176,127.413248 Z" fill="#E78724"></path>
		<path d="M44.713984,165.431296 C44.713984,165.431296 13.833216,154.815488 19.702784,144.065536 C25.566208,133.312512 20.898816,127.454208 20.898816,127.454208 C20.898816,127.454208 3.65568,140.325888 8.049664,154.008576 C10.749952,162.407424 15.280128,168.487936 40.15616,180.146176 C52.087808,202.308608 42.619904,242.200576 43.1872,242.387968 C44.132352,242.702336 59.93984,234.574848 58.860544,197.25312 C58.53184,185.792512 57.61536,170.146816 44.713984,165.431296 L44.713984,165.431296 L44.713984,165.431296 Z" fill="#E78724"></path>
		<path d="M85.180416,51.275776 C72.231936,57.853952 54.493184,67.014656 54.493184,67.014656 L61.474816,70.50752 C60.808192,71.586816 60.486656,72.230912 60.486656,72.230912 L67.652608,75.48928 C67.652608,75.48928 85.1456,88.16128 95.863808,96.308224 C92.290048,85.30432 81.800192,68.017152 81.800192,68.017152 C81.800192,68.017152 78.82752,60.073984 85.180416,51.275776 L85.180416,51.275776 L85.180416,51.275776 Z" fill="#E78724"></path>
		<path d="M128.195584,319.420416 C88.3968,319.420416 74.91584,299.215872 74.91584,299.215872 L81.135616,314.361856 C83.48672,320.914432 108.566528,341.30432 128.135168,341.30432" fill="#E78724"></path>
		<path d="M79.277056,285.563904 C79.277056,285.563904 82.93888,307.9424 97.600512,307.9424 C110.05952,307.9424 113.73056,289.03936 113.73056,285.1328 L79.277056,285.563904 L79.277056,285.563904 Z" fill="#E78724"></path>
		<path d="M54.878208,251.813888 C56.180736,248.22784 60.741632,233.730048 62.206976,220.535808 C63.963136,204.73344 63.323136,181.620736 63.323136,181.620736 C63.323136,181.620736 59.411456,196.770816 55.990272,199.2192 C52.571136,201.66144 46.216192,218.27584 46.216192,218.27584 C46.216192,218.27584 42.812416,243.011584 41.192448,251.32544 C45.67552,252.223488 49.449984,249.581568 54.878208,251.813888 L54.878208,251.813888 L54.878208,251.813888 Z" fill="#E78724"></path>
		<path d="M19.472384,153.765888 C19.472384,153.765888 27.778048,150.831104 30.224384,132.75136 C32.666624,114.66752 27.2896,99.028992 27.2896,99.028992 C27.2896,99.028992 27.778048,123.953152 24.84736,128.841728 C21.912576,133.727232 19.472384,135.1936 16.049152,141.548544 C12.62592,147.904512 17.514496,151.810048 19.472384,153.765888 L19.472384,153.765888 L19.472384,153.765888 Z" fill="#E78724"></path>
		<path d="M29.389824,36.429824 L27.69408,35.355648 C22.693888,35.524608 29.389824,36.429824 29.389824,36.429824 L29.389824,36.429824 L29.389824,36.429824 Z" fill="#FDC168"></path>
		<path d="M91.940864,45.922304 C91.940864,45.922304 84.123648,44.619776 80.211968,38.756352 C76.300288,32.89088 65.224704,21.159936 47.567872,21.028864 C29.912064,20.896768 12.443648,25.721856 12.443648,25.721856 L27.692032,35.356672 C29.304832,35.304448 32.124928,35.325952 36.788224,35.4816 C55.924736,36.117504 58.870784,55.046144 58.870784,55.046144 L126.313472,45.759488" fill="#FBA919"></path>
		<path d="M98.458624,150.468608 C98.458624,150.468608 89.334784,159.592448 75.323392,156.657664 C61.312,153.726976 52.839424,147.535872 52.18816,136.782848 C51.536896,126.030848 55.122944,121.795584 55.122944,121.795584 C55.122944,121.795584 70.760448,126.686208 78.258176,133.202944 C85.751808,139.717632 91.2896,150.144 98.458624,150.468608 L98.458624,150.468608 L98.458624,150.468608 Z" fill="#FFFFFF"></path>
		<path d="M87.416832,147.209216 C87.416832,147.209216 79.504384,150.823936 70.660096,147.879936 C59.082752,144.018432 58.31168,131.97824 58.31168,131.97824 C58.31168,131.97824 51.209216,152.820736 71.12192,156.832768 C87.093248,160.050176 96.538624,150.795264 96.538624,150.795264 L87.416832,147.209216 L87.416832,147.209216 Z" fill="#C9C9C9"></path>
		<path d="M93.039616,41.500672 C92.188672,23.625728 106.842112,9.389056 111.919104,8.782848 C112.19968,11.81184 111.63648,23.626752 116.712448,27.259904 C118.19008,17.609728 123.1872,6.970368 142.91968,0 C138.693632,11.208704 142.355456,20.59776 144.099328,24.94976 C157.574144,12.719104 166.652928,14.74048 166.652928,14.74048 C166.652928,14.74048 157.290496,30.896128 160.95232,41.496576 C133.902336,39.375872 93.171712,44.370944 93.039616,41.500672 L93.039616,41.500672 L93.039616,41.500672 Z" fill="#463014"></path>
		<path d="M35.693568,68.727808 C29.239296,63.373312 34.050048,58.40384 33.540096,52.320256 C33.262592,49.083392 33.006592,46.0288 31.939584,44.34432 C26.000384,34.965504 11.988992,32.119808 11.848704,32.090112 L5.272576,30.80192 L9.6256,25.709568 C10.189824,25.050112 28.066816,7.993344 55.7312,16.924672 C75.082752,23.165952 89.408512,44.329984 89.942016,45.185024 L80.238592,49.747968 C80.124928,49.567744 68.799488,29.674496 52.197376,24.321024 C38.776832,19.990528 26.407936,24.11008 21.10976,26.810368 C26.74176,29.059072 34.105344,33.154048 38.542336,40.159232 C40.635392,43.467776 40.988672,47.633408 41.329664,51.666944 C41.7792,57.007104 42.200064,62.048256 46.130176,65.312768 L35.693568,68.727808 L35.693568,68.727808 Z" fill="#463014"></path>
		<path d="M18.455552,146.8928 C18.455552,146.8928 26.587136,136.809472 28.995584,117.188608 C29.94176,109.46048 28.261376,94.217216 25.572352,88.352768 C26.0608,102.769664 22.395904,117.188608 22.395904,117.188608 C22.395904,117.188608 19.924992,143.960064 18.455552,146.8928 L18.455552,146.8928 L18.455552,146.8928 Z" fill="#463014"></path>
		<path d="M61.333504,58.544128 C61.329408,58.522624 58.724352,47.138816 51.50208,41.392128 C41.314304,33.288192 28.874752,37.599232 28.754944,37.63712 L26.948608,32.057344 C27.55072,31.86176 41.76896,27.38176 54.872064,36.59264 C68.054016,45.855744 69.636096,54.252544 69.773312,55.180288 L61.333504,58.544128 L61.333504,58.544128 Z" fill="#463014"></path>
		<path d="M43.995136,139.661312 C43.995136,139.661312 39.729152,133.554176 40.496128,126.83776 C40.87808,123.521024 42.415104,120.116224 45.159424,118.907904 C50.258944,116.667392 52.518912,122.447872 52.518912,122.447872 C52.518912,122.447872 45.341696,124.219392 43.995136,139.661312 L43.995136,139.661312 L43.995136,139.661312 Z" fill="#463014"></path>
		<path d="M90.835968,148.969472 C91.014144,149.302272 91.10528,149.48864 91.10528,149.48864 C91.10528,149.48864 77.799424,159.474688 64.162816,149.341184 C56.863744,143.911936 57.552896,130.482176 59.789312,124.786688 C65.604608,126.104576 70.537216,128.480256 74.65984,131.254272 C69.449728,126.604288 64.888832,123.181056 64.90112,123.102208 L58.979328,121.42592 L47.469568,117.479424 C47.322112,118.356992 43.123712,138.0352 55.241728,151.443456 C60.612608,157.3888 85.792768,170.702848 97.747968,147.93728 L90.835968,148.969472 L90.835968,148.969472 Z" fill="#463014"></path>
		<path d="M89.58976,150.432768 C97.081344,161.835008 115.98336,155.319296 115.657728,143.264768 C115.657728,143.264768 103.027712,150.235136 91.869184,137.401344 C85.354496,129.908736 64.479232,109.249536 36.169728,116.115456 C55.719936,120.414208 81.601536,138.27584 89.58976,150.432768 L89.58976,150.432768 L89.58976,150.432768 Z" fill="#463014"></path>
		<path d="M33.524736,182.612992 C35.326976,183.6544 41.682944,190.236672 41.68704,200.081408 C41.68704,205.018112 41.19552,229.818368 38.752256,244.969472 C42.427392,247.35744 44.987392,247.865344 48.647168,250.299392 C50.479104,232.752128 51.792896,207.320064 51.180544,197.05344 C50.480128,185.350144 44.214272,177.496064 38.403072,174.14656 C36.583424,173.100032 34.681856,172.070912 32.766976,171.035648 C22.813696,165.6576 12.521472,160.094208 12.521472,150.59456 C12.521472,143.163392 15.410176,140.838912 18.468864,138.375168 L18.798592,138.107904 C20.82816,136.46848 23.124992,134.608896 24.485888,131.555328 C28.198912,123.206656 28.806144,101.940224 24.485888,96.541696 C22.332416,93.851648 16.562176,84.805632 18.221056,78.727168 C18.852864,76.406784 20.314112,74.687488 22.692864,73.468928 C25.209856,72.179712 28.61056,71.5264 32.796672,71.5264 C41.019392,71.5264 50.139136,74.029056 54.844416,75.518976 C71.657472,80.847872 91.94496,96.211968 97.760256,100.794368 C97.927168,100.922368 98.025472,100.99712 98.04288,101.009408 L101.764096,103.597056 L99.436544,99.702784 C99.293184,99.460096 84.553728,75.224064 58.19904,66.337792 C53.071872,64.60928 42.998784,61.708288 33.099776,61.708288 C27.205632,61.708288 22.204416,62.737408 18.244608,64.764928 C13.418496,67.233792 10.149888,71.17312 8.792064,76.152832 C5.464064,88.359936 16.303104,101.951488 16.672768,102.385664 C17.936384,104.641536 18.471936,121.028608 15.552512,127.587328 C15.151104,128.492544 14.050304,129.3824 12.65664,130.506752 C12.220416,130.860032 11.731968,131.226624 11.214848,131.618816 C7.09632,134.72768 0.868352,139.424768 0.868352,150.25152 C0.868352,165.065728 15.88224,173.097984 27.948032,179.556352 C29.927424,180.621312 31.816704,181.628928 33.524736,182.612992 L33.524736,182.612992 L33.524736,182.612992 Z" fill="#463014"></path>
		<path d="M35.693568,68.727808 C29.239296,63.373312 34.050048,58.40384 33.540096,52.320256 C33.262592,49.083392 33.006592,46.0288 31.939584,44.34432 C26.000384,34.965504 11.988992,32.119808 11.848704,32.090112 L5.272576,30.80192 L9.6256,25.709568 C10.189824,25.050112 28.066816,7.993344 55.7312,16.924672 C75.082752,23.165952 89.408512,44.329984 89.942016,45.185024 L80.238592,49.747968 C80.124928,49.567744 68.799488,29.674496 52.197376,24.321024 C38.776832,19.990528 26.407936,24.11008 21.10976,26.810368 C26.74176,29.059072 34.105344,33.154048 38.542336,40.159232 C40.635392,43.467776 40.988672,47.633408 41.329664,51.666944 C41.7792,57.007104 42.200064,62.048256 46.130176,65.312768 L35.693568,68.727808 L35.693568,68.727808 Z" fill="#463014"></path>
		<path d="M35.483648,69.824512 L35.06688,69.479424 C30.280704,65.507328 31.1296,61.594624 31.951872,57.808896 C32.325632,56.061952 32.719872,54.255616 32.560128,52.4032 C32.299008,49.288192 32.048128,46.349312 31.110144,44.865536 C25.454592,35.936256 11.787264,33.0752 11.652096,33.047552 L3.438592,31.4368 L8.8832,25.071616 C8.982528,24.952832 20.460544,13.366272 39.90016,13.366272 C45.19936,13.366272 50.628608,14.247936 56.030208,15.992832 C76.227584,22.505472 90.636288,44.448768 90.77248,44.665856 L91.355136,45.597696 L79.87712,50.996224 L79.41632,50.265088 C78.181376,48.159744 67.298304,30.212096 51.902464,25.245696 C48.120832,24.025088 44.137472,23.40864 40.065024,23.40864 C32.689152,23.40864 26.707968,25.418752 23.525376,26.768384 C28.844032,29.16352 35.294208,33.195008 39.375872,39.631872 C41.59488,43.138048 41.954304,47.423488 42.30656,51.56352 C42.738688,56.712192 43.147264,61.553664 46.758912,64.551936 L48.121856,65.682432 L35.483648,69.824512 L35.483648,69.824512 Z" fill="#463014"></path>
		<path d="M61.333504,58.544128 C61.329408,58.522624 58.724352,47.138816 51.50208,41.392128 C41.314304,33.288192 28.874752,37.599232 28.754944,37.63712 L26.948608,32.057344 C27.55072,31.86176 41.76896,27.38176 54.872064,36.59264 C68.054016,45.855744 69.636096,54.252544 69.773312,55.180288 L61.333504,58.544128 L61.333504,58.544128 Z" fill="#463014"></path>
		<path d="M60.633088,59.875328 L60.379136,58.755072 C60.352512,58.645504 57.797632,47.650816 50.890752,42.159104 C46.954496,39.02464 42.207232,37.433344 36.789248,37.433344 C32.560128,37.433344 29.417472,38.443008 29.074432,38.561792 L28.140544,38.872064 L25.71776,31.428608 L26.646528,31.128576 C27.063296,30.99648 30.836736,29.819904 36.174848,29.819904 C43.216896,29.819904 49.874944,31.886336 55.437312,35.791872 C68.948992,45.287424 70.598656,54.068224 70.739968,55.036928 L70.858752,55.80288 L60.633088,59.875328 L60.633088,59.875328 Z M36.790272,35.4816 C42.57792,35.4816 47.879168,37.261312 52.110336,40.626176 C58.243072,45.510656 61.12768,54.13376 62.000128,57.225216 L68.647936,54.576128 C68.045824,52.22912 65.395712,45.185024 54.311936,37.393408 C49.00864,33.666048 42.908672,31.777792 36.175872,31.777792 C32.48128,31.777792 29.611008,32.365568 28.192768,32.723968 L29.391872,36.429824 C30.782464,36.056064 33.458176,35.4816 36.790272,35.4816 L36.790272,35.4816 L36.790272,35.4816 Z" fill="#463014"></path>
		<path d="M96.98816,302.573568 L96.98816,302.573568 C94.10048,302.573568 91.153408,301.526016 89.110528,299.757568 C87.54688,298.409984 82.258944,293.553152 79.927296,287.602688 C79.056896,285.377536 79.25248,283.597824 80.515072,282.3168 C81.385472,281.439232 83.191808,280.389632 86.858752,280.389632 L89.467904,280.385536 C92.576768,280.382464 97.811456,280.382464 102.285312,280.382464 L106.574848,280.382464 C109.364224,280.382464 111.364096,280.9856 112.514048,282.161152 C113.990656,283.67872 113.517568,285.60896 113.104896,286.624768 C112.386048,288.40448 109.411328,294.196224 104.375296,299.580416 C102.572032,301.509632 99.94752,302.573568 96.98816,302.573568 L96.98816,302.573568 L96.98816,302.573568 Z" fill="#463014"></path>
		<path d="M100.015104,151.103488 L89.588736,150.432768 C89.588736,150.432768 92.254208,155.13088 93.980672,161.207296 C95.930368,168.080384 92.197888,178.1248 92.197888,178.1248 C92.197888,178.1248 106.099712,162.38592 100.015104,151.103488 L100.015104,151.103488 L100.015104,151.103488 Z" fill="#463014"></path>
		<path d="M87.000064,330.103808 C49.891328,327.251968 36.835328,292.187136 36.835328,284.883968 L46.526464,284.888064 L41.680896,284.883968 L46.526464,284.883968 C46.574592,288.04096 56.436736,318.035968 87.742464,320.443392 L87.000064,330.103808 L87.000064,330.103808 Z" fill="#463014"></path>
		<path d="M76.571648,267.280384 C75.992064,263.928832 75.931648,260.750336 76.639232,257.627136 C73.819136,255.507456 68.758528,254.72 64.961536,253.489152 C61.856768,251.524096 45.968384,255.50336 34.441216,241.553408 C19.99872,224.084992 23.037952,213.655552 23.037952,213.655552 C19.335168,217.769984 15.746048,216.20224 10.10176,235.385856 C4.44928,254.573568 12.754944,267.95008 28.234752,281.378816 C35.54816,287.722496 45.886464,290.335744 54.77888,291.336192 C51.800064,288.345088 59.867136,288.04608 65.427456,285.965312 C64.984064,281.476096 65.726464,277.117952 69.07392,273.608704 C71.092224,271.49312 73.689088,270.22848 76.383232,269.220864 C76.53376,268.872704 76.660736,268.551168 76.804096,268.217344 C76.715008,267.912192 76.627968,267.603968 76.571648,267.280384 L76.571648,267.280384 L76.571648,267.280384 Z" fill="#FFFFFF"></path>
		<path d="M65.352704,285.848576 C65.031168,284.906496 64.78848,283.945984 64.549888,282.979328 C64.292864,281.923584 63.012864,278.93248 64.590848,282.34752 C64.185344,281.473024 63.920128,280.571904 63.724544,279.663616 C38.654976,279.631872 16.8448,262.419456 21.05856,226.23232 C17.77664,221.8752 13.180928,235.01824 13.180928,235.01824 C13.180928,235.01824 0.630784,271.460352 33.04448,285.584384 C43.844608,290.294784 53.389312,293.670912 55.641088,292.307968 C60.332032,293.261312 64.566272,289.990656 66.154496,287.840256 C65.856512,287.179776 65.585152,286.518272 65.352704,285.848576 L65.352704,285.848576 L65.352704,285.848576 Z" fill="#C9C9C9"></path>
		<path d="M76.120064,262.033408 C76.158976,258.978816 76.782592,256.02048 78.2592,253.072384 C78.362624,252.869632 78.482432,252.675072 78.593024,252.47744 C68.94592,252.394496 57.83552,251.470848 48.374784,247.684096 C37.976064,243.524608 24.968192,229.29408 22.7328,212.574208 C22.7328,212.574208 3.1488,227.6864 8.90368,260.032512 C14.30528,290.4064 39.721984,300.30848 68.709376,301.983744 C68.724736,301.787136 65.44896,295.020544 66.484224,290.878464 C50.024448,292.074496 31.618048,285.715456 22.7328,271.094784 C14.598144,257.713152 16.879616,234.866688 20.222976,231.519232 C28.378112,257.251328 57.721856,262.48192 76.120064,262.033408 L76.120064,262.033408 L76.120064,262.033408 Z" fill="#463014"></path>
		<path d="M79.157248,243.611648 C73.940992,258.919424 63.286272,271.307776 63.286272,271.307776 C63.286272,271.307776 77.942784,270.641152 78.751744,268.04736 C79.350784,266.135552 91.98592,236.557312 96.835584,201.908224 C92.273664,209.40288 79.603712,242.300928 79.157248,243.611648 L79.157248,243.611648 L79.157248,243.611648 Z" fill="#463014"></path>
		<path d="M162.194432,208.319488 C162.194432,208.319488 178.808832,233.730048 191.002624,251.762688 C192.888832,254.552064 178.808832,254.7456 178.808832,254.7456 L162.194432,208.319488 L162.194432,208.319488 Z" fill="#E78724"></path>
		<path d="M154.279936,155.636736 C154.279936,155.636736 159.290368,168.134656 162.030592,174.759936 C165.009408,181.962752 176.365568,185.545728 176.365568,185.545728 C176.365568,185.545728 170.479616,179.371008 170.479616,163.728384 C170.479616,157.165568 162.008064,154.556416 162.008064,154.556416 L154.279936,155.636736 L154.279936,155.636736 Z" fill="#E78724"></path>
		<path d="M159.33952,162.70336 C159.33952,162.70336 169.603072,174.920704 188.664832,168.078336 C207.726592,161.235968 209.67936,136.800256 209.67936,129.957888 C209.67936,123.11552 173.514752,136.800256 168.626176,139.732992 C163.7376,142.665728 154.454016,154.3936 159.33952,162.70336 L159.33952,162.70336 L159.33952,162.70336 Z" fill="#E78724"></path>
		<path d="M231.327744,32.152576 C231.327744,32.152576 213.735424,28.729344 202.003456,38.016 C190.275584,47.300608 186.853376,54.633472 186.853376,54.633472 L206.62272,70.30272 C206.62272,70.30272 216.178688,65.87392 219.111424,53.16608 C222.042112,40.460288 220.08832,34.596864 231.327744,32.152576 L231.327744,32.152576 L231.327744,32.152576 Z" fill="#E78724"></path>
		<path d="M164.472832,127.413248 C172.04736,116.661248 184.525824,111.971328 194.496512,111.194112 C211.49184,109.86496 219.55584,115.872768 219.55584,115.872768 C219.55584,115.872768 191.72352,117.051392 183.70048,127.587328 C168.76544,147.196928 146.985984,148.790272 143.502336,144.483328 C147.529728,144.684032 151.963648,142.688256 156.703744,138.203136 C159.666176,135.397376 162.069504,130.82624 164.472832,127.413248 L164.472832,127.413248 L164.472832,127.413248 Z" fill="#E78724"></path>
		<path d="M211.457024,165.431296 C211.457024,165.431296 242.333696,154.815488 236.469248,144.065536 C230.605824,133.312512 235.26912,127.454208 235.26912,127.454208 C235.26912,127.454208 252.516352,140.325888 248.118272,154.008576 C245.417984,162.407424 240.887808,168.487936 216.011776,180.146176 C204.080128,202.308608 213.548032,242.200576 212.983808,242.387968 C212.037632,242.702336 196.232192,234.574848 197.311488,197.25312 C197.639168,185.792512 198.555648,170.146816 211.457024,165.431296 L211.457024,165.431296 L211.457024,165.431296 Z" fill="#E78724"></path>
		<path d="M170.991616,51.275776 C183.936,57.853952 201.677824,67.014656 201.677824,67.014656 L194.697216,70.50752 C195.36384,71.586816 195.6864,72.230912 195.6864,72.230912 L188.520448,75.48928 C188.520448,75.48928 171.026432,88.16128 160.308224,96.308224 C163.877888,85.30432 174.367744,68.017152 174.367744,68.017152 C174.367744,68.017152 177.345536,60.073984 170.991616,51.275776 L170.991616,51.275776 L170.991616,51.275776 Z" fill="#E78724"></path>
		<path d="M127.977472,319.420416 C167.770112,319.420416 181.251072,299.215872 181.251072,299.215872 L175.035392,314.361856 C172.684288,320.914432 147.602432,341.30432 128.037888,341.30432" fill="#E78724"></path>
		<path d="M176.893952,285.563904 C176.893952,285.563904 173.228032,307.9424 158.570496,307.9424 C146.113536,307.9424 142.441472,289.03936 142.441472,285.1328 L176.893952,285.563904 L176.893952,285.563904 Z" fill="#E78724"></path>
		<path d="M201.2928,251.813888 C199.990272,248.22784 195.429376,233.730048 193.959936,220.535808 C192.203776,204.73344 192.847872,181.620736 192.847872,181.620736 C192.847872,181.620736 196.758528,196.770816 200.175616,199.2192 C203.599872,201.66144 209.95072,218.27584 209.95072,218.27584 C209.95072,218.27584 213.354496,243.011584 214.974464,251.32544 C210.492416,252.223488 206.722048,249.581568 201.2928,251.813888 L201.2928,251.813888 L201.2928,251.813888 Z" fill="#E78724"></path>
		<path d="M236.701696,153.765888 C236.701696,153.765888 228.391936,150.831104 225.949696,132.75136 C223.507456,114.66752 228.883456,99.028992 228.883456,99.028992 C228.883456,99.028992 228.391936,123.953152 231.325696,128.841728 C234.26048,133.72928 236.701696,135.1936 240.123904,141.548544 C243.542016,147.903488 238.655488,151.810048 236.701696,153.765888 L236.701696,153.765888 L236.701696,153.765888 Z" fill="#E78724"></path>
		<path d="M226.78016,36.429824 L228.478976,35.355648 C233.480192,35.524608 226.78016,36.429824 226.78016,36.429824 L226.78016,36.429824 L226.78016,36.429824 Z" fill="#FDC168"></path>
		<path d="M164.227072,45.922304 C164.227072,45.922304 172.048384,44.619776 175.955968,38.756352 C179.866624,32.89088 190.946304,21.159936 208.60416,21.028864 C226.259968,20.896768 243.728384,25.721856 243.728384,25.721856 L228.478976,35.356672 C226.866176,35.304448 224.04608,35.325952 219.378688,35.4816 C200.245248,36.117504 197.2992,55.046144 197.2992,55.046144 L129.85856,45.759488" fill="#FBA919"></path>
		<path d="M157.712384,150.468608 C157.712384,150.468608 166.836224,159.592448 180.844544,156.657664 C194.85696,153.726976 203.328512,147.535872 203.9808,136.782848 C204.63104,126.030848 201.049088,121.795584 201.049088,121.795584 C201.049088,121.795584 185.407488,126.686208 177.913856,133.202944 C170.420224,139.71968 164.882432,150.144 157.712384,150.468608 L157.712384,150.468608 L157.712384,150.468608 Z" fill="#FFFFFF"></path>
		<path d="M168.751104,147.209216 C168.751104,147.209216 176.666624,150.823936 185.50784,147.879936 C197.088256,144.018432 197.859328,131.97824 197.859328,131.97824 C197.859328,131.97824 204.957696,152.820736 185.044992,156.832768 C169.076736,160.050176 159.629312,150.795264 159.629312,150.795264 L168.751104,147.209216 L168.751104,147.209216 Z" fill="#C9C9C9"></path>
		<path d="M220.476416,68.727808 C226.930688,63.373312 222.124032,58.40384 222.633984,52.320256 C222.906368,49.083392 223.162368,46.0288 224.2304,44.34432 C230.170624,34.965504 244.180992,32.119808 244.325376,32.090112 L250.902528,30.80192 L246.54848,25.709568 C245.984256,25.050112 228.107264,7.993344 200.438784,16.924672 C181.090304,23.165952 166.764544,44.329984 166.232064,45.185024 L175.931392,49.747968 C176.049152,49.567744 187.375616,29.674496 203.977728,24.321024 C217.397248,19.990528 229.766144,24.11008 235.061248,26.810368 C229.43232,29.059072 222.065664,33.154048 217.628672,40.159232 C215.535616,43.467776 215.185408,47.633408 214.84544,51.666944 C214.395904,57.007104 213.970944,62.048256 210.039808,65.312768 L220.476416,68.727808 L220.476416,68.727808 Z" fill="#463014"></path>
		<path d="M237.71136,146.8928 C237.71136,146.8928 229.583872,136.809472 227.175424,117.188608 C226.229248,109.46048 227.90656,94.217216 230.59456,88.352768 C230.106112,102.769664 233.77408,117.188608 233.77408,117.188608 C233.77408,117.188608 236.246016,143.960064 237.71136,146.8928 L237.71136,146.8928 L237.71136,146.8928 Z" fill="#463014"></path>
		<path d="M194.837504,58.544128 C194.8416,58.522624 197.446656,47.138816 204.669952,41.392128 C214.856704,33.288192 227.29728,37.599232 227.412992,37.63712 L229.224448,32.057344 C228.620288,31.86176 214.404096,27.38176 201.296896,36.59264 C188.114944,45.855744 186.53696,54.252544 186.395648,55.180288 L194.837504,58.544128 L194.837504,58.544128 Z" fill="#463014"></path>
		<path d="M212.175872,139.661312 C212.175872,139.661312 216.441856,133.554176 215.670784,126.83776 C215.292928,123.521024 213.755904,120.116224 211.011584,118.907904 C205.912064,116.667392 203.651072,122.447872 203.651072,122.447872 C203.651072,122.447872 210.829312,124.219392 212.175872,139.661312 L212.175872,139.661312 L212.175872,139.661312 Z" fill="#463014"></path>
		<path d="M165.336064,148.969472 C165.157888,149.302272 165.065728,149.48864 165.065728,149.48864 C165.065728,149.48864 178.367488,159.474688 192.004096,149.341184 C199.308288,143.911936 198.618112,130.482176 196.3776,124.786688 C190.565376,126.104576 185.633792,128.480256 181.50912,131.254272 C186.720256,126.604288 191.281152,123.181056 191.264768,123.102208 L197.190656,121.42592 L208.699392,117.481472 C208.846848,118.35904 213.044224,138.037248 200.922112,151.445504 C195.552256,157.390848 170.372096,170.704896 158.419968,147.939328 L165.336064,148.969472 L165.336064,148.969472 Z" fill="#463014"></path>
		<path d="M166.578176,150.432768 C159.086592,161.835008 140.189696,155.319296 140.516352,143.264768 C140.516352,143.264768 153.142272,150.235136 164.3008,137.401344 C170.815488,129.908736 191.694848,109.249536 220.003328,116.115456 C200.454144,120.414208 174.570496,138.27584 166.578176,150.432768 L166.578176,150.432768 L166.578176,150.432768 Z" fill="#463014"></path>
		<path d="M222.649344,182.612992 C220.84608,183.6544 214.48704,190.236672 214.48704,200.081408 C214.482944,205.018112 214.975488,229.818368 217.421824,244.969472 C213.745664,247.35744 211.185664,247.865344 207.525888,250.299392 C205.693952,232.752128 204.376064,207.320064 204.992512,197.05344 C205.691904,185.350144 211.955712,177.496064 217.765888,174.14656 C219.585536,173.100032 221.488128,172.070912 223.407104,171.035648 C233.360384,165.6576 243.652608,160.094208 243.652608,150.59456 C243.652608,143.163392 240.760832,140.838912 237.702144,138.375168 L237.376512,138.107904 C235.346944,136.46848 233.046016,134.608896 231.689216,131.555328 C227.975168,123.206656 227.365888,101.940224 231.68512,96.541696 C233.838592,93.851648 239.612928,84.805632 237.954048,78.727168 C237.318144,76.406784 235.855872,74.687488 233.478144,73.468928 C230.960128,72.179712 227.564544,71.5264 223.374336,71.5264 C215.156736,71.5264 206.031872,74.029056 201.330688,75.518976 C184.517632,80.847872 164.230144,96.211968 158.410752,100.794368 C158.244864,100.922368 158.148608,100.99712 158.130176,101.009408 L154.406912,103.597056 L156.734464,99.702784 C156.88192,99.460096 171.618304,75.224064 197.971968,66.337792 C203.10016,64.60928 213.172224,61.708288 223.072256,61.708288 C228.9664,61.708288 233.962496,62.737408 237.9264,64.764928 C242.753536,67.233792 246.020096,71.17312 247.379968,76.152832 C250.707968,88.359936 239.867904,101.951488 239.49824,102.385664 C238.234624,104.641536 237.700096,121.028608 240.615424,127.587328 C241.016832,128.492544 242.117632,129.3824 243.514368,130.506752 C243.950592,130.860032 244.434944,131.226624 244.95616,131.618816 C249.075712,134.72768 255.300608,139.424768 255.300608,150.25152 C255.300608,165.065728 240.28672,173.097984 228.225024,179.556352 C226.243584,180.621312 224.352256,181.628928 222.649344,182.612992 L222.649344,182.612992 L222.649344,182.612992 Z" fill="#463014"></path>
		<path d="M204.73856,66.98496 C202.350592,62.94016 196.243456,55.130112 182.167552,48.267264 C166.459392,40.610816 148.279296,36.724736 128.123904,36.71552 L128.123904,36.711424 L128.084992,36.711424 L128.04608,36.711424 L128.04608,36.713472 C107.887616,36.723712 89.704448,40.609792 74.000384,48.265216 C59.92448,55.129088 53.819392,62.938112 51.429376,66.982912 L50.404352,68.339712 L62.457856,71.022592 L62.839808,70.540288 L63.041536,70.09792 C63.227904,69.301248 64.843776,65.000448 78.282752,58.446848 C92.649472,51.439616 109.406208,47.88736 128.082944,47.881216 C146.761728,47.88736 163.511296,51.439616 177.876992,58.446848 C191.316992,65.000448 192.937984,69.301248 193.122304,70.09792 L193.323008,70.540288 L193.700864,71.022592 L205.758464,68.339712 L204.73856,66.98496 L204.73856,66.98496 Z" fill="#463014"></path>
		<path d="M220.476416,68.727808 C226.930688,63.373312 222.124032,58.40384 222.633984,52.320256 C222.906368,49.083392 223.162368,46.0288 224.2304,44.34432 C230.170624,34.965504 244.180992,32.119808 244.325376,32.090112 L250.902528,30.80192 L246.54848,25.709568 C245.984256,25.050112 228.107264,7.993344 200.438784,16.924672 C181.090304,23.165952 166.764544,44.329984 166.232064,45.185024 L175.931392,49.747968 C176.049152,49.567744 187.375616,29.674496 203.977728,24.321024 C217.397248,19.990528 229.766144,24.11008 235.061248,26.810368 C229.43232,29.059072 222.065664,33.154048 217.628672,40.159232 C215.535616,43.467776 215.185408,47.633408 214.84544,51.666944 C214.395904,57.007104 213.970944,62.048256 210.039808,65.312768 L220.476416,68.727808 L220.476416,68.727808 Z" fill="#463014"></path>
		<path d="M208.054272,65.686528 L209.412096,64.556032 C213.026816,61.55776 213.43232,56.715264 213.868544,51.567616 C214.218752,47.425536 214.580224,43.140096 216.799232,39.635968 C220.8768,33.201152 227.332096,29.16864 232.649728,26.771456 C229.466112,25.422848 223.483904,23.412736 216.107008,23.412736 C212.032512,23.412736 208.05632,24.029184 204.273664,25.249792 C188.873728,30.216192 177.99168,48.16384 176.759808,50.269184 L176.297984,50.999296 L164.819968,45.601792 L165.403648,44.669952 C165.538816,44.452864 179.943424,22.509568 200.141824,15.996928 C205.543424,14.252032 210.971648,13.371392 216.275968,13.371392 C235.71456,13.371392 247.1936,24.96 247.291904,25.076736 L252.736512,31.44192 L244.521984,33.052672 C244.385792,33.08032 230.719488,35.939328 225.05984,44.870656 C224.121856,46.355456 223.876096,49.291264 223.609856,52.40832 C223.455232,54.26176 223.844352,56.068096 224.223232,57.814016 C225.04448,61.599744 225.892352,65.51552 221.104128,69.484544 L220.688384,69.829632 L208.054272,65.686528 L208.054272,65.686528 Z" fill="#463014"></path>
		<path d="M194.837504,58.544128 C194.8416,58.522624 197.446656,47.138816 204.669952,41.392128 C214.856704,33.288192 227.29728,37.599232 227.412992,37.63712 L229.224448,32.057344 C228.620288,31.86176 214.404096,27.38176 201.296896,36.59264 C188.114944,45.855744 186.53696,54.252544 186.395648,55.180288 L194.837504,58.544128 L194.837504,58.544128 Z" fill="#463014"></path>
		<path d="M185.3184,55.80288 L185.432064,55.036928 C185.575424,54.068224 187.226112,45.289472 200.735744,35.791872 C206.294016,31.886336 212.954112,29.819904 219.99616,29.819904 C225.337344,29.819904 229.110784,30.994432 229.528576,31.128576 L230.45632,31.428608 L228.03456,38.872064 L227.099648,38.561792 C226.750464,38.444032 223.608832,37.433344 219.38176,37.433344 C213.9648,37.433344 209.220608,39.022592 205.284352,42.159104 C198.376448,47.652864 195.81952,58.646528 195.795968,58.755072 L195.542016,59.87328 L185.3184,55.80288 L185.3184,55.80288 Z M226.78016,36.429824 L227.98336,32.723968 C226.564096,32.36352 223.690752,31.777792 219.99616,31.777792 C213.264384,31.777792 207.162368,33.668096 201.862144,37.393408 C190.774272,45.187072 188.12416,52.22912 187.523072,54.576128 L194.176,57.225216 C195.0464,54.131712 197.927936,45.508608 204.063744,40.626176 C208.297984,37.261312 213.593088,35.4816 219.380736,35.4816 C222.708736,35.4816 225.389568,36.056064 226.78016,36.429824 L226.78016,36.429824 L226.78016,36.429824 Z" fill="#463014"></path>
		<path d="M151.799808,299.580416 C146.7648,294.197248 143.785984,288.40448 143.066112,286.624768 C142.654464,285.611008 142.185472,283.67872 143.66208,282.161152 C144.813056,280.9856 146.807808,280.382464 149.597184,280.382464 L153.889792,280.382464 C158.363648,280.382464 163.595264,280.382464 166.706176,280.385536 L169.315328,280.389632 C172.980224,280.389632 174.785536,281.438208 175.654912,282.3168 C176.918528,283.595776 177.11616,285.375488 176.24576,287.602688 C173.914112,293.554176 168.625152,298.411008 167.061504,299.757568 C165.013504,301.526016 162.0736,302.573568 159.18592,302.573568 L159.18592,302.573568 C156.225536,302.573568 153.603072,301.509632 151.799808,299.580416 L151.799808,299.580416 L151.799808,299.580416 Z" fill="#463014"></path>
		<path d="M156.157952,151.103488 L166.578176,150.432768 C166.578176,150.432768 163.9168,155.13088 162.190336,161.207296 C160.24064,168.080384 163.97312,178.1248 163.97312,178.1248 C163.97312,178.1248 150.070272,162.38592 156.157952,151.103488 L156.157952,151.103488 L156.157952,151.103488 Z" fill="#463014"></path>
		<path d="M128.08704,113.880064 C121.442304,113.880064 112.77824,113.697792 106.277888,109.026304 C106.277888,109.026304 114.789376,123.947008 128.075776,123.947008 L128.08704,122.058752 L128.098304,123.947008 C141.385728,123.947008 149.896192,109.026304 149.896192,109.026304 C143.39584,113.697792 134.725632,113.880064 128.08704,113.880064 L128.08704,113.880064 L128.08704,113.880064 Z" fill="#E78724"></path>
		<path d="M146.382848,113.808384 C139.717632,117.84192 133.76512,119.23968 128.08704,119.363584 C122.407936,119.23968 116.457472,117.84192 109.791232,113.808384 C109.791232,113.808384 119.497728,125.652992 128.037888,125.744128 L128.037888,125.751296 C128.053248,125.751296 128.068608,125.7472 128.086016,125.7472 C128.101376,125.7472 128.116736,125.751296 128.134144,125.751296 L128.134144,125.744128 C136.672256,125.652992 146.382848,113.808384 146.382848,113.808384 L146.382848,113.808384 L146.382848,113.808384 Z" fill="#463014"></path>
		<path d="M169.171968,330.103808 L168.428544,320.442368 C199.727104,318.034944 209.589248,288.039936 209.640448,284.882944 L219.331584,284.882944 C219.33568,292.185088 206.275584,327.251968 169.171968,330.103808 L169.171968,330.103808 L169.171968,330.103808 Z" fill="#463014"></path>
		<path d="M179.598336,267.280384 C180.180992,263.928832 180.237312,260.750336 179.530752,257.627136 C182.354944,255.507456 187.411456,254.72 191.208448,253.489152 C194.313216,251.524096 210.205696,255.50336 221.732864,241.553408 C236.17536,224.084992 233.132032,213.655552 233.132032,213.655552 C236.837888,217.769984 240.423936,216.20224 246.07232,235.385856 C251.7248,254.573568 243.41504,267.95008 227.935232,281.378816 C220.622848,287.722496 210.28352,290.335744 201.391104,291.336192 C204.36992,288.345088 196.302848,288.04608 190.7456,285.965312 C191.190016,281.476096 190.44352,277.117952 187.097088,273.608704 C185.08288,271.49312 182.48192,270.22848 179.789824,269.220864 C179.638272,268.872704 179.508224,268.551168 179.36896,268.217344 C179.458048,267.912192 179.542016,267.603968 179.598336,267.280384 L179.598336,267.280384 L179.598336,267.280384 Z" fill="#FFFFFF"></path>
		<path d="M190.814208,285.848576 C191.13984,284.906496 191.378432,283.945984 191.617024,282.979328 C191.878144,281.923584 193.158144,278.93248 191.578112,282.34752 C191.983616,281.473024 192.248832,280.571904 192.444416,279.663616 C217.513984,279.631872 239.32416,262.419456 235.106304,226.23232 C238.388224,221.8752 242.987008,235.01824 242.987008,235.01824 C242.987008,235.01824 255.538176,271.460352 223.12448,285.584384 C212.324352,290.294784 202.780672,293.670912 200.527872,292.307968 C195.832832,293.261312 191.598592,289.990656 190.014464,287.840256 C190.3104,287.179776 190.587904,286.518272 190.814208,285.848576 L190.814208,285.848576 L190.814208,285.848576 Z" fill="#C9C9C9"></path>
		<path d="M180.046848,262.033408 C180.012032,258.978816 179.38432,256.02048 177.911808,253.072384 C177.80736,252.869632 177.687552,252.675072 177.577984,252.47744 C187.224064,252.394496 198.335488,251.470848 207.796224,247.684096 C218.19392,243.524608 231.201792,229.29408 233.438208,212.574208 C233.438208,212.574208 253.022208,227.6864 247.267328,260.032512 C241.861632,290.4064 216.448,300.30848 187.461632,301.983744 C187.446272,301.787136 190.723072,295.020544 189.686784,290.878464 C206.142464,292.074496 224.548864,285.715456 233.439232,271.094784 C241.568768,257.713152 239.28832,234.866688 235.94496,231.519232 C227.792896,257.251328 198.44608,262.48192 180.046848,262.033408 L180.046848,262.033408 L180.046848,262.033408 Z" fill="#463014"></path>
		<path d="M191.752192,269.651968 C188.289024,265.908224 181.921792,261.445632 167.240704,261.445632 C167.240704,261.445632 139.406336,261.429248 128.136192,261.42208 L128.136192,261.42208 L128.088064,261.42208 L128.039936,261.42208 C116.770816,261.430272 88.92928,261.445632 88.92928,261.445632 C74.252288,261.445632 67.885056,265.909248 64.41984,269.651968 C59.372544,275.100672 58.580992,282.68032 62.072832,292.154368 C71.351296,317.371392 84.389888,342.990848 128.037888,343.026688 L128.037888,343.030784 C128.054272,343.030784 128.068608,343.026688 128.086016,343.026688 C128.101376,343.026688 128.116736,343.030784 128.134144,343.030784 L128.134144,343.026688 C171.778048,342.9888 184.81664,317.371392 194.098176,292.154368 C197.590016,282.68032 196.796416,275.100672 191.752192,269.651968 L191.752192,269.651968 L191.752192,269.651968 Z M184.956928,290.38592 C180.53632,303.048704 168.655872,333.699072 128.084992,333.75232 C87.508992,333.699072 75.63264,303.049728 71.212032,290.38592 C68.765696,283.360256 68.952064,278.161408 71.784448,274.931712 C73.718784,272.723968 78.162944,270.089216 88.291328,270.089216 L98.87232,270.08512 C106.678272,270.077952 116.478976,270.06976 128.086016,270.065664 C139.68896,270.06976 149.494784,270.077952 157.298688,270.08512 L167.875584,270.089216 C178.00704,270.089216 182.450176,272.722944 184.385536,274.931712 C187.214848,278.16448 187.403264,283.360256 184.956928,290.38592 L184.956928,290.38592 L184.956928,290.38592 Z" fill="#463014"></path>
		<path d="M177.011712,243.611648 C182.227968,258.919424 192.881664,271.307776 192.881664,271.307776 C192.881664,271.307776 178.226176,270.641152 177.416192,268.04736 C176.821248,266.135552 164.185088,236.557312 159.335424,201.908224 C163.894272,209.40288 176.564224,242.300928 177.011712,243.611648 L177.011712,243.611648 L177.011712,243.611648 Z" fill="#463014"></path>
	</g>
</svg>
