<?xml version="1.0" encoding="UTF-8" standalone="no"?>
<svg width="256px" height="478px" viewBox="0 0 256 478" version="1.1" xmlns="http://www.w3.org/2000/svg" xmlns:xlink="http://www.w3.org/1999/xlink" preserveAspectRatio="xMidYMid">
    <g>
        <path d="M9.13221479,5.980788 C3.0751745,9.96497004 0,15.1772152 0,21.4850854 L0,455.325487 C0,460.827692 3.14942015,465.825226 9.45729033,470.464576 C15.7200111,475.111952 23.439552,477.427614 32.6530356,477.427614 C41.4591716,477.427614 49.1797157,475.111952 55.8859038,470.464576 C62.5559723,465.870376 65.9491991,460.827692 65.9491991,455.325487 L65.9491991,21.5232116 C65.9491991,15.1772152 62.7185101,10.0472422 56.2119826,5.980788 C49.7044518,2.03372878 41.865516,0 32.6530356,0 C23.0332075,0 15.1942717,2.03372878 9.13221479,5.980788 Z M198.855933,178.299922 L110.559797,233.64604 C106.603708,237.347286 104.903082,242.970892 105.634502,250.65632 C106.315756,258.266499 109.834397,265.512473 116.060999,272.349093 C122.316696,279.229858 129.31184,283.542126 137.312311,285.374187 C145.194389,287.161099 151.177184,286.185873 155.133273,282.52175 L190.048794,260.745702 L190.048794,455.325487 C190.048794,460.827692 193.080826,465.825226 199.218132,470.464576 C205.199923,475.111952 212.882341,477.427614 222.095825,477.427614 C231.309309,477.427614 239.265633,475.111952 245.935701,470.464576 C252.641889,465.825226 256,460.827692 256,455.325487 L256,193.722951 C256,187.369931 252.723158,182.246981 246.260777,178.299922 C239.791372,174.270591 231.752776,172.312111 222.095825,172.312111 C212.475997,172.312111 204.755453,174.270591 198.855933,178.299922 Z" fill="#000000"></path>
    </g>
</svg>
