<?xml version="1.0" encoding="UTF-8" standalone="no"?>
<svg width="512px" height="122px" viewBox="0 0 512 122" version="1.1" xmlns="http://www.w3.org/2000/svg" xmlns:xlink="http://www.w3.org/1999/xlink" preserveAspectRatio="xMinYMin meet">
	<g fill-rule="evenodd">
		<g transform="translate(125.420155, 26.989147)">
			<path d="M300.883218,0.467940217 L330.827677,0.467940217 C332.063621,6.09249836 333.299764,11.7163619 334.535906,17.3406224 C343.08194,17.3406224 351.903919,17.2854534 360.450449,17.2854534 C364.623646,17.2854534 368.318083,18.5815278 371.600241,20.7993015 C375.561593,23.4761883 378.519385,27.5778441 379.630405,32.6384084 C381.509227,41.1985325 383.399658,49.7571681 385.289196,58.3148115 C386.366976,63.200641 387.769122,68.7177387 384.265692,73.1304642 C381.043466,77.1908425 376.766778,77.5064767 372.071658,77.5064767 C338.263286,77.4693666 304.453624,77.5072704 270.644954,77.5072704 C267.232117,77.5072704 264.373252,76.4035929 261.390157,74.86541 C258.591819,76.8440518 256.06635,77.5072704 252.635156,77.5072704 L206.2295,77.5072704 C207.496601,83.2089263 208.763404,88.9104829 210.030207,94.6117418 L180.039509,94.6117418 C178.803664,89.0493976 177.567522,83.4870534 176.33128,77.9247092 L149.95554,77.9247092 C146.312502,77.9247092 142.81324,76.7816394 139.758405,74.8189728 C136.796644,76.6612798 134.512787,77.4612301 131.004297,77.4612301 L43.9456427,77.4612301 C45.2745605,83.2394875 46.6035776,89.0184394 47.9319993,94.7973914 C37.9506783,94.8125728 27.9693574,94.8280518 17.9877388,94.8435309 C12.2332954,69.1056084 6.47885197,43.367686 0.724408558,17.6300611 C10.6965016,17.6271836 20.6684954,17.6244053 30.6399931,17.621627 C33.6399558,30.7936208 36.6394225,43.9659123 39.6388892,57.1382038 L49.7619031,57.1382038 C50.9665915,57.1382038 50.7295434,56.451965 50.5275217,55.5451495 C47.6903869,42.9041077 44.8529543,30.2625697 42.0161171,17.621627 C108.125438,17.621627 174.235057,17.6213294 240.346064,17.6213294 C243.711075,17.6213294 246.344303,18.3171929 249.373636,19.8619247 C252.358716,17.8674069 254.996706,17.2047836 258.643912,17.2362379 L304.57954,17.621627 C303.347367,11.9036984 302.115392,6.1858689 300.883218,0.467940217 L300.883218,0.467940217 Z M171.3495,57.083134 L162.52137,57.083134 C160.972768,57.083134 160.555329,56.3768518 160.247336,54.9884984 C159.141971,50.0311278 158.037103,45.0729635 156.931739,40.1161883 C156.6167,38.6913201 157.337667,38.4584394 158.584526,38.4584394 L167.176601,38.4584394 C168.567832,44.6665387 169.958666,50.8746379 171.3495,57.083134 L171.3495,57.083134 Z M221.991063,56.7236425 L231.420892,56.7236425 C233.235615,56.7236425 233.136291,55.7720767 232.809742,54.3021604 C231.72968,49.446396 230.649618,44.5897387 229.569854,39.7336767 C229.193196,38.0379247 228.13675,38.0668984 226.679832,38.0668984 L217.083801,38.0668984 C215.674114,38.0668984 215.661711,38.9002875 215.912353,40.0399836 C216.988247,44.8949542 218.065134,49.7504208 219.139044,54.6053914 C219.536737,56.4044363 220.245004,56.7236425 221.991063,56.7236425 L221.991063,56.7236425 Z M284.065109,56.7236425 L293.49484,56.7236425 C295.309562,56.7236425 295.210337,55.7720767 294.883491,54.3021604 C293.803726,49.446396 292.723367,44.5897387 291.643801,39.7336767 C291.267243,38.0379247 290.210796,38.0668984 288.753481,38.0668984 L279.157847,38.0668984 C277.748061,38.0668984 277.735757,38.9002875 277.986102,40.0399836 C279.061897,44.8949542 280.139181,49.7504208 281.212992,54.6053914 C281.610784,56.4044363 282.318951,56.7236425 284.065109,56.7236425 L284.065109,56.7236425 Z M339.421537,37.9270906 L348.249667,37.9270906 C349.798368,37.9270906 350.216005,38.6333728 350.523702,40.0217263 C351.629066,44.9789976 352.733934,49.9372611 353.839298,54.8940363 C354.154337,56.3189046 353.433469,56.5517852 352.18661,56.5517852 L343.594436,56.5517852 C342.203305,50.343686 340.812471,44.1354875 339.421537,37.9270906 L339.421537,37.9270906 Z" fill="#000000" transform="translate(193.611348, 47.655736) scale(1, -1) translate(-193.611348, -47.655736) "></path>
			<path d="M215.086802,73.7355371 L252.698461,73.7355371 C258.568204,73.7355371 262.306002,68.9325604 261.005959,63.0642069 L254.304812,32.8150286 C253.004768,26.946179 247.138399,22.1437976 241.26945,22.1437976 L203.658089,22.1437976 C197.78924,22.1437976 194.05035,26.9455836 195.350592,32.8150286 L202.05154,63.0642069 C203.35208,68.9339495 209.217357,73.7355371 215.086802,73.7355371 L215.086802,73.7355371 Z M221.90444,61.5912146 L240.500458,61.5912146 C243.607584,61.5912146 245.585233,59.0496704 244.897506,55.944827 L241.350716,39.9339123 C240.66279,36.8292673 237.558145,34.2878224 234.452111,34.2878224 L215.855795,34.2878224 C212.74976,34.2878224 210.771119,36.8287712 211.459044,39.9339123 L215.005835,55.944827 C215.69386,59.0508611 218.797314,61.5912146 221.90444,61.5912146 L221.90444,61.5912146 Z" fill="#66CCFF" transform="translate(228.178266, 47.939667) scale(1, -1) translate(-228.178266, -47.939667) "></path>
			<path d="M277.086827,73.7355371 L314.698784,73.7355371 C320.568824,73.7355371 324.306523,68.9325604 323.00648,63.0642069 L316.30563,32.8150286 C315.005289,26.946179 309.13892,22.1437976 303.269773,22.1437976 L265.658114,22.1437976 C259.789165,22.1437976 256.050275,26.9455836 257.350616,32.8150286 L264.051565,63.0642069 C265.352105,68.9339495 271.217382,73.7355371 277.086827,73.7355371 L277.086827,73.7355371 Z M283.904464,61.5912146 L302.501277,61.5912146 C305.608204,61.5912146 307.585754,59.0496704 306.897829,55.944827 L303.351038,39.9339123 C302.663013,36.8292673 299.558666,34.2878224 296.452632,34.2878224 L277.855819,34.2878224 C274.749785,34.2878224 272.771044,36.8287712 273.459069,39.9339123 L277.00586,55.944827 C277.693785,59.0508611 280.797339,61.5912146 283.904464,61.5912146 L283.904464,61.5912146 Z" fill="#66CCFF" transform="translate(290.178524, 47.939667) scale(1, -1) translate(-290.178524, -47.939667) "></path>
			<path d="M328.457395,22.1337759 L319.031038,64.6019929 L317.021736,73.7058689 L313.201581,90.9957914 L327.663596,90.9957914 L331.508557,73.7058689 L362.169023,73.7306354 C368.035392,73.7338106 373.892529,68.9308378 375.192278,63.0639687 L381.889953,32.8252091 C383.189702,26.957951 379.449618,22.1337362 373.579875,22.1337362 L328.457395,22.1337362 L328.457395,22.1337759 Z M340.24034,34.2888146 L361.40003,34.2888146 C364.506854,34.2888146 366.478157,36.8402813 365.790728,39.9446286 L362.243441,55.9446286 C361.555718,59.0477852 358.452458,61.6004425 355.347317,61.6004425 L334.187627,61.6004425 L340.24034,34.2888146 L340.24034,34.2888146 Z" fill="#66CCFF"></path>
			<path d="M190.683751,4.47176037 L186.83879,21.7616829 L156.178325,21.7369163 C150.31136,21.7337411 144.454819,26.5358249 143.155069,32.403583 L136.432588,62.6671489 C135.132545,68.5346133 138.872923,73.3338156 144.742666,73.3338156 L189.889953,73.3338156 L201.325612,21.7617225 L205.145767,4.47180006 L190.683751,4.47180006 L190.683751,4.47176037 Z M163.00003,33.8919154 L184.15972,33.8919154 L178.082201,61.1787371 L156.947317,61.1787371 C153.840692,61.1787371 151.868888,58.6509812 152.556619,55.5477294 L156.103906,39.5229232 C156.791534,36.4194649 159.894889,33.8919154 163.00003,33.8919154 L163.00003,33.8919154 Z" fill="#66CCFF"></path>
			<path d="M28.5504179,4.47176037 L22.6961543,30.8655588 L22.7705332,30.8655588 L22.5224712,31.9074193 C22.4296603,32.209285 22.3426917,32.5169454 22.2744092,32.8252487 L17.4123937,54.7291247 L17.4620061,54.7291247 L13.3193704,73.3337759 L27.7813859,73.3337759 L31.9240216,54.7291247 L31.9487881,54.7291247 L35.2232067,39.9446286 C35.2287633,39.9210528 35.2184439,39.8937461 35.2232067,39.8702497 L36.488323,34.2888543 L57.5984005,34.2888543 C60.7036448,34.2888543 62.7013338,36.8386302 62.0139044,39.9446683 L58.6898734,54.927614 L54.6216563,73.3338156 L69.108478,73.3338156 L73.2015013,54.927614 L73.2262678,54.927614 L78.1130895,32.8252884 C79.4128392,26.9560459 75.6725562,22.1338156 69.803012,22.1338156 L39.1177407,22.1338156 L43.0371205,4.47180006 L28.5502988,4.47180006 L28.5504179,4.47176037 Z" fill="#66CCFF"></path>
			<path d="M131.001221,21.7427309 L82.7517698,21.7427309 C76.882821,21.7427309 73.143931,26.5462038 74.4439744,32.4145573 L76.3880861,41.1915867 L76.3970163,41.1915867 L76.7707962,42.8794007 C78.0699465,48.747258 83.9385977,53.5532115 89.8061574,53.5507309 L123.566306,53.5355495 L124.064415,55.776641 C124.594374,58.7017883 122.750381,61.0723681 119.850833,61.191041 L80.7698535,61.191041 L83.4601357,73.3297077 L131.959633,73.3159154 C137.707925,73.2026007 141.342728,68.4471526 140.058461,62.648058 L139.145692,58.5282441 L139.15363,58.5282441 L138.045686,53.5292984 L138.056402,53.5292984 L132.365264,27.8496208 L132.354548,27.8496208 L131.001122,21.7427309 L131.001221,21.7427309 Z M93.4964272,33.8873511 L119.200316,33.8873511 L120.871658,41.4070038 L95.6076334,41.4070038 C95.4861822,41.4194069 95.3609605,41.4264518 95.2332582,41.4264518 L95.2332582,41.4264518 C93.1637264,41.4264518 91.0975682,39.7337759 90.6413326,37.6644425 L90.6413326,37.6644425 C90.1898597,35.6191216 91.4730349,33.9424208 93.5000985,33.9025325 C93.4991062,33.897472 93.498114,33.8921139 93.4961295,33.8873511 L93.4964272,33.8873511 Z" fill="#66CCFF" transform="translate(107.251173, 47.536219) scale(1, -1) translate(-107.251173, -47.536219) "></path>
		</g>
		<g>
			<path d="M16.8567744,41.8506893 C16.2633109,40.2354087 15.6690535,38.6195328 15.07559,37.0033591 C13.6058721,35.5489219 12.1362535,34.0919048 10.6661388,32.6366738 C9.05919305,31.044711 8.71359305,31.0556258 9.09104422,28.803818 C9.53428143,26.1579886 10.8064427,23.4313901 13.1483465,21.0833343 C15.6105109,18.6152165 20.7802225,15.1222056 24.5002597,16.7687421 C24.1545605,15.5187079 23.6955465,14.2080475 23.1113109,12.9265591 C20.6167993,7.45708934 26.6961047,6.38575911 30.9505667,5.23504903 C34.4863434,4.27901802 43.1637512,1.7313219 44.4159682,6.37841647 C44.979069,8.46938082 45.0664861,9.59300252 44.8659527,11.5894056 C45.9662566,14.0452196 46.3176117,14.4367607 47.2282969,15.7882025 C48.4780334,17.6417219 48.3882349,18.3472103 48.1148706,20.6473405 C48.0619838,21.0906769 47.9975869,21.5741002 47.923069,22.0821312 C52.1335744,21.44868 56.1818473,21.4563204 60.3081109,21.9682211 C59.0552985,21.2383235 57.798914,20.599018 56.1419589,19.7470738 C52.209283,17.7255669 55.9152303,11.7615607 57.6101884,9.14976531 C61.1673977,3.66809089 64.3568799,-0.103344766 70.3659341,3.14835136 C72.3845636,4.24101492 72.5403465,5.4049219 73.8002039,7.28602578 C74.4960675,7.66774361 78.0824489,10.7178149 80.2152861,12.4408537 C81.0236706,11.4710304 82.5709822,11.2924258 84.9175496,11.1228506 C86.0983248,11.0370211 90.7288489,11.0662924 91.9562597,11.0584537 C95.6385915,11.0353343 97.8485264,11.4175483 98.136576,15.4306955 C98.2730101,17.3337281 98.1913481,17.7384661 97.2550628,19.40197 C97.1985047,21.5012692 97.1425419,23.6009653 97.0865791,25.6997684 C97.0224799,28.0643948 96.571007,29.514863 95.6431558,31.7240041 C94.7993481,33.7302304 94.3267403,35.4425529 93.3415372,37.3881529 C93.4767807,38.150894 93.5839434,38.9379452 93.6567744,39.7603204 C94.9086938,38.5545405 96.1603155,37.3478676 97.4123341,36.1417901 C99.79879,33.843049 101.770784,31.9655172 105.409556,32.1373746 C109.19905,32.3159793 113.537357,35.301356 114.648378,38.9531266 C115.018784,40.1721033 115.388098,41.3907824 115.758505,42.609263 C121.473258,41.529201 128.151981,41.7764692 133.127906,44.4313281 C140.446133,48.3370149 143.870281,56.1893684 144.711906,64.4957746 C145.392787,71.2152785 144.082126,82.5149002 140.878455,88.646001 C139.936514,90.4489157 135.682647,92.7301932 133.817816,90.8404568 C132.412892,89.4163824 131.447832,87.2469312 129.930982,85.9508568 C128.75616,84.9469994 127.30083,84.4499824 126.025593,83.924587 C125.038306,86.5898645 123.619392,88.66148 121.881965,90.7315079 C120.500359,92.3766552 119.198629,93.1965498 117.376663,94.3374366 C113.77639,96.5920227 110.982616,99.438187 107.706709,102.138888 C97.7936551,110.312531 89.2808613,110.061889 76.9295558,104.863303 C71.0369915,102.382782 68.1947962,99.0165808 64.5805326,94.1818521 C62.3964954,94.0679421 60.8959186,93.6449467 58.5872551,91.6074645 C56.883069,90.1035141 55.2964644,88.5562025 53.760762,86.9530273 C42.2152613,85.1130025 35.0449791,82.9128909 27.4591434,76.1878304 C24.3722597,73.451111 22.1282907,70.4184041 20.3779651,67.0092382 C18.7530597,65.2135669 17.1374814,63.3729467 14.9920427,62.5469002 C13.4816427,61.9660382 13.5097233,61.9675266 12.9775807,63.3881281 C14.7734504,64.7376847 14.7450721,67.2781374 14.9112737,69.5774738 C16.0442225,69.5234955 16.4689047,68.2527235 17.2392861,67.2803204 C17.6938349,69.3136351 17.957376,72.4713653 15.8174938,73.5796072 C16.1654752,74.5097405 16.5591993,75.4472165 16.9197822,76.4730025 C13.7634411,75.9250831 2.94228143,68.6312661 8.71607367,63.0683266 C9.09610468,61.523694 9.3953667,60.4596072 9.89744422,59.4152661 C11.2185233,56.6678304 14.1890163,56.1970087 16.7774938,57.2065219 C16.0681357,53.9542304 15.9243589,50.4155762 16.3513233,45.4480847 C16.4537233,44.2571886 16.6255807,43.0556754 16.8567744,41.8506893" fill="#000000" transform="translate(75.967691, 55.250825) scale(1, -1) translate(-75.967691, -55.250825) "></path>
			<path d="M17.5425171,41.6061609 C17.3042783,40.9570322 17.0649481,40.3067128 16.8264117,39.6572865 L15.4549264,40.1601578 C15.6934628,40.8095841 15.9328923,41.4599035 16.1710318,42.1090322 L17.5425171,41.6061609 L17.5425171,41.6061609 Z M16.8264117,39.6572865 C16.4714845,38.6916306 16.115962,37.7246849 15.7612334,36.7588306 L14.3898473,37.261702 C14.7444768,38.2275562 15.0999993,39.1946012 15.4549264,40.1601578 L16.8264117,39.6572865 L16.8264117,39.6572865 Z M15.7612334,36.7588306 L15.5896737,36.4933051 L15.07559,37.0102663 L15.7612334,36.7588306 L15.7612334,36.7588306 Z M15.5896737,36.4933051 C14.8111558,35.722626 14.031745,34.9505578 13.2529295,34.1792834 L12.2246628,35.2132058 C13.0034783,35.9844803 13.78279,36.7565485 14.561407,37.5272275 L15.5896737,36.4933051 L15.5896737,36.4933051 Z M13.2529295,34.1792834 C12.5624241,33.4952275 11.8710256,32.8103779 11.1802225,32.1266198 L10.1519558,33.1605423 C10.8427589,33.8443004 11.5340582,34.52915 12.2246628,35.2132058 L13.2529295,34.1792834 L13.2529295,34.1792834 Z M11.1802225,32.1266198 C10.86439,31.8141609 10.7572272,31.7108678 10.6621698,31.6191841 L9.65077135,32.676226 C9.86172329,32.8792399 10.0946039,33.1036865 10.1519558,33.1605423 L11.1802225,32.1266198 L11.1802225,32.1266198 Z M10.6621698,31.6191841 C9.72667833,30.7186198 9.54162406,30.5400151 9.81101941,28.9308865 L8.3709698,28.6906632 C7.97387212,31.0614415 8.25090778,31.3286539 9.65077135,32.676226 L10.6621698,31.6191841 L10.6621698,31.6191841 Z M9.81101941,28.9308865 C10.0282225,27.6353082 10.4590566,26.3133361 11.1352737,25.0265888 L9.83810778,24.346502 C9.09183802,25.7663097 8.61426902,27.2379128 8.3709698,28.6906632 L9.81101941,28.9308865 L9.81101941,28.9308865 Z M11.1352737,25.0265888 C11.763069,23.831426 12.5987403,22.6740678 13.6653078,21.6044244 L12.6312861,20.5760585 C11.4477326,21.7630849 10.5257357,23.0377268 9.83810778,24.346502 L11.1352737,25.0265888 L11.1352737,25.0265888 Z M13.6653078,21.6044244 C15.0299465,20.2363128 17.2576427,18.5411562 19.5761295,17.6602384 L19.0619465,16.2943097 C16.5282411,17.257088 14.108545,19.0955252 12.6312861,20.5760585 L13.6653078,21.6044244 L13.6653078,21.6044244 Z M19.5761295,17.6602384 C21.1889295,17.0473268 22.8325884,16.8363748 24.2060582,17.444226 L24.7944613,16.1070725 C23.0227031,15.3228989 21.0020892,15.5568709 19.0619465,16.2943097 L19.5761295,17.6602384 L19.5761295,17.6602384 Z M24.2060582,17.444226 L25.6171341,18.0688461 L25.2059465,16.5812678 L24.5002597,16.7756492 L24.2060582,17.444226 L24.2060582,17.444226 Z M25.2059465,16.5812678 C25.0225791,15.9177516 24.8079558,15.2373671 24.561283,14.5549981 L23.1842411,15.0523128 C23.4182132,15.7000523 23.6215248,16.3436244 23.7945729,16.9699314 L25.2059465,16.5812678 L25.2059465,16.5812678 Z M24.561283,14.5549981 C24.330883,13.9184709 24.0702194,13.2733113 23.7771093,12.630533 L22.4456117,13.2363996 C22.7175869,13.8330384 22.9636644,14.4427748 23.1842411,15.0523128 L24.561283,14.5549981 L24.561283,14.5549981 Z M23.7771093,12.630533 C22.5414628,9.92139808 23.8364458,8.49484304 25.8435651,7.57929575 L25.2376985,6.24779808 C22.4914535,7.50021358 20.727038,9.46774227 22.4456117,13.2363996 L23.7771093,12.630533 L23.7771093,12.630533 Z M25.8435651,7.57929575 C27.126145,6.99456397 28.6782194,6.59032211 30.1205512,6.21455777 L29.7549078,4.80318413 C28.2394473,5.19780118 26.6088861,5.62278103 25.2376985,6.24779808 L25.8435651,7.57929575 L25.8435651,7.57929575 Z M30.1205512,6.21455777 C30.5016737,6.11582909 30.8709884,6.01938258 31.1362163,5.94764304 L30.7649171,4.5362694 C30.374269,4.64204304 30.0642907,4.72301048 29.7549078,4.80318413 L30.1205512,6.21455777 L30.1205512,6.21455777 Z M31.1362163,5.94764304 C32.8755279,5.47741668 35.8825357,4.61505389 38.5855186,4.44369265 L38.4938349,2.98111901 C35.6614628,3.16061668 32.5604892,4.05076242 30.7649171,4.5362694 L31.1362163,5.94764304 L31.1362163,5.94764304 Z M38.5855186,4.44369265 C41.0283341,4.28900118 43.2062194,4.70048645 43.7101822,6.57097327 L45.1216551,6.19967405 C44.3736985,3.4238601 41.5855807,2.78505079 38.4938349,2.98111901 L38.5855186,4.44369265 L38.5855186,4.44369265 Z M43.7101822,6.57097327 C43.9768985,7.56183219 44.13159,8.32715312 44.1959869,9.08602444 L45.6585605,8.9662601 C45.5888055,8.14180118 45.4175434,7.29918413 45.1216551,6.19967405 L43.7101822,6.57097327 L43.7101822,6.57097327 Z M44.1959869,9.08602444 C44.2606814,9.84856707 44.2341884,10.5888834 44.1403217,11.5277485 L45.5915838,11.6649764 C45.6973574,10.6079345 45.7280179,9.78724614 45.6585605,8.9662601 L44.1959869,9.08602444 L44.1959869,9.08602444 Z M44.1403217,11.5277485 L44.197376,11.8933919 L44.8659527,11.5963128 L44.1403217,11.5277485 L44.1403217,11.5277485 Z M44.197376,11.8933919 C45.1812892,14.0898322 45.586821,14.6829981 46.3029264,15.7318043 L47.5084086,14.9088337 C46.8463807,13.9393082 46.4714101,13.3902973 45.5345295,11.299333 L44.197376,11.8933919 L44.197376,11.8933919 Z M46.3029264,15.7318043 C46.3760551,15.8389671 46.4385667,15.9301547 46.6227279,16.203519 L47.8338659,15.3867004 C47.7874287,15.3175407 47.6350194,15.0944834 47.5084086,14.9088337 L46.3029264,15.7318043 L46.3029264,15.7318043 Z M46.6227279,16.203519 C47.1810659,17.0318477 47.4378597,17.5851252 47.5200179,18.1571562 L48.9657233,17.9569206 C48.8481419,17.137919 48.5243713,16.411395 47.8338659,15.3867004 L46.6227279,16.203519 L46.6227279,16.203519 Z M47.5200179,18.1571562 C47.6057481,18.7579624 47.5194225,19.4751593 47.3892396,20.5712958 L48.8405016,20.7372989 C48.9833853,19.533702 49.0787403,18.74675 48.9657233,17.9569206 L47.5200179,18.1571562 L47.5200179,18.1571562 Z M47.3892396,20.5712958 C47.3535186,20.8708554 47.3239496,21.1077051 47.3034101,21.2623965 L48.7491155,21.4451686 C48.7929729,21.1164368 48.8231372,20.88435 48.8405016,20.7372989 L47.3892396,20.5712958 L47.3892396,20.5712958 Z M47.3034101,21.2623965 C47.2871372,21.3864275 47.250821,21.6358787 47.2002163,21.9832647 L48.6459217,22.194812 C48.6684458,22.0392275 48.7024799,21.7965237 48.7491155,21.4451686 L47.3034101,21.2623965 L47.3034101,21.2623965 Z M47.2002163,21.9832647 L47.0576303,22.9587438 L48.031621,22.8118911 L47.923069,22.0890384 L47.2002163,21.9832647 L47.2002163,21.9832647 Z M48.031621,22.8118911 C50.1003589,22.5008213 52.1304985,22.3469237 54.150021,22.3337268 L54.1443651,20.8711531 C52.056576,20.8846477 49.9560861,21.044102 47.8145171,21.3661857 L48.031621,22.8118911 L48.031621,22.8118911 Z M54.150021,22.3337268 C56.1756954,22.3208275 58.1904551,22.4487283 60.2222814,22.7007593 L60.3938411,21.2493981 C58.3000985,20.989826 56.2263,20.8579562 54.1443651,20.8711531 L54.150021,22.3337268 L54.150021,22.3337268 Z M60.2222814,22.7007593 L60.6737543,21.3408834 L60.3081109,21.9751283 L60.2222814,22.7007593 L60.2222814,22.7007593 Z M60.6737543,21.3408834 C59.4932768,20.6531562 58.3149822,20.0472896 56.8116272,19.2749237 L56.1433481,20.5777454 C57.6270566,21.3399903 58.7897729,21.9380182 59.9424675,22.6093733 L60.6737543,21.3408834 L60.6737543,21.3408834 Z M56.8116272,19.2749237 C56.7019838,19.2186632 56.5894628,19.1607159 56.4761481,19.1025702 L55.8077698,20.4053919 C55.9211838,20.4635376 56.0337047,20.5214849 56.1433481,20.5777454 L56.8116272,19.2749237 L56.8116272,19.2749237 Z M56.4761481,19.1025702 C54.9311186,18.3082756 54.9170287,16.6406043 55.4626659,14.89395 L54.0687558,14.459643 C53.3210969,16.8526477 53.4207186,19.1781795 55.8077698,20.4053919 L56.4761481,19.1025702 L56.4761481,19.1025702 Z M55.4626659,14.89395 C56.0817295,12.9115376 57.3963589,10.8254353 58.2216117,9.55377017 L56.9986659,8.7594756 C56.1292582,10.0992089 54.7426907,12.3018012 54.0687558,14.459643 L55.4626659,14.89395 L55.4626659,14.89395 Z M58.2216117,9.55377017 C59.9489171,6.89156862 61.57799,4.65017948 63.4486752,3.50373606 L62.6887124,2.2582663 C60.5733388,3.55463839 58.827776,5.94039963 56.9986659,8.7594756 L58.2216117,9.55377017 L58.2216117,9.55377017 Z M63.4486752,3.50373606 C65.2161667,2.42030041 67.2829202,2.3198849 70.0202349,3.80101358 L70.7116334,2.50950351 C67.4404892,0.739134514 64.9070814,0.898390328 62.6887124,2.2582663 L63.4486752,3.50373606 L63.4486752,3.50373606 Z M70.0202349,3.80101358 C71.3138287,4.50114382 71.7480365,5.26140428 72.3327682,6.28599963 L73.606914,5.56602444 C72.9004334,4.32839343 72.3758318,3.41036552 70.7116334,2.50950351 L70.0202349,3.80101358 L70.0202349,3.80101358 Z M72.3327682,6.28599963 C72.5654504,6.69361513 72.8208551,7.14022599 73.1946349,7.69856397 L74.4057729,6.88740118 C74.1065109,6.44049265 73.8451527,5.9830663 73.606914,5.56602444 L72.3327682,6.28599963 L72.3327682,6.28599963 Z M73.1946349,7.69856397 L73.4488489,7.93561203 L73.8002039,7.29293296 L73.1946349,7.69856397 L73.1946349,7.69856397 Z M73.4488489,7.93561203 C73.8758132,8.16998103 75.6998628,9.67670971 77.4738039,11.142657 L78.4053264,10.0170508 C76.5709574,8.50099498 74.6839,6.9422725 74.1514597,6.65025389 L73.4488489,7.93561203 L73.4488489,7.93561203 Z M77.4738039,11.142657 C78.387069,11.8970632 79.2880303,12.6415469 79.7554783,13.0189981 L80.6751931,11.8765237 C79.8195776,11.1851252 79.1155776,10.6037671 78.4053264,10.0170508 L77.4738039,11.142657 L77.4738039,11.142657 Z M79.7554783,13.0189981 L80.3157016,13.4715624 L80.7781884,12.9163004 L80.2152861,12.4477609 L79.7554783,13.0189981 L79.7554783,13.0189981 Z M80.7781884,12.9163004 C81.0698101,12.5664337 81.5311062,12.3501237 82.1580086,12.1999965 L81.8210411,10.7773113 C80.886145,11.0008647 80.1686504,11.3600585 79.652483,11.9791221 L80.7781884,12.9163004 L80.7781884,12.9163004 Z M82.1580086,12.1999965 C82.8777853,12.0278415 83.8233977,11.9434012 84.9690473,11.8610446 L84.866052,10.3984709 C83.6653326,10.4850942 82.6629636,10.5758849 81.8210411,10.7773113 L82.1580086,12.1999965 L82.1580086,12.1999965 Z M84.9690473,11.8610446 C85.8674287,11.7960523 88.737407,11.7974415 90.5907279,11.7980368 L90.5907279,10.3354632 C88.697221,10.3345702 85.7653264,10.333181 84.866052,10.3984709 L84.9690473,11.8610446 L84.9690473,11.8610446 Z M90.5907279,11.7980368 C91.1785357,11.7983345 91.666821,11.7983345 91.959038,11.7966477 L91.9530845,10.334074 C91.6613636,10.3357609 91.1753605,10.3354632 90.590331,10.3354632 L90.590331,11.7980368 L90.5907279,11.7980368 Z M91.959038,11.7966477 C93.6860458,11.7859314 95.0552489,11.8627314 95.9592861,12.3749299 L96.6792613,11.1007841 C95.4861822,10.4248647 93.9082101,10.3219686 91.9534814,10.334074 L91.9594349,11.7966477 L91.959038,11.7966477 Z M95.9592861,12.3749299 C96.7853326,12.8429733 97.2817543,13.7649702 97.4052892,15.4891004 L98.8678628,15.3861051 C98.7038442,13.0977826 97.9506287,11.821057 96.6792613,11.1007841 L95.9592861,12.3749299 L95.9592861,12.3749299 Z M97.4052892,15.4891004 C97.4684954,16.374781 97.4834783,16.9030539 97.3838566,17.3558167 L98.8121977,17.6703593 C98.9530969,17.0295655 98.9403962,16.4029609 98.8678628,15.3861051 L97.4052892,15.4891004 L97.4052892,15.4891004 Z M97.3838566,17.3558167 C97.2843341,17.809274 97.0497667,18.279302 96.615162,19.0516678 L97.8949636,19.7660865 C98.3961481,18.8755438 98.6714969,18.3104585 98.8121977,17.6703593 L97.3838566,17.3558167 L97.3838566,17.3558167 Z M96.615162,19.0516678 L96.523776,19.3917113 L97.2550628,19.4088771 L96.615162,19.0516678 L96.615162,19.0516678 Z M96.523776,19.3917113 C96.4955962,20.4411128 96.4669202,21.4913082 96.4393357,22.5407097 L97.9020086,22.5750415 C97.9294938,21.5256399 97.958269,20.4753454 97.9863496,19.4259438 L96.523776,19.3917113 L96.523776,19.3917113 Z M96.4393357,22.5407097 C96.4115527,23.5901113 96.3828768,24.6404058 96.3552923,25.6895097 L97.8178659,25.7238415 C97.8454504,24.6747376 97.8741264,23.624443 97.9020086,22.5750415 L96.4393357,22.5407097 L96.4393357,22.5407097 Z M96.3552923,25.6895097 C96.3249295,26.8163066 96.2030814,27.7205423 95.9803217,28.5997733 L97.3973512,28.9542043 C97.6479931,27.9655283 97.7844272,26.9611748 97.8178659,25.7238415 L96.3552923,25.6895097 L96.3552923,25.6895097 Z M95.9803217,28.5997733 C95.7555776,29.4855531 95.4208923,30.3715314 94.9689233,31.4479221 L96.3172892,32.0138012 C96.7926752,30.8817454 97.1481977,29.9369268 97.3973512,28.9542043 L95.9803217,28.5997733 L95.9803217,28.5997733 Z M94.9689233,31.4479221 C94.6488241,32.2089764 94.3745667,32.9484989 94.1059651,33.6733361 L95.4774504,34.1762074 C95.7334504,33.4854043 95.9947093,32.7805113 96.3172892,32.0138012 L94.9689233,31.4479221 L94.9689233,31.4479221 Z M95.4774504,34.1789857 L95.4774504,34.1762074 L94.7917078,33.9247717 L95.4774504,34.1789857 L95.4774504,34.1789857 Z M94.1059651,33.6704585 C93.6880303,34.7977516 93.2823993,35.8914074 92.6872489,37.0665268 L93.9957264,37.7234942 C94.6204458,36.4902291 95.0426473,35.3522198 95.4774504,34.1789857 L94.1059651,33.6704585 L94.1059651,33.6704585 Z M92.6872489,37.0665268 L92.6214628,37.5207779 L93.3415372,37.3950601 L92.6872489,37.0665268 L92.6872489,37.0665268 Z M92.6214628,37.5207779 C92.6935,37.9285919 92.7539279,38.3071345 92.7997698,38.6500554 L94.2454752,38.4671841 C94.1858411,38.0208709 94.1242225,37.623674 94.0615124,37.2693423 L92.6214628,37.5207779 L92.6214628,37.5207779 Z M92.7997698,38.6500554 C92.8411465,38.9614229 92.8833171,39.3512771 92.9254876,39.8271593 L94.3880613,39.7072958 C94.3574008,39.3613981 94.3090783,38.9450508 94.2454752,38.4671841 L92.7997698,38.6500554 L92.7997698,38.6500554 Z M92.9254876,39.8271593 L93.0616241,41.356412 L94.1625233,40.2956989 L93.6567744,39.7672275 L92.9254876,39.8271593 L92.9254876,39.8271593 Z M94.1625233,40.2956989 C94.8786287,39.6060865 95.5953295,38.9152834 96.3114349,38.225274 L95.2999372,37.1683314 C94.5838318,37.8582415 93.8672303,38.5490446 93.1511248,39.2387562 L94.1625233,40.2956989 L94.1625233,40.2956989 Z M96.3114349,38.225274 L97.9179838,36.6772678 L96.9065853,35.620226 L95.2999372,37.1683314 L96.3114349,38.225274 L96.3114349,38.225274 Z M97.9179838,36.6772678 C99.0776241,35.5599965 100.136948,34.5449268 101.312663,33.8513454 L100.570064,32.588412 C99.2537481,33.3650446 98.1329047,34.438657 96.9065853,35.620226 L97.9179838,36.6772678 L97.9179838,36.6772678 Z M101.312663,33.8513454 C102.443329,33.1841578 103.718567,32.7973795 105.375224,32.8756678 L105.443888,31.412995 C103.462071,31.3193268 101.931131,31.7853857 100.570064,32.588412 L101.312663,33.8513454 L101.312663,33.8513454 Z M105.375224,32.8756678 C107.162957,32.9597113 109.093872,33.7270167 110.699032,34.9111655 L111.567646,33.7343593 C109.739429,32.3856958 107.519373,31.5109299 105.443888,31.412995 L105.375224,32.8756678 L105.375224,32.8756678 Z M110.699032,34.9111655 C112.230864,36.0410384 113.452123,37.5401268 113.948247,39.1714818 L115.348409,38.7484865 C114.755739,36.8004058 113.336229,35.0391655 111.567646,33.7343593 L110.699032,34.9111655 L110.699032,34.9111655 Z M113.948247,39.1714818 C114.119311,39.7345826 114.290573,40.2982787 114.461339,40.8610818 L115.861401,40.4380865 C115.690734,39.8752834 115.519373,39.3115872 115.348409,38.7484865 L113.948247,39.1714818 L113.948247,39.1714818 Z M114.461339,40.8610818 C114.659888,41.5164616 114.859528,42.1726353 115.058474,42.8277175 L116.458536,42.4046229 C116.259689,41.7496399 116.060049,41.0933671 115.861401,40.4380865 L114.461339,40.8610818 L114.461339,40.8610818 Z M115.058474,42.8277175 L115.249085,43.4549175 L115.892657,43.3331686 L115.758505,42.6161702 L115.058474,42.8277175 L115.058474,42.8277175 Z M115.892657,43.3331686 C118.85412,42.7734415 122.079125,42.5779686 125.178412,42.9028306 L125.321295,41.4514694 C122.080812,41.1117237 118.713519,41.3156306 115.624353,41.8992709 L115.892657,43.3331686 L115.892657,43.3331686 Z M125.178412,42.9028306 C127.901339,43.1883004 130.527522,43.8795996 132.784985,45.0839903 L133.470728,43.7924803 C131.045376,42.4982911 128.232948,41.7568834 125.321295,41.4514694 L125.178412,42.9028306 L125.178412,42.9028306 Z M132.784985,45.0839903 C136.091553,46.8487035 138.574852,49.4552399 140.362883,52.5525423 L141.631373,51.826812 C139.710083,48.4989113 137.036669,45.6955128 133.470728,43.7924803 L132.784985,45.0839903 L132.784985,45.0839903 Z M140.362883,52.5525423 L140.362883,52.555519 L140.997128,52.1898756 L140.362883,52.5527407 L140.362883,52.5525423 Z M140.362883,52.555519 C142.406021,56.0944709 143.55048,60.2701485 143.986176,64.5715438 L145.437537,64.4343159 C144.980706,59.9250446 143.778598,55.5433764 141.631373,51.8242322 L140.362883,52.555519 L140.362883,52.555519 Z M143.986176,64.5715438 C144.341103,68.0769578 144.144539,72.8577082 143.410672,77.4813857 L144.850821,77.7098012 C145.603441,72.9679469 145.803776,68.0510601 145.437537,64.4343159 L143.986176,64.5715438 L143.986176,64.5715438 Z M143.410672,77.4813857 C142.763528,81.5598229 141.698945,85.5040089 140.229823,88.3158415 L141.527088,88.9902725 C143.068743,86.0395252 144.18026,81.936381 144.850821,77.7098012 L143.410672,77.4813857 L143.410672,77.4813857 Z M140.229823,88.3158415 C140.114821,88.536319 139.923615,88.7768399 139.678033,89.0192461 L140.700743,90.0650756 C141.053388,89.7164989 141.339156,89.350657 141.527088,88.9902725 L140.229823,88.3158415 L140.229823,88.3158415 Z M139.678033,89.0192461 C139.051032,89.6378136 138.119509,90.2236368 137.154747,90.5555438 L137.628942,91.9382415 C138.800787,91.5351903 139.934827,90.8207717 140.700743,90.0650756 L139.678033,89.0192461 L139.678033,89.0192461 Z M137.154747,90.5555438 C136.259739,90.8635376 135.357785,90.948474 134.713618,90.6118043 L134.039187,91.9089702 C135.078467,92.4521268 136.387441,92.3652058 137.628942,91.9382415 L137.154747,90.5555438 L137.154747,90.5555438 Z M134.713618,90.6118043 C134.578672,90.5414539 134.452657,90.4497702 134.340731,90.3361578 L133.294902,91.3588678 C133.518852,91.585795 133.769395,91.7683686 134.039187,91.9089702 L134.713618,90.6118043 L134.713618,90.6118043 Z M134.340731,90.3361578 C133.742703,89.7299934 133.217903,88.963581 132.691912,88.1951841 L131.48643,89.0181547 C132.054592,89.8484678 132.62186,90.6764989 133.294902,91.3588678 L134.340731,90.3361578 L134.340731,90.3361578 Z M132.691912,88.1951841 C132.000018,87.1845795 131.304948,86.1695097 130.405178,85.4008151 L129.456787,86.5151097 C130.217643,87.1651314 130.853574,88.0938756 131.48643,89.0181547 L132.691912,88.1951841 L132.691912,88.1951841 Z M130.405178,85.4008151 C129.303782,84.4596678 128.026858,83.9474694 126.841023,83.4718849 L126.298164,84.8314632 C127.376539,85.2637857 128.537568,85.7298446 129.456787,86.5151097 L130.405178,85.4008151 L130.405178,85.4008151 Z M126.841023,83.4718849 C126.634238,83.3891314 126.431423,83.3075686 126.302629,83.2546818 L125.748557,84.6087035 C125.975782,84.702074 126.137519,84.7670663 126.298164,84.8314632 L126.841023,83.4718849 L126.841023,83.4718849 Z M126.302629,83.2546818 L125.604285,82.9669299 L125.33985,83.680257 L126.025593,83.9316927 L126.302629,83.2546818 L126.302629,83.2546818 Z M125.33985,83.680257 C124.867044,84.957181 124.286778,86.0977702 123.615125,87.1699934 L124.854939,87.9468244 C125.573624,86.7997857 126.19745,85.5709857 126.711336,84.1831283 L125.33985,83.680257 L125.33985,83.680257 Z M123.615125,87.1699934 C122.936427,88.2536275 122.166939,89.2631407 121.32194,90.270074 L122.44199,91.2072523 C123.333624,90.1446539 124.143596,89.0822539 124.854939,87.9468244 L123.615125,87.1699934 L123.615125,87.1699934 Z M121.32194,90.270074 C120.66914,91.0475004 120.035689,91.6297516 119.351733,92.1505826 L120.237116,93.3105206 C121.004421,92.7260865 121.713481,92.0746756 122.44199,91.2072523 L121.32194,90.270074 L121.32194,90.270074 Z M119.351733,92.1505826 C118.669066,92.670719 117.893326,93.1581113 116.988198,93.7245857 L117.765029,94.9643996 C118.681469,94.3906818 119.468123,93.896443 120.237116,93.3105206 L119.351733,92.1505826 L119.351733,92.1505826 Z M116.988198,93.7245857 C114.438219,95.3213113 112.300917,97.1962632 110.120452,99.1092182 L111.080154,100.211705 C113.214678,98.3390353 115.307032,96.5037733 117.765029,94.9643996 L116.988198,93.7245857 L116.988198,93.7245857 Z M110.120452,99.1092182 C109.202424,99.9141299 108.27626,100.726781 107.240849,101.580412 L108.172471,102.711674 C109.130685,101.921547 110.110133,101.062558 111.080154,100.211705 L110.120452,99.1092182 L110.120452,99.1092182 Z M107.240849,101.580412 C102.410982,105.5628 97.9379279,107.492325 93.1865481,107.791587 L93.2782318,109.254161 C98.3489171,108.934955 103.089978,106.902235 108.172471,102.711674 L107.240849,101.580412 L107.240849,101.580412 Z M93.1865481,107.791587 C88.3999434,108.092834 83.2851031,106.752307 77.212545,104.196176 L76.6465667,105.544542 C82.9245202,108.187097 88.2426721,109.570886 93.2782318,109.254161 L93.1865481,107.791587 L93.1865481,107.791587 Z M77.212545,104.196176 C74.3506039,102.991786 72.2326504,101.574756 70.3949078,99.875333 L69.4065295,100.949739 C71.3661202,102.761981 73.6165388,104.269305 76.6465667,105.544542 L77.212545,104.196176 L77.212545,104.196176 Z M70.3949078,99.875333 C68.5432737,98.1630105 66.9513109,96.1401144 65.1661574,93.7518725 L63.9949078,94.626043 C65.8234225,97.0722322 67.4610287,99.1504958 69.4065295,100.949739 L70.3949078,99.875333 L70.3949078,99.875333 Z M65.1661574,93.7518725 L64.9596706,93.4754322 L64.6176427,93.4576709 L64.5805326,94.1889578 L65.1661574,93.7518725 L65.1661574,93.7518725 Z M64.6176427,93.4576709 C63.6005884,93.4047841 62.7489419,93.2818446 61.9020582,92.9431903 L61.3591993,94.3028678 C62.3846876,94.712964 63.3761419,94.8598167 64.5434225,94.9202446 L64.6176427,93.4576709 L64.6176427,93.4576709 Z M61.9020582,92.9431903 C61.042176,92.5995748 60.1559,92.0243686 59.0701822,91.0660554 L58.1043279,92.1629857 C59.3264799,93.2416585 60.3463124,93.8978322 61.3591993,94.3028678 L61.9020582,92.9431903 L61.9020582,92.9431903 Z M59.0701822,91.0660554 C58.2340148,90.328319 57.4191807,89.5725237 56.6192303,88.7987686 L55.602176,89.8501547 C56.4049047,90.626688 57.2364086,91.3973671 58.1043279,92.1629857 L59.0701822,91.0660554 L59.0701822,91.0660554 Z M56.6192303,88.7987686 L56.616452,88.7957919 L56.1107031,89.3242632 L56.6192303,88.7985702 L56.6192303,88.7987686 Z M56.616452,88.7957919 C55.8241419,88.0295779 55.0503869,87.2487779 54.2892334,86.4541857 L53.2322907,87.4656834 C54.0060458,88.2734725 54.7946845,89.0691562 55.6050535,89.8527345 L56.616452,88.7957919 L56.616452,88.7957919 Z M54.2892334,86.4541857 L53.8749698,86.2398601 L53.760762,86.9599345 L54.2892334,86.4541857 L54.2892334,86.4541857 Z M53.8749698,86.2398601 C48.1582318,85.3288771 43.5254256,84.3289888 39.3877512,82.7263097 L38.8622566,84.0921392 C43.092607,85.7305392 47.8183869,86.7512647 53.6465543,87.6800089 L53.8749698,86.2398601 L53.8749698,86.2398601 Z M39.3877512,82.7263097 C35.2856985,81.1374229 31.6654814,78.9471345 27.9420706,75.6462229 L26.9762163,76.7431531 C30.8380458,80.1670043 34.5974752,82.4402446 38.8622566,84.0921392 L39.3877512,82.7263097 L39.3877512,82.7263097 Z M27.9420706,75.6462229 C26.4333574,74.3087717 25.1322225,72.9010694 23.9972892,71.4148803 L22.8373512,72.3002632 C24.0330101,73.8663283 25.3983434,75.3444803 26.9762163,76.7431531 L27.9420706,75.6462229 L27.9420706,75.6462229 Z M23.9972892,71.4148803 C22.8618597,69.9280958 21.8861822,68.353795 21.029376,66.6847345 L19.7265543,67.347457 C20.6195776,69.0870663 21.64199,70.7346942 22.8373512,72.3002632 L23.9972892,71.4148803 L23.9972892,71.4148803 Z M21.029376,66.6847345 L20.9208241,66.5275624 L20.3779651,67.0161454 L21.029376,66.6847345 L21.029376,66.6847345 Z M20.9208241,66.5275624 C20.0891217,65.6086415 19.2591062,64.677119 18.3688613,63.8757795 L17.3917946,64.9670539 C18.2512799,65.7411066 19.0423,66.6285733 19.8351062,67.5046291 L20.9208241,66.5275624 L20.9208241,66.5275624 Z M18.3688613,63.8757795 C17.435652,63.035643 16.4239558,62.3212244 15.2546907,61.870843 L14.7292954,63.2367717 C15.7049729,63.6125361 16.574976,64.2317981 17.3917946,64.9670539 L18.3688613,63.8757795 L18.3688613,63.8757795 Z M15.2546907,61.870843 L15.2519124,61.870843 L14.9920427,62.5538074 L15.2546907,61.870843 L15.2546907,61.870843 Z M15.2519124,61.870843 C14.3135434,61.5102601 13.8548272,61.3294725 13.3350876,61.5496523 L13.9009667,62.8981175 C13.9245822,62.888195 14.1603403,63.017088 14.7320737,63.2367717 L15.2519124,61.870843 L15.2519124,61.870843 Z M13.3350876,61.5496523 L13.3322101,61.5526291 L13.6179776,62.2239841 L13.3350876,61.5497516 L13.3350876,61.5496523 Z M13.3322101,61.5526291 C12.7840923,61.785212 12.6310876,62.2354942 12.291838,63.1409206 L13.6633233,63.6494477 C13.8559186,63.1347686 13.8520489,62.9172678 13.903745,62.8953392 L13.3322101,61.5526291 L13.3322101,61.5526291 Z M12.291838,63.1409206 L12.1011279,63.6502415 L12.5404954,63.9807593 L12.9775807,63.3951345 L12.291838,63.1409206 L12.291838,63.1409206 Z M12.5404954,63.9807593 C13.8843962,64.9905702 14.0118008,67.0015593 14.134145,68.9384275 L15.5967186,68.8467438 C15.4538349,66.5819376 15.3045016,64.2297144 13.4146659,62.8096089 L12.5404954,63.9807593 L12.5404954,63.9807593 Z M14.134145,68.9384275 C14.1499217,69.1918477 14.1661946,69.4437795 14.1799869,69.6359779 L15.6425605,69.5329826 C15.6234101,69.26835 15.6099155,69.0568027 15.5967186,68.8467438 L14.134145,68.9384275 L14.134145,68.9384275 Z M14.1799869,69.6359779 L14.2319807,70.3495035 L14.9456055,70.3157671 L14.9112737,69.5844803 L14.1799869,69.6359779 L14.1799869,69.6359779 Z M14.9456055,70.3157671 C16.1519807,70.2584151 16.7015869,69.4072647 17.2944551,68.4892368 L16.0658535,67.7004989 C15.6870132,68.2872151 15.3354597,68.8314632 14.8769419,68.8531934 L14.9456055,70.3157671 L14.9456055,70.3157671 Z M17.2944551,68.4892368 C17.4598628,68.2329392 17.630331,67.9691004 17.8106225,67.7415779 L16.6680489,66.8330756 C16.4408241,67.1200337 16.2507093,67.4142353 16.0658535,67.7004989 L17.2944551,68.4892368 L17.2944551,68.4892368 Z M17.9535062,67.1301547 L17.6190194,65.6335469 L16.6680489,66.8330756 L17.2392861,67.2873268 L17.9535062,67.1301547 L17.9535062,67.1301547 Z M16.5251651,67.4445981 C16.7721357,68.5490694 16.9614566,69.9973547 16.6939465,71.1828927 L18.1166318,71.5029919 C18.4434783,70.0550043 18.2339155,68.3845547 17.9535062,67.1301547 L16.5251651,67.4445981 L16.5251651,67.4445981 Z M16.6939465,71.1828927 C16.5240737,71.9367035 16.1601171,72.5847407 15.4834039,72.9352027 L16.151683,74.2380244 C17.2705419,73.6583531 17.8572582,72.6536027 18.1166318,71.5029919 L16.6939465,71.1828927 L16.6939465,71.1828927 Z M15.4834039,72.9352027 L14.9051217,73.2347624 L15.1317512,73.8408275 L15.8174938,73.5866136 L15.4834039,72.9352027 L15.4834039,72.9352027 Z M15.1317512,73.8408275 C15.239807,74.1297702 15.3970783,74.5308368 15.5587155,74.9429175 L16.9183931,74.4112709 C16.7918814,74.0886911 16.6649729,73.7643252 16.5032365,73.3323004 L15.1317512,73.8408275 L15.1317512,73.8408275 Z M15.5587155,74.9429175 C15.7742318,75.4930198 15.9956024,76.057212 16.228483,76.7199345 L17.6111807,76.2400834 C17.403007,75.6480089 17.1572272,75.0213051 16.9183931,74.4112709 L15.5587155,74.9429175 L15.5587155,74.9429175 Z M16.7969419,77.2000834 L18.0237574,77.4129206 L17.6111807,76.2400834 L16.9197822,76.4800089 L16.7969419,77.2000834 L16.7969419,77.2000834 Z M17.0427217,75.7599345 C15.6265853,75.5141547 12.5078504,73.7641268 10.2439372,71.4143841 L9.18689538,72.4257826 C11.6567,74.9892554 15.1646938,76.9167965 16.7969419,77.2000834 L17.0427217,75.7599345 L17.0427217,75.7599345 Z M10.2439372,71.4143841 C9.42344732,70.5627376 8.72788143,69.6429237 8.28861321,68.7055469 L6.96326747,69.3169702 C7.48102251,70.4218384 8.2697605,71.4737206 9.18689538,72.4257826 L10.2439372,71.4143841 L10.2439372,71.4143841 Z M8.28861321,68.7055469 C7.86948763,67.8116306 7.6781822,66.8966787 7.83237755,66.0084182 L6.39222871,65.7626384 C6.18326127,66.9664337 6.424576,68.1680461 6.96326747,69.3169702 L8.28861321,68.7055469 L8.28861321,68.7055469 Z M7.83237755,66.0084182 C7.9721853,65.2015221 8.40559926,64.3902601 9.22182251,63.6039035 L8.21032484,62.5468616 C7.15229073,63.5664958 6.58432794,64.6540989 6.39222871,65.7626384 L7.83237755,66.0084182 L7.83237755,66.0084182 Z M9.22182251,63.6039035 L9.42463802,63.2497702 L8.71607367,63.075333 L9.22182251,63.6039035 L9.22182251,63.6039035 Z M9.42463802,63.2497702 C9.61028763,62.4942725 9.77678685,61.8555624 9.95787212,61.2783717 L8.56396205,60.8440647 C8.37523647,61.4454663 8.2013946,62.1123562 8.00760856,62.900995 L9.42463802,63.2497702 L9.42463802,63.2497702 Z M9.95787212,61.2783717 C10.1311186,60.7261857 10.3201419,60.229764 10.5572892,59.7364182 L9.23759926,59.1081268 C8.97286747,59.6588244 8.76052639,60.2179562 8.56396205,60.8440647 L9.95787212,61.2783717 L9.95787212,61.2783717 Z M10.5572892,59.7364182 C11.0832799,58.6423655 11.9154783,57.9762694 12.8745853,57.6682756 L12.4290659,56.2743655 C11.1032241,56.7001392 9.95648298,57.6129082 9.23759926,59.1081268 L10.5572892,59.7364182 L10.5572892,59.7364182 Z M12.8745853,57.6682756 C13.9935434,57.3090818 15.2954721,57.4191221 16.5116706,57.8933175 L17.0433171,56.5336399 C15.5227962,55.9407717 13.8730845,55.8107872 12.4290659,56.2743655 L12.8745853,57.6682756 L12.8745853,57.6682756 Z M16.5116706,57.8933175 L17.7816489,58.3886477 L17.4916148,57.059333 L16.7774938,57.2135283 L16.5116706,57.8933175 L16.5116706,57.8933175 Z M17.4916148,57.059333 C17.1471062,55.4788803 16.9392303,53.8225206 16.8694752,51.9518353 L15.4069016,52.0030353 C15.4797326,53.9563748 15.6991186,55.6965795 16.0633729,57.3676244 L17.4916148,57.059333 L17.4916148,57.059333 Z M16.8694752,51.9518353 C16.8000179,50.0805547 16.8708644,47.9811562 17.0827093,45.5150229 L15.6200365,45.3951593 C15.4052148,47.8962198 15.334269,50.050688 15.4069016,52.0030353 L16.8694752,51.9518353 L16.8694752,51.9518353 Z M17.0827093,45.5150229 C17.1366876,44.8872275 17.2013822,44.3089454 17.2756024,43.7801764 L15.8298969,43.5860927 C15.7379155,44.2422663 15.667069,44.8470415 15.6200365,45.3951593 L17.0827093,45.5150229 L17.0827093,45.5150229 Z M17.2756024,43.7801764 C17.3574628,43.1974291 17.4575807,42.601088 17.5737729,41.9949237 L16.1398752,41.7204678 C16.0222938,42.3332803 15.918207,42.955519 15.8298969,43.5860927 L17.2756024,43.7801764 L17.2756024,43.7801764 Z M17.5737729,41.9949237 L17.5425171,41.6062601 L16.8567744,41.8576958 L17.5737729,41.9949237 Z" fill="#000000" transform="translate(75.966520, 55.254278) scale(1, -1) translate(-75.966520, -55.254278) "></path>
			<path d="M54.1621264,85.8552518 L44.5334504,84.2904767 L35.7472923,80.439165 L28.2849915,75.7450379 L21.183869,67.0792394 L17.1721109,62.8304332 L13.2931155,61.400703 L12.267131,63.9082131 L14.0610163,66.4975836 L14.4640675,70.1492549 L15.6656799,70.1008332 L16.9786225,68.9032891 L16.6244892,72.6230286 L15.1691589,73.5993015 L15.213314,75.016827 L11.7658473,73.0665635 L8.64403647,69.3833387 L7.99322096,66.0914565 L9.32809228,63.4553511 L10.5732644,58.9770379 L13.1055807,57.7780053 L15.769469,57.9087836 L18.2952365,59.3764177 L16.6103993,50.830979 L18.2952365,41.3227619 L16.4405264,36.9324611 L10.3656861,30.3870968 L11.4457481,26.4766472 L14.3234659,21.9451495 L19.7498721,18.1263836 L22.6280861,17.7325604 L25.8280861,17.6240084 L23.831683,9.42794022 L31.1736241,6.41884874 L40.3209605,5.21535107 L43.4500148,7.26126735 L43.6908334,12.7977139 L47.1813636,18.574979 L47.422083,23.1486472 L55.847162,22.5467495 L63.6703434,23.2690069 L55.847162,18.574979 L57.1711186,12.9181728 L62.1056675,5.21535107 L66.9201543,3.16913712 L70.7714659,4.73381309 L72.3362411,7.86316502 L80.4001419,14.0013108 L81.9648179,12.6773542 L94.6023869,12.1961139 L97.1299403,14.2420301 L97.3706597,17.8529201 L96.5282411,19.4173976 L95.9263434,29.166334 L91.7138535,37.5914131 L92.4358132,41.3227619 L94.9635651,39.9988053 L102.064688,33.3789232 L105.55492,33.1384022 L109.406331,34.7030782 L113.25804,37.5914131 L115.183596,43.8502162 L126.497308,43.1281573 L133.357711,45.7760704 L138.894157,50.9513387 L142.865928,58.4136394 L143.829004,67.1995991 L142.986288,77.4301728 L140.820012,86.5772115 L138.653339,89.4658441 L135.644644,90.4289201 L130.348719,84.6516549 L125.534529,82.9666193 L121.32194,89.9473821 L117.10945,93.7987929 L114.822418,95.2431092 L105.675379,102.82577 L98.333438,106.79754 L90.9914969,107.399438 L82.4463558,105.955122 L74.9840551,103.186849 L69.8086876,98.9743588 L65.7165574,94.0395123 L61.5040675,92.8360146 L54.1621264,85.8552518 L54.1621264,85.8552518 Z" fill="#FFFF00" transform="translate(75.911112, 55.284288) scale(1, -1) translate(-75.911112, -55.284288) "></path>
			<path d="M26.2364954,57.7411929 C17.9886318,48.1215464 19.8208179,36.4542968 22.1066597,25.0238968 C20.88679,28.1060177 19.6666225,31.187841 18.446852,34.2699619 C17.9973636,37.0952891 17.5478752,39.9206162 17.0983869,42.7459433 C17.2266845,45.6354689 17.3551807,48.5248953 17.483776,51.4143216 C18.6394473,54.1752518 19.7952179,56.9361821 20.9508892,59.69741 C22.6846442,62.2656456 24.4183993,64.834179 26.1521543,67.4027123 C28.8488861,69.6500549 31.5457171,71.8973976 34.2424489,74.144641 C37.1960737,75.3645108 40.1498969,76.5846782 43.1035217,77.804548 C46.5707341,78.2540363 50.038145,78.7034255 53.5056551,79.1529139 C50.2949388,75.4931061 47.0846194,71.8329015 43.8739031,68.1730937 C36.1405202,65.6647898 31.5797512,63.9754875 26.2364954,57.7411929" fill="#FFFFCC" transform="translate(35.302021, 52.088405) scale(1, -1) translate(-35.302021, -52.088405) "></path>
			<path d="M65.0634597,54.3035495 C59.3295558,48.7094534 56.1976241,44.4904146 52.548731,37.9402875 C49.9386225,33.2545945 47.0108954,28.7419495 44.2668334,24.1219433 C42.8787776,21.7834131 42.7477016,19.8224332 42.3328427,17.1258999 C40.9844768,18.7311588 39.6361109,20.3363185 38.2876458,21.9414782 C38.9298287,23.8679278 39.5719124,25.7942782 40.2140954,27.7204301 C42.3972396,31.6373294 44.580483,35.5543278 46.7634287,39.4709294 C51.3866101,44.0300115 56.0097915,48.588796 60.6329729,53.147779 C62.1096365,53.5331681 63.5864985,53.9182596 65.0634597,54.3035495" fill="#FFFFCC" transform="translate(51.675553, 35.714725) scale(1, -1) translate(-51.675553, -35.714725) "></path>
			<path d="M93.3800365,20.4007154 C88.7878132,18.6788673 81.1611962,18.1117976 80.6321295,12.8408767 C80.2552737,9.09772006 80.9143248,7.21691386 83.1705977,3.2566534 C77.5978349,9.02320223 76.2196024,8.13077433 65.4485512,6.33877433 C66.9896117,8.52201774 68.5306721,10.7051619 70.0717326,12.8884053 C72.7684644,14.5576642 75.4655931,16.2273201 78.1623248,17.8966782 C81.6295372,18.667258 85.0970473,19.4377387 88.5644582,20.2083185 C90.1696179,20.272517 91.7748768,20.3366162 93.3800365,20.4007154" fill="#FFFFCC" transform="translate(79.414294, 11.828684) scale(1, -1) translate(-79.414294, -11.828684) "></path>
			<path d="M106.051937,68.3516984 C107.580892,67.4080704 107.548049,66.7243123 107.292347,66.0773666 C108.498424,66.5600953 109.704204,67.042427 110.910281,67.5245604 C111.691677,68.5736642 112.472774,69.6224704 113.254071,70.671872 C113.83404,72.1665945 114.414009,73.6612177 114.993978,75.1561387 C114.252867,75.713286 113.512055,76.2705325 112.770846,76.8279774 C109.532049,76.4145077 106.293054,76.0010379 103.054257,75.5875681 C102.81314,74.9327836 102.571826,74.2779991 102.330511,73.6235123 C102.399671,72.6930813 102.468632,71.762948 102.537494,70.832517 C102.847472,70.2812239 103.157748,69.7296332 103.467726,69.1786379 C103.950356,68.9373232 104.432688,68.6960084 104.914821,68.4549914 C105.294257,68.4203619 105.673097,68.3857325 106.051937,68.3516984" fill="#CCCC00" transform="translate(108.662244, 71.452672) scale(1, -1) translate(-108.662244, -71.452672) "></path>
			<path d="M105.147404,64.5619061 C100.276954,63.1558906 100.314957,62.7686162 98.8765946,57.9366658 C100.77536,60.9830658 102.181178,62.5204549 105.147404,64.5619061" fill="#CCCC00" transform="translate(102.011999, 61.249286) scale(1, -1) translate(-102.011999, -61.249286) "></path>
			<path d="M137.532793,29.5880394 C136.667057,29.1880642 135.824142,28.9954689 135.28297,28.2033573 C134.117674,26.4985759 133.119174,25.0644798 131.192229,23.8676301 C130.22181,23.264641 129.217953,22.8741914 128.188793,22.553596 C127.335162,22.2880704 126.822666,22.5251185 126.095943,22.0030968 C126.527075,21.9277852 126.958009,21.8523743 127.38914,21.7766658 L130.240365,21.7766658 C131.412111,22.5004115 132.583658,23.224058 133.755106,23.9475061 C134.44452,24.6712518 135.133339,25.3946007 135.822455,26.1183464 C136.392502,27.2749108 136.962647,28.4317728 137.532793,29.5880394" fill="#CCCC00" transform="translate(131.814368, 25.682353) scale(1, -1) translate(-131.814368, -25.682353) "></path>
			<path d="M59.9489171,35.6999898 C58.0325884,30.4568518 56.3585667,25.9621666 53.4555465,21.2149542 C57.1752861,25.2224456 59.4299713,28.6286348 61.5603279,33.1595371 C62.3877636,34.9193883 62.5441419,36.9847526 64.8491341,36.2166534 C64.9526256,34.4592829 65.3242225,32.70221 65.427714,30.9448394 C66.6731838,39.8725914 70.1850473,43.6058255 78.3488675,47.070458 C76.0402039,46.7945139 73.7315403,46.519165 71.4231744,46.2435185 C69.2523341,45.7608891 67.0815931,45.2787557 64.9107527,44.7964239 C63.8424985,43.2457387 62.7742442,41.6951526 61.7062876,40.144765 C61.1203651,38.6631402 60.5347403,37.1814162 59.9489171,35.6999898" fill="#CCCC00" transform="translate(65.902207, 34.142706) scale(1, -1) translate(-65.902207, -34.142706) "></path>
			<path d="M75.7645574,75.7388278 C77.5250039,67.452465 80.0598008,59.5001922 81.1609977,51.0823565 C81.8762101,45.6125891 81.9543993,42.9847193 79.2022008,38.2658852 C76.1945977,38.4602666 74.3272861,38.121017 71.418114,37.1678635 C59.8363962,33.3712247 53.1942876,27.789234 45.3905543,39.0365643 C47.8816923,37.862834 50.3731279,36.6888061 52.8640675,35.5144805 C54.6399931,35.8635534 56.4159186,36.2126263 58.1918442,36.5616991 C61.3273481,38.3879317 64.4629512,40.2139658 67.5985543,42.0401984 C70.0449419,42.5228278 72.4914287,43.0049612 74.9376179,43.4872929 C75.7302256,46.7950511 76.5225357,50.1030077 77.3151434,53.4106666 C76.7293202,57.7869767 76.1433977,62.1628898 75.5578721,66.5389022 C75.4892086,68.6061519 75.4202473,70.6735007 75.3510876,72.741048 C75.4892086,73.7404402 75.6270318,74.7395348 75.7645574,75.7388278" fill="#CCCC00" transform="translate(63.487189, 54.058782) scale(1, -1) translate(-63.487189, -54.058782) "></path>
			<path d="M95.7150938,88.5261483 C94.7421946,81.7940429 97.9550938,78.1749173 96.6249853,76.3160398 C96.2481295,75.7895529 95.7376179,74.8712274 95.1677698,74.619494 C93.1319744,73.7202196 90.3333388,74.7876801 90.1331031,74.261094 L83.4138969,74.261094 C82.5183931,74.6405297 81.6224923,75.0194692 80.7263931,75.3983095 C82.1046256,77.0178568 83.4830566,78.6374041 84.8612892,80.2566537 C86.2048923,83.1854723 87.5487931,86.1145886 88.8926938,89.0431095 C89.7542628,92.0062599 90.6157326,94.9694103 91.4767062,97.9328584 L92.820607,97.9328584 C93.7856675,94.7972553 94.750331,91.6617514 95.7150938,88.5261483" fill="#CCCC00" transform="translate(88.839545, 86.088263) scale(1, -1) translate(-88.839545, -86.088263) "></path>
			<path d="M84.4219217,107.942297 C84.9676582,104.885478 85.9154535,104.159252 87.3533202,101.200368 C86.3961977,96.3732798 84.8588086,90.6326286 83.0085636,86.3736022 C82.2283589,84.5774348 81.5985791,83.5871712 80.2229264,82.1991154 C77.9004706,79.8538379 75.552514,77.8107991 72.9183931,75.7780798 C71.0227031,74.3165976 69.6993419,75.0495712 67.3600179,75.3808829 C66.36519,73.5773728 66.0903372,72.5754999 64.2593419,71.6599526 C61.4432427,70.2519526 58.923131,73.2862472 56.7128985,75.0709046 C58.3085326,72.5785759 59.9041667,70.0863464 61.4995031,67.5940177 C62.6023869,66.5603929 63.7049729,65.5266689 64.8075589,64.4927464 C65.7376923,64.3552208 66.6681233,64.2173976 67.5985543,64.0792767 C68.8389636,64.8375526 70.0792737,65.5956301 71.319683,66.3536084 C71.9744675,67.5940177 72.629252,68.834427 73.2837388,70.0747371 C74.6619713,71.1084611 76.0405016,72.142086 77.4184365,73.1760084 C79.1071434,74.623103 80.7955527,76.0702968 82.4837636,77.5173914 C83.5520179,79.0337449 84.6199744,80.5497015 85.6882287,82.0657573 C86.6526938,83.8574596 87.6177543,85.6493604 88.5824179,87.4410627 C89.8228272,91.1621914 91.0632365,94.8836177 92.3039434,98.6048456 C92.4071372,100.017906 92.5106287,101.43047 92.6138225,102.842936 C91.0632365,103.53235 89.5128489,104.221466 87.9622628,104.910582 C86.8251465,105.978836 85.5591372,106.87434 84.4219217,107.942297" fill="#CCCC00" transform="translate(74.663360, 86.010787) scale(1, -1) translate(-74.663360, -86.010787) "></path>
			<path d="M47.3380396,79.9292487 C52.5552799,79.9292487 58.0649357,80.2185883 62.8434039,82.4099681 C64.1957388,84.4387185 65.5304117,86.0954751 67.1850845,87.8884673 C65.6791496,85.0442875 65.2069388,83.4366472 64.8075589,80.2391278 C64.2904985,79.4814472 63.7738349,78.7231712 63.2568737,77.9650937 C59.3286628,77.8616022 55.4008489,77.7584084 51.472638,77.654917 C50.1976985,77.7929387 48.9226597,77.9307619 47.6479186,78.0683867 C47.5101946,78.2064084 47.3723713,78.3442317 47.2345481,78.4818565 C47.2690783,78.964486 47.3037078,79.4468177 47.3380396,79.9292487" fill="#CCCC00" transform="translate(57.209816, 82.771692) scale(1, -1) translate(-57.209816, -82.771692) "></path>
			<path d="M46.6142938,101.998036 C46.4793481,103.220982 46.3443031,104.444424 46.2092582,105.667965 C45.3179217,100.302781 45.5322473,96.7073697 43.063038,91.901317 C41.2184489,89.7640146 38.9474907,87.8193077 36.3464117,86.7786379 C36.5659962,85.4609325 36.6315838,84.6376642 36.5041791,83.6715123 C36.0459589,80.1964611 29.0941698,81.7315681 26.2348086,81.8699867 C30.8228644,80.6886162 35.4109202,79.5076425 39.9985791,78.326272 C41.0323031,78.7397418 42.0659279,79.1532115 43.0998504,79.5666813 C43.4444582,81.5650689 43.7889667,83.5637542 44.1335744,85.5621418 C45.098238,87.3538441 46.0632985,89.1457449 47.0277636,90.9371495 C47.1999186,92.0400332 47.3723713,93.1426193 47.5447248,94.2451061 C47.2345481,96.8294162 46.9245698,99.4137263 46.6142938,101.998036" fill="#CCCC00" transform="translate(36.889767, 91.997119) scale(1, -1) translate(-36.889767, -91.997119) "></path>
			<path d="M38.8614628,66.2840518 C38.71719,63.6753325 38.5487062,62.5876301 39.6991186,60.2835309 C41.1616923,57.3549108 42.9578597,54.6036053 44.5470442,51.7091185 C44.7191,53.6388425 44.8912551,55.5683681 45.0637078,57.4977945 C42.9963589,60.4267123 40.9290101,63.3555309 38.8614628,66.2840518" fill="#CCCC00" transform="translate(41.911177, 58.996585) scale(1, -1) translate(-41.911177, -58.996585) "></path>
			<path d="M17.6418411,92.953596 C17.1943372,92.0011371 16.7468334,91.0484798 16.2993295,90.0961201 C17.531007,85.9477294 18.6256551,83.3198596 20.9709326,79.6957728 C20.5625233,78.2272456 20.2568117,77.5848642 19.3170535,76.3880146 C17.2530783,76.7056332 15.4203962,76.797317 13.3291341,76.7910658 C15.6380954,74.9994627 17.9467589,73.2077604 20.2551248,71.4157604 C21.3919434,71.6225449 22.5291589,71.8292301 23.6662752,72.0360146 C24.8031931,73.1731309 25.9403093,74.3100487 27.0775248,75.447165 C25.4576799,77.9626131 23.8384303,80.4779619 22.2191807,82.9933108 C20.6933016,86.3133728 19.1674225,89.6337325 17.6418411,92.953596" fill="#CCCC00" transform="translate(20.203329, 82.184678) scale(1, -1) translate(-20.203329, -82.184678) "></path>
			<path d="M137.547974,67.4212673 C138.953792,61.0952891 140.767125,55.2584891 140.598939,48.7797046 C140.392452,40.8314007 138.843255,30.7913387 131.47879,25.9981852 C123.231522,20.6305201 113.550257,23.169286 104.501351,25.4691185 C108.188446,23.9531619 111.875342,22.4374038 115.56194,20.9210503 C119.00772,20.7486968 122.4535,20.5765418 125.898982,20.4040891 C128.242275,21.093503 130.585171,21.7826193 132.928167,22.4714379 C134.754399,23.9876922 136.580731,25.503748 138.406666,27.0198038 C139.784898,29.9139929 141.163131,32.808579 142.541562,35.7027681 C143.058325,39.0453542 143.575286,42.3876425 144.09195,45.7296332 C143.67848,49.0033573 143.26501,52.276486 142.85154,55.5498131 C142.093562,58.7889077 141.335286,62.0280022 140.577506,65.2665015 C139.567795,65.9848891 138.557984,66.702979 137.547974,67.4212673" fill="#CCCC00" transform="translate(124.296650, 43.912678) scale(1, -1) translate(-124.296650, -43.912678) "></path>
			<path d="M14.4697233,50.8723557 C10.7254752,48.4354937 9.2549636,47.3655526 9.6653574,42.8492363 C10.0383434,41.4966038 10.4115279,40.1436736 10.7848117,38.7911402 C11.313283,38.4333356 11.842052,38.0758286 12.3706225,37.7180239 C13.0237202,37.5006224 13.6768179,37.2829232 14.3299155,37.0652239 C15.5114845,37.3451371 16.6931527,37.6249511 17.8750194,37.9048642 C18.4813822,39.7862658 19.0878442,41.6675681 19.694207,43.5489697 C18.0148272,42.7249077 16.3356458,41.9007464 14.6564644,41.0766844 L13.4902752,41.0766844 C13.0548768,41.7452611 12.6194783,42.4138379 12.1840799,43.0824146 C12.7128489,43.859841 13.2414194,44.6372673 13.7701884,45.4146937 C14.0500024,46.8918534 14.3299155,48.3691123 14.6097295,49.8459743 C14.9672365,49.7371247 15.3250411,49.6285728 15.6825481,49.5197232 C16.1179465,49.1773976 16.553345,48.8354689 16.9887434,48.493441 C16.9265295,49.2708673 16.8644148,50.0482937 16.8020024,50.8257201 C16.5066101,51.3232332 16.2113171,51.8207464 15.9157264,52.3183588 C15.6203341,52.5673139 15.3250411,52.815872 15.0294504,53.064827 C14.8429078,52.3338379 14.6564644,51.6030472 14.4697233,50.8723557" fill="#CCCC00" transform="translate(14.646454, 45.065025) scale(1, -1) translate(-14.646454, -45.065025) "></path>
			<path d="M98.4706659,34.7562627 C101.793308,31.6707681 105.871943,28.9886224 108.52968,25.2175836 C109.558244,23.7575898 110.701314,23.0111216 108.512216,20.9494286 C110.825047,21.6100673 111.684334,21.5383278 113.535671,21.3138813 C116.903559,20.906365 120.060198,16.1188673 120.261624,12.6879712 C120.221934,12.3670782 119.326133,11.6388673 116.722077,10.9199836 C116.670381,10.8198658 115.252458,11.1140673 115.287683,11.018117 C115.558269,10.2776022 115.919943,10.1641883 116.47203,9.81769526 C116.591894,8.99412936 116.668992,7.72425029 117.22981,6.8238844 C118.868508,6.85256037 120.469698,6.6742534 122.074362,6.35643634 C122.614343,5.46083324 122.532781,4.56532936 122.487832,3.66893247 C123.107987,3.77212626 123.728241,3.87561774 124.348396,3.97891076 C124.175943,5.39197122 124.003888,6.80443634 123.831733,8.21700068 C124.382728,9.14743169 124.934021,10.0778627 125.485512,11.007996 C124.692706,12.7996984 123.900297,14.5914007 123.107987,16.3833015 C121.591733,17.830396 120.075677,19.2775898 118.559621,20.7249821 C118.413959,20.7319278 118.267404,20.7395681 118.121742,20.7466131 C116.416663,21.7932363 114.711881,22.8392642 113.0071,23.8855898 C110.226226,26.1607154 107.445351,28.4361387 104.664477,30.7113635 C102.599708,32.0597294 100.535236,33.4080953 98.4706659,34.7562627" fill="#CCCC00" transform="translate(111.978089, 19.212598) scale(1, -1) translate(-111.978089, -19.212598) "></path>
			<path d="M104.068235,40.4493852 C103.893004,40.1427805 103.628272,39.6528084 103.289122,39.3135588 C104.673209,38.0042875 105.356074,37.1276363 105.849419,35.2760022 C104.284743,34.4991712 102.720365,33.7223402 101.155689,32.94541 C99.8317326,31.6763247 98.507776,30.407041 97.1839186,29.1379557 C95.4414318,30.0759278 95.0071248,30.7962999 94.1639124,32.5845294 C93.1819838,32.3246596 92.2515527,32.0743154 91.4406876,32.3718906 C91.9551682,32.3679216 92.2712985,32.496517 92.7851838,32.814334 C93.6278008,33.6896953 94.4702194,34.5649573 95.312638,35.4403185 C96.8008117,36.5673139 98.2889853,37.6943092 99.7768613,38.8211061 C100.750654,39.1386255 101.724644,39.4559464 102.698436,39.7731681 C103.070232,39.9261728 103.696043,40.2960829 104.068235,40.4493852" fill="#CCCC00" transform="translate(98.645054, 34.793670) scale(1, -1) translate(-98.645054, -34.793670) "></path>
			<path d="M108.387094,44.2735092 C103.409184,41.5932487 98.6414318,38.8976084 96.0962163,33.8072767 C96.0962163,40.2684984 102.583633,43.1126782 108.387094,44.2735092" fill="#CCCC00" transform="translate(102.241655, 39.040393) scale(1, -1) translate(-102.241655, -39.040393) "></path>
			<path d="M95.107838,33.6602255 C91.411714,31.1400146 88.7979341,26.054148 89.1264675,21.0973728 C87.9223744,25.3892425 88.3490411,29.444858 92.0459589,32.4093976 C92.6698845,32.7126286 93.2934132,33.0158596 93.9169419,33.3189914 C94.3141388,33.432703 94.711038,33.5463154 95.107838,33.6602255" fill="#CCCC00" transform="translate(91.816524, 27.378799) scale(1, -1) translate(-91.816524, -27.378799) "></path>
			<path d="M102.173041,49.9929257 C102.936973,50.4086777 104.323838,50.980411 105.08777,51.3961629 C104.301909,51.2634002 102.893016,50.9745567 102.107156,50.8420916 C100.008055,50.4876606 99.7611838,49.9831025 99.4354287,47.916349 C99.2818287,46.9431521 99.0703807,45.7356854 98.9167807,44.7621908 C99.3282659,45.8627924 99.8232985,47.1419986 100.302852,48.1916978 C100.810288,49.301825 101.096055,49.4065071 102.173041,49.9929257 L102.173041,49.9929257 Z M63.2254194,103.220188 C64.8750318,105.694557 65.8248117,106.499468 68.3632799,108.067022 C64.9164086,107.236709 64.2593419,106.598495 63.2254194,103.220188 L63.2254194,103.220188 Z M62.6825605,97.7689753 C65.5692086,103.572039 67.7549326,105.708845 73.7985171,108.558978 C66.9626225,106.883468 64.953221,105.691977 62.6825605,97.7689753 L62.6825605,97.7689753 Z M0.865903132,67.5636544 C1.49935429,70.4694529 2.08974189,71.5655893 3.88134499,73.9509536 C0.975050419,71.9205164 0.596210109,71.0865319 0.865903132,67.5636544 L0.865903132,67.5636544 Z M65.5697047,18.9295087 C65.4822876,19.6346002 65.3944737,20.340287 65.3064613,21.0454777 C65.1480985,22.322997 65.1543496,23.3611862 65.2561543,24.6471397 C65.3542876,25.8917164 65.4519248,27.1362932 65.5497605,28.3811676 C65.1871931,27.1160513 64.4626535,25.850935 64.1003838,24.5858188 C63.9555155,24.0794746 63.8354535,23.6699738 63.76679,23.2914312 C58.3577481,22.1862653 52.9880985,22.1171056 47.5776675,23.0823645 C47.2325636,25.0853164 46.8123465,27.1726095 46.4599,28.6686219 C46.3530349,26.9928141 46.4218969,22.3601071 46.4131651,19.7662715 C46.4064179,17.7563738 46.3217791,17.068349 45.2855744,15.3588048 C44.3152551,13.7581102 43.9042659,13.3950467 42.5460768,10.690873 C42.6588954,8.98470248 42.6610783,7.85631798 42.2077202,6.23677069 C41.4536117,3.54470248 33.8484272,5.63060635 31.8419031,6.17991488 C29.3712055,6.85613193 24.2631124,7.86137844 25.5476768,11.1552451 C26.6783434,14.0539986 27.3947465,17.1102219 27.947131,21.1667304 C23.4204954,27.6875862 19.2104861,36.6242684 18.4028954,44.542011 C17.7756954,50.6901784 18.1520551,54.4743149 19.4824613,58.234935 C21.5904923,64.1932854 24.5393543,69.3510901 29.271683,73.5043428 C35.6547155,79.1051862 41.6217977,81.3550095 50.9644086,82.7769009 C48.7178597,80.2620482 46.4950256,77.6024265 44.0722535,74.750904 C41.6196148,71.8636606 40.1620024,68.9478405 38.6049667,65.7903087 C36.4535744,61.4289815 36.4996148,59.7694467 39.3517326,55.9408575 C41.8094318,52.641335 43.1361667,51.155642 44.2091838,47.9275614 C43.3229078,46.1007335 43.0008241,44.5571924 42.7027527,42.0625815 C45.7120427,38.7734777 47.9480737,36.5193877 50.8698473,35.8249133 C53.7357574,35.143735 56.1292582,35.2759025 58.6930287,36.5863645 C64.387838,39.4980172 69.6568737,43.257149 76.0806876,43.4126343 C79.0525698,50.7191521 78.7522163,56.8237598 77.3252644,63.8928327 C76.350976,68.7205164 75.9603279,73.291704 75.6570969,78.2135521 C74.4522101,73.1448513 74.2262752,68.6873753 75.1198938,63.6386188 C76.1976737,57.5539552 77.0353295,50.831673 74.0375496,45.4842498 C68.2291279,45.0395242 63.2510194,41.5057319 58.0155217,38.7943149 C55.9113605,37.7040327 53.7204768,37.5980606 51.3910752,38.237366 C49.2289667,38.8311273 47.7700644,40.2613536 45.4408613,42.947766 C45.404545,45.6447955 46.0129915,46.8896699 47.2514163,49.3319893 C49.2413698,53.2544451 51.4380086,56.9056203 53.8481791,60.7654653 C50.896638,57.2026002 48.100483,54.2265505 45.777531,50.6449319 C44.8895682,53.1748668 43.6201853,54.4591335 41.5169171,57.30758 C39.4625667,60.0895459 39.2473481,61.3080265 40.7833481,64.5273753 C42.3277822,67.7627986 43.6376489,70.6066808 46.2664117,73.4450064 C50.8085264,78.3499862 54.9693202,83.8091366 59.936514,88.6395986 C62.633345,91.2624079 63.7282907,91.1718157 67.3057419,91.7140792 C70.538883,92.2040513 73.6961171,92.8229164 76.9936551,93.5890312 C73.8043713,93.2917536 70.7217543,93.1823087 67.6171093,93.1053102 C67.584762,93.1044172 67.5530101,93.1033257 67.5208613,93.1033257 C70.5754969,97.0044482 72.3482473,99.178166 77.3092892,101.333726 C89.5238628,106.63878 97.2848303,107.212498 106.87977,99.1469102 C109.366443,97.0565412 111.538374,95.0271955 114.059974,93.2236854 C113.145816,93.1454963 112.357971,92.9815769 111.315912,92.5722746 C112.584105,92.813887 114.048663,92.5742591 115.364681,92.3337381 C115.734294,92.0941102 116.113729,91.8604358 116.502988,91.6309288 C118.282585,90.5823211 119.292892,90.0031459 120.496688,88.3257505 C121.769147,86.5531986 122.829562,84.7820358 123.764458,82.8297877 C123.151844,83.0485784 122.638257,83.2336327 122.180433,83.3697691 C121.843466,83.5241629 121.476929,83.6262653 121.088266,83.663673 C120.318381,83.7376947 119.581736,83.5483738 118.96803,83.170625 C118.943323,83.1591149 118.918815,83.1479025 118.89381,83.135797 C117.909302,82.6565412 116.384018,82.110011 115.363292,81.9443056 C115.883627,81.7646095 117.035131,81.697335 117.578288,81.912256 C117.651119,81.9412296 117.72514,81.9631583 117.801047,81.9814157 C117.556061,81.5645722 117.396012,81.0909722 117.346796,80.5795676 C117.281605,79.9014653 117.419429,79.2506498 117.71105,78.6855645 C117.712043,78.68358 117.713035,78.6815955 117.714027,78.679611 C117.806306,78.4628048 117.934306,78.2625691 118.075205,78.1184947 C117.608353,77.946935 117.132371,77.7503707 116.641605,77.5371366 C118.917624,77.8839273 120.96999,77.9435614 123.191733,77.650749 C123.338288,76.9504203 123.485934,76.2084172 123.622666,75.4535149 C123.347317,75.4315862 123.072762,75.410749 122.797711,75.389118 C122.775485,75.3871335 122.75296,75.385149 122.730734,75.3831645 C121.679646,76.2233009 120.508495,76.082104 118.908595,75.7169567 C114.043205,74.607425 115.186573,71.8771552 112.947962,67.7635924 C115.272105,70.6046963 115.09995,73.5770746 118.887261,74.4740668 C119.769866,74.6830343 120.370672,74.9443924 120.968005,74.8545939 C119.892805,74.3137195 118.962573,73.4173226 118.593854,72.3763552 C117.554275,69.4407893 118.199832,66.9673133 117.057854,64.2255335 C118.472601,66.6764854 118.557835,69.0686963 119.822753,71.6473505 C120.277004,72.5738126 121.963131,74.0566281 122.998244,74.0794498 C123.282325,74.0854033 123.56581,74.0915552 123.850188,74.0977071 C124.09964,72.465856 124.251255,70.846011 124.154511,69.5021102 C123.978188,67.0500668 123.341066,63.4104017 122.959745,62.0178808 C124.241134,63.6650126 124.824774,67.153856 125.387578,69.6095707 C125.973798,72.1670901 125.825854,75.2357164 125.312762,77.9828544 C124.608762,81.7524048 128.490833,81.1392947 130.744626,82.9157164 C132.401283,84.2219118 133.541574,86.3072203 135.060607,87.7844792 C136.567435,89.249335 138.939007,87.0967521 139.531379,85.6645412 C142.101302,79.4480079 143.271956,69.667518 142.593258,63.4008761 C141.831609,56.3689133 138.434747,48.692287 132.232502,45.230135 C124.326071,40.8173102 115.003503,43.5133474 107.148272,46.1597722 C105.471671,46.7245598 104.305779,47.5478281 102.831894,48.4762746 C103.233258,46.6693908 103.415534,44.7570312 102.881705,42.9524296 C102.034226,40.089397 100.665618,35.4048947 104.553047,34.5408451 C106.032489,34.2121133 106.703348,34.259642 108.792229,35.3374219 C107.101537,34.9552079 106.249295,35.0488761 105.087373,35.2634994 C104.034399,35.4574839 103.476061,36.126656 103.18186,36.9152947 C103.549686,36.6495707 104.149698,36.5050002 105.174889,36.2580296 C108.056774,35.5635552 110.803019,36.9505195 111.340024,38.9492048 C111.653277,40.1166839 111.599894,40.7298932 112.26341,42.3207645 C112.859354,42.1370994 113.476235,41.9689133 114.108495,41.8161071 C113.751881,40.6524978 113.394672,39.4874994 113.03776,38.3238901 C112.111497,35.3025939 108.503088,32.8662281 105.316681,32.9221908 C102.371193,32.9744823 100.503881,34.8195676 98.4705667,36.6284358 C97.0696117,37.874997 95.7215434,39.06758 94.3851838,40.2486529 C90.7194225,41.4052172 87.7810783,42.7569567 84.3788582,45.2756792 C86.7999434,42.4301102 88.4426101,40.8550157 91.8192303,39.4391769 C91.327869,34.430011 89.587069,30.7778436 88.1028644,25.9838963 C87.4314101,23.8158343 82.1281419,15.1303893 80.6585233,14.2834064 C79.6105109,13.6798219 73.0468892,8.15101565 71.811838,7.42191178 C70.8923217,6.20035519 70.0851279,4.51303736 68.7027279,3.78234589 C64.4898411,1.55474899 61.7826907,5.82012573 59.5154039,9.42287922 C58.4828706,11.0640575 55.616762,15.7910281 58.1155403,17.1152823 C60.4781822,18.366904 61.8012458,19.2607211 64.211714,20.8431583 C64.5658473,20.1977009 65.1738969,19.574966 65.5699031,18.9300048 L65.5697047,18.9295087 Z M80.2155838,11.2919769 C78.0827465,9.56893813 74.4960675,6.51886682 73.8002039,6.13685131 C72.5401481,4.25604511 72.3845636,3.09213813 70.3659341,1.99947457 C64.3566814,-1.25222156 61.1673977,2.51891643 57.6101884,8.00088852 C55.9152303,10.6129815 52.209283,16.5766901 56.1419589,18.5983955 C57.798914,19.4501412 59.0548024,20.0885536 60.3075155,20.8181536 C56.1818473,20.3062529 52.1327807,20.3001009 47.9224737,20.9335521 C47.9969915,20.4255211 48.0619838,19.9420978 48.1145729,19.4987614 C48.3882349,17.1983335 48.4780334,16.4928451 47.2282969,14.6393257 C46.317314,13.2875862 45.9662566,12.8963428 44.8659527,10.4405288 C45.0661884,8.44412573 44.9792675,7.32050403 44.4159682,5.22953968 C43.1637512,0.582742786 34.4863434,3.12984356 30.9505667,4.08617224 C26.6961047,5.23658465 20.6167993,6.30791488 23.1113109,11.7776823 C23.6958442,13.0591707 24.1548582,14.3698312 24.5002597,15.6198653 C20.7802225,13.9733288 15.6105109,17.466042 13.1483465,19.9344575 C10.8064427,22.2825133 9.53428143,25.0091118 9.09104422,27.6549412 C8.71359305,29.906749 9.05919305,29.8958343 10.6661388,31.487797 C12.1362535,32.9430281 13.6058721,34.4000451 15.07559,35.8544823 C15.6690535,37.4700606 16.2636086,39.0842498 16.8567744,40.6987366 C16.6255807,41.9048141 16.4537233,43.1078157 16.3513233,44.2992079 C15.9243589,49.2666994 16.067838,52.8041629 16.7774938,56.0561567 C14.1890163,55.0461474 11.218821,55.5192513 9.89774189,58.2663893 C9.3953667,59.3107304 9.09610468,60.3745195 8.71666902,61.9189536 C2.94247988,67.4823893 13.7631434,74.7759087 16.9197822,75.3244234 C16.5589016,74.298935 16.1634907,73.3608637 15.8155093,72.4307304 C17.9562845,71.3224885 17.6938349,68.1647583 17.2392861,66.1317412 C16.4692024,67.103549 16.0436272,68.3743211 14.910976,68.4288947 C14.7450721,66.1297567 14.7737481,63.5891056 12.978176,62.2392513 C13.5097233,60.8183521 13.4818411,60.8171614 14.9925388,61.3980234 C17.1380768,62.2240699 18.7536551,64.0641939 20.3788582,65.8600637 C22.1291838,69.2695273 24.3728551,72.3024327 27.4594411,75.0389536 C35.0443838,81.7637164 42.2138721,83.9638281 53.7581822,85.8035552 C55.2947776,87.4071273 56.8827713,88.9543397 58.5872551,90.4587862 C60.896514,92.496566 62.3959,92.9196606 64.5799372,93.0335707 C68.1940024,97.867704 71.0375869,101.234203 76.9298535,103.714427 C89.2805636,108.913013 97.7936551,109.163654 107.706709,100.990011 C110.982616,98.2893102 113.77639,95.4431459 117.376663,93.1885598 C119.198629,92.047673 120.500657,91.22758 121.881965,89.5826312 C123.619094,87.5126033 125.03781,85.4424761 126.025295,82.7779924 C127.301128,83.3030901 128.75616,83.797825 129.930982,84.80198 C131.447832,86.0980544 132.412892,88.2675056 133.817816,89.69158 C135.682647,91.5813164 139.936514,89.3000389 140.878455,87.4971242 C144.082126,81.3660234 145.392787,70.0664017 144.711906,63.3468978 C143.870281,55.0404916 140.446133,47.1881381 133.127906,43.2824513 C128.151981,40.6275924 121.473556,40.3803242 115.758207,41.4606839 C115.387801,40.2419056 115.018784,39.0232265 114.648378,37.8044482 C113.53706,34.1524792 109.19905,31.1674002 105.409556,30.9882994 C101.771081,30.8166405 99.79879,32.6944699 97.4125326,34.9929133 C96.1606132,36.1989908 94.9079,37.4042746 93.6559807,38.6103521 C93.5831496,37.7887707 93.4756892,37.0009257 93.3403465,36.2383831 C94.3259465,34.292287 94.7993481,32.5813536 95.6428582,30.5751273 C96.571007,28.3656885 97.0227776,26.915518 97.0865791,24.5508916 C97.1425419,22.4517908 97.1988024,20.3520947 97.2550628,18.2530932 C98.1913481,16.5895893 98.2732086,16.1848513 98.1368737,14.2812234 C97.8485264,10.2692668 95.6388892,9.88645751 91.9562597,9.90957689 C90.729345,9.91741565 86.0983248,9.88873968 84.9178473,9.97397379 C82.5711807,10.143549 81.0242659,10.322749 80.2155838,11.2919769 L80.2155838,11.2919769 Z M92.6329729,33.1778932 C91.8921605,30.5323614 90.8964396,28.0349722 89.9874411,25.172535 C89.1272613,22.4628048 84.7153295,14.5942777 82.1184179,12.6873753 C82.623869,12.3110157 83.5517202,12.1635676 85.2044086,12.0209815 C86.3736737,11.9200699 90.9833605,11.8986374 92.1408179,11.8786932 C94.6890101,11.8342405 95.6560551,12.0257443 95.9137419,14.9273753 C96.0396582,16.3477784 95.9286256,16.613304 95.2180768,17.8584761 C95.155069,20.0793257 95.0921605,22.3007707 95.0296489,24.5216203 C94.9703124,26.6271707 94.5661698,27.8399955 93.7383372,29.802166 C93.2428086,30.9764916 92.9739093,32.0725288 92.6329729,33.1778932 L92.6329729,33.1778932 Z M15.0156582,69.5221536 C15.5876892,69.5871459 15.9415248,69.2869908 16.3839682,68.8448451 C16.3021078,69.9012916 16.1069326,70.6845722 15.3652272,71.1163986 C15.3132334,70.9445412 15.2643155,70.7729815 15.218176,70.5985443 C15.1283776,70.2585009 15.0642783,69.8973226 15.0156582,69.5221536 L15.0156582,69.5221536 Z M18.6099776,61.889087 C18.1981946,60.8237102 17.8161791,59.7255893 17.4564892,58.5909536 C17.3968551,58.4034188 17.3397016,58.2145939 17.2840365,58.0267614 C15.1081357,57.1038715 12.2470876,56.5174529 11.1518442,58.8041877 C10.6199993,59.9140172 10.3198442,61.0031087 9.93197445,62.4060482 C6.34866902,66.1182467 11.7051217,71.0190591 14.6227279,72.7769257 C14.2005264,71.8693164 13.900669,71.1821846 13.6959682,70.474811 C12.8087993,67.4089629 14.097531,64.6728389 11.3149698,62.4502033 C12.6226535,59.8114188 12.5624241,58.7591397 15.6048551,59.9785133 C16.7785853,60.4487397 17.7464241,61.1088823 18.6099776,61.889087 L18.6099776,61.889087 Z M17.7715279,36.9072575 C19.4208427,31.2031211 22.2295993,25.5983087 25.3434721,20.8865195 C25.3431744,20.8592327 25.3428768,20.8322436 25.3426783,20.8044606 C25.1477016,19.9943893 24.9218659,19.2048575 24.448762,18.5712079 C22.2231496,15.5936699 16.5614814,19.9645226 14.9227838,21.6375521 C13.1313791,23.4666622 11.9323465,25.6329381 11.6468768,27.6642684 C11.4392985,29.1462901 11.6407248,29.1822095 12.6746473,30.2305195 C14.0680613,31.6410994 15.4628644,33.0527707 16.855683,34.4630529 C17.1606008,35.2781846 17.4666101,36.0924234 17.7715279,36.9072575 L17.7715279,36.9072575 Z M123.163156,82.6904761 C123.480675,82.3766281 123.736874,82.0028482 123.913593,81.5893784 C124.009742,81.6776885 124.112737,81.7612358 124.220396,81.8405164 C124.089916,82.1344203 123.957153,82.4241567 123.821612,82.7096265 C123.595974,82.7046653 123.376886,82.6984141 123.163156,82.6904761 L123.163156,82.6904761 Z M95.9004458,72.430135 C95.6102132,73.03878 95.4712985,73.6809629 95.466238,74.3152079 C94.3979838,73.4618746 93.2365574,72.6528947 92.0313729,72.1854467 C93.6953729,73.6714374 95.9556148,77.1759583 97.5934194,78.2822157 C99.4519993,79.538104 101.974393,79.2936141 104.141364,80.2960823 C103.401543,79.6238343 102.45345,79.082166 101.488092,78.5665939 C102.551584,78.177335 103.470505,77.3897877 103.994809,76.2905753 C104.215881,75.826997 104.348049,75.3429784 104.401531,74.8586622 C105.857357,75.3368265 107.286988,75.5631583 108.494455,75.5457939 C104.1751,74.3332668 99.5805946,71.4975211 96.4126442,67.7422591 C96.7684644,68.7216079 97.2657791,69.6054033 97.8647993,70.3946374 C97.0345853,70.8286467 96.3336613,71.5225257 95.9004458,72.430135 L95.9004458,72.430135 Z M75.870331,88.0559583 C73.4851651,87.1252296 71.309562,86.4268854 68.9843279,85.8426498 C66.8627031,83.0542343 65.5703,81.6096203 65.0820148,77.8721195 C64.5077016,81.5488947 64.3881357,82.2314622 66.0245512,84.9758219 C65.5503558,84.7348048 65.1093016,84.4033939 64.4773388,83.8631149 C62.1911993,81.908287 59.2111807,74.2263025 58.0196892,71.4797598 C58.7759807,74.7855335 61.1417977,83.0485784 63.578362,85.4570622 C65.1807434,87.0411862 65.5441047,87.0048699 67.8035527,87.2186002 C70.4947279,87.4737071 73.180545,87.7519335 75.870331,88.0559583 L75.870331,88.0559583 Z M125.655683,80.04038 C127.590567,79.8573102 128.696824,79.5586436 130.429388,80.4156482 C133.658858,82.0137629 136.035094,84.62278 137.575857,87.7432017 C136.63332,84.0203862 134.73644,80.8569009 130.801779,79.4536637 C128.869475,78.7651428 127.623509,79.4761877 125.655683,80.04038 L125.655683,80.04038 Z M88.5208985,79.6767211 C89.2499031,82.9050994 90.5442907,86.0156978 95.5582194,88.422197 C88.912638,86.758197 87.6666721,83.9672017 88.5208985,79.6767211 L88.5208985,79.6767211 Z M2.34961166,62.2901536 C2.9197574,68.7464141 4.17534809,71.5334405 8.76251088,76.3920823 C3.00886127,72.3379552 1.57307833,70.4956482 2.34961166,62.2901536 L2.34961166,62.2901536 Z" fill="#000000" transform="translate(72.840394, 54.676386) scale(1, -1) translate(-72.840394, -54.676386) "></path>
			<path d="M96.7673729,36.2876967 C96.3232427,37.2164409 96.7203403,38.3355974 97.6513667,38.7786362 C98.5825915,39.2221711 99.7040303,38.8258672 100.14816,37.8965277 C100.190331,37.8085153 100.223869,37.717923 100.251156,37.6271323 C99.3620024,36.967585 98.5466721,36.189861 97.8634101,35.2891974 C97.4027093,35.4742517 96.9954907,35.810723 96.7673729,36.2876967" fill="#FFFFCC" transform="translate(98.418281, 37.124808) scale(1, -1) translate(-98.418281, -37.124808) "></path>
			<path d="M117.572632,29.9654957 C117.646951,30.7349841 118.303125,31.3023516 119.072415,31.2280322 C119.841605,31.1535144 120.409568,30.4658864 120.335547,29.6962988 C120.31977,29.5325779 120.275416,29.3789779 120.209035,29.2375826 C119.504737,29.117719 118.800638,28.9110337 118.075007,28.6443175 C117.771478,28.9548911 117.529965,29.5218616 117.572632,29.9654957" fill="#FFFFCC" transform="translate(118.954882, 29.939447) scale(1, -1) translate(-118.954882, -29.939447) "></path>
		</g>
	</g>
</svg>