<?xml version="1.0" encoding="UTF-8" standalone="no"?>
<svg width="256px" height="192px" viewBox="0 0 256 192" version="1.1" xmlns="http://www.w3.org/2000/svg" xmlns:xlink="http://www.w3.org/1999/xlink" preserveAspectRatio="xMidYMid">
	<g>
		<path d="M94.9192218,42.1862101 L77.9644514,44.9404514 L62.4948794,51.7229572 L49.3552062,59.9876732 L36.8510506,75.24607 L29.787642,82.7278444 L22.9563268,85.2460078 L21.1503813,80.8302568 L24.3090428,76.2710661 L25.0182724,69.8411829 L27.1340078,69.9268482 L29.4459767,72.0356109 L28.8224125,65.4851984 L26.2594241,63.7659144 L26.3381167,61.2696654 L20.2678288,64.704249 L14.7712996,71.1899144 L13.6237821,76.9862724 L15.9755953,81.6281401 L18.1680311,89.5133385 L22.6266148,91.6240934 L27.3172918,91.3939922 L31.7649183,88.8100856 L28.7975097,103.857307 L31.7649183,120.598911 L28.498677,128.329712 L17.801463,139.854693 L19.703035,146.740794 L24.7712374,154.719626 L34.3259144,161.443362 L39.3941167,162.13765 L45.0291051,162.328903 L41.5128405,176.760529 L54.4413385,182.057837 L70.5474241,184.177556 L76.0569027,180.575626 L76.4812451,170.825712 L82.6282335,160.653447 L83.0515798,152.599907 L97.8866304,153.659767 L111.661821,152.388732 L97.8866304,160.653447 L100.218521,170.614537 L108.906584,184.177556 L117.384467,187.780482 L124.165977,185.025245 L126.920218,179.515767 L141.119751,168.706988 L143.874988,171.037883 L166.128062,171.885572 L170.577681,168.283642 L171.001027,161.924482 L169.518817,159.171237 L168.457961,142.004296 L161.040934,127.169245 L162.312965,120.598911 L166.762584,122.930802 L179.266739,134.586272 L185.412732,135.010615 L192.194241,132.255377 L198.976747,127.169245 L202.366506,116.148296 L222.288685,117.420327 L234.368498,112.758537 L244.117416,103.645136 L251.111097,90.505463 L252.805479,75.0348949 L251.322272,57.0202646 L247.508171,40.9151751 L243.693074,35.8290428 L238.395767,34.1326693 L229.070195,44.3049339 L220.593307,47.2723424 L213.175284,34.980358 L205.758257,28.1988482 L201.730988,25.6557821 L185.623907,12.3039377 L172.697401,5.31025681 L159.768903,4.251393 L144.722677,6.79445914 L131.583004,11.6674241 L122.469603,19.0854475 L115.264747,27.7745058 L107.84772,29.8942257 L94.9192218,42.1862101" fill="#FFFF00"></path>
		<path d="M45.7472996,80.4348016 C31.2250272,97.3736342 34.4514241,117.916389 38.4757043,138.044763 C36.3280934,132.616965 34.1794864,127.189167 32.0318755,121.764358 C31.2399689,116.788794 30.4480623,111.81323 29.6571518,106.837665 C29.8832685,101.749541 30.1083891,96.6624125 30.3355019,91.575284 C32.3705525,86.7142724 34.4056031,81.8522646 36.4406537,76.9902568 C39.4927315,72.4679222 42.5458054,67.9455875 45.5988794,63.4222568 C50.3473307,59.4657121 55.0967782,55.5081712 59.8452296,51.5516265 C65.0449183,49.4030195 70.2465992,47.2554086 75.447284,45.1068016 C81.5524358,44.3158911 87.6575875,43.5249805 93.7637354,42.7330739 C88.109821,49.1769027 82.4569027,55.6217276 76.8039844,62.0655564 C63.186179,66.4823035 55.1565447,69.4576809 45.7472996,80.4348016" fill="#FFFFCC"></path>
		<path d="M114.114241,28.8254008 C104.018677,38.6759222 98.5032218,46.1049027 92.0783191,57.6378521 C87.4832685,65.8886226 82.3274086,73.8345837 77.495284,81.9698054 C75.0518288,86.0877198 74.8207315,89.5402335 74.0895875,94.2886848 C71.7158599,91.4627237 69.3421323,88.6357665 66.9674086,85.8098054 C68.0989883,82.4170584 69.2285759,79.0253074 70.3591595,75.6335564 C74.203144,68.7364981 78.0481245,61.8394397 81.8921089,54.9433774 C90.0323113,46.9157354 98.1735097,38.8890895 106.313712,30.8614475 C108.913556,30.1821012 111.514397,29.5047471 114.114241,28.8254008" fill="#FFFFCC"></path>
		<path d="M163.975471,4.40479377 C155.888062,7.43595331 142.459518,8.43505058 141.528156,17.7157977 C140.864747,24.3070506 142.025214,27.6191128 145.997696,34.5928716 C136.185027,24.4375409 133.758506,26.0094008 114.792591,29.1650739 C117.506988,25.3210895 120.220389,21.4771051 122.932794,17.6331206 C127.681245,14.692607 132.430693,11.7530895 137.179144,8.81357198 C143.284296,7.4568716 149.390444,6.10017121 155.495595,4.74347082 C158.321556,4.63091051 161.148514,4.51835019 163.975471,4.40479377" fill="#FFFFCC"></path>
		<path d="M186.288311,129.945401 C188.979798,131.606911 188.922023,132.811206 188.471782,133.949759 C190.595486,133.100078 192.719191,132.250397 194.841899,131.402708 C196.218521,129.554926 197.593152,127.70814 198.969774,125.860358 C199.990786,123.227642 201.011798,120.596918 202.032809,117.964202 C200.727907,116.983035 199.424,116.001868 198.118101,115.0207 C192.415377,115.74786 186.712654,116.476016 181.008934,117.205167 C180.585588,118.356669 180.160249,119.510163 179.734911,120.663658 C179.856436,122.301261 179.978957,123.93986 180.099486,125.577463 C180.645354,126.548669 181.192218,127.518879 181.738086,128.490086 C182.587767,128.914428 183.436451,129.339767 184.286132,129.764109 C184.954521,129.823875 185.620918,129.885634 186.288311,129.945401" fill="#CCCC00"></path>
		<path d="M184.695533,100.685696 C176.119035,103.161027 176.185774,103.843362 173.653665,112.352125 C176.996607,106.988078 179.471938,104.280654 184.695533,100.685696" fill="#CCCC00"></path>
		<path d="M241.719782,37.0154086 C240.195735,37.7196576 238.710537,38.0583346 237.758257,39.4528872 C235.706272,42.4551595 233.94814,44.9802957 230.555393,47.0870661 C228.84607,48.1489183 227.078973,48.8362335 225.267051,49.4020233 C223.763922,49.8691984 222.860451,49.4508327 221.581447,50.3712374 C222.340482,50.5027237 223.099518,50.6362023 223.858553,50.7686848 L228.878942,50.7686848 C230.941883,49.4946615 233.004825,48.2206381 235.067767,46.9476109 C236.282023,45.6725914 237.495284,44.3985681 238.708545,43.1245447 C239.711626,41.0884981 240.715704,39.0504591 241.719782,37.0154086" fill="#CCCC00"></path>
		<path d="M105.10842,56.0470661 C101.734599,65.28 98.7861167,73.1940856 93.6760778,81.5524358 C100.224498,74.496 104.194988,68.498428 107.946335,60.5205914 C109.403642,57.4216965 109.678568,53.7849027 113.737712,55.1366226 C113.92,58.2325292 114.574444,61.3254475 114.755735,64.4193619 C116.949167,48.7007626 123.133012,42.1264436 137.50786,36.0252763 C133.442739,36.5113774 129.377619,36.9964825 125.313494,37.4815875 C121.490428,38.3312685 117.668358,39.1809494 113.845292,40.0296342 C111.964638,42.7599689 110.082988,45.4912996 108.203331,48.2206381 C107.171362,50.8294475 106.140389,53.4382568 105.10842,56.0470661" fill="#CCCC00"></path>
		<path d="M132.956638,55.6834864 C136.057525,70.2734942 140.521089,84.2767938 142.459518,99.0988949 C143.718599,108.730272 143.856062,113.357198 139.010988,121.666739 C133.714677,121.324078 130.426521,121.920747 125.303533,123.600187 C104.911191,130.285074 93.2148794,140.114677 79.4735564,120.309043 C83.8604202,122.375969 88.247284,124.442895 92.6341479,126.510817 C95.7609339,125.896218 98.8877198,125.282615 102.014506,124.666023 C107.535938,121.45158 113.05737,118.235144 118.578802,115.0207 C122.885977,114.171019 127.194148,113.321339 131.501323,112.471658 C132.896872,106.648405 134.29242,100.82316 135.687969,94.9989105 C134.656,87.2930117 133.624031,79.5881089 132.593058,71.8822101 C132.472529,68.242428 132.351004,64.6026459 132.229479,60.9618677 C132.472529,59.2017432 132.71558,57.4426148 132.956638,55.6834864" fill="#CCCC00"></path>
		<path d="M168.086412,145.962833 C166.373105,157.816529 172.031004,164.188638 169.688156,167.462848 C169.024747,168.38923 168.126257,170.006911 167.123175,170.451175 C163.538179,172.033992 158.609432,170.154335 158.257805,171.080716 L146.427019,171.080716 C144.849183,170.413323 143.272342,169.74593 141.694506,169.078537 C144.121027,166.226677 146.547549,163.374817 148.975066,160.523953 C151.340825,155.368093 153.70758,150.210241 156.073339,145.052389 C157.590412,139.83477 159.107486,134.617152 160.623564,129.399533 L162.990319,129.399533 C164.688685,134.920965 166.388047,140.441401 168.086412,145.962833" fill="#CCCC00"></path>
		<path d="M148.201089,111.502444 C149.162335,116.88442 150.831813,118.163424 153.362926,123.373074 C151.67751,131.872872 148.971082,141.980389 145.712809,149.480093 C144.339175,152.642739 143.230506,154.386926 140.806973,156.831377 C136.717946,160.961245 132.584093,164.557198 127.94621,168.137214 C124.607253,170.710163 122.277354,169.420202 118.158444,168.836482 C116.406288,172.012078 115.923175,173.776187 112.69877,175.388887 C107.74014,177.867206 103.303471,172.52607 99.410677,169.38235 C102.2207,173.771206 105.030724,178.159066 107.838755,182.547922 C109.781167,184.368809 111.722584,186.186708 113.664,188.007595 C115.301603,188.24965 116.940202,188.493696 118.578802,188.736747 C120.762272,187.401961 122.946739,186.066179 125.13021,184.731393 C126.283704,182.547922 127.436202,180.363455 128.5887,178.179984 C131.016218,176.359097 133.443735,174.539206 135.869261,172.718319 C138.842646,170.171268 141.816031,167.622226 144.78842,165.074179 C146.67007,162.404607 148.549728,159.736031 150.431377,157.065463 C152.129743,153.910786 153.828109,150.756109 155.526475,147.601432 C157.711938,141.049027 159.895409,134.495626 162.080872,127.944218 C162.262163,125.455938 162.443455,122.968654 162.625743,120.480374 C159.895409,119.268109 157.16607,118.052856 154.434739,116.839595 C152.43256,114.959938 150.203268,113.383097 148.201089,111.502444" fill="#CCCC00"></path>
		<path d="M82.9031595,149.421323 C92.0892763,149.421323 101.791377,148.911315 110.20551,145.052389 C112.58621,141.481339 114.937027,138.563735 117.84965,135.407066 C115.199004,140.414506 114.367253,143.245447 113.664,148.875455 C112.753556,150.210241 111.844109,151.544031 110.933665,152.879813 C104.016685,153.061105 97.1007004,153.243393 90.1837198,153.425681 C87.9384903,153.181634 85.6942568,152.93958 83.4490272,152.697525 C83.2059767,152.453479 82.9639222,152.211424 82.7208716,151.96937 C82.7826304,151.119689 82.843393,150.270008 82.9031595,149.421323" fill="#CCCC00"></path>
		<path d="M81.6291362,143.051206 C81.3920623,140.897619 81.1539922,138.743035 80.9159222,136.587455 C79.3470506,146.034553 79.7235798,152.366817 75.3755642,160.829759 C72.128249,164.592062 68.1288716,168.015689 63.5487626,169.848529 C63.936249,172.168467 64.0517977,173.619798 63.826677,175.320156 C63.0198288,181.439253 50.779642,178.735813 45.7443113,178.491767 C53.823751,180.572638 61.9011984,182.651518 69.979642,184.731393 C71.8005292,184.003237 73.6194241,183.276078 75.4403113,182.547922 C76.0479377,179.029665 76.6545681,175.509416 77.2611984,171.99116 C78.9595642,168.836482 80.6589261,165.679813 82.3572918,162.527128 C82.6601089,160.58372 82.9639222,158.644296 83.2677354,156.701883 C82.7208716,152.151658 82.176,147.601432 81.6291362,143.051206" fill="#CCCC00"></path>
		<path d="M67.977463,89.7205292 C67.7244514,94.3145837 67.4276109,96.2291051 69.4527004,100.286257 C72.027642,105.442117 75.1902879,110.288187 77.988358,115.38428 C78.2921712,111.985556 78.5949883,108.588825 78.8988016,105.191097 C75.2590195,100.033245 71.6182412,94.8773852 67.977463,89.7205292" fill="#CCCC00"></path>
		<path d="M30.6144125,124.420981 C29.8254942,126.097432 29.0385681,127.774879 28.2496498,129.452327 C30.418179,136.756794 32.3466459,141.38372 36.4755175,147.764794 C35.7563268,150.349696 35.218428,151.481276 33.5638911,153.588047 C29.9300856,153.030226 26.7026926,152.86786 23.0200778,152.879813 C27.0851984,156.033494 31.1503191,159.190163 35.2154397,162.34484 C37.2166226,161.979268 39.2197977,161.615689 41.2219767,161.252109 C43.2231595,159.24993 45.2263346,157.247751 47.2285136,155.245572 C44.3766537,150.815875 41.5247938,146.388171 38.67393,141.958475 C35.986428,136.113307 33.2999222,130.266148 30.6144125,124.420981" fill="#CCCC00"></path>
		<path d="M241.745681,34.5988482 C244.222008,45.7363424 247.415533,56.0151907 247.118693,67.4226304 C246.755113,81.4179611 244.027767,99.0969027 231.06042,107.535938 C216.538148,116.988016 199.490739,112.517479 183.556981,108.4673 C190.049619,111.137868 196.542257,113.806444 203.032903,116.476016 C209.100202,116.779829 215.167502,117.083642 221.234802,117.385463 C225.360685,116.173198 229.486568,114.959938 233.611455,113.746677 C236.826895,111.076109 240.043331,108.407533 243.25877,105.736965 C245.685292,100.640872 248.111813,95.5447782 250.539331,90.4486848 C251.449774,84.562677 252.359222,78.6776654 253.268669,72.7926537 C252.54151,67.0281712 251.812358,61.2646848 251.085198,55.5011984 C249.750412,49.7984747 248.41463,44.0947549 247.08084,38.3920311 C245.302786,37.1269728 243.524732,35.8629105 241.745681,34.5988482" fill="#CCCC00"></path>
		<path d="M25.0282335,67.7951751 C18.4359844,72.0864125 15.8461012,73.9700545 16.5692763,81.9229883 C17.2257121,84.3046848 17.883144,86.6863813 18.5395798,89.0680778 C19.4709416,89.6986148 20.4013074,90.3281556 21.3316732,90.9576965 C22.482179,91.3411984 23.6316887,91.7237043 24.7821946,92.1072062 C26.8630661,91.6151284 28.9439377,91.1220545 31.0238132,90.6289805 C32.0926381,87.3159222 33.1604669,84.0038599 34.2272996,80.6908016 C31.2708482,82.1421323 28.3134008,83.593463 25.3569494,85.0447938 L23.3039689,85.0447938 C22.5379611,83.867393 21.7709572,82.6899922 21.0039533,81.5125914 C21.9353152,80.1429416 22.8656809,78.775284 23.7970428,77.4056342 C24.2901167,74.8047938 24.7821946,72.2039533 25.2752685,69.6031128 C25.9048093,69.7943658 26.5343502,69.9866148 27.1638911,70.1768716 C27.9308949,70.7805136 28.6969027,71.3831595 29.4639066,71.9838132 C29.3543346,70.6161556 29.2447626,69.2465058 29.1351907,67.8778521 C28.6152218,67.0022724 28.0942568,66.1256965 27.5742879,65.2501167 C27.0543191,64.8108327 26.5343502,64.3735409 26.0143813,63.9352529 C25.6856654,65.2222257 25.3569494,66.5091984 25.0282335,67.7951751" fill="#CCCC00"></path>
		<path d="M172.938459,5.12996109 C178.789603,10.5637354 185.970553,15.2862879 190.651268,21.9263502 C192.462195,24.4963113 194.474335,25.8111751 190.620389,29.4419922 C194.692482,28.278537 196.205572,28.4050428 199.465837,28.7995019 C205.395673,29.5176965 210.953961,37.9477665 211.30758,43.9881712 C211.237852,44.552965 209.661012,45.8359533 205.075922,47.1020078 C204.985276,47.2783191 202.488031,46.7603424 202.54979,46.9296809 C203.026926,48.2325914 203.66344,48.4328093 204.635642,49.042428 C204.846817,50.4927626 204.982288,52.7290272 205.970428,54.3148327 C208.85516,54.263035 211.675144,54.5778054 214.500109,55.1366226 C215.450397,56.7144591 215.307953,58.2912996 215.228265,59.8691362 C216.32,59.6878444 217.411735,59.5055564 218.504467,59.3242646 C218.20165,56.8359844 217.897837,54.3487004 217.595019,51.8614163 C218.56523,50.2228171 219.53544,48.5842179 220.506646,46.9476109 C219.111097,43.7909416 217.715549,40.6372607 216.32,37.4815875 C213.651424,34.9335409 210.981852,32.3854942 208.311284,29.8374475 C208.055284,29.8244981 207.796296,29.8115486 207.541292,29.7985992 C204.538023,27.9557977 201.536747,26.1139922 198.534475,24.2711907 C193.637603,20.2648405 188.741728,16.2594864 183.844856,12.2531362 C180.209058,9.87841245 176.574257,7.50468482 172.938459,5.12996109" fill="#CCCC00"></path>
		<path d="M182.794957,49.9767782 C182.486163,50.5166693 182.019984,51.3792996 181.423315,51.976965 C183.859798,54.2819611 185.062101,55.82593 185.931704,59.0861946 C183.176467,60.4538521 180.42123,61.8225058 177.666988,63.1891673 C175.335097,65.4244358 173.003206,67.6597043 170.673307,69.8939767 C167.604296,68.242428 166.84028,66.9743813 165.355082,63.8246848 C163.625837,64.2828949 161.988233,64.7231751 160.559813,64.1992218 C161.466272,64.2061946 162.022101,63.9800778 162.927564,63.4202646 C164.41077,61.879284 165.894973,60.3383035 167.378179,58.797323 C169.997946,56.8130739 172.618708,54.8278288 175.238475,52.8435798 C176.953774,52.2847626 178.668078,51.7259455 180.383377,51.1671284 C181.037821,50.898179 182.139518,50.2467237 182.794957,49.9767782" fill="#CCCC00"></path>
		<path d="M190.399253,58.1986615 C181.63449,62.9182257 173.239284,67.6646848 168.75779,76.6276732 C168.75779,65.2511128 180.181167,60.242677 190.399253,58.1986615" fill="#CCCC00"></path>
		<path d="M167.017588,35.8180856 C160.509012,40.255751 155.906988,49.2117665 156.484732,57.9396732 C154.365012,50.3821946 155.116078,43.2410895 161.62565,38.0214786 C162.724358,37.4875642 163.82207,36.9526537 164.920778,36.4197354 C165.620047,36.2195175 166.318319,36.0192996 167.017588,35.8180856" fill="#CCCC00"></path>
		<path d="M254.605447,56.4235953 C253.424062,48.9806693 251.467704,41.7558911 248.752311,36.5611829 C248.421603,35.9256654 247.919564,35.282179 247.297992,34.6675798 C245.949261,33.3377743 243.952062,32.0786926 241.889121,31.369463 C239.702661,30.6174008 237.397665,30.464 235.567813,31.4202646 C235.092669,31.6692918 234.651393,31.9900389 234.25793,32.3894786 C233.07256,33.590786 232.073463,35.0490895 231.072374,36.5113774 C229.958724,38.1390195 228.839097,39.7746304 227.499331,40.9181634 C225.946397,42.2459767 224.002988,43.0518288 222.170148,43.7879533 C221.366288,41.8445447 220.441899,40.0664903 219.396981,38.3970117 C218.143875,36.3988171 216.717447,34.5281245 215.14758,32.6564358 C213.864591,31.1294008 212.616467,29.9818833 211.265743,28.9538988 C209.912031,27.9209339 208.526444,27.0513307 206.911751,26.0412763 C202.584654,23.3308638 198.900047,20.0994864 195.141728,16.8013696 C193.434397,15.3032218 191.709136,13.7911284 190.021728,12.3995642 C181.072685,5.02038911 172.724296,1.44136965 163.796171,0.879564202 C154.928809,0.321743191 145.565385,2.75822568 134.510568,7.41204669 C129.175409,9.65727626 125.212887,12.3109105 121.76137,15.5014475 C118.464249,18.5525292 115.665183,22.0638132 112.588202,26.1647938 C110.797198,26.2922957 109.212389,26.5572607 107.592716,27.2057276 C105.808685,27.9189416 104.0127,29.074428 101.861105,30.9740078 C100.33407,32.319751 98.8727782,33.6754553 97.4602957,35.0411206 C96.137463,36.3201245 94.8534786,37.6220389 93.5874241,38.9378988 C83.5227393,40.5545837 75.3227704,42.3396109 67.9794553,45.1844981 C60.4697899,48.0931362 53.8496498,52.0955019 47.0502101,58.1249494 C44.2720623,60.5873307 41.8674553,63.1901634 39.762677,65.947393 C37.6947549,68.6558132 35.9246693,71.5036887 34.3717354,74.5069572 C33.0110506,76.0120778 31.6493696,77.531144 30.1741323,78.8599533 C28.735751,80.1548949 27.2027393,81.2456342 25.4854475,81.9070506 L25.4864436,81.9080467 C24.4873463,82.2925447 24.0739611,82.5176654 24.0291362,82.5027237 C23.9793307,82.4748327 23.9514397,82.3254163 23.880716,82.0494942 C26.3480778,79.6946926 26.7355642,76.2362023 26.9636732,72.8016187 C27.2595175,73.1562335 27.5444047,73.5925292 27.8392529,74.047751 C28.1649805,74.550786 28.498677,75.0697588 28.8991128,75.574786 L30.573572,77.6875331 L31.1622724,75.0518288 C31.6563424,72.8434553 32.0258988,69.9019455 31.4501479,67.3519066 C31.0776031,65.6973696 30.3096031,64.2221323 28.9718288,63.177214 C29.1003268,62.8425214 29.220856,62.5347237 29.3403891,62.2309105 C29.7607471,61.1561089 30.1930584,60.0534163 30.5606226,59.0114864 L31.2857899,56.9455564 L29.1262257,57.3200934 C26.2524514,57.819144 20.0755798,61.2138833 15.7265681,65.7272529 C14.1108794,67.4037043 12.7223035,69.2564669 11.8108638,71.2008716 C10.8625681,73.2239689 10.4382257,75.3407004 10.8057899,77.4594241 C11.126537,79.3111907 12.0529183,81.1280934 13.7363424,82.843393 C14.043144,84.0795642 14.3260389,85.1523735 14.628856,86.1205914 C14.9755019,87.2222879 15.3490428,88.2074397 15.8162179,89.1766537 C17.0822724,91.8093696 19.1003891,93.4170895 21.4352685,94.1671595 C23.3129339,94.7698054 25.3888249,94.7996887 27.4248716,94.354428 C27.0274241,96.6554397 26.7764047,99.0610428 26.678786,101.688778 C26.5502879,105.124358 26.6757977,108.919533 27.0543191,113.323331 C27.1369961,114.289556 27.2615097,115.353401 27.4228794,116.508887 C27.5623346,117.495035 27.7286848,118.463253 27.9079844,119.424498 C27.5274708,120.462444 27.144965,121.502381 26.7634553,122.540327 C26.1707704,124.152031 25.5780856,125.765728 24.9863969,127.377432 C23.6824903,128.669385 22.3785837,129.961339 21.0756732,131.252296 C19.8594241,132.454599 18.642179,133.660887 17.42593,134.866179 C17.325323,134.966786 16.9149261,135.360249 16.5433774,135.718848 C14.0780078,138.090584 13.5899144,138.561743 14.290179,142.736436 C14.7175097,145.294444 15.5592218,147.886319 16.8730895,150.385556 C18.0833619,152.690553 19.7070195,154.934786 21.7908794,157.024623 C24.3917198,159.63144 28.6530739,162.868794 33.1146459,164.564171 C35.6646848,165.533385 38.2934163,166.006537 40.7597821,165.611082 C40.6342724,165.990599 40.511751,166.369121 40.3732918,166.751626 C39.9848093,167.824436 39.5515019,168.898241 39.0723735,169.949136 C36.0461946,176.584218 39.1530584,180.048685 43.9891673,182.25407 C46.4037354,183.35477 49.2745214,184.101852 51.9421012,184.798132 C52.4879689,184.938584 53.0338366,185.082023 53.7211518,185.2673 C56.8828016,186.121961 62.3434708,187.690833 67.3309883,188.005603 C72.7747237,188.350257 77.6845447,187.226646 79.0004047,182.339735 C79.5213696,180.4033 79.8241868,178.919097 79.9467082,177.46677 C80.0602646,176.119035 80.0164358,174.756358 79.8590506,173.070942 C81.4109883,169.631377 82.0694163,168.664156 83.2039844,167.004638 C83.4261167,166.676918 83.6950661,166.284451 83.775751,166.160934 C84.9929961,164.357977 85.5627704,163.077977 85.7699611,161.636607 C85.9691829,160.246039 85.8008405,158.860451 85.5488249,156.741728 C85.5249183,156.540514 85.4880623,156.246661 85.4362646,155.858179 C88.6228171,156.266584 91.7645447,156.485728 94.8883424,156.50565 C96.4741479,156.515611 98.0589572,156.468794 99.6437665,156.385121 C99.2393463,156.593307 98.8418988,156.798506 98.4075953,157.021634 C98.2153463,157.120249 98.0171206,157.222848 97.8178988,157.325447 C93.6143191,159.487004 93.4390039,163.582008 94.7548638,167.794553 C95.9412296,171.593712 98.3826926,175.47256 99.9147082,177.832342 C103.135128,182.794957 106.208125,186.995549 109.933572,189.27863 C113.839315,191.67228 118.300887,191.954179 124.060389,188.837354 C126.989946,187.250553 127.914335,185.633868 129.158475,183.454381 C129.538988,182.788981 129.959346,182.063813 130.426521,181.348607 C131.63779,180.546739 134.650023,178.062444 137.607471,175.616996 C138.613541,174.785245 139.619611,173.956482 140.755175,173.032093 C141.537121,173.606848 142.481432,174.006288 143.621977,174.278226 C145.104187,174.63284 146.869292,174.793214 148.984031,174.944623 C150.566848,175.061167 155.728685,175.057183 159.063658,175.056187 C160.093634,175.056187 160.949292,175.056187 161.462288,175.059175 C164.90484,175.080093 167.683984,174.898802 169.783782,173.709447 C172.022039,172.440405 173.348856,170.193183 173.638724,166.162926 C173.76523,164.372918 173.78814,163.26923 173.540109,162.141634 C173.308016,161.085759 172.854786,160.129494 172.076825,158.728965 C172.030008,156.987767 171.983191,155.245572 171.93737,153.504374 C171.88856,151.656591 171.837759,149.807813 171.788949,147.961027 C171.730179,145.782537 171.490117,144.013447 171.047844,142.272249 C170.609556,140.543004 169.984,138.879502 169.146272,136.884296 C168.57849,135.534568 168.118288,134.294412 167.668047,133.078163 L166.459767,133.520436 L166.646039,133.451704 L167.668047,133.078163 L167.668047,133.073183 C166.94786,131.13077 166.237634,129.240156 165.243518,127.217058 C165.308265,126.826584 165.373012,126.407222 165.435767,125.958973 C166.075268,126.57656 166.715767,127.193152 167.355268,127.808747 L170.185214,130.536093 C172.343782,132.614973 174.317074,134.505588 176.635019,135.872249 C179.031658,137.286724 181.727128,138.107518 185.217494,137.942163 C188.871222,137.769837 192.780949,136.230848 196.000374,133.856125 C199.11421,131.557105 201.613447,128.457214 202.656374,125.026615 C202.958195,124.03449 203.260016,123.04137 203.559844,122.050241 C203.799907,121.259331 204.040965,120.466428 204.282023,119.674521 C209.406008,120.543128 214.905525,120.823035 220.217774,120.267206 C225.343751,119.728311 230.296405,118.423409 234.566724,116.145307 C240.845198,112.795393 245.551813,107.860669 248.934599,102.001556 L248.936591,102.002553 C252.716825,95.4541323 254.833556,87.7382724 255.638412,79.7982879 C256.282895,73.4301634 255.931268,64.7729805 254.605447,56.4235953 L254.605447,56.4235953 Z M188.217774,109.941541 C185.265307,108.94842 183.212327,107.498086 180.617463,105.863471 C181.323704,109.046039 181.645447,112.411891 180.705121,115.589479 C179.212949,120.630786 176.803362,128.878568 183.647626,130.400623 C186.253447,130.979362 187.434833,130.895689 191.112467,128.998101 C188.136093,129.672467 186.634957,129.507113 184.588949,129.127595 C182.735191,128.786926 181.752031,127.609525 181.234054,126.220949 C181.881525,126.688125 182.938397,126.942132 184.743346,127.377432 C189.817525,128.600654 194.652638,126.157198 195.598942,122.638942 C196.14979,120.582973 196.056156,119.503191 197.224591,116.701136 C198.27449,117.025868 199.360249,117.320716 200.473899,117.590661 C199.845354,119.639658 199.216809,121.690646 198.588265,123.739642 C196.957634,129.05986 190.603455,133.349105 184.99337,133.251486 C179.80663,133.159844 176.518475,129.911533 172.937463,126.725977 C170.471097,124.529556 168.09737,122.430755 165.74456,120.350879 C159.289774,118.313837 154.115984,115.934132 148.125385,111.499455 C152.388732,116.508887 155.280436,119.283051 161.22621,121.776311 C160.361588,130.596856 157.29656,137.027735 154.68277,145.468763 C153.499393,149.284856 144.161868,164.580109 141.573977,166.071284 C139.729183,167.134132 128.171331,176.868109 125.997821,178.153089 C124.378148,180.303689 122.9567,183.275082 120.52221,184.561058 C113.104187,188.483735 108.336809,180.973074 104.345401,174.629852 C102.527502,171.739144 97.4802179,163.415658 101.880031,161.083767 C106.040778,158.88137 108.370677,157.306521 112.615097,154.519409 C113.238661,155.655969 114.308482,156.753681 115.005759,157.889245 C114.852358,156.647097 114.697961,155.405946 114.542568,154.162802 C114.263658,151.912591 114.274615,150.085728 114.453914,147.821572 C114.627237,145.630132 114.798568,143.437696 114.970895,141.245261 C114.332389,143.473556 113.056374,145.701852 112.418864,147.929152 C112.16386,148.820669 111.952685,149.540856 111.83116,150.208249 C102.307362,152.154646 92.8522957,152.276171 83.3255097,150.576809 C82.7178833,147.049588 81.9777743,143.374942 81.3571984,140.740233 C81.1689339,143.690708 81.2904591,151.847844 81.2745214,156.416 C81.2625681,159.954179 81.1141479,161.165447 79.2892763,164.176685 C77.5809494,166.993681 76.8577743,167.634179 74.4651206,172.39558 C74.6643424,175.40084 74.6683268,177.386086 73.8704436,180.237946 C72.5426304,184.979424 59.1499455,181.305774 55.6177432,180.338553 C51.2667393,179.147206 42.2728716,177.378117 44.535035,171.57877 C46.5252607,166.473712 47.7873307,161.091735 48.7595331,153.949634 C40.7886693,142.467486 33.3766226,126.731953 31.954179,112.789416 C30.8494942,101.9647 31.5119066,95.3017276 33.8547549,88.6795953 C37.5662568,78.1875798 42.7599689,69.1060545 51.0924202,61.7926226 C62.3315175,51.9301479 72.8384747,47.9696187 89.289214,45.4654008 C85.3326693,49.8941012 81.4189572,54.5768093 77.1526226,59.5981946 C72.8344903,64.6813385 70.2685136,69.815284 67.5262257,75.3755642 C63.7380233,83.0545681 63.8197043,85.9771518 68.8410895,92.7188171 C73.1681868,98.5291206 75.5040623,101.143907 77.3936809,106.829696 C75.8337743,110.045136 75.2659922,112.763518 74.7420389,117.155362 C80.0403424,122.947735 83.9779611,126.916233 89.1228638,128.138459 C94.1691518,129.337774 98.3826926,129.105681 102.898054,126.798693 C112.924887,121.67172 122.202646,115.05158 133.514459,114.778646 C138.747019,101.913899 138.218086,91.1638911 135.705899,78.7165136 C133.989603,70.2157198 133.301292,62.1671595 132.768374,53.5010117 C130.646661,62.4261479 130.248218,70.2744903 131.82207,79.1647626 C133.719658,89.8779144 135.194895,101.715673 129.916514,111.130895 C119.688467,111.913837 110.922708,118.136529 101.704716,122.910879 C97.9991907,124.830381 94.1412607,125.01765 90.0402802,123.892047 C86.2331518,122.846132 83.6641868,120.326973 79.5632062,115.597447 C79.4984591,110.848 80.5702724,108.65656 82.7507549,104.355362 C86.2550661,97.4483424 90.1219611,91.0194553 94.3663813,84.224 C89.1696809,90.4964981 84.2459144,95.7370272 80.1558911,102.043393 C78.592,97.5897899 76.3567315,95.3276265 72.6531984,90.3122179 C69.0363268,85.4133541 68.6578054,83.2687315 71.3622412,77.5988794 C74.0816187,71.9021323 76.3876109,66.8946926 81.0165292,61.897214 C89.0142879,53.2599533 96.3406693,43.6484981 105.086506,35.1417276 C109.835953,30.5237665 111.76442,30.683144 118.062817,29.7288716 C123.756576,28.8652451 129.314864,27.7764981 135.121183,26.4277665 C129.506117,26.9507237 124.078319,27.1429728 118.610677,27.2784436 C118.553899,27.2804358 118.498117,27.282428 118.441339,27.2834241 C123.820327,20.4142568 126.942132,16.5862101 135.677012,12.7900389 C157.184996,3.44952529 170.850615,2.43947082 187.745619,16.6409961 C192.124514,20.3226148 195.948576,23.8956576 200.388233,27.0712529 C198.778521,27.208716 197.390942,27.4975875 195.556109,28.2177743 C197.789385,27.7924358 200.368311,28.2137899 202.686257,28.6381323 C203.336716,29.0604825 204.005105,29.4718755 204.689432,29.8752996 C207.824187,31.7220856 209.603237,32.7421012 211.722957,35.6955642 C213.963206,38.8163735 215.830911,41.9351907 217.476482,45.3727626 C216.397696,44.9872685 215.49323,44.6615409 214.687377,44.4224747 C214.093696,44.1495409 213.448218,43.9712374 212.763891,43.9044981 C211.408187,43.7740078 210.111253,44.1077043 209.030475,44.7731051 C208.986646,44.7930272 208.943813,44.8129494 208.899984,44.8338677 C207.165759,45.677572 204.480249,46.6398132 202.683268,46.9316732 C203.599689,47.2484358 205.627767,47.3669728 206.584031,46.9884514 C206.711533,46.9376498 206.842023,46.8988016 206.975502,46.8669261 C206.544187,47.6010584 206.263284,48.4338054 206.175626,49.335284 C206.061074,50.5296187 206.304125,51.675144 206.817121,52.6702568 C206.819113,52.6732451 206.820109,52.6762335 206.822101,52.681214 C206.984467,53.0627237 207.209588,53.4143502 207.457619,53.668358 C206.636825,53.9711751 205.798101,54.3168249 204.933479,54.692358 C208.941821,54.0817432 212.555704,53.9771518 216.467424,54.4921401 C216.725416,55.725323 216.985401,57.0322179 217.226459,58.3610272 C216.741354,58.3988794 216.258241,58.4357354 215.773136,58.4745837 C215.735284,58.477572 215.694444,58.4815564 215.655595,58.4855409 C213.804825,57.0063191 211.742879,57.2543502 208.925883,57.8978366 C200.35835,59.8512062 202.371486,64.658428 198.430879,71.9021323 C202.522895,66.8996732 202.219082,61.6661167 208.888031,60.0862879 C210.441961,59.7187237 211.499829,59.2575253 212.55172,59.4159066 C210.659113,60.3681868 209.02151,61.9470195 208.372047,63.7798599 C206.541198,68.9486693 207.677759,73.3036576 205.666615,78.1317977 C208.157883,73.8156576 208.308296,69.6041089 210.535595,65.0628482 C211.335471,63.4322179 214.303875,60.8214163 216.126755,60.781572 C216.627798,60.7696187 217.125852,60.7596576 217.626895,60.7487004 C218.066179,63.6214786 218.333136,66.4743346 218.162802,68.8400934 C217.852016,73.1582257 216.730397,79.5671907 216.059019,82.0196109 C218.315206,79.1189416 219.343191,72.9759377 220.334319,68.6508327 C221.366288,64.1484202 221.105307,58.7445292 220.201837,53.9074241 C218.962677,47.2703502 225.797977,48.3501323 229.766475,45.2223502 C232.683082,42.9223346 234.692233,39.250677 237.366786,36.6488405 C240.019424,34.0699144 244.195113,37.8601089 245.239035,40.3812607 C249.763362,51.3275019 251.824311,68.5492296 250.629977,79.5841245 C249.288218,91.9657588 243.30758,105.482957 232.387237,111.579144 C218.464623,119.34979 202.049743,114.602335 188.217774,109.941541 L188.217774,109.941541 Z M168.436047,164.93572 C167.981821,170.044763 166.279471,170.382444 161.792996,170.303751 C159.754957,170.267891 151.638661,170.231035 149.578708,170.053728 C146.669074,169.802708 145.035455,169.542724 144.14593,168.879315 C148.71807,165.523424 156.486724,151.666553 158.000809,146.896187 C159.602553,141.856872 161.355704,137.458054 162.659611,132.800249 C163.259268,134.746646 163.733416,136.676109 164.606008,138.744031 C166.063315,142.199533 166.775533,144.335191 166.880125,148.041712 C166.989696,151.952436 167.100265,155.864156 167.210833,159.774879 C168.462942,161.967315 168.658179,162.435486 168.436047,164.93572 L168.436047,164.93572 Z M30.8425214,126.233899 C33.746179,136.276669 38.6918599,146.146117 44.1754397,154.442708 C44.1754397,154.490521 44.1744436,154.538335 44.1744436,154.58814 C43.8297899,156.014568 43.4333385,157.403144 42.5995953,158.518786 C38.6809027,163.762304 28.7118444,156.06537 25.8261167,153.120872 C22.6724358,149.899455 20.5606848,146.08635 20.0576498,142.508327 C19.6920778,139.899518 20.0476887,139.835767 21.8675798,137.989977 C24.3209961,135.505681 26.7774008,133.020389 29.229821,130.537089 C29.7667237,129.102693 30.3046226,127.6673 30.8425214,126.233899 L30.8425214,126.233899 Z M25.298179,63.0736187 C24.5540856,64.6713774 24.0261479,65.8816498 23.6665525,67.1277821 C22.1036576,72.5256965 24.3737899,77.3438755 19.4729339,81.2565914 C21.7759377,85.9034397 21.6703502,87.7562023 27.0274241,85.6095875 C29.0933541,84.7808249 30.7976965,83.6193619 32.3187549,82.2457276 C31.5935875,84.1204047 30.921214,86.0548482 30.2876887,88.0520467 C30.1821012,88.3827549 30.0814942,88.7154553 29.9838755,89.0451673 C26.1528405,90.6708171 21.1145214,91.7037821 19.1860545,87.6775097 C18.2497121,85.723144 17.7207782,83.8046381 17.0384436,81.335284 C10.7290895,74.7988171 20.160249,66.1685292 25.298179,63.0736187 L25.298179,63.0736187 Z M28.3990661,69.997572 C27.6201089,69.2186148 26.9965447,68.690677 25.9904747,68.8052296 C26.075144,68.1448093 26.1877043,67.5082957 26.3470817,66.9096342 C26.4277665,66.6018366 26.5134319,66.3000156 26.6050739,65.9971984 C27.9109728,66.7582257 28.2556265,68.1368405 28.3990661,69.997572 L28.3990661,69.997572 Z M217.577089,45.5839377 C217.81516,46.0859767 218.049245,46.5969805 218.279346,47.1139611 C218.089089,47.2534163 217.907798,47.4008405 217.738459,47.5562335 C217.427673,46.8290739 216.976436,46.1696498 216.417619,45.6178054 C216.794148,45.6038599 217.179642,45.5919066 217.577089,45.5839377 L217.577089,45.5839377 Z M35.4325914,75.2530428 L35.4315953,75.2520467 L35.4325914,75.2530428 L35.4325914,75.2530428 Z M14.8968093,82.1919377 L14.8978054,82.1919377 L14.8968093,82.1919377 L14.8968093,82.1919377 Z M83.9321401,154.361027 L83.9341323,154.361027 L83.9321401,154.361027 L83.9321401,154.361027 Z M140.795019,171.336716 L140.795019,171.336716 L140.794023,171.336716 L140.795019,171.336716 L140.795019,171.336716 Z M163.905743,127.410304 L163.906739,127.410304 L163.905743,127.4113 L163.905743,127.410304 L163.905743,127.410304 Z M25.9486381,83.1103502 L25.9486381,83.1093541 L25.947642,83.1103502 L25.9058054,82.998786 L25.9486381,83.1103502 L25.9486381,83.1103502 Z M247.803019,101.348109 L247.803019,101.348109 L247.832903,101.366039 L247.803019,101.348109 L247.803019,101.348109 Z" fill="#000000"></path>
		<path d="M3.68759533,81.5384903 C4.69167315,70.1708949 6.90203891,65.2630661 14.9784903,56.7074864 C4.84806226,63.8465992 2.31993774,67.0909261 3.68759533,81.5384903" fill="#000000"></path>
		<path d="M1.07480156,72.2527626 C2.19044358,67.1367471 3.23038132,65.2062879 6.38406226,61.0066926 C1.26705058,64.5817276 0.599657588,66.0499922 1.07480156,72.2527626" fill="#000000"></path>
		<path d="M119.924545,0.934350195 C113.856249,2.39663813 112.69877,3.51925292 110.878879,9.46801556 C113.782537,5.11203113 115.455004,3.69456809 119.924545,0.934350195" fill="#000000"></path>
		<path d="M129.49516,0.0677354086 C117.458179,3.01821012 113.920996,5.11601556 109.922615,19.0665214 C115.004763,8.84943191 118.853728,5.0871284 129.49516,0.0677354086" fill="#000000"></path>
		<path d="M155.418895,50.9240778 C156.701883,45.2402802 158.981977,39.762677 167.809494,35.5252296 C156.108202,38.4557821 153.91477,43.3695875 155.418895,50.9240778" fill="#000000"></path>
		<path d="M229.867082,51.3165447 C236.796016,48.8461946 240.135969,43.2759533 241.795486,36.7215564 C239.083082,42.2150973 234.898428,46.8091518 229.212638,49.6231595 C226.161556,51.1322646 224.213167,50.6063191 220.806475,50.2835798 C224.270942,51.2776965 226.46537,52.5288093 229.867082,51.3165447" fill="#000000"></path>
		<path d="M182.665463,56.886786 C181.74207,54.9513463 180.124389,53.5647626 178.251704,52.8784436 C179.951066,51.9709883 181.620545,51.0177121 182.923455,49.8333385 C179.108358,51.5994397 174.666708,51.1681245 171.393494,53.3794864 C168.509759,55.3268794 164.530304,61.4987704 161.599751,64.1155486 C163.722459,63.2917665 165.767471,61.8673307 167.649121,60.3651984 C167.657089,61.4818366 167.902132,62.6124202 168.413136,63.6842335 C169.176156,65.2819922 170.410335,66.5042179 171.871626,67.2682335 C170.816747,68.6578054 169.941167,70.2137276 169.314615,71.9389883 C174.893821,65.3268171 182.983222,60.333323 190.588514,58.1976654 C188.462817,58.1677821 185.94565,58.5652296 183.381665,59.4079377 C183.288031,58.5552685 183.054942,57.7035953 182.665463,56.886786" fill="#000000"></path>
		<path d="M174.637821,106.848623 C174.366879,108.560934 173.995331,110.688623 173.724389,112.40193 C174.44856,110.463502 175.321152,108.2113 176.16386,106.363518 C177.058366,104.408156 177.561401,104.223875 179.457992,103.191907 C180.802739,102.459767 183.245198,101.453696 184.589946,100.721556 C183.20635,100.954646 180.726039,101.463658 179.342444,101.696747 C175.645883,102.321307 175.210584,103.20884 174.637821,106.848623" fill="#000000"></path>
		<path d="M111.499455,40.7458366 C107.209214,44.9862724 103.043486,59.5364358 101.711689,65.3576965 C103.809494,60.5215875 109.056996,46.994428 113.083268,43.5528716 C114.194926,42.6015875 114.971891,42.0178677 115.80663,41.5935253 C112.924887,46.4256498 113.136062,47.6279533 114.148109,54.1026615 C115.006755,47.5203735 117.282864,44.9773074 121.018272,40.0664903 C125.11228,39.0385058 128.944311,37.8083113 133.143907,36.1697121 C128.407409,36.7056187 123.677883,37.1957043 118.939393,37.6439533 C114.960934,38.0214786 114.320436,37.9567315 111.499455,40.7458366" fill="#000000"></path>
		<path d="M169.939175,65.5140856 C169.15723,63.8784747 169.856498,61.9081712 171.496093,61.1282179 C173.135689,60.3472685 175.109977,61.0445447 175.891922,62.6811518 C175.96663,62.8365447 176.025401,62.9959222 176.07421,63.1552996 C174.508327,64.3177588 173.072934,65.6864125 171.868638,67.2722179 C171.058802,66.9464903 170.340607,66.3538054 169.939175,65.5140856" fill="#FFFFCC"></path>
		<path d="M206.573074,51.3424436 C206.70456,49.9867393 207.860047,48.987642 209.214755,49.1191284 C210.568467,49.2506148 211.569556,50.4608872 211.439066,51.8155953 C211.410179,52.1044669 211.332482,52.3744125 211.215938,52.6234397 C209.975782,52.8356109 208.735626,53.1981946 207.457619,53.668358 C206.923704,53.1214942 206.498366,52.123393 206.573074,51.3424436" fill="#FFFFCC"></path>
	</g>
</svg>