<?xml version="1.0" encoding="UTF-8"?>
<svg width="164px" height="256px" viewBox="0 0 164 256" version="1.1" xmlns="http://www.w3.org/2000/svg" xmlns:xlink="http://www.w3.org/1999/xlink" preserveAspectRatio="xMidYMid">
    <g>
        <path d="M125.533525,84.856832 C126.234965,66.5716053 121.616725,59.190272 118.150485,53.9132587 C114.633045,48.9895253 106.195285,41.2532053 95.8272853,40.9289387 C86.0224853,40.6234453 83.663872,46.042112 74.6185387,46.369792 C73.1354453,29.8970453 85.5668053,20.8585387 85.5668053,20.8585387 C85.5668053,20.8585387 82.1671253,16.054272 79.3545387,14.881792 C76.1186987,17.7575253 68.360192,26.017792 66.701312,37.107712 C64.9536853,20.7732053 56.7872853,10.3266987 38.6829653,3.04605867 C33.5407787,21.0343253 50.5186987,37.839872 61.5488853,44.4770987 C55.7018453,42.5127253 50.6279253,39.9168853 43.8132053,41.2583253 C31.9023787,43.6032853 22.0839253,50.803712 16.4877653,66.6057387 C10.893312,82.4077653 18.4640853,100.843179 20.109312,106.108245 C21.7562453,111.378432 33.9367253,133.761365 43.4838187,137.053525 C53.0292053,140.349099 53.0326187,138.864299 58.135552,136.891392 C63.2384853,134.916779 70.9730987,131.293525 82.3343787,135.411712 C93.6871253,139.524779 95.168512,140.511232 102.244352,135.903232 C109.327019,131.295232 118.541312,116.976299 120.679765,112.859819 C122.819925,108.746752 123.971925,106.604885 124.634112,104.466432 C125.456725,98.2029653 124.902059,101.245952 125.533525,84.856832" fill="#D1D2D3"></path>
        <path d="M126.214656,110.16192 L126.214656,119.103147 C126.214656,121.197227 127.912789,122.89536 130.006869,122.89536 L130.006869,122.89536 L144.076629,122.89536 C148.601003,122.89536 152.942763,124.694187 156.142763,127.894187 C159.344469,131.095893 161.143296,135.435947 161.143296,139.962027 L161.143296,139.962027 L161.142317,181.198985 C161.142285,181.658001 161.142252,182.115644 161.142219,182.571734 L161.141346,191.858973 C161.141296,192.284417 161.141245,192.707037 161.141192,193.126652 L161.140495,198.006133 C161.140432,198.398798 161.140367,198.78773 161.1403,199.17275 L161.139883,201.434453 C161.139883,205.970773 159.335936,210.321067 156.120576,213.522773 C152.906923,216.72448 148.549803,218.514773 144.013483,218.499413 C139.258709,218.51136 134.258176,218.502827 130.087083,218.4448 C129.066496,218.42432 128.081749,218.81344 127.353003,219.528533 C126.625963,220.24192 126.214656,221.218133 126.214656,222.235307 L126.214656,222.235307 L126.214339,226.749094 C126.214304,226.931737 126.214265,227.115473 126.214222,227.300091 L126.213464,229.544517 C126.213379,229.732856 126.213288,229.921242 126.213191,230.109466 L126.212523,231.2352 C126.210389,234.409813 126.206123,237.41696 126.197589,239.230293 C126.197589,240.35328 125.697536,241.41824 124.833963,242.13504 C120.487083,245.418667 105.301163,252.695893 71.3350827,252.695893 C38.0704427,252.695893 22.2291627,247.261867 17.286656,244.399787 C16.196096,243.705173 15.535616,242.500267 15.5322027,241.210027 C15.517184,233.835861 15.4611944,207.580048 15.4031959,180.486075 L15.3952782,176.787942 C15.3279344,145.338457 15.2602709,113.864788 15.2529605,110.46478 L15.2523093,110.16192 L126.214656,110.16192 Z M143.034197,138.088619 L130.954411,138.088619 C129.782044,138.088619 128.652792,138.525707 127.785893,139.305529 L127.604224,139.477845 C126.774329,140.309333 126.283401,141.412887 126.221632,142.580368 L126.214997,142.831445 L126.214997,197.999445 C126.214997,199.171812 126.650599,200.301064 127.43161,201.169351 L127.604224,201.351339 C128.432526,202.181234 129.538841,202.670675 130.703929,202.732246 L130.954411,202.738859 L143.034197,202.738859 C144.206564,202.738859 145.335816,202.304743 146.204103,201.52393 L146.386091,201.351339 C147.214393,200.521444 147.705215,199.415023 147.766977,198.249927 L147.773611,197.999445 L147.773611,142.831445 C147.773611,141.655893 147.338009,140.529402 146.558385,139.66011 L146.386091,139.477845 C145.556196,138.649543 144.449775,138.157234 143.284679,138.095274 L143.034197,138.088619 Z" fill="#FEFEFE"></path>
        <path d="M26.191872,109.062656 L26.191872,226.619563 C26.191872,227.976363 26.9154987,229.229056 28.091392,229.906603 C32.888832,232.193536 46.810112,237.653163 71.217152,237.653163 C95.7846187,237.653163 109.291179,231.019349 113.815552,228.285269 C114.895872,227.590656 115.546112,226.392576 115.546112,225.109163 C115.556352,209.520469 115.556352,109.062656 115.556352,109.062656 L26.191872,109.062656 Z" fill="#FAAF41"></path>
        <path d="M39.327744,123.713536 C42.128384,123.713536 44.4187307,125.903189 44.5791573,128.664576 L44.5876907,128.973483 L44.5876907,219.821056 C44.5876907,222.725803 42.2324907,225.081003 39.327744,225.081003 C36.5253973,225.081003 34.2367573,222.891349 34.0763307,220.131669 L34.0677973,219.821056 L34.0677973,128.973483 C34.0677973,126.068736 36.4229973,123.713536 39.327744,123.713536" fill="#FFDA95"></path>
        <path d="M89.8184533,133.186048 C89.8184533,131.289941 88.7022933,129.025195 86.8693333,127.888555 C83.88608,126.084608 81.55648,123.316395 80.2884267,120.019115 C56.02304,120.834901 33.8773333,116.575061 22.7191467,113.566208 C19.85536,112.753835 16.9540267,112.079701 14.02368,111.547221 C7.3472,110.221141 2.27157333,104.357035 2.27157333,97.3067947 C2.27157333,89.5465813 8.42922667,83.240448 16.1211733,82.963968 C17.6042667,74.756608 24.7688533,68.525568 33.4045867,68.525568 C43.11552,68.525568 50.9883733,76.3984213 50.9883733,86.1093547 C50.9883733,88.1522347 50.6197333,90.1080747 49.9797333,91.934208 L50.0309333,91.9427413 C52.2001067,85.160448 58.5489067,80.245248 66.0514133,80.245248 C73.5044267,80.245248 79.8208,85.1024213 82.0258133,91.821568 C81.96096,91.2157013 81.9285333,90.5995947 81.9285333,89.9749547 C81.9285333,79.8749013 90.1154133,71.689728 100.21376,71.689728 C108.388693,71.689728 115.30752,77.055488 117.649067,84.453888 L119.241387,84.0374613 C121.326933,82.8632747 123.7248,82.1840213 126.288213,82.1840213 C134.224213,82.1840213 140.65664,88.6181547 140.653228,96.5507413 C140.653228,103.819435 135.258453,109.825195 128.254293,110.784341 C126.667093,111.007915 125.11232,111.412395 123.615573,111.989248 C119.451307,113.557675 115.19488,114.858155 110.895787,115.931648 C110.680747,118.051328 110.04928,120.048128 109.085013,121.840128 C107.3408,125.113515 106.559147,128.813568 106.8288,132.511915 C106.827093,132.735488 106.835627,133.909675 106.835627,134.134955 C106.835627,138.833408 103.026347,141.692075 98.3227733,141.692075 C93.6277333,141.692075 89.8184533,137.886208 89.8184533,133.186048" fill="#FEFEFE"></path>
        <polygon fill="#010202" points="86.4017067 112.433152 86.5024 112.740352 86.4699733 112.433152"></polygon>
        <path d="M37.19168,0 L39.5298133,0.938666667 C54.5570133,6.98197333 63.3053867,15.2814933 67.0993067,27.5182933 C69.49888,22.20032 73.1426133,17.4711467 77.3768533,13.6072533 L77.3768533,13.6072533 L78.9128533,12.2368 L80.2304,12.78464 C80.79872,13.0235733 81.3653333,13.3495467 81.9387733,13.75744 C82.8296533,14.3906133 83.73248,15.2132267 84.6472533,16.18432 C85.3418667,16.9198933 86.0040533,17.7015467 86.6167467,18.4814933 L86.6167467,18.4814933 L86.9546667,18.9166933 L87.33184,19.4235733 L88.7159467,21.3777067 L86.90176,22.69696 L86.6542933,22.8881067 L86.31296,23.168 L85.89312,23.5383467 L85.3998933,23.9940267 C84.2018133,25.1306667 82.9986133,26.4874667 81.8756267,28.05248 C78.7336533,32.43008 76.84608,37.4920533 76.7675733,43.2366933 L76.7675733,43.2366933 L76.7658667,43.9057067 L77.2573867,43.8254933 C78.9486933,43.5165867 80.5393067,42.9243733 82.8672,41.8645333 L82.8672,41.8645333 L84.1966933,41.2552533 C88.69376,39.2192 91.38688,38.5194667 95.8976,38.6594133 C105.47712,38.9597867 114.69312,45.1669333 120.04864,52.6677333 C120.168107,52.8503467 120.28928,53.03296 120.405333,53.21728 L120.405333,53.21728 L121.094827,54.3095467 L121.751893,55.3949867 C125.84448,62.34624 127.81568,69.0944 127.88736,79.99488 C136.326827,80.79872 142.928213,87.9035733 142.9248,96.5512533 C142.9248,104.89344 136.751787,111.91296 128.571733,113.032533 C128.54272,113.037653 128.515413,113.04448 128.484693,113.0496 L128.484693,113.0496 L128.484693,119.103147 C128.484693,119.942827 129.16736,120.625493 130.00704,120.625493 L130.00704,120.625493 L144.0768,120.625493 C149.205333,120.625493 154.123947,122.661547 157.750613,126.288213 C161.37728,129.916587 163.413333,134.8352 163.413333,139.962027 L163.413333,139.962027 L163.411627,201.434453 C163.411627,206.574933 161.365333,211.503787 157.723307,215.130453 C154.08128,218.758827 149.147307,220.788053 144.02048,220.76928 C143.296853,220.770987 142.58688,220.772693 141.888853,220.7744 L141.888853,220.7744 L137.751893,220.772693 L132.724053,220.745387 L130.039467,220.714667 C129.629867,220.706133 129.235627,220.863147 128.94208,221.149867 C128.65024,221.436587 128.484693,221.827413 128.484693,222.235307 L128.484693,222.235307 L128.479573,234.668373 L128.467627,239.230293 C128.467627,241.02912 127.6672,242.732373 126.201173,243.945813 C124.1344,245.507413 121.39008,246.985387 117.986987,248.323413 L117.986987,248.323413 L116.82816,248.762027 C115.053227,249.41568 113.114453,250.031787 111.015253,250.601813 L111.015253,250.601813 L109.590187,250.975573 L108.11904,251.33568 C106.624,251.68896 105.05728,252.02176 103.420587,252.330667 L103.420587,252.330667 L101.76,252.632747 L100.053333,252.91776 C98.6094933,253.14816 97.1195733,253.3632 95.5818667,253.55776 L95.5818667,253.55776 L93.71136,253.78304 L91.79648,253.991253 L89.83552,254.178987 L87.82848,254.349653 L85.77536,254.49984 L83.67616,254.629547 C83.32288,254.650027 82.9678933,254.6688 82.6112,254.687573 L82.6112,254.687573 L80.44544,254.78656 L78.2353067,254.865067 C77.4894933,254.885547 76.73856,254.906027 75.9790933,254.921387 L75.9790933,254.921387 L73.6785067,254.953813 C72.9053867,254.962347 72.1237333,254.96576 71.3352533,254.96576 L71.3352533,254.96576 L70.1354667,254.96576 C69.34016,254.96064 68.5499733,254.953813 67.76832,254.94528 L67.76832,254.94528 L65.4455467,254.907733 L63.1671467,254.85312 C62.4145067,254.83264 61.6704,254.80704 60.93312,254.78144 L60.93312,254.78144 L58.7451733,254.690987 C58.38336,254.67392 58.02496,254.65856 57.66656,254.639787 L57.66656,254.639787 L55.5451733,254.523733 L53.4698667,254.394027 L51.44064,254.245547 C51.1044267,254.221653 50.7733333,254.194347 50.44224,254.16704 L50.44224,254.16704 L48.48128,253.99808 C48.15872,253.96736 47.8378667,253.938347 47.51872,253.90592 L47.51872,253.90592 L45.6277333,253.714773 L43.7845333,253.508267 C43.4807467,253.472427 43.1786667,253.436587 42.88,253.39904 L42.88,253.39904 L41.1067733,253.170347 L39.3813333,252.931413 L37.7053867,252.67712 C36.87936,252.545707 36.0704,252.412587 35.2802133,252.27264 L35.2802133,252.27264 L33.72544,251.987627 C33.46944,251.93984 33.2168533,251.890347 32.9659733,251.840853 L32.9659733,251.840853 L31.48288,251.538773 L30.0509867,251.226453 L28.6685867,250.90048 L27.33568,250.56768 C26.0283733,250.228053 24.79616,249.873067 23.6424533,249.506133 L23.6424533,249.506133 L22.51264,249.13408 C21.95968,248.946347 21.4289067,248.7552 20.9152,248.558933 L20.9152,248.558933 L19.9150933,248.168107 C18.4541867,247.57248 17.1707733,246.95296 16.06656,246.314667 C14.3240533,245.203627 13.2676267,243.280213 13.2625067,241.21344 L13.2625067,241.21344 L12.98944,113.629867 C5.46474667,111.85152 0,105.14432 0,97.3073067 C0,89.66656 5.1712,83.2238933 12.2350933,81.29024 C12.1480533,78.96576 12.20096,76.672 12.4416,74.40896 C12.7624533,71.4154667 13.3888,68.5568 14.3479467,65.8466133 C19.8485333,50.3108267 29.6379733,41.73312 43.3749333,39.02976 C45.8274133,38.54848 48.07168,38.4938667 50.4302933,38.8113067 C48.6485333,37.1438933 46.9384533,35.3604267 45.3819733,33.5104 C37.1285333,23.6919467 33.50016,12.9143467 36.4987733,2.42176 L36.4987733,2.42176 L37.19168,0 Z M123.943253,114.286933 L122.852693,114.688 C122.622293,114.771627 122.376533,114.8416 122.14272,114.92352 C120.0128,115.672747 117.82656,116.353707 115.602773,116.990293 C114.2272,117.384533 114.2272,117.384533 112.91648,117.756587 L112.91648,117.756587 L112.81408,118.275413 C112.503467,119.666347 112.032427,121.007787 111.4112,122.279253 L111.4112,122.279253 L110.808747,123.455147 C110.697813,123.682133 110.62272,123.922773 110.523733,124.15488 C109.402453,126.731947 108.888747,129.554773 109.098667,132.51072 L109.098667,132.51072 L109.100373,132.84352 L109.105493,134.13376 C109.105493,139.999573 104.418987,143.96416 98.3227733,143.96416 C95.2285867,143.96416 92.4450133,142.651733 90.48064,140.561067 C89.04704,139.035307 88.0571733,137.09824 87.7021867,134.939307 C87.60832,134.367573 87.54688,133.783893 87.54688,133.18656 C87.54688,131.969707 86.7498667,130.48832 85.69344,129.831253 C82.7818667,128.069973 80.4266667,125.515093 78.8992,122.482347 L78.8992,122.482347 L78.8258133,122.33216 L77.33248,122.364587 C60.1088,122.658133 42.57792,120.5504 28.1873067,117.25824 C26.5147733,116.875947 24.87296,116.48 23.29088,116.066987 L23.29088,116.066987 L22.0996267,115.751253 C22.0672,115.741013 22.03136,115.734187 21.9972267,115.723947 C20.52096,115.309227 19.03104,114.93376 17.5325867,114.59072 L17.5325867,114.59072 L17.8039467,241.204907 C17.8039467,241.722027 18.0701867,242.20672 18.4251733,242.433707 C19.0839467,242.816 19.8229333,243.191467 20.64384,243.560107 L20.64384,243.560107 L21.4903467,243.923627 C22.36416,244.28544 23.31648,244.63872 24.3490133,244.985173 L24.3490133,244.985173 L25.40544,245.3248 C25.9464533,245.492053 26.5079467,245.6576 27.0882133,245.82144 L27.0882133,245.82144 L28.2743467,246.142293 L29.51168,246.454613 L30.7985067,246.760107 L32.13824,247.053653 C32.36352,247.103147 32.59392,247.150933 32.8260267,247.19872 L32.8260267,247.19872 L34.2391467,247.478613 C34.7170133,247.570773 35.20512,247.662933 35.70176,247.75168 L35.70176,247.75168 L37.2138667,248.011093 C37.7258667,248.096427 38.2464,248.180053 38.7754667,248.260267 L38.7754667,248.260267 L40.3848533,248.497493 L42.0437333,248.72448 C42.3236267,248.76032 42.6052267,248.797867 42.89024,248.832 L42.89024,248.832 L44.6208,249.04192 L46.3991467,249.23648 L48.2235733,249.41568 C48.53248,249.4464 48.8430933,249.473707 49.1537067,249.50272 L49.1537067,249.50272 L51.0498133,249.664853 L52.992,249.811627 L54.9802667,249.94304 L57.0146133,250.059093 L59.09504,250.161493 C59.4449067,250.176853 59.7981867,250.190507 60.1514667,250.205867 L60.1514667,250.205867 L62.30016,250.284373 C62.6602667,250.29632 63.0237867,250.30656 63.39072,250.3168 L63.39072,250.3168 L65.6059733,250.369707 C65.9780267,250.376533 66.3517867,250.38336 66.72896,250.390187 L66.72896,250.390187 L69.0107733,250.415787 C69.7770667,250.420907 70.5518933,250.42432 71.3352533,250.42432 L71.3352533,250.42432 L72.4736,250.422613 C74.3645867,250.412373 76.2077867,250.381653 78.0049067,250.32704 L78.0049067,250.32704 L80.13824,250.253653 C80.4898133,250.241707 80.83968,250.226347 81.18784,250.20928 L81.18784,250.20928 L83.2529067,250.10688 L85.2736,249.984 C85.6064,249.961813 85.9392,249.939627 86.26688,249.915733 L86.26688,249.915733 L88.2210133,249.76384 C88.54016,249.73824 88.8610133,249.710933 89.1784533,249.683627 L89.1784533,249.683627 L91.0626133,249.506133 C91.37152,249.473707 91.6804267,249.442987 91.9876267,249.41056 L91.9876267,249.41056 L93.8001067,249.209173 C94.0987733,249.173333 94.3957333,249.137493 94.6909867,249.101653 L94.6909867,249.101653 L96.4352,248.874667 L98.1333333,248.630613 L99.7853867,248.374613 C100.328107,248.285867 100.864,248.193707 101.389653,248.103253 L101.389653,248.103253 L102.94784,247.816533 C103.458133,247.717547 103.963307,247.61856 104.45824,247.51616 L104.45824,247.51616 L105.92256,247.202133 L107.337387,246.877867 C108.265813,246.657707 109.160107,246.427307 110.025387,246.193493 L110.025387,246.193493 L111.296853,245.833387 C111.505067,245.771947 111.709867,245.7088 111.914667,245.64736 L111.914667,245.64736 L113.114453,245.2736 L114.264747,244.887893 C118.21056,243.524267 121.260373,241.99168 123.383467,240.385707 C123.726507,240.100693 123.926187,239.67744 123.926187,239.220053 L123.926187,239.220053 L123.943253,222.235307 C123.943253,220.60544 124.60032,219.04384 125.764267,217.905493 C126.928213,216.763733 128.50176,216.1408 130.117973,216.174933 L130.117973,216.174933 L132.77696,216.203947 L136.71936,216.22784 L141.89568,216.23296 L144.022187,216.22784 C147.954347,216.241493 151.7312,214.690133 154.518187,211.915093 C157.303467,209.138347 158.870187,205.36832 158.870187,201.434453 L158.870187,201.434453 L158.871893,139.962027 C158.871893,136.0384 157.313707,132.2752 154.538667,129.50016 C151.763627,126.72512 148.000427,125.166933 144.0768,125.166933 L144.0768,125.166933 L130.00704,125.166933 C126.65856,125.166933 123.943253,122.451627 123.943253,119.103147 L123.943253,119.103147 L123.943253,114.286933 Z M143.034027,135.818752 C144.892587,135.818752 146.676053,136.557739 147.991893,137.873579 C149.307733,139.187712 150.045013,140.971179 150.045013,142.831445 L150.045013,142.831445 L150.045013,197.999445 C150.045013,199.858005 149.307733,201.641472 147.990187,202.957312 C146.676053,204.271445 144.892587,205.008725 143.034027,205.008725 L143.034027,205.008725 L130.955947,205.008725 C129.097387,205.008725 127.31392,204.271445 125.996373,202.955605 C124.68224,201.641472 123.943253,199.858005 123.943253,197.999445 L123.943253,197.999445 L123.943253,142.831445 C123.943253,140.971179 124.68224,139.187712 125.99808,137.871872 C127.31392,136.557739 129.097387,135.818752 130.955947,135.818752 L130.955947,135.818752 Z M143.034027,140.361899 L130.955947,140.361899 C130.300587,140.361899 129.672533,140.621312 129.210027,141.082112 C128.74752,141.546325 128.484693,142.176085 128.484693,142.831445 L128.484693,142.831445 L128.484693,197.999445 C128.484693,198.654805 128.74752,199.282859 129.20832,199.743659 C129.672533,200.207872 130.300587,200.468992 130.955947,200.468992 L130.955947,200.468992 L143.034027,200.468992 C143.689387,200.468992 144.31744,200.207872 144.77824,199.745365 C145.242453,199.282859 145.503573,198.654805 145.503573,197.999445 L145.503573,197.999445 L145.503573,142.831445 C145.503573,142.176085 145.242453,141.546325 144.779947,141.083819 C144.31744,140.621312 143.689387,140.361899 143.034027,140.361899 L143.034027,140.361899 Z M33.4045867,70.7959467 C25.9771733,70.7959467 19.6642133,76.1326933 18.3552,83.36896 L18.3552,83.36896 L18.0309333,85.1677867 L17.0837333,85.2036267 L16.2030933,85.2343467 C14.9384533,85.27872 13.72672,85.5227733 12.59008,85.9255467 C7.89333333,87.5912533 4.54144,92.0644267 4.54144,97.3073067 C4.54144,102.652587 8.04522667,107.2896 12.9792,108.919467 C13.4519467,109.074773 13.9332267,109.213013 14.4315733,109.312 C16.0682667,109.610667 17.6930133,109.960533 19.30752,110.342827 C20.6523733,110.660267 21.9886933,110.999893 23.31136,111.373653 C23.87968,111.527253 24.4872533,111.668907 25.07264,111.819093 C25.8816,112.023893 26.6752,112.233813 27.50464,112.433493 C42.6427733,116.063573 61.7540267,118.370987 80.2116267,117.74976 L80.2116267,117.74976 L81.8261333,117.695147 L82.4064,119.20384 C83.4884267,122.018133 85.4818133,124.393813 88.0674133,125.958827 C90.50112,127.469227 92.08832,130.423467 92.08832,133.18656 L92.08832,133.18656 L92.0968533,133.517653 C92.15488,134.62528 92.5218133,135.645867 93.0850133,136.528213 C94.1943467,138.26048 96.1143467,139.42272 98.3227733,139.42272 C102.06208,139.42272 104.564053,137.306453 104.564053,134.13376 L104.564053,134.13376 L104.557227,132.831573 L104.564053,132.677973 C104.523093,132.13696 104.506027,131.597653 104.506027,131.060053 C104.511147,127.479467 105.39008,123.943253 107.0848,120.762027 L107.0848,120.762027 L107.352747,120.236373 C108.038827,118.81984 108.475733,117.290667 108.634453,115.703467 L108.634453,115.703467 L108.79488,114.11456 L110.344533,113.728853 C111.926613,113.332907 113.4592,112.882347 114.991787,112.433493 C116.33664,112.039253 117.666133,111.63136 118.980267,111.204693 C120.275627,110.783147 121.550507,110.34112 122.799787,109.87008 L122.799787,109.87008 L123.513173,109.607253 C124.050773,109.421227 124.598613,109.274453 125.146453,109.12768 C126.066347,108.880213 126.99648,108.668587 127.945387,108.53376 L127.945387,108.53376 L128.34816,108.47232 C128.395947,108.463787 128.44032,108.45184 128.484693,108.443307 C134.162773,107.40224 138.38336,102.429013 138.38336,96.5495467 C138.385067,90.3901867 133.773653,85.31456 127.817387,84.56192 C127.315627,84.4987733 126.80704,84.4561067 126.288213,84.4561067 C125.25568,84.4561067 124.24192,84.5892267 123.262293,84.84352 C122.25024,85.1063467 121.275733,85.49888 120.357547,86.016 L120.357547,86.016 L120.09984,86.1610667 L116.133547,87.1936 L115.483307,85.1387733 C113.394347,78.5373867 107.246933,73.9601067 100.21376,73.9601067 C91.3698133,73.9601067 84.2001067,81.1298133 84.2001067,89.9754667 C84.2001067,90.5181867 84.22912,91.0557867 84.2837333,91.5848533 L84.2837333,91.5848533 L85.9938133,107.890347 L86.4699733,112.433493 L86.4017067,112.433493 L84.91008,107.890347 L79.86688,92.52864 C77.9229867,86.6030933 72.3797333,82.5173333 66.0514133,82.5173333 C59.6770133,82.5173333 54.1064533,86.656 52.1949867,92.6344533 L52.1949867,92.6344533 L51.5976533,94.49984 L46.94016,93.73696 L47.83616,91.18208 C48.4164267,89.52832 48.7168,87.8267733 48.7168,86.10816 C48.7168,77.6516267 41.86112,70.7959467 33.4045867,70.7959467 Z M79.6398933,17.71008 L79.08352,18.2545067 C74.0096,23.3198933 69.2565333,31.8020267 68.9681067,37.0261333 C68.6779733,42.25024 69.5296,48.7355733 69.5296,48.7355733 L69.5296,48.7355733 L66.3261867,48.12288 C64.9437867,47.8583467 63.6996267,47.5460267 62.2609067,47.09888 L62.2609067,47.09888 L61.2676267,46.78144 C61.0952533,46.72512 60.9211733,46.6653867 60.7419733,46.6056533 L60.7419733,46.6056533 L60.5559467,46.5408 L59.6189867,46.2165333 L55.8779733,44.8785067 L54.85056,44.5303467 C50.6743467,43.1650133 47.71328,42.8066133 44.25216,43.4875733 C32.1024,45.8786133 23.5997867,53.3282133 18.6299733,67.3621333 C17.792,69.7275733 17.2424533,72.2397867 16.95744,74.8919467 C16.95232,74.93632 16.95232,74.9824 16.9472,75.02848 C20.4424533,69.8368 26.2997333,66.4302933 32.89088,66.2613333 L32.89088,66.2613333 L33.4045867,66.2545067 C43.1889067,66.2545067 51.3194667,73.3320533 52.9578667,82.64704 L52.9578667,82.64704 L53.03296,83.1061333 L53.5227733,82.6624 C56.7842133,79.8276267 60.9928533,78.1021867 65.5394133,77.98272 L65.5394133,77.98272 L66.0514133,77.9758933 C71.58784,77.9758933 76.66688,80.3584 80.1928533,84.2513067 L80.1928533,84.2513067 L80.39936,84.48512 L80.5290667,84.0379733 C83.0293333,75.7367467 90.6376533,69.64736 99.6983467,69.4237867 L99.6983467,69.4237867 L100.21376,69.4186667 C108.356267,69.4186667 115.57376,74.1956267 118.877867,81.3533867 L118.877867,81.3533867 L118.990507,81.60768 L119.20896,81.50016 C120.521387,80.88064 121.915733,80.4539733 123.347627,80.1962667 C123.30496,69.8026667 121.475413,63.7184 117.579093,57.25696 L117.579093,57.25696 L116.95616,56.2500267 L116.302507,55.2328533 C111.747413,48.8567467 103.717547,43.44832 95.7559467,43.1991467 C91.8749867,43.0779733 89.7518933,43.68384 85.4186667,45.69088 L85.4186667,45.69088 L84.6967467,46.0219733 C80.72704,47.8242133 78.4162133,48.5034667 74.7008,48.6382933 L74.7008,48.6382933 L72.5504,48.7168 L72.3575467,46.5732267 C71.62368,38.4375467 73.92256,31.3429333 78.18752,25.4037333 C79.63136,23.3915733 81.08032,21.7873067 82.35008,20.5994667 L82.35008,20.5994667 L82.4251733,20.52608 L81.9285333,19.9424 L81.3431467,19.2989867 C80.8584533,18.78528 80.38912,18.3330133 79.9470933,17.9592533 L79.9470933,17.9592533 L79.6398933,17.71008 Z M40.3012267,6.19178667 L40.2432,6.56213333 C39.0775467,14.5117867 42.28608,22.7703467 48.86016,30.5885867 C52.8725333,35.3621333 58.0334933,39.6765867 62.4469333,42.3850667 C63.1330133,42.8066133 63.8037333,43.1957333 64.4471467,43.53536 L64.4471467,43.53536 L64.8174933,43.7282133 L64.8157867,43.3698133 C64.7867733,41.0385067 64.65024,38.83008 64.4027733,36.7325867 C62.6705067,22.08768 55.4513067,12.94336 40.5384533,6.2976 L40.5384533,6.2976 L40.3012267,6.19178667 Z" fill="#010202"></path>
    </g>
</svg>
