<?xml version="1.0" encoding="UTF-8" standalone="no"?>
<svg width="256px" height="348px" viewBox="0 0 256 348" version="1.1" xmlns="http://www.w3.org/2000/svg" xmlns:xlink="http://www.w3.org/1999/xlink" preserveAspectRatio="xMidYMid">
	<g>
		<path d="M201.850063,308.292895 C204.62948,310.070904 207.396124,311.848914 209.72082,314.232366 C214.183726,318.794902 215.711384,324.351182 215.563216,330.622753 L215.507015,332.932121 L213.514418,334.086806 C208.369431,337.052709 202.13107,337.987697 196.270791,337.954487 C191.136022,337.923832 185.835204,337.170222 180.86393,335.89547 C177.931236,335.139306 173.228197,333.726605 170.84219,331.815756 C168.300351,329.787395 166.353738,327.368178 165.232263,324.297535 C163.510455,319.579168 164.108234,314.091862 164.412233,309.166572 C164.823525,302.215474 164.713677,295.987332 163.398052,289.102654 L162.98676,286.921016 L164.575728,285.380585 C173.453003,276.797091 182.330277,268.208488 191.204997,259.619884 L198.074347,252.972786 L198.173977,262.53725 C198.311926,276.906939 196.04854,294.681925 201.850063,308.292895" fill="#17273E"></path>
		<path d="M194.058498,262.573015 C185.188887,271.164173 176.311613,279.750222 167.436893,288.333716 C171.69543,310.72233 163.352069,320.585685 173.404465,328.612273 C177.034568,331.506648 199.098746,337.663262 211.452847,330.525677 C211.738963,318.90475 205.377981,315.45347 198.592933,311.08764 C191.741465,296.355196 194.199001,277.093426 194.058498,262.573015" fill="#2B4F91"></path>
		<path d="M194.058498,262.573015 C185.188887,271.164173 176.311613,279.750222 167.436893,288.333716 C168.300351,292.886034 168.647779,296.924874 168.734635,300.526876 C177.668111,298.128096 186.236278,293.718837 193.843911,287.774256 C193.504147,278.963402 194.132582,270.127001 194.058498,262.573015" fill="#243D75"></path>
		<path d="M169.45759,286.379438 L167.436893,288.333716 C171.69543,310.72233 163.352069,320.585685 173.404465,328.612273 C177.034568,331.506648 199.098746,337.663262 211.452847,330.525677 C211.46562,330.290653 211.46562,330.058184 211.46562,329.830823 C200.082271,332.605131 175.494137,330.809239 175.156928,319.27006 C174.658779,308.252021 175.667851,297.456233 174.939786,286.440749 L169.45759,286.379438" fill="#2C8DBB"></path>
		<path d="M169.45759,286.379438 L169.102499,286.724311 L168.688652,287.12794 L168.274805,287.531568 L167.85074,287.930087 L167.436893,288.333716 C167.500758,288.66837 167.569733,289.008133 167.628489,289.335124 L167.633598,289.370888 L167.633598,289.398989 C167.687245,289.72087 167.740892,290.042751 167.797093,290.354414 L167.802202,290.397842 L167.804757,290.433607 C167.855849,290.747824 167.906941,291.062041 167.95037,291.371149 L167.955479,291.401804 L167.960588,291.452897 C168.01168,291.762005 168.05,292.058339 168.088319,292.364893 L168.101092,292.38533 L168.11131,292.454304 C168.141966,292.755748 168.180285,293.057192 168.221158,293.353527 L168.221158,293.356082 C168.292688,293.971743 168.356553,294.572077 168.415309,295.167301 L168.425527,295.246494 L168.425527,295.264377 C168.479174,295.862156 168.530266,296.447162 168.566031,297.01684 L168.573695,297.067932 L168.578804,297.093478 C168.589023,297.374486 168.609459,297.647829 168.624787,297.921173 L168.624787,297.954382 C168.663106,298.536834 168.693762,299.106512 168.711644,299.673636 L168.711644,299.678745 C168.716753,299.959752 168.724417,300.238205 168.734635,300.519212 L168.734635,300.526876 C170.913719,299.939316 173.064702,299.236797 175.197802,298.421876 C175.241231,294.444346 175.205466,290.451489 174.939786,286.440749 L169.45759,286.379438 L169.45759,286.379438 Z M168.711644,299.678745 C168.716753,299.959752 168.724417,300.238205 168.734635,300.519212 L168.711644,299.678745 Z" fill="#2B4F91"></path>
		<path d="M79.1239779,208.783118 C79.2465992,205.308847 79.6655555,200.610916 83.5128002,199.223762 C88.5811491,197.397215 93.038946,203.947239 95.5015913,207.390855 C97.4405414,210.116625 99.0576104,213.131067 100.483083,216.150617 C101.870237,219.116521 104.756948,223.03274 102.654503,226.251551 C100.664461,229.291538 96.8223254,228.497054 93.8385393,228.006569 C89.5059185,227.301496 84.9944748,226.134039 81.1216839,224.013711 C78.7050216,222.698086 75.8183108,221.303268 75.560295,218.176424 C75.3661445,215.821072 76.7098701,214.602523 77.8211261,212.829623 C78.6053918,211.582972 79.0754402,210.264793 79.1239779,208.783118" fill="#17273E"></path>
		<path d="M83.2956582,208.93384 C83.2215745,210.997966 82.6161316,213.041655 81.3592628,215.04958 C79.4433043,218.099786 78.3320483,217.737031 83.1219446,220.352953 C86.1440499,222.01345 89.9964038,223.155362 94.5104021,223.89109 C101.252022,224.992127 99.6809355,224.238517 96.7073679,217.931181 C95.2665671,214.880975 93.7491279,212.121995 92.1039582,209.815181 C85.5769262,200.674782 83.5638924,201.298107 83.2956582,208.93384" fill="#276CA0"></path>
		<path d="M83.2956582,208.93384 C83.2215745,210.997966 82.6161316,213.041655 81.3592628,215.04958 C79.4433043,218.099786 78.3320483,217.737031 83.1219446,220.358062 C84.0773693,220.881758 85.12476,221.356915 86.248789,221.778426 C86.0801846,215.302486 86.8593411,208.862311 84.2536375,203.727542 C83.6686315,204.613992 83.3850696,206.379229 83.2956582,208.93384" fill="#2C8DBB"></path>
		<path d="M50.7448002,203.788853 C50.9312868,203.433762 51.0871181,203.053125 51.2046302,202.672488 C52.369533,199.037276 51.199521,193.159115 55.3839744,191.419425 C57.9564681,190.356706 60.224963,191.761743 61.9212249,193.575517 C63.4897563,195.259006 64.9331117,197.330795 66.2487366,199.216099 C68.0650653,201.826911 69.7178988,204.534799 71.2251195,207.324435 C72.5943912,209.858609 74.8858776,212.622699 73.2279348,215.639695 C71.6108658,218.580053 68.2847618,218.283718 65.4874624,217.984828 C63.3007151,217.749804 61.1573961,217.274646 59.0856063,216.549137 C55.8386953,215.417444 51.8151823,214.464574 50.1572396,211.089932 C48.9591268,208.650278 49.5160321,206.077785 50.7448002,203.788853" fill="#17273E"></path>
		<path d="M54.4183313,205.761013 C52.014442,210.24691 55.6981916,210.946874 60.4650964,212.61759 C62.2226691,213.225587 64.0492162,213.629216 65.9294102,213.836139 C71.2787664,214.410927 69.8992762,213.63688 67.554143,209.309368 C66.1695436,206.736874 64.6086761,204.166935 62.828112,201.599551 C53.4680159,188.149522 57.9334766,199.200771 54.4183313,205.761013" fill="#276CA0"></path>
		<path d="M54.4183313,205.761013 C52.3823061,209.55972 54.7197755,210.647984 58.3754243,211.902299 C59.4355881,206.251498 58.8889012,200.856159 57.0546903,195.256451 C55.6675363,195.596214 56.6587255,201.584223 54.4183313,205.761013" fill="#2C8DBB"></path>
		<path d="M24.6596635,200.994108 C24.6545543,200.741202 24.636672,200.495959 24.6085713,200.243052 C24.268808,196.850528 22.250665,192.464261 25.392837,189.761482 C27.5821389,187.876179 30.2542624,188.553151 32.5150935,189.787028 C34.7503784,191.008132 37.0035456,192.732495 39.019134,194.285699 C40.5723377,195.483811 42.0105839,196.824982 43.3262088,198.28622 C45.4823008,200.682445 48.3945577,203.5104 47.5132168,207.076638 C46.6701951,210.520254 43.1908144,211.588081 40.1125077,212.045357 C37.6268708,212.415775 34.9777388,212.369792 32.4767743,212.142432 C29.9860282,211.922735 27.1963926,212.147541 25.4337108,209.963349 C23.8958347,208.04739 24.3454463,206.001146 24.5549245,203.806735 C24.6443359,202.871747 24.682655,201.934205 24.6596635,200.994108" fill="#17273E"></path>
		<path d="M28.8338985,200.879151 C28.8517808,201.93676 28.8211254,203.040352 28.7112771,204.210364 C28.3280854,208.226213 27.8835831,207.544132 32.8548568,207.988634 C35.2229815,208.203221 37.5451233,208.208331 39.4942917,207.919659 C45.8348371,206.969344 43.5280231,204.757051 40.222356,201.070746 C39.1111,199.834314 37.8670043,198.666857 36.4747411,197.588811 C23.9418177,187.937489 28.6627395,194.727646 28.8338985,200.879151" fill="#276CA0"></path>
		<path d="M28.8338985,200.879151 C28.8517808,201.93676 28.8211254,203.040352 28.7112771,204.210364 C28.3280854,208.226213 27.8835831,207.544132 32.8548568,207.988634 C33.2635946,208.026953 33.6646686,208.057608 34.0657426,208.078045 C32.8037646,201.757937 31.3118715,197.310358 28.2744386,192.827016 C27.0277883,193.35582 28.7342687,197.228611 28.8338985,200.879151" fill="#2C8DBB"></path>
		<path d="M216.26318,172.499973 C203.574425,165.727698 179.7118,152.170376 180.026018,136.071215 C180.084774,133.059328 180.958451,130.221155 182.458008,127.612897 L182.859082,126.920597 L183.472188,126.40712 C185.577188,124.672539 187.942758,123.367132 190.566344,122.587976 C200.276422,119.708929 210.54596,124.882017 218.357961,130.28502 C229.805175,138.204315 240.519215,149.518689 249.680051,159.951722 C251.741623,162.304519 254.98087,165.096709 255.599086,168.238881 C256.255621,171.593086 254.140403,175.131223 252.707266,178.040925 C246.10615,191.480735 235.941351,203.878264 224.532457,214.559094 L224.90543,215.821072 C227.999064,226.218341 226.933792,235.361295 219.392579,243.599916 L218.559775,244.49914 L217.384654,244.846567 C211.652106,246.550493 205.600232,245.457119 199.862575,244.404619 L198.493303,244.146603 L197.514887,243.150305 C187.901884,233.345706 183.244828,222.902455 191.57797,210.37975 C194.704815,205.679265 197.622181,200.840831 200.559984,196.01517 C205.091864,188.571033 209.736148,180.756477 215.128932,173.905009 C215.494242,173.442624 215.86977,172.972576 216.26318,172.499973" fill="#17273E"></path>
		<path d="M219.328713,169.122777 C194.094262,155.744277 178.955635,142.562482 186.289925,129.814972 C199.742508,118.697303 221.045412,134.017307 246.356502,162.863979 C252.219335,169.539178 252.717484,168.026848 248.747618,176.101975 C239.727285,194.461967 222.751893,212.403002 202.677757,226.721599 C205.234923,225.526041 207.799752,224.327928 210.359473,223.122152 C213.63193,228.32334 214.952664,233.110682 212.15281,237.034565 C216.467549,233.690579 217.379545,229.940409 214.331894,222.654658 L220.674994,217.072832 C223.211723,225.607789 222.815758,233.317606 216.132895,240.62124 C210.924042,242.16167 204.20286,240.710651 200.664723,240.06178 C192.459311,231.690318 188.198219,223.421041 195.246392,212.827068 C207.710341,194.088994 220.652002,167.158281 232.359786,166.182419 C227.679738,164.10552 222.401911,165.321515 219.328713,169.122777" fill="#2B4F91"></path>
		<path d="M219.323604,169.122777 C203.74303,160.861163 192.0097,152.668525 187.04609,144.611281 L186.936241,129.304049 C194.250094,123.819299 203.778794,125.804232 214.945,133.296907 C217.453629,143.042749 219.819199,158.365308 219.84219,168.524998 L219.323604,169.122777 L219.323604,169.122777 Z M217.157294,215.292268 C212.576876,219.295344 207.720559,223.122152 202.677757,226.721599 C205.234923,225.526041 207.799752,224.327928 210.359473,223.122152 C213.63193,228.32334 214.952664,233.110682 212.15281,237.034565 C216.472658,233.690579 217.379545,229.940409 214.331894,222.654658 L217.187949,220.146029 C218.748817,225.73041 219.241857,231.330118 218.968513,236.924717 C218.194466,238.168813 217.251814,239.397581 216.132895,240.62124 C210.924042,242.16167 204.20286,240.710651 200.664723,240.06178 C192.459311,231.690318 188.198219,223.421041 195.246392,212.824513 C204.417447,199.037276 213.854181,180.810124 222.856632,171.759136 C222.662481,186.795578 220.393986,201.037536 217.157294,215.292268 L217.157294,215.292268 Z" fill="#243D75"></path>
		<path d="M96.4442429,83.5943881 C95.424953,82.1995703 94.2396133,80.9273738 92.900997,79.7854625 C91.1357605,78.2910149 89.1917013,77.2921618 87.155676,76.2498804 C84.7568959,75.0262216 82.2303853,73.695269 81.4512288,70.8775327 C80.6874,68.0955609 82.1103185,65.6712347 83.9649664,63.7373939 C86.0904031,61.5072182 88.9668955,59.4482015 91.4729692,57.6625281 C98.0383204,52.9978077 105.459466,48.907875 112.584278,45.1423778 L121.681249,40.3269354 L118.503312,50.1162061 C114.510455,62.4192145 110.512488,74.7222228 106.514521,87.0252312 L104.085086,94.5127971 C103.42855,102.094884 102.751578,109.682079 102.089934,117.264166 L102.521663,119.24399 C104.731402,129.436889 106.938586,139.640007 109.143216,149.84057 L112.612378,165.842656 L101.913666,153.447681 C98.4189575,149.408841 94.0531267,147.260413 88.8315011,146.345862 C86.6192076,145.96267 84.4069142,145.804284 82.1869569,145.520722 C79.6527824,145.196287 77.039415,144.588289 75.6445972,142.189509 C74.0888389,139.514831 75.1822125,136.684322 76.6741056,134.303424 C78.4495605,131.449923 80.9275335,128.596422 83.1117262,126.049474 C85.6254638,123.132108 88.634796,120.766538 91.914917,118.814815 L91.7667495,118.687084 C90.757678,117.833844 89.3322049,117.292267 88.0881091,116.90652 C83.9649664,115.629215 77.9488566,115.289451 75.6241603,111.135653 C73.0133475,106.499034 76.8784745,101.318282 79.7830676,97.8976571 C84.414578,92.4307888 90.5303176,87.7737323 96.4442429,83.5943881" fill="#17273E"></path>
		<path d="M115.358585,60.1762657 C129.6593,73.8357727 147.92988,82.4371491 164.450552,92.9928033 C175.729161,100.199362 186.003808,108.271934 194.07638,119.080495 C203.980608,132.346591 209.056621,147.70747 211.314898,163.980344 C212.081281,169.516187 212.459364,175.115895 212.681615,180.700275 C213.095462,190.862519 212.840001,201.073301 211.797719,211.19978 C209.306973,235.460925 202.003339,261.300819 184.902771,279.451332 C163.533447,302.149054 129.98629,311.235807 103.318702,291.644492 C92.992963,284.049633 84.4324603,274.053439 76.1223095,264.366352 C70.6784327,258.00537 65.260102,251.593295 59.3691682,245.633387 C52.5662381,238.738491 44.8385387,231.470622 35.6419378,227.960586 C25.3238625,224.01882 19.6296337,224.969136 10.3717221,230.747667 C7.78645545,232.364736 4.16146192,235.162035 1.25686879,232.262551 C0.028100725,231.038892 -0.28100725,229.299202 0.250351914,227.687242 C1.71669884,223.277983 3.92132845,219.213596 6.97408903,215.716333 C22.7156043,197.680777 54.0223666,201.719618 73.0107929,211.846097 C80.1764777,215.67035 87.9808155,220.033627 96.2424286,220.580313 C102.084825,220.963505 108.021742,219.865022 112.558731,215.938585 C116.291019,212.719774 118.329599,208.226213 119.254368,203.461863 C120.592984,196.54653 120.074398,190.085918 117.856995,183.415827 C114.776134,174.152806 109.230073,165.743026 105.653617,156.61029 C93.4476838,125.459359 89.5008092,89.957925 109.107451,60.8481285 L111.828113,56.8092879 L115.358585,60.1762657" fill="#17273E"></path>
		<path d="M112.520412,63.1472787 C93.7976655,90.9261227 97.6960025,125.025075 109.475316,155.113288 C113.084981,164.322662 118.643816,172.775871 121.750223,182.123194 C124.205205,189.470256 124.764665,196.61295 123.290654,204.241019 C122.192171,209.930139 119.678433,215.218184 115.243628,219.052656 C109.866171,223.704603 102.922737,225.135185 95.9741944,224.67791 C87.0023993,224.090349 78.932382,219.665763 71.0743974,215.468536 C53.8537622,206.282154 24.4195301,201.985297 10.070278,218.411448 C7.63062415,221.208748 5.57671661,224.685574 4.15379808,228.979876 C3.80126171,230.042594 5.52306977,228.926229 8.19519326,227.260622 C18.431521,220.874094 25.4464838,219.665763 37.1108393,224.121005 C46.3866332,227.666805 54.124551,234.47229 62.2993074,242.744122 C68.2515519,248.773004 73.7388571,255.264272 79.2465992,261.694229 C87.2604151,271.041552 95.7979262,281.019864 105.750692,288.333716 C130.734791,306.686044 161.957251,297.826652 181.918985,276.631041 C198.34769,259.1856 205.314116,234.081434 207.710341,210.770606 C208.724522,200.863823 208.979983,190.816536 208.581463,180.861216 C208.361767,175.470986 207.991348,169.896824 207.245402,164.547468 C205.071427,148.95412 200.273867,134.242113 190.780931,121.538031 C182.999585,111.12288 173.113239,103.40029 162.240813,96.4568563 C145.216883,85.5793211 127.186436,77.1567674 112.520412,63.1472787" fill="#2B4F91"></path>
		<path d="M112.520412,63.1472787 C93.7976655,90.9261227 97.6960025,125.025075 109.475316,155.113288 C113.084981,164.322662 118.643816,172.775871 121.750223,182.123194 C124.205205,189.470256 124.764665,196.61295 123.290654,204.241019 C122.192171,209.930139 119.678433,215.218184 115.243628,219.052656 C109.866171,223.704603 102.922737,225.135185 95.9741944,224.67791 C87.0023993,224.090349 78.932382,219.665763 71.0743974,215.468536 C53.8537622,206.282154 24.4195301,201.985297 10.070278,218.411448 C7.63062415,221.208748 5.57671661,224.685574 4.15379808,228.979876 C4.03884057,229.332412 4.14868886,229.444815 4.43991456,229.386059 C26.3124971,198.600437 67.3855386,215.695896 105.249988,236.986028 C136.684481,246.060007 133.128462,210.497262 129.350192,190.395025 C123.627862,159.992596 110.029666,123.952138 109.107451,110.461236 C108.251657,97.780145 110.842033,84.5140482 120.207238,69.7969321 L119.709089,69.4060766 L119.624786,69.3345474 L119.594131,69.3064467 L119.095982,68.9079273 L118.968251,68.8108521 L118.850739,68.7112223 L118.728118,68.614147 L118.362808,68.3127029 L118.245296,68.2079638 L118.112457,68.108334 L117.994944,68.0112588 L117.629635,67.7047054 L117.501904,67.6050755 L117.443148,67.5514287 L117.384392,67.5003365 L116.814714,67.0175149 L116.610345,66.8489106 L116.063658,66.3711983 L116.012566,66.3303245 L115.935928,66.2664592 L115.338149,65.7402092 L115.307493,65.7146631 L115.220636,65.630361 L114.650958,65.1271025 L114.625412,65.1015564 L114.597311,65.0811195 L114.510455,64.9993719 L113.938222,64.473122 L113.91523,64.460349 L113.910121,64.4450213 L113.800273,64.3530553 L113.212712,63.8089231 L113.207603,63.7987046 C112.977688,63.5841173 112.747773,63.3644207 112.520412,63.1472787 L112.520412,63.1472787 Z M113.207603,63.7987046 C112.977688,63.5841173 112.747773,63.3644207 112.520412,63.1472787 L113.207603,63.7987046 Z" fill="#2C8DBB"></path>
		<path d="M112.443774,161.819143 C115.685576,168.553098 119.410199,175.082685 121.750223,182.123194 L121.842189,182.38121 C126.389397,167.934882 129.485586,153.483446 130.951933,139.037119 L112.443774,161.819143" fill="#243D75"></path>
		<path d="M112.443774,161.819143 L112.484648,161.903445 L112.594496,162.135915 L113.054326,163.081121 L113.100309,163.160314 L113.212712,163.397893 L113.294459,163.57927 L113.368543,163.709555 L113.524375,164.026327 L113.677651,164.33799 L113.713416,164.409519 L113.833482,164.652207 L113.917785,164.82592 L113.991868,164.963869 L114.288203,165.553985 L114.306086,165.592304 L114.336741,165.658724 L114.461917,165.903966 L114.543664,166.075125 L114.620303,166.215629 L114.755697,166.491527 L114.778689,166.529846 L114.944738,166.846618 L114.960066,166.905374 L115.092906,167.158281 L115.174653,167.319221 L115.253846,167.472498 L115.381577,167.730513 L115.412232,167.781606 L115.568064,168.095823 L115.59361,168.14947 L115.72134,168.404931 L115.803088,168.565871 L115.884835,168.719148 L116.012566,168.982273 L116.040667,169.030811 L116.191389,169.345028 L116.222044,169.398675 L116.354884,169.659245 L116.428968,169.815076 L116.508161,169.970908 L116.633337,170.231478 L116.661437,170.28257 L116.819823,170.604451 L116.845369,170.64788 L116.970545,170.913559 L117.052293,171.059172 L117.128931,171.225222 L117.251553,171.478128 L117.279653,171.539439 L117.438039,171.856211 L117.458476,171.899639 L117.59387,172.172983 L117.657736,172.313486 L117.739483,172.4872 L117.856995,172.732443 L117.89276,172.798862 L118.043482,173.115634 L118.056255,173.148844 L118.189095,173.432406 L118.258069,173.5678 L118.339817,173.746623 L118.480321,174.06084 L118.636152,174.377612 L118.648925,174.413377 L118.776655,174.694384 L118.84563,174.829778 L118.922268,175.01371 L119.032117,175.253844 L119.067881,175.333037 L119.20583,175.647254 L119.228822,175.677909 L119.351443,175.96658 L119.40509,176.096866 L119.491947,176.288462 L119.596686,176.520931 L119.770399,176.92456 L119.778063,176.947551 L119.903239,177.248995 L120.038634,177.568322 L120.138263,177.803346 L120.174028,177.892757 L120.306868,178.206975 L120.317086,178.224857 L120.434598,178.533965 L120.48569,178.654032 L120.567438,178.858401 L120.656849,179.088316 L120.690059,179.180282 L120.81779,179.504717 L120.820345,179.514936 L120.940411,179.831707 L121.05026,180.117824 L121.14478,180.378394 L121.185654,180.483133 L121.303166,180.810124 L121.418124,181.132005 L121.453888,181.246962 L121.533081,181.458995 L121.609719,181.681246 L121.640375,181.793649 L121.750223,182.123194 L121.842189,182.38121 C123.001983,178.692351 124.067256,175.003492 125.038008,171.314633 C123.420939,165.007298 121.660812,158.705071 119.905794,152.63276 L112.443774,161.819143" fill="#2B4F91"></path>
		<path d="M21.389761,221.482091 C38.5797409,221.086126 49.9477614,230.244408 62.2993074,242.744122 C68.2515519,248.773004 73.7388571,255.264272 79.2465992,261.694229 C87.2604151,271.041552 95.7979262,281.019864 105.750692,288.333716 C130.734791,306.686044 161.957251,297.826652 181.918985,276.631041 C198.34769,259.1856 205.314116,234.081434 207.710341,210.770606 C208.724522,200.863823 208.979983,190.816536 208.581463,180.861216 C208.361767,175.470986 207.991348,169.896824 207.245402,164.547468 C205.071427,148.95412 200.273867,134.242113 190.780931,121.538031 C182.999585,111.12288 173.113239,103.40029 162.240813,96.4568563 C158.084461,93.7975059 153.866797,91.2939867 149.651688,88.8134591 C143.965124,90.6527793 138.947867,93.4781795 135.50936,97.7750358 C125.957668,109.671861 132.387625,127.040664 138.406289,138.96048 C144.215475,150.46645 149.133102,162.687711 152.43366,175.156769 C156.794382,191.611021 158.702677,210.055315 153.509152,226.535112 C150.739953,235.330639 146.095669,243.043011 139.566083,249.564934 C135.350974,253.76216 130.423129,257.060164 124.746782,258.940358 C105.030292,265.439289 94.7633086,253.27423 81.5559679,240.920129 C63.4897563,224.021375 44.53454,216.183827 21.389761,221.482091" fill="#17273E"></path>
		<path d="M36.8936974,224.039257 C46.2691211,227.562066 54.0683496,234.40587 62.2993074,242.744122 C68.2515519,248.773004 73.7388571,255.264272 79.2465992,261.694229 C87.2604151,271.041552 95.7979262,281.019864 105.750692,288.333716 C130.734791,306.686044 161.957251,297.826652 181.918985,276.631041 C198.34769,259.1856 205.314116,234.081434 207.710341,210.770606 C208.724522,200.863823 208.979983,190.816536 208.581463,180.861216 C208.361767,175.470986 207.991348,169.896824 207.245402,164.547468 C205.071427,148.95412 200.273867,134.242113 190.780931,121.538031 C182.999585,111.12288 173.113239,103.40029 162.240813,96.4568563 C159.719412,94.8448965 157.172464,93.2865836 154.622962,91.758926 C136.970598,95.8973964 127.209428,107.525987 142.130913,137.080286 C159.512488,171.493456 173.419793,221.681351 142.508995,252.512955 C137.867266,257.144466 132.400398,260.805224 126.057298,262.900005 C104.085086,270.149992 92.4513854,256.82003 78.7050216,243.965226 C65.673949,231.777175 52.3056677,224.499087 36.8936974,224.039257" fill="#F9C624"></path>
		<path d="M148.877641,93.4986164 C135.064858,98.8096534 128.921017,110.921066 142.130913,137.080286 C159.512488,171.493456 173.419793,221.681351 142.508995,252.512955 C137.867266,257.144466 132.400398,260.805224 126.057298,262.900005 C104.085086,270.149992 92.4513854,256.82003 78.7050216,243.965226 C76.6281226,242.021167 74.5307866,240.199729 72.4308961,238.508576 C82.2559314,251.600959 97.9233629,267.365466 120.539337,265.733069 C128.065222,265.188937 135.519578,262.887232 141.839687,257.714144 C183.147753,223.868098 160.506232,166.555392 144.713625,132.055366 C138.117618,117.657576 134.896253,102.692663 148.877641,93.4986164" fill="#FAEC30"></path>
		<path d="M106.105783,288.584068 C116.633337,296.194255 128.244045,299.006882 139.65294,298.128096 C139.931392,294.753454 160.656954,285.229863 160.792349,281.850112 C143.040354,287.526459 137.698662,274.012565 135.228353,258.4652 C132.400398,260.309629 129.339973,261.814295 126.057298,262.900005 C118.421565,265.418852 112.029927,265.449507 106.366353,263.880976 C106.052136,265.978312 105.863095,268.042438 105.750692,269.958397 C105.395601,275.910641 105.587197,282.212867 106.105783,288.584068" fill="#EA8B2F"></path>
		<path d="M62.2763159,242.731349 L62.2993074,242.744122 C68.2515519,248.773004 73.7388571,255.264272 79.2465992,261.694229 C87.2604151,271.041552 95.7979262,281.019864 105.750692,288.333716 C130.734791,306.686044 161.957251,297.826652 181.918985,276.631041 C198.34769,259.1856 205.314116,234.081434 207.710341,210.770606 C208.724522,200.863823 208.979983,190.816536 208.581463,180.861216 C208.361767,175.470986 207.991348,169.896824 207.245402,164.547468 C205.071427,148.95412 200.273867,134.242113 190.780931,121.538031 C186.085556,115.246023 180.618687,109.937541 174.625569,105.191073 C180.973778,117.409779 184.925762,130.428078 187.981077,142.439861 C193.371307,152.972524 196.030658,163.525623 194.732915,175.307491 C197.364165,189.54434 198.173977,204.836244 194.605185,217.885198 C194.784007,234.791616 187.901884,248.272301 180.508839,260.47057 C174.679216,272.839998 161.438665,283.334342 150.389971,286.560816 C123.581879,297.001512 93.2254326,274.329337 84.1591169,260.291747 C79.5531526,256.421511 75.0136082,252.512955 70.5455929,248.933945 C67.7585119,246.706324 65.0097501,244.608988 62.2763159,242.731349" fill="#EA8B2F"></path>
		<path d="M97.4405414,88.0113111 C91.8765978,92.0169418 86.741829,96.1375299 82.9661134,100.595327 C70.7014242,115.069755 89.8099172,108.82373 95.8106993,116.929512 C94.977896,107.434021 95.3151047,97.6651875 97.4405414,88.0113111 L97.4405414,88.0113111 Z M96.2577563,121.177831 C92.2725626,123.234293 88.9081394,125.712266 86.2768897,128.767581 C73.8154954,143.257337 79.2184985,140.431936 89.5544561,142.235492 C95.0059967,143.193471 99.210887,145.27548 102.521663,148.159636 C99.737137,139.78051 97.4405414,130.647775 96.2577563,121.177831 L96.2577563,121.177831 Z M111.937961,56.8067333 L114.533446,48.8261274 C105.942288,53.3733356 98.9119975,57.4939238 93.8896316,61.0652704 C78.1992085,72.2212583 87.6282791,69.8556882 95.5884481,76.5998622 C97.0241397,77.8158572 98.3065546,79.1544735 99.4305836,80.6208205 C102.061833,72.4409549 106.105783,64.4169206 111.937961,56.8067333 L111.937961,56.8067333 Z" fill="#2B4F91"></path>
		<path d="M97.4405414,88.0113111 C91.8765978,92.0169418 86.741829,96.1375299 82.9661134,100.595327 C72.0579228,113.473123 85.9754455,109.945204 93.40681,114.719773 C92.5382421,113.751575 91.6211367,112.842134 90.665712,111.973566 C85.0098024,106.861788 83.0708524,106.675302 85.7174298,102.695217 C88.8238372,98.0177239 93.1104751,92.745006 97.3766761,88.3025368 L97.4405414,88.0113111 L97.4405414,88.0113111 Z M107.590012,52.5967338 C98.0102197,60.056199 87.8709672,66.7927091 95.1771557,74.0426962 C96.8759722,75.7261851 98.3602015,77.7468827 99.6145156,80.0690244 L99.4305836,80.6208205 C98.3065546,79.1544735 97.0241397,77.8158572 95.5884481,76.5998622 C87.6282791,69.8556882 78.1992085,72.2212583 93.8896316,61.0652704 C97.4814151,58.5081045 102.107816,55.6724859 107.590012,52.5967338 L107.590012,52.5967338 Z M96.5208813,123.165318 C89.7205058,128.277096 81.7245722,134.957404 88.4125448,142.05156 C78.8378614,140.620978 74.2855439,142.713204 86.2768897,128.767581 C88.9081394,125.712266 92.2725626,123.234293 96.2577563,121.177831 C96.3446131,121.839475 96.4314699,122.506228 96.5208813,123.165318 L96.5208813,123.165318 Z" fill="#2C8DBB"></path>
		<path d="M99.4127013,212.860278 C86.3688557,204.100515 74.265107,193.437568 65.5206723,181.183097 C63.6200415,178.523746 60.9428088,175.363692 61.0475478,171.930295 C61.1497323,168.721703 63.8984941,165.449245 65.5564369,162.78734 C72.9060538,151.015691 81.6555977,138.122568 91.6671197,128.468691 C98.5185874,121.859912 107.822482,115.108074 117.89276,116.367497 C120.649186,116.714924 123.239562,117.637139 125.625569,119.031957 L126.312759,119.440695 L126.823681,120.058911 C128.744749,122.414262 131.621241,128.954068 132.167928,131.960845 C137.008917,158.676971 109.247955,166.384233 105.681718,169.999008 C112.147439,175.925707 114.405715,184.005942 120.115272,190.65815 C123.811794,194.965225 127.510872,199.292737 131.375999,203.451644 C141.6532,214.502893 138.789481,225.572024 130.862522,236.845524 L130.045046,237.995099 L128.721758,238.470257 C123.201242,240.424534 117.389502,242.468224 111.437257,241.696731 L110.226371,241.5409 L109.270947,240.78218 C100.47031,233.843856 97.8952622,224.974245 99.2543154,214.168239 L99.4127013,212.860278" fill="#17273E"></path>
		<path d="M100.250614,166.867055 C117.228561,160.577602 146.94891,135.573066 126.905429,116.829882 C118.850739,110.900629 105.303635,123.206192 100.513739,126.846513 C90.8062156,134.237004 80.3169814,147.587403 69.3168248,165.129919 C64.5907938,172.658359 63.8678388,171.253323 69.1201197,178.613158 C81.0731463,195.36119 100.820292,210.420624 123.05563,221.413117 C120.151036,221.461654 117.356292,221.264949 114.689277,220.156248 C112.293052,225.827485 111.94307,229.682394 115.358585,233.12601 C110.532925,230.502424 109.028259,226.938741 110.842033,219.236588 L103.648247,214.71748 C102.536991,223.571763 104.189825,231.141077 112.012045,237.307909 C117.425266,238.010427 123.845004,235.501798 127.237528,234.293467 C133.989366,224.706011 137.818729,214.832438 128.129088,206.46864 C108.737033,189.720608 108.154581,166.923256 83.7324968,166.195192 C88.0216892,163.387674 95.5015913,164.143839 100.250614,166.867055" fill="#2B4F91"></path>
		<path d="M110.400085,119.491787 C106.246287,122.123037 102.577865,125.285646 100.513739,126.846513 C90.8062156,134.237004 80.3169814,147.587403 69.3168248,165.129919 C64.5907938,172.658359 63.8678388,171.253323 69.1201197,178.613158 C80.4038382,194.423648 98.6386541,208.732026 119.351443,219.527814 C103.701894,206.310254 88.6680059,193.12335 79.4484135,180.960846 C70.2186026,168.765131 73.7771763,168.696157 82.0336802,155.815806 C90.1292436,143.185807 99.3130715,130.969656 110.400085,119.491787 L110.400085,119.491787 Z M119.50472,221.300714 C117.856995,221.139773 116.245036,220.802565 114.689277,220.156248 C113.166729,223.760805 112.466765,226.637297 113.049217,229.138261 C114.650958,226.4176 116.268027,223.69183 119.50472,221.300714 L119.50472,221.300714 Z M107.878683,217.376831 L103.648247,214.71748 C102.559983,223.385277 104.12085,230.82686 111.534332,236.927272 C108.26443,230.543298 106.001044,224.098013 107.878683,217.376831 L107.878683,217.376831 Z" fill="#2C8DBB"></path>
		<path d="M145.605184,145.255043 C155.913041,139.61957 170.74256,138.37292 182.24342,139.568478 C190.402849,140.416609 198.825403,142.603356 205.970651,146.700953 L208.04244,147.886292 L205.674316,152.022208 L203.602526,150.836868 C197.037175,147.079035 189.232837,145.091548 181.75038,144.312391 C171.261146,143.224127 157.310413,144.294509 147.894116,149.442051 L145.794225,150.583962 L143.510403,146.399509 L145.605184,145.255043" fill="#17273E"></path>
		<path d="M156.773945,180.227672 C166.841668,174.535998 181.270113,172.941921 192.633025,173.795161 C198.707891,174.249882 204.976907,175.440331 210.778429,177.619414 L210.778429,182.751628 C204.951361,180.301756 198.467757,179.016786 192.27027,178.549293 C181.901102,177.772691 168.323343,179.167509 159.119078,184.376361 L157.042179,185.548928 L154.702155,181.400239 L156.773945,180.227672" fill="#17273E"></path>
		<path d="M156.641105,217.389604 C171.215163,210.438506 194.199001,211.649392 208.515044,220.562431 C209.674837,221.287941 208.852252,221.694124 210.017155,222.337886 L209.784685,223.850216 L208.392422,225.127522 C207.978575,225.505604 207.978575,225.937333 207.508527,225.615452 C194.804444,216.658985 172.298318,215.202856 158.695013,221.691569 L156.541475,222.718523 L155.989679,218.968354 L156.641105,217.389604" fill="#17273E"></path>
		<path d="M147.986082,244.575778 C158.822743,255.83395 181.599658,262.463167 196.682084,257.601741 L198.633807,256 L198.603151,259.198373 L196.886453,260.958501 C196.112405,261.206298 196.585008,262.613889 195.785415,262.808039 C179.088475,266.903081 156.094418,259.885564 144.547575,247.884 L142.894741,246.167301 L146.32303,242.859079 L147.986082,244.575778" fill="#17273E"></path>
		<path d="M126.031752,262.667536 C129.184142,269.659507 134.932018,275.719045 141.25979,279.967364 C148.067829,284.532454 156.633441,287.68229 164.964029,287.130494 C168.065327,286.926125 170.137117,286.272145 173.005946,285.321829 L172.804131,289.143528 L171.212608,290.931756 C160.02852,293.874668 147.9682,290.206246 138.60044,283.927011 C131.529275,279.185653 125.211722,272.444033 121.681249,264.632032 L120.702832,262.455503 L125.045672,260.491007 L126.031752,262.667536" fill="#17273E"></path>
		<path d="M89.5186915,254.349721 C87.8709672,256.268234 86.9232064,258.549502 86.5732246,260.938064 C85.8630426,265.776498 87.0151724,269.133257 89.2913311,273.143997 L85.1196507,273.884834 L83.7273875,272.390387 C80.2658891,265.592566 80.8764413,257.108701 85.8962526,251.245868 L87.4520109,249.434649 L91.0718952,252.541056 L89.5186915,254.349721" fill="#17273E"></path>
		<path d="M75.9511505,238.891768 C73.4425222,241.816798 72.5637359,245.595068 72.9367091,249.3248 C73.2636994,252.489964 74.31109,254.801887 75.6497064,257.530212 L71.7079411,258.276159 L70.1598466,256.937542 C66.7034574,250.132058 67.3140095,241.645639 72.3338208,235.78536 L73.8103862,234.77118 L76.9576674,237.23638 L75.9511505,238.891768" fill="#17273E"></path>
		<path d="M205.058654,106.42495 L213.5323,123.387569 L188.157346,127.893904 L158.539181,117.018923 L157.8571,116.472236 C146.351131,107.252644 136.996144,96.3137981 130.006727,83.2827255 C128.244045,80.0077137 125.620459,74.3620226 125.224495,70.7498021 L122.897244,49.2272014 L135.008656,67.168237 C143.750536,80.117562 157.98994,91.5060195 171.772068,98.687032 C179.612171,102.769301 190.270009,108.358791 199.343989,107.398257 C199.931549,107.334392 200.511446,107.252644 201.096452,107.147905 L205.058654,106.42495" fill="#17273E"></path>
		<path d="M244.887823,105.048077 C244.91055,108.706394 244.12526,111.923378 242.230804,115.897449 C241.597261,117.220738 240.820659,118.592564 239.885671,119.691047 C238.651794,121.131848 237.021952,122.156247 235.141758,121.796046 C231.777335,121.165057 230.993069,117.149208 230.783591,114.076011 C230.662433,112.340788 230.257352,110.491665 229.452906,108.933355 C224.288381,109.465935 218.947172,109.736289 214.306348,110.348833 C217.024454,113.595744 219.691468,115.10041 222.350819,116.377716 C229.713209,119.913298 235.642462,123.806526 238.628802,131.986391 C242.174603,141.711797 237.847091,152.20614 223.518276,154.83739 C211.192276,157.100776 211.414527,161.936655 197.573643,156.648609 C183.760859,151.368228 169.748816,143.098951 157.588866,134.72238 C149.720663,129.304049 142.056829,123.41567 134.932018,117.03936 C123.313645,106.642092 106.838957,90.6246786 104.230698,74.6200384 C103.06835,67.5131095 104.90767,60.4802644 110.085868,55.3506048 C111.577761,53.8689302 113.245922,52.647826 115.029041,51.6847375 L115.935928,48.8874381 C118.659143,40.4597752 121.929046,27.3750557 126.89521,17.3635338 C138.866119,-6.76221595 157.979722,-3.29816294 167.919714,15.4986675 C175.905429,17.35587 182.171891,18.9933758 190.635319,23.0705356 L191.067048,22.6362517 C193.777491,19.8951537 197.397375,17.5423566 201.420888,18.5207727 C215.34352,21.3819375 216.697464,55.2484204 215.581099,64.5574242 L215.9694,64.8001123 C220.639229,66.2766776 224.67296,68.3918958 227.306765,71.3961188 L227.733385,71.8891588 L227.89688,71.9887886 C234.855641,69.3345474 242.813256,69.0050026 248.331216,74.6481391 C255.915929,82.3979366 254.075499,98.9102361 244.887823,105.048077 Z" fill="#17273E"></path>
		<path d="M197.20067,98.1199083 C184.307546,95.3966926 184.437831,74.5331816 200.031179,74.9623563 C209.690165,75.2254813 221.505242,83.5943881 232.518172,80.4573253 C229.373445,80.0358145 226.2185,79.6143036 223.053337,79.1927927 C231.412025,73.5190009 240.478341,72.5840131 245.349985,77.5655053 C251.578127,83.9290422 249.342842,99.765078 240.169233,102.74631 C234.69981,104.51921 226.195509,105.124653 220.498726,105.298366 C223.699654,102.991552 232.196291,99.3129118 238.360568,99.5402722 C233.05975,97.4327179 228.12424,98.2629666 223.523385,100.076741 C200.314741,109.245241 198.31959,113.866533 171.227936,99.7420865 C156.628332,92.1395631 142.399147,80.3679139 133.948492,67.8349906 C135.777594,66.629214 138.250458,65.1015564 140.881708,67.2091108 C137.011471,56.1553074 114.783798,66.9000028 123.060739,82.0309659 C123.617644,78.9117855 123.54867,75.161616 127.482771,75.4068587 C140.419323,104.51921 162.549921,120.735883 184.023984,131.702829 C198.958242,139.333453 202.427405,143.589436 219.226529,141.315832 C222.14645,140.922422 224.57844,140.368071 226.412651,139.716645 C235.560714,136.46207 230.574113,128.823782 225.899174,122.884311 C237.982486,130.762732 240.820659,147.413689 222.762111,150.734684 C209.731039,153.1258 211.388981,157.460976 199.065536,152.747718 C180.202286,145.541159 155.379127,129.743442 137.719099,113.932953 C129.932643,106.969082 110.936553,89.8276398 108.346177,73.9507302 C105.972943,59.4149915 118.922268,50.2132814 132.196029,53.8536026 C140.736095,56.1961812 148.19556,63.8395784 153.028885,73.9890493 C147.822587,57.2512357 139.962048,45.1551509 119.905794,50.1749622 C123.57677,38.8324877 128.83927,14.2826725 139.024505,7.58959071 C151.741361,-0.774206907 166.04463,18.078825 174.16063,36.9216384 C173.299726,31.6540298 172.293209,25.3645766 169.276213,20.5184788 C181.533238,22.838066 185.643608,23.8343644 193.813255,31.0843514 C193.613995,27.8936418 193.504147,27.1757961 193.312551,26.1999345 C204.471094,14.9851906 213.131226,38.5897996 210.760547,58.6920365 C185.830095,50.2132814 168.701425,51.8150227 158.079351,61.8444269 C176.914501,54.1831474 192.852721,55.7286873 206.652732,64.0516111 C202.795269,63.3414292 198.930142,63.0553127 195.072679,63.2826731 C203.684273,64.6493902 205.991088,65.183304 213.463326,67.6050755 C218.317087,69.1787161 221.982955,71.4114465 224.164593,74.1448806 C218.355407,77.7111181 201.116889,65.1552032 189.582819,72.1854937 C176.947711,79.8850924 183.109434,99.0932152 197.20067,98.1199083" fill="#2B4F91"></path>
		<path d="M131.549712,49.2220921 C128.203171,48.7929174 124.350817,49.0637062 119.905794,50.1749622 C123.57677,38.8324877 128.83927,14.2826725 139.024505,7.58959071 C141.024766,6.27141124 143.060791,5.6327584 145.10448,5.55612006 C138.406289,15.9252876 131.894585,33.7104919 131.63146,49.1607815 L131.549712,49.2220921" fill="#2C8DBB"></path>
		<path d="M225.411243,77.7264458 C226.97722,76.8425502 228.548306,76.1272591 230.0964,75.5831268 C230.433609,75.9918647 230.742717,76.4108209 231.046716,76.8425502 C229.646789,77.948697 227.715503,78.1096375 225.411243,77.7264458 L225.411243,77.7264458 Z M201.474535,64.3683829 C205.54914,65.150094 208.259582,65.9164774 213.463326,67.6050755 C218.317087,69.1787161 221.982955,71.4114465 224.164593,74.1448806 C221.632973,75.6980844 216.947816,74.1985275 211.506493,72.5865677 C210.402901,69.8480243 207.235183,67.1069263 201.474535,64.3683829 L201.474535,64.3683829 Z" fill="#243D75"></path>
		<path d="M199.23925,60.3295424 C201.781088,61.3564961 204.248843,62.6031465 206.652732,64.0516111 C205.12252,63.7706039 203.587198,63.5509073 202.059541,63.4129583 C200.915075,62.3425761 200.087381,61.3386139 199.23925,60.3295424" fill="#243D75"></path>
		<path d="M187.858456,93.8077243 C187.434391,92.0169418 187.015434,90.233823 186.596478,88.4455951 C176.39336,89.3090537 168.101092,84.9202314 159.622337,81.0321129 C163.776135,84.3428892 167.932487,87.6587748 172.081176,90.9669965 C176.914501,93.284029 181.75549,95.5959523 186.596478,97.9078756 C187.015434,96.5411585 187.434391,95.1744414 187.858456,93.8077243" fill="#16253B"></path>
		<path d="M197.20067,98.1199083 C184.307546,95.3966926 184.437831,74.5331816 200.031179,74.9623563 C205.286015,75.1028599 211.169285,77.6446982 217.21605,79.4252623 C221.78114,80.7715425 224.458373,80.5595098 226.530163,79.9157477 C225.291176,79.7343703 224.108391,79.5019007 223.053337,79.1927927 C231.412025,73.5190009 240.478341,72.5840131 245.349985,77.5655053 C251.578127,83.9290422 249.342842,99.765078 240.169233,102.74631 C234.69981,104.51921 226.195509,105.124653 220.498726,105.298366 C225.82509,101.029611 229.18185,99.6347929 232.132426,98.2936219 C229.140976,98.2604119 226.277256,98.9935854 223.523385,100.076741 C200.314741,109.245241 198.31959,113.866533 171.227936,99.7420865 C156.628332,92.1395631 142.399147,80.3679139 133.948492,67.8349906 C135.777594,66.629214 138.250458,65.1015564 140.881708,67.2091108 C137.011471,56.1553074 114.783798,66.9000028 123.060739,82.0309659 C123.617644,78.9117855 123.54867,75.161616 127.482771,75.4068587 C140.419323,104.51921 162.549921,120.735883 184.023984,131.702829 C198.958242,139.333453 202.427405,143.589436 219.226529,141.315832 C222.14645,140.922422 224.57844,140.368071 226.412651,139.716645 C235.560714,136.46207 230.574113,128.823782 225.899174,122.884311 C237.982486,130.762732 240.820659,147.413689 222.762111,150.734684 C209.731039,153.1258 211.388981,157.460976 199.065536,152.747718 C180.202286,145.541159 155.379127,129.743442 137.719099,113.932953 C129.932643,106.969082 110.936553,89.8276398 108.346177,73.9507302 C105.972943,59.4149915 118.922268,50.2132814 132.196029,53.8536026 C140.736095,56.1961812 148.19556,63.8395784 153.028885,73.9890493 C152.86028,73.4576902 152.696785,72.9339949 152.530735,72.4128541 C161.400346,84.1487388 172.512906,90.8086106 185.643608,92.8957281 C188.157346,96.2473782 192.168085,98.4698901 197.20067,98.1199083" fill="#F9C624"></path>
		<path d="M234.27319,132.428339 C237.65805,140.058963 235.037019,148.476408 222.762111,150.734684 C214.078987,152.326207 211.915231,154.781188 207.799752,154.852718 C207.710341,146.25645 224.519684,147.538865 229.787292,143.517907 C232.8937,141.152337 234.229762,136.998539 234.27319,132.428339" fill="#EA8B2F"></path>
		<path d="M239.024767,74.4820893 C241.497631,74.8422895 243.669051,75.851361 245.349985,77.5655053 C251.578127,83.9290422 249.342842,99.765078 240.169233,102.74631 L239.625101,102.914914 C246.783122,95.0492655 245.751059,81.4076408 239.024767,74.4820893" fill="#EA8B2F"></path>
		<path d="M216.115012,103.111619 C199.494711,110.07038 195.118662,112.195817 171.227936,99.7420865 C161.947033,94.9113164 152.821961,88.3919482 145.221992,81.0627682 C171.250928,101.918615 194.855537,109.112401 216.115012,103.111619" fill="#FAEC30"></path>
		<path d="M192.92425,96.2908066 C184.588554,90.4433012 186.409991,74.5868284 200.031179,74.9623563 C201.070906,74.9879024 202.13107,75.1105237 203.214225,75.3021196 C193.897557,77.9640246 190.333874,84.8563661 192.92425,96.2908066" fill="#FAEC30"></path>
		<path d="M196.694857,151.810175 C178.168815,144.233198 154.656172,129.089462 137.719099,113.932953 C129.932643,106.969082 110.936553,89.8276398 108.346177,73.9507302 C106.110892,60.2477948 117.489131,51.2887727 129.917316,53.3528987 C119.852147,55.7695611 115.307493,62.1382072 114.83489,69.7075207 C113.054326,97.9129848 167.436893,137.468587 196.694857,151.810175" fill="#FAEC30"></path>
		<path d="M233.105733,108.652571 C233.665192,110.121473 234.025393,111.794743 234.148014,113.600853 C234.602735,120.250507 237.149682,118.222145 239.142279,114.027473 C240.508996,111.163754 241.193632,108.859495 241.323917,106.289555 C240.618845,106.693184 239.867789,107.032947 239.063086,107.290963 C237.241648,107.883633 235.223505,108.315362 233.105733,108.652571" fill="#FFFFFF"></path>
		<path d="M236.130392,117.8645 C237.052607,117.611593 238.166418,116.076272 239.142279,114.027473 C240.508996,111.163754 241.193632,108.859495 241.323917,106.289555 C240.654609,106.665083 239.954646,106.98441 239.226581,107.234762 C239.188262,110.693705 238.460198,114.198632 236.130392,117.8645" fill="#2C8DBB"></path>
		<path d="M200.455245,84.1283019 C204.049583,82.9736175 206.808563,87.8069422 202.082532,89.9196058 C201.415779,91.7052792 202.486161,93.6544476 205.385645,94.3390835 C196.204371,96.2371597 195.839062,85.7964631 200.455245,84.1283019" fill="#17273E"></path>
		<path d="M241.004591,82.641518 C238.041242,81.6860934 235.759974,85.6763964 239.665975,87.4237505 C240.217771,88.8926521 239.338984,90.5020572 236.935095,91.0666263 C244.517182,92.6300485 244.82118,84.0184536 241.004591,82.641518" fill="#17273E"></path>
		<path d="M145.1709,96.4568563 C154.878423,98.1147991 163.403161,100.889107 170.982693,104.322505 C173.059592,105.395441 175.231012,106.493924 177.476515,107.533651 C184.930871,111.541836 191.404257,116.135028 197.164905,120.781866 C195.215737,117.716332 193.097964,114.93436 190.487151,112.126842 C193.644651,112.788487 196.809814,113.06183 199.913667,112.73484 C207.503417,111.863717 211.787501,113.319846 217.433192,120.383346 C221.724939,124.746623 231.621503,133.434856 225.010169,135.785098 C223.025236,136.492726 220.749077,136.898909 218.669624,137.177362 C213.414788,137.887543 208.167616,138.211979 203.055839,136.541263 C200.565093,135.728897 198.184195,134.52312 195.879936,133.302016 C192.551277,131.541889 189.27882,129.705123 185.922061,127.990979 C169.748816,119.73192 155.941142,109.707625 145.1709,96.4568563" fill="#DF542B"></path>
		<path d="M160.884315,103.918876 C171.215163,105.942128 181.012098,111.082006 190.466714,118.393304 C193.670197,120.873832 192.584487,123.770761 188.670822,120.687345 C179.548305,113.48845 170.28273,106.907771 160.884315,103.918876" fill="#EA8B2F"></path>
		<path d="M198.649134,109.963087 C198.917369,109.883894 199.203485,109.817474 199.476829,109.740835 C200.613631,109.424064 201.643139,109.012771 202.731403,108.575933 C204.826185,107.725247 206.938848,108.200405 209.074503,108.340908 L212.367398,108.55805 L211.95355,112.088523 C211.652106,114.620143 210.487204,117.343359 209.278872,119.522442 C207.531518,122.692715 203.497787,128.782909 199.420627,127.002344 C196.457278,125.725039 196.480269,121.890567 196.850688,119.037066 C197.090822,117.195191 196.904335,115.874457 196.436841,114.101557 L195.601483,110.8291 L198.649134,109.963087" fill="#17273E"></path>
		<path d="M199.594341,113.368384 C200.123145,115.412073 200.368388,117.100671 200.066944,119.430476 C198.661908,130.228819 207.968357,118.076532 208.686203,111.904591 C206.711488,111.771751 205.094419,111.414106 203.817113,111.930137 C202.578127,112.433396 201.684013,112.793596 200.383716,113.16146 C200.123145,113.230435 199.86002,113.291745 199.594341,113.368384" fill="#FFFFFF"></path>
		<path d="M203.257653,122.373389 C205.569577,120.020592 208.30812,115.138729 208.686203,111.904591 C207.5213,111.825398 206.479018,111.669567 205.559358,111.659349 C205.924668,115.187267 205.403527,118.71774 203.257653,122.373389" fill="#2C8DBB"></path>
		<path d="M133.046715,54.1448283 C138.983631,46.3813643 141.170379,35.5728036 143.050573,24.513891 C142.044056,23.2238123 138.396071,22.3143706 139.744906,20.6436548 C145.273085,20.5312519 148.941507,23.4154081 152.443879,27.1247038 C158.301603,33.3273002 163.088944,44.6927662 166.317973,53.3426803 C168.032117,57.9409807 167.321935,56.7556411 156.623223,55.3327225 C149.041136,54.3262057 141.050312,54.1448283 133.046715,54.1448283" fill="#17273E"></path>
		<path d="M138.973413,50.9004718 C145.022733,50.9898832 151.077162,51.2811089 157.054952,52.075593 C158.922373,52.3233903 160.774466,52.6171707 162.634223,52.9032871 C159.719412,45.2420076 155.366354,35.0031253 150.052762,29.3855349 C148.801003,28.0545824 147.539025,26.8360327 146.149316,25.8857173 C144.728952,34.183095 142.97138,43.2698477 138.973413,50.9004718" fill="#FFFFFF"></path>
		<path d="M149.623588,34.6071605 C152.717222,34.6071605 155.215632,38.0558859 155.215632,42.3118684 C155.215632,46.5678509 152.717222,50.0191309 149.623588,50.0191309 C146.532508,50.0191309 144.036653,46.5678509 144.036653,42.3118684 C144.036653,38.0558859 146.532508,34.6071605 149.623588,34.6071605" fill="#17273E"></path>
		<path d="M202.217927,33.5469968 C195.885045,39.205461 192.050573,45.2547807 189.833171,53.8791487 C189.263492,57.3099917 191.961162,58.7788933 195.042023,57.8771155 C197.880196,58.8376493 200.309632,60.0153252 203.260208,59.8646031 C205.733072,59.8313932 208.251919,58.5949613 208.44096,56.0556776 C207.804862,50.5785908 205.827592,41.821383 206.652732,36.0505159 C208.083314,33.9710623 205.577241,29.8990118 202.217927,33.5469968" fill="#17273E"></path>
		<path d="M205.119965,55.9458293 C204.384237,50.0140217 202.787605,43.208537 203.232107,37.1847634 C198.255724,42.2607762 194.587302,47.244823 193.041763,54.5561207 L193.011107,54.8218003 C193.335543,54.8933294 193.887339,54.7911449 194.122363,54.724725 L195.118662,54.4258355 L196.102187,54.7655988 C198.294044,55.5064361 200.797563,56.6534566 203.165687,56.5768183 C203.54377,56.5640452 204.849176,56.387777 205.119965,55.9458293" fill="#FFFFFF"></path>
		<path d="M207.45488,60.8276916 C208.543144,60.1864841 209.644182,59.5478313 210.732446,58.9040692 C201.829626,54.9188755 192.032691,53.6287968 181.924094,53.2583781 C183.840052,54.1218368 185.763675,54.98785 187.692406,55.8538633 C194.273085,57.5143606 200.863983,59.1697488 207.45488,60.8276916" fill="#17273E"></path>
		<path d="M197.795894,42.1662556 C200.227884,42.1662556 202.202599,44.779623 202.202599,48.0009879 C202.202599,51.2223528 200.227884,53.8357203 197.795894,53.8357203 C195.36135,53.8357203 193.38919,51.2223528 193.38919,48.0009879 C193.38919,44.779623 195.36135,42.1662556 197.795894,42.1662556" fill="#17273E"></path>
		<path d="M98.0332112,311.343101 C99.9644974,305.940098 100.618478,300.026172 100.80241,294.339607 C100.96846,289.370888 100.784528,284.407278 100.651688,279.443669 C100.513739,274.778948 100.396227,269.994161 100.833065,265.344768 C102.978939,242.583181 126.772589,236.888952 133.442679,245.689589 C141.847351,255.098222 140.782078,267.130442 136.324281,281.617643 C135.537461,284.202909 134.868152,286.834159 134.293365,289.470518 C133.401806,293.529796 132.709506,297.663157 132.206247,301.7863 C131.843493,304.770086 131.521612,307.948022 131.529275,310.962464 C131.539494,314.76628 131.986551,318.220114 132.627758,321.944738 C133.128462,324.859549 133.69814,327.84589 132.972631,330.776029 C132.377406,333.208019 131.031126,335.157188 129.217352,336.850895 C123.921643,341.832387 114.638185,345.815026 107.590012,347.222617 C103.451542,348.045202 99.1265849,348.264899 94.977896,347.465305 C93.6290612,347.20218 92.3492009,346.704031 91.1945166,345.978522 C85.2984735,342.299881 83.9598572,334.265628 85.183516,327.922528 C86.6192076,320.534592 91.2992556,314.4725 98.0332112,311.343101" fill="#17273E"></path>
		<path d="M108.770243,249.378447 C112.780983,242.749231 119.706534,240.151191 124.603724,240.869037 C142.166677,243.436421 136.612952,266.708931 132.400398,280.411866 C129.089622,291.169335 127.401023,304.754758 127.424015,310.970127 C127.45467,324.496795 132.032534,328.573954 126.412389,333.856891 C121.533081,338.437309 107.584903,345.015433 95.7519432,343.431574 C85.998437,340.95871 85.6995475,320.187165 101.241803,314.452063 C105.564206,303.962828 105.40071,291.547417 105.071166,280.345446 C104.84125,272.768469 104.248581,256.858349 108.770243,249.378447" fill="#2B4F91"></path>
		<path d="M108.770243,249.378447 C112.339035,243.47985 116.268027,243.359783 121.895836,242.307283 C103.418332,251.508993 112.980242,289.19462 107.983422,313.179866 C111.966062,313.105782 114.650958,313.476201 117.984726,314.702415 C103.252282,312.891195 96.7354686,325.21975 95.3227685,343.306398 C85.9958824,340.345603 85.9320172,320.102863 101.241803,314.452063 C105.564206,303.962828 105.40071,291.547417 105.071166,280.345446 C104.84125,272.768469 104.25369,256.858349 108.770243,249.378447" fill="#2C8DBB"></path>
		<path d="M200.05928,335.89547 C198.329808,335.606799 196.585008,335.318128 194.840209,335.029457 C195.752205,329.404203 193.7826,324.131485 187.457382,319.374799 C195.711331,322.856734 198.766647,328.936709 200.05928,335.89547" fill="#17273E"></path>
		<path d="M210.385019,333.833899 C208.650438,333.542673 206.908193,333.254002 205.173612,332.962777 C206.093272,327.340077 204.108339,322.059695 197.783121,317.310673 C206.04218,320.790053 209.089831,326.875138 210.385019,333.833899" fill="#17273E"></path>
		<path d="M103.742768,344.269487 C105.444139,343.899068 107.148065,343.526095 108.846881,343.155676 C107.186384,335.938899 108.450916,329.171733 114.152809,323.068767 C106.356135,327.536782 104.115741,335.338565 103.742768,344.269487" fill="#17273E"></path>
		<path d="M87.9808155,343.186331 C89.6821866,342.808249 91.388667,342.440385 93.0798198,342.067412 C91.4167678,334.850634 92.6915188,328.086024 98.3934114,321.988166 C90.5890737,326.448518 88.3537887,334.25541 87.9808155,343.186331" fill="#17273E"></path>
	</g>
</svg>