<?xml version="1.0" encoding="UTF-8"?>
<svg width="512px" height="114px" viewBox="0 0 512 114" version="1.1" xmlns="http://www.w3.org/2000/svg" preserveAspectRatio="xMidYMid">
    <title>Hugging Face</title>
    <g>
        <path d="M144.629018,77.2122912 L144.629018,36.4552436 L155.413122,36.4552436 L155.413122,51.6311179 L167.576313,51.6311179 L167.576313,36.4552436 L178.360417,36.4552436 L178.360417,77.2122912 L167.576313,77.2122912 L167.576313,61.0361351 L155.413122,61.0361351 L155.413122,77.2122912 L144.629018,77.2122912 Z M196.01628,77.9645742 C192.588687,77.9645742 190.101596,76.8151379 188.552638,74.5162652 C187.006049,72.1753688 186.23305,69.0614736 186.23305,65.1763551 L186.23305,45.8632203 L197.017154,45.8632203 L197.017154,63.7972682 C197.017154,65.8037508 197.268112,67.140814 197.769437,67.8096415 C198.312785,68.478469 199.107092,68.8128828 200.152357,68.8128828 C201.155006,68.8128828 201.991337,68.6039482 202.660164,68.186079 C203.328992,67.7682097 203.997819,67.0573585 204.666647,66.0541172 L204.666647,45.8649959 L215.450751,45.8649959 L215.450751,77.2111074 L206.67313,77.2111074 L205.920847,73.073255 L205.669888,73.073255 C204.416281,74.577821 203.015886,75.769281 201.469296,76.6470432 C199.96473,77.5248053 198.146466,77.9633904 196.014505,77.9633904 L196.01628,77.9645742 Z M234.145368,90.1277652 C231.76304,90.1277652 229.568339,89.856091 227.563632,89.3127426 C225.557741,88.810826 223.948412,87.9958034 222.736236,86.867083 C221.565492,85.7389544 220.980712,84.2337965 220.980712,82.3527931 C220.980712,79.8870095 222.443254,77.8805269 225.369522,76.3333453 L225.369522,76.082387 C224.568113,75.4899123 223.8691,74.769591 223.3003,73.9510171 C222.756952,73.073255 222.485278,71.9859663 222.485278,70.690335 C222.485278,69.6036382 222.798976,68.5376573 223.425779,67.4929842 C224.094607,66.4477193 224.951653,65.5492412 225.996326,64.7969582 L225.996326,64.5459999 C224.867606,63.7937169 223.864956,62.727736 222.987194,61.3480573 C222.150864,59.9269468 221.732995,58.3176175 221.732995,56.5206614 C221.732995,53.9288068 222.359799,51.7974369 223.613998,50.1283275 C224.90963,48.414235 226.581698,47.1606273 228.629613,46.3663206 C230.678119,45.5305821 232.851513,45.112121 235.152161,45.112121 C236.991141,45.112121 238.66321,45.3630793 240.167776,45.8649959 L251.827866,45.8649959 L251.827866,53.6423355 L247.313576,53.6423355 C247.438463,54.018773 247.543227,54.4993818 247.626682,55.0841619 C247.752161,55.669534 247.814901,56.275622 247.814901,56.9024258 C247.814901,59.3688013 247.250837,61.3752839 246.122116,62.9218736 C244.993396,64.4264396 243.468114,65.5344441 241.545087,66.2447035 C239.62206,66.9555547 237.49069,67.3106843 235.152753,67.3106843 C234.10808,67.3106843 232.937336,67.1644893 231.641704,66.8715073 C231.139788,67.3314002 230.889421,67.9374882 230.889421,68.6897712 C230.889421,69.3585987 231.223835,69.8392075 231.892663,70.1321895 C232.602922,70.4245796 233.731642,70.5707746 235.278232,70.5707746 L239.980741,70.5707746 C243.909658,70.5707746 246.941282,71.2188863 249.07206,72.5145177 C251.245453,73.7687173 252.33215,75.8373475 252.33215,78.7233679 C252.33215,80.9808088 251.579867,82.9659836 250.075301,84.6777086 C248.612167,86.3912092 246.522229,87.7288643 243.807263,88.6900819 C241.090521,89.6518914 237.870678,90.1325002 234.153655,90.1325002 L234.145368,90.1277652 Z M235.14861,60.9124316 C236.151851,60.9124316 236.966873,60.5573019 237.593677,59.8464507 C238.221073,59.1361914 238.534179,58.0281868 238.534179,56.5236208 C238.534179,55.0604866 238.221073,53.9945058 237.593677,53.3256782 C236.966873,52.6154189 236.151851,52.2602892 235.14861,52.2602892 C234.145368,52.2602892 233.330346,52.6154189 232.703542,53.3256782 C232.076146,53.9945058 231.76304,55.0604866 231.76304,56.5236208 C231.76304,58.0281868 232.076146,59.1361914 232.703542,59.8464507 C233.330346,60.5573019 234.145368,60.9124316 235.14861,60.9124316 Z M235.900893,83.4868405 C237.656417,83.4868405 239.119551,83.2151663 240.289703,82.6718179 C241.460447,82.1699013 242.045228,81.4803579 242.045228,80.6025957 C242.045228,79.7668573 241.669382,79.2442248 240.917099,79.0352901 C240.206248,78.8263555 239.182291,78.7215923 237.844636,78.7215923 L235.399568,78.7215923 C234.145368,78.7215923 233.184151,78.6801605 232.515323,78.5961131 C231.888519,78.5546813 231.345171,78.4712259 230.885278,78.3457467 C230.132995,79.0980297 229.756558,79.8503127 229.756558,80.6025957 C229.756558,81.605837 230.320622,82.3374041 231.449342,82.797297 C232.620086,83.2571899 234.103937,83.4868405 235.900893,83.4868405 L235.900893,83.4868405 Z M268.371581,90.133684 C265.988661,90.133684 263.794552,89.8620098 261.789845,89.3186614 C259.783362,88.8167448 258.174033,88.0017222 256.961857,86.8730018 C255.791705,85.7448732 255.206333,84.2397153 255.206333,82.3587119 C255.206333,79.8929283 256.669467,77.8864457 259.595144,76.3392641 L259.595144,76.0883058 C258.793734,75.4958312 258.094721,74.7755098 257.526513,73.956936 C256.982573,73.0791738 256.710899,71.9918852 256.710899,70.6962538 C256.710899,69.609557 257.024597,68.5435762 257.651401,67.4989031 C258.320228,66.4536381 259.177274,65.55516 260.222539,64.802877 L260.222539,64.5519187 C259.093819,63.7996357 258.090578,62.7336549 257.212816,61.3539761 C256.376485,59.9328656 255.958616,58.3235363 255.958616,56.5265803 C255.958616,53.9347256 256.586012,51.8033557 257.839619,50.1342463 C259.135251,48.4201538 260.80732,47.1665461 262.855826,46.3722394 C264.90374,45.536501 267.077134,45.1180398 269.378374,45.1180398 C271.217946,45.1180398 272.890015,45.3689981 274.394581,45.8709147 L286.054671,45.8709147 L286.054671,53.6482543 L281.540381,53.6482543 C281.66586,54.0246918 281.770032,54.5053006 281.854079,55.0900808 C281.978966,55.6754528 282.041706,56.2815408 282.041706,56.9083446 C282.041706,59.3747201 281.477642,61.3812027 280.348921,62.9277924 C279.220793,64.4323584 277.694919,65.540363 275.771892,66.2506223 C273.849456,66.9614735 271.717495,67.3166032 269.379558,67.3166032 C268.334885,67.3166032 267.164732,67.1704081 265.868509,66.8774262 C265.367184,67.3373191 265.116226,67.943407 265.116226,68.69569 C265.116226,69.3645176 265.45064,69.8451264 266.119467,70.1381083 C266.830319,70.4304984 267.958447,70.5766935 269.505037,70.5766935 L274.207546,70.5766935 C278.136463,70.5766935 281.168087,71.2248051 283.298865,72.5204365 C285.472258,73.7746361 286.558955,75.8432664 286.558955,78.7292868 C286.558955,80.9867276 285.806672,82.9719025 284.302106,84.6836274 C282.838972,86.397128 280.749034,87.7347831 278.034068,88.6960007 C275.317326,89.6578102 272.097483,90.138419 268.38046,90.138419 L268.371581,90.133684 Z M269.374231,60.9183504 C270.377472,60.9183504 271.192495,60.5632208 271.81989,59.8523695 C272.446694,59.1421102 272.760392,58.0341057 272.760392,56.5295397 C272.760392,55.0664055 272.446694,54.0004246 271.81989,53.3315971 C271.192495,52.6213377 270.377472,52.2662081 269.374231,52.2662081 C268.371581,52.2662081 267.555967,52.6213377 266.929163,53.3315971 C266.302359,54.0004246 265.988661,55.0664055 265.988661,56.5295397 C265.988661,58.0341057 266.302359,59.1421102 266.929163,59.8523695 C267.555967,60.5632208 268.371581,60.9183504 269.374231,60.9183504 Z M270.127106,83.4927593 C271.88263,83.4927593 273.345172,83.2210851 274.515916,82.6777367 C275.686069,82.1758201 276.271441,81.4862767 276.271441,80.6085146 C276.271441,79.7727761 275.895003,79.2501436 275.14272,79.041209 C274.432461,78.8322744 273.407912,78.7275111 272.070257,78.7275111 L269.625189,78.7275111 C268.371581,78.7275111 267.409772,78.6860793 266.740944,78.602032 C266.114141,78.5606002 265.570792,78.4771447 265.110899,78.3516655 C264.358616,79.1039485 263.982179,79.8562315 263.982179,80.6085146 C263.982179,81.6117558 264.546835,82.343323 265.675555,82.8032159 C266.845708,83.2631088 268.329558,83.4927593 270.127106,83.4927593 L270.127106,83.4927593 Z M291.186295,77.2247208 L291.186295,45.8786092 L301.970399,45.8786092 L301.970399,77.2247208 L291.186295,77.2247208 Z M296.578347,41.9899394 C294.822822,41.9899394 293.40112,41.5093306 292.314423,40.548113 C291.227727,39.5448717 290.684378,38.2279325 290.684378,36.5978874 C290.684378,34.9678422 291.227727,33.6716189 292.314423,32.7104013 C293.40112,31.70716 294.822822,31.2058353 296.578347,31.2058353 C298.333871,31.2058353 299.754982,31.70716 300.841678,32.7104013 C301.928375,33.6716189 302.471724,34.9678422 302.471724,36.5978874 C302.471724,38.2279325 301.928375,39.5448717 300.841678,40.548113 C299.754982,41.5093306 298.333871,41.9899394 296.578347,41.9899394 Z M309.250557,77.2247208 L309.250557,45.8786092 L318.028178,45.8786092 L318.780461,49.6400242 L319.03142,49.6400242 C320.285027,48.4278483 321.70673,47.3831752 323.294751,46.5054131 C324.924796,45.5856272 326.8058,45.1257343 328.937762,45.1257343 C332.406787,45.1257343 334.892102,46.2964784 336.401403,48.6373748 C337.947993,50.9362475 338.720992,54.0294268 338.720992,57.9180967 L338.720992,77.2312315 L327.936888,77.2312315 L327.936888,59.2971835 C327.936888,57.2907009 327.68593,55.9530459 327.184605,55.2842183 C326.682688,54.6153908 325.888973,54.280977 324.801685,54.280977 C323.799035,54.280977 322.962705,54.4899116 322.293877,54.9083728 C321.62505,55.326242 320.872767,55.9116141 320.037028,56.6638971 L320.037028,77.2259045 L309.250557,77.2247208 Z M357.15163,90.1396028 C354.769301,90.1396028 352.5746,89.8679286 350.569893,89.3245802 C348.564002,88.8226636 346.954673,88.0076411 345.742497,86.8789206 C344.571753,85.7507921 343.986973,84.2456342 343.986973,82.3646307 C343.986973,79.8988471 345.449515,77.8923645 348.375784,76.345183 L348.375784,76.0942247 C347.574374,75.50175 346.875361,74.7814287 346.306562,73.9628548 C345.763213,73.0850927 345.491539,71.997804 345.491539,70.7021726 C345.491539,69.6154758 345.805237,68.549495 346.432041,67.5048219 C347.100868,66.4595569 347.957914,65.5610789 349.002588,64.8087959 L349.002588,64.5578376 C347.873867,63.8055546 346.870626,62.7395737 345.992864,61.359895 C345.157125,59.9387844 344.739256,58.3294552 344.739256,56.5324991 C344.739256,53.9406444 345.36606,51.8092746 346.620259,50.1401652 C347.915891,48.4260727 349.58796,47.1724649 351.635874,46.3781583 C353.68438,45.5424198 355.857774,45.1239587 358.158422,45.1239587 C359.997402,45.1239587 361.669471,45.374917 363.174037,45.8768336 L374.834127,45.8768336 L374.834127,53.6541732 L370.319837,53.6541732 C370.445317,54.0306106 370.55008,54.5112194 370.633535,55.0959996 C370.759014,55.6813717 370.821754,56.2874596 370.821754,56.9142635 C370.821754,59.380639 370.25769,61.3871216 369.128969,62.9337112 C368.000249,64.4382773 366.474375,65.5462818 364.55194,66.2565411 C362.628913,66.9673923 360.497543,67.322522 358.159606,67.322522 C357.114341,67.322522 355.944189,67.176327 354.648557,66.883345 C354.146641,67.3432379 353.896274,67.9493258 353.896274,68.7016089 C353.896274,69.3704364 354.230688,69.8510452 354.899516,70.1440272 C355.609775,70.4364173 356.738495,70.5826123 358.285085,70.5826123 L362.987594,70.5826123 C366.916511,70.5826123 369.948135,71.2307239 372.078913,72.5263553 C374.252307,73.7805549 375.339003,75.8491852 375.339003,78.7352056 C375.339003,80.9926465 374.58672,82.9778213 373.081562,84.6895463 C371.61902,86.4030469 369.529082,87.7407019 366.813524,88.7019196 C364.096782,89.6637291 360.87694,90.1443379 357.159916,90.1443379 L357.15163,90.1396028 Z M358.154871,60.9242692 C359.158112,60.9242692 359.973135,60.5691396 360.599939,59.8582884 C361.227334,59.148029 361.54044,58.0400245 361.54044,56.5354585 C361.54044,55.0723243 361.227334,54.0063434 360.599939,53.3375159 C359.973135,52.6272566 359.158112,52.2721269 358.154871,52.2721269 C357.15163,52.2721269 356.336607,52.6272566 355.709803,53.3375159 C355.082407,54.0063434 354.769301,55.0723243 354.769301,56.5354585 C354.769301,58.0400245 355.082407,59.148029 355.709803,59.8582884 C356.336607,60.5691396 357.15163,60.9242692 358.154871,60.9242692 Z M358.907154,83.4986781 C360.662678,83.4986781 362.125812,83.2270039 363.295965,82.6836555 C364.466709,82.181739 365.051489,81.4921955 365.051489,80.6144334 C365.051489,79.7786949 364.675643,79.2560624 363.92336,79.0471278 C363.212509,78.8381932 362.188552,78.7334299 360.850897,78.7334299 L358.405829,78.7334299 C357.15163,78.7334299 356.190412,78.6919981 355.521584,78.6079508 C354.894781,78.566519 354.35084,78.4830635 353.891539,78.3575844 C353.138664,79.1098674 352.762819,79.8621504 352.762819,80.6144334 C352.762819,81.6176747 353.326883,82.3492418 354.455603,82.8091347 C355.625756,83.2690276 357.109606,83.4986781 358.907154,83.4986781 L358.907154,83.4986781 Z M393.396163,77.2306396 L393.396163,36.473592 L419.977618,36.473592 L419.977618,45.4998042 L404.180267,45.4998042 L404.180267,53.2771438 L417.722545,53.2771438 L417.722545,62.3033561 L404.180267,62.3033561 L404.180267,77.2247208 L393.396163,77.2306396 Z M431.773842,77.9829226 C429.809383,77.9829226 428.116598,77.5443374 426.695488,76.6665753 C425.338892,75.7716485 424.236807,74.5405324 423.498137,73.0927871 C422.745262,71.6296529 422.369416,70.0410396 422.369416,68.3275389 C422.369416,65.0668568 423.707071,62.5176177 426.38179,60.6804135 C429.0571,58.7994101 433.401519,57.5458024 439.420967,56.9184067 C439.170009,54.7450131 437.706875,53.6583163 435.032156,53.6583163 C433.903436,53.6583163 432.711976,53.8879669 431.458368,54.3478598 C430.204169,54.765729 428.762342,55.4138406 427.131705,56.2916028 L423.37029,49.2718731 C425.585707,47.9342181 427.82184,46.9102609 430.076322,46.1994097 C432.371051,45.4897422 434.759298,45.1304694 437.161159,45.1334107 C441.257579,45.1334107 444.453154,46.3041729 446.755578,48.6450693 C449.054451,50.943942 450.203887,54.6645171 450.203887,59.8079783 L450.203887,77.2389259 L441.426266,77.2389259 L440.673983,74.229202 L440.423025,74.229202 C439.168825,75.3579225 437.83117,76.2777083 436.410059,76.9879676 C435.030973,77.6567952 433.484383,77.9912089 431.77029,77.9912089 L431.773842,77.9829226 Z M435.535849,69.7084014 C436.413611,69.7084014 437.145178,69.5201827 437.73055,69.1443372 C438.31533,68.7264679 438.879986,68.2038354 439.423335,67.5770316 L439.423335,63.3131081 C436.873504,63.6895455 435.097263,64.2536098 434.094022,65.0058928 C433.132805,65.7587677 432.651604,66.5737903 432.651604,67.4515524 C432.651604,68.9561184 433.613413,69.7084014 435.535849,69.7084014 Z M471.409863,77.9829226 C468.442163,77.9829226 465.766853,77.3348109 463.383933,76.0391796 C461.001013,74.7435482 459.099294,72.8832606 457.678183,70.4589088 C456.298504,67.9931252 455.608961,65.025425 455.608961,61.5569919 C455.608961,58.087967 456.382552,55.1409827 457.929141,52.7142633 C459.517163,50.2478878 461.586385,48.3674763 464.137992,47.071253 C466.687231,45.7756216 469.445996,45.12751 472.412513,45.12751 C474.293516,45.12751 475.986893,45.4204919 477.491459,46.0052721 C479.038048,46.5906442 480.396419,47.3849509 481.566572,48.3881922 L476.550957,55.2836264 C475.88213,54.6988463 475.276042,54.3016929 474.732693,54.0927583 C474.192896,53.8838237 473.61877,53.7778767 473.039908,53.7790604 C471.033426,53.7790604 469.46612,54.4893198 468.3374,55.9110222 C467.208679,57.290109 466.644615,59.1711125 466.644615,61.5534406 C466.644615,63.9363607 467.229987,65.83808 468.400139,67.2591905 C469.570292,68.6382774 470.991402,69.3284127 472.663471,69.3284127 C473.541233,69.3284127 474.398279,69.140194 475.234018,68.7637565 C476.091064,68.3583168 476.909638,67.8753405 477.679678,67.3219301 L481.81753,74.3416598 C480.27094,75.7213385 478.55744,76.6825561 476.676436,77.2259045 C474.795433,77.7272292 473.039908,77.9781875 471.409863,77.9781875 L471.409863,77.9829226 Z M499.459188,77.9829226 C496.40744,77.9829226 493.648675,77.3348109 491.184667,76.0391796 C488.760315,74.7435482 486.837288,72.8832606 485.416177,70.4589088 C483.995067,67.9931252 483.284807,65.025425 483.284807,61.5569919 C483.284807,58.1714225 483.995067,55.2652781 485.416177,52.8444775 C486.879311,50.378102 488.760315,48.4763827 491.059188,47.1387276 C493.35806,45.8010726 495.782412,45.132245 498.333427,45.132245 C501.426606,45.132245 503.976437,45.8223803 505.980552,47.2014672 C508.029058,48.5391223 509.533624,50.3573861 510.494842,52.6562588 C511.498083,54.9551315 512,57.5049625 512,60.3033842 C512,61.2225782 511.93726,62.1216481 511.811781,62.9994102 C511.728326,63.8351487 511.644278,64.4412367 511.560823,64.8176741 L493.691882,64.8176741 C494.193207,66.6986776 495.092277,68.0150248 496.387908,68.7673078 C497.68354,69.478159 499.209413,69.8332887 500.964938,69.8332887 C502.97142,69.8332887 505.10279,69.2064849 507.357272,67.9522853 L510.86832,74.3446192 C509.196251,75.5147714 507.315248,76.4138414 505.22531,77.0406452 C503.135372,77.6674491 501.212937,77.9811469 499.457412,77.9811469 L499.459188,77.9829226 Z M493.565219,57.7938013 L502.845941,57.7938013 C502.845941,56.5816254 502.532243,55.5369523 501.905439,54.6591901 C501.320067,53.7394043 500.212655,53.2795114 498.582609,53.2795114 C497.411865,53.2795114 496.367192,53.6352329 495.447406,54.3454922 C494.527621,55.0563435 493.900817,56.2057798 493.566403,57.7938013 L493.565219,57.7938013 Z" fill="#000B1B"></path>
        <path d="M121.486402,83.1903072 C121.168561,81.9905608 120.653623,80.8523703 119.962895,79.8213105 C120.110866,79.2779621 120.223324,78.7263273 120.299085,78.1693657 C120.789164,74.6322742 119.563375,71.3923079 117.252072,68.8886438 C116.00024,67.5202108 114.658442,66.6169977 113.237332,66.0624036 C114.170139,62.0713381 114.642461,57.9891226 114.644829,53.887375 C114.644829,52.0158417 114.538882,50.1821888 114.361317,48.3757626 C114.268391,47.4737333 114.156526,46.5734796 114.025719,45.6761853 C113.618504,43.0286937 113.014784,40.4149394 112.219293,37.8574139 C111.697844,36.1770587 111.094716,34.5227464 110.412275,32.9009876 C109.38891,30.4991273 108.193898,28.1742118 106.836711,25.946365 C105.945928,24.4631068 104.976424,23.028383 103.931751,21.6487042 C103.419772,20.9520582 102.886486,20.2719849 102.3313,19.6090762 C100.687049,17.6102881 98.9007471,15.7340197 96.9848226,13.9938843 C96.3491405,13.4089858 95.69511,12.844448 95.0233231,12.3005077 C94.36219,11.7489914 93.6862599,11.2149947 92.9967165,10.6994648 C91.6087514,9.66662941 90.1740275,8.69712543 88.6978719,7.79509609 C80.5417273,2.8410373 70.9769017,0 60.7491675,0 C30.9833829,0 6.85824117,24.1251417 6.85824117,53.8909263 C6.85747172,58.0412083 7.33831729,62.1772851 8.29118936,66.2139256 C7.01272258,66.7691116 5.78693336,67.6338523 4.65111032,68.8856844 C2.34039998,71.3899404 1.11401888,74.6168853 1.6046897,78.1545686 C1.67867505,78.7168572 1.79113277,79.273227 1.94028723,79.8201267 C1.25015192,80.8517784 0.735213909,81.9905608 0.416780978,83.1903072 C-0.293478347,85.8898845 -0.0596846521,88.3242984 0.842936573,90.4586276 C-0.137813178,93.2469874 0.107226289,96.2158713 1.38510119,98.7982559 C2.31435714,100.683402 3.64431773,102.14121 5.28324112,103.445127 C7.23231108,104.994085 9.67205186,106.311024 12.6166686,107.57351 C16.1277172,109.070973 20.4117647,110.477879 22.3590591,110.994 C27.3936139,112.297918 32.219826,113.124186 37.1146965,113.163843 C44.0870756,113.22895 50.0887669,111.589434 54.3858358,107.394761 C56.4970816,107.653414 58.6219408,107.783036 60.7485756,107.782444 C62.9959544,107.777709 65.2409658,107.635658 67.4723638,107.358656 C71.7599626,111.579964 77.7829617,113.234277 84.7790161,113.167394 C89.6709272,113.128922 94.4977312,112.302653 99.5168971,110.99696 C101.478988,110.480838 105.76126,109.073933 109.277044,107.577061 C112.220477,106.311616 114.659626,104.995268 116.622309,103.448087 C118.248803,102.144761 119.57758,100.686362 120.507428,98.8012153 C121.798324,96.2200145 122.030934,93.2511305 121.062614,90.461587 C121.956949,88.3290334 122.188967,85.8892926 121.479299,83.1932666 L121.486402,83.1903072 Z M116.491503,90.275144 C117.480539,92.1520042 117.543871,94.2727202 116.670844,96.2472411 C115.347394,99.2409842 112.060077,101.598453 105.673662,104.13112 C101.703904,105.70612 98.067968,106.71232 98.0383739,106.721791 C92.7871899,108.083713 88.0355551,108.775032 83.9278886,108.775032 C77.1212368,108.775032 72.0547203,106.896988 68.8407968,103.187067 C63.4079049,104.112179 57.8613714,104.143549 52.4160499,103.279992 C49.1997589,106.928358 44.1652041,108.775032 37.4118217,108.775032 C33.3000121,108.775032 28.5513366,108.083713 23.3013364,106.721791 C23.2687829,106.71232 19.6352145,105.70612 15.6660487,104.13112 C9.27963359,101.599637 5.99468421,99.2433517 4.6688668,96.2472411 C3.79583972,94.2721283 3.85917117,92.1514123 4.84820728,90.275144 C4.93994911,90.1011304 5.03760977,89.9306682 5.14237302,89.7667167 C4.54930648,88.876525 4.15215314,87.8703243 3.97577208,86.8155892 C3.79950939,85.7608541 3.84857647,84.6800761 4.11971797,83.645465 C4.51272813,82.1527367 5.32479129,80.9109666 6.42687701,80.0189993 C5.89619492,79.1465641 5.54793109,78.1758764 5.40291982,77.1649406 C5.08567065,74.966688 5.81487022,72.7713948 7.45675303,70.9797656 C8.73462793,69.5870655 10.541646,68.8205773 12.5428017,68.8205773 L12.5960711,68.8205773 C11.0873619,63.9854869 10.3226494,58.9479727 10.3273845,53.8814562 C10.3273845,26.2582872 32.7242285,3.8614432 60.3473974,3.8614432 C87.9764852,3.8614432 110.36741,26.2582872 110.36741,53.8814562 C110.370962,58.9598103 109.600922,64.0085704 108.083335,68.8560903 C108.324823,68.8324149 108.561576,68.8199854 108.793594,68.8199854 C110.794158,68.8199854 112.601768,69.5858817 113.879643,70.9785819 C115.520342,72.7666597 116.251317,74.9637286 115.933476,77.1637568 C115.788465,78.1746926 115.440438,79.1459722 114.909519,80.0184074 C116.011604,80.9097829 116.823668,82.1515529 117.216678,83.6448732 C117.487168,84.6794842 117.536295,85.7596703 117.359913,86.8149973 C117.183532,87.8697324 116.786379,88.8753412 116.193904,89.7661248 C116.298668,89.9283007 116.397512,90.0987629 116.48807,90.2727764 L116.491503,90.275144 Z" fill="#FFFFFF"></path>
        <path d="M116.159457,89.760206 C116.751931,88.8694224 117.149085,87.8638136 117.325466,86.8090785 C117.501847,85.7537515 117.452721,84.6735654 117.18223,83.6389543 C116.78922,82.146226 115.977157,80.9044559 114.875071,80.0124886 C115.405398,79.1400534 115.754017,78.1693657 115.899028,77.1584299 C116.216278,74.9601773 115.487078,72.7648841 113.845195,70.9732549 C112.56732,69.5805548 110.75971,68.8140666 108.759147,68.8140666 C108.526537,68.8140666 108.290375,68.8259042 108.048887,68.8501714 C109.564699,64.0038353 110.333555,58.9538915 110.32882,53.8755373 C110.32882,26.2523684 87.9319756,3.85552437 60.3088067,3.85552437 C32.6856378,3.85552437 10.2887937,26.2464496 10.2887937,53.8755373 C10.2839995,58.9402782 11.0487712,63.9789762 12.5574804,68.8146585 L12.5042109,68.8146585 C10.5036472,68.8146585 8.69662906,69.5811466 7.41875416,70.9738468 C5.77805512,72.7619247 5.04767178,74.9584016 5.36492094,77.1590218 C5.50975466,78.1699575 5.85807767,79.1406453 6.38887814,80.0130805 C5.28679242,80.9050478 4.47472925,82.1468179 4.08231098,83.6401381 C3.81134705,84.6747492 3.76245753,85.7555271 3.93895697,86.8108541 C4.11545641,87.8655892 4.51326082,88.8717899 5.10614979,89.7619816 C5.00020278,89.9259331 4.903134,90.0963954 4.81198406,90.2704089 C3.82353983,92.1472692 3.75961649,94.2679851 4.63264358,96.2425061 C5.95550157,99.2356572 9.24341036,101.59431 15.6298255,104.126385 C19.5995832,105.701385 23.2355191,106.707585 23.2651132,106.717055 C28.5162971,108.078978 33.267932,108.770889 37.3755985,108.770889 C44.1289809,108.770889 49.1659033,106.924214 52.3798267,103.275257 C57.8227807,104.138814 63.3710897,104.107444 68.8045736,103.182332 C72.0167214,106.892253 77.0850135,108.770889 83.8916654,108.770889 C88.0028831,108.770889 92.7521505,108.078978 98.0021507,106.717055 C98.0341123,106.707585 101.668273,105.701385 105.637438,104.126385 C112.023854,101.595494 115.308803,99.236841 116.63462,96.2425061 C117.507647,94.2673933 117.444316,92.1466773 116.45528,90.2704089 C116.364722,90.0946197 116.265285,89.9247494 116.160522,89.7619816 L116.159457,89.760206 Z M50.1053396,97.5612209 C49.8283384,98.0459729 49.5318052,98.5188872 49.2157398,98.9787801 C48.3841445,100.196283 47.2903451,101.126131 46.0213485,101.818042 C43.5940372,103.1409 40.5227575,103.603752 37.4035353,103.603752 C32.4743356,103.603752 27.418473,102.450173 24.5892733,101.715054 C24.4501809,101.678949 7.22935167,96.8142648 9.40748027,92.6710854 C9.77444758,91.9750313 10.3787599,91.6968464 11.1387374,91.6968464 C14.2088333,91.6968464 19.7979823,96.2685489 22.2010264,96.2685489 C22.7372721,96.2685489 23.1160771,96.0394903 23.2705585,95.4825286 C24.2945157,91.809896 7.70996048,90.2662657 9.10680382,84.9470153 C9.35361893,84.0059217 10.0218546,83.6241573 10.9623563,83.6241573 C15.0208965,83.6235654 24.131748,90.7622635 26.0376105,90.7622635 C26.1838055,90.7622635 26.2885688,90.7196479 26.3453895,90.6296817 L26.3702486,90.5888418 C27.2639916,89.1120943 26.7514211,88.038419 20.6242507,84.2852903 L20.0359192,83.9272012 C13.2943744,79.8461695 8.55931226,77.3928155 11.2523789,74.4629957 C11.5619336,74.1244388 12.0005187,73.9746925 12.5338051,73.9746925 C13.1665277,73.9746925 13.9318322,74.1865865 14.7746732,74.5411243 C18.33544,76.0427309 23.268191,80.1379677 25.3338619,81.9219024 C25.9417255,82.4510456 26.2998145,82.7742136 26.2998145,82.7742136 C26.2998145,82.7742136 28.9100176,85.488588 30.4885689,85.488588 C30.8519849,85.488588 31.159764,85.3459442 31.3686986,84.9914065 C32.4885408,83.1044842 20.9752371,74.3789484 20.3241661,70.7803011 C19.8843972,68.3405604 20.6331289,67.105301 22.0187265,67.105301 C22.6769001,67.105301 23.4806769,67.3852616 24.3679092,67.9481421 C27.1201641,69.69538 32.4352713,78.8269474 34.3825657,82.378244 C35.0348205,83.5691122 36.148152,84.0722125 37.1513933,84.0722125 C39.141895,84.0722125 40.6979548,82.0935484 37.3336932,79.5792304 C32.2772386,75.7953239 34.0517032,69.6119246 36.4648092,69.2331196 C36.5677969,69.2171387 36.6719682,69.2088524 36.7755477,69.2082605 C38.970249,69.2082605 39.9385692,72.9903914 39.9385692,72.9903914 C39.9385692,72.9903914 42.7754634,80.11666 47.6508017,84.9878552 C52.0739417,89.4086276 52.6912754,93.0374609 50.1148097,97.5594452 L50.1053396,97.5612209 Z M65.8671778,98.3957756 L65.6144438,98.4259616 L65.1829613,98.4756798 C64.9562702,98.4987632 64.7295791,98.5212547 64.5017042,98.5425625 L64.2791563,98.5626865 L64.0767324,98.5798511 L63.7884855,98.6029345 C63.6825385,98.610629 63.5765914,98.6189154 63.4706444,98.6254261 L63.1533953,98.6467339 L63.0835531,98.6508771 L62.8337786,98.6656741 L62.7278316,98.6710011 L62.4318902,98.6857981 L62.0880063,98.7000033 L61.7754922,98.7106572 L61.5671494,98.716576 L61.4617943,98.716576 C61.3966872,98.716576 61.332172,98.7201273 61.2670649,98.7207192 L61.1634854,98.7207192 C61.0983783,98.7207192 61.0338631,98.7207192 60.968756,98.7242705 L60.7041844,98.7272299 L60.3336657,98.7272299 C60.0430513,98.7272299 59.7536206,98.7242705 59.46419,98.7189436 L59.2298044,98.7136166 C59.1635135,98.7136166 59.0966308,98.7100653 59.0303399,98.7082897 L58.782341,98.7005952 L58.4733782,98.6887575 L58.1957852,98.6769199 L58.1235755,98.6739605 L57.8590039,98.6597553 C57.7856104,98.6556121 57.712217,98.6520608 57.6394154,98.6473258 L57.4683613,98.6372637 C57.2535078,98.6236504 57.0386544,98.6082615 56.8238009,98.5916888 L56.5988855,98.5739323 L56.3147817,98.5496651 L55.9827355,98.5188872 C55.7974762,98.5017226 55.6122169,98.4827823 55.4269576,98.4620664 L55.4180793,98.4620664 C58.1229836,92.4248622 56.7551425,86.7901382 51.2891051,81.3329791 C47.7046631,77.7532721 45.317008,72.4665752 44.8257453,71.3064849 C43.8242796,67.8706054 41.1732367,64.0500022 36.7702208,64.0500022 C36.3979265,64.050594 36.026816,64.0801882 35.6592568,64.1381927 C33.7303108,64.4412367 32.0446287,65.5516087 30.8419229,67.2219019 C29.5427402,65.6054701 28.2790705,64.3204926 27.1367368,63.5942524 C25.4143579,62.5028206 23.6961222,61.9488183 22.021094,61.9488183 C19.9317478,61.9488183 18.0631739,62.8070483 16.7610318,64.3637 L16.7284783,64.4033562 L16.6550848,64.0949852 L16.6521254,64.0819638 C16.4044816,63.0224937 16.1964348,61.9535534 16.0282809,60.8786943 C16.0282809,60.8709998 16.0282809,60.8638972 16.0247296,60.8567946 L15.9880329,60.6135308 C15.9682048,60.4821328 15.9488503,60.350143 15.9300284,60.218745 C15.9146394,60.1092467 15.8992505,59.9997484 15.8850453,59.8908419 C15.8708401,59.7819355 15.8554512,59.6724372 15.8424298,59.5629389 C15.8282246,59.4528487 15.8152031,59.3433504 15.8021817,59.233852 C15.789693,59.1296807 15.7776778,59.0255093 15.7660769,58.9213379 L15.7625848,58.8947032 C15.7091969,58.4140944 15.6634444,57.9328937 15.6252088,57.4511011 L15.6044929,57.1723244 C15.598574,57.0959715 15.5932471,57.0190267 15.588512,56.9414901 C15.588512,56.9237336 15.5861445,56.9053852 15.5849607,56.8888125 L15.5654878,56.5798497 C15.5583852,56.4679839 15.5529991,56.356118 15.5470802,56.2442522 C15.5411614,56.1329782 15.5352426,56.0211124 15.5305075,55.9086546 L15.5186699,55.6156727 L15.5151186,55.5268903 L15.5062403,55.2558079 L15.4997888,55.0261574 C15.4997888,54.9344156 15.4955864,54.8420819 15.4938108,54.7503401 L15.4890757,54.4609094 C15.487892,54.3644325 15.4890757,54.2685475 15.4867082,54.1720706 C15.4837488,54.0750018 15.4867082,53.9785249 15.4867082,53.8814562 C15.4867082,29.1111622 35.5692906,9.02857979 60.3455034,9.02857979 C85.1217162,9.02857979 105.204299,29.1111622 105.204299,53.8814562 L105.204299,54.4609094 C105.204299,54.5573863 105.201931,54.6544551 105.199564,54.7503401 C105.199564,54.8308361 105.196604,54.9095565 105.194237,54.9900526 C105.194237,55.0616704 105.191277,55.1326963 105.188318,55.2019466 C105.188318,55.2925047 105.182991,55.3824709 105.180031,55.4730289 L105.180031,55.4807234 C105.172337,55.6772285 105.164051,55.8737336 105.155764,56.0702386 L105.152213,56.1353457 L105.136824,56.4289196 L105.122619,56.6615295 C105.089473,57.2125724 105.046266,57.7636152 104.993588,58.3134743 L104.993588,58.3211688 C104.984118,58.4241564 104.973464,58.5277359 104.962219,58.6307235 C104.936176,58.870436 104.909541,59.1101486 104.882906,59.3498611 L104.85272,59.5907574 L104.815432,59.8736773 C104.80241,59.9772568 104.788205,60.0802444 104.773408,60.183232 C104.757427,60.2986492 104.740263,60.4134744 104.72369,60.5282997 L104.682258,60.799382 L104.633724,61.107161 C104.617151,61.2095567 104.600578,61.3113606 104.581046,61.4137563 C104.560922,61.5155601 104.545533,61.617364 104.527777,61.7197597 C104.492264,61.9233674 104.455567,62.1263832 104.415911,62.3293989 C104.33719,62.7336549 104.254919,63.136727 104.167912,63.5392073 C104.146012,63.6392355 104.123521,63.7398556 104.100437,63.8398838 C102.837951,62.6129108 101.166474,61.9446751 99.3221676,61.9446751 C97.648915,61.9446751 95.9289037,62.4980855 94.2071167,63.5901092 C93.0641911,64.3157575 91.8017051,65.6013269 90.5013387,67.2177587 C89.2968573,65.5468737 87.6111751,64.4370935 85.6845967,64.1334576 C85.3170375,64.076045 84.9453351,64.0464509 84.5730409,64.045859 C80.1700249,64.045859 77.5177982,67.8652785 76.5175163,71.3023417 C76.0209267,72.4630239 73.6356391,77.7479451 70.0482377,81.3347547 C64.5863435,86.7788924 63.2060728,92.3911249 65.8707291,98.398735 L65.8671778,98.3957756 Z M112.176086,86.3154482 L112.158329,86.3681258 C112.1459,86.4018631 112.13347,86.4356004 112.119857,86.4687459 C112.098549,86.5190559 112.076058,86.5681822 112.052382,86.6173084 C111.99497,86.7345012 111.929863,86.8481427 111.858245,86.9570491 C111.7594,87.104428 111.651086,87.2452961 111.533301,87.3778778 C111.506074,87.4086557 111.480032,87.4388417 111.449254,87.4690277 C111.407822,87.5146027 111.363431,87.5589939 111.319631,87.6033851 C110.522365,88.3935486 109.307822,89.0854596 107.934654,89.7211417 C107.778989,89.7915757 107.621548,89.8620098 107.461739,89.9324438 L107.303115,90.0028779 C107.197168,90.0496366 107.091813,90.0963954 106.980539,90.1419703 C106.872224,90.1881372 106.763318,90.2337122 106.654411,90.2786953 L106.324141,90.4154202 C105.551734,90.7332612 104.760387,91.0357133 103.98798,91.335206 L103.658301,91.4630527 L103.331582,91.5908994 C103.114952,91.6755386 102.900691,91.7601778 102.689389,91.8448171 L102.375099,91.97148 L102.066728,92.0981429 L101.914614,92.1614744 C101.813994,92.2040899 101.714558,92.2455217 101.616305,92.2881373 C99.3446592,93.2623763 97.7110627,94.2537799 98.0543547,95.4843042 C98.0638249,95.5192253 98.0744787,95.5523707 98.0863164,95.5843324 C98.1170943,95.6754824 98.159118,95.7618972 98.2112037,95.8423933 C98.2419816,95.8909277 98.2774945,95.9365027 98.3171507,95.9779345 C98.7208147,96.3969875 99.4553412,96.3306966 100.381638,95.9980585 C100.456807,95.9708319 100.533752,95.9418296 100.611288,95.9110517 C100.664558,95.8909277 100.717235,95.8696199 100.770505,95.8483121 L100.850409,95.8145748 C101.062303,95.7246086 101.286627,95.6245804 101.516277,95.5150821 C101.57369,95.4884474 101.631694,95.4624046 101.689699,95.4316267 C102.82197,94.8782163 104.105764,94.1318521 105.379496,93.4529626 C105.574817,93.3470155 105.77073,93.2458036 105.96546,93.1451835 C106.283893,92.9800482 106.605285,92.8208318 106.929637,92.6687179 C108.135894,92.1016942 109.269349,91.6992139 110.181441,91.6992139 C110.60878,91.6992139 110.986993,91.7868126 111.301283,91.9880527 L111.353961,92.0229738 C111.513177,92.1354315 111.651678,92.2733402 111.764727,92.4319648 C111.79077,92.4692534 111.817997,92.5077258 111.84108,92.5473819 C111.865939,92.5882218 111.889614,92.6302455 111.912106,92.6728611 C112.362529,93.5275398 111.9855,94.4135883 111.103594,95.2818803 C110.25661,96.1152513 108.939079,96.9326414 107.441024,97.6896594 C107.330342,97.7458883 107.218476,97.8021172 107.106018,97.8565704 C102.648549,100.045353 96.8131766,101.693746 96.730313,101.714462 C95.174845,102.117534 92.9505496,102.64727 90.4445179,103.043239 L90.0734074,103.100652 L90.0130354,103.10953 C89.4448279,103.194761 88.8748448,103.26993 88.303678,103.335037 L88.2510004,103.340364 C87.2122461,103.458741 86.1468571,103.544564 85.0796925,103.580669 L85.0637117,103.580669 C84.6801716,103.594874 84.2972235,103.601385 83.9136835,103.601385 L83.4721389,103.601385 C82.8873587,103.593098 82.3031704,103.567055 81.7201659,103.522072 C81.7065526,103.522072 81.6923474,103.522072 81.6781422,103.519113 C81.4697995,103.503132 81.2608649,103.4836 81.053114,103.460516 C80.6956168,103.422044 80.3387115,103.374693 79.98299,103.319056 C79.8444894,103.295973 79.6965187,103.271706 79.553875,103.246847 C79.4887679,103.235009 79.4242526,103.223171 79.3597374,103.21015 L79.3443485,103.207191 C79.1389651,103.168126 78.9347656,103.124919 78.7311579,103.07816 C78.6133732,103.051525 78.4949967,103.024891 78.3783958,102.993521 L78.3085536,102.975173 C78.2505491,102.960967 78.1937284,102.945578 78.1369076,102.930189 L78.1055378,102.921903 L77.922646,102.869226 C77.8563552,102.850285 77.7906562,102.830753 77.7243653,102.811221 L77.70069,102.804118 L77.5284521,102.751441 C77.463345,102.731317 77.3988298,102.710009 77.3343146,102.689293 C77.2810451,102.671537 77.2283676,102.653188 77.1750981,102.636024 L77.0584972,102.595184 C76.9460395,102.55612 76.8347655,102.514688 76.7234916,102.472072 L76.6181364,102.431232 L76.5311297,102.396311 C76.3636268,102.328837 76.1967159,102.258403 76.0315806,102.184417 L75.9214904,102.13174 L75.903142,102.123453 C75.8640778,102.105105 75.8256054,102.086757 75.7865411,102.070184 C75.7101882,102.033487 75.6344273,101.995607 75.5592581,101.957134 L75.5367666,101.945888 L75.4278602,101.888476 C75.2343145,101.787856 75.0443201,101.680133 74.8584689,101.565308 L74.7566651,101.50316 C74.7039875,101.471198 74.656045,101.438645 74.605735,101.406091 L74.4731533,101.317901 C74.4252108,101.285939 74.3772682,101.253386 74.3305095,101.219648 L74.2452784,101.159276 C74.1553122,101.094761 74.0671217,101.029062 73.9801149,100.960996 C73.9339481,100.925483 73.8883731,100.888786 73.8427981,100.855048 C73.7415862,100.773961 73.6427417,100.690505 73.5450811,100.604682 L73.5409379,100.601131 C73.4456448,100.518859 73.3527192,100.433628 73.2621611,100.346621 L73.257426,100.340702 C73.2100754,100.295719 73.1639086,100.250736 73.1177417,100.203977 C73.0721667,100.157219 73.0259999,100.111052 72.9816087,100.064293 C72.9366256,100.016942 72.8916425,99.969 72.8478432,99.9198737 C72.8052276,99.8737069 72.7637958,99.8269481 72.722364,99.7795975 L72.7081588,99.7636167 C72.4944892,99.5156178 72.2944328,99.2557812 72.1091735,98.9852908 L72.03578,98.8769763 C71.9872456,98.8053585 71.9393031,98.7331488 71.8919525,98.6609391 L71.7522682,98.4460856 C71.6836098,98.3413224 71.616727,98.2353753 71.5516199,98.1288364 C71.5048612,98.0530755 71.4586943,97.9773145 71.4131193,97.9009616 C71.374647,97.8358545 71.3361746,97.7713393 71.2994778,97.7074159 C71.2787619,97.6724948 71.2592298,97.6369819 71.2396977,97.6014689 C71.2201655,97.5647722 71.1970821,97.5274836 71.1763662,97.4901949 L71.1432208,97.4315985 C71.131975,97.4120664 71.1284237,97.4061476 71.1225049,97.3931262 C71.0822569,97.3226921 71.0431926,97.2510743 71.0053121,97.1782727 C70.9881475,97.1469029 70.9709829,97.1149413 70.9526345,97.0835715 L70.8993651,96.9817676 L70.8466875,96.8805557 L70.7448837,96.6751724 C70.728311,96.641435 70.7123301,96.6076977 70.6963493,96.5739604 C70.6614282,96.5011588 70.6282828,96.429541 70.5951373,96.3579232 C70.5821159,96.3289209 70.5685026,96.2999187 70.556665,96.2709164 C70.51109,96.172072 70.4678825,96.0720438 70.4270426,95.9708319 C70.3992241,95.9039491 70.3737732,95.8376582 70.3465466,95.7713674 C70.2701937,95.5760461 70.1985759,95.3789491 70.1328769,95.1794846 C70.1133448,95.1202963 70.0938126,95.0616999 70.076648,95.0025117 C70.0340325,94.8681543 69.9955601,94.7326131 69.9612309,94.5958882 C69.9192072,94.4366717 69.8819186,94.2756796 69.8505488,94.1140956 C69.8304248,94.0188025 69.8126683,93.9229175 69.7978713,93.8264406 C69.7818904,93.7311475 69.7682771,93.6358543 69.7570313,93.5411531 C69.7327641,93.3523425 69.7155995,93.16294 69.7055375,92.9729456 C69.7055375,92.9415758 69.7025781,92.9096142 69.7019862,92.8782444 C69.6990268,92.8155048 69.6972512,92.7527652 69.6966593,92.6900257 C69.6635139,90.1615025 70.9437563,87.7294562 73.6800303,84.9955496 C78.5535931,80.1261301 81.3922628,72.9980859 81.3922628,72.9980859 C81.3922628,72.9980859 81.4686157,72.6991851 81.6278322,72.2694782 C81.6811016,72.1268344 81.7367386,71.9847826 81.795335,71.8445064 C81.8622178,71.6858818 81.9338356,71.5290328 82.0107803,71.3751433 L82.0332719,71.3301602 C82.1321163,71.1336552 82.2392471,70.942477 82.355848,70.7560339 C82.3824827,70.7128265 82.4085256,70.6696191 82.4393035,70.6270035 C82.5257184,70.4979731 82.6174602,70.3730858 82.7139371,70.2517498 C82.7885143,70.1588242 82.8678266,70.0688581 82.9512821,69.9836269 C83.234202,69.6924206 83.5567781,69.4544837 83.9219698,69.3272289 L83.9681367,69.3124319 C83.9989146,69.3023699 84.0291006,69.2928997 84.0604704,69.2840215 C84.0971671,69.2745514 84.1338638,69.2656731 84.1705606,69.2579787 L84.1871333,69.2550192 C84.2646699,69.2396303 84.3422066,69.2289764 84.420927,69.2236495 L84.4280296,69.2236495 C84.4688695,69.2236495 84.5097094,69.2195063 84.5517331,69.2195063 C84.6564963,69.2200982 84.7606677,69.2283845 84.8642472,69.2443654 C85.3034242,69.3136156 85.7218853,69.5752278 86.08175,69.9788919 L86.1302844,70.0357126 C86.2474772,70.1730294 86.3540161,70.3198163 86.4487174,70.4737059 C86.5197433,70.5879392 86.586626,70.7080914 86.6499575,70.8341625 C86.6754085,70.8874319 86.6996757,70.9359663 86.7239428,70.988052 C86.7357805,71.0146867 86.7476182,71.0407296 86.7588639,71.0679562 C86.7825392,71.1206337 86.8044389,71.1739032 86.8263386,71.2295402 C86.9500421,71.5467893 87.0459271,71.8741005 87.1134017,72.2079224 C87.1850195,72.568379 87.2264513,72.9341625 87.238289,73.3017217 C87.2424322,73.4633057 87.2424322,73.6266654 87.238289,73.7923926 C87.2353296,73.8551321 87.2323701,73.9184636 87.2276351,73.981795 C87.1791007,74.6855437 87.0258031,75.3780465 86.7724772,76.036812 C86.7470263,76.1019191 86.7192078,76.16821 86.6931649,76.2345009 C86.5659101,76.5387286 86.4179395,76.8334862 86.2510285,77.11759 C86.1557354,77.2797658 86.0527478,77.440758 85.9426576,77.6005663 L85.875183,77.6964513 C85.6141627,78.0610511 85.3229563,78.4031593 85.0045234,78.7192247 C84.6908255,79.0335145 84.3546361,79.3241289 83.9989146,79.5898843 C83.6420093,79.8532721 83.3075955,80.1456622 82.9986327,80.4635033 C82.1090329,81.3974943 81.9018739,82.2208032 82.1019303,82.8452395 C82.1256056,82.9156736 82.1534241,82.9849239 82.1853858,83.0518066 C82.2593711,83.1968179 82.3552561,83.3299915 82.4700814,83.4460006 L82.5014512,83.4773703 C82.5340047,83.5087401 82.5683339,83.5389261 82.603255,83.5679284 L82.638768,83.5969307 C82.7251828,83.6632215 82.8163328,83.7224098 82.9116259,83.7739036 C82.9388525,83.7887007 82.9643035,83.8034977 82.9956733,83.8177029 C83.1264794,83.88281 83.2632043,83.9348957 83.4040724,83.9745519 L83.4431366,83.9846139 L83.4958142,83.9988191 L83.5419811,84.0100648 L83.5911073,84.0207187 L83.6402336,84.0307807 L83.6869923,84.0384752 C83.7219134,84.0449859 83.7574264,84.0503129 83.7923475,84.0550479 L83.8266767,84.059783 L83.8876406,84.0662937 L83.9255211,84.069845 L83.9882607,84.0745801 L84.0243655,84.0745801 L84.0894726,84.0775395 L84.294856,84.0775395 L84.3534523,84.0745801 L84.420927,84.0704369 L84.5031987,84.0627424 L84.5801435,84.0532723 C84.5973081,84.0532723 84.6150645,84.0485372 84.632821,84.0455778 C84.9039033,84.0059217 85.167883,83.9295688 85.4176576,83.8182948 C85.470927,83.7958033 85.5236046,83.7709442 85.572139,83.7449014 C85.6763103,83.6928157 85.7775223,83.6342193 85.8745911,83.5697041 C86.0101322,83.4809216 86.1379789,83.3808934 86.2581311,83.271987 L86.3415866,83.1926747 C86.354608,83.1796533 86.3682213,83.1672238 86.3806508,83.1536105 C86.4623307,83.0719306 86.5392754,82.9855158 86.6108932,82.8949577 C86.7375561,82.7351493 86.8500139,82.565279 86.9476745,82.3865304 C88.1059891,80.2806115 89.3199407,78.2054705 90.5883455,76.1658425 L90.762359,75.8870657 L90.9381482,75.607697 C91.0263387,75.4668289 91.1145292,75.3271446 91.2027198,75.1892359 L91.2920941,75.0501435 L91.4702508,74.7725504 C91.7093714,74.4026237 91.9490839,74.0368401 92.1905721,73.6746079 L92.3710964,73.4047093 C92.7333286,72.8684636 93.094969,72.346423 93.4524662,71.8498333 L93.6312148,71.6047938 C94.0200818,71.0673643 94.4255215,70.5423643 94.8463501,70.0297938 L95.0138529,69.8297374 C95.0410795,69.7960001 95.0665305,69.7634465 95.0967165,69.730893 L95.260668,69.5408986 C95.2878947,69.5095288 95.3139375,69.4787509 95.3423479,69.4485649 L95.5009725,69.2692244 L95.5808766,69.1828095 C95.6578214,69.0993541 95.7359499,69.0170824 95.8152622,68.9354025 C95.8685317,68.882725 95.9176579,68.8294555 95.9691517,68.7803293 C96.2692363,68.4731421 96.6000988,68.1979166 96.9570041,67.9593879 L97.0392758,67.9067103 L97.1227312,67.8534408 C97.1760007,67.8202954 97.229862,67.7883337 97.2849071,67.7581477 C98.684118,66.9644329 99.8430245,66.9058365 100.509484,67.5722965 C100.91374,67.9765525 101.13688,68.6459719 101.125043,69.5770035 C101.125043,69.6184353 101.125043,69.6592752 101.121491,69.7018907 L101.121491,69.7480576 C101.121491,69.7900813 101.11794,69.8332887 101.114981,69.8764962 C101.114981,69.9291737 101.10847,69.9824432 101.103143,70.0351207 C101.097816,70.0883902 101.095448,70.1286382 101.090121,70.175397 C101.090121,70.1890103 101.087162,70.2026236 101.085386,70.2162369 C101.081243,70.2576687 101.075916,70.2996923 101.070589,70.3411241 C101.070589,70.3541455 101.070589,70.3665751 101.065262,70.3795965 C101.059344,70.4358254 101.051057,70.4920542 101.040995,70.5476912 C101.034484,70.599185 101.026198,70.6506788 101.016136,70.7021726 C101.011993,70.7317668 101.006074,70.760769 101.001339,70.7903631 C100.98595,70.8744105 100.965826,70.957866 100.941559,71.0395458 C100.895984,71.1922516 100.840347,71.3419979 100.774648,71.4876011 C100.746238,71.5509325 100.716052,71.614264 100.685274,71.6764117 C100.62135,71.8048502 100.549141,71.9362482 100.469828,72.0723812 C100.430172,72.139264 100.389332,72.2085143 100.345533,72.2777646 L100.279242,72.3831197 C100.211767,72.4890667 100.141333,72.5961975 100.06794,72.704512 C99.9945464,72.8128266 99.915826,72.9235087 99.8311868,73.0353745 C99.7216885,73.184529 99.6062714,73.3366428 99.4843435,73.4905323 L99.3920098,73.6071333 C99.1309895,73.9320769 98.8634585,74.2516936 98.5900086,74.5659833 L98.3727877,74.8116147 L98.2621056,74.9359101 C98.1111755,75.1045967 97.9596535,75.2720995 97.8069477,75.4384185 L97.6897549,75.5650815 C97.6122183,75.6491288 97.5311304,75.7343599 97.4535937,75.8189992 C97.3742814,75.9048222 97.2937854,75.9900533 97.2132893,76.0752844 L96.9694336,76.3321615 L96.7226185,76.5896305 C96.6403468,76.6754535 96.5574832,76.7624603 96.4740277,76.8482833 L95.9715193,77.3661807 C93.5714346,79.8278212 91.0423195,82.2811753 90.1864571,83.8117841 C90.1296363,83.9118123 90.0781425,84.014208 90.0313838,84.1189713 C89.9100478,84.3971562 89.8591459,84.635093 89.8934751,84.8274549 C89.9047209,84.8907864 89.9272124,84.9517503 89.959766,85.0067954 C90.0083003,85.0902509 90.0668967,85.1671957 90.1343714,85.2358541 C90.1657412,85.266632 90.1982947,85.2956342 90.2338077,85.3216771 C90.4095969,85.4471562 90.6226747,85.5116714 90.8387119,85.5051607 L90.9061865,85.5051607 L90.9754368,85.5004257 L91.045279,85.4921393 L91.1026916,85.4838529 C91.1103861,85.4832611 91.1180805,85.4814854 91.125775,85.4797098 L91.1784526,85.4696477 L91.1926578,85.4660965 L91.2506623,85.4536669 L91.3335259,85.4323591 L91.4075112,85.4104595 C91.4560456,85.3956624 91.50458,85.3790897 91.5542981,85.3607413 C91.6614289,85.3228608 91.7661922,85.2790615 91.8685879,85.2299352 C91.8946307,85.2175057 91.9212655,85.205668 91.9467164,85.1920547 L92.0254368,85.1529905 C92.1284244,85.1009048 92.2308201,85.0446759 92.3338077,84.983712 C92.4160795,84.9351776 92.4977593,84.8854595 92.5794391,84.8327819 L92.6587514,84.7801043 C92.6847942,84.7635316 92.711429,84.746367 92.7374718,84.7268349 L92.8161922,84.6741573 L92.857624,84.645155 L92.9712655,84.5658428 C93.0772125,84.4924493 93.1760569,84.4172802 93.276677,84.3409273 L93.2855552,84.3344166 L93.4441798,84.211305 C93.6614008,84.039659 93.8679679,83.8668292 94.054411,83.7040614 L94.1787063,83.5945631 L94.190544,83.5839092 L94.2550592,83.5264966 C94.407765,83.3897717 94.543898,83.261925 94.6575395,83.155978 L94.7037064,83.1109949 L94.8155722,83.0050479 L94.882455,82.9399408 L94.9055384,82.9162655 L94.9120491,82.9097548 C94.9688698,82.852934 94.9688698,82.852934 95.0256906,82.7955214 L95.0304257,82.7907863 L95.0517334,82.7718461 C95.0582441,82.7647435 95.0671224,82.7576409 95.0771844,82.7487626 L95.0854707,82.7410682 L95.1079623,82.7209442 L95.2281145,82.6149971 L95.2955891,82.5540332 C95.3287346,82.5256228 95.3648394,82.4930693 95.4015361,82.4581482 L95.4826241,82.3871223 C95.4968293,82.3752846 95.5110345,82.3616713 95.5258315,82.3486499 L95.6104708,82.2746646 L95.735358,82.1657581 L95.801057,82.1083455 C96.058526,81.8840219 96.3722239,81.6135315 96.7314967,81.3087119 L96.8788755,81.1844165 L97.1227312,80.9802169 L97.371322,80.7718742 C97.6968575,80.5019757 98.0472521,80.2149125 98.4177707,79.9166036 L98.6610346,79.7212823 C98.8681935,79.5567389 99.0812713,79.3880523 99.2967167,79.2187738 C99.3831315,79.1507073 99.4713221,79.0826408 99.5612883,79.0151661 C99.7820605,78.8447039 100.004017,78.6748335 100.226564,78.5073307 C100.7344,78.1237907 101.258216,77.7396588 101.787951,77.364997 L102.015826,77.2069643 C102.174451,77.0968741 102.333075,76.9873758 102.492292,76.880245 L102.636119,76.7825843 C102.920815,76.5908143 103.207878,76.4031875 103.497309,76.2197038 L103.641136,76.1291457 L103.78378,76.0403633 C103.926424,75.9521728 104.069067,75.8645741 104.209936,75.7799349 L104.351396,75.6958876 L104.634907,75.5307523 C104.727833,75.4768909 104.820167,75.4242134 104.9125,75.3721277 L104.968137,75.3407579 L105.188318,75.2206057 C105.279468,75.1708875 105.37121,75.122945 105.461768,75.0761863 L105.597901,75.0063441 L105.729299,74.9394614 C106.029975,74.7885313 106.335978,74.6488469 106.647309,74.5210003 C106.689924,74.5032438 106.731948,74.4860792 106.773972,74.4677308 C106.857427,74.4328097 106.940291,74.4008481 107.022562,74.3724377 C107.104834,74.3446192 107.185922,74.3156169 107.265826,74.2872066 C107.338628,74.2629394 107.409062,74.2404478 107.47772,74.21914 L107.500804,74.2120374 C107.5375,74.2007917 107.574197,74.1901378 107.610894,74.1806677 L107.621548,74.1777082 C107.696125,74.1564005 107.770702,74.1368683 107.845871,74.1191119 L107.85179,74.1191119 C107.962472,74.0924771 108.070195,74.0699856 108.17555,74.0522291 C108.211655,74.0463103 108.247168,74.0403914 108.281497,74.0356564 C108.383893,74.0202674 108.48688,74.0096135 108.589868,74.0025109 C108.654975,73.9977759 108.720674,73.9960002 108.785781,73.9960002 L108.835499,73.9960002 C108.90179,73.9960002 108.965714,74.0001434 109.029045,74.0066541 C109.058047,74.0066541 109.08705,74.0119811 109.11546,74.0161242 L109.127298,74.0161242 C109.155708,74.0190837 109.18471,74.0238187 109.212529,74.0297376 C109.240347,74.0356564 109.268758,74.0397996 109.295984,74.0463103 L109.305454,74.0463103 C109.332681,74.0522291 109.358132,74.0599236 109.386542,74.0676181 C109.612641,74.128582 109.820392,74.2434072 109.99263,74.4020318 L110.008019,74.4174208 L110.038205,74.4470149 L110.067799,74.4783847 C110.305144,74.7281592 110.501649,75.0140386 110.64962,75.3253689 L110.672704,75.3780465 C110.723014,75.4964231 110.76267,75.6189428 110.790488,75.7444219 C110.867433,76.0942247 110.846717,76.4588244 110.730116,76.7973814 C110.679806,76.9447602 110.61825,77.0879958 110.545449,77.2253126 L110.496914,77.3129113 C110.312247,77.622466 110.094434,77.9107129 109.846435,78.1723251 L109.793166,78.2285539 C109.676565,78.3522574 109.555229,78.4724096 109.430342,78.5878268 C109.390685,78.6251154 109.349846,78.662404 109.308414,78.6996926 L109.245674,78.7565134 C109.11546,78.8719305 108.982286,78.9843882 108.847337,79.0944784 C108.823662,79.1134187 108.799395,79.1323589 108.776311,79.1524829 C108.682202,79.2282439 108.585133,79.3051887 108.484513,79.3821334 C108.13767,79.6472969 107.784316,79.9029903 107.424451,80.1498054 C107.212557,80.2948167 106.99356,80.4410117 106.767461,80.5895743 C106.34604,80.8659836 105.921661,81.136474 105.493137,81.4016375 C105.369434,81.4779903 105.245139,81.555527 105.118476,81.6324717 C103.954242,82.3486499 102.663346,83.1145462 101.286627,83.9473253 L100.930313,84.1639544 C100.540262,84.4018912 100.172111,84.6291742 99.8258599,84.8452114 L99.6512544,84.9553016 L99.3209839,85.1671957 C99.1901778,85.2500592 99.062923,85.3317391 98.9392195,85.4122351 C98.845702,85.4720153 98.754552,85.5312036 98.6651777,85.5897999 L98.4887967,85.705809 C98.4029737,85.7620378 98.3177426,85.8182667 98.2325114,85.8756793 L98.1496479,85.9283569 C98.0620492,85.9869533 97.9768181,86.0443659 97.8939545,86.1011867 L97.7584133,86.1935204 L97.5991969,86.3042025 L97.4524099,86.4065982 C97.2203919,86.5693659 96.9913333,86.735685 96.7640503,86.9049635 L96.684738,86.9653355 C96.5953637,87.0328101 96.5089488,87.1002848 96.4254933,87.1659838 L96.3165869,87.2529905 C96.1331033,87.4003693 95.9667842,87.5418293 95.816446,87.6767786 L95.7430525,87.7442532 C95.7010288,87.7827256 95.659597,87.821198 95.6205328,87.8590785 C95.5927143,87.8851213 95.5672633,87.9117561 95.5394448,87.9377989 L95.5009725,87.9756794 C95.4163332,88.0603186 95.3340615,88.1473254 95.2541573,88.2366997 L95.2150931,88.2816828 C95.1280863,88.3823029 95.0523253,88.4787798 94.9854426,88.5728891 L94.9558484,88.6155047 C94.8789037,88.7279624 94.8108371,88.8469308 94.7528326,88.9706343 L94.7327086,89.0138418 L94.7202791,89.0440278 L94.7102171,89.0700706 L94.6966038,89.1061755 C94.6924606,89.118605 94.6841742,89.1405047 94.6794392,89.1594449 C94.655172,89.229879 94.6374155,89.3026806 94.6255778,89.3766659 L94.619659,89.4163221 L94.6149239,89.4524269 L94.6119645,89.487348 L94.6119645,89.6731992 C94.6119645,89.6885881 94.6119645,89.704569 94.6155158,89.7205498 C94.6161077,89.7300199 94.6172915,89.7394901 94.6184752,89.7489602 C94.6184752,89.7643491 94.6226184,89.7797381 94.6243941,89.7957189 L94.6356398,89.860826 L94.6356398,89.8637854 C94.639783,89.8845013 94.6439262,89.9052172 94.6492531,89.9259331 C94.6545801,89.946649 94.659907,89.9697325 94.6664177,89.9916321 C94.685358,90.0585149 94.7084414,90.1248057 94.7350761,90.189321 C94.7350761,90.194056 94.7392193,90.199383 94.740995,90.204118 C94.7480976,90.2200989 94.7546083,90.2366716 94.7623028,90.2526524 C94.791305,90.3201271 94.8238586,90.385826 94.8593715,90.4503413 L94.8966601,90.517224 L94.9357244,90.5846987 L94.9765643,90.6521733 C94.9836669,90.6634191 94.9913614,90.6734811 95.0002396,90.6835431 L95.0138529,90.6977483 L95.0280581,90.7107697 L95.044039,90.7231992 C95.0546928,90.7308937 95.0659386,90.7374044 95.0777763,90.7439151 C95.0896139,90.7492421 95.1026353,90.7551609 95.1156568,90.759896 C95.129862,90.764631 95.1440671,90.7687742 95.1582723,90.7723255 C95.4997887,90.8492703 96.2017617,90.5663503 97.133977,90.0739038 L97.3014798,89.9851214 L97.5849917,89.83064 L97.7240841,89.7536952 C97.8223367,89.7004258 97.9235486,89.6412375 98.0259444,89.5826411 L98.2135712,89.4766941 C99.446463,88.7670267 100.919659,87.8549353 102.441982,86.9647436 C102.584034,86.8812882 102.727269,86.7984246 102.870505,86.715561 L103.15816,86.5320773 C103.301987,86.4492137 103.445223,86.3675339 103.589051,86.2870379 C104.201057,85.9390108 104.82135,85.604597 105.448154,85.2843884 L105.729299,85.1417447 C105.916334,85.049411 106.101593,84.9594448 106.284485,84.8718461 C106.639022,84.7037514 106.997112,84.544535 107.358752,84.3936049 L107.557033,84.3131088 L107.5813,84.3036387 C108.6313,83.8875451 109.583639,83.6300761 110.354271,83.6300761 C110.521182,83.6288923 110.687501,83.6425056 110.852044,83.670916 L110.856779,83.670916 C110.910049,83.6803861 110.957991,83.69104 111.006525,83.7034696 L111.015404,83.7034696 C111.08643,83.7206342 111.156272,83.7425338 111.223746,83.7697604 C111.277608,83.7892926 111.329693,83.812376 111.380003,83.8396026 C111.600776,83.9514684 111.789586,84.1166037 111.930454,84.3202114 C111.942292,84.337376 111.953538,84.3551325 111.964192,84.3734809 C112.016277,84.4527931 112.06126,84.5362486 112.097957,84.6238473 C112.119857,84.6741573 112.139981,84.726243 112.158921,84.7824719 C112.177861,84.8392926 112.194434,84.8937458 112.211599,84.9523422 C112.337078,85.4009893 112.324648,85.8756793 112.176086,86.3172239 L112.176086,86.3154482 Z" fill="#FF9D00"></path>
        <path d="M105.150437,54.1525385 L105.150437,53.8625159 C105.150437,29.0922219 85.0737737,9.00963954 60.2975609,9.00963954 C35.5272669,9.00963954 15.4387657,29.0922219 15.4387657,53.8625159 L15.4374904,53.9595847 C15.4374904,54.0240999 15.4374904,54.0880232 15.4374904,54.1525385 C15.4410149,54.2490154 15.4420211,54.3454922 15.4411332,54.4419691 L15.4446845,54.6550469 L15.4458683,54.7319917 L15.4488277,54.8373468 C15.4500115,54.8941676 15.4517871,54.9503964 15.4517871,55.0072172 L15.4577059,55.2374596 L15.4671761,55.50795 L15.4701355,55.5967324 L15.4819731,55.876693 L15.4819731,55.8897144 L15.4985459,56.2170256 L15.4985459,56.2253119 C15.5044647,56.3371778 15.5103835,56.4490436 15.5174861,56.5603176 C15.5234049,56.6638971 15.5299156,56.7668847 15.5370182,56.8698723 L15.5387939,56.8882206 C15.5440025,56.9764112 15.5499213,57.0651936 15.5565504,57.1533841 L15.558326,57.1764675 C15.5642448,57.2616987 15.5707556,57.3475217 15.5778582,57.4321609 L15.5790419,57.4487336 L15.5908796,57.5967043 C15.6263334,58.0234518 15.6677651,58.4501993 15.715175,58.875763 L15.7181344,58.9023977 L15.7536473,59.2149118 L15.7944872,59.5439986 C15.8218914,59.7629952 15.8511304,59.9814 15.8820859,60.1998047 C15.9005526,60.3317946 15.9197296,60.4631926 15.9394985,60.5945905 L15.9424579,60.6105714 C15.9866716,60.9076965 16.0343773,61.2048217 16.0856936,61.5007631 C16.2328948,62.359585 16.4057838,63.2142637 16.6041829,64.0630236 L16.6071423,64.0766369 L16.6260825,64.1565411 C16.643839,64.232302 16.6615955,64.308063 16.6805358,64.3844159 L16.7130893,64.3447598 C18.0152314,62.7881081 19.8832134,61.9298781 21.9731515,61.9298781 C23.6481797,61.9298781 25.3670073,62.4832885 27.0887943,63.5753122 C28.231128,64.3009605 29.4942059,65.5865298 30.7939804,67.2029617 C31.9966862,65.5320766 33.6823683,64.4222964 35.6107224,64.1192524 C35.9788735,64.0612479 36.3505759,64.0316538 36.7222783,64.0310619 C41.1241104,64.0310619 43.7775209,67.8510733 44.7778028,71.2875447 C45.2720249,72.4488187 47.6573124,77.7331481 51.2530003,81.3140388 C56.7190377,86.7753411 58.0892463,92.4118408 55.3819745,98.4431262 L55.3908527,98.4431262 C55.5755202,98.4632502 55.7607795,98.4821905 55.9466306,98.4993551 C56.0573127,98.510009 56.1679948,98.5206628 56.2786769,98.530133 L56.3177411,98.5336843 C56.3988291,98.5413787 56.4805089,98.5484813 56.5621887,98.5544002 L56.7871042,98.5727485 C57.0013657,98.5893212 57.2162192,98.6041183 57.4322564,98.6183235 L57.6027186,98.6283855 L57.7382598,98.63608 L57.822899,98.640815 L58.0868787,98.6550202 L58.1590884,98.6579796 L58.4372733,98.6698173 L58.7456443,98.681655 L58.994235,98.6887575 L59.0356668,98.6905332 C59.0877525,98.6923088 59.141022,98.6946764 59.1936995,98.6946764 L59.2499284,98.6958601 C59.5991392,98.7041465 59.9477582,98.7082897 60.296969,98.7082897 L60.6674876,98.7082897 L60.9326511,98.7053303 C60.9977582,98.701779 61.0622734,98.701779 61.1273805,98.701779 L61.2303681,98.701779 L61.3197424,98.7000033 C61.3546635,98.6988196 61.3901765,98.6976358 61.4250976,98.6976358 L61.5310446,98.6976358 L61.7387954,98.691717 L62.0513095,98.6810631 L62.3957853,98.666266 C62.4946297,98.6621228 62.5928823,98.6573878 62.6917267,98.6520608 L62.7976737,98.646142 L62.9545227,98.6372637 L63.0474482,98.6319368 L63.1166985,98.6277936 L63.4345396,98.6064858 C63.5404866,98.5999751 63.6464336,98.5916888 63.7523806,98.5834024 L64.0400357,98.5609109 L64.2430514,98.5437463 L64.4650075,98.5236223 C64.6928824,98.5023145 64.9201653,98.4798229 65.1462646,98.4561476 C65.290684,98.4401668 65.4339196,98.424186 65.5777471,98.4070214 L65.830481,98.3768353 C63.1676005,92.3692252 64.5460954,86.7581765 69.9902332,81.3187739 C73.5782265,77.7337399 75.9623303,72.4464511 76.4595118,71.2863609 C77.4615694,67.8504814 80.1102448,64.0298781 84.5150363,64.0298781 C84.8873306,64.03047 85.259033,64.0594723 85.6265922,64.1180687 C87.5531706,64.4211127 89.2394446,65.5314847 90.4439261,67.2017779 C91.7442925,65.5853461 93.0067785,64.2997767 94.1491122,63.5741284 C95.8708992,62.4821047 97.5909105,61.9286943 99.2641631,61.9286943 C101.10847,61.9286943 102.780539,62.5975218 104.043025,63.8239029 C104.112275,63.5149401 104.179158,63.2059773 104.243081,62.8958308 C104.282145,62.7022851 104.320618,62.5081475 104.358498,62.3134181 C104.404665,62.0742975 104.448464,61.8339931 104.488712,61.5936887 C104.499366,61.5285816 104.510612,61.4634744 104.523042,61.3977755 C104.542574,61.2953797 104.559738,61.1941678 104.575719,61.0911802 L104.58223,61.0521159 L104.624253,60.783993 L104.665685,60.5123188 L104.666277,60.5093594 C104.68285,60.3957179 104.700014,60.2814846 104.715403,60.1672512 C104.727833,60.0808363 104.739671,59.9944214 104.750916,59.9074146 L104.758019,59.8576965 L104.794716,59.5747765 L104.824902,59.3338802 C104.84325,59.1752557 104.861007,59.0166311 104.878171,58.8574146 C104.885866,58.7940832 104.892376,58.7301598 104.898887,58.6662365 L104.904806,58.6147427 C104.916052,58.5087957 104.926114,58.4034405 104.935584,58.2974935 L104.959259,58.0512703 C105.008385,57.5055544 105.048042,56.9598384 105.078819,56.4129388 L105.078819,56.4093875 L105.0948,56.1193649 L105.09776,56.0542578 L105.109597,55.7790323 C105.114332,55.6754528 105.118476,55.5706896 105.122027,55.4647426 L105.122027,55.4570481 L105.124986,55.3806952 C105.127946,55.3155881 105.130313,55.250481 105.130313,55.1859658 L105.131497,55.1593311 C105.133865,55.098959 105.136232,55.0362194 105.136232,54.9740717 L105.138008,54.9208023 C105.139783,54.8586546 105.141559,54.7970988 105.141559,54.7349511 L105.142743,54.6822735 C105.144518,54.6029613 105.146294,54.5242408 105.146294,54.4449286 L105.150437,54.1525385 Z M49.1760836,98.963983 C52.7279721,93.7542309 52.476422,89.8430695 47.6022673,84.9718743 C42.7281127,80.1006791 39.8900348,72.9744106 39.8900348,72.9744106 C39.8900348,72.9744106 38.8311566,68.8359662 36.4162749,69.2165469 C34.0013932,69.5965356 32.229888,75.7805268 37.2857507,79.5626577 C42.3416133,83.347748 36.2801418,85.9135598 34.3340313,82.3622632 C32.3873288,78.8097828 27.0775485,69.6782154 24.3193748,67.9321612 C21.5647524,66.1855152 19.6275201,67.1644893 20.2768155,70.7643203 C20.5993916,72.5512144 23.5990535,75.6005944 26.4028021,78.4469587 C29.246207,81.338306 31.886596,84.0224944 31.3225317,84.9695068 C30.2020977,86.8564291 26.2560152,82.7529058 26.2560152,82.7529058 C26.2560152,82.7529058 13.897503,71.5071332 11.2103552,74.4369529 C8.73095826,77.137714 12.554521,79.4336273 18.4490815,82.9719025 C18.9504062,83.2731708 19.466528,83.5833174 19.9950793,83.9029341 C26.736624,87.9845576 27.2633997,89.0611924 26.3045496,90.603047 C25.9511956,91.173622 23.6943466,89.8188023 20.9184164,88.1520605 C16.1863136,85.3110232 9.94490982,81.5644052 9.06300449,84.918013 C8.3000676,87.8200142 12.8907104,89.5980301 17.0534219,91.2097269 C20.5218549,92.5533007 23.6943466,93.7820494 23.2267592,95.449975 C22.743191,97.1788646 20.1217422,95.7370382 17.254662,94.1602625 C14.0377792,92.3899411 10.5131173,90.4503413 9.35894588,92.6391237 C7.17844975,96.7763843 24.3986871,101.64758 24.5407389,101.683092 C30.104437,103.126103 44.2326787,106.183769 49.1748999,98.9468184 L49.1760836,98.963983 Z M72.0582716,98.963983 C68.5057912,93.7542309 68.7579332,89.8430695 73.6320878,84.9718743 C78.5062425,80.1006791 81.3443203,72.9744106 81.3443203,72.9744106 C81.3443203,72.9744106 82.4026067,68.8359662 84.8174884,69.2165469 C87.2323701,69.5965356 89.0044672,75.7805268 83.9480127,79.5626577 C78.8915581,83.3447886 84.9536215,85.9135598 86.9003239,82.3622632 C88.8464345,78.8097828 94.1568067,69.6782154 96.9090616,67.9321612 C99.6613164,66.1861071 101.601508,67.1644893 100.952213,70.7643203 C100.629637,72.5512144 97.6299748,75.6011863 94.8262261,78.4528775 C91.9834131,81.343633 89.3430241,84.0278213 89.9070884,84.9754256 C91.0269306,86.8623479 94.9765643,82.7564571 94.9765643,82.7564571 C94.9765643,82.7564571 107.335077,71.5106845 110.022224,74.4405042 C112.501621,77.1412653 108.677467,79.4377704 102.783498,82.9754538 C102.282173,83.2761302 101.766643,83.5856849 101.238092,83.9058935 C94.4965474,87.9869252 93.9697717,89.0641518 94.9286218,90.6060064 C95.2819758,91.1765814 97.5388248,89.8217618 100.314163,88.1556118 C105.046858,85.3145745 111.28767,81.5679565 112.169575,84.9209724 C112.932512,87.8229736 108.341869,89.6015814 104.179158,91.2126863 C100.710725,92.5562602 97.538233,93.7844169 98.0058203,95.4529344 C98.4893886,97.181824 101.109654,95.7394057 103.971999,94.16263 C107.188882,92.3923086 110.713543,90.4521169 111.867715,92.6414913 C114.048211,96.7817113 96.8279736,101.649947 96.6859218,101.68546 C91.1222237,103.132613 76.993982,106.19028 72.0576797,98.9533291 L72.0582716,98.963983 Z" fill="#FFD21E"></path>
        <path d="M74.9052277,41.6519743 C75.6042412,41.8993813 76.1245062,42.6528481 76.6193202,43.3690263 C77.2881477,44.3379384 77.9108084,45.2387839 78.8661072,44.7309485 C79.9936439,44.1319632 80.9175729,43.2121773 81.5218852,42.0876001 C82.1261975,40.9630228 82.3830746,39.6851479 82.2605549,38.4143756 C82.1694049,37.4644037 81.8687285,36.5463936 81.3798333,35.7266359 C80.8909381,34.9068783 80.2262538,34.2054972 79.4343146,33.6733946 C78.6417836,33.1414104 77.740938,32.7920811 76.7974769,32.6500293 C75.8534239,32.5080366 74.8898387,32.5772277 73.9759717,32.8525124 C72.7537338,33.2206043 71.6682208,33.9427604 70.8561576,34.9276534 C70.0446864,35.9125463 69.5427698,37.115844 69.4143312,38.3854325 C69.2864845,39.6556129 69.5380347,40.9352635 70.1370201,42.0622083 C70.5797484,42.8949874 71.5622738,42.5025691 72.5992524,42.0876593 C73.4124993,41.7627156 74.2588917,41.4241587 74.9052277,41.6520335 L74.9052277,41.6519743 Z M44.4942909,41.6525662 C43.7952774,41.8999732 43.2744205,42.65344 42.7796065,43.3696181 C42.110779,44.3379384 41.4881183,45.2393758 40.5328195,44.7315404 C39.6905703,44.2834851 38.9584114,43.6537219 38.3884283,42.8884175 C37.8184451,42.123113 37.425435,41.2412077 37.2372163,40.305441 C37.0489975,39.3702663 37.0703053,38.4043136 37.2999558,37.4786089 C37.5301982,36.5523124 37.9622727,35.6887554 38.5654012,34.9494938 C39.1697135,34.2108242 39.929691,33.6153901 40.7914723,33.2052153 C41.6532536,32.7950406 42.595531,32.5819628 43.549646,32.57958 C44.503761,32.5775236 45.4466303,32.786991 46.3101873,33.1927858 C47.1737442,33.5987582 47.9366811,34.191292 48.5439528,34.9270023 C49.356016,35.9118952 49.8579326,37.1151929 49.9863711,38.3853733 C50.1142178,39.6555538 49.8626676,40.9352043 49.2630904,42.0621491 C48.8191783,42.8949282 47.8366529,42.501918 46.7996743,42.0870082 C45.9870193,41.7620645 45.1406269,41.4235076 44.4942909,41.6519743 L44.4942909,41.6525662 Z M70.1997597,69.3230858 C75.0194611,65.5255659 76.7874149,59.3261858 76.7874149,55.5085419 C76.7874149,52.4899398 74.7560732,53.4399116 71.5048612,55.0492409 L71.3219694,55.1403908 C68.3371046,56.6183221 64.361428,58.5857404 60.0051708,58.5857404 C55.6435867,58.5857404 51.6714614,56.6177302 48.6883722,55.1397989 C45.331805,53.4772002 43.226478,52.4343028 43.226478,55.5091338 C43.226478,59.4481136 45.109849,65.9144329 50.2817206,69.6728885 C50.9635696,68.2878828 51.9236035,67.0585423 53.1026339,66.0618117 C54.2810725,65.0650811 55.6530568,64.3228601 57.1321718,63.8807237 C57.6482936,63.7268342 58.1798043,64.6152502 58.7243365,65.5243821 C59.2493365,66.4021443 59.7855823,67.2994386 60.3318901,67.2994386 C60.913119,67.2994386 61.4848777,66.4151657 62.0430232,65.5516087 C62.6260277,64.6495794 63.1942352,63.7700416 63.7440943,63.9458308 C66.5117381,64.8342468 68.8265916,66.7608252 70.2015353,69.3213101 L70.1997597,69.3230858 Z" fill="#32343D"></path>
        <path d="M70.1701655,69.3402504 C67.6599907,71.3183226 64.3235475,72.6447319 59.9779442,72.6447319 C55.8957287,72.6447319 52.7037049,71.4739877 50.2533103,69.6918287 C50.9357511,68.3074149 51.8963768,67.0780744 53.0748154,66.0819357 C54.253254,65.0852051 55.6252383,64.3423922 57.1037615,63.8996639 C58.1176567,63.5972118 59.191332,67.3183788 60.3028878,67.3183788 C61.4931641,67.3183788 62.639641,63.6208871 63.7156839,63.964771 C66.482144,64.853779 68.7964056,66.7803574 70.1731249,69.3402504 L70.1701655,69.3402504 Z" fill="#FF323D"></path>
        <path d="M32.9584957,47.0262699 C32.5004968,47.3346408 31.9860323,47.5494943 31.4450515,47.6584007 C30.9038339,47.7673071 30.346517,47.7684909 29.8049443,47.661952 C29.2633124,47.5548212 28.7478417,47.3423353 28.2885407,47.0363319 C27.8292396,46.7297366 27.4350457,46.3361346 27.1284504,45.8768336 C26.8216776,45.4181244 26.6085406,44.9025945 26.5010547,44.3616137 C26.3937463,43.8200409 26.3943382,43.2624874 26.5028303,42.7209146 C26.6113224,42.1799338 26.8256432,41.6655876 27.1331855,41.2068785 C27.4409645,40.7486429 27.8363422,40.3557511 28.2962351,40.0503396 C29.2213479,39.4365571 30.3524359,39.2140092 31.4409083,39.432414 C32.5293807,39.6508187 33.4876389,40.2918277 34.1043808,41.214573 C34.7211226,42.1379101 34.9472218,43.2678143 34.7323684,44.3568786 C34.5175149,45.4465348 33.8794653,46.4065686 32.9584957,47.0262699 L32.9584957,47.0262699 Z M92.9754087,47.0262699 C92.5172914,47.3346408 92.0029453,47.5494943 91.4619644,47.6584007 C90.9209836,47.7673071 90.36343,47.7684909 89.8218573,47.661952 C89.2802845,47.5548212 88.7647546,47.3423353 88.3054536,47.0363319 C87.8461526,46.7297366 87.4519587,46.3361346 87.1453634,45.8768336 C86.8381762,45.4181244 86.6250984,44.9025945 86.5179676,44.3616137 C86.4108369,43.8200409 86.4114287,43.2624874 86.5197433,42.7209146 C86.6280578,42.1799338 86.8423194,41.6655876 87.1500984,41.2068785 C87.4578775,40.7486429 87.8532552,40.3557511 88.3131481,40.0503396 C89.2382609,39.4365571 90.3693488,39.2140092 91.4578212,39.432414 C92.5462937,39.6508187 93.50396,40.2918277 94.1212937,41.214573 C94.7380356,42.1379101 94.9641348,43.2678143 94.7492813,44.3568786 C94.5344279,45.4465348 93.8963783,46.4065686 92.9754087,47.0262699 L92.9754087,47.0262699 Z" fill="#FFAD03"></path>
    </g>
</svg>
