<?xml version="1.0" encoding="UTF-8" standalone="no"?>
<svg width="256px" height="194px" viewBox="0 0 256 194" version="1.1" xmlns="http://www.w3.org/2000/svg" xmlns:xlink="http://www.w3.org/1999/xlink" preserveAspectRatio="xMidYMid">
	<g>
		<g transform="translate(98.653659, 132.995122)">
			<path d="M5.30731707,0.936585341 C5.30731707,0.936585341 16.2341463,24.3512198 15.297561,29.6585369 C14.3609756,34.965854 21.2238289,8.28801161 26.5365854,4.68292684 C35.2780488,-1.24878054 5.30731707,0.936585341 5.30731707,0.936585341 L5.30731707,0.936585341 Z" fill="#3458D0"></path>
			<g transform="translate(14.207180, 32.932534) rotate(5.000000) translate(-14.207180, -32.932534) translate(2.968156, 4.522778)">
				<path d="M0.98861789,21.2360552 C0.624390256,27.4086956 -0.611034671,51.7361607 1.35284545,55.0040292 C3.31672557,58.2718977 5.35934965,55.0040299 5.35934967,53.1885474 C5.35934967,51.3730649 3.5382113,0.539554613 3.5382113,0.539554613 C3.5382113,0.539554613 1.35284552,15.0634146 0.98861789,21.2360552 L0.98861789,21.2360552 Z" fill="#3458D0"></path>
				<path d="M4.26666666,36.1230117 C4.26666666,36.1230117 3.52794444,48.7606067 5.35934955,50.6468717 C7.19075465,52.5331367 10.0460327,51.0099682 9.36585378,44.8373277 C8.6856749,38.6646871 3.43414634,0.312195122 3.43414634,0.312195122 L4.26666666,36.1230117 L4.26666666,36.1230117 Z" fill="#FF686C"></path>
				<path d="M5.75121478,19.1242836 C5.75121478,19.1242836 7.75708578,43.8293536 10.1072233,45.9936295 C12.4573608,48.1579054 15.2061253,45.6277857 13.751866,40.907863 C12.6788466,37.425287 4.96838742,7.27841036 4.96838742,7.27841036 L4.71867931,6.29704741 C4.29050164,4.61429176 3.43414627,1.2487805 3.43414627,1.2487805 L5.75121478,19.1242836 L5.75121478,19.1242836 Z" fill="#F49CB1"></path>
				<path d="M10.6894551,29.5683632 C10.6894551,29.5683632 13.0856727,37.8945749 14.6393948,39.2412203 C16.193117,40.5878657 19.799324,39.8474 17.2173627,34.2048339 C14.6354013,28.5622679 2.09810483,2.07389773 2.09810483,2.07389773 L10.6894551,29.5683632 L10.6894551,29.5683632 Z" fill="#009EE5" transform="translate(10.110209, 20.947048) rotate(4.000000) translate(-10.110209, -20.947048) "></path>
				<path d="M7.99067479,14.265885 C7.99067479,14.265885 14.387928,30.4438899 16.8833129,32.4389564 C19.3786979,34.4340229 22.65662,31.5665403 19.4394865,28.2042934 C16.222353,24.8420465 2.14121687,1.65752199 2.14121687,1.65752199 L7.99067479,14.265885 L7.99067479,14.265885 Z" fill="#009EE5" transform="translate(11.459531, 17.377276) rotate(5.000000) translate(-11.459531, -17.377276) "></path>
			</g>
		</g>
		<path d="M118.307901,40.3625357 L109.892683,34.7523902 L128.62439,12.8 L128.618498,13.0071622 C134.832876,5.14016031 145.103637,0 156.721951,0 C173.093744,0 186.789743,14.4227004 190.230448,25.5974744 C197.669861,24.9395929 206.201759,24.715995 214.790244,25.6 C239.055111,28.097561 255.687809,31.9421026 255.687809,31.9421026 C255.687809,31.9421026 214.659923,29.7380188 190.590751,34.2804884 C188.235187,44.0863438 177.320349,57.0937282 163.380575,60.4000487 C164.705769,66.7744437 165.703673,75.021809 164.839024,83.6682927 C162.965854,102.4 164.839024,98.9658537 152.97561,115.2 C141.112195,131.434146 116.615041,145.338657 107.915095,139.522668 C99.215149,133.706679 91.853656,92.3485365 93.192109,86.2094373 C94.3701504,80.8061003 113.693153,48.1197493 118.307901,40.3625357 L118.307901,40.3625357 Z" fill="#3458D0"></path>
		<g transform="translate(18.107317, 7.492683)">
			<path d="M107.361414,31.6419221 C107.361414,31.6419221 40.5516578,-6.75807794 6.52238954,1.04680013 C-0.505816703,2.65877405 -1.38151954,7.01407201 1.6536745,12.9107528 C3.09002967,15.7012591 9.53732689,16.9391742 12.4878049,20.2926829 C15.0201372,23.170928 13.8875548,28.1074048 17.2100521,31.2260093 C19.7156304,33.5778268 26.2290342,33.4942698 29.0341463,35.902439 C32.4801064,38.8607718 32.2776245,44.316383 35.9589801,47.2435985 C58.2641092,64.9794354 82.6979996,80.9687515 82.6979996,80.9687515 L107.361414,31.6419221 L107.361414,31.6419221 Z" fill="#3458D0"></path>
			<path d="M25.7131107,0.591370248 C18.7170429,-0.271175714 12.1685052,-0.248180508 6.52238954,1.04680013 C-0.505816703,2.65877405 -1.38151954,7.01407201 1.6536745,12.9107528 C3.09002967,15.7012591 9.53732689,16.9391742 12.4878049,20.2926829 C15.0201372,23.170928 13.8875548,28.1074048 17.2100521,31.2260093 C19.7156304,33.5778268 26.2290342,33.4942698 29.0341463,35.902439 C32.4801064,38.8607718 32.2776245,44.316383 35.9589801,47.2435985 C53.2732235,61.0109518 70.3855554,69.1447552 77.1766366,72.0954337 C72.5822589,65.8109971 64.831709,56.7966371 52.8175167,47.2435985 C49.1361611,44.316383 49.338643,38.8607718 45.8926829,35.902439 C43.0875708,33.4942698 36.574167,33.5778268 34.0685887,31.2260093 C30.7460914,28.1074048 31.8786738,23.170928 29.3463415,20.2926829 C26.3958635,16.9391742 19.9485663,15.7012591 18.5122111,12.9107528 C15.477017,7.01407201 16.3527199,2.65877405 23.3809261,1.04680013 C24.1422836,0.872176865 24.9200503,0.720682752 25.7131107,0.591370248 L25.7131107,0.591370248 Z" fill="#FF686C"></path>
			<path d="M36.5427668,2.45161042 C31.9052945,1.35791723 27.4581551,0.59430122 23.4146344,0.312195126 C16.1428817,-0.195136452 15.477017,7.01407201 18.5122111,12.9107528 C19.9485663,15.7012591 26.3958635,16.9391742 29.3463415,20.2926829 C31.8786738,23.170928 30.7460914,28.1074048 34.0685887,31.2260093 C36.574167,33.5778268 43.0875708,33.4942698 45.8926829,35.902439 C49.338643,38.8607718 49.1361611,44.316383 52.8175167,47.2435985 C75.1226455,64.9794354 83.6682927,63.6878049 83.6682927,63.6878049 L84.5215444,60.7725289 C80.5288354,56.5723338 75.6251598,51.9740072 69.6760532,47.2435985 C65.9946977,44.316383 66.1971793,38.8607718 62.7512195,35.902439 C59.9461074,33.4942698 53.4327036,33.5778268 50.9271253,31.2260093 C47.604628,28.1074048 48.7372104,23.170928 46.204878,20.2926829 C43.2544001,16.9391742 36.8071029,15.7012591 35.3707477,12.9107528 C32.9868634,8.27941632 33.015515,4.59892099 36.5427668,2.45161042 L36.5427668,2.45161042 Z" fill="#F49CB1"></path>
		</g>
		<g transform="translate(0.000000, 48.078049)">
			<path d="M109.019958,30.9073171 C109.019958,30.9073171 85.5414634,44.9560976 67.4341463,46.5170732 C63.427117,46.8625068 59.8926593,41.8025669 53.697561,41.2097561 C49.7025505,40.8274724 41.7944169,44.3895182 37.4634146,43.7073171 C31.6579904,42.7928711 30.4385391,38.4541684 24.9756098,37.1496379 C19.921191,35.9426586 14.4553565,38.5500948 10.5872268,37.1496371 C4.73562681,35.0310633 0.732541321,32.7683355 0.0638602271,30.595122 C-2.43370075,22.4780488 69.0589821,0 86.2297138,0 C103.400446,0 116.824836,3.74634146 116.824836,3.74634146 L109.019958,30.9073171 L109.019958,30.9073171 Z" fill="#3458D0"></path>
			<path d="M4.2058149,25.5830564 C1.22299852,27.515406 -0.34421966,29.2250568 0.0638602271,30.5513164 C0.732541321,32.72453 4.73562681,34.9872578 10.5872268,37.1058316 C14.4553565,38.5062893 19.921191,35.8988531 24.9756098,37.1058325 C30.4385391,38.4103628 31.6579904,42.7490657 37.4634146,43.6635115 C41.7944169,44.3457127 49.7025505,40.7836668 53.697561,41.1659506 C59.8926593,41.7587613 63.427117,46.8187012 67.4341463,46.4732676 C85.5414634,44.912292 100.839024,40.5853675 100.839024,40.5853675 L100.781191,40.1805389 C98.3201811,39.5803847 83.9112036,36.3113683 67.4341463,37.7318042 C63.427117,38.0772378 59.8926593,33.0172979 53.697561,32.4244871 C49.7025505,32.0422034 41.7944169,35.6042493 37.4634146,34.9220481 C31.6579904,34.0076023 30.4385391,29.6688994 24.9756098,28.364369 C19.921191,27.1573897 14.4553565,29.7648258 10.5872268,28.3643682 C8.08259372,27.4575648 5.916619,26.5243518 4.20582122,25.5830523 L4.2058149,25.5830564 Z" fill="#FF686C"></path>
			<path d="M4.14625413,25.5501727 C5.86623147,26.5026188 8.05343426,27.4470077 10.5872268,28.3643682 C14.4553565,29.7648258 19.921191,27.1573897 24.9756098,28.364369 C30.4385391,29.6688994 31.6579904,34.0076023 37.4634146,34.9220481 C41.7944169,35.6042493 49.7025505,32.0422034 53.697561,32.4244871 C59.8926593,33.0172979 63.427117,38.0772378 67.4341463,37.7318042 C85.5414634,36.1708286 100.839024,40.2731724 100.839024,40.2731724 L100.813213,39.9531164 C98.7332439,38.0402684 87.2191288,28.2489832 70.8682908,29.6585382 C66.8612614,30.0039718 59.8926593,24.2758345 53.697561,23.6830237 C49.7025505,23.30074 41.7944169,26.8627859 37.4634146,26.1805847 C31.6579904,25.2661388 33.4048785,23.7268285 24.6634151,21.2292675 C16.3605826,18.8570297 5.24124535,24.9343062 4.14625413,25.5501727 L4.14625413,25.5501727 Z" fill="#F49CB1"></path>
		</g>
		<path d="M117.983258,40.1370138 L118.321541,40.3625357 C118.30467,40.3908955 118.287602,40.4195885 118.270339,40.4486121 C121.408241,43.8105987 125.860631,47.155496 131.759981,48.3902439 C145.182506,51.1996098 155.796056,56.5058423 165.160955,75.5432823 C165.04556,69.9381985 164.295599,64.7358508 163.394215,60.4000487 C177.333989,57.0937282 188.248826,44.0863438 190.60439,34.2804884 C214.673563,29.7380188 255.701449,31.9421026 255.701449,31.9421026 C255.701449,31.9421026 239.068751,28.097561 214.803884,25.6 C206.215398,24.715995 197.6835,24.9395929 190.244085,25.5974747 C186.803383,14.4227004 173.107384,0 156.735591,0 C145.117276,0 134.846516,5.14016031 128.632138,13.0071622 L128.63803,12.8 L112.390244,31.8413898 L112.403884,31.8439024 C112.403884,31.8439024 114.178528,35.9536041 117.983258,40.1370138 L117.983258,40.1370138 Z" fill="#3458D0"></path>
		<g transform="translate(148.604878, 11.863415)">
			<circle fill="#000000" cx="14.9853659" cy="14.9853659" r="14.9853659"></circle>
			<path d="M29.7582243,17.5143935 C28.5562502,24.5862674 22.3996126,29.9707317 14.9853659,29.9707317 C6.70917682,29.9707317 0,23.2615549 0,14.9853659 C0,6.70917682 6.70917682,0 14.9853659,0 C23.2615549,0 29.9707317,6.70917682 29.9707317,14.9853659 C29.9707317,15.0408519 29.9704301,15.0962676 29.9698286,15.1516112 C29.891669,8.83930793 24.7503536,3.74634146 18.4195122,3.74634146 C12.0399498,3.74634146 6.86829268,8.91799858 6.86829268,15.297561 C6.86829268,21.6771234 12.0399498,26.8487805 18.4195122,26.8487805 C24.0408495,26.8487805 28.7243433,22.8333951 29.7582243,17.5143935 L29.7582243,17.5143935 Z" fill="#FFFFFF"></path>
			<circle fill="#FFFFFF" cx="21.8536585" cy="18.7317073" r="3.12195122"></circle>
		</g>
	</g>
</svg>
