<?xml version="1.0" encoding="UTF-8"?>
<svg width="512px" height="102px" viewBox="0 0 512 102" version="1.1" xmlns="http://www.w3.org/2000/svg" xmlns:xlink="http://www.w3.org/1999/xlink" preserveAspectRatio="xMidYMid">
    <title>import.io</title>
    <g>
        <path d="M24.2157643,53.629391 L48.4360328,77.7283161 L24.2157643,101.823145 L0,77.7237646 L24.2157643,53.629391 Z M51.1328075,26.8368318 L75.3532581,50.9362575 L51.1328075,75.0306311 L26.9168629,50.9312509 L51.1328075,26.8368318 Z M24.2157643,0 L48.4360328,24.0991845 L24.2157643,48.1935125 L0,24.0944964 L24.2157643,0 Z" fill="#772CE8"></path>
        <path d="M126.173238,80.3158543 L126.173238,29.5467604 L142.936481,29.5467604 L143.894575,32.8994545 L144.373395,32.8994545 C145.33149,31.8138263 146.832125,30.823962 148.875757,29.9299073 C150.98311,29.0358525 153.313943,28.5888478 155.868255,28.5888478 C158.614641,28.5888478 161.105232,29.1316619 163.340028,30.2172901 C165.575279,31.3029183 167.235672,32.5162621 168.32121,33.8573671 L168.800485,33.8573671 C169.886022,32.5162621 171.705719,31.3029183 174.260486,30.2172901 C176.814798,29.1316619 179.784209,28.5888478 183.169173,28.5888478 C186.681125,28.5888478 189.810294,29.4190448 192.55668,31.0793933 C195.302611,32.6759294 197.441825,35.0068531 198.974321,38.0721642 C200.570994,41.0736176 201.36933,44.6178395 201.36933,48.7051032 L201.36933,80.3158543 L182.689898,80.3158543 L182.689898,52.5365714 C182.689898,50.6845586 182.242939,49.27996 181.349021,48.3218653 C180.518824,47.3000494 179.369111,46.789369 177.900336,46.789369 C176.43156,46.789369 175.250441,47.3000494 174.356068,48.3218653 C173.525871,49.27996 173.110773,50.6845586 173.110773,52.5365714 L173.110773,80.3158543 L154.431796,80.3158543 L154.431796,52.5365714 C154.431796,50.6845586 153.984382,49.27996 153.090463,48.3218653 C152.260266,47.3000494 151.111008,46.789369 149.642233,46.789369 C148.173458,46.789369 146.991884,47.3000494 146.097965,48.3218653 C145.267768,49.27996 144.85267,50.6845586 144.85267,52.5365714 L144.85267,80.3158543 L126.173238,80.3158543 Z M207.606731,99.474106 L207.606731,29.5467604 L224.370429,29.5467604 L225.328524,32.8994545 L225.807344,32.8994545 C226.764983,31.8138263 228.361656,30.823962 230.596906,29.9299073 C232.832157,29.0358525 235.386469,28.5888478 238.260298,28.5888478 C242.410828,28.5888478 246.242751,29.7064277 249.755158,31.9415419 C253.267565,34.1127983 256.045357,37.2100611 258.088989,41.2332849 C260.196342,45.2564176 261.250018,49.822501 261.250018,54.9315805 C261.250018,60.0402049 260.196342,64.6062882 258.088989,68.6293754 C256.045357,72.6529178 253.267565,75.7820868 249.755158,78.0168823 C246.242751,80.1884118 242.410828,81.273949 238.260298,81.273949 C235.705531,81.273949 233.374698,80.9225718 231.267345,80.2202725 C229.223713,79.5179732 227.723078,78.7514974 226.764983,77.9213005 L226.286163,77.9213005 L226.286163,99.474106 L207.606731,99.474106 Z M234.428375,64.0314314 C236.663625,64.0314314 238.57936,63.2012345 240.176032,61.5408405 C241.77225,59.8804466 242.570586,57.6775116 242.570586,54.9315805 C242.570586,52.1851942 241.77225,49.9822593 240.176032,48.3218653 C238.57936,46.6614714 236.663625,45.8312744 234.428375,45.8312744 C232.193124,45.8312744 230.27739,46.6614714 228.681172,48.3218653 C227.0845,49.9822593 226.286163,52.1851942 226.286163,54.9315805 C226.286163,57.6775116 227.0845,59.8804466 228.681172,61.5408405 C230.27739,63.2012345 232.193124,64.0314314 234.428375,64.0314314 Z M290.934112,81.273949 C285.889208,81.273949 281.323125,80.1246906 277.235861,77.8257186 C273.148598,75.4625702 269.923847,72.3015406 267.561154,68.3421746 C265.262182,64.3190874 264.112468,59.8485859 264.112468,54.9315805 C264.112468,50.0141199 265.262182,45.5759342 267.561154,41.6164317 C269.923847,37.5932079 273.148598,34.4320873 277.235861,32.1331153 C281.323125,29.7702855 285.889208,28.5888478 290.934112,28.5888478 C295.979015,28.5888478 300.545098,29.7702855 304.632362,32.1331153 C308.71917,34.4320873 311.91206,37.5932079 314.211488,41.6164317 C316.574181,45.5759342 317.7553,50.0141199 317.7553,54.9315805 C317.7553,59.8485859 316.574181,64.3190874 314.211488,68.3421746 C311.91206,72.3015406 308.71917,75.4625702 304.632362,77.8257186 C300.545098,80.1246906 295.979015,81.273949 290.934112,81.273949 Z M290.934112,64.0314314 C293.169362,64.0314314 295.085096,63.2012345 296.681314,61.5408405 C298.277987,59.8804466 299.076323,57.6775116 299.076323,54.9315805 C299.076323,52.1851942 298.277987,49.9822593 296.681314,48.3218653 C295.085096,46.6614714 293.169362,45.8312744 290.934112,45.8312744 C288.698861,45.8312744 286.783127,46.6614714 285.186454,48.3218653 C283.590236,49.9822593 282.7919,52.1851942 282.7919,54.9315805 C282.7919,57.6775116 283.590236,59.8804466 285.186454,61.5408405 C286.783127,63.2012345 288.698861,64.0314314 290.934112,64.0314314 Z M322.578999,80.3158543 L322.578999,29.5467604 L339.342242,29.5467604 L340.300336,32.8994545 L340.779156,32.8994545 C341.545632,32.0692575 342.69489,31.3029183 344.227387,30.600437 C345.760338,29.8980011 347.484453,29.5467604 349.400187,29.5467604 L358.021674,29.5467604 L358.021674,46.789369 L349.400187,46.789369 C346.717978,46.789369 344.674801,47.523529 343.269747,48.992304 C341.928415,50.3973577 341.257976,52.5365714 341.257976,55.4104002 L341.257976,80.3158543 L322.578999,80.3158543 Z M387.979313,80.3158543 C382.295377,80.3158543 377.985089,78.9431164 375.047539,76.1971852 C372.17371,73.3870777 370.736796,69.3321299 370.736796,64.0314314 L370.736796,46.789369 L363.073404,46.789369 L363.073404,29.5467604 L370.736796,29.5467604 L370.736796,14.2201591 L389.416228,14.2201591 L389.416228,29.5467604 L400.431813,29.5467604 L400.431813,46.789369 L389.416228,46.789369 L389.416228,59.7211434 C389.416228,60.9341231 389.671568,61.7966358 390.182248,62.3073162 C390.693384,62.8184517 391.555442,63.0737919 392.768876,63.0737919 L400.431813,63.0737919 L400.431813,80.3158543 L387.979313,80.3158543 Z M427.728635,70.2579087 C427.728635,75.8130371 423.225818,80.3158543 417.670689,80.3158543 C412.115561,80.3158543 407.612744,75.8130371 407.612744,70.2579087 C407.612744,64.7032356 412.115561,60.1999632 417.670689,60.1999632 C423.225818,60.1999632 427.728635,64.7032356 427.728635,70.2579087 Z M485.177901,81.273949 C480.130267,81.273949 475.565094,80.1246906 471.477831,77.8257186 C467.390567,75.4625702 464.168092,72.3015406 461.805854,68.3421746 C459.507337,64.3190874 458.355803,59.8485859 458.355803,54.9315805 C458.355803,50.0141199 459.507337,45.5759342 461.805854,41.6164317 C464.168092,37.5932079 467.390567,34.4320873 471.477831,32.1331153 C475.565094,29.7702855 480.130267,28.5888478 485.177901,28.5888478 C490.220984,28.5888478 494.786157,29.7702855 498.873421,32.1331153 C502.960684,34.4320873 506.15585,37.5932079 508.454367,41.6164317 C510.816605,45.5759342 512,50.0141199 512,54.9315805 C512,59.8485859 510.816605,64.3190874 508.454367,68.3421746 C506.15585,72.3015406 502.960684,75.4625702 498.873421,77.8257186 C494.786157,80.1246906 490.220984,81.273949 485.177901,81.273949 Z M485.177901,64.0314314 C487.412697,64.0314314 489.328886,63.2012345 490.926469,61.5408405 C492.519501,59.8804466 493.320568,57.6775116 493.320568,54.9315805 C493.320568,52.1851942 492.519501,49.9822593 490.926469,48.3218653 C489.328886,46.6614714 487.412697,45.8312744 485.177901,45.8312744 C482.943106,45.8312744 481.026917,46.6614714 479.429334,48.3218653 C477.831751,49.9822593 477.035235,52.1851942 477.035235,54.9315805 C477.035235,57.6775116 477.831751,59.8804466 479.429334,61.5408405 C481.026917,63.2012345 482.943106,64.0314314 485.177901,64.0314314 Z M452.023275,30.1438286 L452.023275,80.3163095 L433.343843,80.3163095 L433.343843,42.2018935 L452.023275,30.1438286 Z M433.344754,14.2201591 L451.970022,25.8621241 L433.344754,37.5017679 L433.344754,14.2201591 Z M118.650033,30.1438286 L118.650033,80.3163095 L99.9710562,80.3163095 L99.9710562,42.2018935 L118.650033,30.1438286 Z M99.9706011,14.2201591 L118.59587,25.8621241 L99.9706011,37.5017679 L99.9706011,14.2201591 Z" fill="#000000"></path>
    </g>
</svg>
