<?xml version="1.0" encoding="UTF-8"?>
<svg width="512px" height="96px" viewBox="0 0 512 96" version="1.1" xmlns="http://www.w3.org/2000/svg" xmlns:xlink="http://www.w3.org/1999/xlink" preserveAspectRatio="xMidYMid">
    <g>
        <path d="M163.164286,21.5022702 C177.302491,21.5022702 188.761036,33.7707127 188.761036,48.9037915 C188.761036,64.0368703 177.302491,76.3053128 163.164286,76.3053128 C157.879957,76.3053128 152.975579,74.5905305 148.896097,71.6559031 L148.896097,71.6559031 L148.896097,95.4878775 L133.898001,95.4878775 L133.898001,22.4971439 L148.896097,22.4971439 L148.896097,26.15168 C152.97058,23.2170525 157.879957,21.5022702 163.164286,21.5022702 Z M14.9980959,22.4971439 L14.9980959,74.9904797 L0,74.9904797 L0,22.4971439 L14.9980959,22.4971439 Z M441.778915,22.4971439 L441.778915,74.9904797 L426.780819,74.9904797 L426.780819,22.4971439 L441.778915,22.4971439 Z M113.985529,22.4971439 L113.985529,74.9904797 L98.9874332,74.9904797 L98.9874332,36.4953668 L81.9895912,36.4953668 L81.9895912,74.9904797 L66.9914952,74.9904797 L66.9914952,36.4953668 L49.9936531,36.4953668 L49.9936531,74.9904797 L34.9955572,74.9904797 L34.9955572,22.4971439 L113.985529,22.4971439 Z M303.18651,22.4971439 L303.18651,36.4953668 L288.188414,36.4953668 L288.188414,74.9904797 L273.190318,74.9904797 L273.190318,22.4971439 L303.18651,22.4971439 Z M344.2213,7.49904797 L344.2213,22.4971439 L359.219396,22.4971439 L359.219396,36.4953668 L344.2213,36.4953668 L344.2213,59.9923838 L359.219396,59.9923838 L359.219396,74.9904797 L329.223204,74.9904797 L329.223204,36.4953668 L320.334333,36.4953668 L320.334333,22.4971439 L329.223204,22.4971439 L329.223204,7.49904797 L344.2213,7.49904797 Z M392.570162,55.9828928 C397.71128,55.9828928 401.87898,60.1505927 401.87898,65.291711 C401.87898,70.4328294 397.71128,74.6005292 392.570162,74.6005292 C387.429044,74.6005292 383.261344,70.4328294 383.261344,65.291711 C383.261344,60.1505927 387.429044,55.9828928 392.570162,55.9828928 Z M230.865691,19.8424809 C246.063761,19.8424809 258.382198,32.0609298 258.382198,47.1340162 C258.382198,62.2071026 246.063761,74.4255514 230.865691,74.4255514 C215.66762,74.4255514 203.349184,62.2071026 203.349184,47.1340162 C203.349184,32.0609298 215.66762,19.8424809 230.865691,19.8424809 Z M484.483493,19.8424809 C499.681564,19.8424809 512,32.0609298 512,47.1340162 C512,62.2071026 499.681564,74.4255514 484.483493,74.4255514 C469.285423,74.4255514 456.966987,62.2071026 456.966987,47.1340162 C456.966987,32.0609298 469.285423,19.8424809 484.483493,19.8424809 Z M160.834582,35.225528 C154.240419,35.225528 148.896097,41.4147423 148.896097,49.0487731 C148.896097,56.6828039 154.240419,62.8720182 160.834582,62.8720182 C167.428744,62.8720182 172.773066,56.6828039 172.773066,49.0487731 C172.773066,41.4147423 167.428744,35.225528 160.834582,35.225528 Z M230.785701,33.9906848 C224.091551,33.9906848 218.66724,39.9449289 218.66724,47.2839971 C218.66724,54.6280648 224.091551,60.5773095 230.785701,60.5773095 C237.479851,60.5773095 242.904163,54.6230654 242.904163,47.2839971 C242.904163,39.9399295 237.479851,33.9906848 230.785701,33.9906848 Z M484.398504,33.9906848 C477.704354,33.9906848 472.280043,39.9449289 472.280043,47.2839971 C472.280043,54.6280648 477.704354,60.5773095 484.398504,60.5773095 C491.092654,60.5773095 496.516966,54.6230654 496.516966,47.2839971 C496.516966,39.9399295 491.092654,33.9906848 484.398504,33.9906848 Z M14.9980959,0 L14.9980959,14.9980959 L0,14.9980959 L0,0 L14.9980959,0 Z M441.778915,0 L441.778915,14.9980959 L426.780819,14.9980959 L426.780819,0 L441.778915,0 Z" fill="#3138B0"></path>
    </g>
</svg>