<?xml version="1.0" encoding="UTF-8"?>
<svg width="512px" height="60px" viewBox="0 0 512 60" version="1.1" xmlns="http://www.w3.org/2000/svg" preserveAspectRatio="xMidYMid">
    <title>Internet Computer</title>
    <defs>
        <linearGradient x1="26.2645695%" y1="24.0114227%" x2="92.1955024%" y2="77.6603717%" id="linearGradient-1">
            <stop stop-color="#F15A24" offset="21%"></stop>
            <stop stop-color="#FBB03B" offset="68.41%"></stop>
        </linearGradient>
        <linearGradient x1="73.7353438%" y1="76.0134925%" x2="7.80417696%" y2="22.3409907%" id="linearGradient-2">
            <stop stop-color="#ED1E79" offset="21%"></stop>
            <stop stop-color="#522785" offset="89.29%"></stop>
        </linearGradient>
    </defs>
    <g>
        <path d="M144.409781,37.6277317 C145.011825,37.6277317 145.50044,37.1394437 145.50044,36.5370728 L145.50044,21.7062932 C145.50044,21.1039769 145.011825,20.6156343 144.409781,20.6156343 L143.231869,20.6156343 C142.62928,20.6156343 142.141211,21.1039769 142.141211,21.7062932 L142.141211,36.5370728 C142.141211,37.1394437 142.62928,37.6277317 143.231869,37.6277317 L144.409781,37.6277317 Z M170.099706,37.6277317 C170.702295,37.6277317 171.190365,37.1394437 171.190365,36.5370728 L171.190365,21.7062932 C171.190365,21.1039769 170.702295,20.6156343 170.099706,20.6156343 L168.969783,20.6156343 C168.36774,20.6156343 167.879124,21.1039769 167.879124,21.7062932 L167.879124,31.8690528 L161.121402,21.1256264 C160.921811,20.8082447 160.573346,20.6156343 160.198159,20.6156343 L157.764354,20.6156343 C157.16231,20.6156343 156.673695,21.1039769 156.673695,21.7062932 L156.673695,36.5370728 C156.673695,37.1394437 157.16231,37.6277317 157.764354,37.6277317 L158.894276,37.6277317 C159.496865,37.6277317 159.984935,37.1394437 159.984935,36.5370728 L159.984935,25.5585004 L167.389418,37.1251016 C167.5901,37.4382843 167.936384,37.6277317 168.307753,37.6277317 L170.099706,37.6277317 Z M193.76973,23.7589133 C194.372319,23.7589133 194.860389,23.2706253 194.860389,22.6682544 L194.860389,21.7062932 C194.860389,21.1039769 194.372319,20.6156343 193.76973,20.6156343 L181.866279,20.6156343 C181.264236,20.6156343 180.77562,21.1039769 180.77562,21.7062932 L180.77562,22.6682544 C180.77562,23.2706253 181.264236,23.7589133 181.866279,23.7589133 L186.150387,23.7589133 L186.150387,36.5370728 C186.150387,37.1394437 186.639003,37.6277317 187.241046,37.6277317 L188.394963,37.6277317 C188.997552,37.6277317 189.485622,37.1394437 189.485622,36.5370728 L189.485622,23.7589133 L193.76973,23.7589133 Z M214.000907,37.6277317 C214.602951,37.6277317 215.091566,37.1394437 215.091566,36.5370728 L215.091566,35.5991062 C215.091566,34.9967898 214.602951,34.5084473 214.000907,34.5084473 L207.749251,34.5084473 L207.749251,30.57335 L213.305067,30.57335 C213.907111,30.57335 214.395726,30.085062 214.395726,29.4826911 L214.395726,28.7126859 C214.395726,28.1103696 213.907111,27.622027 213.305067,27.622027 L207.749251,27.622027 L207.749251,23.7349188 L214.000907,23.7349188 C214.602951,23.7349188 215.091566,23.2466308 215.091566,22.6442599 L215.091566,21.7062932 C215.091566,21.1039769 214.602951,20.6156343 214.000907,20.6156343 L205.528669,20.6156343 C204.92608,20.6156343 204.43801,21.1039769 204.43801,21.7062932 L204.43801,36.5370728 C204.43801,37.1394437 204.92608,37.6277317 205.528669,37.6277317 L214.000907,37.6277317 Z M233.626224,37.0319593 C233.812181,37.3975481 234.187913,37.6277317 234.598001,37.6277317 L235.82172,37.6277317 C236.64135,37.6277317 237.168138,36.7570042 236.787498,36.030789 L233.977416,30.669328 C236.208904,30.0214766 237.600585,28.2218894 237.600585,25.8464344 C237.600585,22.8951114 235.489069,20.6156343 232.177829,20.6156343 L226.622012,20.6156343 C226.019423,20.6156343 225.531353,21.1039769 225.531353,21.7062932 L225.531353,36.5370728 C225.531353,37.1394437 226.019423,37.6277317 226.622012,37.6277317 L227.775929,37.6277317 C228.378518,37.6277317 228.866588,37.1394437 228.866588,36.5370728 L228.866588,31.0772344 L230.594192,31.0772344 L233.626224,37.0319593 Z M228.866588,28.2218894 L228.866588,23.4949738 L231.553972,23.4949738 C233.233586,23.4949738 234.217361,24.4307591 234.217361,25.8704289 C234.217361,27.2621096 233.233586,28.2218894 231.553972,28.2218894 L228.866588,28.2218894 Z M261.269518,37.6277317 C261.871562,37.6277317 262.360177,37.1394437 262.360177,36.5370728 L262.360177,21.7062932 C262.360177,21.1039769 261.871562,20.6156343 261.269518,20.6156343 L260.139596,20.6156343 C259.537007,20.6156343 259.048937,21.1039769 259.048937,21.7062932 L259.048937,31.8690528 L252.291214,21.1256264 C252.091624,20.8082447 251.743158,20.6156343 251.367972,20.6156343 L248.934166,20.6156343 C248.331577,20.6156343 247.843507,21.1039769 247.843507,21.7062932 L247.843507,36.5370728 C247.843507,37.1394437 248.331577,37.6277317 248.934166,37.6277317 L250.064089,37.6277317 C250.666133,37.6277317 251.154748,37.1394437 251.154748,36.5370728 L251.154748,25.5585004 L258.559231,37.1251016 C258.759367,37.4382843 259.105651,37.6277317 259.477566,37.6277317 L261.269518,37.6277317 Z M283.115961,37.6277317 C283.71855,37.6277317 284.20662,37.1394437 284.20662,36.5370728 L284.20662,35.5991062 C284.20662,34.9967898 283.71855,34.5084473 283.115961,34.5084473 L276.864305,34.5084473 L276.864305,30.57335 L282.420121,30.57335 C283.02271,30.57335 283.51078,30.085062 283.51078,29.4826911 L283.51078,28.7126859 C283.51078,28.1103696 283.02271,27.622027 282.420121,27.622027 L276.864305,27.622027 L276.864305,23.7349188 L283.115961,23.7349188 C283.71855,23.7349188 284.20662,23.2466308 284.20662,22.6442599 L284.20662,21.7062932 C284.20662,21.1039769 283.71855,20.6156343 283.115961,20.6156343 L274.643723,20.6156343 C274.041679,20.6156343 273.553064,21.1039769 273.553064,21.7062932 L273.553064,36.5370728 C273.553064,37.1394437 274.041679,37.6277317 274.643723,37.6277317 L283.115961,37.6277317 Z M306.033431,23.7589133 C306.635475,23.7589133 307.12409,23.2706253 307.12409,22.6682544 L307.12409,21.7062932 C307.12409,21.1039769 306.635475,20.6156343 306.033431,20.6156343 L294.12998,20.6156343 C293.527391,20.6156343 293.039321,21.1039769 293.039321,21.7062932 L293.039321,22.6682544 C293.039321,23.2706253 293.527391,23.7589133 294.12998,23.7589133 L298.414088,23.7589133 L298.414088,36.5370728 C298.414088,37.1394437 298.902158,37.6277317 299.504747,37.6277317 L300.658664,37.6277317 C301.260708,37.6277317 301.749323,37.1394437 301.749323,36.5370728 L301.749323,23.7589133 L306.033431,23.7589133 Z" fill="#000000"></path>
        <path d="M336.639501,37.9876491 C340.826541,37.9876491 343.223809,35.5523714 344.187406,33.1892954 C344.407174,32.6514369 344.073432,32.073115 343.517741,31.90499 L342.472345,31.5890806 C341.890478,31.4131028 341.286253,31.7554061 340.994502,32.2890655 C340.297571,33.5662271 338.932611,34.7483922 336.639501,34.7483922 C333.904129,34.7483922 331.360712,32.7568491 331.360712,29.1336803 C331.360712,25.2705665 334.048096,23.4469848 336.591512,23.4469848 C338.893348,23.4469848 340.202684,24.541461 340.860896,25.7971911 C341.152648,26.3536453 341.776504,26.7186888 342.375821,26.5296776 L343.416855,26.2013348 C343.964366,26.0286289 344.292109,25.4570146 344.079976,24.9233552 C343.118015,22.4992022 340.743105,20.2557169 336.591512,20.2557169 C332.032558,20.2557169 327.929499,23.7109243 327.929499,29.1336803 C327.929499,34.5564363 331.888591,37.9876491 336.639501,37.9876491 Z M356.695627,29.1096858 C356.695627,25.2705665 359.383011,23.4469848 361.998411,23.4469848 C364.637805,23.4469848 367.325189,25.2705665 367.325189,29.1096858 C367.325189,32.9488051 364.637805,34.7723867 361.998411,34.7723867 C359.383011,34.7723867 356.695627,32.9488051 356.695627,29.1096858 Z M353.264414,29.1336803 C353.264414,34.6044253 357.391468,37.9876491 361.998411,37.9876491 C366.629349,37.9876491 370.756402,34.6044253 370.756402,29.1336803 C370.756402,23.6389408 366.629349,20.2557169 361.998411,20.2557169 C357.391468,20.2557169 353.264414,23.6389408 353.264414,29.1336803 Z M398.808148,37.6277317 C399.410737,37.6277317 399.898807,37.1394437 399.898807,36.5370728 L399.898807,21.7062932 C399.898807,21.1039769 399.410737,20.6156343 398.808148,20.6156343 L396.121856,20.6156343 C395.677957,20.6156343 395.278776,20.8845908 395.11136,21.2958238 L390.396987,32.9008161 L385.565368,21.2873711 C385.396316,20.8806644 384.999316,20.6156343 384.55869,20.6156343 L382.00982,20.6156343 C381.407231,20.6156343 380.919161,21.1039769 380.919161,21.7062932 L380.919161,36.5370728 C380.919161,37.1394437 381.407231,37.6277317 382.00982,37.6277317 L382.995776,37.6277317 C383.598365,37.6277317 384.086435,37.1394437 384.086435,36.5370728 L384.086435,25.7984454 L388.702648,36.9540862 C388.871155,37.3618291 389.269246,37.6277317 389.710417,37.6277317 L391.009392,37.6277317 C391.451654,37.6277317 391.85029,37.3605203 392.018251,36.9512505 L396.635556,25.7024674 L396.635556,36.5370728 C396.635556,37.1394437 397.123626,37.6277317 397.726215,37.6277317 L398.808148,37.6277317 Z M414.416022,28.3658564 L414.416022,23.4949738 L417.031422,23.4949738 C418.687043,23.4949738 419.694811,24.4307591 419.694811,25.9424124 C419.694811,27.4060766 418.687043,28.3658564 417.031422,28.3658564 L414.416022,28.3658564 Z M417.439329,31.2212014 C420.798558,31.2212014 423.030046,29.0137078 423.030046,25.9184179 C423.030046,22.8471224 420.798558,20.6156343 417.439329,20.6156343 L412.171446,20.6156343 C411.569403,20.6156343 411.080788,21.1039769 411.080788,21.7062932 L411.080788,36.5370728 C411.080788,37.1394437 411.569403,37.6277317 412.171446,37.6277317 L413.301369,37.6277317 C413.903958,37.6277317 414.392028,37.1394437 414.392028,36.5370728 L414.392028,31.2212014 L417.439329,31.2212014 Z M439.189794,38.0116436 C442.836957,38.0116436 445.740291,35.7801555 445.740291,31.6051133 L445.740291,21.7062932 C445.740291,21.1039769 445.252221,20.6156343 444.649632,20.6156343 L443.51971,20.6156343 C442.917121,20.6156343 442.429051,21.1039769 442.429051,21.7062932 L442.429051,31.3651684 C442.429051,33.5966564 441.205331,34.7723867 439.189794,34.7723867 C437.222245,34.7723867 435.974531,33.5966564 435.974531,31.3651684 L435.974531,21.7062932 C435.974531,21.1039769 435.486462,20.6156343 434.883873,20.6156343 L433.75395,20.6156343 C433.151361,20.6156343 432.663291,21.1039769 432.663291,21.7062932 L432.663291,31.6051133 C432.663291,35.7801555 435.566625,38.0116436 439.189794,38.0116436 Z M468.169691,23.7589133 C468.771735,23.7589133 469.26035,23.2706253 469.26035,22.6682544 L469.26035,21.7062932 C469.26035,21.1039769 468.771735,20.6156343 468.169691,20.6156343 L456.26624,20.6156343 C455.663651,20.6156343 455.175581,21.1039769 455.175581,21.7062932 L455.175581,22.6682544 C455.175581,23.2706253 455.663651,23.7589133 456.26624,23.7589133 L460.550348,23.7589133 L460.550348,36.5370728 C460.550348,37.1394437 461.038418,37.6277317 461.641007,37.6277317 L462.794924,37.6277317 C463.396968,37.6277317 463.885583,37.1394437 463.885583,36.5370728 L463.885583,23.7589133 L468.169691,23.7589133 Z M488.400323,37.6277317 C489.002367,37.6277317 489.490982,37.1394437 489.490982,36.5370728 L489.490982,35.5991062 C489.490982,34.9967898 489.002367,34.5084473 488.400323,34.5084473 L482.148666,34.5084473 L482.148666,30.57335 L487.704483,30.57335 C488.306526,30.57335 488.795141,30.085062 488.795141,29.4826911 L488.795141,28.7126859 C488.795141,28.1103696 488.306526,27.622027 487.704483,27.622027 L482.148666,27.622027 L482.148666,23.7349188 L488.400323,23.7349188 C489.002367,23.7349188 489.490982,23.2466308 489.490982,22.6442599 L489.490982,21.7062932 C489.490982,21.1039769 489.002367,20.6156343 488.400323,20.6156343 L479.928085,20.6156343 C479.325496,20.6156343 478.837426,21.1039769 478.837426,21.7062932 L478.837426,36.5370728 C478.837426,37.1394437 479.325496,37.6277317 479.928085,37.6277317 L488.400323,37.6277317 Z M508.025639,37.0319593 C508.211596,37.3975481 508.587328,37.6277317 508.997416,37.6277317 L510.221135,37.6277317 C511.041311,37.6277317 511.567554,36.7570042 511.186914,36.030789 L508.376831,30.669328 C510.608319,30.0214766 512,28.2218894 512,25.8464344 C512,22.8951114 509.888484,20.6156343 506.577244,20.6156343 L499.930769,20.6156343 L499.930769,36.5370728 C499.930769,37.1394437 500.419384,37.6277317 501.021428,37.6277317 L502.175345,37.6277317 C502.777934,37.6277317 503.266004,37.1394437 503.266004,36.5370728 L503.266004,31.0772344 L504.993607,31.0772344 L508.025639,37.0319593 Z M503.266004,28.2218894 L503.266004,23.4949738 L505.953387,23.4949738 C507.633002,23.4949738 508.616776,24.4307591 508.616776,25.8704289 C508.616776,27.2621096 507.633002,28.2218894 505.953387,28.2218894 L503.266004,28.2218894 Z" fill="#000000"></path>
        <g transform="translate(0, 0)">
            <path d="M95.1234511,0 C88.1001532,0 80.4437278,3.59903255 72.3515841,10.6880209 C68.5124648,14.0471412 65.1968618,17.6461519 62.7107049,20.5253823 C62.7107049,20.5253823 62.7107049,20.5253823 62.732518,20.5471955 L62.732518,20.5253823 C62.732518,20.5253823 66.6583447,24.8006016 70.9991671,29.3812053 C73.3331771,26.6110408 76.6924065,22.8375246 80.5527936,19.434778 C87.7511423,13.1310422 92.4404302,11.8004929 95.1234511,11.8004929 C105.222952,11.8004929 113.424162,19.805602 113.424162,29.6429634 C113.424162,39.4148854 105.201139,47.4199944 95.1234511,47.485434 C94.6653743,47.485434 94.0764185,47.4199944 93.3347705,47.2673022 C96.2795495,48.532412 99.4424603,49.4485654 102.452679,49.4485654 C120.949163,49.4485654 124.57015,37.3863144 124.810095,36.5138418 C125.355425,34.3107654 125.638996,31.9986776 125.638996,29.6211503 C125.638996,13.3054931 111.940866,0 95.1234511,0 Z" fill="url(#linearGradient-1)"></path>
            <path d="M30.515436,59.3296623 C37.5390066,59.3296623 45.1951593,55.730488 53.2875211,48.6415324 C57.1265313,45.2824121 60.4421344,41.6834013 62.9282913,38.8041709 C62.9282913,38.8041709 62.9282913,38.8041709 62.9064781,38.7823577 L62.9064781,38.8041709 C62.9064781,38.8041709 58.9806515,34.5289517 54.6398291,29.9483479 C52.3059281,32.7185124 48.9468623,36.4920286 45.0860935,39.8947753 C37.8880175,46.198511 33.1983478,47.5290603 30.515436,47.5290603 C20.4163164,47.5073017 12.2148888,39.5021381 12.2148888,29.6647766 C12.2148888,19.8928547 20.4381296,11.8877456 30.515436,11.8223061 C30.9735128,11.8223061 31.562414,11.8877456 32.3040621,12.0404379 C29.3593921,10.7753281 26.1965904,9.85917464 23.1864809,9.85917464 C4.68964782,9.85917464 1.09061526,21.9214257 0.828868037,22.7720851 C0.283560405,24.9969747 0,27.2872493 0,29.6647766 C0,46.0240601 13.6981303,59.3296623 30.515436,59.3296623 Z" fill="url(#linearGradient-2)"></path>
            <path d="M102.409052,49.1868073 C92.9421333,48.9468623 83.1049354,41.4870282 81.0981231,39.6330171 C75.9071321,34.8342816 63.9316975,21.8559316 62.9942762,20.8307668 C54.2254878,10.9934053 42.3377421,0 30.5154906,0 L30.4936774,0 L30.4718642,0 C16.1193385,0.0654368068 4.05713655,9.7937351 0.828911663,22.7720851 C1.06884571,21.9213712 5.8021417,9.61922968 23.1647223,10.0554932 C32.6312597,10.2954382 42.5122475,17.8642837 44.5408185,19.7183493 C49.7321367,24.5170303 61.7072987,37.4953803 62.6452653,38.5205451 C71.4136175,48.3360934 83.301254,59.3296623 95.1234511,59.3296623 L95.1452643,59.3296623 L95.1670774,59.3296623 C109.519603,59.2642228 121.603558,49.5358181 124.810095,36.5574681 C124.548337,37.4081275 119.793065,49.6012577 102.409052,49.1868073 Z" fill="#29ABE2"></path>
        </g>
    </g>
</svg>
