<?xml version="1.0" encoding="UTF-8"?>
<svg width="512px" height="242px" viewBox="0 0 512 242" version="1.1" xmlns="http://www.w3.org/2000/svg" preserveAspectRatio="xMidYMid">
    <title>Internet Computer</title>
    <defs>
        <linearGradient x1="26.2645695%" y1="24.0114227%" x2="92.1955024%" y2="77.6603717%" id="linearGradient-1">
            <stop stop-color="#F15A24" offset="21%"></stop>
            <stop stop-color="#FBB03B" offset="68.41%"></stop>
        </linearGradient>
        <linearGradient x1="73.7353438%" y1="76.0134925%" x2="7.80417696%" y2="22.3409907%" id="linearGradient-2">
            <stop stop-color="#ED1E79" offset="21%"></stop>
            <stop stop-color="#522785" offset="89.29%"></stop>
        </linearGradient>
    </defs>
    <g>
        <path d="M387.644031,0 C359.022913,0 327.821694,14.6666618 294.844851,43.5554792 C279.199795,57.2444583 265.688156,71.9110312 255.556649,83.6443785 C255.556649,83.6443785 255.556649,83.6443785 255.645542,83.7332708 L255.645542,83.6443785 C255.645542,83.6443785 271.643944,101.066615 289.333524,119.733344 C298.845007,108.444458 312.534431,93.0667465 328.266156,79.1999826 C357.600635,53.5112014 376.710271,48.0889896 387.644031,48.0889896 C428.801194,48.0889896 462.2225,80.7111528 462.2225,120.800052 C462.2225,160.622274 428.712302,193.244437 387.644031,193.511115 C385.777292,193.511115 383.377198,193.244437 380.354858,192.622191 C392.355326,197.777726 405.244719,201.511205 417.511865,201.511205 C492.888142,201.511205 507.644274,152.355507 508.62209,148.800035 C510.844399,139.822128 512,130.399983 512,120.71116 C512,54.2221181 456.177819,0 387.644031,0 Z" fill="url(#linearGradient-1)"></path>
        <path d="M124.355524,241.778333 C152.977753,241.778333 184.177861,227.111094 217.155594,198.22241 C232.800205,184.533431 246.311844,169.866858 256.443351,158.13351 C256.443351,158.13351 256.443351,158.13351 256.354458,158.044618 L256.354458,158.13351 C256.354458,158.13351 240.356056,140.711274 222.666476,122.044545 C213.155437,133.333431 199.466681,148.711142 183.733399,162.577906 C154.400031,188.266688 135.28884,193.688899 124.355524,193.688899 C83.1999167,193.600229 49.7777222,160.977844 49.7777222,120.888944 C49.7777222,81.0667222 83.288809,48.444559 124.355524,48.1778819 C126.222264,48.1778819 128.622135,48.444559 131.644476,49.0668056 C119.644451,43.9112708 106.755503,40.1777917 94.4888021,40.1777917 C19.1111021,40.1777917 4.44444028,89.3334896 3.37777639,92.8000694 C1.15555625,101.866868 0,111.200122 0,120.888944 C0,187.555771 55.8221806,241.778333 124.355524,241.778333 Z" fill="url(#linearGradient-2)"></path>
        <path d="M417.33408,200.444497 C378.754795,199.466681 338.666562,169.066604 330.488465,161.511198 C309.334306,141.955545 260.532399,89.0665903 256.71225,84.8888715 C220.977965,44.7999722 172.533406,0 124.355747,0 L124.266854,0 L124.177962,0 C65.6890104,0.266665972 16.5335125,39.9111146 3.37795417,92.8000694 C4.3557257,89.3332674 23.6447014,39.1999757 94.4001319,40.9778229 C132.977861,41.9556389 173.244545,72.7999549 181.511313,80.3555833 C202.666806,99.9110139 251.467601,152.799969 255.289972,156.977687 C291.022479,196.977694 339.466594,241.778333 387.644031,241.778333 L387.732924,241.778333 L387.821816,241.778333 C446.310767,241.511656 495.554913,201.866774 508.62209,148.977819 C507.555382,152.444399 488.176847,202.133451 417.33408,200.444497 Z" fill="#29ABE2"></path>
    </g>
</svg>
