<?xml version="1.0" encoding="UTF-8" standalone="no"?>
<svg width="256px" height="256px" viewBox="0 0 256 256" version="1.1" xmlns="http://www.w3.org/2000/svg" xmlns:xlink="http://www.w3.org/1999/xlink" preserveAspectRatio="xMidYMid">
	<g>
		<path d="M43.6572322,256 L212.282754,256 C236.426412,256 256,236.428866 256,212.285999 L256,43.6739947 C256,20.1634566 237.438294,0.988309289 214.170127,0 L41.7697841,3.41115145e-13 C19.2678133,0.955729439 1.16882205,18.9189938 1.13130486e-15,41.3635333 L7.99964403e-14,214.59646 C1.20132977,237.665236 20.2876613,256 43.6572322,256 Z" fill="#90DAFD"></path>
		<path d="M41.7697841,8.5285117e-14 C19.2678133,0.955800389 1.16882205,18.9203983 0,41.366604 L4.45720232e-14,158.422431 C1.97764751,159.678497 52.6686505,191.40186 127.761944,191.40186 C204.3719,191.40186 256,158.384121 256,158.384121 L256,43.6772369 C256,20.1649534 237.438294,0.988382658 214.170127,0 L41.7697841,9.94993032e-13 L41.7697841,8.5285117e-14 Z" fill="#C3E9FE"></path>
		<path d="M152.872,159.842 C152.872,164.325 149.237,167.959 144.754,167.959 C140.271,167.959 136.637,164.325 136.637,159.842 L136.637,31.842 C136.637,27.359 140.271,23.725 144.754,23.725 C149.237,23.725 152.872,27.359 152.872,31.842 L152.872,159.842" fill="#000000"></path>
		<path d="M118.947,159.842 C118.947,164.325 115.312,167.959 110.829,167.959 C106.347,167.959 102.712,164.325 102.712,159.842 L102.712,31.842 C102.712,27.359 106.347,23.725 110.829,23.725 C115.312,23.725 118.947,27.359 118.947,31.842 L118.947,159.842" fill="#000000"></path>
		<path d="M85.021,147.354 C85.021,151.837 81.387,155.471 76.904,155.471 C72.421,155.471 68.787,151.837 68.787,147.354 L68.787,44.955 C68.787,40.472 72.421,36.837 76.904,36.837 C81.387,36.837 85.021,40.472 85.021,44.955 L85.021,147.354" fill="#000000"></path>
		<path d="M186.797,147.042 C186.797,151.525 183.163,155.159 178.68,155.159 C174.197,155.159 170.563,151.525 170.563,147.042 L170.563,44.642 C170.563,40.159 174.197,36.525 178.68,36.525 C183.163,36.525 186.797,40.159 186.797,44.642 L186.797,147.042" fill="#000000"></path>
		<path d="M220.722,125.813 C220.722,130.296 217.088,133.93 212.605,133.93 C208.122,133.93 204.488,130.296 204.488,125.813 L204.488,65.872 C204.488,61.389 208.122,57.754 212.605,57.754 C217.088,57.754 220.722,61.389 220.722,65.872 L220.722,125.813" fill="#000000"></path>
		<path d="M51.096,125.813 C51.096,130.296 47.462,133.93 42.979,133.93 C38.496,133.93 34.862,130.296 34.862,125.813 L34.862,65.872 C34.862,61.389 38.496,57.754 42.979,57.754 C47.462,57.754 51.096,61.389 51.096,65.872 L51.096,125.813" fill="#000000"></path>
		<path d="M127.792,231.439 C88.056,231.439 49.382,214.823 47.755,214.115 C43.644,212.328 41.76,207.546 43.548,203.435 C45.335,199.325 50.115,197.44 54.224,199.226 C54.593,199.385 91.507,215.205 127.792,215.205 C164.066,215.205 200.77,199.392 201.137,199.232 C205.243,197.442 210.029,199.318 211.821,203.425 C213.613,207.532 211.741,212.314 207.635,214.109 C206.017,214.816 167.535,231.439 127.792,231.439" fill="#000000"></path>
	</g>
</svg>