<?xml version="1.0" encoding="UTF-8" standalone="no" ?>
<svg width="256px" height="388px" viewBox="0 0 256 388" version="1.1" xmlns="http://www.w3.org/2000/svg" xmlns:xlink="http://www.w3.org/1999/xlink" preserveAspectRatio="xMidYMid">
    <g>
        <path d="M52.5566343,272 C54.368932,272 55.197411,272.880259 55.197411,274.640777 L55.197411,363.443366 C55.197411,366.705501 54.5760517,369.864078 53.2815534,372.763754 C51.987055,375.66343 50.3300971,378.200647 48.1553398,380.375404 C45.9805825,382.550162 43.4433657,384.2589 40.5436893,385.501618 C37.644013,386.744337 34.5372169,387.417476 31.2233009,387.417476 L23.97411,387.417476 C20.7119741,387.417476 17.5533981,386.796116 14.6537217,385.501618 C11.7540453,384.2589 9.21682848,382.550162 7.0420712,380.375404 C4.86731391,378.200647 3.15857605,375.66343 1.9158576,372.763754 C0.621359223,369.864078 0,366.757281 0,363.443366 L0,343.093852 C0,341.281553 0.828478964,340.194174 2.48543689,339.676375 L19.7799353,335.119741 C21.4368932,334.601941 22.2653722,335.223301 22.2653722,337.035599 L22.2653722,362.511327 C22.2653722,363.805825 22.6796116,364.841424 23.6116505,365.721683 C24.4919094,366.601942 25.579288,367.067961 26.8220065,367.067961 L28.3754046,367.067961 C29.6181229,367.067961 30.7055016,366.653722 31.5857605,365.721683 C32.4660194,364.841424 32.9320388,363.754045 32.9320388,362.511327 L32.9320388,274.692557 C32.9320388,272.880259 33.8122978,272.05178 35.5728155,272.05178 C35.6245955,272 52.5566343,272 52.5566343,272 L52.5566343,272 L52.5566343,272 Z M126.498381,383.430421 C126.757281,385.242718 125.980582,386.071197 124.220065,386.071197 L106.925567,386.071197 C105.268609,386.071197 104.336569,385.190938 104.07767,383.430421 L102.524272,364.841424 L90.7184466,364.841424 L89.1650485,383.430421 C88.9061488,385.242718 87.92233,386.071197 86.3171521,386.071197 L69.0226537,386.071197 C67.2103559,386.071197 66.4854368,385.190938 66.7443365,383.430421 L81.0355986,274.692557 C81.2944983,272.880259 82.2783171,272.05178 84.0906148,272.05178 L109.203883,272.05178 C111.016181,272.05178 112,272.932039 112.2589,274.692557 L126.498381,383.430421 L126.498381,383.430421 Z M101.022654,343.508091 L97.4498381,301.462783 L95.8964401,301.462783 L92.3236246,343.508091 L101.022654,343.508091 L101.022654,343.508091 Z M170.200647,272 C173.462783,272 176.569579,272.62136 179.521035,273.915858 C182.420712,275.210356 184.957929,276.867314 187.132686,279.042071 C189.307443,281.216829 191.016182,283.754045 192.2589,286.653721 C193.501618,289.553398 194.174757,292.660194 194.174757,295.97411 L194.174757,362.148867 C194.174757,365.411003 193.553398,368.569579 192.2589,371.469256 C190.964401,374.368932 189.307443,376.906149 187.132686,379.080906 C184.957929,381.255663 182.420712,382.964402 179.521035,384.20712 C176.621359,385.501618 173.514563,386.122977 170.200647,386.122977 L141.721683,386.122977 C139.909385,386.122977 139.080906,385.242718 139.080906,383.482201 L139.080906,274.692557 C139.080906,272.880259 139.961165,272.05178 141.721683,272.05178 L170.200647,272 L170.200647,272 Z M171.961165,296.906149 C171.961165,295.663431 171.546925,294.576052 170.614887,293.695793 C169.734628,292.815534 168.647249,292.349515 167.404531,292.349515 L161.346278,292.349515 L161.346278,365.721683 L167.404531,365.721683 C168.647249,365.721683 169.734628,365.307444 170.614887,364.375404 C171.495145,363.495145 171.961165,362.407767 171.961165,361.165048 L171.961165,296.906149 L171.961165,296.906149 Z M256,366.498382 L256,383.430421 C256,385.242718 255.119741,386.071197 253.359223,386.071197 L212.090615,386.071197 C210.278317,386.071197 209.449838,385.190938 209.449838,383.430421 L209.449838,274.692557 C209.449838,272.880259 210.330097,272.05178 212.090615,272.05178 L253.307443,272.05178 C255.119741,272.05178 255.94822,272.932039 255.94822,274.692557 L255.94822,291.572816 C255.94822,293.385113 255.067961,294.213592 253.307443,294.213592 L231.61165,294.213592 L231.61165,315.909385 L250.407767,315.909385 C252.220065,315.909385 253.048544,316.789644 253.048544,318.550162 L253.048544,335.482201 C253.048544,337.294498 252.168284,338.122977 250.407767,338.122977 L231.61165,338.122977 L231.61165,363.805825 L253.307443,363.805825 C255.119741,363.805825 256,364.686084 256,366.498382 L256,366.498382 L256,366.498382 Z" fill="#569A83"></path>
        <path d="M193.064642,143.721423 C194.243126,144.899906 194.350261,146.828334 192.957507,147.792547 C189.529192,150.04238 185.136662,149.720975 181.065537,149.292435 C174.208905,148.542492 166.066656,148.221087 162.531206,141.792995 C162.42407,141.792995 162.42407,141.68586 162.316935,141.578725 C157.817271,139.114623 165.423847,137.400465 167.566544,137.07906 C172.387613,136.436251 177.530086,137.72187 182.24402,138.793219 C186.208011,139.543163 189.957731,140.614511 193.064642,143.721423 L193.064642,143.721423 L193.064642,143.721423 Z M255.631404,245.928085 C252.417358,248.177917 253.810111,252.034772 251.560279,254.713143 C249.310447,257.28438 243.846569,257.28438 240.953927,257.28438 C228.633417,257.391515 216.634312,256.427301 204.528073,257.391515 C201.421162,257.605785 198.635655,258.034324 195.743013,258.784269 C194.885935,258.998538 193.493181,259.534212 192.528967,258.998538 C190.064866,257.71292 187.815034,253.641795 184.600988,254.927414 C181.922616,256.105897 179.887054,259.962752 176.673008,257.605785 C170.78059,253.213255 165.852386,257.177246 159.638564,258.355729 C153.210472,259.641347 147.103785,256.105897 140.782827,257.820055 C136.068893,259.212808 131.569229,260.605561 126.74816,258.998538 C121.927091,257.28438 120.641473,253.53466 124.819732,249.999209 C131.462094,244.535331 139.711479,243.678253 147.960863,244.321062 C160.495643,245.39241 172.923287,244.428196 185.458066,243.785387 C185.886606,243.785387 186.100875,243.999657 186.100875,244.321062 C191.457619,246.463759 194.885935,242.178364 197.992845,238.428644 C198.421385,237.89297 199.17133,238.214374 199.385599,238.535779 C203.885263,245.17814 209.349142,237.678699 215.027289,238.321509 C216.527178,238.428644 217.919931,238.857184 218.884144,240.249936 C219.312684,240.892745 219.419819,241.64269 219.419819,242.392634 C219.634089,245.82095 224.026618,245.071005 223.919484,241.64269 C223.919484,241.107016 224.562293,240.571341 225.097967,240.785611 C229.597631,242.606904 235.382914,244.963871 239.0255,240.249936 C242.132411,236.285947 242.56095,230.607798 242.882355,225.786729 C243.525164,212.823411 242.668085,199.538688 241.703871,186.682504 C240.953927,174.147724 239.561174,161.398676 241.061062,148.863896 C242.56095,136.436251 242.453815,124.330012 242.239546,111.795232 C242.132411,105.260005 241.811006,98.7247789 242.239546,92.189552 C242.453815,86.1899996 243.525164,79.7619076 242.882355,73.7623551 C242.239546,68.4056118 239.0255,63.7988126 238.382691,58.5492042 C237.739881,53.7281352 238.382691,48.6927965 239.561174,43.9788624 C240.203983,41.086221 241.703871,37.5507705 241.596737,34.5509942 C241.489601,31.9797574 241.382466,29.3013858 241.489601,26.7301491 C241.489601,25.4445307 241.275332,23.4089682 242.239546,22.3376195 C243.739434,20.5163268 244.489378,17.8379551 240.953927,17.5165505 C232.490273,16.4452019 223.812348,11.0884586 215.777234,16.338067 C215.884369,18.1593597 215.991503,20.1949222 215.562964,22.0162149 L216.741447,23.5161031 C218.77701,24.373182 220.812572,24.6945866 223.062404,24.8017215 C225.633641,24.8017215 228.419148,24.1589123 230.990385,24.373182 C233.133082,24.5874517 234.954374,26.5158793 234.204431,28.9799812 C233.668756,30.8012739 232.061733,32.301162 231.097519,33.8010502 C229.383362,36.4794218 229.704766,40.3362769 229.704766,43.4431881 C229.597631,51.2640333 229.704766,59.0848785 229.919036,66.6914539 C230.133305,73.1195459 230.776114,79.6547727 231.204654,86.0828647 C231.311789,86.1899996 231.740328,86.2971344 231.740328,86.618539 C231.954599,93.9037099 234.4187,101.081746 234.525835,108.366917 C234.63297,108.474051 232.597408,117.366246 232.597408,117.366246 C232.490273,126.794113 231.740328,144.257097 231.740328,144.257097 C231.633194,160.327327 228.847687,176.290421 231.633194,192.253517 C232.811677,198.681609 230.347576,204.895431 230.133305,211.323522 C229.919036,218.394424 230.776114,225.358191 229.704766,232.429092 C229.811901,232.857631 229.704766,233.28617 229.169091,233.50044 C214.491615,236.285947 199.599868,236.821621 184.600988,235.964542 C180.851268,235.750272 176.458737,235.428867 172.816153,236.821621 C171.423399,237.46443 169.494972,238.321509 167.780813,238.214374 C165.638116,238.000104 164.566767,236.285947 162.531206,235.964542 C159.959969,235.428867 157.495866,234.893193 155.031765,234.678924 C148.389403,233.821844 142.068446,233.393306 135.854624,236.071676 C132.426308,237.571565 128.783723,236.928756 125.355406,235.536003 C121.284282,233.821844 118.177371,231.786283 113.677707,234.036115 C111.856413,234.893193 110.24939,235.857407 108.213829,236.285947 C106.49967,236.714486 104.999783,236.285947 103.499894,235.643138 C100.071579,234.357519 97.3932069,233.92898 93.7506214,234.571789 C94.1791609,235.107463 93.8577563,236.071676 93.1078122,236.071676 C71.3594345,234.893193 49.5039219,237.46443 27.7555441,237.785835 C26.6841954,238.000104 25.9342513,239.178588 25.2914421,239.178588 L24.648633,239.178588 C24.1129587,239.178588 24.0058238,237.357295 24.1129587,237.03589 C21.2203173,233.821844 21.9702614,223.215493 22.0773962,220.108582 C22.9344752,199.860092 20.3632384,179.504467 19.827564,159.363113 C19.6132943,149.292435 19.6132943,139.114623 21.2203173,129.151081 C23.1487449,117.90192 23.1487449,106.974164 22.9344752,95.7250026 C22.3988008,73.3338157 24.648633,51.0497636 24.0058238,28.6585766 C24.0058238,28.2300371 24.4343633,28.1229022 24.648633,28.2300371 L24.8629028,28.1229022 C30.8624552,27.5872279 37.3976821,25.980205 43.2900996,27.5872279 C43.3972345,27.5872279 43.5043694,27.6943628 43.5043694,27.8014976 L44.3614483,27.9086325 L51.0038099,27.9086325 C51.2180797,27.9086325 51.5394843,28.0157674 51.5394843,28.1229022 C63.3243195,28.2300371 75.1091548,27.2658234 86.8939901,26.7301491 C90.9651149,26.6230142 95.2505096,26.7301491 99.3216345,25.4445307 C101.357197,24.8017215 103.821298,23.7303728 105.963996,23.9446425 C111.320739,24.373182 116.784618,25.980205 122.034226,27.1586885 C125.783946,27.9086325 128.355183,21.4805406 131.676364,23.7303728 C136.711703,26.9444188 142.496985,25.7659353 148.282268,25.8730701 C151.389179,25.980205 154.28182,25.3373958 157.388732,25.3373958 C159.102889,25.3373958 160.495643,25.7659353 161.995531,26.0873399 C163.495419,25.8730701 164.781038,25.980205 166.495195,26.6230142 L193.921721,25.7659353 C199.385599,25.8730701 205.385151,26.3016096 210.63476,24.2660471 C212.027514,23.7303728 212.777457,22.9804287 213.205997,22.1233498 C212.991727,21.6948103 212.777457,21.2662709 212.563188,20.7305965 C212.134648,19.9806525 211.706109,19.0164387 211.170434,18.4807643 C205.278017,16.5523367 198.52852,17.0880111 192.314698,16.7666065 C183.851043,16.338067 175.601659,17.5165505 167.138004,18.1593597 C159.31716,18.8021689 151.174909,19.3378433 143.354064,18.6950341 C138.747265,18.2664946 130.069341,16.2309321 126.105351,19.4449781 C125.676811,19.6592479 125.355406,19.6592479 124.926868,19.4449781 C117.427427,13.3382908 107.571019,22.5518893 99.0002299,19.9806525 C93.8577563,18.4807643 89.0366873,17.4094157 83.5728092,18.0522249 C78.3232007,18.5878992 73.1807272,19.3378433 67.8239839,19.3378433 C56.1462835,19.2307084 44.575718,19.9806525 32.8980177,19.552113 C30.3267809,19.4449781 27.8626789,19.4449781 25.5057119,19.1235735 C23.4701495,18.9093038 20.7917778,17.8379551 18.7562154,18.6950341 C15.5421694,19.8735176 14.8993602,20.9448663 15.2207648,21.9090801 C16.0778437,22.5518893 13.0780674,26.6230142 13.0780674,28.6585766 L12.8637977,34.0153199 C12.7566628,41.9432999 12.2209886,49.2284709 10.3996959,56.9421812 C9.54261689,61.0133061 7.50705445,66.7985888 9.00694257,70.8697137 C9.86402149,73.5480854 11.899584,75.3693781 13.0780674,77.7263452 C15.1136299,82.1188746 15.2207648,87.475618 15.006495,92.189552 L13.7208766,138.257545 C13.1852023,153.57783 12.2209886,169.005251 12.8637977,184.432672 C13.399472,198.681609 15.6493042,213.25195 13.7208766,227.393752 C13.0780674,232.107687 7.39991958,240.464207 12.8637977,243.785387 C15.9707088,245.60668 19.6132943,246.035219 23.1487449,246.356624 C31.826669,246.892299 40.5045931,245.928085 49.2896522,244.963871 C52.5036981,244.535331 55.7177441,243.892522 58.9317901,243.892522 C61.395892,243.785387 63.6457241,244.106791 66.0026912,244.963871 C68.0382536,245.713814 71.1451648,247.106568 73.5021318,247.106568 C73.6092667,247.213703 77.3589869,246.999433 77.5732567,245.928085 C80.7873027,244.535331 83.5728092,243.463982 87.6439341,244.213927 C91.6079241,244.963871 95.1433747,245.499545 99.3216345,244.749601 C101.464332,244.321062 104.678378,244.106791 106.821075,244.642466 L107.678154,245.285276 C108.535233,244.856736 107.14248,246.356624 106.285401,246.678028 C101.464332,248.606456 102.96422,254.820278 102.428546,258.998538 C102.428546,259.427078 101.892871,259.534212 101.678601,259.534212 C99.750174,259.534212 97.0718023,259.534212 96.0004536,257.49865 C93.7506214,253.320391 88.2867433,250.427749 88.2867433,259.212808 C88.2867433,259.748483 87.8582039,259.962752 87.5367993,259.962752 C87.1082598,259.962752 86.7868552,259.748483 86.7868552,259.212808 C86.7868552,258.677134 81.1087073,255.677357 80.4658981,255.355952 C77.6803915,253.856065 74.4663456,252.034772 71.1451648,253.213255 C69.1096023,253.856065 67.3954444,255.034548 65.4670168,255.891627 C62.0387012,260.069887 58.3961157,264.569551 53.360777,261.891179 C52.2894283,261.355506 48.1111686,257.71292 47.2540897,258.462864 C46.0756062,259.748483 44.7899878,261.034101 43.1829648,261.67691 C38.5761655,263.498202 33.7550966,263.176798 28.8268927,263.069663 C28.612623,263.069663 28.0769487,262.855393 28.0769487,262.426853 C27.8626789,260.498426 26.7913303,256.641571 24.1129587,258.998538 C23.4701495,259.534212 22.9344752,260.069887 22.291666,260.712696 C21.5417219,261.355506 20.5775081,262.212584 19.6132943,262.641124 C16.3992483,263.926742 6.54284066,262.212584 5.25722227,259.962752 C4.18587361,258.248594 3.86446901,256.534437 3.43592954,254.606009 C2.68598549,249.892074 3.22165981,244.749601 3.00739009,239.928532 C2.57885062,227.822292 1.7217717,215.930322 0.757557901,203.824083 C0.221883572,197.717395 -0.313790757,191.396437 0.221883572,185.182616 C0.436153303,181.218626 0.650423036,175.754747 2.68598549,172.112162 C4.40014333,169.21952 3.22165981,166.862554 0.971827632,164.719856 C0.436153303,164.077047 0.221883572,162.898563 0.221883572,162.148619 C-0.206655891,157.648955 0.650423036,152.935021 0.864692767,148.435357 C1.0789625,145.114175 1.61463683,141.792995 1.61463683,138.471814 C1.61463683,135.900577 1.0789625,133.436476 0.864692767,130.972373 C0.757557901,129.686755 0.650423036,128.401136 1.4003671,127.222653 C2.90025522,125.079956 2.68598549,123.901472 1.82890656,121.43737 C0.114748706,116.723437 1.82890656,111.045288 2.04317629,106.117085 C2.47171575,100.331802 2.68598549,94.6536539 2.04317629,88.7612364 C1.4003671,82.3331444 0.114748706,76.1193222 0.543288169,69.5840953 C0.971827632,63.6916778 1.29323223,58.3349344 1.61463683,52.5496517 C2.15031115,42.0504348 2.15031115,31.4440831 1.82890656,20.9448663 L1.82890656,23.4089682 C1.82890656,23.4089682 0.971827632,10.01711 6.54284066,6.80306398 C15.1136299,2.08912988 25.5057119,2.83907394 34.8264453,2.41053448 C46.9326851,1.87486015 59.1460598,3.05334367 71.2522996,3.05334367 C78.3232007,3.05334367 85.2869671,2.94620881 92.1435984,1.33918583 C96.9646674,0.267837165 101.785737,-0.160702299 106.71394,0.053567433 C112.713493,0.482106896 118.498776,1.98199502 124.391193,2.51766935 C130.283611,3.05334367 136.068893,2.73193908 141.961311,2.41053448 C154.71036,1.55345555 167.566544,1.87486015 180.315593,2.41053448 L200.242678,3.26761341 C203.349589,3.37474827 206.88504,4.12469233 209.884816,3.37474827 L215.562964,1.44632069 C219.741224,0.267837165 222.633865,1.33918583 226.70499,2.30339962 L241.703871,5.83885019 C243.418029,5.41031072 245.025052,5.30317585 246.31067,6.58879424 C249.096176,9.16003102 246.417806,12.374077 248.453367,15.2667183 C250.91747,18.6950341 253.167302,20.9448663 253.702976,25.3373958 C254.23865,30.0513298 254.45292,35.1938034 252.953032,39.8006027 C251.881684,42.9075137 250.48893,46.2286946 251.774548,49.5498755 C252.524493,51.5854379 253.917245,53.5138654 254.45292,55.6565628 C255.524268,60.263362 255.524268,64.8701613 255.202864,69.5840953 C254.988594,74.9408387 254.66719,80.4047168 254.024381,85.6543252 C253.595841,89.082641 252.203088,92.4038217 252.095953,95.7250026 C251.988818,98.5105091 252.845897,100.867476 253.381571,103.545848 C255.202864,112.330906 247.489153,117.90192 246.096401,125.937035 C245.346457,130.329564 250.274661,128.401136 252.524493,130.972373 C253.917245,132.686531 253.167302,135.472037 253.060167,137.293331 C252.524493,142.007265 253.917245,146.614064 253.702976,151.327998 C253.488707,157.220416 251.667413,162.041485 253.060167,167.933902 C253.810111,171.255083 254.45292,174.576264 253.702976,177.897444 C252.953032,181.218626 249.096176,189.575145 254.23865,191.075033 C254.45292,191.075033 254.66719,191.289303 254.66719,191.610708 C254.66719,193.110596 254.45292,194.181945 253.810111,195.574697 C251.560279,200.717171 255.09573,199.645823 255.738539,202.967003 C256.381348,206.073915 254.560055,207.145263 254.024381,210.037904 C253.274436,214.644704 255.738539,218.180154 255.524268,222.679819 C255.417134,226.858078 253.060167,229.215046 253.810111,233.071901 C254.024381,233.071901 254.345785,233.28617 254.345785,233.607575 C254.774325,235.643138 254.988594,238.000104 254.23865,240.035667 C253.167302,242.928308 251.988818,243.785387 255.309999,245.499545 C256.167078,244.856736 256.167078,245.60668 255.631404,245.928085 L255.631404,245.928085 L255.631404,245.928085 Z M199.599868,103.760118 C197.564307,91.2253382 196.385822,78.1548846 192.207563,66.1557796 C190.38627,61.120441 189.529192,55.6565628 183.636774,54.692349 C175.923063,53.4067306 178.4943,59.8348226 179.565649,65.9415099 C181.065537,75.3693781 181.708346,85.011516 184.172448,94.3322493 C185.886606,100.760341 188.993517,108.366917 180.422728,103.438713 C166.066656,94.7607888 161.138452,75.7979176 155.353169,61.6561153 C152.781932,55.2280233 145.282491,39.9077376 140.140018,36.0508824 C137.675916,34.2295896 125.569677,31.551218 123.212709,33.158241 C118.177371,36.5865567 133.711926,60.6919015 135.854624,64.9772962 C140.568558,74.6194341 145.603896,84.1544371 151.710583,92.8323612 C156.103114,98.9390486 162.959744,104.617196 153.210472,108.259782 C143.139795,112.116637 138.21159,106.43849 131.35496,101.188881 C125.891081,97.1177559 118.927315,96.4749467 112.070684,95.7250026 C93.2149471,93.4751704 75.3234246,95.6178677 60.2174085,108.152647 C52.9322375,114.259334 48.3254384,122.615854 44.4685832,131.186644 C43.3972345,133.329341 37.1834123,152.292212 38.0404912,152.399347 C34.1836361,151.756538 36.5406031,142.757209 31.6123993,148.006817 C27.2198697,152.613616 32.8980177,165.89834 34.8264453,170.505139 C39.2189747,180.790086 43.825774,190.860763 47.2540897,201.57425 C50.6824053,212.287736 51.4323494,212.073467 61.2887571,212.930545 C73.8235364,214.10903 86.144046,210.252175 98.4645556,208.752286 C98.4645556,208.752286 76.6090429,195.146158 119.784394,210.037904 C129.426532,213.359085 139.604344,212.502007 149.675022,212.823411 C156.853057,211.109253 157.067327,198.788743 160.817047,193.00346 C162.209801,190.860763 169.173567,179.933007 171.316264,179.075929 C174.423176,177.897444 178.815705,181.11149 181.922616,181.54003 C199.921273,184.325536 205.492286,169.540925 202.599645,155.077718 C200.135543,142.435804 201.528296,128.294002 203.349589,118.544729 C204.099533,114.902143 200.242678,107.081299 199.599868,103.760118 L199.599868,103.760118 L199.599868,103.760118 Z M119.141585,257.605785 C117.213157,255.784492 114.320516,255.355952 112.392088,253.427525 C111.320739,252.249042 110.999335,251.177693 111.213604,249.892074 C111.213604,249.892074 111.10647,249.892074 111.10647,249.78494 C109.713716,247.213703 112.927762,245.071005 115.177595,245.928085 C116.356078,246.463759 118.070236,247.213703 118.284505,248.606456 C118.391641,250.427749 117.213157,251.713368 116.891753,253.320391 C118.177371,254.070334 119.46299,255.891627 120.105799,256.748706 C120.534337,257.49865 119.677259,258.14146 119.141585,257.605785 L119.141585,257.605785 L119.141585,257.605785 Z" fill="#C1272D"></path>
    </g>
</svg>
