<?xml version="1.0" encoding="UTF-8" standalone="no" ?>
<svg width="256px" height="255px" viewBox="0 0 256 255" version="1.1" xmlns="http://www.w3.org/2000/svg" xmlns:xlink="http://www.w3.org/1999/xlink" preserveAspectRatio="xMidYMid">
    <g transform="translate(128.000000, 127.000000) scale(1, -1) translate(-128.000000, -127.000000) translate(0.000000, -1.000000)" fill="#8A4182">
        <path d="M118.267273,149.665989 L138.061818,149.665989 L142.98,156.398644 L142.98,209.126328 L113.352727,209.126328 L113.352727,156.39322 L118.267273,149.665989"></path>
        <path d="M105.508545,126.148701 L111.623636,144.865989 L106.705273,151.596836 L56.2712727,167.889718 L47.1172727,139.87435 L97.5567273,123.577853 L105.508545,126.148701"></path>
        <path d="M124.06,106.813107 L108.047636,118.383729 L100.088727,115.811073 L68.9203636,73.1516384 L92.8878182,55.8376497 L124.06,98.4985311 L124.06,106.813107"></path>
        <path d="M148.285455,118.385537 L132.269091,106.816723 L132.272727,98.4967232 L163.441818,55.8376497 L187.410909,73.1516384 L156.236364,115.814689 L148.285455,118.385537"></path>
        <path d="M144.701818,144.869605 L150.82,126.150508 L158.778182,123.581469 L209.212727,139.87435 L200.056364,167.891525 L149.62,151.595028 L144.701818,144.869605"></path>
        <path d="M128.170909,254.893559 C57.7094545,254.893559 0.383454545,197.901017 0.383454545,127.848136 C0.383454545,57.7697627 57.7094545,0.761310734 128.170909,0.761310734 C198.625455,0.761310734 255.945455,57.7697627 255.945455,127.848136 C255.945455,197.901017 198.625455,254.893559 128.170909,254.893559 L128.170909,254.893559 L128.170909,254.893559 Z M128.170909,229.168814 C184.44,229.168814 230.070909,183.811977 230.070909,127.848136 C230.070909,71.8662147 184.44,26.4894915 128.170909,26.4894915 C71.8827273,26.4894915 26.2578182,71.8662147 26.2578182,127.848136 C26.2578182,183.811977 71.8827273,229.168814 128.170909,229.168814 L128.170909,229.168814 Z"></path>
        <path d="M205.565455,99.6085876 L167.227273,111.996384 L169.761818,119.761356 L208.1,107.373559 L205.565455,99.6085876"></path>
        <path d="M156.669091,160.809944 L150.025455,165.608136 L173.718182,198.03661 L180.361818,193.238418 L156.669091,160.809944"></path>
        <path d="M100.071818,161.104633 L76.3821818,193.534915 L83.0263636,198.333107 L106.716,165.904633 L100.071818,161.104633"></path>
        <path d="M50.608,100.093107 L48.0718182,107.858079 L86.4061818,120.240452 L88.9425455,112.47548 L50.608,100.093107"></path>
        <path d="M123.807273,46.8411299 L132.018218,46.8411299 L132.018218,86.9259209 L123.807273,86.9259209 L123.807273,46.8411299 L123.807273,46.8411299 Z"></path>
    </g>
</svg>
