<?xml version="1.0" encoding="UTF-8"?>
<svg width="256px" height="187px" viewBox="0 0 256 187" version="1.1" xmlns="http://www.w3.org/2000/svg" xmlns:xlink="http://www.w3.org/1999/xlink" preserveAspectRatio="xMidYMid">
    <title>JSON-LD</title>
    <g>
        <path d="M77.8649676,171.873873 L77.8649676,186.049037 L71.7617717,186.049037 C55.4209567,186.049037 44.4778608,183.620885 38.9324839,178.764578 C33.3871068,173.908272 30.6144184,164.228472 30.6144184,149.725178 L30.6144184,126.198342 C30.6144184,116.288852 28.8425228,109.430959 25.2987315,105.624665 C21.7549404,101.818371 15.3236156,99.915224 6.00475731,99.915224 L0,99.915224 L0,85.8384978 L6.00475731,85.8384978 C15.3892414,85.8384978 21.8369726,83.9517571 25.3479509,80.1782758 C28.8589292,76.4047944 30.6144184,69.6289344 30.6144184,59.8506958 L30.6144184,36.2254211 C30.6144184,21.7221275 33.3871068,12.0587339 38.9324839,7.23524036 C44.395094,2.48373923 55.0954996,0.0725296984 71.0337007,0 L77.8649676,0 L77.8649676,14.0767261 L71.1711398,14.0767261 C61.9179072,14.0767261 55.8803371,15.5204929 53.0584293,18.4080264 C50.2365215,21.2955601 48.8255676,27.3659431 48.8255676,36.6191757 L48.8255676,61.0319594 C48.8255676,71.3352042 47.3325814,78.8165412 44.3466093,83.4759703 C41.360637,88.1353996 36.258234,91.2854361 29.0394001,92.9260802 C36.3238598,94.6979758 41.4426692,97.9136382 44.3958286,102.573067 C47.3489879,107.232497 48.8255676,114.68102 48.8255676,124.91864 L48.8255676,149.331423 C48.8255676,158.584656 50.2365215,164.655039 53.0584293,167.542573 C55.8250056,170.373488 61.6823761,171.816699 70.630541,171.872208 L77.8649676,171.873873 Z M178.135032,186.049037 L178.135032,171.873873 L185.025738,171.873873 C194.213345,171.873873 200.201695,170.462919 202.99079,167.641011 C205.779885,164.819104 207.174432,158.715908 207.174432,149.331423 L207.174432,124.91864 C207.174432,114.68102 208.651012,107.232497 211.604171,102.573067 C214.55733,97.9136382 219.676141,94.6979758 226.9606,92.9260802 C219.676141,91.2854361 214.55733,88.1353996 211.604171,83.4759703 C208.651012,78.8165412 207.174432,71.3352042 207.174432,61.0319594 L207.174432,36.6191757 C207.174432,27.3003173 205.779885,21.2135278 202.99079,18.3588071 C200.201695,15.5040865 194.213345,14.0767261 185.025738,14.0767261 L178.135032,14.0767261 L178.135032,0 L184.336667,0 C200.677482,0 211.587765,2.41174679 217.067516,7.23524036 C222.547267,12.0587339 225.287143,21.7221275 225.287143,36.2254211 L225.287143,59.8506958 C225.287143,69.6289344 227.059039,76.4047944 230.60283,80.1782758 C234.146621,83.9517571 240.577946,85.8384978 249.896804,85.8384978 L256,85.8384978 L256,99.915224 L249.896804,99.915224 C240.577946,99.915224 234.146621,101.818371 230.60283,105.624665 C227.059039,109.430959 225.287143,116.288852 225.287143,126.198342 L225.287143,149.725178 C225.287143,164.228472 222.547267,173.908272 217.067516,178.764578 C211.587765,183.620885 200.677482,186.049037 184.336667,186.049037 L178.135032,186.049037 Z" fill="#000000"></path>
        <g transform="translate(56.657194, 21.814375)">
            <path d="M118.050587,93.4292366 C117.161537,92.9581519 116.255713,92.556961 115.344297,92.2005024 L115.995708,92.147383 C115.995708,92.147383 110.193119,89.5780845 109.68569,70.9276048 C109.183852,52.2743295 115.21709,49.0927607 115.21709,49.0927607 L114.350407,49.1305033 C118.908885,46.7918545 122.82993,43.0972647 125.417401,38.2214685 C132.159363,25.5399252 127.335289,9.78724534 114.65095,3.04388501 C101.961019,-3.69108807 86.2125332,1.12180364 79.4747644,13.8159279 C76.7041715,19.0230209 75.9171666,24.7431351 76.7922378,30.1473289 L76.4958877,29.691621 C76.4958877,29.691621 78.0237678,36.460143 62.1564619,46.3095868 C46.2919519,56.1646222 39.5905279,51.9290538 39.5905279,51.9290538 C39.1362178,51.6480805 38.7014779,51.3615156 38.2275975,51.1140913 C25.5376668,44.370731 9.78498704,49.1892142 3.04442245,61.8791448 C-3.69334637,74.5676775 1.12653473,90.3133679 13.8122717,97.059524 C23.2703098,102.079302 34.4225753,100.680026 42.2800439,94.3839868 L42.1095029,94.7138858 C42.1095029,94.7138858 47.8855321,89.9625007 64.5314555,98.8991306 C77.6715026,105.950024 79.6229394,112.86113 79.8731595,115.458385 C79.5292817,125.093954 84.5518549,134.545003 93.6380577,139.371873 C106.323795,146.116632 122.076475,141.293955 128.814243,128.60682 C135.557604,115.921083 130.740518,100.167005 118.050587,93.4292366 Z M88.7175295,96.8484446 C86.615122,97.5921153 80.6084429,98.415465 67.9632444,91.634362 C54.2682401,84.2815272 52.2357264,78.1392541 51.9379785,76.2954539 C52.1322835,74.0588501 52.0078724,71.82644 51.6262519,69.648547 L51.7101245,69.774356 C51.7101245,69.774356 50.5946184,63.7998283 66.2648235,54.069204 C80.2897269,45.3632239 86.6654455,47.0951939 87.8522434,47.5495041 C88.6154844,48.0681165 89.4066829,48.5517821 90.2370221,48.9935114 C91.8152256,49.8322377 93.4423548,50.4892401 95.0904523,50.9757014 C97.019523,52.8125122 100.570132,58.0279927 100.939171,71.7397716 C101.316598,85.5549934 97.2571621,90.882304 95.0443224,92.7666427 C92.7657823,93.7982762 90.6326214,95.1751853 88.7175295,96.8484446 L88.7175295,96.8484446 Z" fill="#0C479C"></path>
            <path d="M87.002334,11.3235125 C79.4328281,19.6031401 79.27347,31.7828454 86.5661962,38.6743808 C82.9610705,35.2034513 83.0393516,27.9792211 86.68222,21.0653198 C87.150509,20.4460601 88.5078479,18.9824825 90.4914358,19.6478722 C90.6913323,19.7163681 90.8227327,19.7345405 90.899616,19.7219597 C91.3483346,19.8184132 91.8082362,19.8757262 92.2835145,19.854758 C95.2959403,19.717766 97.6262018,17.1694356 97.4906077,14.1556121 C97.4291011,12.8038647 96.8685523,11.6072816 96.0018683,10.6888762 C102.994051,6.10803215 111.017867,5.58382815 114.305674,8.5864687 L114.431483,8.59485596 C106.920689,1.73686969 94.6431315,2.96280812 87.002334,11.3235125 Z" fill="#FFFFFF"></path>
            <path d="M10.9102783,60.2911561 C3.33937458,68.5721815 3.18141444,80.7490911 10.4727427,87.6420243 C6.86901488,84.169697 6.94589814,76.9454668 10.5887665,70.0315655 C11.0584533,69.4109079 12.4171901,67.9487282 14.400778,68.6141178 C14.5978788,68.6826138 14.7306771,68.6993884 14.8089582,68.6896032 C15.2576769,68.7860567 15.7189764,68.8433697 16.1928568,68.8224015 C19.2066803,68.6840117 21.5355441,66.1356813 21.39995,63.1246535 C21.3370455,61.7729061 20.7778945,60.5749252 19.9140063,59.6579177 C26.9019951,55.0784715 34.9272091,54.5500738 38.2150166,57.5541123 L38.3394277,57.5652953 C30.8286327,50.7031153 18.5482802,51.9276559 10.9102783,60.2911561 Z" fill="#FFFFFF"></path>
            <path d="M91.4601648,101.746607 C83.8892611,110.030428 83.731301,122.210133 91.0226292,129.101668 C87.4161057,125.630739 87.4957846,118.403713 91.1372551,111.492607 C91.6069419,110.870552 92.9642809,109.40977 94.9492667,110.07516 C95.1491631,110.14086 95.2777679,110.160431 95.3574469,110.149248 C95.8047676,110.245701 96.267465,110.303014 96.7413455,110.283444 C99.7523733,110.143656 102.081237,107.593927 101.945643,104.580105 C101.884136,103.229755 101.323587,102.033172 100.459699,101.114766 C107.449086,96.5367179 115.471504,96.0097181 118.762107,99.0123586 L118.885121,99.0221438 C111.378519,92.1627596 99.0967687,93.3886981 91.4601648,101.746607 L91.4601648,101.746607 Z" fill="#FFFFFF"></path>
        </g>
    </g>
</svg>
