<?xml version="1.0" encoding="UTF-8"?>
<svg width="512px" height="344px" viewBox="0 0 512 344" version="1.1" xmlns="http://www.w3.org/2000/svg" xmlns:xlink="http://www.w3.org/1999/xlink" preserveAspectRatio="xMidYMid">
		<g>
				<path d="M55.2100084,227.606512 C55.2100084,200.462505 55.2202909,173.316785 55.179161,146.174491 C55.1774473,144.757224 55.4687839,144.05973 56.966597,143.655286 C70.4640526,140.010151 83.9392294,136.272473 97.4212612,132.567356 C99.7005421,131.940126 99.7056833,131.950408 99.7056833,134.313662 C99.7056833,178.456306 99.7313895,222.600663 99.6851184,266.741593 C99.6748359,276.191182 100.104986,285.647627 99.2189797,295.092076 C98.1427479,306.55703 95.534428,317.528425 88.1858895,326.806641 C81.7062197,334.982918 72.9369866,339.231292 62.8790172,341.095846 C51.5700141,343.190043 40.1701824,343.755579 28.7172246,342.703339 C20.8065778,341.978425 13.2164012,340.156714 6.70588399,335.22627 C1.79943209,331.510871 -0.927136189,326.768938 0.287909009,320.482922 C1.54922532,313.960408 6.02552723,310.238154 12.0459134,308.269061 C15.9224045,307.00089 19.9771252,306.774676 24.0318458,307.360776 C27.1560029,307.813205 29.8928537,309.113937 32.2218331,311.281825 C34.5868012,313.482273 36.7478337,315.864379 38.6963617,318.440138 C40.1907473,320.410944 41.7691065,322.306346 43.822173,323.728755 C47.3439189,326.172555 50.6771529,325.382519 52.7559256,321.644841 C54.1594827,319.120494 54.4645293,316.321949 54.7661485,313.537113 C55.2031534,309.51324 55.2031534,305.470516 55.2048672,301.434646 C55.2134359,276.821841 55.2100084,252.214176 55.2100084,227.606512 Z M206.567966,268.825507 C201.584395,272.912788 196.657379,276.215175 191.34991,278.943457 C173.616077,288.065722 156.194146,286.691298 139.382307,276.796134 C127.883078,270.026842 120.510547,259.91746 117.92622,246.62394 C117.521776,244.545168 117.304131,242.44583 117.304131,240.303649 C117.321268,206.376639 117.333264,172.451343 117.269856,138.524334 C117.266428,136.635787 117.758273,136.198782 119.60569,136.209064 C132.969474,136.293038 146.334971,136.284469 159.700468,136.214206 C161.328526,136.205637 161.717546,136.642642 161.714118,138.241566 C161.667847,171.412814 161.671275,204.585776 161.683271,237.758737 C161.686698,248.623881 167.851039,256.496825 178.258612,259.04345 C181.908889,259.936311 185.439204,259.722093 188.83756,258.015203 C196.138114,254.349503 201.616957,248.714709 206.173805,242.065379 C206.744482,241.230785 206.557683,240.351634 206.557683,239.477624 C206.56968,205.828241 206.585103,172.177144 206.523408,138.531189 C206.519981,136.675203 206.960413,136.185072 208.842105,136.198782 C222.274439,136.287897 235.708486,136.2759 249.140819,136.205637 C250.710609,136.197068 251.03108,136.623791 251.029366,138.131886 C250.986522,185.563206 250.984808,232.992813 251.032793,280.41385 C251.034507,282.021343 250.556372,282.297256 249.080838,282.290401 C235.511405,282.242416 221.940258,282.242416 208.369112,282.288687 C206.97241,282.293828 206.483992,282.004205 206.530263,280.511534 C206.645084,276.773856 206.567966,273.022468 206.567966,268.825507 Z M312.626502,173.885748 C312.626502,209.252303 312.607651,244.617145 312.671059,279.9837 C312.676201,281.901381 312.141512,282.316107 310.304378,282.305825 C296.93888,282.21671 283.573383,282.225279 270.2096,282.292115 C268.670657,282.305825 268.295347,281.911663 268.298774,280.381289 C268.334763,213.418417 268.334763,146.457259 268.298774,79.4858189 C268.298774,78.0959717 268.622672,77.482451 270.022802,77.1002859 C283.511688,73.4174479 296.98001,69.6849113 310.439763,65.8838249 C312.230627,65.3782701 312.681342,65.5924883 312.677914,67.5718637 C312.607651,103.017251 312.626502,138.450643 312.626502,173.885748 Z M374.38473,207.127259 C374.38473,231.38532 374.365879,255.646808 374.420719,279.904868 C374.424146,281.664884 374.139665,282.334958 372.13801,282.317821 C358.705677,282.213282 345.273344,282.237275 331.837583,282.300683 C330.327774,282.307538 329.916475,281.976786 329.919903,280.408709 C329.96446,235.589136 329.962746,190.76785 329.919903,145.951705 C329.919903,144.621838 330.267793,144.064871 331.532537,143.720409 C345.215077,139.998154 358.904472,136.265618 372.556164,132.416547 C374.353883,131.909278 374.407009,132.469673 374.403581,133.934925 C374.374448,158.331798 374.38473,182.726958 374.38473,207.127259 Z M467.32969,270.746615 C465.982686,271.853694 464.923592,272.674578 463.9022,273.548588 C456.404565,279.968276 447.758722,283.656256 437.921826,284.550831 C427.995815,285.453974 418.249747,284.968984 408.901268,281.042795 C388.199229,272.352394 382.245678,251.586946 388.44258,234.003922 C391.525608,225.244971 397.820193,218.806432 405.290407,213.541807 C415.026193,206.681686 425.870771,202.004876 437.001545,197.991285 C446.557387,194.539802 456.171496,191.240843 466.058091,188.82789 C466.820707,188.649661 467.382816,188.41145 467.355396,187.364352 C467.122327,179.842725 467.802683,172.300534 466.534512,164.802899 C464.435174,152.448512 455.194661,147.643171 444.43577,148.782811 C443.551478,148.877067 442.672327,149.003884 441.803458,149.195824 C433.445524,151.048382 429.272555,156.75858 429.166302,166.550919 C429.132028,169.513984 428.773855,172.4085 427.978677,175.263599 C426.426024,180.797281 422.890568,184.43899 417.408298,186.001925 C411.543863,187.679681 405.595454,187.712242 399.876687,185.479233 C388.687646,181.121179 384.663773,168.060729 391.102313,157.181875 C394.956525,150.671358 400.709567,146.213908 407.316054,142.777849 C418.006395,137.215033 429.447357,134.253681 441.412724,133.288843 C454.377205,132.243458 467.283419,132.661612 479.954849,135.871457 C487.298246,137.73087 494.199497,140.628813 500.08107,145.566112 C507.746651,151.990942 511.693406,160.384865 511.755101,170.199482 C511.993312,207.005584 511.919621,243.806543 512.000167,280.612645 C512.003594,281.981927 511.575158,282.297256 510.250433,282.292115 C496.480492,282.249271 482.703696,282.252699 468.9269,282.290401 C467.699859,282.293828 467.259426,282.040194 467.314266,280.722324 C467.399953,277.536472 467.32969,274.342052 467.32969,270.746615 Z M467.32969,206.983305 C459.11571,210.589024 451.477548,214.477512 444.55916,219.678728 C440.872895,222.451567 437.647626,225.647702 434.735974,229.243138 C427.488546,238.19917 431.329049,252.109638 437.637344,257.689592 C440.365626,260.099117 443.393813,260.95599 446.924128,260.296198 C449.702109,259.770078 452.320711,258.827518 454.719954,257.324564 C457.32656,255.694792 459.773788,253.773684 462.498643,252.376982 C466.457393,250.354763 467.588465,247.473958 467.458221,243.045641 C467.100048,231.131685 467.32969,219.209162 467.32969,206.983305 Z" fill="#252525"></path>
				<g transform="translate(46.234114, 62.357860)">
						<circle fill="#6B85DD" cx="31.6789298" cy="30.8227425" r="28.2541806"></circle>
						<path d="M31.6789298,61.6454849 C14.6559991,61.6454849 0.856187291,47.8456731 0.856187291,30.8227425 C0.856187291,13.7998119 14.6559991,0 31.6789298,0 C48.7018604,0 62.5016722,13.7998119 62.5016722,30.8227425 C62.5016722,47.8456731 48.7018604,61.6454849 31.6789298,61.6454849 Z M31.6789298,56.5083612 C45.8647053,56.5083612 57.3645485,45.008518 57.3645485,30.8227425 C57.3645485,16.636967 45.8647053,5.13712375 31.6789298,5.13712375 C17.4931543,5.13712375 5.99331104,16.636967 5.99331104,30.8227425 C5.99331104,45.008518 17.4931543,56.5083612 31.6789298,56.5083612 Z" fill="#4266D5"></path>
				</g>
				<g transform="translate(323.638796, 62.357860)">
						<circle fill="#D66661" cx="31.6087224" cy="30.8227425" r="28.2541806"></circle>
						<path d="M31.6087224,61.6454849 C14.5857918,61.6454849 0.785979933,47.8456731 0.785979933,30.8227425 C0.785979933,13.7998119 14.5857918,0 31.6087224,0 C48.631653,0 62.4314649,13.7998119 62.4314649,30.8227425 C62.4314649,47.8456731 48.631653,61.6454849 31.6087224,61.6454849 Z M31.6087224,56.5083612 C45.7944979,56.5083612 57.2943411,45.008518 57.2943411,30.8227425 C57.2943411,16.636967 45.7944979,5.13712375 31.6087224,5.13712375 C17.4229469,5.13712375 5.92310368,16.636967 5.92310368,30.8227425 C5.92310368,45.008518 17.4229469,56.5083612 31.6087224,56.5083612 Z" fill="#C93D39"></path>
				</g>
				<g transform="translate(361.000000, 0.000000)">
						<circle fill="#6BAB5B" cx="30.8495251" cy="31.3193579" r="28.2541806"></circle>
						<path d="M30.8495251,62.1421003 C13.8265945,62.1421003 0.0267826087,48.3422885 0.0267826087,31.3193579 C0.0267826087,14.2964272 13.8265945,0.496615385 30.8495251,0.496615385 C47.8724557,0.496615385 61.6722676,14.2964272 61.6722676,31.3193579 C61.6722676,48.3422885 47.8724557,62.1421003 30.8495251,62.1421003 Z M30.8495251,57.0049766 C45.0353006,57.0049766 56.5351438,45.5051334 56.5351438,31.3193579 C56.5351438,17.1335823 45.0353006,5.63373913 30.8495251,5.63373913 C16.6637496,5.63373913 5.16390635,17.1335823 5.16390635,31.3193579 C5.16390635,45.5051334 16.6637496,57.0049766 30.8495251,57.0049766 Z" fill="#3B972E"></path>
				</g>
				<g transform="translate(397.270903, 62.357860)">
						<circle fill="#AA7DC0" cx="31.1806288" cy="30.8227425" r="28.2541806"></circle>
						<path d="M31.1806288,61.6454849 C14.1576981,61.6454849 0.357886288,47.8456731 0.357886288,30.8227425 C0.357886288,13.7998119 14.1576981,0 31.1806288,0 C48.2035594,0 62.0033712,13.7998119 62.0033712,30.8227425 C62.0033712,47.8456731 48.2035594,61.6454849 31.1806288,61.6454849 Z M31.1806288,56.5083612 C45.3664043,56.5083612 56.8662475,45.008518 56.8662475,30.8227425 C56.8662475,16.636967 45.3664043,5.13712375 31.1806288,5.13712375 C16.9948532,5.13712375 5.49501003,16.636967 5.49501003,30.8227425 C5.49501003,45.008518 16.9948532,56.5083612 31.1806288,56.5083612 Z" fill="#945BB0"></path>
				</g>
		</g>
</svg>
