<?xml version="1.0" encoding="UTF-8"?>
<svg width="512px" height="123px" viewBox="0 0 512 123" version="1.1" xmlns="http://www.w3.org/2000/svg" xmlns:xlink="http://www.w3.org/1999/xlink" preserveAspectRatio="xMidYMid">
    <title>Katalon</title>
    <g>
        <path d="M154.352105,63.5127186 L186.866714,20.4262416 L203.457064,20.4262416 L176.86663,55.4366729 L203.783199,102.450174 L187.518982,102.450174 L167.627355,67.5507415 L154.338794,84.9382519 L154.338794,102.436351 L140.2756,102.436351 L140.2756,20.4262416 L154.338794,20.4262416 L154.338794,63.5127186 L154.352105,63.5127186 Z M208.307095,86.6308731 C208.307095,76.4178035 215.562941,70.0210674 228.416827,69.0078498 L244.680532,67.7729428 L244.680532,66.5380359 C244.680532,59.0169815 240.291799,55.9916643 233.47114,55.9916643 C225.563025,55.9916643 221.160981,59.3635951 221.160981,65.1920282 L209.733996,65.1920282 C209.733996,53.1885483 219.407946,45.3346016 234.123408,45.3346016 C248.838359,45.3346016 257.738188,53.4107497 257.738188,68.7856484 L257.738188,102.450174 L245.985068,102.450174 L244.993354,94.2630281 C242.68328,99.9803606 235.318892,103.907283 226.867562,103.907283 C215.332036,103.907283 208.293783,97.066144 208.293783,86.6308731 L208.307095,86.6308731 Z M244.789584,80.0119356 L244.789584,77.0977191 L233.47114,77.999836 C225.115039,78.7908523 221.935614,81.5939682 221.935614,86.0758817 C221.935614,91.1271222 225.237403,93.5969361 231.270118,93.5969361 C239.389497,93.5969361 244.64219,88.6855313 244.786532,80.3787657 L244.789584,80.0119356 Z M275.212224,102.450174 L275.212224,58.4614782 L264.776953,58.4614782 L264.776953,47.0134504 L275.212224,47.0134504 L275.212224,29.7372455 L288.609326,29.7372455 L288.609326,47.0134504 L299.153137,47.0134504 L299.153137,58.4614782 L288.609326,58.4614782 L288.609326,102.450174 L275.212224,102.450174 Z M304.779337,86.6308731 C304.779337,76.4178035 312.035183,70.0210674 324.888557,69.0078498 L341.152773,67.7729428 L341.152773,66.5380359 C341.152773,59.0169815 336.764041,55.9916643 329.943382,55.9916643 C322.035267,55.9916643 317.633223,59.3635951 317.633223,65.1920282 L306.206238,65.1920282 C306.206238,53.1885483 315.880188,45.3346016 330.59565,45.3346016 C345.310601,45.3346016 354.21043,53.4107497 354.21043,68.7856484 L354.21043,102.450174 L342.45731,102.450174 L341.465084,94.2630281 C339.155521,99.9803606 331.791134,103.907283 323.339804,103.907283 C311.804278,103.907283 304.766025,97.066144 304.766025,86.6308731 L304.779337,86.6308731 Z M341.261314,80.0119356 L341.261314,77.0977191 L329.943382,77.999836 C321.586768,78.7908523 318.407344,81.5939682 318.407344,86.0758817 C318.407344,91.1271222 321.709133,93.5969361 327.741848,93.5969361 C335.861732,93.5969361 341.113934,88.6855313 341.258262,80.3787657 L341.261314,80.0119356 Z M367.618795,102.450174 L367.618795,18.9691333 L380.907357,18.9691333 L380.907357,102.450174 L367.618795,102.450174 Z M420.802224,45.4592698 C437.609656,45.4592698 449.811274,57.3514955 449.811274,74.6273932 C449.811274,91.9038029 437.609656,103.796182 420.802224,103.796182 C403.994792,103.796182 391.793174,91.9038029 391.793174,74.6273932 C391.793174,57.3514955 403.994792,45.4592698 420.802224,45.4592698 Z M420.802224,91.5710129 C430.028187,91.5710129 436.400348,84.7298741 436.400348,74.6273932 C436.400348,64.5254242 430.028187,57.6842855 420.802224,57.6842855 C411.576261,57.6842855 405.2041,64.5254242 405.2041,74.6273932 C405.2041,84.7298741 411.576261,91.5710129 420.802224,91.5710129 Z M460.461066,102.450174 L460.461066,47.0273764 L472.879766,47.0273764 L473.980533,54.2155895 C477.390862,48.6093065 483.980617,45.3483228 491.345004,45.3483228 C504.973523,45.3483228 512,53.9933882 512,68.3555813 L512,102.463998 L498.60085,102.463998 L498.60085,71.6025879 C498.60085,62.2916353 494.089753,57.7953861 487.173865,57.7953861 C478.940128,57.7953861 473.885303,63.6238193 473.885303,72.6019819 L473.885303,102.450174 L460.461066,102.450174 Z" fill="#000000"></path>
        <g>
            <polygon fill="#19D89F" points="80.2187774 81.9129346 40.1087743 81.9129346 40.1087743 122.876314 80.2187774 122.876314"></polygon>
            <polygon fill="#000000" points="40.1098495 0 0 40.9633791 0 81.9267582 40.1098495 81.9267582 80.2059778 40.9633791 80.2059778 0"></polygon>
        </g>
    </g>
</svg>
