<?xml version="1.0" encoding="UTF-8"?>
<svg width="256px" height="256px" viewBox="0 0 256 256" version="1.1" xmlns="http://www.w3.org/2000/svg" xmlns:xlink="http://www.w3.org/1999/xlink" preserveAspectRatio="xMidYMid">
    <defs>
        <linearGradient x1="0%" y1="0%" x2="50%" y2="71.921%" id="linearGradient-1">
            <stop stop-color="#5AE8FA" offset="0%"></stop>
            <stop stop-color="#2684FF" offset="100%"></stop>
        </linearGradient>
    </defs>
    <g>
        <path d="M59.6689455,0 L196.331055,0 C217.078691,0 224.603927,2.16087273 232.188509,6.21730909 C239.774255,10.2737455 245.726255,16.2269091 249.782691,23.8114909 C253.840291,31.3972364 256,38.9201455 256,59.6689455 L256,196.331055 C256,217.078691 253.840291,224.602764 249.782691,232.188509 C245.726255,239.773091 239.774255,245.726255 232.188509,249.782691 C224.603927,253.839127 217.079855,256 196.331055,256 L59.6689455,256 C38.9213091,256 31.3972364,253.839127 23.8114909,249.782691 C16.2269091,245.726255 10.2737455,239.773091 6.21730909,232.188509 C2.16087273,224.602764 5.68434189e-14,217.079855 5.68434189e-14,196.331055 L5.68434189e-14,59.6689455 C5.68434189e-14,38.9213091 2.16087273,31.3972364 6.21730909,23.8114909 C10.2737455,16.2269091 16.2269091,10.2737455 23.8114909,6.21730909 C31.3972364,2.16087273 38.9201455,0 59.6689455,0 Z M73.3556364,66.048 L73.3556364,198.981818 L102.586182,198.981818 L102.586182,156.16 L119.342545,139.217455 L159.371636,198.981818 L196.049455,198.981818 L139.077818,118.551273 L191.022545,66.048 L154.530909,66.048 L102.586182,121.157818 L102.586182,66.048 L73.3556364,66.048 L73.3556364,66.048 Z" fill="url(#linearGradient-1)"></path>
    </g>
</svg>
