<?xml version="1.0" encoding="UTF-8"?>
<svg width="512px" height="100px" viewBox="0 0 512 100" version="1.1" xmlns="http://www.w3.org/2000/svg" xmlns:xlink="http://www.w3.org/1999/xlink" preserveAspectRatio="xMidYMid">
    <defs>
        <linearGradient x1="-0.944%" y1="34.58%" x2="100.193%" y2="93.74%" id="linearGradient-1">
            <stop stop-color="#FEEC7F" offset="0%"></stop>
            <stop stop-color="#F3A21B" offset="100%"></stop>
        </linearGradient>
        <linearGradient x1="50%" y1="-26.499%" x2="50%" y2="107.049%" id="linearGradient-2">
            <stop stop-color="#FEEC7F" offset="0%"></stop>
            <stop stop-color="#FEE97B" offset="19%"></stop>
            <stop stop-color="#FCDF6E" offset="39%"></stop>
            <stop stop-color="#FACF58" offset="61%"></stop>
            <stop stop-color="#F6B93A" offset="82%"></stop>
            <stop stop-color="#F3A21B" offset="100%"></stop>
        </linearGradient>
        <linearGradient x1="-31.443%" y1="50%" x2="46.858%" y2="50%" id="linearGradient-3">
            <stop stop-color="#FEEC7F" offset="0%"></stop>
            <stop stop-color="#FDE373" offset="11%"></stop>
            <stop stop-color="#F6B434" offset="71%"></stop>
            <stop stop-color="#F3A21B" offset="100%"></stop>
        </linearGradient>
        <linearGradient x1="50.002%" y1="-9.408%" x2="50.002%" y2="98.339%" id="linearGradient-4">
            <stop stop-color="#FEEC7F" offset="0%"></stop>
            <stop stop-color="#F7BC3F" offset="61%"></stop>
            <stop stop-color="#F3A21B" offset="100%"></stop>
        </linearGradient>
        <linearGradient x1="50%" y1="0.98%" x2="50%" y2="101.601%" id="linearGradient-5">
            <stop stop-color="#F9C32E" offset="0%"></stop>
            <stop stop-color="#F19819" offset="52%"></stop>
            <stop stop-color="#E96C04" offset="100%"></stop>
        </linearGradient>
        <linearGradient x1="-25.306%" y1="50%" x2="74.694%" y2="50%" id="linearGradient-6">
            <stop stop-color="#F7B425" offset="0%"></stop>
            <stop stop-color="#F3A620" offset="6%"></stop>
            <stop stop-color="#EC8816" offset="21%"></stop>
            <stop stop-color="#E6720E" offset="37%"></stop>
            <stop stop-color="#E26208" offset="55%"></stop>
            <stop stop-color="#E05805" offset="74%"></stop>
            <stop stop-color="#DF5504" offset="100%"></stop>
        </linearGradient>
        <linearGradient x1="50%" y1="-34.375%" x2="50%" y2="144.062%" id="linearGradient-7">
            <stop stop-color="#FEEC7F" offset="0%"></stop>
            <stop stop-color="#F7BD40" offset="61%"></stop>
            <stop stop-color="#F3A21B" offset="100%"></stop>
        </linearGradient>
        <linearGradient x1="50.354%" y1="-109.762%" x2="50.354%" y2="69.444%" id="linearGradient-8">
            <stop stop-color="#FEEC7F" offset="0%"></stop>
            <stop stop-color="#FEEA7C" offset="23%"></stop>
            <stop stop-color="#FCE271" offset="42%"></stop>
            <stop stop-color="#FBD560" offset="60%"></stop>
            <stop stop-color="#F8C347" offset="78%"></stop>
            <stop stop-color="#F4AC28" offset="94%"></stop>
            <stop stop-color="#F3A21B" offset="100%"></stop>
        </linearGradient>
        <linearGradient x1="50.006%" y1="7.134%" x2="50.006%" y2="136.776%" id="linearGradient-9">
            <stop stop-color="#F9C32E" offset="0%"></stop>
            <stop stop-color="#F19819" offset="52%"></stop>
            <stop stop-color="#E96C04" offset="100%"></stop>
        </linearGradient>
        <linearGradient x1="75.144%" y1="18.361%" x2="25.511%" y2="69.806%" id="linearGradient-10">
            <stop stop-color="#E66A09" offset="0%"></stop>
            <stop stop-color="#E66A09" offset="100%"></stop>
        </linearGradient>
        <linearGradient x1="50%" y1="-28.81%" x2="50%" y2="101.905%" id="linearGradient-11">
            <stop stop-color="#F7B425" offset="0%"></stop>
            <stop stop-color="#F3A620" offset="6%"></stop>
            <stop stop-color="#EC8816" offset="21%"></stop>
            <stop stop-color="#E6720E" offset="37%"></stop>
            <stop stop-color="#E26208" offset="55%"></stop>
            <stop stop-color="#E05805" offset="74%"></stop>
            <stop stop-color="#DF5504" offset="100%"></stop>
        </linearGradient>
        <linearGradient x1="50.001%" y1="-14.918%" x2="50.001%" y2="65.637%" id="linearGradient-12">
            <stop stop-color="#F7B425" offset="0%"></stop>
            <stop stop-color="#EF961A" offset="35%"></stop>
            <stop stop-color="#DF5504" offset="100%"></stop>
        </linearGradient>
    </defs>
    <g>
        <path d="M441.498934,22.2107553 C441.253316,24.9125569 440.884888,27.7371676 440.762079,30.6845875 C440.63927,33.7548165 440.516461,36.8250455 440.516461,39.7724654 L454.148278,39.7724654 L450.341194,50.3340532 L440.516461,50.3340532 L440.516461,79.1942061 C440.516461,81.0363435 440.63927,82.5100534 440.762079,83.7381451 C440.884888,84.8434275 441.376125,85.8259008 441.744553,86.5627558 C442.11298,87.2996107 442.849835,87.6680382 443.709499,88.0364657 C444.569163,88.282084 445.674446,88.4048932 447.025346,88.4048932 C447.762201,88.4048932 448.499056,88.282084 449.358721,88.1592749 C450.218385,88.0364657 451.200858,87.7908474 452.674568,87.2996107 L454.516705,96.5102978 C450.590083,98.1868493 446.381168,99.1036428 442.11298,99.2120994 C438.183087,99.2120994 434.867239,98.4752444 431.91982,96.8787253 C429.095209,95.2822062 427.130262,93.3172596 426.270598,90.7382672 C426.02498,90.1242214 425.902171,89.6329848 425.656552,89.018939 C425.533743,88.6505115 425.410934,88.0364657 425.410934,87.2996107 C425.410934,86.5627558 425.288125,85.8259008 425.288125,84.9662367 L425.288125,50.3340532 L419.516094,50.3340532 L419.516094,39.7724654 L425.288125,39.7724654 L425.288125,32.4039157 C425.288125,30.4389691 425.410934,28.2284042 425.902171,26.0178393 L441.498934,22.2107553 Z M485.464614,38.2987554 C493.692828,38.2987554 500.201713,41.2461753 505.236889,47.141015 C507.693072,49.8428166 509.166782,52.9130456 510.394874,56.228893 C511.377347,59.5447403 511.991393,63.5974426 511.991393,68.5098091 C512.114202,73.4221755 511.377347,77.7204962 510.272064,81.2819618 C509.166782,84.8434275 507.324645,88.1592749 504.745652,90.9838856 C502.657896,93.5628779 499.956095,95.4050154 496.885866,97.0015345 C493.938446,98.4752444 490.008553,99.0892902 485.464614,99.0892902 C481.534721,99.0892902 477.973255,98.3524352 474.780217,97.0015345 C471.46437,95.5278245 468.762568,93.5628779 466.552003,90.8610764 C464.218629,88.282084 462.62211,85.0890458 461.271209,81.2819618 C460.043118,77.597687 459.429072,73.4221755 459.429072,68.8782366 C459.429072,64.3342976 460.043118,60.1587861 461.271209,56.3517021 C462.499301,52.5446181 464.218629,49.3515799 466.552003,46.6497784 C468.885377,43.9479769 471.587179,41.9830303 474.780217,40.3865112 C478.096064,38.9128013 481.65753,38.2987554 485.464614,38.2987554 Z M375.059178,38.1759463 C376.532888,40.6321295 377.146934,42.9655036 377.146934,45.4216868 C378.252216,44.5620227 379.480308,43.8251677 380.462781,43.0883127 C381.445254,42.3514578 382.550537,41.6146028 383.901438,41.1233662 C385.497957,40.263702 386.971667,39.6496562 388.936613,39.2812287 C390.778751,38.9128013 392.620888,38.6671829 394.340216,38.6671829 C397.656064,38.6671829 400.480674,39.4040379 403.059667,41.000557 C405.469961,42.3837139 407.333684,44.5508334 408.340461,47.141015 C409.077316,49.1059616 409.445743,51.8077632 409.445743,55.3692288 L409.445743,97.7383894 L394.708644,97.7383894 L394.708644,60.1587861 L394.340216,60.1587861 C394.340216,56.8429388 393.971789,54.6323739 393.234934,53.5270914 C392.498079,52.421809 391.147178,51.8077632 389.305041,51.8077632 C387.708522,51.8077632 385.989193,52.1761907 384.147056,53.2814731 C382.304919,54.2639464 380.462781,55.6148472 378.743453,57.0885571 L378.743453,97.9840077 L363.515117,97.9840077 L363.515117,55.6148472 C363.515117,50.4568624 362.778262,45.9129234 361.55017,41.9830303 L375.059178,38.1759463 Z M281.724216,18.7720988 L281.724216,54.8779922 L304.198292,18.7720988 L323.847758,18.7720988 L298.549071,55.3692288 L326.672369,97.7383894 L305.794811,97.7383894 L281.724216,56.5973205 L281.724216,97.7383894 L265.267788,97.7383894 L265.267788,18.7720988 L281.724216,18.7720988 Z M347.549926,38.1759463 L347.549926,97.7383894 L332.198781,97.7383894 L332.198781,40.6321295 L347.549926,38.1759463 Z M485.955851,49.8428166 C484.113713,49.8428166 482.517194,50.4568624 481.166293,51.4393357 C479.692583,52.421809 478.71011,54.0183281 478.218873,55.7376563 C477.604828,57.3341754 477.2364,59.0535037 477.113591,61.1412594 C476.867973,63.2290152 476.745163,65.6851984 476.745163,68.6326182 C476.745163,75.1415038 477.482018,80.1766794 478.71011,83.2469084 C479.446965,84.8434275 480.429438,86.0715191 482.025957,86.8083741 C483.409369,87.5896097 484.982215,87.9721939 486.569896,87.9136565 C490.008553,87.9136565 492.341927,86.3171374 493.815637,83.2469084 C495.289347,80.1766794 495.903393,75.1415038 495.903393,68.2641908 C495.534965,60.6500228 494.429683,55.6148472 492.464736,52.9130456 C490.893291,50.9297481 488.485779,49.7941289 485.955851,49.8428166 Z M340.426995,14.350969 C343.005987,14.350969 345.093743,15.2106332 346.93588,17.0527706 C348.778018,18.894908 349.637682,21.2282821 349.637682,23.6844653 C349.310934,26.1553658 348.240102,28.4683622 346.567453,30.31616 C344.81338,32.076766 342.420789,33.0515253 339.935758,33.0179615 C337.356766,33.0179615 335.146201,32.1582974 333.426872,30.31616 C331.666266,28.5620872 330.691507,26.1694961 330.725071,23.6844653 C330.725071,20.9826637 331.707544,18.894908 333.549682,17.0527706 C335.391819,15.2106332 337.725193,14.350969 340.426995,14.350969 Z" fill="#333333"></path>
        <g>
            <path d="M107.949253,98.3524352 L58.8255882,98.3524352 C51.2114202,98.1068169 42.7375881,97.4927711 35.6146567,96.1418703 C32.0531911,95.5278245 28.7373437,94.6681604 25.5443055,93.8084963 C23.9477864,93.3172596 22.4740765,92.9488321 21.0003666,92.4575955 C18.3138178,91.546133 15.6520097,90.5633115 13.0177711,89.5101756 C11.7896795,89.018939 10.684397,88.4048932 9.70192373,87.9136565 C7.61416799,86.8083741 5.77203057,85.94871 4.4211298,85.0890458 C2.94741987,84.2293817 1.84213742,83.4925267 1.10528245,83.0012901 L0,82.2644351 C0,82.2644351 0.368427483,82.5100534 1.22809161,83.0012901 C1.96494658,83.4925267 3.07022903,84.1065725 4.54393896,84.9662367 C6.01764889,85.8259008 7.85978631,86.6855649 9.94754205,87.6680382 C12.0352978,88.6505115 14.491481,89.6329848 17.1932826,90.4926489 C18.5441833,90.9838856 19.8950841,91.4751222 21.368794,91.8435497 C22.842504,92.3347863 24.3162139,92.7032138 25.912733,93.0716413 C29.1057712,93.8084963 32.4216185,94.5453512 35.9830842,95.159397 C42.9832064,96.3874887 50.5973744,97.1243436 58.2115424,97.3699619 C61.773008,97.6155803 107.949253,98.3524352 107.949253,98.3524352 L107.949253,98.3524352 Z" fill="url(#linearGradient-1)"></path>
            <path d="M257.285193,58.6850762 C257.285193,39.0356104 241.074383,20.1229996 221.793345,20.1229996 C206.933436,20.1229996 190.108581,21.965137 157.932581,62.8605877 C116.300276,115.422909 94.6858632,89.755794 93.4577716,88.0364657 C96.5280006,94.0541146 102.668459,98.3524352 109.914199,98.3524352 L221.793345,98.3524352 C241.320002,98.3524352 257.285193,78.334542 257.285193,58.6850762 Z" fill="url(#linearGradient-2)"></path>
            <path d="M110.037008,98.3524352 C99.843848,98.3524352 91.492825,90.1242214 91.492825,79.9310611 C91.492825,69.7379007 99.9666571,60.035977 109.914199,60.035977 C129.440856,60.035977 132.142657,77.7204962 162.599329,86.4399466 C182.371604,92.089168 221.670536,98.3524352 221.670536,98.3524352 L110.037008,98.3524352 Z" fill="url(#linearGradient-3)"></path>
            <path d="M221.670536,98.3524352 C217.740643,96.7559161 202.389498,91.7207405 199.810505,75.0186946 C197.231513,58.0710304 207.424673,48.9831525 204.231635,29.4564958 C201.407024,12.2632133 187.038352,3.78938118 172.669681,0.84196131 C165.301131,-0.631748623 157.195726,-0.26332114 148.967512,2.68409873 C125.87939,11.0351217 118.142413,37.3162822 122.440734,55.3692288 C126.002199,70.2291373 140.739299,84.8434275 176.108337,91.1066947 C206.319391,96.3874887 208.775574,96.8787253 221.670536,98.3524352 Z" fill="url(#linearGradient-4)"></path>
            <path d="M199.810505,75.0186946 C197.231513,58.0710304 207.424673,48.9831525 204.231635,29.4564958 C203.844854,27.3343514 203.311402,25.2415775 202.635116,23.1932286 C191.459482,27.6143584 177.459238,37.930328 157.932581,62.7377785 C116.300276,115.422909 94.6858632,89.755794 93.4577716,88.0364657 C96.5280006,94.0541146 102.791268,98.3524352 110.037008,98.3524352 L221.793345,98.3524352 C217.740643,96.7559161 202.389498,91.7207405 199.810505,75.0186946 L199.810505,75.0186946 Z" fill="url(#linearGradient-5)"></path>
            <path d="M127.230291,66.176435 C132.265467,75.5099313 153.388642,90.6154581 221.670536,98.3524352 C167.634505,91.352313 142.458627,81.1591527 127.230291,66.176435 Z" fill="url(#linearGradient-6)"></path>
            <path d="M58.9483973,98.3524352 C56.8606416,98.3524352 55.2641225,96.633107 55.2641225,94.5453512 C55.2641225,92.4575955 56.9834508,90.4926489 58.9483973,90.4926489 C62.8782905,90.4926489 63.4923363,94.7909696 69.6327944,96.5102978 C73.5626875,97.6155803 81.4224738,98.2296261 81.4224738,98.2296261 L58.9483973,98.3524352 L58.9483973,98.3524352 Z" fill="url(#linearGradient-7)"></path>
            <path d="M110.037008,98.3524352 C104.756214,98.3524352 99.7210388,95.896252 96.2823823,92.3347863 C86.5804586,88.6505115 84.9839395,82.8784809 77.738199,82.8784809 C73.6854967,82.8784809 70.3696493,86.8083741 70.3696493,90.8610764 C70.3696493,94.9137787 73.6854967,98.3524352 77.738199,98.3524352 L122.440734,98.3524352 L110.037008,98.3524352 L110.037008,98.3524352 Z" fill="url(#linearGradient-8)"></path>
            <path d="M241.197192,26.8775035 C239.969101,25.8950302 238.6182,25.035366 237.390108,24.2985111 C236.039208,23.5616561 234.565498,22.8248011 232.846169,22.3335645 C229.653131,21.1054729 226.337284,20.4914271 223.144246,20.1229996 L221.793345,20.1229996 C216.021314,20.1229996 209.880856,20.3686179 202.635116,23.1932286 C203.371971,25.1581752 203.986017,27.2459309 204.231635,29.4564958 C206.4422,42.9655036 202.143879,51.684954 200.178933,61.2640686 C209.635238,53.6499006 227.810994,53.4042823 238.004154,54.0183281 L239.109437,54.0183281 C240.214719,54.0183281 241.197192,53.8955189 242.056857,53.6499006 C252.004399,51.0709082 252.618444,35.9653814 241.197192,26.8775035 L241.197192,26.8775035 Z" fill="url(#linearGradient-9)"></path>
            <path d="M200.301742,61.1412594 C199.442078,65.3167709 199.07365,69.8607099 199.810505,75.0186946 C202.389498,91.7207405 217.495024,96.3874887 221.670536,98.3524352 L221.793345,98.3524352 C228.547849,98.3524352 234.811116,95.896252 240.09191,92.089168 C238.863818,90.9838856 232.232124,85.0890458 230.267177,79.0713969 C224.00391,60.035977 238.249773,54.3867556 239.109437,54.0183281 C232.232124,53.8955189 209.758047,53.6499006 200.301742,61.1412594 L200.301742,61.1412594 Z" fill="#E35702" opacity="0.47"></path>
            <path d="M199.810505,75.0186946 C202.02107,89.5101756 214.179177,96.1418703 221.670536,98.3524352 C217.372215,96.2646795 206.319391,89.5101756 206.4422,77.8433053 C206.810627,55.0008014 230.758414,54.1411372 230.758414,54.1411372 C220.688063,54.1411372 207.793101,55.2464197 200.178933,61.1412594 C199.196459,65.4395801 198.950841,69.8607099 199.810505,75.0186946 Z" fill="url(#linearGradient-10)"></path>
            <path d="M114.580947,98.3524352 C110.282627,98.2296261 99.2298022,96.8787253 93.3349624,88.0364657 C96.5280006,94.5453512 102.914077,98.3524352 110.159818,98.3524352 L114.580947,98.3524352 Z" fill="url(#linearGradient-11)"></path>
            <path d="M198.459604,75.0186946 C195.880612,58.0710304 206.933436,48.9831525 203.740398,29.4564958 C203.371971,27.2459309 202.512307,23.1932286 202.512307,23.1932286 C203.249162,25.1581752 203.863207,27.2459309 204.108826,29.4564958 C207.301864,48.9831525 197.108704,58.0710304 199.687696,75.0186946 C202.266688,91.7207405 217.617833,96.7559161 221.547727,98.3524352 C221.670536,98.3524352 201.284215,93.4400688 198.459604,75.0186946 L198.459604,75.0186946 Z" fill="url(#linearGradient-12)"></path>
            <path d="M107.949253,98.3524352 L58.8255882,98.3524352 C57.3518782,98.3524352 56.4922141,97.3699619 56.4922141,97.3699619 C57.8431149,97.4927711 107.949253,98.3524352 107.949253,98.3524352 L107.949253,98.3524352 Z" fill="#EB7808"></path>
            <path d="M109.79139,98.3524352 L80.071573,98.3524352 C76.6329165,98.3524352 74.9135883,97.7383894 74.9135883,97.7383894 L109.79139,98.3524352 L109.79139,98.3524352 Z" fill="#E35702"></path>
            <path d="M200.301742,61.1412594 C209.758047,53.5270914 228.670658,53.2814731 239.232246,54.0183281 C239.232246,54.0183281 224.495147,53.6499006 214.301986,55.8604655 C203.986017,58.1938395 200.301742,61.1412594 200.301742,61.1412594 L200.301742,61.1412594 Z" fill="#E35702"></path>
        </g>
    </g>
</svg>