<?xml version="1.0" encoding="UTF-8" standalone="no"?>
<svg width="256px" height="256px" viewBox="0 0 256 256" version="1.1" xmlns="http://www.w3.org/2000/svg" xmlns:xlink="http://www.w3.org/1999/xlink" preserveAspectRatio="xMidYMid">
    <g>
        <path d="M168.870175,0 C122.610526,0 84.4350877,36.3789474 82.1894737,82.1894737 C36.3789474,84.4350877 0,122.161404 0,168.421053 C0,216.02807 39.0736842,255.101754 86.6807018,255.101754 L220.519298,255.101754 L220.968421,255.101754 C240.280702,255.101754 256,239.382456 256,220.519298 L256,215.129825 L256,86.6807018 C256,38.6245614 216.926316,0 168.870175,0 L168.870175,0 Z M75.9017544,216.926316 C57.9368421,212.435088 43.5649123,198.063158 39.0736842,180.547368 L39.0736842,180.547368 C38.6245614,178.301754 38.6245614,177.403509 38.1754386,175.157895 L39.0736842,175.157895 L75.9017544,175.157895 L75.9017544,216.926316 L75.9017544,216.926316 Z M121.712281,218.273684 L88.477193,218.273684 L86.2315789,218.273684 L86.2315789,136.533333 L121.712281,136.533333 L121.712281,218.273684 L121.712281,218.273684 Z M169.768421,218.273684 L134.287719,218.273684 L134.287719,69.1649123 L169.768421,69.1649123 L169.768421,218.273684 L169.768421,218.273684 Z M217.824561,211.087719 C217.824561,215.129825 214.680702,218.722807 210.638596,218.722807 L181.894737,218.722807 L181.894737,97.9087719 L217.824561,97.9087719 L217.824561,211.087719 L217.824561,211.087719 Z" fill="#303030"></path>
    </g>
</svg>