<?xml version="1.0" encoding="UTF-8" standalone="no"?>
<svg width="256px" height="256px" viewBox="0 0 256 256" version="1.1" xmlns="http://www.w3.org/2000/svg" xmlns:xlink="http://www.w3.org/1999/xlink" preserveAspectRatio="xMidYMid">
	<g>
		<path d="M108.707989,105.500655 C106.858214,99.6417124 105.901571,93.4294871 105.901571,86.9354292 C105.973022,52.0517001 134.172158,23.856533 169.03604,23.7692046 C203.899922,23.856533 232.130814,52.067578 232.174478,86.9354292 L232.174478,221.135374 C232.158601,227.295996 227.18882,232.297532 221.01629,232.297532 L86.816345,232.297532 C51.9326159,232.23799 23.7493572,204.050762 23.6779067,169.159094 C23.7493572,134.295212 51.9326159,106.107984 86.816345,106.036533 C93.3064334,106.036533 99.5265977,106.985238 105.393479,108.795317 L110.184633,110.2799 L108.707989,105.500655 L108.707989,105.500655 Z M169.03604,0.119084191 C122.680534,0.119084191 84.6648906,36.6580836 82.3387794,82.4578636 C36.5350299,84.7839748 0,122.78771 0,169.159094 C0,217.026969 38.9325916,255.975439 86.816345,255.975439 L220.607434,256.003225 L221.01629,255.975439 C240.236478,255.975439 255.880172,240.37144 255.880172,221.135374 L255.880172,86.9354292 C255.880172,39.0715232 216.915824,0.119084191 169.03604,0.119084191 L169.03604,0.119084191 Z" fill="#1F201E"></path>
		<path d="M134.08483,61.0028618 L172.525207,61.0028618 L172.525207,222.504842 L134.08483,222.504842 L134.08483,61.0028618 Z" fill="#E57535"></path>
		<path d="M84.7363411,142.893091 L84.7363411,222.477056 C85.565961,222.504842 86.4352756,222.504842 87.2768039,222.504842 L123.204504,222.504842 L123.204504,142.893091 L84.7363411,142.893091" fill="#A7B539"></path>
		<path d="M35.3878522,177.117887 L34.4986902,177.117887 C34.689225,179.2098 34.8757902,180.491939 35.3878522,182.59576 C35.3878522,182.59576 35.4434248,182.67118 35.4434248,182.698966 C40.4012967,201.339612 55.1717059,215.979028 73.8679239,220.833694 L73.8679239,177.117887 L35.3878522,177.117887" fill="#DC3E37"></path>
		<path d="M183.373777,222.576293 L213.966506,222.576293 C218.356743,222.576293 221.857818,219.063309 221.857818,214.704828 L221.857818,122.442366 L183.373777,122.442366 L183.373777,222.576293" fill="#2BACD7"></path>
	</g>
</svg>