<?xml version="1.0" encoding="UTF-8"?>
<svg width="512px" height="275px" viewBox="0 0 512 275" version="1.1" xmlns="http://www.w3.org/2000/svg" xmlns:xlink="http://www.w3.org/1999/xlink" preserveAspectRatio="xMidYMid">
    <g>
        <path d="M25.6523877,0 L25.6523877,182.498415 L106.274177,91.6156702 L109.938804,91.6156702 L50.2053873,159.044803 L128.994864,274.847011 L103.342476,274.847011 L35.54688,175.169161 L25.6523877,186.529505 L25.6523877,274.847011 L0,274.847011 L0,0 L25.6523877,0 Z M153.010067,184.729644 C153.010067,125.276424 191.37165,92.1677439 241.314089,92.1677439 C287.275608,92.1677439 326.722897,115.664226 326.722897,180.457556 C326.722897,239.910777 288.361313,273.019456 238.418875,273.019456 C192.457356,273.019456 153.010067,249.522974 153.010067,184.729644 Z M176.806345,184.741069 C176.806345,247.375581 204.303498,270.639829 238.399967,270.639829 C274.32958,270.639829 302.926619,237.711971 302.926619,180.446131 C302.926619,117.811619 275.429466,94.5473716 241.332997,94.5473716 C205.403384,94.5473716 176.806345,127.475229 176.806345,184.741069 Z M500.990371,271.957131 C457.662155,271.957131 459.793051,246.680612 459.793051,246.680612 L459.793051,241.696509 C452.690065,254.512773 439.194391,273.38116 404.034609,273.38116 C362.482139,273.38116 355.379153,247.036619 353.248257,232.796327 C349.696764,208.943837 358.220347,191.143472 421.436925,186.871384 C437.418644,185.447355 455.531259,186.159369 459.793051,186.515377 L459.793051,127.418163 C459.793051,127.418163 463.699693,95.3775057 422.502373,95.3775057 C400.483116,95.3775057 373.136619,104.633696 364.257886,109.617798 L362.837288,107.125747 C367.45423,104.989703 389.118338,92.5294473 427.119314,92.5294473 C478.615965,92.5294473 484.653503,115.313915 484.653503,127.418163 L484.653503,246.680612 C484.653503,269.821087 500.990371,269.109072 500.990371,269.109072 L512,269.109072 L512,271.957131 L500.990371,271.957131 Z M410.248646,271.001532 C436.87535,271.001532 458.597134,246.764229 459.648188,232.294197 L459.648188,188.522351 C455.443972,188.160601 438.977458,186.713598 421.459889,188.884102 C384.322645,193.225112 376.965266,206.24814 379.067374,232.655948 C380.468779,250.381737 385.72405,271.001532 410.248646,271.001532 Z" fill="#000000" fill-rule="nonzero"></path>
    </g>
</svg>
