<?xml version="1.0" encoding="UTF-8" standalone="no"?>
<svg width="256px" height="297px" viewBox="0 0 256 297" version="1.1" xmlns="http://www.w3.org/2000/svg" xmlns:xlink="http://www.w3.org/1999/xlink" preserveAspectRatio="xMidYMid">
	<g>
		<path d="M127.83365,0 L130.699455,6.44681712 L130.699455,70.436856 L127.83365,74.496 L122.238506,74.9850895 L66.2322802,42.2619144 L64.082677,37.2475019 L127.83365,0" fill="#C5E3EB"></path>
		<path d="M0.33170428,74.496 L1.76410895,79.0322802 L57.3190973,110.866926 L64.082677,111.0273 L66.7094163,106.729089 L66.7094163,41.3066459 L64.082677,37.2475019 L0.33170428,74.496" fill="#C5E3EB"></path>
		<path d="M0.33170428,222.053603 L2.71937743,217.39779 L59.9577899,184.598911 L64.082677,185.522304 L69.3361556,184.089899 L125.881276,216.492327 L127.83365,222.053603 L129.86372,225.635611 L129.86372,293.683798 L127.83365,296.549603 L0.33170428,222.053603" fill="#78ABDB"></path>
		<path d="M64.082677,37.2475019 L127.83365,74.496 L130.699455,80.941821 L130.699455,141.588918 L127.83365,148.274802 L120.070973,147.567564 L66.1127471,116.040716 L64.082677,111.0273 L64.082677,37.2475019" fill="#A4C0C5"></path>
		<path d="M127.83365,148.274802 L126.525759,152.019175 L70.4099611,184.806101 L64.082677,185.522304 L62.1731362,180.86649 L62.1731362,113.534506 L64.082677,111.0273 L127.83365,148.274802" fill="#7BA6C1"></path>
		<path d="M0.33170428,222.053603 L64.082677,185.522304 L64.082677,111.0273 L0.33170428,74.496 L0.33170428,222.053603" fill="#98C3E4"></path>
		<path d="M127.83365,148.274802 L129.505121,152.930615 L129.505121,216.681588 L127.83365,222.053603 L64.082677,185.522304 L127.83365,148.274802" fill="#4B7C9E"></path>
		<path d="M127.83365,296.549603 L127.83365,222.053603 L131.009245,221.205914 L188.242677,254.645292 L191.584623,259.302101 L127.83365,296.549603" fill="#F4BC6A"></path>
		<path d="M127.83365,148.274802 L127.83365,222.053603 L191.584623,259.302101 L193.614693,253.929089 L193.614693,190.178117 L191.584623,185.522304 L187.884078,180.508887 L132.14979,147.945089 L127.83365,148.274802" fill="#B48340"></path>
		<path d="M191.584623,111.0273 L193.614693,114.250708 L193.614693,180.150288 L191.584623,185.522304 L127.83365,148.274802 L130.771175,143.587113 L184.660669,112.101105 L191.584623,111.0273" fill="#8C3D33"></path>
		<path d="M127.83365,74.496 L132.012327,73.4211984 L189.207907,106.196171 L191.584623,111.0273 L127.83365,148.274802 L127.83365,74.496" fill="#C47973"></path>
		<path d="M191.584623,259.302101 L191.584623,185.522304 L195.267237,184.686568 L252.351253,217.39779 L255.335595,222.053603 L191.584623,259.302101" fill="#F4BC6A"></path>
		<path d="M255.335595,74.496 L250.193681,74.496 L193.804949,106.808778 L191.584623,111.0273 L191.584623,185.522304 L255.335595,222.053603 L255.335595,74.496" fill="#BB6651"></path>
		<path d="M127.83365,0 L127.83365,74.496 L191.584623,111.0273 L255.335595,74.496 L127.83365,0" fill="#E1938A"></path>
	</g>
</svg>