<?xml version="1.0" encoding="utf-8"?>
<!-- Generator: Adobe Illustrator 23.0.1, SVG Export Plug-In . SVG Version: 6.00 Build 0)  -->
<svg version="1.1" id="Layer_1" xmlns="http://www.w3.org/2000/svg" xmlns:xlink="http://www.w3.org/1999/xlink" x="0px" y="0px"
	 viewBox="0 0 444 453" style="enable-background:new 0 0 444 453;" xml:space="preserve">
<style type="text/css">
	.st0{fill:#FF2D20;}
</style>
<path class="st0" d="M357.38,149.42c-0.03-0.13-0.11-0.24-0.15-0.37c-0.09-0.23-0.16-0.47-0.28-0.68c-0.08-0.14-0.2-0.26-0.3-0.39
	c-0.13-0.17-0.24-0.36-0.39-0.51c-0.13-0.13-0.29-0.22-0.43-0.33c-0.16-0.13-0.3-0.27-0.48-0.37c0,0,0,0,0,0c0,0,0,0,0,0
	l-52.45-30.2c-1.35-0.78-3.01-0.78-4.36,0l-52.45,30.2c0,0,0,0,0,0c0,0,0,0,0,0c-0.18,0.1-0.32,0.25-0.48,0.37
	c-0.14,0.11-0.3,0.2-0.43,0.33c-0.15,0.15-0.26,0.34-0.39,0.51c-0.1,0.13-0.22,0.25-0.3,0.39c-0.12,0.21-0.2,0.45-0.28,0.68
	c-0.05,0.12-0.12,0.24-0.15,0.37c-0.1,0.37-0.15,0.75-0.15,1.14v57.36l-43.71,25.17V120.87c0-0.39-0.05-0.77-0.15-1.14
	c-0.03-0.13-0.11-0.24-0.15-0.37c-0.09-0.23-0.16-0.47-0.28-0.68c-0.08-0.14-0.2-0.26-0.3-0.39c-0.13-0.17-0.24-0.36-0.39-0.51
	c-0.13-0.13-0.29-0.22-0.43-0.33c-0.16-0.13-0.3-0.27-0.48-0.37c0,0,0,0,0,0c0,0,0,0,0,0l-52.45-30.2c-1.35-0.78-3.01-0.78-4.36,0
	l-52.45,30.2c0,0,0,0,0,0c0,0,0,0,0,0c-0.18,0.1-0.32,0.25-0.48,0.37c-0.14,0.11-0.3,0.2-0.43,0.33c-0.15,0.15-0.26,0.34-0.39,0.51
	c-0.1,0.13-0.22,0.25-0.3,0.39c-0.12,0.21-0.2,0.45-0.28,0.68c-0.05,0.12-0.12,0.24-0.15,0.37c-0.1,0.37-0.15,0.75-0.15,1.14v179.66
	c0,1.56,0.84,3.01,2.19,3.79l104.91,60.4c0.23,0.13,0.48,0.21,0.72,0.3c0.11,0.04,0.22,0.11,0.34,0.14c0.37,0.1,0.74,0.15,1.12,0.15
	s0.75-0.05,1.12-0.15c0.1-0.03,0.19-0.09,0.29-0.12c0.26-0.09,0.52-0.18,0.76-0.31l104.91-60.4c1.36-0.78,2.19-2.22,2.19-3.79
	v-57.36l50.26-28.94c1.36-0.78,2.19-2.22,2.19-3.79v-59.89C357.53,150.17,357.47,149.79,357.38,149.42z M195.78,295.5l-43.63-24.69
	l45.82-26.38c0,0,0,0,0,0l50.27-28.94l43.67,25.14l-32.04,18.29L195.78,295.5z M296.33,183.29v49.8l-18.36-10.57l-25.36-14.6v-49.8
	l18.36,10.57L296.33,183.29z M300.7,125.4l43.69,25.16l-43.69,25.16l-43.69-25.16L300.7,125.4z M166.07,252.72l-18.36,10.57V153.6
	l25.36-14.6l18.36-10.57v109.68L166.07,252.72z M143.34,95.72l43.69,25.16l-43.69,25.16l-43.69-25.16L143.34,95.72z M95.25,128.43
	L113.61,139l25.36,14.6v117.24c0,0,0,0.01,0,0.01s0,0.01,0,0.01c0,0.17,0.05,0.33,0.07,0.49c0.03,0.21,0.03,0.43,0.09,0.64
	c0,0,0,0.01,0,0.01c0.05,0.17,0.14,0.33,0.21,0.49c0.08,0.18,0.13,0.38,0.23,0.55c0,0,0,0.01,0.01,0.01
	c0.09,0.15,0.22,0.28,0.33,0.42c0.12,0.16,0.22,0.32,0.36,0.46c0,0,0.01,0.01,0.01,0.01c0.12,0.12,0.28,0.21,0.42,0.32
	c0.16,0.12,0.3,0.26,0.47,0.36c0.01,0,0.01,0,0.02,0.01c0.01,0,0.01,0.01,0.02,0.01l50.24,28.43v50.29L95.25,298V128.43z
	 M296.33,298l-96.17,55.37v-50.3l71.22-40.66l24.95-14.24V298z M348.78,207.92l-43.71,25.17v-49.8l25.36-14.6l18.36-10.57V207.92z"
	/>
</svg>
