<?xml version="1.0" encoding="UTF-8"?>
<svg width="256px" height="256px" viewBox="0 0 256 256" version="1.1" xmlns="http://www.w3.org/2000/svg" xmlns:xlink="http://www.w3.org/1999/xlink" preserveAspectRatio="xMidYMid">
    <title>Lateral</title>
    <defs>
        <circle id="path-1" cx="128" cy="128" r="128"></circle>
        <linearGradient x1="1.38181042e-06%" y1="73.25%" x2="37.75%" y2="36.5833333%" id="linearGradient-3">
            <stop stop-color="#0060FF" offset="0%"></stop>
            <stop stop-color="#1F66D6" offset="100%"></stop>
        </linearGradient>
        <linearGradient x1="34.7222222%" y1="1.11882917e-06%" x2="92.0138889%" y2="90.75%" id="linearGradient-4">
            <stop stop-color="#1F6AE2" offset="0%"></stop>
            <stop stop-color="#2E7BED" offset="100%"></stop>
        </linearGradient>
        <polygon id="path-5" points="234.666667 256 234.666667 0 0 0 192 256"></polygon>
        <linearGradient x1="76.5%" y1="48.2653125%" x2="8.64720833e-07%" y2="54.8185764%" id="linearGradient-7">
            <stop stop-color="#0D57D9" offset="0%"></stop>
            <stop stop-color="#0D57D9" offset="100%"></stop>
        </linearGradient>
        <polygon id="path-8" points="186.453333 0 0 52.6933333 0 91.0933333 256 91.0933333 256 73.6"></polygon>
    </defs>
    <g>
        <g>
            <mask id="mask-2" fill="white">
                <use xlink:href="#path-1"></use>
            </mask>
            <g mask="url(#mask-2)">
                <g transform="translate(-122.168533, -69.990430)">
                    <polygon stroke="none" fill="url(#linearGradient-3)" points="378.168533 325.99043 378.168533 69.99043 122.168533 69.99043 122.168533 325.777097"></polygon>
                    <polygon stroke="none" fill="#115EDE" transform="translate(100.616616, 100.918377) rotate(-45.000000) translate(-100.616616, -100.918377) " points="-27.3833837 100.278377 228.616616 100.278377 228.616616 101.558377 -27.3833837 101.558377"></polygon>
                    <polygon stroke="none" fill="#115EDE" transform="translate(116.003283, 116.305044) rotate(-45.000000) translate(-116.003283, -116.305044) " points="-11.996717 115.665044 244.003283 115.665044 244.003283 116.945044 -11.996717 116.945044"></polygon>
                    <polygon stroke="none" fill="#115EDE" transform="translate(131.389950, 131.691710) rotate(-45.000000) translate(-131.389950, -131.691710) " points="3.38994967 131.05171 259.38995 131.05171 259.38995 132.33171 3.38994967 132.33171"></polygon>
                    <polygon stroke="none" fill="#115EDE" transform="translate(146.776083, 147.078377) rotate(-45.000000) translate(-146.776083, -147.078377) " points="18.776083 146.438377 274.776083 146.438377 274.776083 147.718377 18.776083 147.718377"></polygon>
                    <polygon stroke="none" fill="#115EDE" transform="translate(162.163283, 162.465044) rotate(-45.000000) translate(-162.163283, -162.465044) " points="34.163283 161.825044 290.163283 161.825044 290.163283 163.105044 34.163283 163.105044"></polygon>
                    <polygon stroke="none" fill="#115EDE" transform="translate(177.550003, 177.851710) rotate(-45.000000) translate(-177.550003, -177.851710) " points="49.550003 177.21171 305.550003 177.21171 305.550003 178.49171 49.550003 178.49171"></polygon>
                    <polygon stroke="none" fill="#115EDE" transform="translate(192.936403, 193.237844) rotate(-45.000000) translate(-192.936403, -193.237844) " points="64.936403 192.597844 320.936403 192.597844 320.936403 193.877844 64.936403 193.877844"></polygon>
                    <polygon stroke="none" fill="#115EDE" transform="translate(208.323134, 208.624510) rotate(-45.000000) translate(-208.323134, -208.624510) " points="80.3231337 207.98451 336.323134 207.98451 336.323134 209.26451 80.3231337 209.26451"></polygon>
                    <polygon stroke="none" fill="#115EDE" transform="translate(223.709523, 224.011177) rotate(-45.000000) translate(-223.709523, -224.011177) " points="95.709523 223.371177 351.709523 223.371177 351.709523 224.651177 95.709523 224.651177"></polygon>
                    <polygon stroke="none" fill="#115EDE" transform="translate(239.096243, 239.398377) rotate(-45.000000) translate(-239.096243, -239.398377) " points="111.096243 238.758377 367.096243 238.758377 367.096243 240.038377 111.096243 240.038377"></polygon>
                    <polygon stroke="none" fill="#115EDE" transform="translate(90.962216, 244.829416) rotate(-45.000000) translate(-90.962216, -244.829416) " points="90.3222163 116.829416 91.6022163 116.829416 91.6022163 372.829416 90.3222163 372.829416"></polygon>
                    <polygon stroke="none" fill="#115EDE" transform="translate(106.348350, 229.442216) rotate(-45.000000) translate(-106.348350, -229.442216) " points="105.70835 101.442216 106.98835 101.442216 106.98835 357.442216 105.70835 357.442216"></polygon>
                    <polygon stroke="none" fill="#115EDE" transform="translate(121.735550, 214.055550) rotate(-45.000000) translate(-121.735550, -214.055550) " points="121.09555 86.0555497 122.37555 86.0555497 122.37555 342.05555 121.09555 342.05555"></polygon>
                    <polygon stroke="none" fill="#115EDE" transform="translate(137.122216, 198.668670) rotate(-45.000000) translate(-137.122216, -198.668670) " points="136.482216 70.6686697 137.762216 70.6686697 137.762216 326.66867 136.482216 326.66867"></polygon>
                    <polygon stroke="none" fill="#115EDE" transform="translate(152.508883, 183.281950) rotate(-45.000000) translate(-152.508883, -183.281950) " points="151.868883 55.2819497 153.148883 55.2819497 153.148883 311.28195 151.868883 311.28195"></polygon>
                    <polygon stroke="none" fill="#115EDE" transform="translate(167.895390, 167.895870) rotate(-45.000000) translate(-167.895390, -167.895870) " points="167.25539 39.8958697 168.53539 39.8958697 168.53539 295.89587 167.25539 295.89587"></polygon>
                    <polygon stroke="none" fill="#115EDE" transform="translate(183.281790, 152.509150) rotate(-45.000000) translate(-183.281790, -152.509150) " points="182.64179 24.5091497 183.92179 24.5091497 183.92179 280.50915 182.64179 280.50915"></polygon>
                    <polygon stroke="none" fill="#115EDE" transform="translate(198.668830, 137.122430) rotate(-45.000000) translate(-198.668830, -137.122430) " points="198.02883 9.12242967 199.30883 9.12242967 199.30883 265.12243 198.02883 265.12243"></polygon>
                    <polygon stroke="none" fill="#115EDE" transform="translate(214.055230, 121.735710) rotate(-45.000000) translate(-214.055230, -121.735710) " points="213.41523 -6.26429033 214.69523 -6.26429033 214.69523 249.73571 213.41523 249.73571"></polygon>
                    <polygon stroke="none" fill="#115EDE" transform="translate(229.441950, 106.348883) rotate(-45.000000) translate(-229.441950, -106.348883) " points="228.80195 -21.651117 230.08195 -21.651117 230.08195 234.348883 228.80195 234.348883"></polygon>
                    <polygon stroke="none" fill="#115EDE" transform="translate(244.828350, 90.962216) rotate(-45.000000) translate(-244.828350, -90.962216) " points="244.18835 -37.0377837 245.46835 -37.0377837 245.46835 218.962216 244.18835 218.962216"></polygon>
                    <polygon stroke="none" fill="url(#linearGradient-4)" points="378.168533 325.99043 378.168533 69.99043 143.501867 69.99043 335.501867 325.99043"></polygon>
                    <g transform="translate(143.501867, 69.990430)">
                        <mask id="mask-6" fill="white">
                            <use xlink:href="#path-5"></use>
                        </mask>
                        <g mask="url(#mask-6)" fill="#3582F7">
                            <g transform="translate(-62.626933, -150.601630)">
                                <polygon transform="translate(100.616830, 100.918217) rotate(-45.000000) translate(-100.616830, -100.918217) " points="-27.3831703 100.278217 228.61683 100.278217 228.61683 101.558217 -27.3831703 101.558217"></polygon>
                                <polygon transform="translate(254.483016, 254.784510) rotate(-45.000000) translate(-254.483016, -254.784510) " points="126.483016 254.14451 382.483016 254.14451 382.483016 255.42451 126.483016 255.42451"></polygon>
                                <polygon transform="translate(116.003230, 116.305044) rotate(-45.000000) translate(-116.003230, -116.305044) " points="-11.9967703 115.665044 244.00323 115.665044 244.00323 116.945044 -11.9967703 116.945044"></polygon>
                                <polygon transform="translate(269.869683, 270.171710) rotate(-45.000000) translate(-269.869683, -270.171710) " points="141.869683 269.53171 397.869683 269.53171 397.869683 270.81171 141.869683 270.81171"></polygon>
                                <polygon transform="translate(131.389928, 131.691710) rotate(-45.000000) translate(-131.389928, -131.691710) " points="3.38992833 131.05171 259.389928 131.05171 259.389928 132.33171 3.38992833 132.33171"></polygon>
                                <polygon transform="translate(285.256350, 285.558377) rotate(-45.000000) translate(-285.256350, -285.558377) " points="157.25635 284.918377 413.25635 284.918377 413.25635 286.198377 157.25635 286.198377"></polygon>
                                <polygon transform="translate(146.776670, 147.078377) rotate(-45.000000) translate(-146.776670, -147.078377) " points="18.7766697 146.438377 274.77667 146.438377 274.77667 147.718377 18.7766697 147.718377"></polygon>
                                <polygon transform="translate(300.643016, 300.945044) rotate(-45.000000) translate(-300.643016, -300.945044) " points="172.643016 300.305044 428.643016 300.305044 428.643016 301.585044 172.643016 301.585044"></polygon>
                                <polygon transform="translate(162.163390, 162.465044) rotate(-45.000000) translate(-162.163390, -162.465044) " points="34.1633897 161.825044 290.16339 161.825044 290.16339 163.105044 34.1633897 163.105044"></polygon>
                                <polygon transform="translate(316.029683, 316.331177) rotate(-45.000000) translate(-316.029683, -316.331177) " points="188.029683 315.691177 444.029683 315.691177 444.029683 316.971177 188.029683 316.971177"></polygon>
                                <polygon transform="translate(177.549736, 177.851710) rotate(-45.000000) translate(-177.549736, -177.851710) " points="49.5497363 177.21171 305.549736 177.21171 305.549736 178.49171 49.5497363 178.49171"></polygon>
                                <polygon transform="translate(331.416350, 331.717844) rotate(-45.000000) translate(-331.416350, -331.717844) " points="203.41635 331.077844 459.41635 331.077844 459.41635 332.357844 203.41635 332.357844"></polygon>
                                <polygon transform="translate(192.936350, 193.237844) rotate(-45.000000) translate(-192.936350, -193.237844) " points="64.9363497 192.597844 320.93635 192.597844 320.93635 193.877844 64.9363497 193.877844"></polygon>
                                <polygon transform="translate(346.803016, 347.104510) rotate(-45.000000) translate(-346.803016, -347.104510) " points="218.803016 346.46451 474.803016 346.46451 474.803016 347.74451 218.803016 347.74451"></polygon>
                                <polygon transform="translate(208.323016, 208.624510) rotate(-45.000000) translate(-208.323016, -208.624510) " points="80.3230163 207.98451 336.323016 207.98451 336.323016 209.26451 80.3230163 209.26451"></polygon>
                                <polygon transform="translate(362.189683, 362.491177) rotate(-45.000000) translate(-362.189683, -362.491177) " points="234.189683 361.851177 490.189683 361.851177 490.189683 363.131177 234.189683 363.131177"></polygon>
                                <polygon transform="translate(223.709683, 224.011177) rotate(-45.000000) translate(-223.709683, -224.011177) " points="95.709683 223.371177 351.709683 223.371177 351.709683 224.651177 95.709683 224.651177"></polygon>
                                <polygon transform="translate(377.576350, 377.877844) rotate(-45.000000) translate(-377.576350, -377.877844) " points="249.57635 377.237844 505.57635 377.237844 505.57635 378.517844 249.57635 378.517844"></polygon>
                                <polygon transform="translate(239.096350, 239.397844) rotate(-45.000000) translate(-239.096350, -239.397844) " points="111.09635 238.757844 367.09635 238.757844 367.09635 240.037844 111.09635 240.037844"></polygon>
                                <polygon transform="translate(166.537789, 320.404242) rotate(-45.000000) translate(-166.537789, -320.404242) " points="165.897789 85.5242424 167.177789 85.5242424 167.177789 555.284242 165.897789 555.284242"></polygon>
                                <polygon transform="translate(181.924509, 305.017522) rotate(-45.000000) translate(-181.924509, -305.017522) " points="181.284509 70.1375224 182.564509 70.1375224 182.564509 539.897522 181.284509 539.897522"></polygon>
                                <polygon transform="translate(197.310856, 289.630802) rotate(-45.000000) translate(-197.310856, -289.630802) " points="196.670856 54.7508024 197.950856 54.7508024 197.950856 524.510802 196.670856 524.510802"></polygon>
                                <polygon transform="translate(212.697928, 274.244082) rotate(-45.000000) translate(-212.697928, -274.244082) " points="212.057928 39.3640824 213.337928 39.3640824 213.337928 509.124082 212.057928 509.124082"></polygon>
                                <polygon transform="translate(228.084296, 258.857256) rotate(-45.000000) translate(-228.084296, -258.857256) " points="227.444296 23.9772558 228.724296 23.9772558 228.724296 493.737256 227.444296 493.737256"></polygon>
                                <polygon transform="translate(243.471016, 243.471122) rotate(-45.000000) translate(-243.471016, -243.471122) " points="242.831016 8.59112244 244.111016 8.59112244 244.111016 478.351122 242.831016 478.351122"></polygon>
                                <polygon transform="translate(258.857416, 228.084456) rotate(-45.000000) translate(-258.857416, -228.084456) " points="258.217416 -6.79554423 259.497416 -6.79554423 259.497416 462.964456 258.217416 462.964456"></polygon>
                                <polygon transform="translate(274.244189, 212.697789) rotate(-45.000000) translate(-274.244189, -212.697789) " points="273.604189 -22.1822109 274.884189 -22.1822109 274.884189 447.577789 273.604189 447.577789"></polygon>
                                <polygon transform="translate(289.630856, 197.311122) rotate(-45.000000) translate(-289.630856, -197.311122) " points="288.990856 -37.5688776 290.270856 -37.5688776 290.270856 432.191122 288.990856 432.191122"></polygon>
                                <polygon transform="translate(305.017522, 181.924456) rotate(-45.000000) translate(-305.017522, -181.924456) " points="304.377522 -52.9555442 305.657522 -52.9555442 305.657522 416.804456 304.377522 416.804456"></polygon>
                                <polygon transform="translate(320.404189, 166.537789) rotate(-45.000000) translate(-320.404189, -166.537789) " points="319.764189 -68.3422109 321.044189 -68.3422109 321.044189 401.417789 319.764189 401.417789"></polygon>
                            </g>
                        </g>
                    </g>
                    <polygon stroke="#0D57D9" stroke-width="1" fill="url(#linearGradient-7)" points="308.621867 234.897097 122.168533 287.59043 122.168533 325.99043 378.168533 325.99043 378.168533 308.497097"></polygon>
                    <g transform="translate(122.168533, 234.897097)">
                        <mask id="mask-9" fill="white">
                            <use xlink:href="#path-8"></use>
                        </mask>
                        <g mask="url(#mask-9)" fill="#1362DD">
                            <g transform="translate(-92.725333, -86.468946)">
                                <polygon transform="translate(245.821392, 88.616040) rotate(-16.500000) translate(-245.821392, -88.616040) " points="-10.1786082 87.3360403 501.821392 87.3360403 501.821392 89.8960403 -10.1786082 89.8960403"></polygon>
                                <polygon transform="translate(258.181925, 130.344040) rotate(-16.500000) translate(-258.181925, -130.344040) " points="2.1819251 129.06404 514.181925 129.06404 514.181925 131.62404 2.1819251 131.62404"></polygon>
                                <polygon transform="translate(270.541925, 172.071507) rotate(-16.500000) translate(-270.541925, -172.071507) " points="14.5419251 170.791507 526.541925 170.791507 526.541925 173.351507 14.5419251 173.351507"></polygon>
                                <polygon transform="translate(282.902458, 213.799507) rotate(-16.500000) translate(-282.902458, -213.799507) " points="26.9024584 212.519507 538.902458 212.519507 538.902458 215.079507 26.9024584 215.079507"></polygon>
                                <polygon transform="translate(91.516551, 332.344058) rotate(-16.500000) translate(-91.516551, -332.344058) " points="90.2365508 76.3440584 92.7965508 76.3440584 92.7965508 588.344058 90.2365508 588.344058"></polygon>
                                <polygon transform="translate(133.244551, 319.983525) rotate(-16.500000) translate(-133.244551, -319.983525) " points="131.964551 63.9835251 134.524551 63.9835251 134.524551 575.983525 131.964551 575.983525"></polygon>
                                <polygon transform="translate(174.972071, 307.623525) rotate(-16.500000) translate(-174.972071, -307.623525) " points="173.692071 51.6235251 176.252071 51.6235251 176.252071 563.623525 173.692071 563.623525"></polygon>
                                <polygon transform="translate(216.699964, 295.262458) rotate(-16.500000) translate(-216.699964, -295.262458) " points="215.419964 39.2624584 217.979964 39.2624584 217.979964 551.262458 215.419964 551.262458"></polygon>
                                <polygon transform="translate(258.428018, 282.902458) rotate(-16.500000) translate(-258.428018, -282.902458) " points="257.148018 26.9024584 259.708018 26.9024584 259.708018 538.902458 257.148018 538.902458"></polygon>
                                <polygon transform="translate(300.155484, 270.541925) rotate(-16.500000) translate(-300.155484, -270.541925) " points="298.875484 14.5419251 301.435484 14.5419251 301.435484 526.541925 298.875484 526.541925"></polygon>
                                <polygon transform="translate(341.883484, 258.181925) rotate(-16.500000) translate(-341.883484, -258.181925) " points="340.603484 2.1819251 343.163484 2.1819251 343.163484 514.181925 340.603484 514.181925"></polygon>
                                <polygon transform="translate(383.611484, 245.821392) rotate(-16.500000) translate(-383.611484, -245.821392) " points="382.331484 -10.1786082 384.891484 -10.1786082 384.891484 501.821392 382.331484 501.821392"></polygon>
                            </g>
                        </g>
                    </g>
                </g>
            </g>
        </g>
        <g transform="translate(46.933280, 45.226560)">
            <polygon fill="#6AABD4" points="51.2000533 0 39.6800533 65.7067733 81.9200533 88.3201067"></polygon>
            <polygon fill="#E4F6FE" points="122.453387 65.7067733 51.2000533 0 81.9200533 88.3201067"></polygon>
            <polygon fill="#A8CCE9" points="122.453387 65.7067733 81.9200533 88.3201067 162.560053 135.680107"></polygon>
            <polygon fill="#D8E9F8" points="162.560053 135.680107 81.9200533 88.3201067 121.173387 153.17344"></polygon>
            <polygon fill="#84C1F2" points="121.173387 153.17344 81.9200533 88.3201067 0 135.680107"></polygon>
            <polygon fill="#AECEE9" points="-1.41264778e-14 135.680107 81.9200533 88.3201067 39.6800533 65.7067733"></polygon>
        </g>
    </g>
</svg>
