<?xml version="1.0" encoding="UTF-8"?>
<svg width="256px" height="256px" viewBox="0 0 256 256" version="1.1" xmlns="http://www.w3.org/2000/svg" xmlns:xlink="http://www.w3.org/1999/xlink" preserveAspectRatio="xMidYMid">
    <defs>
        <linearGradient x1="0%" y1="73.25%" x2="37.75%" y2="36.583%" id="linearGradient-1">
            <stop stop-color="#0060FF" offset="0%"></stop>
            <stop stop-color="#1F66D6" offset="100%"></stop>
        </linearGradient>
        <polygon id="path-2" points="255.995264 255.995732 255.995264 0.00100435639 0.000375862175 0.00100435639 0.000375862175 255.782403"></polygon>
        <linearGradient x1="31.818%" y1="0%" x2="100%" y2="90.75%" id="linearGradient-4">
            <stop stop-color="#1F6AE2" offset="0%"></stop>
            <stop stop-color="#2E7BED" offset="100%"></stop>
        </linearGradient>
        <linearGradient x1="76.5%" y1="36.3%" x2="0%" y2="88.056%" id="linearGradient-5">
            <stop stop-color="#0D57D9" offset="0%"></stop>
            <stop stop-color="#0D57D9" offset="100%"></stop>
        </linearGradient>
        <path d="M156.724701,8.40039949 L166.725517,42.1613126 L205.997517,30.5283126 L201.750701,16.1943995 L205.640701,20.3103995 L208.452517,29.8013126 L213.261701,28.3753995 L215.233701,30.4623995 L209.179517,32.2563126 L220.812517,71.5283126 L246.771701,63.8373995 L248.742701,65.9243995 L221.539517,73.9833126 L226.606701,91.0913995 L223.936701,91.0913995 L219.084517,74.7103126 L179.812517,86.3433126 L181.218701,91.0913995 L178.547701,91.0913995 L177.357517,87.0703126 L163.778701,91.0913995 L154.763701,91.0913995 L176.630517,84.6153126 L164.997517,45.3433126 L125.725517,56.9763126 L135.830701,91.0913995 L133.160701,91.0913995 L123.271517,57.7033126 L83.9985175,69.3363126 L90.4417013,91.0913995 L87.7717013,91.0913995 L81.5435175,70.0633126 L42.2715175,81.6963126 L45.0537013,91.0913995 L42.3837013,91.0913995 L39.8165175,82.4233126 L10.5507013,91.0913995 L1.53570131,91.0913995 L39.0895175,79.9683126 L28.6137013,44.6053995 L31.0777013,43.9083995 L41.5445175,79.2413126 L80.8165175,67.6083126 L70.4957013,32.7693995 L72.9597013,32.0723995 L83.2715175,66.8813126 L122.544517,55.2483126 L112.378701,20.9323995 L114.842701,20.2363995 L124.998517,54.5213126 L164.270517,42.8883126 L154.259701,9.09739949 L156.724701,8.40039949 Z M206.724517,32.9833126 L167.452517,44.6163126 L179.085517,83.8883126 L218.357517,72.2553126 L206.724517,32.9833126 Z" id="path-6"></path>
    </defs>
    <g>
        <mask id="mask-3" fill="white">
            <use xlink:href="#path-2"></use>
        </mask>
        <use fill="url(#linearGradient-1)" xlink:href="#path-2"></use>
        <path d="M102.599,3.05252475e-05 L102.594477,0.00505483897 L117.075554,14.4861319 L130.049485,1.51321347 L130.954563,2.41829208 L117.980935,15.3905083 L132.462012,29.8725902 L145.435903,16.8995694 L146.340982,17.804648 L133.367393,30.7769667 L147.84847,45.2580437 L160.822148,32.2859329 L161.727227,33.1910115 L148.753852,46.163425 L163.234929,60.6445021 L176.208571,47.6722968 L177.113649,48.5773754 L164.14031,61.5498834 L178.621387,76.0309604 L191.594812,63.0586518 L192.499891,63.9637304 L179.526768,76.9363417 L194.007845,91.4174188 L206.981231,78.4450081 L207.886309,79.3500867 L194.913227,92.3228001 L213.618301,111.028066 L212.713222,111.933145 L194.007845,93.2281814 L179.526768,107.709258 L198.232048,126.413893 L197.32697,127.318972 L178.622392,108.613635 L164.14031,123.095717 L182.845638,141.800572 L181.940559,142.70565 L163.235933,124.001098 L148.754856,138.482175 L167.459385,157.186825 L166.554306,158.091904 L147.849475,139.386552 L133.368398,153.868634 L152.072971,172.573237 L151.167893,173.478315 L132.463017,154.77301 L117.98194,169.254087 L136.686719,187.959489 L135.78164,188.864567 L117.076558,170.159468 L102.595481,184.640545 L121.300519,203.345903 L120.39544,204.250982 L101.6901,185.545927 L87.2090231,200.027004 L105.91416,218.732154 L105.009081,219.637233 L86.3036417,200.932385 L71.8225647,215.413462 L90.5277994,234.118407 L89.6227208,235.023485 L70.9171834,216.317839 L56.4361064,230.798916 L75.1414388,249.504765 L74.2363602,250.409844 L55.530725,231.704297 L41.049648,246.185374 L50.688,255.824031 L48.877,255.823031 L40.1442667,247.090755 L31.427,255.808031 L29.618,255.807031 L39.2398902,246.185374 L24.7578083,231.704297 L11.4841695,244.979451 L10.5790909,244.074373 L23.8534318,230.798916 L9.37235482,216.317839 L0,225.690031 L0,223.880031 L8.46697349,215.413462 L0,206.946031 L0,205.135031 L9.37235482,214.508081 L23.8534318,200.027004 L9.37235482,185.545927 L0,194.917031 L0,193.107031 L8.46697349,184.640545 L0,176.173031 L0,174.362031 L9.37235482,183.735164 L23.8534318,169.254087 L9.37235482,154.77301 L0,164.145031 L0,162.334031 L8.46697349,153.867629 L0,145.400031 L0,143.590031 L9.37235482,152.963252 L23.8534318,138.482175 L9.37134996,124.000093 L0,133.372031 L0,131.562031 L8.46697349,123.095717 L0,114.628031 L0,112.817031 L9.37235482,122.190335 L23.8534318,107.709258 L9.37235482,93.2281814 L0,102.601031 L0,100.789031 L8.46697349,92.3228001 L0,83.8550305 L0,82.0440305 L9.37235482,91.4174188 L23.8534318,76.9363417 L9.37235482,62.4552647 L0,71.8280305 L0,70.0160305 L8.46697349,61.5498834 L0,53.0820305 L0,51.2710305 L9.37235482,60.6445021 L23.8534318,46.163425 L9.37235482,31.682348 L0,41.0550305 L0,39.2430305 L8.46697349,30.7769667 L0,22.3100305 L0,20.4990305 L9.37235482,29.8725902 L23.8534318,15.3915132 L9.37134996,0.90943131 L0,10.2810305 L0,8.47203053 L8.46697349,0.00505483897 L8.461,3.05252475e-05 L10.28,3.05252475e-05 L10.2767313,0.00404997623 L24.7588132,14.4861319 L39.2398902,0.00505483897 L39.234,3.05252475e-05 L41.053,3.05252475e-05 L41.049648,0.00404997623 L55.5317299,14.4861319 L70.0128069,0.00505483897 L70.007,3.05252475e-05 L71.826,3.05252475e-05 L71.8225647,0.00404997623 L86.3036417,14.485127 L100.784719,0.00404997623 L100.78,3.05252475e-05 L102.599,3.05252475e-05 Z M40.1442667,216.317839 L25.6631896,230.798916 L40.1442667,245.280997 L54.6263485,230.79992 L40.1442667,216.317839 Z M55.530725,200.93138 L41.049648,215.412457 L55.530725,229.894539 L70.0128069,215.413462 L55.530725,200.93138 Z M24.7588132,200.932385 L10.2767313,215.413462 L24.7578083,229.894539 L39.2398902,215.413462 L24.7588132,200.932385 Z M40.1452715,185.545927 L25.6631896,200.027004 L40.1442667,214.508081 L54.6263485,200.027004 L40.1452715,185.545927 Z M70.9171834,185.545927 L56.4361064,200.027004 L70.9171834,214.508081 L85.3982604,200.027004 L70.9171834,185.545927 Z M55.530725,170.159468 L41.049648,184.640545 L55.530725,199.121622 L70.011802,184.640545 L55.530725,170.159468 Z M86.3036417,170.159468 L71.8225647,184.640545 L86.3036417,199.121622 L100.784719,184.640545 L86.3036417,170.159468 Z M24.7588132,170.159468 L10.2767313,184.640545 L24.7588132,199.121622 L39.2398902,184.640545 L24.7588132,170.159468 Z M70.9171834,154.77301 L56.4361064,169.254087 L70.9171834,183.735164 L85.3982604,169.254087 L70.9171834,154.77301 Z M40.1442667,154.77301 L25.6631896,169.254087 L40.1442667,183.735164 L54.6253437,169.254087 L40.1442667,154.77301 Z M101.6901,154.77301 L87.2090231,169.254087 L101.6901,183.735164 L116.171177,169.254087 L101.6901,154.77301 Z M55.530725,139.386552 L41.049648,153.867629 L55.530725,168.348706 L70.011802,153.867629 L55.530725,139.386552 Z M86.3036417,139.386552 L71.8225647,153.867629 L86.3036417,168.348706 L100.784719,153.867629 L86.3036417,139.386552 Z M24.7578083,139.386552 L10.2767313,153.867629 L24.7578083,168.348706 L39.2388853,153.867629 L24.7578083,139.386552 Z M117.076558,139.386552 L102.595481,153.867629 L117.076558,168.348706 L131.557635,153.867629 L117.076558,139.386552 Z M132.463017,124.000093 L117.98194,138.482175 L132.463017,152.963252 L146.944094,138.48117 L132.463017,124.000093 Z M70.9171834,124.000093 L56.4361064,138.48117 L70.9171834,152.962247 L85.3982604,138.48117 L70.9171834,124.000093 Z M40.1442667,124.000093 L25.6631896,138.48117 L40.1442667,152.962247 L54.6253437,138.48117 L40.1442667,124.000093 Z M101.6901,124.000093 L87.2090231,138.48117 L101.6901,152.962247 L116.171177,138.48117 L101.6901,124.000093 Z M117.076558,108.61464 L102.595481,123.095717 L117.076558,137.576794 L131.557635,123.094712 L117.076558,108.61464 Z M24.7578083,108.613635 L10.2767313,123.094712 L24.7588132,137.576794 L39.2398902,123.095717 L24.7578083,108.613635 Z M147.849475,108.61464 L133.368398,123.095717 L147.849475,137.576794 L162.330552,123.095717 L147.849475,108.61464 Z M86.3036417,108.613635 L71.8225647,123.094712 L86.3036417,137.575789 L100.784719,123.094712 L86.3036417,108.613635 Z M55.530725,108.613635 L41.049648,123.094712 L55.530725,137.575789 L70.011802,123.094712 L55.530725,108.613635 Z M163.235933,93.2271766 L148.753852,107.709258 L163.234929,122.190335 L177.717011,107.708254 L163.235933,93.2271766 Z M101.6901,93.2281814 L87.2090231,107.709258 L101.6901,122.190335 L116.171177,107.709258 L101.6901,93.2281814 Z M132.463017,93.2281814 L117.98194,107.709258 L132.463017,122.190335 L146.944094,107.709258 L132.463017,93.2281814 Z M40.1442667,93.2271766 L25.6631896,107.708254 L40.1452715,122.190335 L54.6263485,107.709258 L40.1442667,93.2271766 Z M70.9171834,93.2271766 L56.4361064,107.708254 L70.9171834,122.189331 L85.3982604,107.708254 L70.9171834,93.2271766 Z M86.3036417,77.8417231 L71.8225647,92.3228001 L86.3036417,106.803877 L100.784719,92.3228001 L86.3036417,77.8417231 Z M24.7588132,77.8417231 L10.2777362,92.3228001 L24.7588132,106.803877 L39.2398902,92.3228001 L24.7588132,77.8417231 Z M55.530725,77.8407182 L41.049648,92.3217952 L55.5317299,106.803877 L70.0128069,92.3228001 L55.530725,77.8407182 Z M117.076558,77.8417231 L102.595481,92.3228001 L117.076558,106.803877 L131.557635,92.3228001 L117.076558,77.8417231 Z M147.849475,77.8407182 L133.368398,92.3228001 L147.84847,106.803877 L162.330552,92.3217952 L147.849475,77.8407182 Z M178.621387,77.8417231 L164.14031,92.3228001 L178.621387,106.803877 L193.102464,92.3228001 L178.621387,77.8417231 Z M132.463017,62.4552647 L117.98194,76.9363417 L132.463017,91.4174188 L146.944094,76.9353369 L132.463017,62.4552647 Z M163.234929,62.4552647 L148.753852,76.9363417 L163.234929,91.4174188 L177.716006,76.9363417 L163.234929,62.4552647 Z M70.9171834,62.4552647 L56.4361064,76.9363417 L70.9171834,91.4174188 L85.3982604,76.9363417 L70.9171834,62.4552647 Z M40.1452715,62.4552647 L25.6641945,76.9363417 L40.1452715,91.4174188 L54.6263485,76.9363417 L40.1452715,62.4552647 Z M101.6901,62.4552647 L87.2090231,76.9363417 L101.6901,91.4174188 L116.171177,76.9363417 L101.6901,62.4552647 Z M24.7588132,47.0688064 L10.2777362,61.5498834 L24.7588132,76.0309604 L39.2398902,61.5498834 L24.7588132,47.0688064 Z M117.076558,47.0688064 L102.595481,61.5498834 L117.076558,76.0309604 L131.557635,61.5498834 L117.076558,47.0688064 Z M86.3036417,47.0688064 L71.8225647,61.5498834 L86.3036417,76.0309604 L100.784719,61.5498834 L86.3036417,47.0688064 Z M55.530725,47.0688064 L41.049648,61.5498834 L55.530725,76.0309604 L70.011802,61.5498834 L55.530725,47.0688064 Z M147.84847,47.0688064 L133.368398,61.5498834 L147.84847,76.0309604 L162.329547,61.5498834 L147.84847,47.0688064 Z M132.462012,31.682348 L117.98194,46.163425 L132.463017,60.6445021 L146.943089,46.163425 L132.462012,31.682348 Z M101.6901,31.682348 L87.2090231,46.163425 L101.6901,60.6445021 L116.171177,46.163425 L101.6901,31.682348 Z M70.9171834,31.682348 L56.4361064,46.163425 L70.9171834,60.6445021 L85.3982604,46.163425 L70.9171834,31.682348 Z M40.1442667,31.682348 L25.6631896,46.163425 L40.1442667,60.6445021 L54.6253437,46.163425 L40.1442667,31.682348 Z M24.7578083,16.2958897 L10.2767313,30.7769667 L24.7588132,45.2590486 L39.2398902,30.7779715 L24.7578083,16.2958897 Z M117.076558,16.2958897 L102.595481,30.7769667 L117.076558,45.2580437 L131.557635,30.7769667 L117.076558,16.2958897 Z M86.3036417,16.2958897 L71.8225647,30.7769667 L86.3036417,45.2580437 L100.784719,30.7769667 L86.3036417,16.2958897 Z M55.530725,16.2958897 L41.049648,30.7769667 L55.530725,45.2580437 L70.011802,30.7769667 L55.530725,16.2958897 Z M40.1442667,0.90943131 L25.6631896,15.3905083 L40.1452715,29.8725902 L54.6263485,15.3915132 L40.1442667,0.90943131 Z M70.9171834,0.90943131 L56.4361064,15.3905083 L70.9171834,29.8715853 L85.3982604,15.3905083 L70.9171834,0.90943131 Z M101.6901,0.90943131 L87.2090231,15.3905083 L101.6901,29.8715853 L116.171177,15.3905083 L101.6901,0.90943131 Z" fill="#115EDE" mask="url(#mask-3)"></path>
        <g mask="url(#mask-3)">
            <g transform="translate(21.333283, 0.000000)">
                <polygon fill="url(#linearGradient-4)" points="234.66198 255.995732 234.66198 0.00100435639 0 0.00100435639 191.996166 255.995732"></polygon>
                <path d="M234.66198,0.00100435639 L234.661911,0.731 L223.680154,11.7122253 L234.661911,22.694 L234.661911,24.505 L222.775154,12.6182253 L208.294154,27.0992253 L222.776154,41.5812253 L234.661911,29.695 L234.661911,31.505 L223.681154,42.4862253 L234.661911,53.467 L234.661911,55.277 L222.776154,43.3912253 L208.295154,57.8722253 L222.776154,72.3532253 L234.661911,60.467 L234.661911,62.277 L223.681154,73.2582253 L234.661911,84.239 L234.661911,86.05 L222.775154,74.1632253 L208.294154,88.6452253 L222.775154,103.126225 L234.661911,91.238 L234.661911,93.048 L223.680154,104.031225 L234.661911,115.013 L234.661911,116.823 L222.775154,104.936225 L208.294154,119.417225 L222.776154,133.899225 L234.661911,122.013 L234.661911,123.823 L223.681154,134.804225 L234.661911,145.785 L234.661911,147.595 L222.776154,135.709225 L208.294154,150.190225 L222.775154,164.671225 L234.661911,152.785 L234.661911,154.595 L223.680154,165.576225 L234.661911,176.558 L234.661911,178.368 L222.775154,166.481225 L208.293154,180.962225 L222.775154,195.444225 L234.661911,183.556 L234.661911,185.368 L223.680154,196.349225 L234.661911,207.331 L234.661911,209.141 L222.775154,197.254225 L208.294154,211.735225 L222.775154,226.216225 L234.661911,214.329 L234.661911,216.139 L223.680154,227.121225 L234.661911,238.103 L234.661911,239.913 L222.775154,228.026225 L208.294154,242.507225 L221.781911,255.995 L219.970911,255.995 L207.389154,243.413225 L194.805911,255.995 L192.995911,255.995 L206.484154,242.508225 L192.003154,228.027225 L180.011911,240.017 L179.236911,238.982 L191.097154,227.121225 L176.616154,212.640225 L166.823911,222.432 L166.047911,221.397 L175.711154,211.735225 L161.230154,197.254225 L153.635911,204.848 L152.859911,203.814 L160.325154,196.349225 L145.843154,181.867225 L140.446911,187.263 L139.671911,186.229 L144.938154,180.962225 L130.457154,166.481225 L127.258911,169.679 L126.482911,168.645 L129.552154,165.576225 L115.071154,151.095225 L114.070911,152.095 L113.294911,151.061 L114.166154,150.190225 L108.071911,144.096 L102.638911,136.852 L115.071154,149.284225 L129.552154,134.803225 L115.071154,120.322225 L100.882911,134.51 L100.106911,133.475 L114.166154,119.417225 L99.6851537,104.936225 L87.6939106,116.926 L86.9189106,115.892 L98.7801537,104.031225 L84.2981537,89.5492253 L74.5059106,99.341 L73.7299106,98.307 L83.3931537,88.6442253 L68.9121537,74.1632253 L61.3179106,81.757 L60.5419106,80.723 L68.0071537,73.2582253 L53.5261537,58.7772253 L48.1299106,64.173 L47.3539106,63.139 L52.6211537,57.8722253 L38.1391537,43.3902253 L34.9409106,46.588 L34.1649106,45.554 L37.2341537,42.4852253 L22.7531537,28.0042253 L21.7529106,29.004 L20.9769106,27.97 L21.8481537,27.0992253 L15.7529106,21.003 L10.3239106,13.765 L22.7531537,26.1942253 L37.2341537,11.7132253 L25.5209106,0.001 L27.3309106,0.001 L38.1391537,10.8082253 L48.9459106,0.001 L50.7559106,0.001 L39.0441537,11.7132253 L53.5251537,26.1942253 L68.0071537,11.7132253 L56.2939106,0.001 L58.1039106,0.001 L68.9121537,10.8082253 L79.7189106,0.001 L81.5289106,0.001 L69.8171537,11.7132253 L84.2981537,26.1942253 L98.7801537,11.7132253 L87.0669106,0.001 L88.8769106,0.001 L99.6851537,10.8082253 L110.492911,0.001 L112.302911,0.001 L100.590154,11.7132253 L115.071154,26.1942253 L129.552154,11.7132253 L117.838911,0.001 L119.648911,0.001 L130.457154,10.8082253 L141.263911,0.001 L143.073911,0.001 L131.362154,11.7132253 L145.843154,26.1942253 L160.325154,11.7132253 L148.611911,0.001 L150.422911,0.001 L161.230154,10.8072253 L172.036911,0.001 L173.848911,0.001 L162.136154,11.7132253 L176.617154,26.1942253 L191.098154,11.7132253 L179.384911,0.001 L181.194911,0.001 L192.003154,10.8082253 L202.810911,0.001 L204.620911,0.001 L192.908154,11.7132253 L207.389154,26.1942253 L221.870154,11.7132253 L210.156911,0.001 L211.967911,0.001 L222.775154,10.8072253 L233.581911,0.001 L234.66198,0.00100435639 Z M234.661911,245.101 L234.661911,246.911 L225.577911,255.995 L223.767911,255.995 L234.661911,245.101 Z M207.389154,212.640225 L192.908154,227.121225 L207.389154,241.602225 L221.870154,227.121225 L207.389154,212.640225 Z M192.002154,197.253225 L177.521154,211.734225 L192.003154,226.216225 L206.484154,211.735225 L192.002154,197.253225 Z M207.388154,181.867225 L192.907154,196.348225 L207.389154,210.830225 L221.870154,196.349225 L207.388154,181.867225 Z M176.617154,181.868225 L162.135154,196.349225 L176.616154,210.829225 L191.097154,196.348225 L176.617154,181.868225 Z M161.230154,166.481225 L146.749154,180.962225 L161.230154,195.443225 L175.711154,180.962225 L161.230154,166.481225 Z M192.003154,166.482225 L177.522154,180.963225 L192.002154,195.443225 L206.483154,180.962225 L192.003154,166.482225 Z M176.616154,151.095225 L162.135154,165.576225 L176.616154,180.057225 L191.097154,165.576225 L176.616154,151.095225 Z M145.844154,151.095225 L131.362154,165.576225 L145.844154,180.057225 L160.325154,165.576225 L145.844154,151.095225 Z M207.389154,151.095225 L192.908154,165.577225 L207.388154,180.057225 L221.870154,165.576225 L207.389154,151.095225 Z M192.002154,135.708225 L177.521154,150.190225 L192.002154,164.671225 L206.484154,150.190225 L192.002154,135.708225 Z M130.457154,135.708225 L115.976154,150.189225 L130.457154,164.671225 L144.939154,150.190225 L130.457154,135.708225 Z M161.230154,135.709225 L146.749154,150.190225 L161.230154,164.671225 L175.711154,150.190225 L161.230154,135.709225 Z M145.843154,120.322225 L131.362154,134.803225 L145.844154,149.285225 L160.325154,134.804225 L145.843154,120.322225 Z M176.616154,120.322225 L162.135154,134.804225 L176.616154,149.285225 L191.097154,134.803225 L176.616154,120.322225 Z M207.389154,120.322225 L192.907154,134.803225 L207.389154,149.285225 L221.871154,134.804225 L207.389154,120.322225 Z M161.230154,104.936225 L146.748154,119.417225 L161.230154,133.899225 L175.711154,119.417225 L161.230154,104.936225 Z M130.457154,104.936225 L115.976154,119.417225 L130.457154,133.898225 L144.938154,119.417225 L130.457154,104.936225 Z M192.003154,104.936225 L177.521154,119.417225 L192.002154,133.898225 L206.484154,119.417225 L192.003154,104.936225 Z M115.071154,89.5502253 L100.590154,104.031225 L115.071154,118.512225 L129.552154,104.031225 L115.071154,89.5502253 Z M145.843154,89.5492253 L131.362154,104.031225 L145.843154,118.512225 L160.325154,104.031225 L145.843154,89.5492253 Z M176.617154,89.5502253 L162.135154,104.031225 L176.616154,118.512225 L191.098154,104.031225 L176.617154,89.5502253 Z M207.389154,89.5502253 L192.908154,104.031225 L207.389154,118.512225 L221.870154,104.031225 L207.389154,89.5502253 Z M130.457154,74.1632253 L115.976154,88.6452253 L130.457154,103.126225 L144.938154,88.6442253 L130.457154,74.1632253 Z M161.230154,74.1632253 L146.748154,88.6442253 L161.230154,103.126225 L175.712154,88.6452253 L161.230154,74.1632253 Z M192.003154,74.1642253 L177.522154,88.6452253 L192.003154,103.126225 L206.484154,88.6452253 L192.003154,74.1642253 Z M99.6841537,74.1632253 L85.2031537,88.6442253 L99.6851537,103.126225 L114.166154,88.6452253 L99.6841537,74.1632253 Z M176.616154,58.7772253 L162.135154,73.2582253 L176.617154,87.7402253 L191.098154,73.2592253 L176.616154,58.7772253 Z M207.389154,58.7772253 L192.908154,73.2592253 L207.389154,87.7402253 L221.870154,73.2582253 L207.389154,58.7772253 Z M115.071154,58.7772253 L100.589154,73.2582253 L115.071154,87.7402253 L129.552154,73.2582253 L115.071154,58.7772253 Z M84.2981537,58.7772253 L69.8171537,73.2582253 L84.2981537,87.7392253 L98.7791537,73.2582253 L84.2981537,58.7772253 Z M145.844154,58.7772253 L131.362154,73.2582253 L145.843154,87.7392253 L160.325154,73.2582253 L145.844154,58.7772253 Z M192.002154,43.3902253 L177.521154,57.8722253 L192.003154,72.3542253 L206.484154,57.8722253 L192.002154,43.3902253 Z M130.458154,43.3912253 L115.976154,57.8722253 L130.457154,72.3532253 L144.939154,57.8722253 L130.458154,43.3912253 Z M68.9121537,43.3912253 L54.4311537,57.8722253 L68.9121537,72.3532253 L83.3931537,57.8722253 L68.9121537,43.3912253 Z M161.230154,43.3912253 L146.749154,57.8722253 L161.230154,72.3532253 L175.711154,57.8722253 L161.230154,43.3912253 Z M99.6841537,43.3902253 L85.2031537,57.8722253 L99.6841537,72.3532253 L114.166154,57.8722253 L99.6841537,43.3902253 Z M53.5251537,28.0042253 L39.0441537,42.4852253 L53.5261537,56.9672253 L68.0071537,42.4862253 L53.5251537,28.0042253 Z M176.616154,28.0042253 L162.135154,42.4862253 L176.616154,56.9672253 L191.097154,42.4852253 L176.616154,28.0042253 Z M207.389154,28.0042253 L192.908154,42.4852253 L207.390154,56.9672253 L221.871154,42.4862253 L207.389154,28.0042253 Z M84.2981537,28.0042253 L69.8171537,42.4862253 L84.2981537,56.9672253 L98.7791537,42.4852253 L84.2981537,28.0042253 Z M115.071154,28.0042253 L100.589154,42.4852253 L115.071154,56.9672253 L129.552154,42.4852253 L115.071154,28.0042253 Z M145.844154,28.0052253 L131.363154,42.4862253 L145.844154,56.9672253 L160.325154,42.4862253 L145.844154,28.0052253 Z M161.230154,12.6182253 L146.749154,27.1002253 L161.230154,41.5812253 L175.711154,27.0992253 L161.230154,12.6182253 Z M68.9121537,12.6182253 L54.4301537,27.0992253 L68.9121537,41.5812253 L83.3931537,27.0992253 L68.9121537,12.6182253 Z M99.6851537,12.6182253 L85.2031537,27.0992253 L99.6841537,41.5802253 L114.166154,27.0992253 L99.6851537,12.6182253 Z M192.003154,12.6182253 L177.522154,27.0992253 L192.003154,41.5802253 L206.484154,27.0992253 L192.003154,12.6182253 Z M38.1391537,12.6182253 L23.6581537,27.0992253 L38.1391537,41.5802253 L52.6201537,27.0992253 L38.1391537,12.6182253 Z M130.457154,12.6182253 L115.976154,27.0992253 L130.457154,41.5802253 L144.938154,27.0992253 L130.457154,12.6182253 Z M19.9849106,0.001 L8.56491056,11.42 L7.78991056,10.386 L18.1749106,0.001 L19.9849106,0.001 Z" fill="#3582F7" fill-rule="evenodd"></path>
            </g>
        </g>
        <g mask="url(#mask-3)">
            <g transform="translate(0.000376, 164.904218)">
                <polygon stroke="#0D57D9" stroke-width="1" fill="url(#linearGradient-5)" points="186.44961 1.42799585e-14 0 52.6922811 0 91.0915142 255.994888 91.0915142 255.994888 73.5985302"></polygon>
                <mask id="mask-7" fill="white">
                    <use xlink:href="#path-6"></use>
                </mask>
                <use stroke="none" fill="#1362DD" fill-rule="evenodd" xlink:href="#path-6"></use>
            </g>
        </g>
        <g mask="url(#mask-3)">
            <g transform="translate(46.932719, 45.226661)">
                <polygon fill="#6AABD4" fill-rule="evenodd" points="51.1990309 0 39.6792609 65.7053012 81.9184174 88.3181829"></polygon>
                <polygon fill="#E4F6FE" points="122.450941 65.7053012 51.1990309 0 81.9184174 88.3181829 122.450941 65.7053012"></polygon>
                <polygon fill="#A8CCE9" points="122.450941 65.7053012 81.9184174 88.3181829 162.556807 135.677237 122.450941 65.7053012"></polygon>
                <polygon fill="#D8E9F8" points="162.556807 135.677237 81.9184174 88.3181829 121.170967 153.170221"></polygon>
                <polygon fill="#84C1F2" points="121.170967 153.170221 81.9184174 88.3181829 0 135.677237 121.170967 153.170221"></polygon>
                <polygon fill="#AECEE9" points="4.73685698e-15 135.677237 81.9184174 88.3181829 39.6792609 65.7053012 1.42105709e-14 135.677237"></polygon>
            </g>
        </g>
    </g>
</svg>