<?xml version="1.0" encoding="UTF-8"?>
<svg width="512px" height="158px" viewBox="0 0 512 158" version="1.1" xmlns="http://www.w3.org/2000/svg" xmlns:xlink="http://www.w3.org/1999/xlink" preserveAspectRatio="xMidYMid">
    <g>
				<path d="M250.166203,110.523475 C253.231387,110.523475 256.060788,110.995042 258.418622,111.938176 C260.776456,112.88131 263.13429,114.29601 264.784774,116.182277 C266.435258,118.068545 267.849959,120.190595 268.321525,123.019996 C269.264659,125.613614 269.736226,128.443015 269.736226,131.508199 C269.736226,133.741937 268.67814,135.129206 266.361488,135.269046 L265.963691,135.280734 L236.019198,135.280734 C236.254981,136.931218 236.490765,138.581702 237.198115,139.996402 C237.905465,141.646886 239.084382,143.29737 240.263299,144.476287 C241.442216,145.890988 243.0927,146.834121 244.743184,147.541471 C246.629451,148.248822 248.515719,148.720389 250.401986,148.720389 C253.231387,148.720389 255.353438,148.013038 257.239705,147.069905 C259.125972,145.890988 260.540673,144.712071 261.71959,143.533153 C263.051073,141.979757 265.009136,141.888381 266.414334,142.865876 L266.671042,143.061587 C267.378392,143.533153 267.849959,144.476287 267.849959,145.419421 C267.849959,145.890988 267.849959,146.126771 267.614175,146.598338 C267.614175,146.99131 267.450437,147.384283 267.12296,147.777255 L266.906825,148.013038 C264.784774,150.370872 262.42694,152.021356 259.597539,153.200273 C256.768138,154.379191 253.938737,154.850757 250.637769,154.850757 C247.572585,154.850757 244.507401,154.379191 241.913783,153.200273 C239.320165,152.021356 236.962331,150.370872 235.076064,148.484605 C233.189797,146.362554 231.775096,144.00472 230.596179,141.411103 C229.417262,138.817485 228.945695,135.752301 228.945695,132.687116 C228.945695,129.621932 229.417262,126.556748 230.596179,123.96313 C231.775096,121.133729 233.189797,118.775895 235.076064,116.889628 C237.198115,114.767577 239.320165,113.352876 241.913783,112.173959 C244.507401,110.995042 247.101018,110.523475 250.166203,110.523475 Z M422.995445,111.230826 C423.467012,111.230826 423.938579,111.466609 424.174362,111.702393 C424.410146,111.938176 424.881713,112.409743 424.881713,113.117093 C425.070339,113.682973 425.258966,114.248853 425.326872,114.814734 L425.353279,115.239144 L425.353279,150.606656 C425.353279,151.314006 425.117496,152.021356 424.881713,152.492923 L424.637196,152.955757 C424.462542,153.25267 424.252957,153.514651 423.938579,153.67184 L423.455694,153.93969 C423.24066,154.058525 423.042602,154.143407 422.759662,154.143407 C422.523878,154.379191 422.052312,154.379191 421.816528,154.379191 C421.627901,154.379191 421.439275,154.228289 421.129927,154.167929 L420.873394,154.143407 C420.401828,154.143407 419.930261,153.907624 419.694477,153.67184 L419.328542,153.290814 C419.119166,153.058803 418.892814,152.775863 418.751344,152.492923 C418.562717,151.927043 418.37409,151.361163 418.306185,150.795283 L418.279777,150.370872 L418.279777,115.00336 C418.279777,114.060227 418.51556,113.352876 418.751344,112.88131 L418.99586,112.418475 C419.170514,112.121563 419.3801,111.859581 419.694477,111.702393 L420.177362,111.434543 C420.392396,111.315708 420.590454,111.230826 420.873394,111.230826 C421.816528,110.995042 422.288095,110.995042 422.995445,111.230826 Z M341.414384,110.523475 C346.837402,110.523475 350.84572,112.173959 352.967771,115.474927 C355.417299,118.369824 356.815262,122.316285 356.963031,127.115682 L356.976089,127.971448 L356.976089,150.370872 C356.976089,151.078223 356.740306,151.785573 356.504522,152.25714 C356.268739,152.728707 356.032956,153.200273 355.561389,153.436057 L355.078504,153.703907 C354.86347,153.822742 354.665412,153.907624 354.382472,153.907624 C354.146688,154.143407 353.675121,154.143407 353.439338,154.143407 C353.203555,154.143407 352.967771,153.907624 352.496204,153.907624 C352.024638,153.907624 351.553071,153.67184 351.317287,153.436057 C351.081504,153.200273 350.609937,152.728707 350.374154,152.25714 C350.185527,151.69126 349.9969,151.125379 349.928995,150.559499 L349.902587,150.135089 L349.902587,130.329282 C349.902587,128.207232 349.666803,126.320964 349.43102,124.67048 C349.195237,123.019996 348.487886,121.605296 347.780536,120.426379 C347.161605,119.601137 346.362151,118.775895 345.22422,118.108609 L344.715352,117.832761 C343.536435,117.125411 341.885951,116.889628 339.7639,116.889628 C338.349199,116.889628 336.934499,117.125411 335.519799,117.832761 C334.105098,118.540112 332.926181,119.483245 331.747264,120.662162 C330.80413,121.841079 329.860997,123.491563 329.153646,125.377831 C328.524891,127.054513 328.268731,129.103791 328.219569,131.360067 L328.210513,132.21555 L328.210513,150.370872 C328.210513,151.314006 327.974729,152.021356 327.738946,152.492923 L327.49443,152.955757 C327.319775,153.25267 327.11019,153.514651 326.795812,153.67184 L326.312928,153.93969 C326.097893,154.058525 325.899835,154.143407 325.616895,154.143407 C324.673761,154.379191 324.202195,154.379191 323.494844,154.143407 C323.023278,154.143407 322.787494,153.907624 322.315927,153.67184 L321.949991,153.290814 C321.740616,153.058803 321.514264,152.775863 321.372794,152.492923 C321.184167,151.927043 320.99554,151.361163 320.927635,150.795283 L320.901227,150.370872 L320.901227,114.531793 C320.901227,113.824443 321.13701,113.117093 321.372794,112.645526 C321.608577,112.173959 321.84436,111.702393 322.315927,111.466609 C322.787494,111.230826 323.023278,110.995042 323.494844,110.995042 C324.202195,110.759259 324.673761,110.759259 325.381112,110.995042 C325.852679,110.995042 326.088462,111.230826 326.560029,111.466609 L327.027823,111.949494 C327.220222,112.164528 327.361692,112.362586 327.503162,112.645526 C327.699649,113.038499 327.896135,113.595209 327.956172,114.17921 L327.974729,114.531793 L327.974729,117.125411 C329.153646,115.474927 330.80413,114.060227 332.926181,112.88131 C335.519799,111.230826 338.349199,110.523475 341.414384,110.523475 Z M294.493484,110.523475 C296.851319,110.523475 298.973369,110.759259 300.859637,111.466609 C302.745904,112.173959 304.632171,113.117093 306.046872,114.29601 C307.461572,115.710711 308.640489,117.361194 309.583623,119.247462 C310.212379,120.924144 310.654836,122.973422 310.745398,125.229698 L310.76254,126.085181 L310.76254,146.598338 C310.76254,147.128851 310.895168,147.791991 310.961482,148.388818 L310.998323,148.956172 L310.998323,150.135089 C310.998323,151.314006 310.76254,152.021356 310.05519,152.728707 C308.876273,153.67184 307.461572,153.907624 305.811088,152.96449 C305.103738,152.492923 304.632171,151.54979 304.396388,150.135089 C304.396388,149.191955 304.160604,148.484605 304.160604,147.541471 C302.660165,149.470609 301.159725,151.010021 299.30499,151.982561 L298.737586,152.25714 C296.379752,153.436057 293.314567,154.143407 290.0136,154.143407 C288.363116,154.143407 286.712632,153.907624 285.062148,153.436057 C283.411664,153.200273 281.76118,152.25714 280.34648,151.314006 C278.931779,150.370872 277.752862,148.956172 276.809728,147.305688 C275.866595,145.655204 275.395028,143.533153 275.395028,141.175319 C275.395028,137.874352 276.338162,135.280734 277.988645,133.394467 C279.639129,131.508199 281.76118,130.093499 284.590581,129.150365 C287.419982,128.443015 290.485166,127.735665 294.021918,127.499881 L297.331618,127.272831 C298.995201,127.168038 300.678433,127.082894 302.410786,127.046871 L304.160604,127.028314 L304.160604,126.320964 C304.160604,123.019996 303.217471,120.662162 301.566987,119.011678 C299.916503,117.361194 297.322885,116.653844 294.021918,116.653844 C290.249383,116.653844 286.948415,117.832761 283.883231,119.954812 C281.996963,121.133729 280.582263,120.897946 279.403346,119.954812 C278.695996,119.247462 278.460212,118.540112 278.460212,117.596978 C278.460212,116.653844 278.931779,115.710711 279.874913,115.00336 C281.289613,113.58866 283.411664,112.645526 286.005282,111.702393 C288.598899,110.995042 291.4283,110.523475 294.493484,110.523475 Z M406.72639,90.0103184 C407.669523,90.0103184 408.612657,90.2461018 409.320007,90.9534521 C410.027357,91.6608023 410.263141,92.603936 410.263141,93.5470696 C410.263141,94.0186364 410.263141,94.4902033 410.027357,94.9617701 C409.830871,95.3547425 409.470647,95.9114533 408.946683,96.3590052 L408.612657,96.612254 L381.969131,119.247462 L410.734708,146.834121 C411.677841,147.777255 412.149408,148.956172 412.149408,149.899306 C412.149408,151.078223 411.677841,152.021356 410.970491,152.728707 C410.263141,153.436057 409.320007,153.907624 408.14109,153.907624 C407.302749,153.907624 406.27811,153.535028 405.398369,152.789836 L405.075906,152.492923 L374.659845,121.605296 L374.659845,149.899306 C374.659845,150.707706 374.486617,151.342878 374.288641,151.804821 L374.188278,152.021356 C373.952495,152.492923 373.716712,152.96449 373.245145,153.200273 C372.773578,153.67184 372.302011,153.907624 371.830444,153.907624 C370.887311,154.143407 370.415744,154.143407 369.708394,153.907624 C369.236827,153.67184 369.001043,153.436057 368.529477,153.200273 L368.163541,152.819247 C367.954165,152.587237 367.727813,152.304296 367.586343,152.021356 C367.384243,151.617156 367.182143,151.039727 367.128524,150.28907 L367.114776,149.899306 L367.114776,94.0186364 C367.114776,92.3681525 367.586343,91.1892355 368.529477,90.7176686 C370.17996,89.774535 371.123094,89.774535 373.009361,90.7176686 C373.873901,91.1499382 374.342193,92.1765785 374.414238,93.6159762 L374.424062,94.0186364 L374.424062,117.361194 L403.661205,91.1892355 C404.132772,90.7176686 404.840122,90.4818852 405.311689,90.2461018 C406.019039,90.0103184 406.254823,90.0103184 406.72639,90.0103184 Z M444.215953,99.441655 C444.687519,99.441655 444.923303,99.6774384 445.39487,99.9132218 L445.760805,100.294248 C445.970181,100.526259 446.196533,100.809199 446.338003,101.092139 C446.52663,101.658019 446.715257,102.223899 446.783162,102.789779 L446.80957,103.21419 L446.80957,111.466609 L455.533556,111.466609 C456.819648,111.466609 457.716014,111.661471 458.222656,112.405491 L458.362957,112.645526 C458.834524,113.352876 459.070308,114.060227 459.070308,114.531793 C459.070308,115.00336 458.834524,115.710711 458.362957,116.418061 C457.938547,117.054676 457.132168,117.500307 455.94382,117.583067 L455.533556,117.596978 L446.80957,117.596978 L446.80957,140.703752 C446.80957,143.533153 447.281137,145.183637 448.224271,146.126771 C449.167404,147.069905 450.346321,147.541471 451.996805,147.541471 C452.704155,147.541471 453.647289,147.305688 454.354639,147.069905 C454.826206,146.834121 455.297773,146.834121 455.76934,146.834121 C456.712473,146.834121 457.419824,147.069905 457.655607,147.541471 C458.362957,148.248822 458.598741,148.956172 458.598741,149.899306 C458.598741,150.370872 458.362957,151.078223 458.127174,151.54979 C457.891391,152.021356 457.18404,152.492923 456.240907,152.96449 L455.623608,153.16659 C455.090861,153.335007 454.489373,153.503424 453.647289,153.67184 C452.704155,153.907624 451.525238,153.907624 450.582105,153.907624 C449.638971,153.907624 448.224271,153.67184 447.045353,153.436057 C445.866436,152.96449 444.687519,152.492923 443.508602,151.54979 C442.329685,150.606656 441.386552,149.427739 440.679201,148.013038 C440.042586,146.739808 439.596955,145.084608 439.514195,143.04744 L439.500284,142.354236 L439.500284,117.596978 L433.841482,117.596978 C432.426782,117.596978 431.483648,117.125411 431.012081,116.418061 C430.540514,115.710711 430.304731,115.00336 430.304731,114.531793 C430.304731,114.060227 430.540514,113.352876 431.012081,112.645526 C431.436491,112.008911 432.242871,111.56328 433.431219,111.48052 L433.841482,111.466609 L439.500284,111.466609 L439.500284,103.21419 C439.500284,102.405789 439.673513,101.770618 439.871488,101.308675 L439.971851,101.092139 C440.207634,100.620572 440.443418,100.149005 440.914985,99.9132218 L441.397869,99.6453718 C441.612904,99.526537 441.810962,99.441655 442.093902,99.441655 C443.037035,99.2058716 443.272819,99.2058716 444.215953,99.441655 Z M198.529635,90.9534521 C199.394174,91.3857217 199.862466,92.4123619 199.934511,93.8517596 L199.944335,94.2544199 L199.944335,146.598338 L225.408944,146.598338 C226.116294,146.598338 226.823645,146.834121 227.295211,147.069905 C227.766778,147.305688 228.238345,147.541471 228.474128,148.013038 C228.709912,148.248822 228.945695,148.720389 229.417262,149.191955 C229.653046,149.427739 229.653046,149.899306 229.653046,150.135089 C229.653046,150.724548 229.489307,151.314006 229.16183,151.903465 L228.945695,152.25714 C228.516998,153.114534 227.503714,153.582204 226.260138,153.660149 L225.880511,153.67184 L197.114934,153.67184 C194.189077,153.67184 192.767069,152.16799 192.64384,149.570431 L192.635049,149.191955 L192.635049,94.2544199 C192.635049,92.603936 193.106616,91.4250189 194.04975,90.9534521 C195.700234,90.0103184 196.643368,90.0103184 198.529635,90.9534521 Z M303.924821,133.158683 L302.745904,133.158683 C300.781042,133.158683 298.81618,133.322422 296.987767,133.51345 L295.908185,133.63025 C293.550351,133.866033 291.192517,134.3376 289.306249,134.809167 C287.419982,135.516517 285.769498,136.223868 284.590581,137.402785 C283.411664,138.345918 282.940097,139.760619 282.940097,141.411103 C282.940097,142.825803 283.175881,143.768937 283.647447,144.712071 C284.119014,145.655204 284.590581,146.362554 285.533715,146.834121 C286.241065,147.305688 287.419982,147.777255 288.363116,148.013038 C291.4283,148.720389 294.493484,148.248822 296.851319,147.305688 C298.266019,146.598338 299.68072,145.655204 300.623853,144.476287 C301.566987,143.29737 302.510121,142.118453 302.981687,140.467969 C303.600619,139.023796 303.858507,137.579622 303.913308,136.135449 L303.924821,135.516517 L303.924821,133.158683 Z M250.166203,116.889628 C248.279935,116.889628 246.393668,117.125411 244.978967,118.068545 C243.328484,118.775895 241.913783,119.719029 240.734866,120.897946 C239.555949,122.076863 238.612815,123.491563 237.905465,124.906264 C237.299165,125.916764 237.039322,127.100493 236.828973,128.308969 L236.726548,128.914582 L262.898507,128.914582 C262.678442,125.613614 261.636804,122.928827 259.773591,120.86022 L259.361756,120.426379 C257.239705,118.068545 254.174521,116.889628 250.166203,116.889628 Z M492.315769,94.9617701 C492.787336,94.9617701 493.258903,95.1975535 493.258903,96.1406872 L493.258903,111.230826 C493.258903,112.173959 492.787336,112.173959 492.315769,112.173959 C492.079986,112.173959 491.372635,111.938176 491.372635,111.230826 L491.372635,98.9700881 L485.949617,111.466609 C485.713833,112.173959 485.242267,112.173959 485.006483,112.173959 C484.7707,112.173959 484.299133,111.938176 484.06335,111.466609 L478.640331,98.9700881 L478.640331,111.230826 C478.640331,111.938176 478.168764,112.173959 477.697197,112.173959 C477.461414,112.173959 476.754064,111.938176 476.754064,111.230826 L476.754064,96.1406872 C476.754064,95.1975535 477.461414,94.9617701 477.697197,94.9617701 C477.932981,94.9617701 478.404548,95.1975535 478.876114,95.9049038 L485.006483,109.816125 L491.136852,95.9049038 C491.608419,95.1975535 491.844202,94.9617701 492.315769,94.9617701 Z M474.160446,95.1975535 C474.867796,95.1975535 475.10358,95.6691203 475.10358,95.9049038 L475.096035,96.069009 C475.065854,96.3104512 474.914953,96.612254 474.160446,96.612254 L469.208994,96.612254 L469.208994,110.995042 C469.208994,111.702393 468.737428,111.938176 468.265861,111.938176 C468.030077,111.938176 467.322727,111.702393 467.322727,110.995042 L467.322727,96.612254 L462.371275,96.612254 C461.663925,96.612254 461.428142,96.1406872 461.428142,95.9049038 C461.428142,95.6691203 461.663925,95.1975535 462.371275,95.1975535 L474.160446,95.1975535 Z M425.117496,93.0755028 C426.06063,94.0186364 426.532196,95.1975535 426.532196,96.612254 C426.532196,98.0269545 426.06063,99.2058716 425.117496,100.149005 C424.174362,101.092139 422.995445,101.563706 421.816528,101.563706 C420.637611,101.563706 419.458694,101.092139 418.51556,100.149005 C417.572427,99.2058716 417.10086,98.0269545 417.10086,96.612254 C417.10086,95.1975535 417.572427,94.0186364 418.51556,93.0755028 C420.637611,91.4250189 423.231229,91.4250189 425.117496,93.0755028 Z M274.687678,24.6983126 C276.809728,24.6983126 279.167563,24.9340961 281.05383,25.6414463 C282.940097,26.3487965 284.826364,27.2919302 286.241065,28.4708473 C287.655765,29.8855478 288.834682,31.5360317 289.777816,33.422299 C290.406572,35.098981 290.84903,37.1482591 290.939591,39.404535 L290.956733,40.260018 L290.956733,61.0089584 C290.956733,61.7163087 291.192517,62.6594423 291.192517,63.3667926 C291.381143,63.5554193 291.418869,63.8949474 291.426414,64.1439347 L291.4283,65.0172765 C291.4283,66.1961936 291.192517,66.9035438 290.485166,67.610894 C289.777816,68.0824609 289.070466,68.3182443 287.655765,68.7898111 C287.184199,68.7898111 286.476848,68.5540277 285.769498,68.0824609 C285.062148,67.610894 284.590581,66.431977 284.354798,65.0172765 C284.119014,64.3099262 284.119014,63.3667926 284.119014,62.6594423 C282.46853,64.7814931 280.582263,66.431977 278.695996,67.3751106 C276.338162,68.5540277 273.272977,69.2613779 269.972009,69.2613779 C268.321525,69.2613779 266.671042,69.0255945 265.020558,68.5540277 C263.370074,68.0824609 261.71959,67.1393272 260.304889,66.1961936 C258.890189,65.2530599 257.711272,63.8383594 256.768138,62.1878755 C255.825004,60.5373916 255.353438,58.4153409 255.353438,56.0575067 C255.353438,52.7565389 256.296571,49.927138 257.947055,48.0408707 C259.597539,46.1546033 261.71959,44.7399029 264.548991,43.7967692 C267.378392,42.8536355 270.443576,42.1462853 273.980327,41.9105019 L277.290028,41.6834512 C278.953611,41.5786586 280.636842,41.4935146 282.369196,41.4574921 L284.119014,41.4389351 L284.119014,40.7315848 C284.119014,37.430617 283.175881,35.0727829 281.525397,33.422299 C279.874913,31.7718151 277.281295,31.0644648 273.980327,31.0644648 C270.443576,31.0644648 267.142608,32.2433819 264.077424,34.3654326 C262.191157,35.5443497 260.540673,35.5443497 259.361756,34.3654326 C258.654405,33.6580824 258.418622,32.9507321 258.418622,32.0075985 C258.418622,31.0644648 258.890189,30.3571146 259.833323,29.4139809 C261.300419,28.3660546 263.140112,27.3181284 265.352401,26.4358003 L266.199475,26.1130131 C268.557309,25.1698795 271.622493,24.6983126 274.687678,24.6983126 Z M427.47533,24.6983126 C430.540514,24.6983126 433.369915,25.1698795 435.72775,26.1130131 C438.085584,27.0561468 440.207634,28.4708473 442.093902,30.3571146 C443.744386,32.2433819 445.159086,34.3654326 446.10222,36.9590502 C447.045353,39.5526677 447.51692,42.3820687 447.51692,45.4472531 C447.51692,47.6809907 446.247217,49.0682593 443.908289,49.2081 L443.508602,49.2197877 L413.564109,49.2197877 C413.799892,50.8702716 414.035675,52.5207555 414.743026,53.935456 C415.450376,55.5859399 416.629293,57.2364238 417.80821,58.4153409 C418.987127,59.8300414 420.637611,60.773175 422.288095,61.4805253 C423.938579,62.1878755 425.824846,62.6594423 427.711114,62.6594423 C430.540514,62.6594423 432.662565,61.9520921 434.548833,61.0089584 C436.4351,59.8300414 437.8498,58.6511243 439.028717,57.4722072 C439.971851,56.5290736 440.914985,56.0575067 441.858118,56.0575067 C442.801252,56.0575067 443.508602,56.5290736 444.215953,57.0006404 C444.923303,57.4722072 445.39487,58.4153409 445.39487,59.3584745 C445.39487,59.8300414 445.39487,60.0658248 445.159086,60.5373916 C444.923303,61.0089584 444.687519,61.4805253 444.215953,61.9520921 C442.093902,64.3099262 439.736068,65.9604101 436.906667,67.1393272 C434.313049,68.3182443 431.247865,68.7898111 427.946897,68.7898111 C424.881713,68.7898111 421.816528,68.3182443 419.222911,67.1393272 C416.629293,65.9604101 414.271459,64.3099262 412.385192,62.4236589 C410.498924,60.5373916 408.84844,58.1795575 407.669523,55.5859399 C406.490606,52.9923224 406.019039,49.927138 406.019039,46.8619536 C406.019039,43.7967692 406.490606,40.7315848 407.669523,38.1379673 C408.612657,35.3085663 410.263141,32.9507321 412.149408,31.0644648 C414.035675,28.9424141 416.39351,27.5277136 418.987127,26.3487965 C421.580745,25.1698795 424.410146,24.6983126 427.47533,24.6983126 Z M210.790372,4.89250585 C214.09134,4.89250585 216.920741,5.12828926 219.514359,5.8356395 C221.819797,6.46439527 223.938936,7.27944905 225.70618,8.44639906 L226.352078,8.90082389 L226.963368,9.38920929 C228.348959,10.5665092 229.449282,11.9973814 230.264336,13.4599501 L230.596179,14.088059 C231.775096,16.2101097 232.246663,18.8037273 232.246663,21.6331283 C232.246663,24.4625292 231.539313,27.0561468 230.596179,29.1781975 C229.417262,31.3002482 228.002562,33.1865156 226.116294,34.601216 C224.230027,36.0159165 221.872193,37.1948336 219.278575,37.9021838 C216.973137,38.5309396 214.295104,38.9733974 211.57567,39.0639589 L210.554589,39.0811009 L200.415902,39.0811009 L200.415902,64.3099262 C200.415902,65.2530599 200.180119,65.9604101 199.944335,66.431977 L199.699819,66.8948111 C199.525165,67.1917235 199.31558,67.4537051 199.001202,67.610894 C198.529635,68.0824609 198.058068,68.3182443 197.586501,68.3182443 C197.114934,68.5540277 196.643368,68.5540277 196.407584,68.5540277 C195.936017,68.5540277 195.700234,68.3182443 195.228667,68.3182443 C194.992884,68.0824609 194.521317,67.8466775 194.04975,67.610894 L193.683814,67.229868 C193.474438,66.9978572 193.248086,66.7149171 193.106616,66.431977 C192.904516,66.0277768 192.702416,65.4503481 192.648798,64.6996907 L192.635049,64.3099262 L192.635049,9.37239072 C192.635049,6.67772313 194.132087,5.05236807 196.718805,4.90368271 L197.114934,4.89250585 L210.790372,4.89250585 Z M320.901227,23.9909624 C326.324245,23.9909624 330.332563,25.6414463 333.161964,28.9424141 C335.603016,32.0492073 336.999768,35.9914407 337.155645,40.7691144 L337.170282,41.6747185 L337.170282,64.0741428 C337.170282,65.0172765 336.934499,65.7246267 336.698716,66.1961936 L336.454199,66.6590277 C336.279545,66.9559401 336.06996,67.2179217 335.755582,67.3751106 C335.519799,67.610894 335.048232,67.8466775 334.576665,67.8466775 C334.340881,68.0824609 333.869315,68.0824609 333.633531,68.0824609 C333.444904,68.0824609 333.256278,67.9315595 332.94693,67.8711989 L332.690398,67.8466775 C332.218831,67.8466775 331.983047,67.610894 331.51148,67.3751106 L331.145545,66.9940846 C330.936169,66.7620738 330.709817,66.4791337 330.568347,66.1961936 C330.37972,65.6303134 330.191093,65.0644332 330.123188,64.498553 L330.09678,64.0741428 L330.09678,44.268336 C330.09678,42.1462853 329.860997,40.260018 329.625213,38.6095341 C329.38943,36.9590502 328.68208,35.5443497 327.974729,34.3654326 C327.267379,33.1865156 326.088462,32.4791653 324.909545,31.7718151 C323.730628,31.0644648 322.080144,30.8286814 319.958093,30.8286814 C318.543393,30.8286814 317.128692,31.0644648 315.713992,31.7718151 C314.299291,32.4791653 313.120374,33.422299 311.941457,34.601216 C310.998323,35.7801331 310.05519,37.430617 309.34784,39.3168843 C308.719084,40.9935664 308.462924,43.0428445 308.413762,45.2991203 L308.404706,46.1546033 L308.404706,64.5457097 C308.404706,65.4888433 308.168922,66.1961936 307.933139,66.6677604 L307.688623,67.1305945 C307.513969,67.4275069 307.304383,67.6894885 306.990005,67.8466775 C306.754222,68.0824609 306.282655,68.3182443 305.811088,68.3182443 C304.867955,68.5540277 304.396388,68.5540277 303.689038,68.3182443 C303.217471,68.3182443 302.981687,68.0824609 302.510121,67.8466775 L302.144185,67.4656515 C301.934809,67.2336406 301.708457,66.9507005 301.566987,66.6677604 C301.37836,66.1018802 301.189733,65.536 301.121828,64.9701198 L301.09542,64.5457097 L301.09542,32.0075985 L300.38807,29.6497643 L300.38807,28.2350639 C300.38807,27.5277136 300.623853,26.8203634 300.859637,26.3487965 C301.09542,25.8772297 301.331203,25.4056629 301.80277,25.1698795 L302.285655,24.9020295 C302.500689,24.7831947 302.698747,24.6983126 302.981687,24.6983126 C303.689038,24.4625292 304.160604,24.4625292 304.867955,24.6983126 C305.339521,24.6983126 305.575305,24.9340961 306.046872,25.1698795 C306.282655,25.6414463 306.754222,25.8772297 306.990005,26.3487965 C307.186492,26.7417689 307.382978,27.2984797 307.443015,27.8824803 L307.461572,28.2350639 L307.461572,30.592898 C308.640489,28.9424141 310.05519,27.5277136 312.177241,26.3487965 C315.006641,24.6983126 317.836042,23.9909624 320.901227,23.9909624 Z M483.591783,25.4056629 C484.430124,25.8248334 485.082167,26.6165999 485.547912,27.7809625 L485.713833,28.2350639 L495.616737,57.0006404 L504.576507,27.763497 C505.048073,26.58458 505.51964,25.8772297 506.22699,25.4056629 C506.698557,25.1698795 507.405908,24.9340961 508.113258,24.9340961 C508.9385,24.9340961 509.763742,25.1146177 510.431027,25.6336176 L510.706875,25.8772297 L510.960619,26.1526174 C511.444159,26.7218133 511.778493,27.3904803 511.864148,27.9596762 L511.885792,28.2350639 L511.885792,28.9424141 C511.885792,29.3196676 511.885792,29.5460196 511.765071,29.8629126 L511.650009,30.1213312 L500.332405,64.3099262 C499.903708,65.8103662 499.085286,66.9210814 498.231435,67.4649244 L497.974571,67.610894 L497.584119,67.7985584 C496.829337,68.1450157 496.223037,68.3182443 495.616737,68.3182443 C495.263062,68.3182443 495.042015,68.1856161 494.754654,68.119302 L494.43782,68.0824609 C493.966253,68.0824609 493.494686,67.8466775 493.023119,67.610894 C492.551552,67.3751106 492.315769,66.9035438 491.844202,66.431977 C491.440002,65.8256768 491.209031,65.3926052 491.002806,64.6873172 L490.901069,64.3099262 L481.469732,36.0159165 L472.038395,64.3099262 C471.566829,65.9604101 470.623695,67.1393272 469.680561,67.610894 C468.737428,68.0824609 468.030077,68.3182443 467.322727,68.3182443 C466.969052,68.3182443 466.748005,68.1856161 466.460644,68.119302 L466.14381,68.0824609 C465.672243,68.0824609 465.200676,67.8466775 464.72911,67.610894 L463.550192,66.431977 C463.145992,65.8256768 462.915021,65.3926052 462.708796,64.6873172 L462.607059,64.3099262 L451.289455,30.1213312 C451.053672,29.4139809 451.053672,28.9424141 451.053672,28.4708473 C451.053672,27.5277136 451.525238,26.58458 452.232589,25.8772297 C452.939939,25.1698795 453.883072,24.9340961 454.826206,24.9340961 L455.28265,24.9450947 C455.701973,24.9725913 456.207223,25.0688294 456.712473,25.4056629 C457.341229,25.8248334 457.969985,26.4303019 458.267544,27.3876667 L458.362957,27.763497 L467.322727,57.0006404 L476.989847,28.2350639 C477.461414,26.8203634 478.168764,25.8772297 479.111898,25.4056629 C480.762382,24.6983126 481.941299,24.6983126 483.591783,25.4056629 Z M395.644569,25.1698795 C396.116136,25.1698795 396.351919,25.4056629 396.823486,25.6414463 C397.295053,25.8772297 397.530836,26.3487965 397.530836,26.8203634 C397.719463,27.3862436 397.90809,27.9521238 397.975996,28.518004 L398.002403,28.9424141 L398.002403,64.3099262 C398.002403,65.2530599 397.76662,65.9604101 397.530836,66.431977 L397.28632,66.8948111 C397.111666,67.1917235 396.902081,67.4537051 396.587703,67.610894 C396.351919,67.8466775 395.880353,68.0824609 395.408786,68.0824609 C395.173002,68.3182443 394.701436,68.3182443 394.465652,68.3182443 C394.277025,68.3182443 394.088399,68.1673429 393.779051,68.1069823 L393.522518,68.0824609 C393.050952,68.0824609 392.815168,67.8466775 392.343601,67.610894 L391.977666,67.229868 C391.76829,66.9978572 391.541938,66.7149171 391.400468,66.431977 C391.211841,65.8660968 391.023214,65.3002166 390.955309,64.7343364 L390.928901,64.3099262 L390.928901,28.9424141 C390.928901,28.1340138 391.10213,27.4988422 391.300105,27.0368992 L391.400468,26.8203634 C391.636251,26.3487965 391.872035,25.8772297 392.343601,25.6414463 C392.579385,25.4056629 393.050952,25.1698795 393.522518,25.1698795 C394.465652,24.9340961 394.701436,24.9340961 395.644569,25.1698795 Z M244.507401,0.176837561 C244.790341,0.176837561 244.988399,0.26171959 245.203433,0.380554431 L245.686318,0.648404389 L245.852309,0.81628218 C246.101296,1.07281453 246.440825,1.450068 246.629451,1.82732146 L246.826052,2.39237676 C246.949787,2.75258232 247.051524,3.10178925 247.08727,3.57198124 L247.101018,3.94937219 L247.101018,64.3099262 C247.101018,65.2530599 246.865235,65.9604101 246.629451,66.431977 L246.384935,66.8948111 C246.210281,67.1917235 246.000696,67.4537051 245.686318,67.610894 L245.203433,67.878744 C244.988399,67.9975788 244.790341,68.0824609 244.507401,68.0824609 C244.271617,68.3182443 243.80005,68.3182443 243.564267,68.3182443 C243.37564,68.3182443 243.187013,68.1673429 242.877666,68.1069823 L242.621133,68.0824609 C242.149566,68.0824609 241.913783,67.8466775 241.442216,67.610894 L241.06119,67.2449582 C240.829179,67.0355825 240.546239,66.8092304 240.263299,66.6677604 L240.066698,66.1027051 C239.942964,65.7424995 239.841226,65.3932926 239.805481,64.9231006 L239.791732,64.5457097 L239.791732,3.94937219 C239.791732,3.14097191 239.964961,2.50580027 240.162937,2.04385725 L240.263299,1.82732146 C240.499083,1.35575463 240.734866,0.884187804 241.206433,0.648404389 L241.689317,0.380554431 C241.904352,0.26171959 242.10241,0.176837561 242.38535,0.176837561 C243.328484,-0.0589458536 243.564267,-0.0589458536 244.507401,0.176837561 Z M347.073186,24.6983126 C347.780536,24.6983126 348.252103,24.9340961 348.959453,25.1698795 C349.578385,25.5825004 350.197316,26.1756431 350.658291,27.1072639 L350.84572,27.5277136 L363.106458,58.6511243 L375.602979,27.5277136 C376.074546,26.58458 376.546113,25.8772297 377.253463,25.4056629 C377.72503,25.1698795 378.43238,24.9340961 379.13973,24.9340961 C380.318647,24.9340961 381.261781,25.1698795 381.969131,25.8772297 C382.440698,26.58458 382.912265,27.5277136 382.912265,28.4708473 L382.904502,28.8149811 C382.881215,29.1836959 382.788066,29.6106288 382.41547,29.9560564 L382.204915,30.1213312 L367.822126,64.3099262 C367.350559,65.9604101 366.407426,66.9035438 365.464292,67.3751106 C364.521158,67.8466775 363.578025,68.0824609 362.870675,68.0824609 C362.163324,68.0824609 361.220191,67.8466775 360.277057,67.3751106 C359.428237,66.9507005 358.770401,66.1443212 358.131664,64.7840867 L357.919223,64.3099262 L343.536435,30.1213312 L343.309384,29.4227137 C343.16966,28.9686123 343.064868,28.5494417 343.064868,28.2350639 C343.064868,27.2919302 343.536435,26.3487965 344.243785,25.6414463 C344.951135,24.9340961 345.894269,24.6983126 347.073186,24.6983126 Z M283.883231,47.3335204 L281.736659,47.3354067 C279.790031,47.3429518 277.752862,47.3806771 275.866595,47.5693038 C273.508761,47.8050872 271.150926,48.2766541 269.264659,48.7482209 C267.378392,49.4555711 265.727908,50.1629214 264.548991,51.3418385 C263.370074,52.2849721 262.898507,53.6996726 262.898507,55.3501565 C262.898507,56.764857 263.13429,57.7079906 263.605857,58.6511243 C264.077424,59.594258 264.548991,60.3016082 265.492124,60.773175 C266.435258,61.2447419 267.378392,61.7163087 268.321525,61.9520921 L269.65323,62.2199421 C270.292675,62.3387769 270.915143,62.4236589 271.622493,62.4236589 C273.508761,62.4236589 275.395028,62.1878755 276.809728,61.4805253 C278.224429,60.773175 279.639129,59.8300414 280.582263,58.6511243 C281.390663,57.640624 282.199064,56.456895 282.7105,55.2484191 L282.940097,54.6428063 C283.559029,53.1986328 283.816917,51.7544594 283.871718,50.310286 L283.883231,49.6913546 L283.883231,47.3335204 Z M427.239547,31.0644648 C425.353279,31.0644648 423.702795,31.3002482 422.052312,32.0075985 C420.401828,32.7149487 418.987127,33.6580824 417.80821,34.8369995 C416.629293,36.0159165 415.686159,37.430617 414.978809,38.8453175 C414.372509,40.0579179 414.112666,41.0972897 413.902317,42.2603962 L413.799892,42.8536355 L439.971851,42.8536355 C439.531722,39.7727323 438.680806,37.1026161 436.844001,35.0349877 L436.4351,34.601216 C434.313049,32.2433819 431.247865,31.0644648 427.239547,31.0644648 Z M210.083022,11.4944414 L200.180119,11.4944414 L200.180119,32.4791653 L210.083022,32.4791653 C214.79869,32.4791653 218.571225,31.5360317 220.929059,29.6497643 C223.286893,27.763497 224.46581,25.1698795 224.46581,21.8689117 C224.46581,18.3321605 223.286893,15.7385429 220.693276,14.088059 C218.482806,12.5407303 215.028948,11.6150962 210.914539,11.5054362 L210.083022,11.4944414 Z M398.002403,7.01455657 C399.18132,7.95769023 399.652887,9.1366073 399.652887,10.5513078 C399.652887,11.9660083 398.945537,13.1449253 398.002403,14.088059 C397.05927,15.0311927 395.880353,15.5027595 394.701436,15.5027595 C393.286735,15.5027595 392.343601,15.0311927 391.400468,14.3238424 C390.221551,13.3807088 389.749984,12.2017917 389.749984,10.7870912 C389.749984,9.50099985 390.139708,8.2149085 391.096305,7.28311229 L391.400468,7.01455657 L391.704006,6.73240025 C393.558441,5.13351438 395.992039,5.22756649 398.002403,7.01455657 Z" fill="#202433"></path>
				<path d="M135.103896,31.3002482 L76.8653931,2.06310487 C73.3286418,0.412620975 69.3203238,0.412620975 65.7835726,2.06310487 L16.7406224,26.3487965 L8.95976974,30.3571146 C12.496521,28.7066307 16.504839,28.7066307 20.0415902,30.3571146 L47.6282497,42.6178521 L49.0429502,43.089419 L49.0429502,43.089419 L49.0429502,43.089419 L49.0429502,43.089419 L49.0429502,43.089419 L115.533873,77.7495809 L48.8071668,112.645526 L48.0998165,112.88131 L19.8058068,127.735665 C16.2690556,129.386149 12.2607375,129.621932 8.72398633,127.735665 L7.30928584,127.028314 L7.30928584,127.028314 L65.5477892,156.029674 C69.0845404,157.680158 73.0928584,157.680158 76.6296096,156.029674 L135.103896,126.792531 C139.347998,124.67048 141.941615,120.426379 141.941615,115.710711 L141.941615,91.4250189 L142.177399,91.4250189 L142.177399,42.3820687 C141.941615,37.6664004 139.347998,33.422299 135.103896,31.3002482 Z" fill="#A4A7AD"></path>
				<path d="M47.6282497,42.6178521 L20.0415902,30.3571146 C16.504839,28.7066307 12.496521,28.4708473 8.95976974,30.3571146 L7.54506926,31.0644648 C7.30928584,31.0644648 7.30928584,31.3002482 7.07350243,31.3002482 L7.07350243,31.3002482 C2.82940097,33.422299 0,37.6664004 0,42.3820687 L0,115.710711 C0,120.426379 2.82940097,124.906264 7.07350243,127.028314 L8.48820291,127.735665 C12.0249541,129.386149 16.0332722,129.386149 19.5700234,127.735665 L48.3355999,112.645526 L49.0429502,43.3252024 L47.6282497,42.6178521 Z" fill="#4D515D"></path>
		</g>
</svg>
