<?xml version="1.0" encoding="UTF-8"?>
<svg width="256px" height="199px" viewBox="0 0 256 199" version="1.1" xmlns="http://www.w3.org/2000/svg" xmlns:xlink="http://www.w3.org/1999/xlink" preserveAspectRatio="xMidYMid">
	<g>
		<g transform="translate(138.880182, 0.000000)">
			<path d="M84.5545584,66.6799734 L69.7885969,66.6799734 L69.7885969,59.0638459 C69.7885969,53.0020302 64.8147994,48.0282326 58.7529836,48.0282326 C52.6911678,48.0282326 47.7173703,53.0020302 47.7173703,59.0638459 L47.7173703,66.6799734 L32.9514088,66.6799734 L32.9514088,59.0638459 C32.9514088,44.764178 44.6087468,33.2622711 58.7529836,33.2622711 C73.0526516,33.2622711 84.5545584,44.9196091 84.5545584,59.0638459 L84.5545584,66.6799734 Z" fill="#FFA400"></path>
			<path d="M90.6163742,66.6799734 L26.889593,66.6799734 C24.0918319,66.6799734 21.9157955,68.8560099 21.9157955,71.653771 L21.9157955,118.749417 C21.9157955,121.547178 24.0918319,123.723214 26.889593,123.723214 L90.6163742,123.723214 C93.4141353,123.723214 95.5901717,121.547178 95.5901717,118.749417 L95.5901717,71.653771 C95.4347405,68.8560099 93.2587041,66.6799734 90.6163742,66.6799734 Z M61.8616071,97.610777 L61.8616071,103.983455 C61.8616071,105.693198 60.4627265,107.24751 58.5975524,107.24751 C56.8878095,107.24751 55.3334978,105.848629 55.3334978,103.983455 L55.3334978,97.610777 C53.3128925,96.5227588 52.0694431,94.3467223 52.0694431,91.8598235 C52.0694431,88.2849066 55.0226354,85.3317143 58.5975524,85.3317143 C62.1724694,85.3317143 65.1256617,88.2849066 65.1256617,91.8598235 C65.2810929,94.3467223 63.8822123,96.5227588 61.8616071,97.610777 Z" fill="#003A70"></path>
			<path d="M20.3614837,59.6855706 L4.97379755,59.6855706 C2.48689878,59.6855706 0.466293521,57.6649654 0.466293521,55.1780666 C0.466293521,52.6911678 2.48689878,50.6705626 4.97379755,50.6705626 L20.3614837,50.6705626 C22.8483825,50.6705626 24.8689878,52.6911678 24.8689878,55.1780666 C24.8689878,57.6649654 22.8483825,59.6855706 20.3614837,59.6855706 Z" fill="#FFA400"></path>
			<path d="M31.2416659,35.4383076 C30.3090788,35.4383076 29.2210606,35.1274452 28.4439048,34.3502893 L16.3202732,24.4026942 C14.4550991,22.8483825 14.1442368,20.0506214 15.6985485,18.0300161 C17.2528603,16.164842 20.0506214,15.8539797 22.0712266,17.4082914 L34.1948582,27.3558865 C36.0600323,28.9101983 36.3708946,31.7079594 34.8165829,33.7285647 C33.7285647,34.8165829 32.4851153,35.4383076 31.2416659,35.4383076 Z" fill="#FFA400"></path>
			<path d="M58.7529836,24.8689878 C56.2660848,24.8689878 54.2454796,22.8483825 54.2454796,20.3614837 L54.2454796,4.81836638 C54.2454796,2.3314676 56.2660848,0.310862347 58.7529836,0.310862347 C61.2398824,0.310862347 63.2604876,2.3314676 63.2604876,4.81836638 L63.2604876,20.3614837 C63.2604876,22.8483825 61.2398824,24.8689878 58.7529836,24.8689878 Z" fill="#FFA400"></path>
			<path d="M86.1088701,35.4383076 C84.8654207,35.4383076 83.4665402,34.8165829 82.6893843,33.7285647 C81.1350726,31.8633906 81.4459349,28.9101983 83.311109,27.3558865 L95.4347405,17.4082914 C97.2999146,15.8539797 100.253107,16.164842 101.807419,18.0300161 C103.36173,19.8951902 103.050868,22.8483825 101.185694,24.4026942 L89.0620624,34.3502893 C88.1294754,35.1274452 87.1968883,35.4383076 86.1088701,35.4383076 Z" fill="#FFA400"></path>
			<path d="M112.376738,59.6855706 L96.8336211,59.6855706 C94.3467223,59.6855706 92.3261171,57.6649654 92.3261171,55.1780666 C92.3261171,52.6911678 94.3467223,50.6705626 96.8336211,50.6705626 L112.376738,50.6705626 C114.863637,50.6705626 116.884242,52.6911678 116.884242,55.1780666 C116.884242,57.6649654 114.863637,59.6855706 112.376738,59.6855706 Z" fill="#FFA400"></path>
		</g>
		<path d="M0.391006546,123.101489 L0.391006546,72.8972204 L12.5146381,72.8972204 L12.5146381,112.53217 L31.9435348,112.53217 L31.9435348,123.101489 L0.391006546,123.101489 Z M72.0447775,105.848629 L72.0447775,107.24751 L72.0447775,108.64639 L46.3986339,108.64639 C46.5540651,109.578977 46.8649274,110.511564 47.3312209,111.28872 C47.7975145,112.065876 48.4192392,112.843032 49.196395,113.309325 C49.9735509,113.93105 50.9061379,114.397344 51.838725,114.708206 C52.771312,115.019068 53.8593302,115.1745 54.7919173,115.1745 C56.6570914,115.1745 58.2114031,114.863637 59.4548525,114.086481 C60.6983019,113.464757 61.7863201,112.53217 62.563476,111.444151 L70.645897,116.57338 C68.9361541,119.060279 66.7601176,120.770022 64.1177877,122.168902 C61.4754577,123.412352 58.2114031,124.189508 54.6364861,124.189508 C51.9941562,124.189508 49.5072574,123.723214 47.1757898,122.946058 C44.8443222,122.168902 42.8237169,120.925453 40.9585428,119.371141 C39.2487999,117.81683 37.8499194,115.796224 36.7619011,113.464757 C35.6738829,111.133289 35.2075894,108.490959 35.2075894,105.537767 C35.2075894,102.584575 35.6738829,100.097676 36.7619011,97.7662081 C37.6944882,95.4347405 39.0933688,93.4141353 40.8031117,91.8598235 C42.5128546,90.3055118 44.5334598,88.9066312 46.8649274,88.1294754 C49.196395,87.1968883 51.6832938,86.7305948 54.3256238,86.7305948 C56.9679537,86.7305948 59.2994213,87.1968883 61.4754577,87.9740442 C63.6514942,88.9066312 65.5166682,90.1500806 67.07098,91.7043924 C68.6252917,93.4141353 69.8687411,95.4347405 70.645897,97.7662081 C71.578484,100.253107 72.0447775,102.895437 72.0447775,105.848629 Z M61.3200266,101.496556 C61.3200266,99.6313822 60.6983019,98.0770705 59.6102837,96.6781899 C58.5222654,95.2793094 56.6570914,94.6575847 54.3256238,94.6575847 C53.2376055,94.6575847 52.1495873,94.8130158 51.2170003,95.1238782 C50.2844132,95.4347405 49.5072574,95.9010341 48.7301015,96.5227588 C47.9529456,97.1444834 47.4866521,97.9216393 47.0203586,98.6987952 C46.5540651,99.475951 46.3986339,100.408538 46.2432027,101.341125 L61.3200266,101.341125 L61.3200266,101.496556 Z M90.6965184,96.5227588 L90.6965184,110.045271 C90.6965184,111.755014 91.0073807,112.998463 91.6291054,113.775619 C92.2508301,114.552775 93.3388483,115.019068 95.0485912,115.019068 C95.6703159,115.019068 96.2920406,115.019068 96.9137653,114.863637 C97.53549,114.708206 98.1572147,114.552775 98.468077,114.397344 L98.6235082,122.946058 C97.8463523,123.256921 96.7583341,123.412352 95.5148847,123.723214 C94.2714353,123.878645 93.027986,124.034076 91.7845366,124.034076 C89.453069,124.034076 87.4324637,123.723214 85.878152,123.101489 C84.3238402,122.479765 82.9249597,121.702609 81.9923726,120.614591 C81.0597856,119.526572 80.2826297,118.127692 79.9717674,116.57338 C79.660905,115.019068 79.3500427,113.309325 79.3500427,111.444151 L79.3500427,96.5227588 L73.5990893,96.5227588 L73.5990893,87.818613 L79.1946115,87.818613 L79.1946115,78.4927426 L90.6965184,78.4927426 L90.6965184,87.818613 L98.9343706,87.818613 L98.9343706,96.5227588 L90.6965184,96.5227588 L90.6965184,96.5227588 Z M109.659122,71.9646333 C106.239636,71.9646333 103.441875,74.4515321 103.441875,77.7155868 C103.441875,81.1350726 105.773342,83.311109 109.192828,83.311109 C109.50369,83.311109 109.814553,83.311109 109.969984,83.1556778 C109.348259,85.6425766 107.016792,87.5077507 104.685324,87.818613 L104.21903,87.818613 L104.21903,93.2587041 L104.840755,93.2587041 C107.638516,92.9478418 110.280846,91.7043924 112.301451,89.8392183 C114.943781,87.3523195 116.342662,83.6219713 116.342662,79.2698985 C116.342662,75.0732568 113.544901,71.9646333 109.659122,71.9646333 Z M136.548715,98.2325017 C135.616128,97.2999146 134.528109,96.5227588 133.28466,95.9010341 C132.041211,95.2793094 130.64233,94.968447 129.243449,94.968447 C128.155431,94.968447 127.222844,95.1238782 126.290257,95.5901717 C125.35767,96.0564652 124.891377,96.6781899 124.891377,97.7662081 C124.891377,98.6987952 125.35767,99.475951 126.445688,99.9422446 C127.533706,100.408538 129.088018,100.874832 131.419486,101.341125 C132.818366,101.651987 134.061816,101.96285 135.460696,102.584575 C136.859577,103.206299 137.947595,103.828024 139.035613,104.60518 C140.123632,105.382336 141.056219,106.470354 141.677943,107.713803 C142.299668,108.957253 142.61053,110.356133 142.61053,112.065876 C142.61053,114.241913 142.144237,116.107087 141.21165,117.661398 C140.279063,119.21571 139.191044,120.459159 137.636733,121.391747 C136.237852,122.324334 134.528109,122.946058 132.818366,123.412352 C130.953192,123.878645 129.243449,124.034076 127.378275,124.034076 C124.425083,124.034076 121.627322,123.567783 118.984992,122.635196 C116.187231,121.702609 113.855763,120.303728 112.14602,118.593985 L118.67413,111.755014 C119.762148,112.843032 121.005597,113.775619 122.559909,114.552775 C124.114221,115.329931 125.668532,115.640793 127.378275,115.640793 C128.310862,115.640793 129.243449,115.485362 130.176036,115.019068 C131.108623,114.552775 131.574917,113.775619 131.574917,112.687601 C131.574917,111.599583 130.953192,110.822427 129.865174,110.200702 C128.777156,109.734409 126.911982,109.112684 124.580514,108.64639 C123.337065,108.335528 122.093615,108.024666 120.850166,107.558372 C119.606717,107.092079 118.518698,106.470354 117.586111,105.693198 C116.653524,104.916042 115.876368,103.828024 115.254644,102.740006 C114.632919,101.496556 114.322057,100.097676 114.322057,98.543364 C114.322057,96.3673276 114.78835,94.6575847 115.720937,93.1032729 C116.653524,91.5489612 117.741543,90.460943 119.140423,89.5283559 C120.539304,88.5957689 122.093615,87.818613 123.803358,87.5077507 C125.513101,87.0414572 127.222844,86.886026 128.932587,86.886026 C131.574917,86.886026 134.217247,87.3523195 136.704146,88.1294754 C139.191044,88.9066312 141.367081,90.1500806 143.076824,91.8598235 L136.548715,98.2325017 Z M0.391006546,181.232748 L0.391006546,131.028479 L34.1195712,131.028479 L34.1195712,141.286937 L12.0483446,141.286937 L12.0483446,150.768238 L32.8761218,150.768238 L32.8761218,160.404971 L12.0483446,160.404971 L12.0483446,170.81886 L35.3630206,170.81886 L35.3630206,181.232748 L0.391006546,181.232748 Z M65.9829618,181.232748 L65.9829618,161.959283 C65.9829618,161.026696 65.8275306,160.094109 65.6720994,159.161522 C65.5166682,158.228935 65.2058059,157.451779 64.8949436,156.830054 C64.5840812,156.208329 63.9623565,155.586605 63.3406318,155.275742 C62.7189071,154.809449 61.7863201,154.654018 60.6983019,154.654018 C59.6102837,154.654018 58.6776966,154.809449 57.9005407,155.275742 C57.1233849,155.742036 56.5016602,156.208329 55.8799355,156.985485 C55.413642,157.762641 54.9473484,158.539797 54.6364861,159.472384 C54.3256238,160.404971 54.1701926,161.337558 54.1701926,162.270145 L54.1701926,181.388179 L42.5128546,181.388179 L42.5128546,146.105303 L53.7038991,146.105303 L53.7038991,150.923669 L53.8593302,150.923669 C54.3256238,150.146514 54.7919173,149.369358 55.5690731,148.747633 C56.1907978,147.970477 57.1233849,147.348752 57.9005407,146.882459 C58.8331278,146.416165 59.7657148,145.949872 60.853733,145.63901 C61.9417513,145.328147 63.0297695,145.172716 64.2732189,145.172716 C66.6046865,145.172716 68.6252917,145.63901 70.3350346,146.416165 C72.0447775,147.193321 73.2882269,148.436771 74.3762451,149.68022 C75.4642634,151.079101 76.085988,152.633412 76.5522816,154.343155 C77.0185751,156.052898 77.1740063,157.762641 77.1740063,159.627815 L77.1740063,181.388179 L65.9829618,181.388179 L65.9829618,181.232748 Z M107.638516,157.296348 C107.016792,156.519192 106.084205,155.742036 104.996186,155.275742 C103.908168,154.809449 102.664719,154.498586 101.576701,154.498586 C100.333251,154.498586 99.2452329,154.809449 98.3126459,155.275742 C97.3800588,155.742036 96.4474718,156.363761 95.8257471,157.296348 C95.2040224,158.228935 94.5822977,159.006091 94.1160042,160.094109 C93.6497107,161.182127 93.4942795,162.270145 93.4942795,163.513595 C93.4942795,164.757044 93.6497107,165.845062 94.1160042,166.93308 C94.4268665,168.021099 95.0485912,168.953686 95.8257471,169.730841 C96.602903,170.507997 97.3800588,171.285153 98.468077,171.751447 C99.5560952,172.21774 100.644113,172.528603 101.887563,172.528603 C103.131012,172.528603 104.21903,172.373171 105.46248,171.906878 C106.550498,171.440584 107.483085,170.81886 108.260241,169.886273 L114.632919,177.813262 C113.234039,179.212143 111.213433,180.300161 109.037397,181.077317 C106.705929,181.854473 104.21903,182.320767 101.732132,182.320767 C98.9343706,182.320767 96.2920406,181.854473 93.960573,181.077317 C91.4736742,180.300161 89.453069,179.056712 87.5878949,177.346969 C85.878152,175.792657 84.4792714,173.772052 83.3912532,171.440584 C82.303235,169.109117 81.8369415,166.466787 81.8369415,163.513595 C81.8369415,160.560402 82.303235,158.073503 83.3912532,155.742036 C84.4792714,153.410568 85.878152,151.389963 87.5878949,149.835651 C89.2976378,148.28134 91.4736742,146.882459 93.960573,146.105303 C96.4474718,145.172716 98.9343706,144.861854 101.732132,144.861854 C102.975581,144.861854 104.21903,145.017285 105.46248,145.172716 C106.705929,145.483578 107.949379,145.794441 109.037397,146.105303 C110.125415,146.571597 111.213433,147.03789 112.301451,147.659615 C113.234039,148.28134 114.166626,148.903064 114.78835,149.68022 L107.638516,157.296348 Z M141.522512,155.586605 C141.056219,155.431174 140.434494,155.275742 139.9682,155.275742 L138.56932,155.275742 C137.015008,155.275742 135.771559,155.586605 134.68354,156.052898 C133.595522,156.674623 132.818366,157.296348 132.196642,158.073503 C131.574917,158.850659 131.108623,159.783246 130.797761,160.715833 C130.486899,161.64842 130.331468,162.425576 130.331468,163.202732 L130.331468,181.232748 L118.67413,181.232748 L118.67413,145.949872 L129.865174,145.949872 L129.865174,151.079101 L130.020605,151.079101 C130.953192,149.213927 132.196642,147.815046 133.906385,146.727028 C135.616128,145.63901 137.481302,145.017285 139.657338,145.017285 L141.056219,145.017285 C141.522512,145.017285 141.833374,145.172716 142.144237,145.172716 L141.522512,155.586605 Z M168.878399,186.517408 C168.101243,188.382582 167.324087,189.936894 166.546931,191.491206 C165.614344,192.890086 164.681757,194.133536 163.438308,195.221554 C162.194858,196.309572 160.795978,196.931297 159.241666,197.553022 C157.687354,198.019315 155.666749,198.330177 153.490712,198.330177 C152.402694,198.330177 151.314676,198.330177 150.071227,198.174746 C148.983208,198.019315 147.89519,197.863884 147.118034,197.553022 L148.361484,187.760858 C148.983208,187.916289 149.604933,188.07172 150.226658,188.227151 C150.848383,188.382582 151.470107,188.382582 152.091832,188.382582 C153.957006,188.382582 155.200455,187.916289 155.977611,187.139133 C156.754767,186.361977 157.531923,185.118528 157.998216,183.564216 L159.086235,180.611024 L144.320273,145.949872 L157.221061,145.949872 L165.14805,168.642823 L165.303482,168.642823 L172.297884,145.949872 L184.576947,145.949872 L168.878399,186.517408 Z M227.009658,163.513595 C227.009658,166.000493 226.698795,168.331961 225.921639,170.663429 C225.144483,172.994896 224.056465,174.86007 222.657585,176.725244 C221.258704,178.434987 219.39353,179.833868 217.372925,180.921886 C215.35232,182.009904 212.865421,182.476198 210.223091,182.476198 C208.047054,182.476198 206.026449,182.009904 204.005844,181.232748 C202.14067,180.300161 200.586358,179.212143 199.49834,177.657831 L199.342909,177.657831 L199.342909,198.64104 L187.685571,198.64104 L187.685571,146.416165 L198.721184,146.416165 L198.721184,150.768238 L198.876615,150.768238 C199.964633,149.369358 201.518945,148.125908 203.384119,147.03789 C205.249293,145.949872 207.580761,145.483578 210.223091,145.483578 C212.70999,145.483578 215.041457,145.949872 217.217494,147.03789 C219.238099,147.970477 221.103273,149.369358 222.502153,151.079101 C223.901034,152.788844 224.989052,154.809449 225.766208,156.985485 C226.543364,158.695228 227.009658,161.026696 227.009658,163.513595 Z M215.663182,163.513595 C215.663182,162.425576 215.507751,161.337558 215.196888,160.24954 C214.886026,159.161522 214.264301,158.228935 213.642577,157.451779 C213.020852,156.674623 212.088265,155.897467 211.000247,155.431174 C209.912228,154.96488 208.82421,154.654018 207.42533,154.654018 C206.026449,154.654018 204.938431,154.96488 203.850413,155.431174 C202.762394,155.897467 201.985239,156.674623 201.208083,157.451779 C200.430927,158.228935 199.964633,159.316953 199.49834,160.404971 C199.032046,161.492989 198.876615,162.581007 198.876615,163.669026 C198.876615,164.757044 199.032046,165.845062 199.49834,166.93308 C199.964633,168.021099 200.430927,168.953686 201.208083,169.886273 C201.985239,170.663429 202.762394,171.440584 203.850413,171.906878 C204.938431,172.373171 206.026449,172.684034 207.42533,172.684034 C208.82421,172.684034 210.06766,172.373171 211.000247,171.906878 C212.088265,171.440584 212.865421,170.663429 213.642577,169.886273 C214.264301,169.109117 214.886026,168.021099 215.196888,166.93308 C215.507751,165.689631 215.663182,164.601613 215.663182,163.513595 Z M245.505967,154.654018 L245.505967,168.17653 C245.505967,169.886273 245.81683,171.129722 246.438554,171.906878 C247.060279,172.684034 248.148297,173.150327 249.85804,173.150327 C250.479765,173.150327 251.101489,173.150327 251.723214,172.994896 C252.344939,172.839465 252.966664,172.684034 253.277526,172.528603 L253.432957,181.077317 C252.655801,181.388179 251.567783,181.543611 250.324334,181.854473 C249.080884,182.009904 247.837435,182.165335 246.593985,182.165335 C244.262518,182.165335 242.241913,181.854473 240.687601,181.232748 C239.133289,180.611024 237.734409,179.833868 236.801821,178.74585 C235.869234,177.657831 235.092079,176.258951 234.781216,174.704639 C234.470354,173.150327 234.159492,171.440584 234.159492,169.57541 L234.159492,154.654018 L228.563969,154.654018 L228.563969,145.949872 L234.159492,145.949872 L234.159492,136.624002 L245.505967,136.624002 L245.505967,145.949872 L253.743819,145.949872 L253.743819,154.654018 L245.505967,154.654018 L245.505967,154.654018 Z" fill="#003A70"></path>
	</g>
</svg>
