<?xml version="1.0" encoding="UTF-8" standalone="no"?>
<svg width="256px" height="256px" viewBox="0 0 256 256" version="1.1" xmlns="http://www.w3.org/2000/svg" xmlns:xlink="http://www.w3.org/1999/xlink" preserveAspectRatio="xMidYMid">
	<g>
		<path d="M0,127.94 C0,140.427 1.799,152.492 5.133,163.901 L75.753,140.77 C74.861,136.918 74.386,132.906 74.386,128.782 C74.386,124.009 75.035,119.391 76.218,114.992 L5.095,92.109 C1.784,103.479 0,115.5 0,127.94" fill="#6A7A55"></path>
		<path d="M93.597,87.948 L48.946,27.277 C30.192,42.024 15.664,61.898 7.466,84.785 L78.755,107.722 C82.101,100.01 87.212,93.243 93.597,87.948" fill="#A09440"></path>
		<path d="M124.211,75.836 L124.211,0 C98.583,0.745 74.848,9.027 55.136,22.7 L99.861,83.472 C107.036,79.097 115.326,76.37 124.211,75.836" fill="#AFA148"></path>
		<path d="M78.044,148.12 L7.512,171.222 C15.828,194.367 30.616,214.425 49.703,229.203 L93.234,169.311 C86.55,163.668 81.293,156.398 78.044,148.12" fill="#4C5C59"></path>
		<path d="M55.934,233.725 C75.488,247.071 98.927,255.144 124.211,255.88 L124.211,181.728 C115.159,181.184 106.726,178.36 99.459,173.84 L55.934,233.725" fill="#48555D"></path>
		<path d="M200.148,22.212 C180.609,8.854 157.182,0.763 131.909,0.005 L131.909,75.931 C140.496,76.648 148.499,79.413 155.436,83.729 L200.148,22.212" fill="#E3B23B"></path>
		<path d="M131.909,181.633 L131.909,255.875 C157.38,255.111 180.977,246.899 200.608,233.353 L156.363,173.234 C149.215,177.891 140.883,180.884 131.909,181.633" fill="#903024"></path>
		<path d="M162.495,168.577 L206.812,228.794 C225.845,213.902 240.546,193.736 248.74,170.5 L177.091,147.448 C174.001,155.648 168.953,162.888 162.495,168.577" fill="#D65841"></path>
		<path d="M256,127.94 C256,115.298 254.16,103.088 250.746,91.554 L178.702,115.151 C179.858,119.502 180.491,124.066 180.491,128.782 C180.491,132.655 180.069,136.429 179.281,140.065 L251.077,163.165 C254.275,151.973 256,140.159 256,127.94" fill="#E6703E"></path>
		<path d="M176.188,107.874 L248.342,84.24 C240.01,61.303 225.31,41.422 206.375,26.739 L161.657,88.265 C167.909,93.546 172.909,100.252 176.188,107.874" fill="#F4A83A"></path>
	</g>
</svg>