<?xml version="1.0" encoding="UTF-8" standalone="no" ?>
<svg width="256px" height="233px" viewBox="0 0 256 233" version="1.1" xmlns="http://www.w3.org/2000/svg" xmlns:xlink="http://www.w3.org/1999/xlink" preserveAspectRatio="xMinYMin meet">
    <g stroke="none" stroke-width="1" fill="none" fill-rule="evenodd">
        <path d="M0.387794202,0 L24.1799034,0 L24.1799034,157.893062 L118.266862,157.893062 L118.266862,177.359321 L0.387795376,177.359321 L0.387795376,3.33759524e-14 L0.387794202,0 Z" fill="#000000"></path>
        <path d="M183.154423,46.5027499 C199.376326,44.3398294 216.679652,47.5842079 229.657182,58.3988046 C243.716134,68.1319386 251.286375,85.4352863 252.367833,101.657173 C254.530749,121.123441 252.367833,140.589709 241.553219,156.811603 C231.820098,169.789116 216.679653,178.440797 199.376326,179.522255 C183.154423,181.68517 164.769603,178.440797 150.710651,167.6262 C137.733121,156.811603 131.244374,140.589709 129.081458,124.367823 C126.918542,107.06447 129.081458,87.5982021 139.896037,72.4577738 C148.547735,57.3173419 165.851061,47.5842079 183.154423,46.5027499 L183.154423,46.5027499 Z M186.398796,64.8875614 C197.213375,63.8060988 209.109448,67.0504772 217.76111,74.6206908 C225.33135,83.2723717 229.657182,94.086959 230.73864,104.901556 C231.820098,116.79761 230.73864,129.775122 225.33135,140.58971 C219.924061,151.404299 210.190904,158.97452 198.294869,161.137436 C187.480254,163.300352 175.584217,160.055978 168.013977,153.567231 C159.362313,147.078466 153.955025,137.345336 151.792073,127.612198 C149.629157,113.553227 150.710651,99.4942579 156.11794,86.5167454 C161.525229,74.6206908 173.421301,65.9690193 186.398795,64.8875614 L186.398796,64.8875614 Z" fill="#000000"></path>
        <path d="M0.387794202,205.47728 L255.612207,205.47728 L255.612207,232.513761 L0.387794202,232.513761 L0.387794202,205.47728 L0.387794202,205.47728 Z" fill="#3492FF"></path>
    </g>
</svg>
