<?xml version="1.0" encoding="UTF-8" standalone="no"?>
<svg width="512px" height="81px" viewBox="0 0 512 81" version="1.1" xmlns="http://www.w3.org/2000/svg" xmlns:xlink="http://www.w3.org/1999/xlink" preserveAspectRatio="xMidYMid">
	<g transform="translate(0.000000, -1.000000)">
		<path d="M84.2982249,68.4746982 C89.3197633,72.4586036 117.461586,71.9102485 137.456852,71.1301302 C142.873751,70.919574 137.829491,69.939503 138.105183,66.9159763 C138.379361,63.8939645 147.574154,42.0657988 148.673893,40.6918817 C149.773633,39.3179645 163.240142,40.1420118 164.339882,40.1420118 C165.439621,40.1420118 153.548497,63.4910296 154.87697,66.9856568 C157.333964,73.4447337 163.612781,72.3934675 167.849657,70.0076686 C170.618698,68.4519763 181.379787,40.1420118 182.479527,39.8678343 C183.579266,39.5936568 190.662438,39.3861302 191.006296,40.2116923 C191.442556,41.2568994 176.358249,69.7137988 179.181822,71.2543432 C180.423953,71.9329704 214.743101,71.9329704 215.452024,71.4739882 C217.281893,70.2924497 214.437112,54.4552899 226.523645,45.4240947 C237.743716,37.039716 262.793846,40.528284 263.702722,40.7888284 C265.626509,41.3386982 261.937988,46.328426 260.014201,47.1524734 C258.090414,47.9780355 244.393657,46.0966627 239.976521,48.6172781 C231.102864,53.6766864 228.53226,70.1591479 233.149349,71.3376568 C236.560663,72.2071479 280.329089,71.7951243 280.695669,71.3376568 C282.00142,69.7062249 289.422391,43.6472426 294.278817,41.8143432 C299.626036,39.7966391 320.937657,38.5166391 322.678154,42.2718107 C324.42774,46.0466746 320.742249,57.7999527 316.082746,61.1218935 C313.609089,62.8851124 296.363172,61.3233609 295.469444,67.6264142 C295.034698,70.6953846 297.094817,70.9710769 301.561941,71.519432 C304.397633,71.8693491 345.734817,71.8632899 346.490698,71.3376568 C350.262533,68.7079763 355.241657,45.2468639 360.622201,41.9052308 C363.536663,40.096568 392.825183,37.5350533 396.918154,44.2652781 C401.391337,51.616568 388.53529,67.9657278 392.341964,71.0346982 C393.626509,72.0693018 427.783574,71.8632899 428.288,71.3376568 C429.866414,69.6865325 436.778414,43.783574 441.519716,41.859787 C445.788402,40.1283787 467.012166,38.5620828 469.553988,41.5856095 C472.385136,44.9514793 467.81955,58.3331598 463.438769,61.8550533 C461.016615,63.8015621 443.71768,61.864142 442.825467,68.4519763 C442.419503,71.4512663 447.22897,71.7254438 451.214391,71.7951243 C453.710769,71.8375385 475.881278,71.7724024 510.580639,71.7724024 C510.580639,71.7724024 510.121657,77.2923077 502.471953,80.7036213 L391.57245,80.7036213 C385.510249,80.7036213 380.685633,74.5202367 383.603124,67.6264142 C386.472142,60.8431716 390.521183,51.5317396 388.839763,48.9596213 C387.282556,46.5783669 373.837254,47.8386746 372.807195,48.9368994 C369.715503,52.2361183 363.825988,80.764213 357.99858,80.7384615 L79.1388402,80.7096805 L79.2070059,80.6854438 C71.511858,80.7626982 58.8133491,77.6225325 62.8593609,65.6799053 C66.6160473,54.5946509 69.1821065,48.2264615 69.1821065,48.2264615 C40.5979645,49.1429112 18.1517633,49.1429112 13.319574,47.2660828 C6.5287574,44.6257988 3.58551479,34.9432426 6.17429586,36.4095621 C8.42982249,37.6865325 13.3407811,40.5085917 16.6172781,40.8888047 C21.3585799,41.4386746 65.3905799,37.0382012 71.7814911,36.6261775 C75.2549112,36.4019882 75.9835266,32.2181302 75.9835266,32.2181302 C49.6897515,33.2254675 25.0319527,33.3739172 20.8783905,31.3698462 C16.3203787,29.1718817 12.8605917,24.6138698 12.8393846,21.5676213 C12.8196923,19.0788166 16.8308639,25.9287101 23.764071,26.2301538 C35.3764734,26.7345799 70.7968757,22.4719527 77.8497515,21.9675266 C81.5185799,21.7054675 81.9154556,17.6730888 81.9154556,17.6730888 C51.7741065,18.8652308 30.6972781,18.4592663 27.8631006,17.1247337 C23.0990769,14.8798107 19.8013728,9.61136095 19.6408047,6.24549112 C19.5196213,3.71427219 22.6007101,11.5230296 30.6351716,11.9471716 C39.979929,12.4425089 92.9931361,5.97131361 95.7500592,5.80923077 C103.537609,5.35176331 101.15484,13.2302012 99.1401657,17.8109349 C95.1486864,26.8815148 76.9832899,62.6715266 84.2982249,68.4746982 L84.2982249,68.4746982 Z" fill="#C1DA94"></path>
		<path d="M83.7050964,69.2223107 C88.1859812,72.7772811 107.131943,73.2683067 137.494057,72.0837242 C139.862779,71.9916514 140.651517,71.8259619 140.895643,70.8530277 C141.031289,70.3124247 140.845497,69.9470746 140.448917,69.4750397 C140.352642,69.3604464 139.884942,68.8521013 139.763502,68.7088292 C139.233996,68.0841278 139.003536,67.5731812 139.05556,67.0026339 C139.281912,64.5077667 148.211494,42.7967059 149.418932,41.2882407 C149.60072,41.0611309 152.592731,40.8192519 156.497906,40.8560051 C157.942269,40.8695986 159.468073,40.9102794 161.147436,40.9731194 C161.655604,40.9921345 164.136246,41.0963314 164.339882,41.0963314 C163.874695,41.0963314 163.555351,40.7727578 163.474976,40.4198835 C163.452817,40.3225961 163.453831,40.2812465 163.457176,40.2589579 C163.442469,40.3569489 163.38783,40.5560702 163.295344,40.8319862 C163.10457,41.4011258 162.772688,42.2457955 162.282483,43.418208 C161.749385,44.6932074 159.222838,50.522122 158.714573,51.7151577 C158.462894,52.3059163 158.224947,52.8687272 157.997014,53.4128135 C154.72468,61.2240184 153.314143,65.5602139 153.984932,67.3247629 C156.362477,73.5749804 162.367805,74.1897362 168.317904,70.8392157 C169.704762,70.060057 171.881422,65.7483487 175.760323,56.9118996 C175.980027,56.4113961 176.206425,55.8933435 176.442555,55.350959 C176.814338,54.4969799 180.120298,46.8271609 180.906376,45.052719 C181.574698,43.5440946 182.086666,42.4338148 182.473306,41.662292 C182.676088,41.2576489 182.841412,40.9526327 182.964742,40.754489 C183.015503,40.6729361 183.054359,40.6174133 183.073869,40.5943248 C183.008042,40.6722248 182.925576,40.7401601 182.710383,40.7938101 C183.177542,40.6773421 185.213545,40.5658844 187.018033,40.5816441 C188.033355,40.5905115 188.919501,40.6363387 189.563727,40.7178885 C189.888233,40.7589662 190.139313,40.8078736 190.296871,40.8580189 C190.284521,40.8540881 190.22473,40.8172535 190.125338,40.5786235 C190.04931,40.3964733 190.049675,40.301997 190.064823,40.2120772 C190.060402,40.2383176 190.045545,40.2963917 190.02037,40.3776664 C189.958874,40.5761931 189.851224,40.8653448 189.699201,41.2390077 C189.41151,41.9461381 188.975672,42.9317271 188.351445,44.2942398 C187.898048,45.2838796 184.958894,51.5850757 184.054785,53.5600035 C183.770467,54.1810649 183.498797,54.7783455 183.237096,55.35805 C178.331625,66.2243429 176.684902,70.9791419 178.72475,72.0920846 C180.163506,72.8781369 214.872389,72.9861366 215.970672,72.2750686 C216.739875,71.7783988 216.928561,70.9486453 217.178719,68.5179791 C217.900119,61.5084917 218.223955,59.5599538 219.787382,55.7470602 C221.356845,51.9194478 223.721305,48.70934 227.094871,46.1885723 C231.821164,42.6567744 239.553999,40.9927878 248.997464,40.8187729 C252.404024,40.7560002 255.821015,40.8954245 259.004457,41.1747845 C261.133152,41.3615861 263.166294,41.6278097 263.439743,41.7061983 C263.349544,41.6804174 263.300746,41.563378 263.270761,41.7222318 C263.197045,42.1127635 262.923719,42.6974141 262.501073,43.3478727 C261.638415,44.6755156 260.361411,45.965563 259.638443,46.2752439 C259.230943,46.4501158 257.921049,46.4623018 253.882878,46.3565781 C251.904065,46.3047707 250.715112,46.2835862 249.421007,46.2868054 C244.643759,46.2986892 241.414298,46.6980504 239.503535,47.788417 C230.824247,52.737004 226.533948,70.633997 232.913327,72.2623294 C234.572993,72.6853527 244.497978,72.8508084 258.06859,72.7895761 C273.406788,72.7203682 280.938767,72.5604036 281.440386,71.9344167 C281.972541,71.2695315 286.641683,58.0637548 287.08093,56.9029933 C288.268881,53.7636956 289.359136,51.1201114 290.38949,48.9358849 C292.10938,45.2899248 293.619016,43.0833893 294.615792,42.7071888 C300.804897,40.3718098 320.593909,40.0443748 321.812316,42.6731209 C323.433103,46.170092 319.660907,57.3988629 315.528752,60.3448371 C315.102507,60.6486638 313.6811,60.8839243 310.694683,61.1561499 C310.58032,61.1665746 308.851122,61.3208952 308.319777,61.3705426 C307.364984,61.4597557 306.562606,61.5426433 305.792645,61.6341857 C298.838405,62.4609911 295.020861,63.9923641 294.524575,67.4924386 C294.25887,69.368118 294.806836,70.6334666 296.24302,71.3678363 C297.259809,71.8877552 298.300401,72.0805493 301.445668,72.4666417 C304.909283,72.8940431 346.052927,72.8044575 347.035538,72.1211587 C348.856586,70.8515455 349.314102,69.73492 353.975214,56.8685797 C357.097509,48.2499259 359.155279,43.9396655 361.12569,42.7159249 C362.490437,41.8689872 370.830065,40.8605291 378.331168,40.8374866 C387.722333,40.8086381 394.533194,42.1802234 396.102777,44.7611476 C397.489296,47.0397709 397.090688,50.5642647 395.199907,55.7831118 C394.831424,56.8001817 394.422553,57.8470838 393.867613,59.2130825 C393.687911,59.6554241 393.05408,61.2028852 393.074429,61.153078 C392.761967,61.9178835 392.534233,62.4832014 392.322408,63.0235205 C391.780394,64.406081 391.397291,65.4930389 391.126762,66.4542251 C390.406401,69.0136643 390.474183,70.7547133 391.742998,71.7776415 C393.236551,72.9805863 427.987903,73.0286445 428.976553,71.9984295 C429.483069,71.4685827 430.061232,70.0264191 431.271195,66.5757787 C431.597005,65.6466174 432.951614,61.7244249 432.848601,62.0216845 C433.545605,60.0103719 434.100223,58.4388253 434.657171,56.910269 C435.844711,53.6510387 436.906083,50.9767143 437.910166,48.7773712 C439.516769,45.258271 440.93053,43.1287341 441.878521,42.744086 C446.849091,40.727989 466.954715,39.976764 468.823506,42.199712 C471.124416,44.9351973 467.069077,57.712018 462.840825,61.1112872 C462.417006,61.4518797 460.923595,61.6966994 457.671404,61.9708578 C457.419312,61.992109 457.140098,62.0152935 456.592302,62.060712 C456.140014,62.0983392 455.804338,62.12677 455.470296,62.155998 C454.598164,62.2323077 453.858121,62.3040263 453.148859,62.3831026 C446.177862,63.1603047 442.370623,64.6996713 441.879782,68.3238988 C441.614439,70.2842657 442.879086,71.5281081 445.120909,72.1425316 C446.627165,72.5553562 448.395811,72.70031 451.197708,72.749298 C452.472364,72.7709549 450.764191,72.7719055 477.047602,72.7452558 C489.052425,72.7330837 499.313043,72.7267219 510.580639,72.7267219 L509.629602,71.6933232 C509.607152,71.9633116 509.488021,72.5021395 509.19708,73.2204849 C508.697885,74.453015 507.875805,75.6938757 506.650748,76.8619899 C505.462245,77.9952499 503.95312,78.9981996 502.083278,79.8320377 L502.471953,79.7493018 L391.57245,79.7493018 C385.834315,79.7493018 381.970568,73.9326383 384.481981,67.9983497 C384.555472,67.8245943 385.080812,66.5842106 385.238555,66.2108989 C385.537703,65.502943 385.785161,64.913915 386.022704,64.3432564 C386.364149,63.5229884 386.671766,62.7723377 386.959979,62.0540613 C389.900353,54.7261326 390.970215,50.4745356 389.638549,48.4374466 C387.92741,45.8208021 373.867849,46.4110725 372.111133,48.2840414 C371.316382,49.1321397 370.486338,51.0294068 369.305867,54.4137068 C368.685319,56.1927613 366.321712,63.4217452 366.000048,64.3786487 C362.722088,74.1301144 360.189712,79.3567955 358.187536,79.7652311 C358.123795,79.7782339 358.062522,79.7844153 358.002797,79.7841513 L79.1389387,79.755361 L79.1388402,80.7096805 L79.4585465,81.6088544 L79.5267122,81.5846177 L84.9005593,79.6739165 L79.1974256,79.7311723 C74.8004379,79.7753153 70.2034385,78.797135 67.1358737,76.8807669 C63.3879589,74.5393707 62.0610197,71.010506 63.7632182,65.9861208 C65.4035701,61.1457597 66.9380316,56.8430887 68.3235939,53.1298385 C68.8081894,51.8311424 69.2394475,50.6991518 69.6119954,49.7403213 C69.8349963,49.1663813 69.9885445,48.7785017 70.0672668,48.5831365 L70.6142309,47.2257356 L69.1515253,47.2726321 C37.7146024,48.2805462 17.9430376,48.0380676 13.6650867,46.3765061 C10.9033828,45.3027497 8.51144308,42.7788386 7.08615345,39.8771115 C6.53114254,38.7471727 6.21245215,37.702691 6.19768479,37.0928961 C6.1948825,36.9771802 6.1955856,36.9746363 6.07392903,37.076996 C5.86855616,37.2497931 5.69873325,37.236969 5.70396371,37.2399316 C7.4577405,38.2328355 8.15467788,38.6179606 9.30897106,39.2080195 C10.2589382,39.6936298 11.1618109,40.1219089 12.0234636,40.4892128 C13.7455747,41.2233112 15.2449989,41.6902854 16.5072746,41.8367631 C18.7182112,42.0931752 28.2135437,41.4236571 44.4619523,39.9990595 C45.4970284,39.908308 46.5614343,39.8143158 47.6633236,39.7164059 C50.095072,39.5003295 52.5679189,39.2778965 55.6885296,38.9952384 C55.6879369,38.9952921 61.3843197,38.4785702 62.8236403,38.3486888 C67.9044858,37.8902038 70.577871,37.660076 71.8428889,37.5785199 C73.676005,37.4602028 75.0346361,36.4564465 75.9529552,34.9153329 C76.5161427,33.9701974 76.8093059,33.0387106 76.9236959,32.3818599 L77.1261486,31.2193357 L75.9469926,31.2645102 C46.1284642,32.4068838 24.8366125,32.2200707 21.293096,30.5103433 C17.1886002,28.5310733 13.8128557,24.3152838 13.793681,21.5609778 C13.7943142,21.640947 13.6538752,21.9388952 13.1610303,21.9765506 C13.0058308,21.9884085 13.1091145,22.0403275 13.2796053,22.1634921 C13.3055234,22.1822156 15.343951,23.8144385 16.2146953,24.4170177 C18.6153318,26.0783249 21.0292409,27.0664693 23.722618,27.1835726 C28.4860477,27.3904892 37.271149,26.8449662 49.6624225,25.7032312 C51.8430452,25.5023081 54.1211673,25.284205 56.547552,25.0450248 C57.8448182,24.9171472 75.9176244,23.0624707 77.9178311,22.9194147 C79.8197001,22.7835669 81.1811367,21.8006798 82.0314039,20.296625 C82.5646252,19.353399 82.8003138,18.4256874 82.8651862,17.7665634 L82.9725008,16.6762151 L81.8777401,16.7195148 C53.3619975,17.8473613 31.0356296,17.5637633 28.269647,16.2613417 C24.1628181,14.3261047 20.7537339,9.54755929 20.5940402,6.20001724 C20.5901805,6.11939642 20.5922947,6.08619107 20.5755476,6.13888442 C20.4726463,6.46265478 20.1196834,6.74562987 19.6775106,6.68956464 C19.5048858,6.6676767 19.4535948,6.63750658 19.4258557,6.61422534 C19.4849831,6.66385059 19.5755961,6.75250142 19.7041605,6.88763617 C19.7424056,6.92783571 20.4887042,7.73691118 20.7809081,8.03954039 C21.3263735,8.60446714 21.8583153,9.10722918 22.4356721,9.58721734 C24.7783682,11.5348282 27.4322602,12.7337372 30.5848628,12.9001641 C34.492027,13.1072711 45.7036438,12.1827594 62.6475615,10.4037 C64.3640449,10.2234745 66.1306942,10.0353245 67.9515461,9.83899551 C75.0089361,9.07804939 95.185172,6.79840853 95.8060681,6.7619053 C98.82618,6.58449355 100.051462,7.67209935 100.16785,9.96905131 C100.266877,11.9233929 99.5315414,14.5506587 98.266603,17.4267291 C98.2782316,17.4003034 92.5285252,29.8055752 90.3624861,34.8099158 C89.2531787,37.3728206 88.2391093,39.8118443 87.31788,42.1471392 C81.5581474,56.7479286 79.7683058,66.0991289 83.7051109,69.2223222 L83.7050964,69.2223107 Z M84.8913388,67.7270743 C82.0160919,65.446049 83.7478567,56.3982766 89.0933658,42.8475344 C90.0064563,40.5328709 91.0126375,38.1128198 92.1140888,35.5680656 C94.2678989,30.5919783 100.014332,18.1937683 100.013654,18.1953105 C101.389306,15.0675113 102.191966,12.1997053 102.074044,9.87246348 C101.903798,6.51261977 99.7684568,4.6172116 95.6940956,4.85655357 C95.0132826,4.89657939 74.7090296,7.19068445 67.7469376,7.94135529 C65.9277998,8.13749945 64.1629107,8.32546201 62.4482559,8.50549551 C45.6583806,10.268381 34.441887,11.1932948 30.6856863,10.9941899 C27.9823435,10.8514795 25.7038555,9.82216112 23.6558381,8.11953282 C23.1370004,7.68819473 22.6542799,7.23195387 22.1539628,6.71378635 C21.8805563,6.43062519 21.1407539,5.62859237 21.0869699,5.57205973 C20.5761662,5.03515128 20.3578329,4.8519056 19.9175941,4.79608557 C18.8619543,4.66223587 18.642631,5.35231817 18.687577,6.2911274 C18.8820386,10.3674837 22.7296259,15.760683 27.4563048,17.9880083 C30.6606463,19.4968404 52.8317228,19.7784659 81.9531711,18.6266627 L80.965725,17.5796141 C80.9569122,17.6691548 80.9257026,17.8581649 80.8614189,18.1111969 C80.7527217,18.539048 80.5910543,18.9661083 80.3698843,19.3573404 C79.8155243,20.3379589 78.9970952,20.9288226 77.781759,21.0156323 C75.7471027,21.1611522 57.6155141,23.021861 56.3603159,23.1455918 C53.9377613,23.3843945 51.6636198,23.6021164 49.4873018,23.8026429 C37.1880427,24.9358997 28.4501527,25.478491 23.8054862,25.2767334 C21.5218517,25.1774449 19.4304838,24.3213342 17.3008147,22.847544 C16.4986319,22.2924113 14.4806376,20.6765499 14.3972882,20.6163373 C13.8499818,20.2209567 13.4851898,20.0375816 13.0156262,20.0734582 C12.1803389,20.1372776 11.8787799,20.7770496 11.885095,21.575172 C11.909994,25.1518029 15.7616506,29.9619339 20.4638765,32.2294414 C24.4572282,34.1562117 45.5034106,34.3408694 76.0200606,33.1717501 L75.0433573,32.0544005 C75.0261569,32.1531686 74.9790071,32.3543226 74.8948086,32.6218521 C74.7527307,33.0732854 74.5601131,33.5241823 74.3133381,33.9383176 C73.6913504,34.982131 72.854174,35.6006367 71.7200232,35.6738396 C70.431074,35.7569385 67.7552571,35.9872756 62.6521056,36.4477735 C61.2122593,36.5777023 55.515351,37.0944719 55.5163541,37.0943811 C52.3967332,37.3769495 49.9248829,37.5992928 47.4943943,37.8152573 C46.3932247,37.9131033 45.3295578,38.0070302 44.2952498,38.0977144 C28.3856798,39.4926039 18.731703,40.1733081 16.7272179,39.940839 C15.6804383,39.8193681 14.3402017,39.4019706 12.7719104,38.7334422 C11.954413,38.3849608 11.0906662,37.975241 10.1777152,37.508553 C9.05589148,36.935092 8.37410669,36.5583401 6.64446368,35.5790996 C5.29591747,34.8152654 4.25454755,35.6914556 4.28960516,37.1391039 C4.31211605,38.0686559 4.70682934,39.3622964 5.37301814,40.7185808 C6.99287644,44.0164274 9.71468473,46.888407 12.9737514,48.1555392 C17.6286277,49.963499 37.2708957,50.2043919 69.2126877,49.180291 L68.2969462,47.8697866 C68.2152898,48.0724332 68.0588261,48.4676779 67.8329277,49.0490752 C67.4573099,50.0158068 67.0230059,51.1557925 66.5353884,52.4625875 C65.1431991,56.1935977 63.6022524,60.5144533 61.955532,65.3736064 C59.964904,71.2493501 61.6369318,75.6959442 66.1246233,78.4994935 C69.5438425,80.635547 74.4861568,81.6872058 79.2165862,81.6397152 L79.2070059,80.6854438 L78.8872996,79.7862699 L78.819134,79.8105066 L73.6077893,81.6634291 L79.1387417,81.664 L357.998481,81.6927811 C358.186434,81.6936205 358.378289,81.6742657 358.569033,81.6353548 C361.653143,81.0062094 364.171498,75.8084663 367.809207,64.9867984 C368.136161,64.0141578 370.494845,56.8002298 371.108021,55.0423123 C372.181901,51.9635983 372.972788,50.1558343 373.503546,49.5894489 C373.755108,49.3212404 377.294779,48.7384639 380.665829,48.5969352 C384.563611,48.4332925 387.622187,48.8413898 388.041063,49.4819268 C388.836941,50.6994048 387.789806,54.8606802 385.18862,61.3432933 C384.903695,62.0533748 384.599117,62.7966117 384.260629,63.6097748 C384.02457,64.1768704 383.778359,64.7629292 383.48043,65.4680005 C383.323064,65.8404194 382.797901,67.0803854 382.724189,67.2546628 C379.679837,74.4482491 384.468909,81.6579408 391.57245,81.6579408 L502.471953,81.6579408 L502.675096,81.6579408 L502.860627,81.5752049 C504.927465,80.653518 506.619552,79.5289741 507.967875,78.2433227 C510.42736,75.898158 511.393555,73.512584 511.531677,71.8514815 L511.617604,70.8180828 L510.580639,70.8180828 C499.312313,70.8180828 489.051084,70.824445 477.045666,70.8366177 C450.869807,70.8631584 452.485254,70.8622593 451.230602,70.8409424 C448.58591,70.7947029 446.928228,70.6588433 445.625411,70.3017761 C444.194969,69.9097302 443.662114,69.385642 443.771163,68.5799796 C444.086684,66.2502736 447.284237,64.9574189 453.360344,64.2799887 C454.052693,64.2027982 454.778414,64.1324675 455.636662,64.0573726 C455.967494,64.0284255 456.30073,64.0002013 456.750541,63.9627802 C457.29759,63.917424 457.578244,63.8941199 457.831733,63.872751 C461.694907,63.5470869 463.154468,63.3078164 464.036572,62.5989336 C468.997323,58.6107781 473.414785,44.6930473 470.284307,40.9713132 C467.699911,37.8971442 446.827667,38.6770131 441.16102,40.9754436 C439.568979,41.6214156 438.000125,43.9845678 436.173911,47.9847047 C435.14543,50.2374865 434.067111,52.9545138 432.863863,56.2568555 C432.302875,57.7964993 431.745198,59.3767146 431.04518,61.3967233 C431.146708,61.1037481 429.794138,65.0200382 429.470075,65.9442179 C428.448361,68.8579994 427.805644,70.4611856 427.598176,70.6782107 C427.811817,70.4555854 427.621874,70.4932908 427.712538,70.4834714 C427.457737,70.5110677 427.08254,70.5386287 426.599133,70.5650958 C425.642793,70.6174566 424.28453,70.6644804 422.61694,70.7035038 C419.291778,70.7813161 414.931663,70.8229258 410.608846,70.8169477 C401.303411,70.804079 393.228217,70.5231419 392.940578,70.2914706 C391.98043,69.5173914 392.519058,67.6036478 395.635902,59.9314534 C396.199225,58.5448186 396.616132,57.477341 396.994403,56.4332553 C399.07224,50.6981067 399.523213,46.7105962 397.733407,43.7692052 C395.65259,40.3476396 388.452874,38.8977459 378.325305,38.9288566 C370.440194,38.9530787 361.906627,39.9849885 360.118991,41.0943635 C357.592095,42.6637143 355.515253,47.0139226 352.180702,56.2184788 C347.954517,67.884267 347.226372,69.661394 345.94491,70.5548153 C345.537806,70.8379108 304.554492,70.9271474 301.678815,70.5722962 C298.815739,70.2208435 297.837924,70.0396803 297.111963,69.6684714 C296.453174,69.3316103 296.256176,68.8767088 296.41433,67.7602653 C296.728077,65.5475519 299.96486,64.2491456 306.017981,63.5294764 C306.769937,63.4400747 307.557224,63.3587461 308.497341,63.2709041 C309.02394,63.2217002 310.750037,63.0676565 310.867946,63.0569085 C314.377095,62.7370334 315.788766,62.5033844 316.636667,61.8990015 C321.477884,58.4475095 325.574803,46.2521286 323.543995,41.8705077 C321.707964,37.9092168 301.017559,38.2515665 293.941904,40.9214739 C292.282746,41.547669 290.613268,43.9878341 288.663274,48.121586 C287.608167,50.3582852 286.500076,53.0451183 285.295826,56.2274871 C284.56207,58.1665228 280.246916,70.3711126 279.950605,70.7413294 C280.200792,70.4291132 279.755985,70.4963997 280.060973,70.4714543 C279.738203,70.4978541 279.262312,70.5246914 278.646263,70.5512273 C277.436528,70.6033357 275.706651,70.6534692 273.571358,70.6988187 C269.317717,70.7891578 263.695909,70.8555264 258.059978,70.8809565 C244.918459,70.9402527 234.79169,70.7714331 233.385054,70.4129035 C231.884443,70.0298732 231.321016,66.2894598 232.431932,61.655273 C233.704554,56.3465257 236.653771,51.6103173 240.449203,49.446312 C241.967532,48.5798858 244.987102,48.20648 249.425754,48.1954386 C250.696706,48.192277 251.871256,48.2132048 253.832925,48.2645634 C258.60461,48.3894912 259.572537,48.3804865 260.390543,48.0294527 C261.528847,47.5418645 263.051781,46.0033746 264.10153,44.387796 C264.64772,43.5472022 265.018218,42.7546965 265.14628,42.0762534 C265.340294,41.0484151 264.969167,40.1582755 263.964989,39.8712546 C262.479422,39.4453918 255.095676,38.7974381 248.962299,38.9104578 C239.15232,39.0912264 231.079407,40.8283926 225.952392,44.659637 C222.288124,47.3976198 219.716533,50.8889394 218.021433,55.0229559 C217.070252,57.3427004 216.423519,59.7842619 215.98003,62.4527525 C215.808514,63.4847689 215.672048,64.517388 215.546013,65.6765522 C215.475522,66.3248714 215.286226,68.2631428 215.280109,68.3225787 C215.120572,69.8727182 214.93951,70.6689462 214.934359,70.6722718 C214.449663,70.9860805 180.487821,70.8804052 179.639373,70.4168628 C179.766596,70.4862759 179.802478,70.5511005 179.798074,70.5230889 C179.770821,70.3497706 179.780927,70.0644099 179.837193,69.6870906 C179.957888,68.877716 180.274596,67.7339611 180.773836,66.2924387 C181.653863,63.7514207 183.049313,60.4127675 184.976687,56.1433695 C185.236955,55.566838 185.507246,54.9725905 185.790216,54.3544727 C186.690588,52.3877096 189.629585,46.0868476 190.086646,45.0892117 C191.853469,41.2327323 192.156102,40.4888756 191.886979,39.8441026 C191.314846,38.4704785 184.382255,38.4099318 182.24867,38.9418585 C181.493831,39.1300486 181.052085,40.0115324 179.161306,44.2796519 C178.370612,46.0645125 175.060969,53.7428752 174.692564,54.5890942 C174.457178,55.1297723 174.231547,55.6460677 174.012651,56.1447312 C170.561277,64.00724 168.177752,68.7287231 167.382223,69.1756641 C162.312166,72.0306294 157.634948,71.55183 155.768936,66.6463585 C155.377732,65.6172733 156.851275,61.0873863 159.757418,54.1502964 C159.983801,53.609911 160.220266,53.0506028 160.470502,52.4632309 C160.974357,51.2805485 163.504537,45.443252 164.043396,44.1544746 C164.550256,42.9422273 164.89575,42.0629153 165.105024,41.4385857 C165.230021,41.0656791 165.309691,40.7753348 165.344674,40.5422507 C165.373603,40.3495033 165.377771,40.1796051 165.335952,39.9960049 C165.235595,39.555403 164.872691,39.1876923 164.339882,39.1876923 C164.183071,39.1876923 161.793243,39.08731 161.218805,39.0658151 C159.523088,39.0023632 157.980496,38.9612347 156.515869,38.9474505 C151.399227,38.8992958 148.71251,39.1164943 147.928855,40.0955226 C146.490371,41.8926375 137.415381,63.9572364 137.154767,66.8297481 C137.047296,68.0083923 137.478952,68.9654066 138.307523,69.942939 C138.463374,70.1268095 138.927311,70.6310643 138.987571,70.7027892 C138.997737,70.7148897 138.974141,70.6684899 139.044391,70.3885176 C139.096829,70.179533 139.216912,70.0438985 139.330772,69.9796748 C139.329442,69.9804255 139.271414,69.9996817 139.163681,70.0223129 C138.832975,70.0917842 138.266168,70.1436317 137.419785,70.1765308 C108.113642,71.3199144 88.7886588,70.8190657 84.8913533,67.7270858 L84.8913388,67.7270743 Z" fill="#CBCBCB"></path>
		<path d="M303.054012,43.1715976 C301.396552,43.1715976 296.659153,50.9216698 297.91881,52.1844911 C298.934494,53.2001763 301.31996,52.9164595 304.568013,52.1062548 C306.523046,51.6164084 310.318273,45.0482565 309.088032,43.6125184 C308.495778,42.9226541 307.442345,42.8183076 305.649029,42.9301859 C305.257975,42.9545823 304.852757,42.9902267 304.378866,43.0392812 C304.174033,43.0604843 303.571941,43.1261356 303.498224,43.1338603 C303.252912,43.1595655 303.106075,43.1715976 303.054012,43.1715976 L303.054012,43.1715976 Z M303.054012,45.0802367 C303.198153,45.0802367 303.380075,45.0653297 303.697134,45.0321062 C303.77663,45.0237761 304.377116,44.9582999 304.575387,44.937776 C305.025572,44.8911754 305.406561,44.8576623 305.76787,44.8351215 C306.833386,44.768648 307.63306,44.8478587 307.639276,44.8551003 C307.504632,44.6979663 307.494441,44.6277591 307.494285,44.6290254 C307.475896,44.7780712 307.415434,45.0036375 307.31502,45.2813406 C307.102172,45.8699932 306.734887,46.6277258 306.289065,47.3992813 C305.414241,48.9132821 304.373562,50.1873382 304.1051,50.2546032 C301.930477,50.7970475 299.517569,51.0840281 299.269267,50.8357267 C299.515721,51.0827989 299.518478,51.1889071 299.505171,51.2439478 C299.546397,51.0734197 299.642527,50.8135367 299.786634,50.4913914 C300.080359,49.8347799 300.547819,48.9740007 301.088612,48.089299 C301.623451,47.2143384 302.188513,46.384035 302.659242,45.7835051 C302.892502,45.4859254 303.094446,45.2553826 303.24727,45.1101077 C303.277021,45.0818263 303.279511,45.0802367 303.054012,45.0802367 L303.054012,45.0802367 Z M450.434272,43.1715976 C448.813655,43.1715976 444.395622,50.3077557 445.100872,51.8975179 C445.612692,53.0512522 446.937289,53.1025772 449.215711,52.7101106 C449.630643,52.638637 450.06596,52.550764 450.526199,52.4477974 C450.982184,52.3457824 451.1759,52.2985401 451.946758,52.1062548 C453.901792,51.6164084 457.697019,45.0482565 456.466778,43.6125184 C455.874614,42.9227599 454.82136,42.8183555 453.028796,42.930134 C452.637537,42.9545317 452.232088,42.9901996 451.758062,43.0392846 C451.552901,43.0605289 450.950578,43.1262364 450.877804,43.1338674 C450.63271,43.1595677 450.486062,43.1715976 450.434272,43.1715976 L450.434272,43.1715976 Z M450.434272,45.0802367 C450.578238,45.0802367 450.759888,45.0653354 451.076851,45.0320991 C451.155392,45.0238633 451.756061,44.9583362 451.954649,44.9377726 C452.404931,44.8911462 452.786111,44.8576133 453.147582,44.8350731 C454.212534,44.7686661 455.011838,44.8478975 455.018022,44.8551003 C454.883378,44.6979663 454.873187,44.6277591 454.87303,44.6290254 C454.854642,44.7780712 454.794179,45.0036375 454.693766,45.2813406 C454.480918,45.8699932 454.113633,46.6277258 453.667811,47.3992813 C452.792987,48.9132821 451.752307,50.1873382 451.483845,50.2546032 C450.730357,50.4425551 450.544494,50.4878822 450.109491,50.585203 C449.678051,50.6817267 449.272861,50.7635184 448.891713,50.8291725 C448.161692,50.9549213 447.55563,51.0146336 447.119318,50.9977275 C446.845456,50.987116 446.773115,50.9602841 446.845542,51.1235472 C446.900546,51.247537 446.901675,51.2243553 446.924323,51.1352932 C446.97641,50.930471 447.080157,50.6497039 447.229568,50.3141168 C447.528298,49.6431489 447.989221,48.7974773 448.52151,47.9377053 C449.041013,47.0985871 449.591198,46.3067152 450.052076,45.7353359 C450.277174,45.4562684 450.472471,45.2405939 450.620044,45.1056743 C450.649432,45.0788064 450.647082,45.0802367 450.434272,45.0802367 L450.434272,45.0802367 Z M80.0209817,65.5776092 C84.5012464,69.1334392 103.425185,69.6238757 133.811523,68.4406501 C136.180835,68.3485544 136.969601,68.1828285 137.213278,67.2093442 C137.348589,66.6687789 137.162713,66.303613 136.765972,65.8316083 C136.669745,65.7171274 136.201803,65.2086994 136.080211,65.0652941 C135.550562,64.4406264 135.319891,63.9296064 135.371627,63.3590848 C135.597903,60.8637959 144.528489,39.1543087 145.73647,37.6451637 C145.917992,37.4180732 148.910626,37.1761631 152.815541,37.2129344 C154.259799,37.2265345 155.785495,37.2672124 157.464732,37.3300425 C157.972999,37.3490598 160.45379,37.4532544 160.65742,37.4532544 C160.192235,37.4532544 159.872876,37.1296734 159.792504,36.7767811 C159.770344,36.6794797 159.77136,36.6381172 159.774708,36.6158136 C159.76,36.7137841 159.70536,36.9128773 159.612872,37.1887568 C159.422092,37.7578277 159.090203,38.6023971 158.599985,39.7746916 C158.06699,41.0492827 155.540638,46.8770558 155.032014,48.0708036 C154.780263,48.6616639 154.542251,49.2245705 154.314256,49.7687482 C151.041392,57.5804201 149.630923,61.916403 150.302648,63.6806375 C152.679892,69.9300629 158.68231,70.5450416 164.635089,67.1963374 C166.022374,66.4161797 168.199251,62.1038624 172.077861,53.2680656 C172.29756,52.7675739 172.523951,52.249538 172.760068,51.7071815 C173.133204,50.8500948 176.438064,43.182782 177.22391,41.4088073 C177.892249,39.9000922 178.404218,38.7897405 178.790863,38.018108 C178.99366,37.6133839 179.158998,37.3082826 179.282351,37.1100387 C179.333145,37.028406 179.372039,36.9728052 179.391608,36.9496323 C179.326014,37.0273076 179.24383,37.0950933 179.029122,37.1489183 C179.494099,37.0328349 181.529373,36.9216806 183.334152,36.9376196 C184.349359,36.9465854 185.235555,36.992447 185.879861,37.0739468 C186.204443,37.115004 186.45561,37.1638734 186.613268,37.2139799 C186.600873,37.2100406 186.541225,37.173354 186.441601,36.9346063 C186.365369,36.7517024 186.365734,36.6573767 186.380832,36.5676986 C186.376407,36.5939838 186.361546,36.6520956 186.336367,36.733409 C186.274871,36.9320019 186.167222,37.2212171 186.015203,37.5949393 C185.727506,38.3022082 185.291651,39.2879501 184.667456,40.6505041 C184.21286,41.6428416 181.274101,47.9434931 180.370804,49.9167033 C180.086582,50.5375738 179.815006,51.1346626 179.553395,51.7141787 C174.647563,62.5814819 173.000905,67.3360533 175.040774,68.4490076 C176.48144,69.2333903 211.189715,69.3413881 212.286269,68.6322675 C213.055929,68.1346648 213.244621,67.3046649 213.494744,64.874066 C214.21594,57.8657532 214.539688,55.9174353 216.102462,52.1053007 C217.671894,48.2769266 220.036597,45.0663866 223.410834,42.5455414 C228.137767,39.0137413 235.870514,37.349757 245.314079,37.1755062 C248.720321,37.1126549 252.136871,37.2519184 255.320766,37.5310748 C257.448593,37.7176377 259.481696,37.9834977 259.75718,38.0620107 C259.665692,38.0358612 259.616934,37.9189757 259.586977,38.0779015 C259.513361,38.4684421 259.240201,39.0531195 258.817725,39.7036692 C257.955445,41.031453 256.678685,42.3220301 255.955398,42.6324171 C255.548629,42.8065178 254.240052,42.8185892 250.202073,42.712817 C248.222223,42.6609562 247.032334,42.6397462 245.737349,42.6429709 C240.960746,42.6548654 237.731098,43.0540452 235.819896,44.1436332 C227.140735,49.0936294 222.850983,66.9912225 229.229563,68.6177918 C230.889615,69.0414625 240.816253,69.2073476 254.385939,69.1461205 C269.728747,69.0768929 277.257282,68.9166636 277.758885,68.2886233 C278.290121,67.6248881 282.959886,54.417155 283.398036,53.2592285 C284.585215,50.121796 285.674769,47.4795641 286.704471,45.296121 C288.424931,41.6479542 289.934992,39.4401367 290.931664,39.0641692 C297.121953,36.7272519 316.911255,36.3998221 318.129792,39.0299108 C319.750768,42.5258854 315.97803,53.7546167 311.844727,56.7017944 C311.418544,57.0055775 309.997185,57.2407395 307.010428,57.5128201 C306.897426,57.523114 305.167527,57.6774027 304.636053,57.7270347 C303.681533,57.816173 302.879325,57.899003 302.109534,57.9904874 C295.155093,58.8169754 291.337544,60.3485468 290.842078,63.8496158 C290.575543,65.7246133 291.123398,66.9899764 292.559926,67.7242553 C293.576185,68.2437143 294.611899,68.4357173 297.761336,68.8235211 C301.236776,69.250297 342.37205,69.1607311 343.354134,68.475831 C345.174071,67.207722 345.630369,66.0939879 350.292164,53.2247744 C353.414069,44.6065364 355.472099,40.2961354 357.442961,39.0730138 C358.807922,38.2259434 367.147446,37.2174366 374.648729,37.1942203 C384.039832,37.1651551 390.850805,38.536332 392.420365,41.1166373 C393.806234,43.3954342 393.407576,46.9198968 391.517095,52.1384392 C391.148634,53.1555519 390.739792,54.2024802 390.184857,55.5686033 C390.005209,56.0108544 389.371857,57.5573063 389.39171,57.5087085 C389.079279,58.2735183 388.851544,58.8389036 388.639725,59.3792738 C388.097745,60.7619173 387.714661,61.8489816 387.444154,62.8102785 C386.723892,65.3698677 386.791721,67.1111308 388.060357,68.1344202 C389.554764,69.3380527 424.305517,69.3853613 425.293526,68.3528473 C425.799032,67.8245404 426.377306,66.3824843 427.587503,62.9318699 C427.913621,62.0020157 429.272399,58.0684511 429.165171,58.3778255 C429.862411,56.3661494 430.417016,54.7948487 430.973991,53.2663894 C432.160135,50.0113497 433.220288,47.3399294 434.223235,45.142185 C435.831329,41.6183933 437.246215,39.4859175 438.194643,39.1009691 C443.164276,37.0842042 463.270444,36.3329358 465.139682,38.5553006 C467.440793,41.292257 463.38615,54.0692728 459.156974,57.4681094 C458.733244,57.8088433 457.239712,58.0535759 453.986986,58.3275223 C453.735042,58.3487412 453.455713,58.3719137 452.907953,58.4172876 C452.455782,58.4548709 452.120067,58.48328 451.786023,58.5124837 C450.913987,58.5887212 450.173978,58.6603832 449.464753,58.7394044 C442.493887,59.5160919 438.686633,61.0551833 438.195805,64.6793071 C437.930514,66.6402815 439.195333,67.8845606 441.437429,68.4992458 C442.943801,68.9122274 444.712323,69.057223 447.513725,69.1062209 C448.782823,69.1277703 446.767588,69.1289716 473.210348,69.1013086 C485.241708,69.0887221 495.56343,69.0821302 506.896663,69.0821302 L505.945604,68.0489907 C505.923219,68.3190843 505.804167,68.8581207 505.513239,69.5767438 C505.014066,70.8097557 504.19178,72.0511045 502.966205,73.219687 C501.778121,74.3525217 500.269626,75.3552126 498.400673,76.189025 L498.789491,76.1062249 L387.889988,76.1062249 C382.15204,76.1062249 378.287873,70.289617 380.798074,64.355109 C380.864269,64.1986872 381.394111,62.9482592 381.553884,62.5703064 C381.85242,61.8640973 382.099853,61.2753641 382.337302,60.7051493 C382.679579,59.8831949 382.987966,59.1309037 383.276876,58.4110546 C386.21737,51.0845085 387.287351,46.8313238 385.954358,44.7940402 C384.243517,42.1761879 370.185507,42.7664235 368.427187,44.6409328 C367.632393,45.4886872 366.802345,47.3859068 365.621915,50.7703499 C365.001279,52.5497919 362.637435,59.7803539 362.316318,60.7357531 C359.036082,70.4952169 356.501413,75.7238427 354.500264,76.1230287 C354.438164,76.1354162 354.378393,76.1413158 354.320087,76.1410733 L75.4549676,76.1107692 L75.4548639,77.0650888 L75.7507226,77.9723888 L75.8204031,77.9496669 L81.716405,76.0270576 L75.5151519,76.0880936 C71.1171113,76.1313814 66.5207038,75.15313 63.4534122,73.2369326 C59.7054597,70.8955128 58.3785533,67.3665659 60.0807684,62.3414942 C61.7211092,57.5018275 63.2553011,53.199543 64.6404053,49.4864911 C65.1248421,48.1878601 65.5559298,47.0559054 65.9283075,46.0970874 C66.1512089,45.523149 66.3046813,45.1352593 66.3833634,44.9398784 L66.9299275,43.5826692 L65.467549,43.6295552 C34.0273464,44.6375744 14.2602655,44.3947638 9.98125848,42.731972 C7.21943212,41.658784 4.82790467,39.1351997 3.40278244,36.2331638 C2.84785939,35.1031508 2.52917476,34.0584749 2.51434539,33.4484299 C2.5115285,33.3325498 2.51228672,33.3298033 2.39073628,33.4321729 C2.18517368,33.6052974 2.01487989,33.5924453 2.01977894,33.5952218 C3.76295664,34.5826325 4.46913975,34.9729789 5.62350432,35.563236 C6.57386365,36.0491799 7.47718774,36.4777796 8.33927257,36.8453504 C10.0620536,37.5799 11.5620879,38.0471563 12.8248131,38.1936861 C15.0358434,38.4494028 24.5309993,37.7797734 40.7785266,36.3554938 C41.8124873,36.2648554 42.8757174,36.1709846 43.9763401,36.0732068 C46.408461,35.8571406 48.8818005,35.6347105 52.0026367,35.3520932 C52.0076456,35.3516396 57.699784,34.8354139 59.1387842,34.7055881 C64.2205353,34.2471155 66.8940514,34.0170083 68.158927,33.9354421 C69.9926733,33.8171359 71.3517554,32.8130854 72.2703195,31.2714773 C72.8336537,30.3260446 73.1268609,29.3942621 73.2412444,28.7372107 L73.4436252,27.5746785 L72.2644762,27.6199206 C42.4537968,28.7637109 21.15313,28.577232 17.6091196,26.8672664 C13.5052054,24.8869129 10.1302522,20.6711118 10.1097013,17.9159115 C10.1102924,17.9968411 9.9696512,18.2946092 9.47721583,18.3320721 C9.32221619,18.343864 9.42552649,18.3958128 9.59612463,18.519093 C9.62238204,18.5380676 11.6603029,20.1704853 12.5308152,20.7731334 C14.93129,22.434961 17.3451062,23.4233855 20.0386417,23.5404957 C24.8022291,23.7467977 33.5874519,23.2010931 45.9794704,22.0594602 C48.1586859,21.8586968 50.4353082,21.640784 52.8600454,21.4018281 C54.151087,21.274597 72.2341041,19.4194388 74.235355,19.2763388 C76.1372386,19.14049 77.4986751,18.1576029 78.3489423,16.6535481 C78.8821637,15.710322 79.1178522,14.7826105 79.1827247,14.1234864 L79.2900338,13.0331934 L78.1953264,13.076436 C49.6671371,14.203341 27.3515346,13.9198797 24.5875631,12.6169279 C20.4794808,10.6824064 17.069722,5.90354388 16.9116,2.55587379 C16.9077168,2.47475952 16.9098321,2.44151223 16.893099,2.49418004 C16.7901965,2.81806829 16.4370802,3.10117255 15.9947058,3.04494512 C15.8220689,3.02300232 15.7708136,2.99283123 15.7430848,2.96954572 C15.8022139,3.01919999 15.8928202,3.10788661 16.0213892,3.24308381 C16.0590762,3.28271373 16.8057146,4.09244576 17.0980681,4.39532191 C17.6434774,4.96036191 18.175432,5.4632668 18.7528152,5.94338348 C21.094942,7.89095348 23.7484401,9.09007414 26.9007073,9.25707774 C30.8080507,9.46419418 42.0196675,8.53968252 58.9635852,6.76062308 C60.6800686,6.58039758 62.4467179,6.39224756 64.2675698,6.19591858 C71.3249598,5.43497247 91.5011957,3.15533161 92.1220917,3.11882838 C95.1423418,2.94082104 96.367884,4.02836642 96.4844454,6.32528943 C96.5836414,8.28001639 95.8476288,10.9090333 94.5827801,13.7817889 C94.5913152,13.7623896 88.8438147,26.1636202 86.6785069,31.1663744 C85.5694609,33.7287283 84.5556291,36.1671836 83.6345914,38.5019366 C77.8742319,53.103962 76.0841394,62.4552017 80.0212296,65.5778058 L80.0209817,65.5776092 Z M81.2072675,64.0824072 C78.3320227,61.8019791 80.0640522,52.7540541 85.4100713,39.2023465 C86.3229741,36.8882149 87.3289215,34.4687231 88.4301153,31.924511 C90.5831965,26.9500053 96.3274538,14.5557725 96.329701,14.550665 C97.7052681,11.4264431 98.5087613,8.55638698 98.3906316,6.22855672 C98.2201278,2.86865974 96.0843266,0.973351207 92.0099346,1.21348752 C91.3293063,1.25350247 71.0250533,3.54760752 64.0629613,4.29827836 C62.2438235,4.49442253 60.4789343,4.68238509 58.7642795,4.86241859 C41.9744043,6.62530404 30.7579106,7.55021784 27.0017099,7.35111302 C24.2988037,7.20791607 22.0206465,6.17841267 19.9731414,4.47583218 C19.4542922,4.04438874 18.9715732,3.58803079 18.4713239,3.06977612 C18.1977781,2.78638469 17.4576909,1.98375739 17.4044788,1.92780196 C16.8937001,1.39069071 16.6755378,1.20748675 16.2353648,1.15153912 C15.1794216,1.0173248 14.960157,1.70746531 15.0051155,2.64653568 C15.1976715,6.7232263 19.0463122,12.1171929 23.7740679,14.3435224 C26.9761644,15.8530089 49.1351901,16.1344813 78.2706617,14.9835877 L77.2832635,13.9365372 C77.2744507,14.0260778 77.243241,14.215088 77.1789573,14.46812 C77.0702602,14.8959711 76.9085927,15.3230314 76.6874227,15.7142634 C76.1330628,16.694882 75.3146337,17.2857457 74.0992975,17.3725554 C72.063629,17.5181164 53.9218219,19.379306 52.6728574,19.5023904 C50.2519432,19.7409695 47.9792945,19.9585019 45.8043757,20.1588695 C33.5042772,21.2920342 24.76621,21.8348097 20.1213857,21.6336511 C17.8378526,21.534367 15.7466693,20.6780563 13.6172142,19.2038532 C12.8152622,18.6486688 10.7977392,17.0325902 10.7140348,16.9721024 C10.1668382,16.5766788 9.80197691,16.393211 9.33243126,16.4289325 C8.49735138,16.4924626 8.19528586,17.1320014 8.20111421,17.9299995 C8.22780105,21.5078173 12.0782385,26.3175666 16.7796685,28.5862526 C20.7737672,30.5133834 41.8292797,30.6977161 72.337654,29.5271563 L71.3608858,28.4098663 C71.3436841,28.5086774 71.2965278,28.7099095 71.2123115,28.9775402 C71.0702042,29.4291427 70.8775345,29.8802086 70.6306792,30.294501 C70.0084551,31.3387674 69.170874,31.957548 68.0360735,32.030761 C66.7472558,32.1138711 64.071318,32.3441868 58.9672844,32.8046697 C57.5277597,32.9345428 51.835098,33.450816 51.8304982,33.4512325 C48.7106509,33.7337602 46.2383068,33.9561008 43.8074445,34.1720552 C42.7075396,34.2697692 41.6450466,34.363575 40.611852,34.4541462 C24.7026142,35.8487709 15.0490676,36.5295706 13.0444575,36.2977275 C11.9975916,36.1762464 10.6567852,35.7585891 9.08786209,35.0896406 C8.26994831,34.7409032 7.40576583,34.330875 6.49243721,33.8638659 C5.37055945,33.2902201 4.67971978,32.908355 2.96067043,31.9346116 C1.61214859,31.1703439 0.571078812,32.0471312 0.60627,33.4948127 C0.628868172,34.4244476 1.02353606,35.7182032 1.68957259,37.0744812 C3.30929573,40.3727911 6.03080719,43.2445807 9.28994748,44.5110144 C13.9456928,46.3202041 33.5834493,46.5614262 65.5287114,45.537214 L64.6128969,44.2268908 C64.5312951,44.4295217 64.3749213,44.8247445 64.1491363,45.4061079 C63.7737033,46.3727928 63.339584,47.5127079 62.8521391,48.8194024 C61.4604385,52.5501375 59.9197902,56.8705276 58.2730832,61.7289771 C56.2824649,67.6054373 57.9544333,72.0520868 62.4421618,74.8556591 C65.8610432,76.9915017 70.8025886,78.0432086 75.5339368,77.9966402 L75.5245444,77.0423669 L75.2286857,76.1350668 L75.1590052,76.1577887 L69.4520384,78.0187561 L75.4547602,78.0194083 L354.316015,78.0497041 C354.499789,78.0504763 354.687233,78.031975 354.87364,77.9947908 C357.963292,77.3784719 360.483449,72.179783 364.1255,61.3438341 C364.451909,60.3726903 366.810824,53.1572063 367.424084,51.3989123 C368.497853,48.3202773 369.288735,46.5125785 369.819421,45.9465315 C370.071874,45.6773961 373.610967,45.0942751 376.982423,44.9527221 C380.879821,44.7890871 383.937977,45.1975479 384.356934,45.8386172 C385.15391,47.0566782 384.106822,51.2188654 381.505573,57.7001461 C381.219966,58.4117653 380.914632,59.1566105 380.575326,59.9714294 C380.339365,60.5380728 380.093185,61.1238248 379.795872,61.8271392 C379.636482,62.2041875 379.106837,63.4541494 379.040283,63.6114194 C375.997312,70.8054782 380.786748,78.0148639 387.889988,78.0148639 L498.789491,78.0148639 L498.992717,78.0148639 L499.17831,77.9320637 C501.24414,77.0104169 502.935491,75.8861824 504.283316,74.6010347 C506.743831,72.2549406 507.710001,69.8683983 507.847722,68.2066306 L507.933344,67.1734911 L506.896663,67.1734911 C495.562678,67.1734911 485.240324,67.1800834 473.208351,67.1926706 C446.875251,67.2202189 448.79566,67.2190741 447.546616,67.1978654 C444.902474,67.1516179 443.244956,67.0157231 441.942074,66.6585294 C440.511274,66.2662662 439.978098,65.7417492 440.087196,64.9353245 C440.40268,62.6058795 443.600192,61.313278 449.676104,60.6363055 C450.368414,60.559169 451.0941,60.4888939 451.952251,60.4138704 C452.283083,60.3849475 452.616356,60.3567449 453.066049,60.3193676 C453.613059,60.2740562 453.893827,60.2507644 454.147166,60.229428 C458.011578,59.9039651 459.470926,59.664834 460.352823,58.955674 C465.31428,54.9683289 469.730995,41.0503526 466.600467,37.3268834 C464.015326,34.253369 443.14234,35.0332896 437.476884,37.3324317 C435.884329,37.9788184 434.314618,40.3446424 432.486859,44.3497841 C431.459585,46.6008344 430.382523,49.3148641 429.180706,52.6129119 C428.619694,54.152451 428.062032,55.732412 427.361781,57.752777 C427.467516,57.4477106 426.11079,61.3753312 425.786422,62.3001963 C424.764728,65.213336 424.121776,66.8166799 423.914502,67.0333028 C424.126908,66.8113296 423.937475,66.849041 424.028294,66.8391772 C423.773563,66.8668432 423.398428,66.8944757 422.915079,66.9210119 C421.95886,66.9735091 420.600723,67.0206565 418.933138,67.0597893 C415.60877,67.1378014 411.248991,67.1795671 406.925607,67.1736814 C397.621773,67.1610154 389.545794,66.8800956 389.258117,66.6483937 C388.29778,65.8737803 388.836403,63.9596824 391.953171,56.286913 C392.516488,54.9001548 392.933364,53.8326526 393.311612,52.788525 C395.389068,47.0538505 395.840083,43.0665093 394.051065,40.1248106 C391.970046,36.7036832 384.770335,35.254246 374.642822,35.2855904 C366.757523,35.3099952 358.224104,36.3419499 356.43653,37.4512866 C353.909032,39.0198574 351.831873,43.3703244 348.497637,52.5747175 C344.271175,64.2421611 343.543885,66.0173347 342.26266,66.9100761 C341.855588,67.1939662 300.877393,67.28319 297.994279,66.9291504 C295.128218,66.5762398 294.154299,66.3956925 293.428619,66.0247625 C292.769873,65.6880457 292.573155,65.2336926 292.731803,64.1176455 C293.04513,61.9036129 296.281593,60.6051688 302.334778,59.885789 C303.086562,59.7964446 303.873676,59.715173 304.81352,59.6274053 C305.340245,59.5782168 307.06703,59.4242058 307.183579,59.4135887 C310.693208,59.093877 312.104743,58.8603401 312.952691,58.2559245 C317.795043,54.8031716 321.892568,42.6077824 319.861472,38.2272981 C318.025529,34.2645998 297.334351,34.6069519 290.25779,37.278449 C288.598634,37.9043208 286.928849,40.3456657 284.97817,44.4820047 C283.923749,46.7178616 282.816379,49.4032984 281.61292,52.5837551 C280.880093,54.5204442 276.564493,66.7264732 276.268144,67.0967377 C276.517282,66.7847989 276.073364,66.8521612 276.378282,66.8271476 C276.055561,66.8536216 275.579708,66.8805322 274.963689,66.9071373 C273.754011,66.9593819 272.024178,67.0096335 269.88883,67.05508 C265.635631,67.1456005 260.013895,67.2120684 254.377327,67.2375008 C241.236942,67.2967909 231.10861,67.1275353 229.701365,66.768385 C228.201158,66.3858246 227.637862,62.6456908 228.748532,58.0117834 C230.020999,52.7028295 232.969923,47.9663001 236.765334,45.8016594 C238.283914,44.9359073 241.303781,44.5626562 245.742102,44.5516041 C247.013921,44.548437 248.189398,44.5693901 250.152095,44.6208016 C254.921769,44.7457401 255.889318,44.7368146 256.707248,44.3867329 C257.846788,43.897718 259.369274,42.3587554 260.418441,40.7431947 C260.964414,39.9024767 261.334696,39.1099183 261.462585,38.4314477 C261.656324,37.4036398 261.285071,36.5136497 260.281013,36.2266629 C258.786915,35.8008447 251.410069,35.1540603 245.278867,35.267192 C235.468842,35.4482046 227.396065,37.1853588 222.268465,41.0165231 C218.60343,43.7546199 216.031538,47.2464589 214.336458,51.3813318 C213.385677,53.7006071 212.739203,56.1416669 212.295871,58.8096435 C212.124413,59.8414777 211.987988,60.8739271 211.861985,62.0329187 C211.791508,62.6811763 211.602232,64.6194067 211.596131,64.6786877 C211.436544,66.2294958 211.255491,67.0258921 211.249915,67.0294973 C210.767223,67.341645 176.80428,67.2359663 175.95418,66.7731225 C176.082622,66.8432 176.118502,66.908022 176.114096,66.8800009 C176.086843,66.7066683 176.096953,66.4212876 176.153227,66.0439433 C176.273936,65.2345247 176.590667,64.090709 177.089942,62.6491022 C177.970007,60.1079979 179.36547,56.7692928 181.292991,52.4994855 C181.553171,51.9231401 181.823369,51.3290823 182.106245,50.7111532 C183.005804,48.7461051 185.944419,42.4457646 186.402682,41.4454219 C188.168487,37.5908457 188.471955,36.8448074 188.203192,36.1999641 C187.630342,34.8271421 180.694654,34.7658894 178.565909,35.2973416 C177.811146,35.4865517 177.368727,36.3694923 175.47883,40.6357615 C174.688373,42.4201452 171.379839,50.0959817 171.010078,50.9453166 C170.774704,51.4859669 170.54908,52.0022458 170.330189,52.5008979 C166.878693,60.3636935 164.495234,65.0852428 163.699416,65.5327816 C158.627316,68.3860641 153.952433,67.9070982 152.086474,63.0017668 C151.694774,61.9729961 153.168355,57.4430007 156.074634,50.5062951 C156.301077,49.9658204 156.537607,49.4064185 156.787914,48.8189468 C157.292127,47.6355522 159.822109,41.7994054 160.360865,40.5110382 C160.86774,39.2989098 161.213241,38.4196994 161.422523,37.7954393 C161.547528,37.4225675 161.627204,37.1322502 161.662195,36.8991829 C161.691131,36.7064395 161.695305,36.5365431 161.653488,36.3529386 C161.553139,35.9123286 161.190224,35.5446154 160.65742,35.5446154 C160.500611,35.5446154 158.110627,35.4442347 157.536095,35.4227381 C155.840509,35.3592962 154.29803,35.3181709 152.833513,35.30438 C147.715373,35.2561841 145.029035,35.4733349 144.245993,36.4529468 C142.807382,38.2502201 133.731356,60.3132599 133.470787,63.186714 C133.363891,64.3655295 133.795786,65.3223361 134.624429,66.2996365 C134.780437,66.4836319 135.244678,66.9880386 135.30491,67.0596972 C135.315202,67.0719419 135.291702,67.0257744 135.361763,66.745883 C135.414113,66.5367478 135.534252,66.4009467 135.648224,66.3366336 C135.646957,66.3373487 135.58898,66.3565933 135.481292,66.3792194 C135.150612,66.4486979 134.583781,66.5005518 133.737324,66.5334539 C104.408656,67.6754944 85.1041084,67.175194 81.2075153,64.0826038 L81.2072675,64.0824072 Z" fill="#000000"></path>
	</g>
</svg>
