<?xml version="1.0" encoding="UTF-8" standalone="no"?>
<svg width="256px" height="256px" viewBox="0 0 256 256" version="1.1" xmlns="http://www.w3.org/2000/svg" xmlns:xlink="http://www.w3.org/1999/xlink" preserveAspectRatio="xMidYMid">
    <g>
        <path d="M127.997895,105.847663 C140.236194,105.847663 150.154742,115.765009 150.154742,127.999399 C150.154742,140.236194 140.236194,150.154742 127.997895,150.154742 C115.763806,150.154742 105.845258,140.233488 105.845258,127.999399 C105.845258,115.765009 115.763806,105.847663 127.997895,105.847663 L127.997895,105.847663 Z M52.5129516,127.999399 C52.5129516,86.3085405 86.3085405,52.5141543 127.997895,52.5141543 C169.692662,52.5141543 203.485846,86.3085405 203.485846,127.999399 C203.485846,130.759044 203.338512,133.481406 203.05046,136.159267 C202.477063,143.517821 207.877285,149.134533 215.188933,149.134533 C227.598018,149.134533 228.920411,133.134721 228.920411,127.999399 C228.920411,72.2595437 183.736547,27.0768826 127.997895,27.0768826 C72.259243,27.0768826 27.0768826,72.2595437 27.0768826,127.999399 C27.0768826,183.735345 72.259243,228.919209 127.997895,228.919209 C157.599292,228.919209 184.224251,216.18178 202.685735,195.88374 L223.433292,213.305771 C199.997651,239.503464 165.92303,256.003909 127.997895,256.003909 C57.3064005,256.003909 0,198.692096 0,127.999399 C0,57.3064005 57.3064005,0 127.997895,0 C198.693599,0 256,57.3064005 256,127.999399 C256,156.415212 242.469076,179.489736 215.29357,179.489736 C203.333401,179.489736 196.064148,174.009833 192.093662,167.893991 C178.763893,189.262454 155.045612,203.489755 127.997895,203.489755 C86.3085405,203.489755 52.5129516,169.688753 52.5129516,127.999399 L52.5129516,127.999399 Z M127.997895,79.5898342 C101.264089,79.5898342 79.5886315,101.261684 79.5886315,127.999399 C79.5886315,154.735911 101.264089,176.411369 127.997895,176.411369 C154.734407,176.411369 176.411369,154.735911 176.411369,127.999399 C176.411369,101.261684 154.734407,79.5898342 127.997895,79.5898342 L127.997895,79.5898342 Z" fill="#AF252A"></path>
    </g>
</svg>