<?xml version="1.0" encoding="UTF-8"?>
<svg width="256px" height="272px" viewBox="0 0 256 272" version="1.1" xmlns="http://www.w3.org/2000/svg" xmlns:xlink="http://www.w3.org/1999/xlink" preserveAspectRatio="xMidYMid">
    <title>mailchimp</title>
    <g>
        <path d="M135.921484,5.70067882 L149.875301,19.3696398 L157.480142,16.1405713 C193.370002,1.27916291 222.495035,8.4546397 222.530383,32.1694761 C222.549096,44.5004426 214.691626,58.8753075 202.102833,71.9236136 C206.664698,76.1569578 210.318973,82.7741571 212.415892,90.335334 C214.175973,95.9233067 214.48786,101.595489 214.647962,105.227931 L214.708389,106.757152 C214.763947,108.286681 214.819506,110.132659 214.871284,112.007596 L215.132426,122.170664 L220.188112,123.574155 C229.821257,126.279254 236.675491,129.882587 240.027235,133.40067 C243.264405,136.798444 244.924751,140.088642 245.579074,143.906631 L245.71104,144.724468 C246.196724,148.005138 245.960553,153.489048 241.885041,159.590849 L242.265597,160.472761 C242.658139,161.415644 243.302051,163.051713 243.94484,165.072469 L244.331249,166.316938 C245.239317,169.282241 245.882163,171.632572 245.990511,172.012262 C249.884938,172.012262 256,176.494076 256,187.312391 C256,198.074567 251.53378,210.267264 250.481682,212.974441 C234.391439,251.531973 195.99193,272.997066 150.246447,271.638279 C107.602158,270.372018 71.2319924,247.868342 55.3132876,211.185251 C45.6874198,211.193568 35.7683784,206.962303 28.2238355,200.278567 C20.2769585,193.238242 15.3740972,184.125947 14.4186839,174.620676 C13.6743139,167.219601 14.5850235,160.337298 16.9044221,154.330357 L7.96470532,146.757744 C-32.9413343,112.219395 95.0008893,-29.9916523 135.921484,5.70067882 Z M189.57779,83.5202777 L189.51612,83.5320422 C186.065612,84.1163102 184.026911,85.9533238 181.483994,88.0731147 C173.945689,94.3545159 167.579038,95.3837425 160.501286,95.0780934 C156.271061,94.9013575 151.789247,94.2422366 146.651431,93.9386667 C145.652353,93.8794082 144.649117,93.8170309 143.64796,93.7660894 C131.792102,93.1589496 119.076475,103.399235 116.963961,117.93836 C114.080671,137.771931 128.099207,148.213047 132.643534,154.398753 L132.909696,154.772197 C133.4503,155.506171 134.074074,156.541635 134.074074,157.523039 C134.074074,158.697813 133.31307,159.630354 132.56766,160.421507 C120.474768,172.864753 116.605291,192.623825 121.161958,209.09249 C121.660457,210.892727 122.275167,212.622919 122.992854,214.285853 L123.3067,214.994429 C134.0013,239.985922 167.176704,251.6245 199.587986,241.03906 C203.93049,239.621014 208.041159,237.866131 211.901279,235.837827 C218.920669,232.399902 225.086228,227.714666 230.21268,222.325787 L230.757958,221.745739 C239.355638,212.75924 244.471622,202.991983 246.457302,190.956269 C247.432468,184.515806 246.005066,182.02383 244.056813,180.825145 C241.99628,179.556805 239.529255,179.997605 239.529255,179.997605 L239.410673,179.276247 C239.048898,177.20398 237.821673,171.015168 235.21794,165.296299 C225.771927,172.751434 213.609379,177.991133 204.349458,180.648409 C193.663175,183.716336 179.204101,186.073161 163.070194,185.11151 L162.351159,185.049011 C153.802689,184.254837 148.138204,181.969966 145.971517,189.013214 C166.41778,196.498499 188.061688,193.294381 188.061688,193.294381 C188.479616,193.251757 188.85388,193.556366 188.896505,193.975334 C188.927,194.278442 188.766924,194.583193 188.519959,194.736253 L188.403581,194.795314 C187.75458,195.088654 171.270802,202.342115 145.395566,194.339202 C146.114406,200.413139 151.934356,203.201003 154.878648,204.363275 L155.048464,204.429781 C158.677788,205.842629 162.653305,206.496552 162.653305,206.496552 C195.369196,212.12299 225.956979,193.417057 232.843441,188.705486 C233.360134,188.352014 233.702169,188.696129 233.28736,189.320943 L232.872351,189.938296 C232.795266,190.046703 232.727476,190.134684 232.612645,190.282594 C224.184422,201.154969 201.525843,213.743762 172.046298,213.739604 C159.188243,213.737525 146.337465,209.206848 141.619656,202.247613 C134.372872,191.556007 141.120131,175.99899 153.090398,177.283744 L158.797344,177.930835 C174.045492,179.629579 196.115646,177.491075 214.306966,169.047258 C230.949248,161.32286 237.235847,152.821864 236.29291,145.939561 C236.036123,144.084874 235.207543,142.141819 233.42459,140.312083 C230.504169,137.452588 225.910529,135.211996 218.242838,133.016797 L214.444638,131.952356 C213.480943,131.679038 212.601849,131.420391 211.706982,131.132673 L210.947568,130.882393 C207.762301,129.801276 206.174305,128.726372 205.803891,122.505423 L205.45936,116.014285 C205.302932,112.923978 205.135121,109.485548 205.024741,107.079993 L204.965955,105.771654 C204.651989,98.6460789 203.795339,88.9058526 197.750972,84.8835519 C196.175944,83.8356121 194.424179,83.3303554 192.584047,83.2315912 C190.875235,83.1518138 189.975394,83.4377994 189.57779,83.5202777 L189.57779,83.5202777 Z M45.8121745,141.792506 C31.0620058,144.766867 22.7304684,157.315114 24.3699536,173.619519 C25.8534954,188.370728 40.7762415,200.808775 54.5938686,201.17992 C56.0223104,201.214228 57.4413956,201.119622 58.8303317,200.882588 C73.780108,198.333433 77.694288,182.098683 75.2303818,166.152948 C72.4483511,148.149799 60.2691697,141.803942 52.0041681,141.350666 C49.7066017,141.231109 47.5753749,141.436955 45.8121745,141.792506 Z M39.9326916,155.927738 C42.6565034,152.923228 46.9262344,151.385625 51.0732899,151.910635 C55.3939623,152.459556 58.9868989,155.072128 61.1898596,159.267006 C63.8237441,164.284018 61.9751595,169.523343 60.443792,173.068289 L59.5990418,174.982643 C59.5633697,175.064985 59.5290622,175.145166 59.496314,175.223137 C58.5190686,177.543576 58.4681271,179.568761 59.3528461,180.927548 C60.0317198,181.971329 61.2418408,182.581588 62.6702826,182.608618 C63.2256144,182.618148 63.7412385,182.52155 64.2081302,182.416889 L64.7902429,182.283942 C65.4056072,182.1509 66.0087733,182.081909 66.4267479,182.485235 L66.5272833,182.596142 C66.7040191,182.792631 66.9774399,183.252144 66.6530776,184.006911 C66.1031171,185.283568 63.9303054,187.028055 60.8207935,186.910577 C57.6218741,186.664187 54.0632451,184.33959 53.5818997,178.55201 C53.3636656,175.931294 54.2522471,172.789055 54.9135543,170.881393 L55.0872736,170.39305 C56.3722474,166.873926 55.213068,163.186384 52.2033599,161.216299 C50.4349614,160.058159 48.3224478,159.665182 46.2556776,160.107021 C44.2273735,160.541584 42.4995204,161.735071 41.3892032,163.469162 C40.6531502,164.6194 40.1459806,165.996526 39.8181917,166.994797 L39.4779605,168.06466 C39.4534255,168.139147 39.4313854,168.203188 39.4118405,168.255585 C38.7340064,170.077004 37.6527987,170.608252 36.9229835,170.509487 C36.5767891,170.462704 36.1006418,170.231908 35.7960323,169.397091 C34.9653737,167.118238 35.63697,160.668418 39.9326916,155.927738 Z M178.835035,142.717978 C179.691684,140.97453 182.324009,140.512938 184.715142,141.687712 C187.105234,142.862486 188.349663,145.227627 187.493014,146.972115 C186.636365,148.715562 184.003,149.176115 181.612907,148.001341 C179.221775,146.826567 177.978386,144.461425 178.835035,142.717978 Z M31.8999418,76.467805 L31.2016229,77.4711946 C19.7057881,94.1017104 3.99024802,122.409383 11.7343777,137.112124 C12.7074647,138.973049 18.2174657,143.749076 21.1762323,146.216101 C26.124837,139.027109 34.2183007,133.822757 43.4002496,132.037725 C55.0918479,100.665026 74.6066081,71.7520759 100.441236,51.8599326 L101.593285,50.905985 C120.433729,35.4152343 140.289979,24.3982955 140.289979,24.3982955 L138.866981,22.7799179 C137.795092,21.5755223 136.221413,19.8361299 134.511674,18.0428169 L134.033538,17.5436694 L133.493009,16.9853343 L132.948346,16.4295956 L132.128918,15.6078536 C129.582139,13.0828031 127.098898,10.9038178 125.791399,10.5338854 C105.108102,4.94383339 60.4271923,35.7572145 31.8999418,76.467805 Z M196.982795,134.570974 C198.92585,134.604242 200.463452,136.789529 200.417709,139.453042 C200.373005,142.116556 198.76159,144.248823 196.819574,144.216594 C194.877559,144.183326 193.338917,141.997 193.38466,139.334525 C193.429364,136.671012 195.04078,134.537706 196.982795,134.570974 Z M154.690106,136.610402 C159.539947,136.034451 163.094417,138.29667 163.919878,139.634665 C164.274389,140.208536 164.13508,140.585919 164.020721,140.759536 C163.650418,141.337765 162.874637,141.265345 161.272188,141.085606 L160.404814,140.989676 C157.502155,140.68471 154.489456,140.599849 150.158636,142.071111 L149.689521,142.234761 C149.689521,142.234761 147.908647,142.948982 147.113335,142.948982 C146.884618,142.948982 146.694367,142.87101 146.534265,142.728582 C146.416788,142.629818 146.267082,142.43125 146.264916,142.088174 C146.258765,141.364597 146.916847,140.33745 147.98142,139.406987 C149.226888,138.326819 151.169944,137.1666 154.690106,136.610402 Z M139.265742,129.091538 C144.744555,125.154486 151.845179,124.301995 157.800138,126.865705 C160.713161,128.105975 163.457766,130.314134 164.791602,132.492144 C165.437207,133.547361 165.561962,134.364505 165.144034,134.793869 C164.605438,135.361718 163.374742,134.921323 161.434268,134.080224 L160.128893,133.507855 C157.425874,132.321646 153.915068,130.997166 149.676525,131.256032 C143.674783,131.624059 138.463153,134.258463 136.972334,134.087965 C136.338164,133.998557 136.066823,133.727216 135.987812,133.366467 C135.741421,132.251991 137.456799,130.416017 139.265742,129.091538 Z M198.470079,117.728564 C199.37871,122.078346 199.206132,126.073616 198.194579,128.390936 C196.449053,128.144545 194.549662,128.153902 192.566061,128.390936 C191.059648,126.464515 189.705019,123.356042 188.946095,119.718402 L188.807093,119.032491 C187.609178,112.922536 187.86886,108.54565 191.512923,107.958189 C195.290913,107.34897 197.120649,111.26211 198.470079,117.728564 Z M157.727572,46.9393977 C147.110944,47.5922809 135.007655,52.6739573 128.049459,57.4167166 C127.706384,57.6516714 127.263505,57.3449827 127.347714,56.9374505 C127.889358,54.3248783 129.599537,50.8826871 130.487375,49.2743906 C130.697379,48.8938886 130.286728,48.473881 129.899988,48.6714094 C118.715726,54.3924538 106.229855,64.5817972 96.0893744,76.3014654 C95.7307045,76.7152353 96.2629914,77.3005429 96.7048311,76.9782599 C105.464693,70.6074511 117.472337,64.6826406 133.204949,60.8453927 C150.826556,56.5475919 167.791122,58.3492583 178.155122,60.7247965 C178.672854,60.8433135 179.003454,59.946119 178.539782,59.6851737 C171.689707,55.8448069 161.1812,53.2353536 153.726064,53.1823328 C153.358038,53.1802536 153.152192,52.7550478 153.371553,52.459795 C154.661725,50.7267437 156.427004,49.0124057 158.041539,47.7742149 C158.404367,47.4955959 158.183967,46.9113279 157.727572,46.9393977 Z" fill="#000000"></path>
    </g>
</svg>
