<?xml version="1.0" encoding="utf-8"?>
<svg width="256px" height="141px" xmlns="http://www.w3.org/2000/svg" viewBox="0 78 256 141" preserveAspectRatio="xMidYMid">
  <title>Marko</title>
  <path id="f" fill="#00CFFB" d="M 53.567 124.48 C 54.453 123.005 54.453 121.087 53.567 119.611 L 36.746 90.764 C 35.823 89.003 33.34 88.902 32.277 90.581 C 32.239 90.64 32.204 90.701 32.172 90.764 L 0.668 146.024 C -0.202 147.53 -0.202 149.387 0.668 150.893 L 38.885 216.409 C 39.766 217.935 41.403 218.866 43.165 218.843 L 75.627 218.843 C 78.209 218.843 79.759 216.113 78.431 213.9 L 40.066 148.385"/>
  <path id="g" fill="#7CED64" d="M 84.112 148.458 L 119.525 148.458 C 121.296 148.458 122.919 147.499 123.805 145.95 L 135.683 124.48 C 136.568 123.005 136.494 121.16 135.683 119.611 L 118.861 90.837 C 117.939 89.077 115.456 88.975 114.393 90.655 C 114.355 90.714 114.32 90.775 114.287 90.837 L 101.745 113.192 L 82.562 80.435 C 81.695 78.932 80.092 78.004 78.357 78 L 45.968 78 C 43.469 77.972 41.877 80.66 43.103 82.838 C 43.123 82.873 43.143 82.908 43.165 82.943 L 79.906 146.024 C 80.792 147.499 82.415 148.458 84.185 148.458"/>
  <path id="h" fill="#FFD100" d="M 163.276 148.385 L 125.059 213.9 C 123.805 216.113 125.354 218.769 127.862 218.769 L 160.473 218.769 C 162.169 218.769 163.793 217.884 164.678 216.335 L 203.043 150.893 C 203.928 149.418 203.928 147.499 203.043 145.95 L 164.678 80.435 C 163.81 78.932 162.208 78.004 160.473 78 L 127.862 78 C 125.364 77.972 123.772 80.66 124.997 82.838 C 125.017 82.873 125.037 82.908 125.059 82.943 L 163.276 148.385"/>
  <path id="i" fill="#FF5467" d="M 180.393 78 L 212.929 78 C 214.7 78 216.249 78.959 217.134 80.435 L 255.352 145.95 C 256.237 147.426 256.237 149.344 255.352 150.893 L 217.134 216.335 C 216.267 217.838 214.665 218.765 212.929 218.769 L 180.393 218.769 C 177.894 218.821 176.277 216.148 177.482 213.959 C 177.493 213.939 177.504 213.919 177.515 213.9 L 215.733 148.385 L 177.515 82.943 C 176.261 80.73 177.811 78 180.393 78"/>
  <path d="M 0.004 148.385 L 82 148.385 L 101.745 113.192 L 101.745 78 L 115.836 78 L 153.464 148.385 L 256.016 148.385 L 256.016 334.012 L 0.004 334.012" fill="#0073D8" clip-path="url(#a)"/>
  <path d="M 0.004 148.385 L 82 148.385 L 101.745 113.192 L 101.745 78 L 115.836 78 L 153.464 148.385 L 256.016 148.385 L 256.016 334.012 L 0.004 334.012" fill="#00B068" clip-path="url(#c)"/>
  <path d="M 0.004 148.385 L 82 148.385 L 101.745 113.192 L 101.745 78 L 115.836 78 L 153.464 148.385 L 256.016 148.385 L 256.016 334.012 L 0.004 334.012" fill="#FC5C00" clip-path="url(#d)"/>
  <path d="M 0.004 148.385 L 82 148.385 L 101.745 113.192 L 101.745 78 L 115.836 78 L 153.464 148.385 L 256.016 148.385 L 256.016 334.012 L 0.004 334.012" fill="#CC0067" clip-path="url(#e)"/>
  <defs>
    <clipPath id="a">
      <path fill="#00CFFB" d="M 53.567 124.481 C 54.453 123.005 54.453 121.087 53.567 119.611 L 36.746 90.764 C 35.823 89.003 33.34 88.902 32.277 90.581 C 32.239 90.641 32.204 90.701 32.172 90.764 L 0.668 146.024 C -0.202 147.531 -0.202 149.387 0.668 150.893 L 38.885 216.409 C 39.766 217.935 41.403 218.866 43.165 218.843 L 75.627 218.843 C 78.209 218.843 79.759 216.114 78.431 213.9 L 40.066 148.385"/>
    </clipPath>
    <clipPath id="c">
      <path fill="#7CED64" d="M 84.112 148.459 L 119.525 148.459 C 121.296 148.459 122.919 147.5 123.805 145.95 L 135.683 124.481 C 136.568 123.005 136.495 121.161 135.683 119.611 L 118.861 90.837 C 117.939 89.077 115.456 88.975 114.393 90.655 C 114.355 90.714 114.32 90.775 114.287 90.837 L 101.745 113.192 L 82.562 80.435 C 81.695 78.932 80.092 78.004 78.357 78 L 45.968 78 C 43.469 77.972 41.877 80.66 43.103 82.838 C 43.123 82.873 43.143 82.908 43.165 82.943 L 79.906 146.024 C 80.792 147.5 82.415 148.459 84.185 148.459"/>
    </clipPath>
    <clipPath id="d">
      <path fill="#FFD100" d="M 163.276 148.385 L 125.059 213.9 C 123.805 216.114 125.354 218.77 127.862 218.77 L 160.473 218.77 C 162.17 218.77 163.793 217.884 164.678 216.335 L 203.043 150.893 C 203.928 149.418 203.928 147.5 203.043 145.95 L 164.678 80.435 C 163.81 78.932 162.208 78.004 160.473 78 L 127.862 78 C 125.364 77.972 123.772 80.66 124.997 82.838 C 125.017 82.873 125.038 82.908 125.059 82.943 L 163.276 148.385"/>
    </clipPath>
    <clipPath id="e">
      <path fill="#FF5467" d="M 180.393 78 L 212.929 78 C 214.7 78 216.249 78.959 217.135 80.435 L 255.352 145.95 C 256.237 147.426 256.237 149.344 255.352 150.893 L 217.135 216.335 C 216.267 217.838 214.665 218.766 212.929 218.77 L 180.393 218.77 C 177.894 218.821 176.278 216.148 177.482 213.959 C 177.493 213.939 177.504 213.92 177.515 213.9 L 215.733 148.385 L 177.515 82.943 C 176.261 80.73 177.811 78 180.393 78"/>
    </clipPath>
    <path id="b" d="M0 173.4H111.1376L137.9 125.7V78H157l51 95.4H347V425H0"/>
  </defs>
</svg>
