<?xml version="1.0" encoding="UTF-8"?>
<svg width="512px" height="110px" viewBox="0 0 512 110" version="1.1" xmlns="http://www.w3.org/2000/svg" xmlns:xlink="http://www.w3.org/1999/xlink" preserveAspectRatio="xMidYMid">
    <title>Matter</title>
    <g fill="#231F20">
        <path d="M33.3666352,28.2168663 C38.0932692,32.0514152 43.7120191,34.6297388 49.7013765,35.712528 L49.7013765,3.7554639 L56.2098295,0 L62.7131939,3.7554639 L62.7131939,35.712528 C68.7037438,34.6286507 74.323882,32.0504932 79.0530239,28.2168663 L90.8689957,35.0509964 C71.6520389,54.0633358 40.7116445,54.0633358 21.4946877,35.0509964 L33.3666352,28.2168663 Z M47.7269592,109.82442 C54.5799954,83.6682956 39.0954616,56.8711092 13.0118173,49.7471749 L13.0118173,63.4205238 C18.6975557,65.5961636 23.7419825,69.1720706 27.6774636,73.816747 L0,89.795279 L0,97.3112955 L6.50845301,101.046405 L34.1808279,85.0678726 C36.237676,90.7972319 36.8135596,96.9534097 35.8550117,102.964846 L47.7269592,109.82442 Z M99.3773095,49.7471749 C73.3078325,56.8868795 57.8404716,83.6779099 64.6926999,109.82442 L76.5341152,102.985201 C75.5777823,96.9736929 76.1536142,90.818068 78.208299,85.0882274 L105.860319,101.046405 L112.363683,97.2909407 L112.363683,89.795279 L84.6862197,73.816747 C88.6227482,69.1732127 93.6668585,65.59753 99.351866,63.4205238 L99.3773095,49.7471749 Z"></path>
        <path d="M315.229976,45.7728967 L315.229976,35.0509964 L321.646832,35.0509964 L321.646832,89.795279 L315.229976,89.795279 L315.229976,79.1089997 C310.384131,86.5594879 302.062685,91.0120566 293.17553,90.9097053 C277.6011,90.7014763 265.084854,78.0167709 265.084854,62.4409482 C265.084854,46.8651254 277.6011,34.18042 293.17553,33.972191 C302.062685,33.8698398 310.384131,38.3224085 315.229976,45.7728967 Z M293.17553,40.3686925 C280.995197,40.3686925 271.121085,50.242804 271.121085,62.4231377 C271.121085,74.6034714 280.995197,84.4776123 293.17553,84.4776123 C299.026803,84.484345 304.640368,82.1629299 308.777845,78.0254524 C312.915323,73.8879748 315.236738,68.2744106 315.230005,62.4231377 C315.230005,50.242804 305.355864,40.3686925 293.17553,40.3686925 Z M390.466471,16.3601849 L384.054704,20.0393182 L384.054704,35.0509964 L351.441197,35.0509964 L351.441197,16.3601849 L345.029429,20.0393182 L345.029429,35.0509964 L336.42443,35.0509964 L336.42443,41.2286836 L345.029429,41.2286836 L345.029429,77.2821547 C344.995342,80.5979284 346.292224,83.7889108 348.629769,86.1408031 C350.967315,88.4926953 354.150303,89.8090777 357.466223,89.7954922 L367.007544,89.7954922 L367.007544,83.3835114 L357.466223,83.3835114 C354.149447,83.339513 351.48471,80.6589012 351.441304,77.3608642 L351.441197,41.2286836 L384.054704,41.2286836 L384.054704,77.2821547 C384.015278,80.5854334 385.299249,83.7671491 387.620321,86.1178566 C389.941394,88.4685641 393.106565,89.7927954 396.410078,89.7954922 L406.032818,89.7954922 L406.032818,83.3835114 L396.410078,83.3835114 C393.124804,83.2961105 390.507963,80.6273976 390.46652,77.359441 L390.466471,41.2286836 L406.032818,41.2286836 L406.032818,35.0509964 L390.466471,35.0509964 L390.466471,16.3601849 Z M244.690354,57.3395219 L244.690354,89.795279 L251.102122,89.795279 L251.102122,57.3395219 C251.102122,43.701794 240.634657,33.9314814 227.694081,33.9314814 C219.323163,33.9314814 211.700283,38.2314367 207.476659,46.9941858 C203.176703,38.3128559 195.630155,33.9314814 187.340655,33.9314814 C174.425523,33.9314814 163.932614,43.6763504 163.932614,57.3395219 L163.932614,89.795279 L170.349471,89.795279 L170.349471,57.3395219 C170.349471,47.2435323 177.946907,40.3686925 187.3203,40.3686925 C196.693694,40.3686925 204.347105,47.2435323 204.347105,57.3395219 L204.347105,89.795279 L210.758873,89.795279 L210.758873,57.3395219 C210.758873,47.2435323 218.356309,40.3686925 227.729702,40.3686925 C237.103096,40.3686925 244.690354,47.2435323 244.690354,57.3395219 Z M509.577777,40.3686925 L512,40.3686925 L512,33.9569249 L509.577777,33.9569249 C496.662645,33.9569249 486.169736,43.701794 486.169736,57.3649655 L486.169736,89.8207226 L492.586592,89.8207226 L492.586592,57.3395219 C492.606744,47.3444922 500.053192,40.5065115 509.297113,40.3707513 L509.577777,40.3686925 Z M444.195557,34.3070179 C459.615622,34.3070179 472.202102,46.5741901 472.654334,61.9313882 L472.664314,62.4231377 C472.664314,63.0490484 472.582895,63.7563783 472.582895,64.3822889 L421.838334,64.3822889 C422.856075,75.658858 432.728162,84.4775829 445.526254,84.4775829 C453.423923,84.4775829 459.677941,81.1190379 463.748904,75.9540029 L469.377011,79.1598867 C464.135646,86.284073 455.769816,90.8944392 445.526254,90.8944392 C428.474005,90.8944392 415.7268,78.1472345 415.7268,62.3976942 C415.935029,46.8232634 428.619735,34.3070179 444.195557,34.3070179 Z M444.193013,40.3686925 C433.506734,40.3686925 424.204582,48.0271928 422.1691,58.2046017 L466.216926,58.2046017 C464.181444,48.0271928 454.879292,40.3686925 444.193013,40.3686925 Z"></path>
    </g>
</svg>
