<?xml version="1.0" encoding="UTF-8"?>
<svg width="256px" height="256px" viewBox="0 0 256 256" version="1.1" xmlns="http://www.w3.org/2000/svg" xmlns:xlink="http://www.w3.org/1999/xlink" preserveAspectRatio="xMidYMid">
    <title>mautic</title>
    <g>
        <path d="M128.134689,255.999052 C57.5795122,255.999052 0,198.41954 0,127.864363 C0,57.3091859 57.5795122,0 128.134689,0 C145.165249,0 161.655156,3.24391618 177.334085,9.73174855 C181.659306,11.624033 183.821917,16.7602336 181.929633,21.0854552 C180.037348,25.4106768 174.901147,27.5732875 170.575926,25.6810031 C157.059608,20.0041498 142.732312,17.3008863 127.864363,17.3008863 C66.7706081,17.3008863 17.03056,67.0409344 17.03056,128.134689 C17.03056,189.228444 66.7706081,238.968492 127.864363,238.968492 C188.958118,238.968492 238.698166,189.228444 238.698166,128.134689 C238.698166,115.159024 236.535555,102.18336 231.940007,90.018674 C230.318049,85.4231261 232.48066,80.5572519 237.076208,78.9352938 C241.671756,77.3133357 246.53763,79.4759465 248.159588,84.0714944 C253.295789,98.1284645 256,112.996414 256,128.134689 C256.269378,198.689866 198.689866,255.999052 128.134689,255.999052 Z" fill="#4E5E9E"></path>
        <path d="M184.092243,114.888698 L200.311824,181.929633 L175.4418,181.929633 L164.35842,135.703827 L184.092243,114.888698 Z M214.368794,45.9554792 L207.340309,84.8824734 L200.582151,78.1243147 L128.134689,157.059608 L94.3438956,120.024899 L79.4759465,181.929633 L54.335596,181.929633 L81.3682309,70.2848506 L128.134689,118.673267 L183.010938,60.5531021 L175.982453,53.7949433 L214.368794,45.9554792 Z" fill="#FDB933"></path>
    </g>
</svg>
