<?xml version="1.0" encoding="UTF-8" standalone="no"?>
<svg width="256px" height="203px" viewBox="0 0 256 203" version="1.1" xmlns="http://www.w3.org/2000/svg" xmlns:xlink="http://www.w3.org/1999/xlink" preserveAspectRatio="xMidYMid">
    <g>
        <path d="M256,29.8666667 L245.8752,29.8666667 C242.116267,29.8666667 236.8,35.2896 236.8,38.7605333 L236.8,164.586667 C236.8,168.061867 242.116267,172.8 245.8752,172.8 L256,172.8 L256,202.666667 L164.266667,202.666667 L164.266667,172.8 L183.466667,172.8 L183.466667,40.5333333 L182.525867,40.5333333 L137.6896,202.666667 L102.978133,202.666667 L58.72,40.5333333 L57.6,40.5333333 L57.6,172.8 L76.8,172.8 L76.8,202.666667 L0,202.666667 L0,172.8 L9.83466667,172.8 C13.8837333,172.8 19.2,168.061867 19.2,164.586667 L19.2,38.7605333 C19.2,35.2896 13.8837333,29.8666667 9.83466667,29.8666667 L0,29.8666667 L0,0 L96.0341333,0 L127.5648,117.333333 L128.433067,117.333333 L160.253867,0 L256,0 L256,29.8666667" fill="#1A1918"></path>
    </g>
</svg>