<?xml version="1.0" encoding="UTF-8"?>
<svg width="256px" height="277px" viewBox="0 0 256 277" version="1.1" xmlns="http://www.w3.org/2000/svg" preserveAspectRatio="xMidYMid">
    <title>Medusa</title>
    <defs>
        <linearGradient x1="-66.6972559%" y1="81.8702074%" x2="108.629506%" y2="34.4186803%" id="medusaLinearGradient-1">
            <stop stop-color="#592EE1" offset="26.5625%"></stop>
            <stop stop-color="#B836D9" offset="100%"></stop>
        </linearGradient>
    </defs>
    <g>
        <path d="M223.516603,44.823358 L161.173777,8.84957346 C140.775738,-2.94985782 115.780747,-2.94985782 95.3824043,8.84957346 L32.7517949,44.823358 C12.6410532,56.6227741 0,78.4949069 0,101.806259 L0,174.041066 C0,197.640201 12.6410532,219.224247 32.7517949,231.02336 L95.0952275,267.285565 C115.49357,279.084678 140.487651,279.084678 160.885994,267.285565 L223.229427,231.02336 C243.62777,219.224247 255.981222,197.640201 255.981222,174.041066 L255.981222,101.806259 C256.555575,78.4949069 243.914946,56.6227741 223.516603,44.823358 Z M128.134199,202.244733 C92.7966006,202.244733 64.0670996,173.465802 64.0670996,138.067554 C64.0670996,102.669002 92.7966006,73.8903751 128.134199,73.8903751 C163.471798,73.8903751 192.488779,102.669002 192.488779,138.067554 C192.488779,173.465802 163.758974,202.244733 128.134199,202.244733 Z" fill="url(#medusaLinearGradient-1)"></path>
    </g>
</svg>
