<?xml version="1.0" encoding="UTF-8" standalone="no"?>
<svg width="256px" height="256px" viewBox="0 0 256 256" version="1.1" xmlns="http://www.w3.org/2000/svg" xmlns:xlink="http://www.w3.org/1999/xlink" preserveAspectRatio="xMidYMid">
	<g>
		<path d="M254.2233,128 C254.2233,197.711 197.7113,254.223 128.0003,254.223 C58.2883,254.223 1.7763,197.711 1.7763,128 C1.7763,58.289 58.2883,1.777 128.0003,1.777 C197.7113,1.777 254.2233,58.289 254.2233,128" fill="#FEFEFE"></path>
		<path d="M128,0 C57.308,0 0,57.308 0,128 C0,198.692 57.308,256 128,256 C198.692,256 256,198.692 256,128 C256,57.308 198.692,0 128,0 M128,5.126 C144.59,5.126 160.681,8.374 175.827,14.78 C190.458,20.968 203.599,29.829 214.885,41.115 C226.171,52.401 235.032,65.542 241.22,80.173 C247.626,95.319 250.874,111.41 250.874,128 C250.874,144.59 247.626,160.681 241.22,175.826 C235.032,190.458 226.171,203.599 214.885,214.885 C203.599,226.171 190.458,235.032 175.827,241.22 C160.681,247.626 144.59,250.874 128,250.874 C111.41,250.874 95.319,247.626 80.173,241.22 C65.542,235.032 52.401,226.171 41.115,214.885 C29.829,203.599 20.968,190.458 14.78,175.826 C8.374,160.681 5.126,144.59 5.126,128 C5.126,111.41 8.374,95.319 14.78,80.173 C20.968,65.542 29.829,52.401 41.115,41.115 C52.401,29.829 65.542,20.968 80.173,14.78 C95.319,8.374 111.41,5.126 128,5.126 M96.7534,173.2163 L96.7534,73.0453 L113.6264,73.0453 L127.9364,119.1793 L142.5934,73.0453 L158.6924,73.0453 L158.6924,173.2163 L147.0524,173.2163 L147.0524,90.1323 L134.9044,129.6453 L121.2884,129.6453 L108.9274,90.1323 L108.9274,173.2163 L96.7534,173.2163 Z" fill="#474749"></path>
	</g>
</svg>
