<?xml version="1.0" encoding="UTF-8"?>
<svg width="256px" height="256px" viewBox="0 0 256 256" version="1.1" xmlns="http://www.w3.org/2000/svg" preserveAspectRatio="xMidYMid">
    <title>Messenger</title>
    <defs>
        <radialGradient cx="19.2474387%" cy="99.4651948%" fx="19.2474387%" fy="99.4651948%" r="108.959789%" id="messengerGradient-1">
            <stop stop-color="#0099FF" offset="0%"></stop>
            <stop stop-color="#A033FF" offset="60.9753877%"></stop>
            <stop stop-color="#FF5280" offset="93.482299%"></stop>
            <stop stop-color="#FF7061" offset="100%"></stop>
        </radialGradient>
    </defs>
    <g>
        <path d="M128,-1.8189894e-14 C55.89376,-1.8189894e-14 0,52.81792 0,124.16 C0,161.476608 15.29344,193.722368 40.199168,215.99488 C42.28992,217.86624 43.552,220.48768 43.63776,223.29344 L44.334848,246.06208 C44.557568,253.3248 52.059392,258.05056 58.705152,255.1168 L84.11136,243.90144 C86.265088,242.95168 88.6784,242.77504 90.94784,243.39968 C102.62272,246.60992 115.048448,248.32 128,248.32 C200.10624,248.32 256,195.50208 256,124.16 C256,52.81792 200.10624,-1.8189894e-14 128,-1.8189894e-14 Z" fill="url(#messengerGradient-1)"></path>
        <path d="M51.136512,160.470016 L88.736512,100.816896 C94.71744,91.326976 107.52512,88.964096 116.4992,95.694336 L146.404352,118.123264 C149.14816,120.181504 152.923392,120.170496 155.65568,118.096896 L196.044032,87.444736 C201.43488,83.353856 208.471552,89.805056 204.864,95.529984 L167.264,155.183616 C161.28256,164.673024 148.47488,167.036416 139.501312,160.305664 L109.595392,137.876224 C106.85184,135.818496 103.076352,135.829504 100.34432,137.903104 L59.955712,168.555264 C54.56512,172.645888 47.528192,166.194688 51.136512,160.470016 Z" fill="#FFFFFF"></path>
    </g>
</svg>
