<?xml version="1.0" encoding="UTF-8"?>
<svg width="256px" height="171px" viewBox="0 0 256 171" version="1.1" xmlns="http://www.w3.org/2000/svg" preserveAspectRatio="xMidYMid">
    <title>Meta</title>
    <defs>
        <linearGradient x1="13.8784354%" y1="55.9337491%" x2="89.143574%" y2="58.6936324%" id="linearGradient-1">
            <stop stop-color="#0064E1" offset="0%"></stop>
            <stop stop-color="#0064E1" offset="40%"></stop>
            <stop stop-color="#0073EE" offset="83%"></stop>
            <stop stop-color="#0082FB" offset="100%"></stop>
        </linearGradient>
        <linearGradient x1="54.3150272%" y1="82.782443%" x2="54.3150272%" y2="39.3067715%" id="linearGradient-2">
            <stop stop-color="#0082FB" offset="0%"></stop>
            <stop stop-color="#0064E0" offset="100%"></stop>
        </linearGradient>
    </defs>
    <g>
        <path d="M27.6511337,112.135763 C27.6511337,121.910697 29.7966337,129.415496 32.6009181,133.955766 C36.2776464,139.902629 41.7615802,142.422034 47.3523439,142.422034 C54.5633607,142.422034 61.1601057,140.632633 73.8728613,123.050216 C84.0573098,108.957574 96.0578662,89.1762415 104.132425,76.775073 L117.806649,55.7651968 C127.305606,41.1740159 138.300181,24.9536792 150.906107,13.9591042 C161.197385,4.98539435 172.29879,0 183.471415,0 C202.228961,0 220.096258,10.8699402 233.770483,31.2566421 C248.735568,53.5840868 256,81.7070524 256,110.72917 C256,127.982195 252.599249,140.659341 246.81263,150.674642 C241.221867,160.360551 230.325219,170.037557 211.994992,170.037557 L211.994992,142.422034 C227.690082,142.422034 231.607178,128 231.607178,111.494784 C231.607178,87.9744053 226.123244,61.8723049 214.042565,43.2215885 C205.469467,29.9924885 194.35916,21.9090277 182.136041,21.9090277 C168.915844,21.9090277 158.277368,31.8798164 146.321324,49.6580887 C139.964946,59.1036305 133.439421,70.61455 126.112672,83.6032828 L118.047016,97.8917791 C101.844485,126.620114 97.7404368,133.163444 89.639171,143.962164 C75.4396995,162.871053 63.3145083,170.037557 47.3523439,170.037557 C28.4167478,170.037557 16.4428989,161.838364 9.02712477,149.481708 C2.97343163,139.412992 0,126.201697 0,111.147587 L27.6511337,112.135763 Z" fill="#0081FB"></path>
        <path d="M21.8021978,33.2062874 C34.4793434,13.665322 52.7739602,0 73.7571289,0 C85.9090277,0 97.9897065,3.59660593 110.604535,13.8967868 C124.403394,25.1584365 139.110307,43.702323 157.458339,74.2645709 L164.037279,85.2324384 C179.919321,111.690638 188.955348,125.302546 194.243427,131.721241 C201.04493,139.964946 205.807762,142.422034 211.994992,142.422034 C227.690082,142.422034 231.607178,128 231.607178,111.494784 L256,110.72917 C256,127.982195 252.599249,140.659341 246.81263,150.674642 C241.221867,160.360551 230.325219,170.037557 211.994992,170.037557 C200.599805,170.037557 190.504382,167.562665 179.340659,157.03102 C170.758659,148.947559 160.725553,134.587843 153.007094,121.679232 L130.047573,83.3273056 C118.527751,64.0801224 107.960495,49.7293087 101.844485,43.230491 C95.2655446,36.2420364 86.8081792,27.802476 73.3120045,27.802476 C62.3886493,27.802476 53.1122548,35.4675198 45.3492836,47.192099 L21.8021978,33.2062874 Z" fill="url(#linearGradient-1)"></path>
        <path d="M73.3120045,27.802476 C62.3886493,27.802476 53.1122548,35.4675198 45.3492836,47.192099 C34.3725136,63.7596328 27.6511337,88.4373348 27.6511337,112.135763 C27.6511337,121.910697 29.7966337,129.415496 32.6009181,133.955766 L9.02712477,149.481708 C2.97343163,139.412992 0,126.201697 0,111.147587 C0,83.7724301 7.51370149,55.2399499 21.8021978,33.2062874 C34.4793434,13.665322 52.7739602,0 73.7571289,0 L73.3120045,27.802476 Z" fill="url(#linearGradient-2)"></path>
    </g>
</svg>
