<?xml version="1.0" encoding="UTF-8"?>
<svg width="256px" height="165px" viewBox="0 0 256 165" version="1.1" xmlns="http://www.w3.org/2000/svg" xmlns:xlink="http://www.w3.org/1999/xlink" preserveAspectRatio="xMidYMid">
    <title>OneDrive</title>
    <g>
				<path d="M154.66056,110.681557 L207.502052,60.1479482 C196.525811,17.3487078 152.932256,-8.44908883 110.132767,2.52715287 C90.8589801,7.46999082 74.1187452,19.4179992 63.179535,36.0386895 C63.9974594,36.0180612 154.66056,110.681557 154.66056,110.681557 Z" fill="#0364B8"></path>
				<path d="M97.6181022,45.5520619 L97.6156169,45.5607606 C87.5186874,39.307156 75.8741386,36.001658 63.9972108,36.0177537 C63.7228296,36.0177537 63.4531706,36.03521 63.1792865,36.0384409 C27.8517142,36.4761088 -0.432413365,65.4695515 0.00500592252,100.797124 C0.163570414,113.612018 4.16769663,126.083687 11.4981977,136.595916 L90.6631356,126.680913 L151.357298,77.7409022 L97.6181022,45.5520619 Z" fill="#0078D4"></path>
				<path d="M207.502052,60.1481967 C206.340406,60.0706542 205.173043,60.016946 203.992011,60.016946 C196.903085,60.010012 189.887973,61.4579693 183.381112,64.271122 L183.379621,64.2656543 L151.357547,77.7411507 L186.65952,121.347877 L249.770673,136.689364 C263.390071,111.405536 253.93411,79.8683506 228.650281,66.2489531 C222.117076,62.7297161 214.906119,60.6497377 207.502301,60.1484453 L207.502301,60.1481967 L207.502052,60.1481967 Z" fill="#1490DF"></path>
				<path d="M11.4981977,136.595916 C23.4514253,153.781772 43.063467,164.023845 63.9974594,164.012918 L203.991762,164.012918 C223.115435,164.018377 240.697951,153.524291 249.770425,136.689862 L151.357298,77.7409022 L11.4981977,136.595916 Z" fill="#28A8EA"></path>
		</g>
</svg>
