<?xml version="1.0" encoding="UTF-8"?>
<svg width="256px" height="256px" viewBox="0 0 256 256" version="1.1" xmlns="http://www.w3.org/2000/svg" preserveAspectRatio="xMidYMid">
    <title>Mida</title>
    <g>
        <path d="M128.316235,64.9648624 C189.389622,64.9648624 239.413919,111.442595 239.413919,168.878493 C239.413919,185.588644 225.203914,198.646075 207.296767,198.646075 C189.389622,198.646075 175.179617,185.070825 175.179617,168.878493 C175.179617,143.813265 154.125667,123.968211 127.79412,123.968211 C101.462572,123.968211 80.4086224,144.331084 80.4086224,168.878493 C80.4086224,198.632079 91.993939,226.832209 113.584115,248.244714 C116.436359,250.985828 119.27364,253.517186 122.13676,255.864181 C109.612683,255.303413 97.5576922,252.939096 86.2238162,249.027583 C81.0501709,242.816581 76.4882788,236.0536 70.6850079,225.774653 C61.2332636,209.646553 56.5003484,189.364457 56.5003484,167.521127 C56.5003484,130.595166 88.5602143,100.945669 127.973002,100.945669 C167.385789,100.945669 199.445655,130.581227 198.92447,166.991423 C198.92447,171.675123 202.615018,174.79759 206.812663,174.79759 C211.545578,174.79759 214.700855,171.145419 214.700855,166.991423 C214.700855,122.259294 175.809251,85.3333333 127.987088,85.3333333 C80.1649243,85.3333333 41.2733209,122.259294 40.7521368,167.521127 C40.7521368,191.95722 46.5415062,214.846018 57.0497048,233.566881 C57.3617303,234.107456 57.6709738,234.63977 57.9776695,235.164179 C42.9293422,225.313143 30.0846453,212.379014 20.338044,197.259443 C18.1197361,185.839628 17.7547783,176.447651 17.7547783,169.396312 C17.7547783,153.217973 20.915693,139.110911 26.7012957,126.585295 C44.6084416,88.9804569 84.6137677,64.9648624 128.316235,64.9648624 Z M128.83835,140.160544 C146.745496,140.160544 160.955501,153.735792 160.955501,169.928126 C160.955501,194.475534 182.009451,214.838407 208.340998,214.838407 C213.997652,214.838407 219.410749,213.898671 224.42388,212.179592 C217.159862,220.497555 208.834657,227.865822 199.661037,234.075355 C186.905391,233.299375 176.07664,229.67309 166.448263,223.213838 C147.717458,210.636805 136.783019,190.190344 136.783019,168.689942 C136.783019,163.968284 133.658894,160.820513 128.972706,160.820513 C124.286518,160.820513 121.162393,164.502281 121.162393,168.689942 C121.162393,195.431945 134.690971,220.600063 157.061941,235.804923 C163.444673,240.175 170.451547,243.53754 178.084208,245.829525 C167.955895,250.141132 157.156678,253.184309 145.887214,254.760108 C138.812228,250.438297 132.353286,245.234154 125.677436,238.854001 C106.726059,220.576398 96.7211997,196.042985 96.7211997,169.928126 C96.7211997,153.217973 110.931204,140.160544 128.83835,140.160544 L128.83835,140.160544 Z M56.5262035,44.8692648 C99.9308086,22.3655486 155.878883,22.3655486 199.802044,44.8692648 C219.485564,54.7279463 235.919763,68.7456516 249.116308,86.4902682 C253.579125,99.5062523 256,113.470413 256,128 C256,135.658508 255.327404,143.159923 254.038059,150.448397 C244.122375,93.9352488 191.796726,50.8717949 128.83835,50.8717949 C79.3502803,50.8717949 34.0673558,78.5541061 13.5355216,120.847303 C8.20736555,131.819055 4.79502489,144.377009 3.54486403,158.025889 C1.22636349,148.396242 0,138.341337 0,128 C0,113.814213 2.30766472,100.167409 6.56807465,87.4145091 C19.8843639,69.6670407 36.5333094,54.8761966 56.5262035,44.8692648 L56.5262035,44.8692648 Z M128,0 C164.159188,0 196.816454,14.9935037 220.093856,39.1025664 C215.924544,36.4656176 211.600729,34.0232755 207.117899,31.7795096 C159.018252,6.6522305 97.8425664,7.17133117 49.728905,31.7795096 C44.383833,34.5148938 39.2154496,37.5469186 34.2382609,40.8684178 C57.6071275,15.7269603 90.9669496,0 128,0 Z" fill="#E7D218"></path>
    </g>
</svg>
