<?xml version="1.0" encoding="UTF-8"?>
<svg width="256px" height="175" viewBox="0 0 256 175" version="1.1" xmlns="http://www.w3.org/2000/svg" xmlns:xlink="http://www.w3.org/1999/xlink" preserveAspectRatio="xMidYMid">
    <title>Milvus</title>
    <g>
        <path d="M57.9431044,25.5517397 C91.8889014,-8.51724657 146.934338,-8.51724657 180.880135,25.5517397 C214.880808,59.6206747 214.880808,114.856896 180.880135,148.87039 C146.934338,182.883372 91.8889014,182.883372 57.9431044,148.814488 L2.45984326,93.1310522 C-0.819947752,89.8359163 -0.819947752,84.530363 2.45984326,81.2347143 L57.9431044,25.5517397 Z M167.706259,41.9160253 C142.780159,16.8948409 102.329225,16.8948409 77.4031253,41.9160253 L36.6243193,82.7989422 C34.2191009,85.2560622 34.2191009,89.1656062 36.6243193,91.5673371 L77.4574886,132.506002 C102.384101,157.526981 142.834522,157.526981 167.761135,132.506002 C192.687747,107.485023 192.687747,66.9371584 167.706259,41.9160253 Z M122.880615,43.5356423 C146.519433,43.5356423 165.681994,63.1148009 165.681994,87.2669925 C165.681994,111.418671 146.519433,130.998189 122.880615,130.998189 C99.2423111,130.998189 80.07975,111.418671 80.07975,87.2669925 C80.07975,63.1148009 99.2423111,43.5356423 122.880615,43.5356423 Z M253.581345,81.2901034 L229.147079,56.325026 C227.671063,54.8167001 225.210866,56.2132222 225.703213,58.2795416 C229.912269,77.3246574 229.912269,97.2077891 225.703213,116.252905 C225.265742,118.319224 227.725427,119.659332 229.147079,118.20742 L253.581345,93.2423431 C256.61652,90.0884253 256.79506,85.2027175 254.116964,81.8916654 L253.581345,81.2901034 Z" fill="#4FC4F9"></path>
    </g>
</svg>
