<?xml version="1.0" encoding="UTF-8"?>
<svg width="512px" height="188px" viewBox="0 0 512 188" version="1.1" xmlns="http://www.w3.org/2000/svg" preserveAspectRatio="xMidYMid">
    <title>Miro</title>
    <g>
        <path d="M387.72895,95.3570776 L387.72895,136.719196 L404.672877,136.719196 L404.672877,97.8931142 C404.672877,80.6008402 428.211434,80.5727854 428.211434,80.5727854 L428.211434,63.7445845 L426.493291,63.8505937 C424.192623,64.0170113 419.988118,64.4069176 416.430174,65.2075251 L414.330515,65.7091047 C400.387536,69.2444362 387.72895,76.729028 387.72895,95.3570776 Z M260.001315,62.9082009 C266.60179,62.9082009 274.849315,66.642411 279.339251,73.2107397 C283.988749,67.2374064 291.634265,63.2056986 301.081132,63.0525662 C313.081571,62.8988493 327.920219,70.3678539 327.920219,92.7696073 L327.920219,136.667763 L310.972201,136.667763 L310.972201,92.7696073 C310.972201,85.3011872 305.571653,79.9316164 297.487196,79.9316164 C289.40274,79.9316164 283.997516,85.3011872 283.997516,92.7696073 L283.997516,136.667763 L267.054174,136.667763 L267.054174,92.7696073 C267.054174,85.3011872 261.658301,79.9316164 253.565078,79.9316164 C245.471269,79.9316164 239.92168,85.3011872 239.92168,92.7696073 L239.92168,136.667763 L222.100457,136.667763 L222.100457,65.1332968 L239.92168,65.1332968 L239.92168,72.3188311 C244.457498,66.8219746 250.987951,63.3140195 258.647447,62.9412123 L260.001315,62.9082009 Z M366.884237,66.0439087 L366.884237,136.719781 L349.650995,136.719781 L349.650995,66.0439087 L366.884237,66.0439087 Z M358.265571,54.7989041 C363.578447,54.7989041 367.886027,50.5129498 367.886027,45.2259068 C367.886027,39.9389224 363.578447,35.652968 358.265571,35.652968 C352.952694,35.652968 348.645699,39.9389224 348.645699,45.2259068 C348.645699,50.5129498 352.952694,54.7989041 358.265571,54.7989041 Z M474.224804,62.7550685 C453.360804,62.7550685 436.449607,79.5832694 436.449607,100.345571 C436.449607,121.107872 453.360804,137.936073 474.224804,137.936073 C495.089388,137.936073 512,121.107872 512,100.345571 C512,79.5832694 495.089388,62.7550685 474.224804,62.7550685 Z M474.224804,121.033644 C462.416073,121.033644 452.837699,111.507288 452.837699,99.7511598 C452.837699,87.995032 462.411397,78.4686758 474.224804,78.4686758 C486.038795,78.4686758 495.611909,87.995032 495.611909,99.7511598 C495.611909,111.507288 486.038795,121.033644 474.224804,121.033644 Z" fill="#000000"></path>
        <path d="M0,46.7579909 C0,20.9342539 20.9342539,0 46.7579909,0 L140.273973,0 C166.097826,0 187.031963,20.9342539 187.031963,46.7579909 L187.031963,140.273973 C187.031963,166.097826 166.097826,187.031963 140.273973,187.031963 L46.7579909,187.031963 C20.9342539,187.031963 0,166.097826 0,140.273973 L0,46.7579909 Z" fill="#FFDD33"></path>
        <polygon fill="#000000" points="124.343525 35.652968 107.365114 35.652968 121.513498 60.5118539 90.3867032 35.652968 73.4088767 35.652968 88.972274 66.036895 56.4303489 35.652968 39.4520548 35.652968 56.4303489 74.3282557 39.4520548 151.671233 56.4303489 151.671233 88.972274 68.8032146 73.4088767 151.671233 90.3867032 151.671233 121.513498 63.2781735 107.365114 151.671233 124.343525 151.671233 155.47032 54.9869881"></polygon>
    </g>
</svg>
