<?xml version="1.0" encoding="UTF-8"?>
<svg width="256px" height="256px" viewBox="0 0 256 256" version="1.1" xmlns="http://www.w3.org/2000/svg" xmlns:xlink="http://www.w3.org/1999/xlink" preserveAspectRatio="xMidYMid">
    <defs>
        <linearGradient x1="253.534265%" y1="253.574524%" x2="-6.88643761%" y2="-0.903816157%" id="linearGradient-1">
            <stop stop-color="#FFFFFF" offset="0%"></stop>
            <stop stop-color="#C2C1C1" offset="100%"></stop>
        </linearGradient>
        <linearGradient x1="209.797498%" y1="223.26287%" x2="-1.08323776%" y2="-3.11269467%" id="linearGradient-2">
            <stop stop-color="#FFFFFF" offset="0%"></stop>
            <stop stop-color="#A2A2A1" offset="100%"></stop>
        </linearGradient>
        <linearGradient x1="271.963921%" y1="334.363466%" x2="7.71592988%" y2="-9.06302352%" id="linearGradient-3">
            <stop stop-color="#FFFFFF" offset="0%"></stop>
            <stop stop-color="#B3B3B3" offset="100%"></stop>
        </linearGradient>
    </defs>
	<g>
		<circle fill="#E9E9E9" cx="128" cy="128" r="128"></circle>
		<path d="M166.056376,207.91795 C92.0053691,201.904527 128.42953,197.781037 21.7342282,175.789091 C51.114094,198.468285 98.8778523,254.650836 166.056376,207.91795 L166.056376,207.91795 Z" fill="url(#linearGradient-1)"></path>
		<path d="M242.34094,118.060232 C172.069799,104.143453 103.173154,56.2078827 30.8402685,71.67097 C29.809396,72.0145941 28.6067114,72.1864062 29.1221477,72.7018425 C75.3395973,80.7770103 172.241611,150.017279 242.34094,118.060232 Z" fill="url(#linearGradient-2)"></path>
		<path d="M223.097987,183.692446 C186.158389,175.789091 105.234899,114.108554 14.3463087,138.849493 C93.895302,157.061574 165.54094,201.389091 223.097987,183.692446 Z" fill="url(#linearGradient-3)"></path>
		<path d="M235.296644,81.8078827 C194.233557,51.5689566 142.689933,-3.06728505 95.6134228,47.2736545 C152.998658,54.3179499 160.558389,63.7676143 235.296644,81.8078827 Z" fill="#A4A4A4"></path>
		<path d="M20.8751678,175.445467 C105.922148,175.617279 154.544966,110.672312 242.34094,118.060232 C172.241611,153.968957 86.5073826,221.834728 20.8751678,175.445467 Z" fill="#121212"></path>
		<path d="M235.124832,81.8078827 C149.390604,74.9353995 104.719463,144.175668 13.6590604,139.193118 C48.1932886,123.558218 150.077852,31.6387552 235.124832,81.8078827 Z" fill="#171717"></path>
		<path d="M172.241611,36.6213056 C123.103356,34.9031848 73.1060403,78.5434532 28.7785235,72.8736545 C60.7355705,53.4588894 120.010738,4.4924465 172.241611,36.6213056 Z" fill="#212121"></path>
		<path d="M84.1020134,219.944795 C135.130201,219.772983 177.911409,174.93003 224.128859,183.692446 C186.330201,205.340769 140.284564,250.01191 84.1020134,219.944795 Z" fill="#010101"></path>
	</g>
</svg>
