<?xml version="1.0" encoding="UTF-8"?>
<svg width="256px" height="285px" viewBox="0 0 256 285" version="1.1" xmlns="http://www.w3.org/2000/svg" xmlns:xlink="http://www.w3.org/1999/xlink" preserveAspectRatio="xMidYMid">
    <title>MCP - Model Context Protocol</title>
    <g>
        <path d="M184.912588,14.4984503 C196.363516,25.9487671 201.031836,41.6132025 198.917593,56.499546 C213.803648,54.3850952 229.469497,59.054364 240.923381,70.5077614 L241.500743,71.085945 C260.833056,90.4174329 260.833056,121.760183 241.500921,141.091287 L140.199441,242.393592 C138.910969,243.681981 138.910969,245.770603 140.199887,247.059438 L161.000619,267.861491 C164.866781,271.727898 164.866582,277.996382 161.000175,281.862544 C157.133769,285.728705 150.865284,285.728506 146.999123,281.862099 L126.198836,261.060493 C117.177199,252.039433 117.177199,237.413151 126.198584,228.392344 L227.500027,127.090076 C239.099324,115.491398 239.099324,96.6861357 227.494887,85.0821908 L226.917525,84.5040072 C215.462946,73.0499167 196.981217,72.9067406 185.351143,84.0742949 L184.912802,84.5038305 L100.323674,169.093619 C96.4574047,172.959918 90.1889199,172.959943 86.3226209,169.093674 C82.456322,165.227405 82.4562975,158.95892 86.3225663,155.092621 L170.911872,70.5026559 C182.511206,58.9038165 182.511206,40.0985546 170.911498,28.4994655 C159.313616,16.900841 140.508239,16.900841 128.909262,28.4996948 L16.9007603,140.508031 C13.0344736,144.374312 6.76598883,144.374308 2.89970777,140.508021 C-0.966573285,136.641734 -0.966568668,130.373249 2.89971809,126.506968 L114.908252,14.4985997 C134.239899,-4.83284167 165.582534,-4.83284167 184.912588,14.4984503 Z M156.911612,42.5006526 C160.777889,46.3669442 160.777876,52.6354289 156.911585,56.5017051 L74.0716022,139.341358 C62.4729435,150.939769 62.4729435,169.745376 74.0714528,181.344504 C85.6703838,192.942693 104.476251,192.942693 116.074944,181.344742 L198.914535,98.5048208 C202.780811,94.6385292 209.049296,94.6385167 212.915588,98.5047929 C216.781879,102.371069 216.781892,108.639554 212.915616,112.505845 L130.075786,195.346005 C110.74439,214.676164 79.4022447,214.676164 60.0704376,195.345594 C40.7393604,176.013486 40.7393604,144.671082 60.0706383,125.340216 L142.91056,42.5006247 C146.776851,38.6343485 153.045336,38.634361 156.911612,42.5006526 Z" fill="#000000"></path>
    </g>
</svg>
