<?xml version="1.0" encoding="UTF-8" standalone="no"?>
<svg width="512px" height="118px" viewBox="0 0 512 118" version="1.1" xmlns="http://www.w3.org/2000/svg" xmlns:xlink="http://www.w3.org/1999/xlink" preserveAspectRatio="xMidYMid">
	<g>
		<path d="M56.861,45.343 L20.609,21.754 L20.609,95.748 L34.018,95.748 L34.018,75.884 L56.861,61.482 L80.202,46.833 L80.202,95.748 L94.603,95.748 L94.603,21.754 L56.861,45.343" fill="#C7C8C9"></path>
		<path fill="#424243"></path>
		<path fill="#424243"></path>
		<path d="M20.609,68.26 L34.018,59.744 L20.609,53.04 L20.609,68.26" fill="#E55425"></path>
		<path d="M56.861,45.343 L34.018,59.744 L34.018,75.884 L56.861,61.482 L56.861,45.343" fill="#40403E"></path>
		<path d="M163.135,62.972 L179.026,36.652 L184.985,36.652 L184.985,80.602 L176.543,80.602 L176.543,56.268 L166.114,73.401 L160.155,73.401 L149.727,56.268 L149.727,80.602 L141.284,80.602 L141.284,36.9 L147.243,36.9 L163.135,62.972" fill="#C7C8C9"></path>
		<path d="M221.238,36.156 C234.894,36.156 244.081,46.336 244.081,58.751 C244.081,71.166 234.646,81.347 221.238,81.347 C207.581,81.347 198.394,71.166 198.394,58.751 C198.394,46.336 207.581,36.156 221.238,36.156 L221.238,36.156 Z M221.238,73.898 C229.432,73.898 235.639,67.193 235.639,58.751 C235.639,50.557 229.432,43.605 221.238,43.605 C213.044,43.605 206.836,50.309 206.836,58.751 C206.836,66.945 212.795,73.898 221.238,73.898 L221.238,73.898 Z" fill="#C7C8C9"></path>
		<path d="M270.898,36.9 C277.851,36.9 282.32,38.39 286.045,41.122 C291.507,45.094 294.735,51.55 294.735,58.999 C294.735,66.2 291.507,72.904 286.045,76.877 C282.568,79.609 277.851,81.098 270.898,81.098 L256.993,81.098 L256.993,36.9 L270.898,36.9 L270.898,36.9 Z M283.065,49.316 C280.582,46.336 277.106,44.35 271.891,44.35 L265.684,44.35 L265.684,73.153 L271.891,73.153 C277.106,73.153 280.582,71.415 283.065,68.187 C285.051,65.704 286.293,62.227 286.293,58.751 C286.293,55.027 285.051,51.799 283.065,49.316 L283.065,49.316 Z" fill="#C7C8C9"></path>
		<path d="M313.606,76.877 C309.882,73.649 307.895,68.932 307.895,62.227 L307.895,36.9 L316.338,36.9 L316.338,62.972 C316.338,66.945 317.331,69.428 319.317,71.166 C321.304,72.904 323.787,73.898 326.766,73.898 C329.746,73.898 332.229,72.904 334.215,71.166 C335.953,69.428 337.195,66.945 337.195,62.972 L337.195,36.9 L345.637,36.9 L345.637,62.227 C345.637,68.932 343.651,73.649 339.926,76.877 C336.45,79.857 331.732,81.347 326.766,81.347 C321.8,81.347 317.082,79.857 313.606,76.877" fill="#C7C8C9"></path>
		<path d="M361.529,36.9 L369.971,36.9 L369.971,73.153 L388.345,73.153 L388.345,80.602 L361.28,80.602 L361.28,36.9 L361.529,36.9" fill="#C7C8C9"></path>
		<path d="M404.733,76.877 C401.009,73.649 399.022,68.932 399.022,62.227 L399.022,36.9 L407.465,36.9 L407.465,62.972 C407.465,66.945 408.458,69.428 410.444,71.166 C412.431,72.904 414.914,73.898 417.893,73.898 C420.873,73.898 423.356,72.904 425.342,71.166 C427.08,69.428 428.322,66.945 428.322,62.972 L428.322,36.9 L436.764,36.9 L436.764,62.227 C436.764,68.932 434.778,73.649 431.053,76.877 C427.577,79.857 422.859,81.347 417.893,81.347 C412.927,81.347 408.21,79.857 404.733,76.877" fill="#C7C8C9"></path>
		<path d="M453.897,68.932 C456.38,71.663 460.105,73.649 464.326,73.649 C468.05,73.649 470.782,71.415 470.782,68.187 C470.782,62.476 462.588,61.979 456.629,58.503 C453.152,56.516 450.421,53.537 450.421,48.571 C450.421,40.625 457.622,36.156 464.823,36.156 C469.292,36.156 473.513,37.149 477.486,40.377 L473.017,46.584 C471.278,44.846 468.299,43.605 465.319,43.605 C462.091,43.605 458.615,45.094 458.615,48.322 C458.615,55.523 478.976,53.288 478.976,67.938 C478.976,75.636 472.023,81.098 464.078,81.098 C458.118,81.098 452.656,78.615 448.186,74.642 L453.897,68.932" fill="#C7C8C9"></path>
		<path d="M511.503,0.4 L0,0.4 L0,117.102 L512,117.102 L512,0.4 L511.503,0.4 L511.503,0.4 Z M8.939,9.339 L108.508,9.339 L108.508,108.163 L8.939,108.163 L8.939,9.339 Z M117.447,9.339 L503.061,9.339 L503.061,108.163 L117.447,108.163 L117.447,9.339 Z" fill="#C7C8C9"></path>
	</g>
</svg>