<?xml version="1.0" encoding="UTF-8"?>
<svg width="512px" height="141px" viewBox="0 0 512 141" version="1.1" xmlns="http://www.w3.org/2000/svg" xmlns:xlink="http://www.w3.org/1999/xlink" preserveAspectRatio="xMidYMid">
    <g>
        <g>
            <polygon fill="#00B5DE" points="132.503437 13.2103125 66.0515625 13.2103125 56.844375 27.6215625 104.881875 57.2446875 104.881875 57.2446875 104.881875 57.2446875"></polygon>
            <polygon fill="#00DECC" points="56.844375 27.6215625 12.4096875 0 12.4096875 66.451875 28.021875 75.25875 104.881875 57.2446875 104.881875 57.2446875"></polygon>
            <polygon fill="#FF5529" points="119.293125 70.8553125 104.881875 62.0484375 75.25875 109.685625 119.293125 137.307187"></polygon>
            <polygon fill="#FF9640" points="104.881875 62.0484375 104.881875 62.0484375 104.881875 62.0484375 27.6215625 80.4628125 0 123.696562 66.451875 123.696562 75.25875 109.685625"></polygon>
        </g>
        <path d="M310.242187,35.2275 C332.259375,35.2275 348.672187,50.439375 348.672187,71.6559375 C348.672187,92.8725 332.259375,108.084375 310.242187,108.084375 C288.225,108.084375 271.812187,92.4721875 271.812187,71.6559375 C271.812187,50.8396875 288.225,35.2275 310.242187,35.2275 Z M190.148437,36.4284375 L216.16875,80.0625 L242.189062,36.4284375 L255.399375,36.4284375 L255.799687,106.483125 L240.1875,106.483125 L240.1875,64.850625 L219.37125,99.6778125 L212.165625,99.6778125 L191.749687,66.0515625 L191.749687,107.28375 L176.537812,107.28375 L176.537812,36.4284375 L190.148437,36.4284375 Z M460.759687,36.82875 L476.772187,59.6465625 L492.784687,36.82875 L510.398437,36.82875 L485.979375,70.8553125 L511.999687,107.28375 L493.585312,107.28375 L493.585312,106.883437 L476.772187,82.464375 L459.959062,106.883438 L441.144375,106.883438 L467.164687,71.255625 L442.345312,36.82875 L460.759687,36.82875 Z M397.11,36.4284375 C419.927813,36.4284375 435.940313,50.439375 435.940313,71.6559375 C435.940313,92.8725 420.328125,106.883437 397.11,106.883437 L365.085,106.883437 L365.085,36.4284375 L397.11,36.4284375 Z M310.242187,49.2384375 C297.8325,49.2384375 288.225,58.445625 288.225,71.6559375 C288.225,84.86625 297.8325,94.0734375 310.242187,94.0734375 C322.651875,94.0734375 332.259375,84.86625 332.259375,71.6559375 C332.259375,58.445625 322.651875,49.2384375 310.242187,49.2384375 Z M396.309375,50.0390625 L381.497813,50.0390625 L381.497813,93.673125 L396.309375,93.673125 L396.309375,93.2728125 C410.320312,93.2728125 419.5275,84.86625 419.5275,71.6559375 C419.5275,58.0453125 410.320312,50.0390625 396.309375,50.0390625 Z" fill="#102C53"></path>
    </g>
</svg>