<?xml version="1.0" encoding="UTF-8"?>
<svg width="256px" height="291px" viewBox="0 0 256 291" version="1.1" xmlns="http://www.w3.org/2000/svg" xmlns:xlink="http://www.w3.org/1999/xlink" preserveAspectRatio="xMidYMid">
    <defs>
        <linearGradient x1="38.0785947%" y1="8.52777764%" x2="53.2429642%" y2="60.7677321%" id="linearGradient-1">
            <stop stop-color="#E67417" offset="1.093%"></stop>
            <stop stop-color="#E62F17" offset="99.952%"></stop>
        </linearGradient>
        <linearGradient x1="49.9974855%" y1="0.659475043%" x2="49.9974855%" y2="97.2760076%" id="linearGradient-2">
            <stop stop-color="#F2BB30" offset="0%"></stop>
            <stop stop-color="#E67417" offset="30.905%"></stop>
            <stop stop-color="#E62F17" offset="100%"></stop>
        </linearGradient>
        <linearGradient x1="41.2588189%" y1="84.7879279%" x2="55.3187109%" y2="36.661925%" id="linearGradient-3">
            <stop stop-color="#FFFFFF" offset="0%"></stop>
            <stop stop-color="#FFFFFF" stop-opacity="0" offset="100%"></stop>
        </linearGradient>
    </defs>
    <g>
        <path d="M247.127994,71.95317 L132.111067,5.54883681 C129.566353,4.08299551 126.433647,4.08299551 123.888933,5.54883681 L8.87202178,71.95317 C6.32826642,73.4235213 4.76137718,76.1386516 4.76137718,79.0767843 L4.76137718,211.885451 C4.76137718,214.822658 6.32849066,217.536719 8.87202178,219.005607 L123.888933,285.409941 C126.433642,286.875801 129.566358,286.875801 132.111067,285.409941 L247.127994,219.005607 C249.671517,217.536713 251.238623,214.822653 251.238623,211.885451 L251.238623,79.0767843 C251.238623,76.1386556 249.671741,73.4235277 247.127994,71.95317 L247.127994,71.95317 Z" fill="#FFFFFF"></path>
        <path d="M248.500025,67.2448489 L135.505454,2.00767281 C130.860445,-0.669224269 125.14123,-0.669224269 120.496221,2.00767281 L7.50504665,67.241483 C2.86829152,69.9325851 0.0104038719,74.8844914 0,80.2455939 L0,210.713214 C0.00901482423,216.074022 2.8678266,221.025678 7.50589199,223.713929 L120.494531,288.947739 C125.138333,291.629143 130.859961,291.629143 135.503763,288.947739 L248.494953,223.713929 C253.132546,221.025317 255.990959,216.073794 256,210.713214 L256,80.2455939 C255.990204,74.8865335 253.134345,69.9360772 248.500025,67.2448489 Z M249.066262,210.713245 C249.066262,213.598673 247.52678,216.264891 245.028092,217.707893 L132.038593,282.941703 C129.53874,284.381725 126.461244,284.381725 123.961392,282.941703 L10.9719079,217.707893 C8.47321212,216.264897 6.93372248,213.598677 6.93372248,210.713245 L6.93372248,80.2456247 C6.93372248,77.359283 8.47299184,74.6920129 10.9719079,73.2475798 L123.961392,8.01376967 C126.46125,6.57376706 129.538735,6.57376706 132.038593,8.01376967 L245.028092,73.2475798 C247.527,74.6920191 249.066262,77.359287 249.066262,80.2456247 L249.066262,210.713245 Z" fill="#999999"></path>
        <g transform="translate(22.227545, 81.620000)">
                <path d="M4.6023518,126.725205 C1.76948656,125.089661 0.0243629173,122.06704 0.0243513217,118.795935 L0.0243513217,52.7326055 C-0.182813691,45.1441531 0.933145746,37.5775929 3.32221384,30.3720479 C7.16481982,20.0000929 14.7646014,9.85327995 29.829159,3.869073 C58.6938028,-7.59704436 87.2226114,7.90571779 103.339651,30.8874203 C116.872807,50.184685 124.771159,57.8571583 141.788398,70.8847377 C156.856804,82.4203276 204.113821,103.166798 211.261157,61.8434922 L211.261157,118.795981 C211.261157,122.067084 209.516034,125.089705 206.683172,126.725251 L110.220716,182.417883 C107.387858,184.053431 103.897635,184.053431 101.064777,182.417883 L4.6023518,126.725205 Z" fill="url(#linearGradient-1)"></path>
                <path d="M4.6023518,126.725205 L101.064807,182.417837 C103.897666,184.053385 107.387889,184.053385 110.220747,182.417837 L206.683203,126.725205 C209.516064,125.089659 211.261188,122.067038 211.261188,118.795935 L211.261188,61.8434462 C211.261188,19.6577274 164.207207,16.174901 139.956757,49.7025005 C120.735832,76.2764502 112.222161,85.7908359 86.4924596,95.1471607 C56.3803599,106.097016 29.3525084,100.159426 13.9815173,85.1225992 C5.19067427,76.622814 0.164984145,64.959834 0.0243513217,52.7325901 L0.0243513217,118.795919 C0.0243513217,122.06703 1.76948182,125.089658 4.6023518,126.725205 L4.6023518,126.725205 Z" fill="url(#linearGradient-2)"></path>
                <path d="M211.261142,61.8434462 C211.261142,19.6577734 164.207161,16.1748704 139.956588,49.7025005 C136.619682,54.3160344 133.60975,58.4051516 130.772105,62.0786902 C134.046606,64.8601686 137.64595,67.7134649 141.788352,70.8846917 C156.856804,82.4202663 204.11379,103.166767 211.261142,61.8434462 Z" fill="url(#linearGradient-3)" opacity="0.3"></path>
        </g>
	</g>
</svg>
