<?xml version="1.0" encoding="UTF-8"?>
<svg width="256px" height="214px" viewBox="0 0 256 214" version="1.1" xmlns="http://www.w3.org/2000/svg" xmlns:xlink="http://www.w3.org/1999/xlink" preserveAspectRatio="xMidYMid">
    <g>
        <path d="M256,106.654043 L256,159.96213 L170.666667,213.28284 L170.666667,159.96213 L256,106.654043 Z M170.666667,106.654043 L170.666667,159.96213 L85.3333333,213.28284 L85.3333333,159.96213 L170.666667,106.654043 Z M85.3333333,106.654043 L85.3333333,159.96213 L0,213.28284 L0,159.96213 L85.3333333,106.654043 Z M256,0 L256,53.3207101 L170.666667,106.64142 L170.666667,53.3207101 L256,0 Z M170.666667,0 L170.666667,53.3207101 L85.3333333,106.64142 L85.3333333,53.3207101 L170.666667,0 Z M85.3333333,0 L85.3333333,53.3207101 L0,106.64142 L0,53.3207101 L85.3333333,0 Z" fill="#000000"></path>
    </g>
</svg>