<?xml version="1.0" encoding="UTF-8"?>
<svg width="512px" height="143px" viewBox="0 0 512 143" version="1.1" xmlns="http://www.w3.org/2000/svg" xmlns:xlink="http://www.w3.org/1999/xlink" preserveAspectRatio="xMidYMid">
    <title>n8n</title>
    <g>
        <path d="M242.48207,57.0546048 C229.189239,57.0546048 218.0208,47.9631318 214.853378,35.659128 L182.156632,35.659128 C175.184381,35.659128 169.233764,40.7000806 168.087323,47.5778349 L166.915029,54.6126677 C165.801573,61.2918898 162.422871,67.1049517 157.644547,71.318256 C162.422871,75.5315602 165.801573,81.3446221 166.915029,88.0238443 L168.087323,95.0583204 C169.233764,101.936075 175.184381,106.977384 182.156632,106.977384 L186.326076,106.977384 C189.493498,94.6732019 200.661936,85.5819072 213.954768,85.5819072 C229.709862,85.5819072 242.48207,98.3541153 242.48207,114.10921 C242.48207,129.864304 229.709862,142.636512 213.954768,142.636512 C200.661936,142.636512 189.492606,133.545217 186.326076,121.241035 L182.156632,121.241035 C168.211239,121.241035 156.310005,111.159308 154.017123,97.4037996 L152.844829,90.3691451 C151.698388,83.4910342 145.747771,78.4500816 138.77552,78.4500816 L127.474251,78.4500816 C124.30772,90.7542637 113.13839,99.8455584 99.8455584,99.8455584 C86.5529944,99.8455584 75.3838423,90.7542637 72.2169551,78.4500816 L56.1559056,78.4500816 C52.9890185,90.7542637 41.8198664,99.8455584 28.5273024,99.8455584 C12.772119,99.8455584 0,87.0734393 0,71.318256 C0,55.5630726 12.772119,42.7909536 28.5273024,42.7909536 C41.8198664,42.7909536 52.9890185,51.8824266 56.1559056,64.1864304 L72.2169551,64.1864304 C75.3838423,51.8824266 86.5529944,42.7909536 99.8455584,42.7909536 C113.13839,42.7909536 124.30772,51.8824266 127.474251,64.1864304 L138.77552,64.1864304 C145.747771,64.1864304 151.698388,59.1454778 152.844829,52.2677234 L154.017123,45.2328907 C156.310005,31.477382 168.211239,21.3954768 182.156632,21.3954768 L214.853378,21.3954768 C218.019909,9.09147298 229.189239,0 242.48207,0 C258.237165,0 271.009373,12.772119 271.009373,28.5273024 C271.009373,44.2824858 258.237165,57.0546048 242.48207,57.0546048 Z M242.48207,42.7909536 C250.360063,42.7909536 256.745722,36.4049386 256.745722,28.5273024 C256.745722,20.6496661 250.360063,14.2636512 242.48207,14.2636512 C234.604077,14.2636512 228.218419,20.6496661 228.218419,28.5273024 C228.218419,36.4049386 234.604077,42.7909536 242.48207,42.7909536 Z M28.5273024,85.5819072 C36.4049386,85.5819072 42.7909536,79.1958922 42.7909536,71.318256 C42.7909536,63.4406197 36.4049386,57.0546048 28.5273024,57.0546048 C20.6496661,57.0546048 14.2636512,63.4406197 14.2636512,71.318256 C14.2636512,79.1958922 20.6496661,85.5819072 28.5273024,85.5819072 Z M114.10921,71.318256 C114.10921,79.1958922 107.723551,85.5819072 99.8455584,85.5819072 C91.9675655,85.5819072 85.5819072,79.1958922 85.5819072,71.318256 C85.5819072,63.4406197 91.9675655,57.0546048 99.8455584,57.0546048 C107.723551,57.0546048 114.10921,63.4406197 114.10921,71.318256 Z M228.218419,114.10921 C228.218419,121.987202 221.832761,128.372861 213.954768,128.372861 C206.076775,128.372861 199.691117,121.987202 199.691117,114.10921 C199.691117,106.231217 206.076775,99.8455584 213.954768,99.8455584 C221.832761,99.8455584 228.218419,106.231217 228.218419,114.10921 Z" fill="#EA4B71"></path>
        <path d="M427.93004,61.6754929 L427.93004,60.9958299 L428.396412,60.7567851 C433.212481,58.2302823 437.883394,53.9329629 437.883394,45.7017191 C437.883394,33.4665374 427.816822,26.1027491 413.904413,26.1027491 C399.653243,26.1027491 389.473453,33.9196757 389.473453,45.9283328 C389.473453,54.08518 394.224141,58.5034352 399.426807,60.9958299 L399.426807,61.6754929 C393.658052,63.7147493 386.758902,69.8323401 386.758902,80.0283546 C386.758902,92.376754 396.938692,100.98665 413.791196,100.98665 C430.644591,100.98665 440.484727,92.376754 440.484727,80.0283546 C440.484727,69.8323401 433.698795,63.8280561 427.93004,61.6754929 Z M413.791196,36.5253774 C419.446733,36.5253774 423.632223,40.1505735 423.632223,46.2681643 C423.632223,52.3858443 419.333516,56.0110404 413.791196,56.0110404 C408.248876,56.0110404 403.611406,52.3858443 403.611406,46.2681643 C403.611406,40.0372666 408.023332,36.5253774 413.791196,36.5253774 Z M413.791196,90.1115079 C407.230808,90.1115079 401.914923,85.9194208 401.914923,78.7822464 C401.914923,72.3247349 406.325957,67.4532522 413.677978,67.4532522 C420.916781,67.4532522 425.328706,72.211428 425.328706,79.008771 C425.328706,85.9194208 420.238366,90.1115079 413.791196,90.1115079 Z M457.934522,99.8535817 L472.412128,99.8535817 L472.412128,69.152588 C472.412128,59.0698804 478.519645,54.6516253 485.419686,54.6516253 C492.205618,54.6516253 497.522394,59.1831873 497.522394,68.472925 L497.522394,99.8535817 L512,99.8535817 L512,65.5273919 C512,50.6865086 503.403476,42.076523 489.943938,42.076523 C481.460631,42.076523 476.709944,45.4751944 473.316978,49.8934496 L472.412128,49.8934496 L471.167624,43.2094135 L457.934522,43.2094135 L457.934522,99.8535817 Z M329.775616,99.8535817 L315.29801,99.8535817 L315.29801,43.2094135 L328.531112,43.2094135 L329.775616,49.8934496 L330.680466,49.8934496 C334.073432,45.4751944 338.824119,42.076523 347.307426,42.076523 C360.766964,42.076523 369.363488,50.6865086 369.363488,65.5273919 L369.363488,99.8535817 L354.885882,99.8535817 L354.885882,68.472925 C354.885882,59.1831873 349.569106,54.6516253 342.783174,54.6516253 C335.883133,54.6516253 329.775616,59.0698804 329.775616,69.152588 L329.775616,99.8535817 Z" fill="#040506"></path>
    </g>
</svg>
