<?xml version="1.0" encoding="UTF-8" standalone="no" ?>
<svg width="256px" height="54px" viewBox="0 0 256 54" version="1.1" xmlns="http://www.w3.org/2000/svg" xmlns:xlink="http://www.w3.org/1999/xlink" preserveAspectRatio="xMinYMin meet">
    <g fill="#009900">
        <path d="M48.0871567,53.5753021 C46.6423595,53.5753021 45.21979,53.0129426 44.1573084,51.9482382 L11.2715018,19.0602089 L11.2715018,48.0183899 C11.2715018,51.0880282 8.78422792,53.5753021 5.71458961,53.5753021 C2.64717406,53.5753021 0.157677384,51.0880282 0.157677384,48.0183899 L0.157677384,5.64360005 C0.157677384,3.39416199 1.51356397,1.36922317 3.58962637,0.50901316 C5.66346602,-0.353419617 8.05516104,0.122252069 9.64443793,1.71375173 L42.5302445,34.601781 L42.5302445,5.64360005 C42.5302445,2.57396174 45.0175184,0.0866878307 48.0871567,0.0866878307 C51.156795,0.0866878307 53.6440689,2.57396174 53.6440689,5.64360005 L53.6440689,48.0183899 C53.6440689,50.2656052 52.2881823,52.2927668 50.2121199,53.1529768 C49.5252856,53.4374907 48.8051098,53.5753021 48.0871567,53.5753021"></path>
        <path d="M73.8201058,0.140034188 L72.2930663,2.98961878 L60.4835165,24.4526365 L58.956477,27.1621869 L60.4835165,29.8695146 L72.2930663,50.6390297 L73.8890115,53.4863915 L104.801003,53.4863915 L106.328042,50.3611841 L115.150196,32.579065 L119.10894,24.5215423 L110.148975,24.5215423 L87.574575,24.590448 C84.6383025,24.5504382 81.9376432,27.2110878 81.9376432,30.1473602 C81.9376432,33.0836326 84.6383025,35.746505 87.574575,35.7042724 L101.18901,35.6353667 L97.8548626,42.3725671 L80.3505891,42.3725671 L71.6662466,27.0910585 L80.4194948,11.2538586 L99.0395963,11.2538586 L103.380656,20.1627003 L114.565609,20.1627003 L107.514999,3.26746439 L105.985737,0.140034188 L73.8201058,0.140034188"></path>
        <path d="M130.116072,0.0711284765 C127.20425,0.106692715 124.590279,2.78734717 124.628066,5.69694641 L124.628066,20.1782597 L135.74189,20.1782597 L135.74189,5.69694641 C135.777454,2.74066911 133.070127,0.0333414733 130.116072,0.0711284765"></path>
        <path d="M147.92931,53.6819948 C147.21358,53.6819948 146.491181,53.5441834 145.804347,53.2596695 C143.728284,52.3994595 142.374621,50.3722979 142.374621,48.1250826 L142.374621,5.75029277 C142.374621,2.68065446 144.861894,0.193380545 147.931533,0.193380545 C151.001171,0.193380545 153.488445,2.68065446 153.488445,5.75029277 L153.488445,34.7084737 L186.374252,1.82044444 C187.959083,0.233390313 190.346332,-0.246726903 192.429063,0.615705874 C194.505125,1.47591589 195.858789,3.50307747 195.858789,5.75029277 L195.858789,48.1250826 C195.858789,51.1947209 193.371515,53.6819948 190.301877,53.6819948 C187.232239,53.6819948 184.744965,51.1947209 184.744965,48.1250826 L184.744965,19.1669016 L151.859158,52.0549309 C150.798899,53.1174126 149.37633,53.6819948 147.92931,53.6819948"></path>
        <path d="M237.022172,26.8954552 L254.308615,9.67125003 C256.482479,7.50627703 256.489147,3.98764021 254.321951,1.81155338 C252.156978,-0.362310677 248.640564,-0.366756207 246.464478,1.7982168 L229.151362,19.0513179 L211.838246,1.7982168 C209.662159,-0.368978972 206.145745,-0.362310677 203.980772,1.81155338 C201.813576,3.98764021 201.820245,7.50627703 203.991886,9.67125003 L221.278329,26.8954552 L204.04301,44.0707595 C201.866923,46.2379552 201.862477,49.7543693 204.029673,51.9282333 C205.114382,53.0196109 206.539175,53.5641883 207.96619,53.5641883 C209.384314,53.5641883 210.802438,53.0240564 211.887147,51.9415699 L229.151362,34.7395925 L246.413354,51.9415699 C247.500286,53.0240564 248.916187,53.5641883 250.336534,53.5641883 C251.763549,53.5641883 253.186119,53.0196109 254.273051,51.9282333 C256.438024,49.7543693 256.433578,46.2379552 254.259714,44.0707595 L237.022172,26.8954552"></path>
        <path d="M130.116072,53.5241785 C127.20425,53.4886143 124.590279,50.8079598 124.628066,47.8983606 L124.628066,24.637126 L135.74189,24.637126 L135.74189,47.8983606 C135.777454,50.8524151 133.070127,53.5597428 130.116072,53.5241785"></path>
    </g>
</svg>
