<?xml version="1.0" encoding="UTF-8"?>
<svg width="512px" height="172px" viewBox="0 0 512 172" version="1.1" xmlns="http://www.w3.org/2000/svg" xmlns:xlink="http://www.w3.org/1999/xlink" preserveAspectRatio="xMidYMid">
    <title>nvm</title>
    <g>
        <path d="M511.711876,110.871259 C511.711876,126.429951 511.711876,141.988643 511.711876,157.547336 C511.711876,163.886062 509.502926,165.134599 503.93253,161.965236 C492.791738,155.626509 481.650946,149.191742 470.510154,142.949056 C466.476419,140.740106 464.651634,137.762826 464.747676,133.056802 C464.939758,119.322894 464.747676,105.685028 464.843717,91.9511211 C464.843717,87.0530143 463.114973,83.6915685 458.697073,81.3865771 C454.279173,79.0815856 449.957314,76.4884703 445.731496,73.9913962 C442.562133,72.07057 439.39277,71.9745287 436.223407,73.8953549 C431.421341,76.6805529 426.523235,79.4657509 421.625128,82.2509489 C418.743888,83.8836511 417.495351,86.0926012 417.495351,89.5500884 C417.591393,112.119796 417.495351,134.593463 417.39931,157.16317 C417.39931,164.078145 415.286401,165.23064 409.235799,161.773153 C398.191048,155.434427 387.242339,149.0957 376.101547,142.949056 C372.067812,140.740106 370.243027,137.762826 370.339068,133.056802 C370.531151,119.322894 370.339068,105.685028 370.43511,91.9511211 C370.43511,87.0530143 368.706366,83.6915685 364.288466,81.3865771 C359.966607,79.177627 355.740789,76.6805529 351.611013,74.1834789 C348.057485,71.9745287 344.696039,72.07057 341.046469,74.2795202 C336.916693,76.7765942 332.690875,79.2736683 328.369016,81.5786597 C324.143199,83.7876098 322.318414,87.0530143 322.414455,91.7590385 C322.606538,105.685028 322.414455,119.70706 322.510496,133.633049 C322.510496,137.858867 320.973835,140.644065 317.324266,142.660933 C305.703267,149.191742 294.17831,155.914633 282.557312,162.445442 C277.947329,165.038558 275.450255,163.597938 275.450255,158.315666 C275.450255,126.718075 275.450255,95.024443 275.354213,63.4268522 C275.354213,59.5851998 276.890874,56.8000018 280.25232,54.8791756 C300.709119,43.1621359 321.165918,31.4450961 341.526676,19.7280564 C344.888121,17.8072302 348.057485,17.8072302 351.41893,19.8240977 C364.57659,27.4113611 377.830291,34.9025833 390.98795,42.585888 C393.004818,43.7383837 394.349396,43.7383837 396.366263,42.585888 C409.139758,35.0946659 422.105334,27.8915677 434.878828,20.3043042 C439.008605,17.9032715 442.562133,17.8072302 446.787951,20.3043042 C466.572461,31.8292614 486.549053,43.2581772 506.429604,54.5910517 C510.367298,56.8000018 512,59.8733237 512,64.291224 C511.903959,79.8499161 512,95.4086083 512,110.9673 L511.711876,110.9673 L511.711876,110.871259 Z" fill="#333333"></path>
        <path d="M0.0998202501,110.583135 C0.0998202501,95.312567 0.19586156,79.9459574 0.00377894061,64.6753892 C-0.0922623689,59.8733237 1.6364812,56.8000018 5.86229882,54.3989691 C25.9349325,42.9700533 45.9115249,31.4450961 65.792076,19.920139 C69.4416457,17.8072302 72.6110089,17.7111889 76.2605787,19.8240977 C96.3332124,31.4450961 116.405846,42.9700533 136.574521,54.3989691 C140.512215,56.6079192 142.240958,59.5851998 142.240958,64.0991414 C142.144917,95.2165256 142.144917,126.33391 142.048876,157.547336 C142.048876,163.886062 139.743884,165.23064 134.26953,162.157318 C123.032696,155.722551 111.795863,149.191742 100.462989,142.949056 C96.7173776,140.836148 94.8925927,138.05095 94.9886341,133.633049 C95.1807167,119.803101 94.9886341,105.973152 95.0846754,92.1432037 C95.1807167,87.245097 93.4519731,83.7876098 89.0340729,81.5786597 C84.5201313,79.2736683 80.1022311,76.5845116 75.6843308,73.9913962 C72.6110089,72.1666114 69.6337283,72.1666114 66.4643651,73.9913962 C61.758341,76.7765942 57.0523168,79.5617922 52.2502513,82.1549075 C48.5046402,84.171775 47.1600619,87.245097 47.1600619,91.3748733 C47.2561032,105.300863 47.0640206,119.322894 47.2561032,133.248884 C47.3521445,137.954908 45.5273597,140.932189 41.4936247,143.141139 C30.2567914,149.383824 19.2120408,155.818592 8.07124894,162.157318 C2.5968943,165.326682 0.19586156,163.982103 0.19586156,157.739418 C0.19586156,141.988643 0.19586156,126.33391 0.0998202501,110.583135 L0.0998202501,110.583135 L0.0998202501,110.583135 Z" fill="#333333"></path>
        <path d="M148.186175,62.330768 C148.545569,62.3274958 148.879123,62.5172616 149.059868,62.8279175 L151.841986,67.609001 L163.597986,67.529001 L162.976096,66.4095692 C162.628851,65.7845287 163.031079,65.0224209 163.716018,64.9326736 L163.832712,64.9240801 L169.307067,64.8280388 C169.668699,64.8216944 170.005573,65.0111198 170.188035,65.3234108 L175.201872,73.9064064 L176.506986,76.363001 L191.950758,74.2491751 C192.312511,74.1996494 192.66893,74.3512469 192.884926,74.6379295 L192.951538,74.7384029 L196.792839,81.364648 L198.521097,84.3410921 L215.232285,113.057444 C215.410143,113.363074 215.413364,113.739914 215.240756,114.04854 L194.399792,151.312568 C194.030386,151.973074 193.089574,151.999762 192.683318,151.36126 L137.075399,63.9636677 C136.654075,63.3014834 137.12493,62.4342307 137.909754,62.4268959 L148.186175,62.330768 Z M184.190037,53.687313 C184.545804,53.6798494 184.878737,53.8620061 185.064293,54.165643 L190.346565,62.8093609 C190.749079,63.4680207 190.285237,64.3150159 189.513481,64.3306069 L180.005391,64.5226895 C179.654224,64.5297838 179.32508,64.352122 179.138303,64.0546616 L176.838986,60.393001 L173.262301,60.3931172 C172.961823,60.3931172 172.679734,60.2582104 172.491219,60.0298752 L172.416375,59.9264182 L169.631177,55.508518 C169.216383,54.8505681 169.678513,53.9917506 170.456129,53.975437 L184.190037,53.687313 Z M143.185748,39.9530679 C143.548128,39.9476457 143.885209,40.1384975 144.066797,40.4521493 L144.823986,41.759001 L150.373235,41.586376 C150.69435,41.5763411 150.998065,41.7210231 151.192797,41.9706056 L151.260534,42.069019 L157.407177,52.2493978 C157.805189,52.9086041 157.34006,53.7514206 156.570157,53.7660855 L146.48582,53.9581682 C146.127825,53.9649871 145.793504,53.7798796 145.609283,53.4728453 L142.441986,48.195001 L140.800339,48.1958709 C140.495124,48.1958709 140.209208,48.0567102 140.020898,47.8223712 L139.946398,47.7162411 L136.200787,41.5695973 C135.798339,40.9091701 136.265812,40.0614319 137.039105,40.0493492 L143.185748,39.9530679 Z M159.311627,28.4285333 C159.665103,28.4198055 159.99691,28.5983917 160.184309,28.8982296 L161.321986,30.720001 L169.398432,30.5413843 C169.716833,30.5343087 170.016972,30.6791304 170.209751,30.92685 L170.276837,31.0244724 L176.999729,42.1652643 C177.397943,42.8251621 176.931405,43.6684941 176.16078,43.6817807 L165.019988,43.8741547 C164.6649,43.8799856 164.333205,43.6973195 164.14855,43.393959 L160.411986,37.257001 L155.704921,37.3430377 C155.395201,37.348669 155.103074,37.2106439 154.910744,36.9739641 L154.834666,36.8666211 L150.704889,30.1437294 C150.301363,29.4868265 150.761572,28.6396458 151.532281,28.6206159 L159.311627,28.4285333 Z M130.309115,30.1572304 C130.667017,30.1490962 131.001965,30.3329047 131.187336,30.6391696 L133.396286,34.2887394 C133.794421,34.9465276 133.332202,35.7888135 132.563507,35.8062839 L128.337689,35.9023252 C127.979787,35.9104593 127.644839,35.7266508 127.459468,35.420386 L125.250518,31.7708162 C124.852383,31.113028 125.314602,30.270742 126.083297,30.2532717 L130.309115,30.1572304 Z M143.261721,27.564494 C143.624414,27.5515407 143.965655,27.7361092 144.153329,28.0467412 L146.938527,32.6567241 C147.332975,33.3096037 146.880602,34.1459776 146.118303,34.1732026 L140.739989,34.3652852 C140.377296,34.3782385 140.036055,34.19367 139.848381,33.883038 L137.063183,29.2730552 C136.668735,28.6201756 137.121108,27.7838017 137.883407,27.7565767 L143.261721,27.564494 Z M131.561508,18.8242757 C131.91543,18.8175979 132.246509,18.9985268 132.432031,19.3000003 L135.505353,24.2941484 C135.910947,24.9532386 135.446312,25.8034688 134.67256,25.8180679 L129.58237,25.9141092 C129.228448,25.9207869 128.897369,25.7398581 128.711847,25.4383844 L125.638526,20.4442363 C125.232932,19.7851461 125.697567,18.9349161 126.471319,18.920317 L131.561508,18.8242757 Z M160.271092,15.5590217 C160.630618,15.5498031 160.967404,15.7343546 161.153105,16.0423466 L165.090798,22.5731557 C165.486756,23.2298666 165.026644,24.0695174 164.260051,24.0891737 L156.768829,24.2812563 C156.409303,24.2904749 156.072517,24.1059234 155.886816,23.7979315 L151.949122,17.2671225 C151.553164,16.6104116 152.013276,15.7707607 152.779869,15.7511044 L160.271092,15.5590217 Z M142.321129,10.2765471 C142.677178,10.2708955 143.009371,10.4550078 143.193291,10.759928 L146.84286,16.8105305 C147.24121,17.4709528 146.773602,18.314657 146.00244,18.3268977 L139.951838,18.422939 C139.595789,18.4285906 139.263596,18.2444783 139.079676,17.9395581 L135.430106,11.8889556 C135.031756,11.2285334 135.499364,10.384829 136.270526,10.3725884 L142.321129,10.2765471 Z M127.134706,1.82517149 C127.492375,1.81523623 127.828098,1.99715686 128.015074,2.30222383 L129.839859,5.27950443 C130.241776,5.93526276 129.783855,6.78032455 129.015025,6.80168093 L125.557537,6.89772224 C125.199868,6.9076575 124.864145,6.72573679 124.677169,6.4206697 L122.852385,3.4433891 C122.450468,2.78763077 122.908389,1.94256919 123.677219,1.9212128 L127.134706,1.82517149 Z M153.070905,0.000259197003 C153.428807,-0.00787495622 153.763755,0.175933523 153.949126,0.482198373 L156.158076,4.13176813 C156.556211,4.78955635 156.093992,5.63184229 155.325297,5.64931263 L151.09948,5.74535394 C150.741578,5.75348809 150.40663,5.56967961 150.221259,5.26341476 L148.012309,1.613845 C147.614174,0.956056787 148.076393,0.113770843 148.845088,0.0963005065 L153.070905,0.000259197003 Z" fill="#333333"></path>
        <path d="M227.717724,68.9972481 C232.135624,61.4099847 236.553524,53.8227212 240.875383,46.2354578 C241.835796,44.6027555 242.988292,43.9304664 244.909118,43.9304664 C257.778654,44.0265077 270.648189,43.9304664 283.421683,43.9304664 C287.071253,43.9304664 288.031666,45.371086 286.495005,48.7325318 C282.46127,55.5514648 278.331494,62.2743565 274.681924,69.2853721 C270.360065,76.6805529 266.038206,83.9796924 261.716347,91.3748733 C252.208258,107.893978 242.700168,124.413084 233.096037,140.836148 C228.390013,148.711535 223.78003,156.586922 218.401717,164.078145 C217.249221,165.710847 216.000684,167.343549 214.656106,168.784169 C211.198619,172.433738 208.317379,172.433738 204.859892,168.688127 C203.22719,166.959384 197.944918,159.276079 200.730116,163.790021 C196.216174,156.682964 190.74182,148.615494 186.227878,141.508437 C187.668498,138.146991 203.515314,109.526681 207.64509,102.323583 C208.125297,101.843376 221.667121,79.4657509 227.717724,68.9972481 L227.717724,68.9972481 Z" fill="#F4DD4B"></path>
        <polyline fill="#000000" points="186.323919 141.508437 208.221338 101.267128 202.266777 91.278832"></polyline>
    </g>
</svg>
