<?xml version="1.0" encoding="UTF-8"?>
<svg width="512px" height="169px" viewBox="0 0 512 169" version="1.1" xmlns="http://www.w3.org/2000/svg" xmlns:xlink="http://www.w3.org/1999/xlink" preserveAspectRatio="xMidYMid">
    <title>okta</title>
    <g>
        <path d="M463.989498,110.930515 C449.689495,110.930515 439.609165,99.7718244 439.609165,85.0967393 C439.609165,70.4216542 449.689495,59.2629633 463.989498,59.2629633 C478.289501,59.2629633 488.08852,70.4216542 488.08852,85.0967393 C488.08852,99.7718244 478.148845,110.930515 463.989498,110.930515 Z M461.692121,126.308879 C473.225893,126.308879 483.024912,121.807895 489.213766,112.383958 C490.385897,121.526583 496.996718,124.855436 505.342294,124.855436 L512,124.855436 L512,110.367892 L509.139999,110.367892 C504.404589,110.367892 503.232457,108.070515 503.232457,102.67871 L503.232457,45.3849276 L487.947864,45.3849276 L487.947864,57.1531268 C482.7436,48.9013218 472.944582,43.9314847 461.692121,43.9314847 C441.625231,43.9314847 423.199325,60.7632915 423.199325,85.0967393 C423.199325,109.430187 441.672116,126.261994 461.692121,126.261994 L461.692121,126.308879 Z M382.971776,106.429531 C382.971776,119.463632 391.03604,124.855436 400.694403,124.855436 L419.307849,124.855436 L419.307849,110.367892 L405.75801,110.367892 C400.13178,110.367892 398.959648,108.21117 398.959648,102.67871 L398.959648,59.8724717 L419.307849,59.8724717 L419.307849,45.3849276 L398.959648,45.3849276 L398.959648,18.7072171 L382.971776,18.7072171 L382.971776,106.429531 Z M310.158974,124.855436 L326.146846,124.855436 L326.146846,90.7698553 L331.491765,90.7698553 L358.732099,124.855436 L378.939644,124.855436 L344.197669,81.6272304 L370.87538,45.3849276 L352.871442,45.3849276 L331.069798,76.0009997 L326.146846,76.0009997 L326.146846,18.7072171 L310.158974,18.7072171 L310.158974,124.855436 Z M258.256996,43.9314847 C235.892729,43.9314847 217.466823,60.7632915 217.466823,85.0967393 C217.466823,109.430187 235.939614,126.261994 258.256996,126.261994 C280.574377,126.261994 299.047168,109.430187 299.047168,85.0967393 C299.047168,60.7632915 280.574377,43.9314847 258.256996,43.9314847 L258.256996,43.9314847 Z M258.256996,110.930515 C243.956993,110.930515 233.876663,99.7718244 233.876663,85.0967393 C233.876663,70.4216542 243.956993,59.2629633 258.256996,59.2629633 C272.556999,59.2629633 282.637329,70.4216542 282.637329,85.0967393 C282.637329,99.7718244 272.556999,110.930515 258.256996,110.930515 L258.256996,110.930515 Z" fill="#000000"></path>
        <path d="M92.7989278,1.1721314 L89.3294188,43.9314847 C87.6884349,43.7439437 86.0474509,43.6501732 84.3595817,43.6501732 C82.2497452,43.6501732 80.186794,43.7908289 78.170728,44.1190257 L76.2015472,23.3957427 C76.154662,22.7393491 76.6703998,22.176726 77.3267934,22.176726 L80.8431875,22.176726 L79.1553183,1.21901665 C79.1084331,0.56262307 79.6241709,0 80.2336792,0 L91.7205669,0 C92.3769605,0 92.8926983,0.56262307 92.7989278,1.21901665 L92.7989278,1.21901665 L92.7989278,1.1721314 Z M63.8238397,3.28196791 C63.6362987,2.67245958 62.9799051,2.29737753 62.3703967,2.53180381 L51.5867879,6.4701653 C50.9772796,6.70459158 50.6959681,7.40787042 50.9772796,7.97049349 L59.7448224,27.0996779 L56.4159693,28.3186945 C55.8064609,28.5531208 55.5251494,29.2563996 55.8064609,29.8190227 L64.7615448,48.6200103 C67.9966274,46.8383706 71.5130216,45.4786981 75.2169568,44.6347635 L63.8707249,3.28196791 L63.8238397,3.28196791 Z M37.3805554,15.1908229 L62.1828557,50.1672237 C59.0415436,52.230175 56.181543,54.6682083 53.7435097,57.4813236 L38.8808836,42.8531238 C38.412031,42.3842713 38.4589163,41.6341072 38.9277688,41.2121399 L41.6471137,38.9616476 L26.8782581,24.005251 C26.4094055,23.5363984 26.4562908,22.7862343 26.9720286,22.364267 L35.7395714,15.0032819 C36.2553093,14.5813146 36.9585881,14.6750851 37.3336701,15.1908229 L37.3805554,15.1908229 Z M16.5635018,35.4452534 C16.047764,35.0701713 15.2975999,35.2577124 14.9694031,35.8203354 L9.24940191,45.7600097 C8.92120512,46.3226327 9.1556314,47.0259116 9.71825447,47.3072231 L28.7536683,56.3091922 L26.9720286,59.3567339 C26.6438318,59.9193569 26.8782581,60.669521 27.4877664,60.9039473 L46.4294098,69.5777196 C47.7890822,66.0613254 49.6176072,62.7793575 51.8680994,59.8255864 L16.5635018,35.4452534 Z M2.54481033,62.4511607 C2.63858084,61.7947672 3.29497442,61.4196851 3.90448275,61.5603409 L45.3979341,72.390835 C44.3195733,75.9072292 43.7100649,79.6111644 43.6162944,83.4557553 L22.8461261,81.7678861 C22.1897325,81.7210009 21.72088,81.1114926 21.8615357,80.455099 L22.4710441,76.98559 L1.5133347,75.0164093 C0.85694112,74.969524 0.434973818,74.3600157 0.52874433,73.7036221 L2.49792507,62.4042755 L2.49792507,62.4042755 L2.54481033,62.4511607 Z M0.997596888,90.4885437 C0.341203306,90.535429 -0.080763996,91.1449373 0.0130065156,91.8013309 L2.02907252,103.100678 C2.12284303,103.757071 2.77923661,104.132153 3.38874493,103.991497 L23.736946,98.6934635 L24.3464543,102.162972 C24.4402248,102.819366 25.0966184,103.194448 25.7061267,103.053792 L45.7730162,97.5213321 C44.6008848,94.0518232 43.8507207,90.347888 43.6631797,86.5501822 L0.950711632,90.4885437 L0.997596888,90.4885437 Z M7.65530321,120.213796 C7.32710642,119.651173 7.5615327,118.947894 8.12415577,118.666582 L46.8513771,100.287562 C48.30482,103.757071 50.2740007,106.992154 52.6182635,109.89904 L35.6458009,121.995436 C35.1300631,122.370518 34.379899,122.229862 34.0517022,121.667239 L32.2700625,118.572812 L14.9694031,130.528552 C14.4536653,130.903634 13.7035012,130.716093 13.3753044,130.15347 L7.60841796,120.213796 L7.65530321,120.213796 Z M54.5874443,112.149532 L24.4402248,142.671833 C23.9713722,143.140686 24.0182575,143.89085 24.5339953,144.312817 L33.3484234,151.673803 C33.8641612,152.09577 34.5674401,152.001999 34.9425221,151.486262 L47.1326886,134.326258 L49.8520334,136.623635 C50.3677713,137.045603 51.1179354,136.951832 51.4930174,136.389209 L63.3081019,119.229206 C60.1199045,117.260025 57.1661334,114.868877 54.6343295,112.149532 L54.5874443,112.149532 Z M48.6330168,161.144624 C48.0235085,160.910198 47.7421969,160.206919 48.0235085,159.644296 L65.8867909,120.635763 C69.1687588,122.323632 72.7320383,123.589534 76.4359735,124.292813 L71.1848248,144.453473 C71.0441691,145.062981 70.3408902,145.438064 69.7313819,145.203637 L66.4025287,143.984621 L60.8231833,164.285936 C60.6356423,164.895445 59.9792487,165.270527 59.3697404,165.0361 L48.5861315,161.097739 L48.5861315,161.097739 L48.6330168,161.144624 Z M79.3897446,124.808551 L75.9202357,167.567904 C75.8733504,168.224298 76.3890882,168.786921 76.9985966,168.786921 L88.4854842,168.786921 C89.1418778,168.786921 89.6576156,168.224298 89.5638451,167.567904 L87.8759759,146.610195 L91.3923701,146.610195 C92.0487637,146.610195 92.5645015,146.047572 92.5176162,145.391178 L90.5484355,124.667895 C88.5323695,124.996092 86.4694182,125.136748 84.3595817,125.136748 C82.6717125,125.136748 81.0307286,125.042977 79.3897446,124.808551 L79.3897446,124.808551 Z M120.74254,9.04885437 C121.023852,8.43934605 120.74254,7.78295247 120.133032,7.54852619 L109.349423,3.6101647 C108.739915,3.37573842 108.083521,3.75082047 107.89598,4.36032879 L102.316635,24.6616446 L98.9877815,23.4426279 C98.3782732,23.2082016 97.7218796,23.5832837 97.5343386,24.192792 L92.28319,44.353452 C96.0340104,45.1036161 99.5504046,46.369518 102.832373,48.010502 L120.74254,9.04885437 L120.74254,9.04885437 Z M144.278939,26.0682022 L114.131719,56.5905038 C111.599915,53.8711589 108.693029,51.4800109 105.457947,49.5108301 L117.273031,32.3508265 C117.648113,31.8350887 118.398277,31.6944329 118.914015,32.1164002 L121.63336,34.4137778 L133.823527,17.2537741 C134.198609,16.7380363 134.948773,16.6442658 135.417625,17.0662331 L144.232053,24.4272183 C144.747791,24.8491856 144.747791,25.5993497 144.325824,26.0682022 L144.278939,26.0682022 Z M160.595008,50.0734532 C161.204516,49.7921417 161.392057,49.0888628 161.06386,48.5262398 L155.296974,38.5865655 C154.968777,38.0239425 154.218613,37.8832867 153.702875,38.2114835 L136.402216,50.1672237 L134.620576,47.1196821 C134.292379,46.557059 133.542215,46.369518 133.026477,46.7914853 L116.054015,58.8878813 C118.398277,61.7947672 120.320573,65.0298498 121.820901,68.4993587 L160.548122,50.1203385 L160.595008,50.0734532 Z M166.690091,65.6393581 L168.659272,76.9387048 C168.753042,77.5950984 168.331075,78.1577214 167.674681,78.251492 L124.962213,82.2367387 C124.774672,78.3921477 124.024508,74.7350978 122.852377,71.2655888 L142.919266,65.7331287 C143.528775,65.5455876 144.185168,65.9675549 144.278939,66.6239485 L144.888447,70.0934574 L165.236648,64.7954235 C165.846156,64.6547678 166.50255,65.0298498 166.59632,65.6862434 L166.59632,65.6862434 L166.690091,65.6393581 Z M164.767795,107.13281 C165.377304,107.273465 166.033697,106.898383 166.127468,106.24199 L168.096649,94.942643 C168.190419,94.2862494 167.768452,93.7236264 167.112058,93.6298559 L146.154349,91.6606751 L146.763857,88.1911662 C146.857628,87.5347726 146.43566,86.9721495 145.779267,86.878379 L125.009099,85.1905098 C124.915328,89.0351008 124.30582,92.739036 123.227459,96.2554302 L164.72091,107.085924 L164.72091,107.085924 L164.767795,107.13281 Z M153.702875,132.9197 C153.374678,133.482323 152.624514,133.622979 152.108776,133.294782 L116.804179,108.914449 C119.054671,105.960678 120.883196,102.67871 122.242868,99.162316 L141.184512,107.836088 C141.79402,108.1174 142.028446,108.820679 141.70025,109.383302 L139.91861,112.430843 L158.954024,121.432813 C159.516647,121.714124 159.751073,122.417403 159.422876,122.980026 L153.702875,132.9197 L153.702875,132.9197 L153.702875,132.9197 Z M106.489422,118.525927 L131.291723,153.502328 C131.666805,154.018065 132.416969,154.111836 132.885821,153.689869 L141.653364,146.328883 C142.169102,145.906916 142.169102,145.156752 141.747135,144.687899 L126.978279,129.731503 L129.697624,127.481011 C130.213362,127.059043 130.213362,126.308879 129.744509,125.840027 L114.881883,111.211827 C112.396965,114.024942 109.583849,116.509861 106.442537,118.525927 L106.442537,118.525927 L106.489422,118.525927 Z M106.254996,166.161347 C105.645488,166.395773 104.989094,166.020691 104.801553,165.411183 L93.4553214,124.058387 C97.1592566,123.214452 100.675651,121.85478 103.910733,120.07314 L112.865817,138.874128 C113.147129,139.483636 112.865817,140.186915 112.256309,140.374456 L108.927456,141.593473 L117.694999,160.722657 C117.97631,161.332165 117.694999,161.988559 117.08549,162.222985 L106.301881,166.161347 L106.301881,166.161347 L106.254996,166.161347 Z" fill="#000000"></path>
    </g>
</svg>
