<?xml version="1.0" encoding="UTF-8"?>
<svg width="512px" height="98px" viewBox="0 0 512 98" version="1.1" xmlns="http://www.w3.org/2000/svg" xmlns:xlink="http://www.w3.org/1999/xlink" preserveAspectRatio="xMidYMid">
    <title>OpenSearch</title>
    <g>
        <path d="M85.0862686,35.833109 C83.3640743,35.833109 81.9679612,37.2292221 81.9679612,38.9514164 C81.9679612,64.6117814 61.1662902,85.4134525 35.5059251,85.4134525 C33.7837308,85.4134525 32.3876177,86.8095655 32.3876177,88.5317599 C32.3876177,90.2539542 33.7837308,91.6500673 35.5059251,91.6500673 C64.610541,91.6500673 88.204576,68.0560323 88.204576,38.9514164 C88.204576,37.2292221 86.808463,35.833109 85.0862686,35.833109 Z" fill="#005EB8"></path>
        <path d="M66.2656172,55.8169583 C69.2642972,50.9250498 72.1644361,44.4024592 71.5938627,35.2709427 C70.4119214,16.3554713 53.2795607,2.00578584 37.1018767,3.56088764 C30.7686503,4.16969217 24.2656301,9.33204415 24.8433701,18.5787779 C25.0944775,22.5970476 27.0611639,24.9686482 30.2574772,26.7920022 C33.2997082,28.527565 37.2082735,29.6269524 41.6391752,30.8731176 C46.9912635,32.3785217 53.1996253,34.069431 57.9712172,37.5857615 C63.6899058,41.8001486 67.599298,46.6854417 66.2656172,55.8169583 Z" fill="#003B5C"></path>
        <path d="M5.40061457,22.7402423 C2.40186571,27.6321507 -0.498226326,34.1547413 0.0723457848,43.2862579 C1.25425802,62.2017292 18.3866573,76.5513734 34.5643413,74.9963542 C40.8975677,74.387467 47.4005879,69.2251564 46.8228479,59.9784226 C46.5717405,55.9601529 44.6049163,53.5885524 41.4087408,51.7651984 C38.3665098,50.0296355 34.4579445,48.9302482 30.0270428,47.6840829 C24.6749545,46.1786789 18.4665927,44.4877696 13.6950697,40.971439 C7.97627088,36.757052 4.0669476,31.8717588 5.40061457,22.7402423 Z" fill="#005EB8"></path>
        <path d="M499.596231,42.0349933 L499.596231,73.7335128 L512,73.7335128 L512,39.2786003 C512,32.9288355 510.759623,28.1318848 508.277491,24.8779629 C505.795359,21.5924802 502.052178,19.9838493 497.184388,19.9838493 C491.903139,19.9838493 487.670697,23.072112 485.125168,28.2530283 L484.43607,28.2530283 C484.623505,25.5780867 484.794401,24.04567 484.918439,22.9267122 C485.046611,21.7727483 485.125168,21.0584291 485.125168,19.9838493 L485.125168,0 L472.7214,0 L472.7214,73.7335128 L485.814266,73.7335128 L485.814266,48.2368775 C485.814266,42.5188781 486.005836,38.2883661 487.182816,35.2556447 C488.359795,32.1912248 490.41193,30.6590837 493.339219,30.6590837 C497.253297,30.6590837 499.596231,34.2951795 499.596231,42.0349933 Z M319.537615,69.9143925 C322.889389,66.4494686 324.565276,61.4587435 324.565276,54.942217 C324.565276,50.8732296 323.647397,47.2493997 321.810261,44.0705895 C320.004824,40.8917793 316.799139,37.7766417 312.19045,34.7249012 C308.7739,32.499803 306.373082,30.5129949 304.986616,28.7647526 C303.633227,27.0163725 302.956533,24.9660296 302.956533,22.6137238 C302.956533,20.2295817 303.520215,18.3541319 304.648958,16.9872366 C305.8094,15.588505 307.45221,14.8892081 309.580145,14.8892081 C311.513755,14.8892081 313.317814,15.2388565 314.993701,15.9381534 C316.701287,16.6375882 318.328937,17.4322563 319.876651,18.3222956 L324.22624,7.92760678 C319.231655,4.93952517 314.027585,3.44549125 308.612651,3.44549125 C302.939995,3.44549125 298.412619,5.19382999 295.029147,8.69052124 C291.677373,12.1872125 290.001486,16.9237018 290.001486,22.8998374 C290.001486,26.014975 290.420458,28.7487655 291.258401,31.1010713 C292.128043,33.4533771 293.336721,35.583242 294.884436,37.4905281 C296.462471,39.3659779 298.766816,41.3369367 301.796092,43.4031289 C305.277416,45.7554347 307.774708,47.9011489 309.289346,49.8401335 C310.803984,51.7474197 311.561992,53.8614353 311.561992,56.1819047 C311.561992,58.5342105 310.916996,60.393811 309.628382,61.7607063 C308.371467,63.1276016 306.486094,63.8110493 303.972264,63.8110493 C299.556522,63.8110493 294.706649,62.1103548 289.421265,58.7091036 L289.421265,71.535565 C293.739155,73.9197071 298.976301,75.1117093 305.132705,75.1117093 C311.415903,75.1117093 316.218918,73.3793163 319.537615,69.9143925 Z M333.074261,68.0477631 C336.94148,72.7570606 342.21446,75.1117093 348.893201,75.1117093 C354.614094,75.1117093 359.519096,73.8866304 363.609583,71.4364727 L363.609583,60.9836791 C359.264129,63.5610444 355.013771,64.849796 350.858509,64.849796 C347.599074,64.849796 345.04252,63.704239 343.188845,61.413263 C341.335171,59.0904506 340.511009,55.7344043 340.414536,50.9932705 L365.911171,50.9932705 L365.911171,44.0395801 C365.911171,36.4346918 364.233906,30.5321518 360.877997,26.3319602 C357.522089,22.0999322 352.936829,19.9838493 347.119462,19.9838493 C340.887257,19.9838493 336.030493,22.4498563 332.546412,27.3820081 C329.063709,32.3140221 327.321669,39.1712388 327.321669,47.9535203 C327.321669,56.6084565 329.23874,63.3064915 333.074261,68.0477631 Z M342.517664,32.6799332 C343.700156,30.7390191 345.20239,29.7684931 347.024366,29.7684931 C348.973136,29.7684931 350.507069,30.7707176 351.626164,32.7754423 C352.743882,34.7800291 353.444005,38.1530272 353.507402,42.0349933 L340.414536,42.0349933 C340.606105,37.9938455 341.335171,34.5891489 342.517664,32.6799332 Z M396.920592,73.7335128 L394.853297,66.8425303 L394.164199,66.8425303 C392.265044,69.9554627 390.436178,72.1733944 388.408851,73.3487203 C386.380145,74.5240463 383.819456,75.1117093 380.72954,75.1117093 C376.768603,75.1117093 373.64561,73.6505454 371.359182,70.7282175 C369.10583,67.8057518 367.978466,63.7399343 367.978466,58.5304894 C367.978466,52.9398353 369.523424,48.7944958 372.614719,46.0944711 C375.737712,43.3627478 380.390503,41.8538983 386.573093,41.5680603 L393.72042,41.2822223 L393.72042,37.4704065 C393.72042,32.5151009 391.547004,30.0373793 387.200172,30.0373793 C383.980705,30.0373793 380.277491,31.2762401 376.091908,33.7539618 L371.648603,24.9868404 C376.994627,21.651467 382.716899,19.9838493 388.995962,19.9838493 C394.694805,19.9838493 399.114681,21.6039192 402.076425,24.8439214 C405.071246,28.0520872 406.567968,32.6103343 406.567968,38.5186627 L406.567968,73.7335128 L396.920592,73.7335128 Z M385.992872,65.2010983 C388.344075,65.2010983 390.211532,64.1686913 391.595241,62.1040151 C393.012027,60.0075026 393.72042,57.2280937 393.72042,53.7657884 L393.72042,49.2869254 L389.760861,49.47753 C386.830816,49.6362983 384.67256,50.4622514 383.288851,51.9551139 C381.93684,53.4481141 381.260145,55.6716964 381.260145,58.6257227 C381.260145,63.0093524 382.83818,65.2010983 385.992872,65.2010983 Z M438.266487,21.0174966 C436.791817,20.5420188 434.59635,19.9838493 433.059661,19.9838493 C430.894514,19.9838493 428.995359,20.6969281 427.363575,22.1232237 C425.73179,23.5495192 424.487279,24.9250972 423.106326,28.2530283 L422.417227,28.2530283 L420.349933,21.3620458 L410.702557,21.3620458 L410.702557,73.7335128 L423.744431,73.7335128 L423.744431,46.1695828 C423.744431,41.5421502 424.037987,38.5568388 425.669771,36.1480269 C427.301556,33.7075166 429.638977,32.4872614 432.682035,32.4872614 C434.094686,32.4872614 435.321281,32.7597308 436.199192,33.076716 L438.266487,21.0174966 Z M457.561238,75.1117093 C451.280797,75.1117093 446.472269,73.0140942 443.190783,68.400168 C439.907919,63.7862417 438.266487,57.0086848 438.266487,48.0673594 C438.266487,38.7122993 439.812824,31.7278751 442.905497,27.1139489 C446.031246,22.5000226 450.693685,19.9838493 457.196016,19.9838493 C459.151677,19.9838493 461.354035,20.4794487 463.499887,21.0522272 C465.645739,21.6250057 468.260178,22.3474563 469.965007,23.4293405 L465.677437,33.4142363 C463.058864,31.8550826 460.737981,31.0755747 458.718923,31.0755747 C456.035575,31.0755747 454.095074,32.4915338 452.894665,35.323452 C451.727332,38.1236716 451.144355,42.3397125 451.144355,47.9718503 C451.144355,53.4766428 451.727332,57.5973125 452.894665,60.3338595 C454.063376,63.0385701 455.972178,64.3908565 458.623828,64.3908565 C461.779898,64.3908565 465.077922,63.2771359 468.5179,61.0498326 L468.5179,72.2185992 C465.204716,74.2868587 461.569034,75.1117093 457.561238,75.1117093 Z" fill="#003B5C"></path>
        <path d="M148.537884,65.8261104 C152.877825,59.6356651 155.047106,50.7785475 155.047106,39.2547575 C155.047106,27.7311053 152.892985,18.8898369 148.586121,12.7311453 C144.277879,6.54071386 138.08702,3.44549125 130.014648,3.44549125 C121.846077,3.44549125 115.591959,6.52483704 111.252294,12.6835286 C106.912767,18.8104528 104.742934,27.6358719 104.742934,39.1595241 C104.742934,50.7785475 106.912767,59.6832129 111.252294,65.8736581 C115.591959,72.0324048 121.814103,75.1117093 129.919001,75.1117093 C137.991925,75.1117093 144.197943,72.0165556 148.537884,65.8261104 Z M121.064226,57.397474 C119.053989,53.2387661 118.04887,47.1912398 118.04887,39.2547575 C118.04887,31.2865766 119.053989,25.2390503 121.064226,21.1120409 C123.074464,16.953333 126.057983,14.8740479 130.014648,14.8740479 C137.800355,14.8740479 141.69376,23.0008592 141.69376,39.2547575 C141.69376,55.5086557 137.768519,63.6356048 129.919001,63.6356048 C126.026147,63.6356048 123.074464,61.556182 121.064226,57.397474 Z M176.665497,73.7306186 C178.433723,74.7515865 180.337012,75.1117093 182.611036,75.1117093 C187.47607,75.1117093 191.431494,72.8052974 194.243015,67.8916135 C197.054536,62.9780673 198.460296,56.1978918 198.460296,47.5512248 C198.460296,38.7767989 197.101394,31.9967612 194.384969,27.2106983 C191.668544,22.3927989 187.910202,19.9838493 183.108565,19.9838493 C178.118116,19.9838493 174.206794,22.9564813 171.585464,28.2530283 L170.896366,28.2530283 L168.829071,21.3620458 L159.181696,21.3620458 L159.181696,97.8519516 L171.585464,97.8519516 L171.585464,75.1117093 C171.585464,74.2183623 171.402164,71.181782 170.896366,66.8425303 L171.585464,66.8425303 C172.619112,69.9434724 174.927591,72.6776764 176.665497,73.7306186 Z M173.490132,34.2939392 C174.596824,31.9647871 176.38021,30.800211 178.844425,30.800211 C181.150148,30.800211 182.839817,32.1722057 183.91481,34.9161949 C185.020124,37.6601841 185.572781,41.8080043 185.572781,47.3597933 C185.572781,58.6546649 183.362153,64.3021007 178.939521,64.3021007 C176.38021,64.3021007 174.548587,62.9620802 173.443273,60.2819015 C172.33796,57.6017227 171.785303,53.3262816 171.785303,47.4554401 L171.785303,45.7803801 C171.8487,40.4200226 172.416517,36.5912549 173.490132,34.2939392 Z M222.788221,75.1117093 C216.10948,75.1117093 210.836501,72.7570606 206.969281,68.0477631 C203.13376,63.3064915 201.216689,56.6084565 201.216689,47.9535203 C201.216689,39.1712388 202.958729,32.3140221 206.441432,27.3820081 C209.925513,22.4498563 214.782277,19.9838493 221.014482,19.9838493 C226.831849,19.9838493 231.417109,22.0999322 234.773017,26.3319602 C238.128926,30.5321518 239.806191,36.4346918 239.806191,44.0395801 L239.806191,50.9932705 L214.309556,50.9932705 C214.40603,55.7344043 215.230191,59.0904506 217.083865,61.413263 C218.93754,63.704239 221.494094,64.849796 224.753529,64.849796 C228.908791,64.849796 233.159149,63.5610444 237.504603,60.9836791 L237.504603,71.4364727 C233.414116,73.8866304 228.509114,75.1117093 222.788221,75.1117093 Z M220.919386,29.7684931 C219.09741,29.7684931 217.595176,30.7390191 216.412684,32.6799332 C215.230191,34.5891489 214.501125,37.9938455 214.309556,42.0349933 L227.402423,42.0349933 C227.339026,38.1530272 226.638902,34.7800291 225.521184,32.7754423 C224.402089,30.7707176 222.868156,29.7684931 220.919386,29.7684931 Z M270.815612,42.0349933 L270.815612,73.7335128 L283.219381,73.7335128 L283.219381,39.5529992 C283.219381,33.1578918 282.010703,28.297544 279.591968,24.9720937 C277.20631,21.6466433 273.594057,19.9838493 268.757965,19.9838493 C265.895451,19.9838493 263.396781,20.6872808 261.264711,22.0942816 C259.134019,23.4691704 257.48983,25.7908802 256.344549,28.2530283 L255.655451,28.2530283 L253.932705,21.3620458 L243.940781,21.3620458 L243.940781,73.7335128 L257.033647,73.7335128 L257.033647,48.5814267 C257.033647,42.0903968 257.272075,37.666386 258.545529,34.9485825 C259.817604,32.1985292 261.821502,30.8236404 264.5586,30.8236404 C266.627273,30.8236404 268.122616,31.8148393 269.04463,33.797375 C269.968022,35.7799106 270.815612,38.1659822 270.815612,42.0349933 Z" fill="#005EB8"></path>
    </g>
</svg>
