<?xml version="1.0" encoding="UTF-8"?>
<svg width="256px" height="256px" viewBox="0 0 256 256" version="1.1" xmlns="http://www.w3.org/2000/svg" xmlns:xlink="http://www.w3.org/1999/xlink" preserveAspectRatio="xMidYMid">
    <title>OpenSearch</title>
    <g>
        <path d="M246.9496,94.000008 C241.9512,94.000008 237.8992,98.052008 237.8992,103.050408 C237.8992,177.525608 177.5256,237.899208 103.0504,237.899208 C98.052,237.899208 94,241.951208 94,246.949608 C94,251.948008 98.052,256.000008 103.0504,256.000008 C187.522,256.000008 256,187.522008 256,103.050408 C256,98.052008 251.948,94.000008 246.9496,94.000008 Z" fill="#005EB8"></path>
        <path d="M192.3256,152 C201.0288,137.802008 209.446,118.871208 207.79,92.368408 C204.3596,37.469208 154.6356,-4.17851198 107.6824,0.334928022 C89.3012,2.10188802 70.4272,17.084808 72.104,43.922008 C72.8328,55.584408 78.5408,62.467608 87.8176,67.759608 C96.6472,72.796808 107.9912,75.987608 120.8512,79.604408 C136.3848,83.973608 154.4036,88.881208 168.2524,99.086808 C184.85,111.318408 196.1964,125.497208 192.3256,152 Z" fill="#003B5C"></path>
        <path d="M15.6744399,56.000008 C6.97103994,70.198008 -1.44602406,89.128808 0.209972336,115.631608 C3.64028794,170.530808 53.3643999,212.178408 100.3176,207.665208 C118.6988,205.898008 137.5728,190.915208 135.896,164.078008 C135.1672,152.415608 129.4588,145.532408 120.1824,140.240408 C111.3528,135.203208 100.0088,132.012408 87.1488,128.395608 C71.6152,124.026408 53.5963999,119.118808 39.7477999,108.913208 C23.1498799,96.681608 11.8036799,82.502808 15.6744399,56.000008 Z" fill="#005EB8"></path>
    </g>
</svg>
