<?xml version="1.0" encoding="UTF-8" standalone="no"?>
<svg width="256px" height="285px" viewBox="0 0 256 285" version="1.1" xmlns="http://www.w3.org/2000/svg" xmlns:xlink="http://www.w3.org/1999/xlink" preserveAspectRatio="xMidYMid">
    <defs>
        <radialGradient cx="50%" cy="62.9486501%" fx="50%" fy="62.9486501%" r="66.2218785%" id="radialGradient-1">
            <stop stop-color="#000000" offset="0%"></stop>
            <stop stop-color="#FFFFFF" stop-opacity="0" offset="100%"></stop>
        </radialGradient>
        <filter x="-50%" y="-50%" width="200%" height="200%" filterUnits="objectBoundingBox" id="filter-2">
            <feGaussianBlur stdDeviation="2" in="SourceGraphic" result="blur"></feGaussianBlur>
        </filter>
        <linearGradient x1="49.9943244%" y1="103.246346%" x2="49.9943244%" y2="-2.22537728%" id="linearGradient-3">
            <stop stop-color="#333132" offset="0%"></stop>
            <stop stop-color="#8F8D8F" offset="24.89%"></stop>
            <stop stop-color="#D1D3D4" offset="100%"></stop>
        </linearGradient>
        <linearGradient x1="49.9862215%" y1="103.225775%" x2="49.9862215%" y2="-2.22786219%" id="linearGradient-4">
            <stop stop-color="#A81E22" offset="0%"></stop>
            <stop stop-color="#D02026" offset="39.52%"></stop>
            <stop stop-color="#E51E26" offset="100%"></stop>
        </linearGradient>
        <linearGradient x1="50.0015276%" y1="101.002294%" x2="50.0015276%" y2="-0.0468271392%" id="linearGradient-5">
            <stop stop-color="#951A1D" offset="0%"></stop>
            <stop stop-color="#DE1F26" offset="100%"></stop>
        </linearGradient>
        <linearGradient x1="49.9795732%" y1="112.68719%" x2="49.9795732%" y2="-10.0419931%" id="linearGradient-6">
            <stop stop-color="#D91F26" offset="0%"></stop>
            <stop stop-color="#BC2025" offset="100%"></stop>
        </linearGradient>
    </defs>
	<g>
		<path d="M128.200001,279.657341 C161.681549,279.657341 213.052109,280.480395 212.723859,251.936097 C212.176775,243.178188 172.458468,256.369113 123.986815,256.369113 C75.5151621,256.369113 43.5654496,241.772597 43.6748664,253.233565 C44.2219505,277.452969 94.7184527,279.657341 128.200001,279.657341 Z" fill="url(#radialGradient-1)" filter="url(#filter-2)"></path>
		<path d="M128.2,251.7 C82.5,251.7 77.1,183.3 77.1,133.5 C77.1,79.8 85.8,20.5 128.2,20.5 C170.6,20.5 179.2,80.5 179.2,134.2 C179.2,183.9 173.9,251.7 128.2,251.7 M128.2,0.2 C53,0.2 0.4,54.7 0.4,136.5 C0.4,209.3 51.5,275.6 128.2,275.6 C204.9,275.6 256,209.3 256,136.5 C256,54.7 203.4,0.2 128.2,0.2" fill="url(#linearGradient-3)"></path>
		<path d="M3,135.5 C3,206.2 52.6,270.5 127.1,270.5 L127.1,270.5 C201.5,270.5 251.1,206.1 251.1,135.5 L251.1,135.5 C251.1,56.1 200,3.2 127,3.2 L127,3.2 C54,3.2 3,56.1 3,135.5 L3,135.5 Z M76.6,131.5 C76.6,78.1 84.6,21.5 126.7,21.5 L126.7,21.5 C168.8,21.5 177.3,79.8 177.3,133.2 L177.3,133.2 C177.3,182.6 172.4,248.9 127,248.9 L127,248.9 C81.6,248.9 76.6,181.9 76.6,132.5 L76.6,131.5 L76.6,131.5 Z" fill="url(#linearGradient-4)"></path>
		<path d="M0,135.5 C0,207.9 50.8,273.7 127,273.7 L127,273.7 C203.2,273.7 254,207.8 254,135.5 L254,135.5 C254,54.2 201.7,0 127,0 L127,0 C52.3,0 0,54.2 0,135.5 M3,135.5 C3,56.1 54,3.2 127,3.2 L127,3.2 C200,3.2 251,56.1 251,135.5 L251,135.5 C251,206.2 201.4,270.5 127,270.5 L127,270.5 C52.6,270.5 3,206.2 3,135.5" fill="url(#linearGradient-5)"></path>
		<path d="M76.3,132.5 C76.3,182 81.6,250 127,250 L127,250 C172.4,250 177.7,182.6 177.7,133.2 L177.7,133.2 C177.7,79.8 169.2,20.3 127,20.3 L127,20.3 C84.9,20.2 76.3,79.2 76.3,132.5 M77.4,133.3 C77.4,81.2 85.8,24.4 127,24.4 L127,24.4 C168.1,24.4 176.5,81.8 176.5,133.9 L176.5,133.9 C176.5,182.2 171.8,246.8 127.5,246.8 L127.5,246.8 C83.2,246.8 77.4,181.6 77.4,133.3" fill="url(#linearGradient-6)"></path>
	</g>
</svg>