<?xml version="1.0" encoding="UTF-8" standalone="no"?>
<svg width="256px" height="256px" viewBox="0 0 256 256" version="1.1" xmlns="http://www.w3.org/2000/svg" xmlns:xlink="http://www.w3.org/1999/xlink" preserveAspectRatio="xMidYMid">
	<g>
		<path d="M256,128 C256,198.692 198.692,256 128,256 C57.308,256 0,198.692 0,128 C0,57.308 57.308,0 128,0 C198.692,0 256,57.308 256,128" fill="#FC8E2E"></path>
		<path d="M99.372,135.292 C102.878,132.589 105.571,129.29 107.37,125.185 C102.245,128.37 97.567,131.746 92.486,134.332 C83.431,138.94 73.579,140.951 63.527,142.054 C57.748,142.689 52.082,143.819 46.913,146.653 C40.59,150.119 37.329,155.42 37.68,162.706 C38.128,171.985 42.416,179.781 47.036,187.475 C46.911,180.397 46.486,173.722 46.749,167.075 C47.115,157.808 51.889,151.767 61.043,149.347 C67.659,147.598 74.246,145.735 80.815,143.814 C87.409,141.886 93.841,139.556 99.372,135.292 Z M207.131,145.912 C202.55,144.034 197.558,142.783 192.637,142.176 C176.533,140.188 161.382,136.044 148.905,124.856 C148.798,125.301 148.602,125.631 148.688,125.85 C148.966,126.55 149.307,127.234 149.695,127.88 C152.78,133.01 157.197,136.763 162.588,139.1 C167.727,141.328 173.099,143.049 178.44,144.771 C185.087,146.914 191.833,148.748 198.488,150.868 C203.562,152.485 207.138,155.985 208.171,160.992 C209.174,165.853 209.56,171.343 209.658,176.324 C209.731,180.009 209.429,184.791 208.161,187.236 C213.133,180.323 216.997,172.963 217.947,164.493 C218.933,155.706 215.349,149.281 207.131,145.912 Z M117.892,173.692 C127.969,171.94 138.27,172.045 148.317,173.964 C156.758,175.577 163.546,177.125 172.471,181.702 C161.565,174.829 144.923,166.904 131.888,167.085 C115.554,167.312 98.252,173.866 84.137,182.045 C91.718,179.839 106.857,175.611 117.892,173.692 Z M98.632,86.272 C96.299,77.959 95.395,69.477 96.48,60.919 C98.097,48.172 105.62,39.762 114.917,33.297 C103.712,35.073 90.773,48.48 89.839,59.863 C88.776,72.823 93.72,83.929 100.885,94.111 C100.133,91.498 99.367,88.889 98.632,86.272 Z M160.376,219.86 C166.347,222.136 170.598,219.154 176.245,216.623 C159.593,212.99 145.039,205.57 132.036,196.322 C138.71,207.217 148.502,215.335 160.376,219.86 Z M93.915,221.429 C108.671,217.899 120.258,208.821 128.419,196.577 C115.122,205.909 99.879,213.075 82.894,216.677 C87.159,218.516 90.445,219.932 93.915,221.429 Z M151.427,101.013 C162.425,92.739 167.551,82.842 168.123,65.106 C165.262,76.434 160.826,86.271 154.507,94.055 C152.705,78.889 149.243,70.827 132.08,66.708 C147.985,75.061 150.677,87.489 151.427,101.013 Z M130.048991,46.3815105 C127.613991,43.4275105 124.61,42.905 122.161,45.859 C118.972,49.708 118.676,58.089 121.584,62.224 C123.796,65.371 127.84842,65.5460002 129.73942,62.2240002 C132.02642,58.2060002 132.258991,49.0625105 130.048991,46.3815105 Z M125.444,119.456 C109.424,101.492 107.823,90.279 117.091,69.797 C100.042,89.02 103.589,106.412 125.444,119.456 Z M105.119,165.519 C97.846,162.993 90.498,162.3 83.035,163.102 C73.51,164.124 66.999,169.793 65.5,178.534 C76.307,166.244 90.236,164.409 105.119,165.519 Z M128.501,28.435 C133.41641,21.0564224 128.33,14.7838542 128.33,14.7838542 C128.33,14.7838542 128.54593,20.1132547 124.209,26.68 C119.87207,33.2467453 128.33,38.499 128.33,38.499 C128.33,38.499 125.352,33.162 128.501,28.435 Z M167.78,55.037 C166.708,41.027 150.307,29.964 136.547,32.855 C148.87,37.71 160.536,42.957 167.78,55.037 Z" fill="#FFFFFF"></path>
	</g>
</svg>