<?xml version="1.0" encoding="UTF-8"?>
<svg width="256px" height="248px" viewBox="0 0 256 248" version="1.1" xmlns="http://www.w3.org/2000/svg" preserveAspectRatio="xMidYMid">
    <title>Optimizely</title>
    <g>
        <path d="M85.2556223,135.865417 L85.2556223,165.654638 C107.985097,165.628071 129.776062,156.863995 145.848293,141.284598 C161.920525,125.7052 170.96157,104.583082 170.989466,82.5510134 L140.257086,82.5510134 C140.239152,96.6851189 134.438058,110.23606 124.127733,120.230227 C113.816744,130.225059 99.8373963,135.847484 85.2556223,135.865417 L85.2556223,135.865417 Z" fill="#3BE081"></path>
        <path d="M85.2469878,217.922268 C70.7701568,217.922268 56.8865199,212.347665 46.649987,202.425231 C36.4133877,192.502797 30.6625735,179.044844 30.6625735,165.01236 C30.6625735,150.979213 36.4133877,137.521924 46.649987,127.598825 C56.8865199,117.676391 70.7701568,112.101788 85.2469878,112.101788 L85.2469878,82.5316697 C74.0678934,82.5164752 62.9956682,84.6352626 52.6616976,88.7678944 C42.3277271,92.899862 32.9345912,98.9653061 25.0186951,106.616188 C17.102799,114.267069 10.8190998,123.355273 6.52640326,133.360067 C2.23370009,143.365526 0.0160566163,154.092303 0,164.928007 C-0.0158828754,175.763712 2.17013647,186.496466 6.43332938,196.513881 C10.6965555,206.530631 16.9534211,215.635439 24.8467345,223.308903 C32.7400479,230.981703 42.1152506,237.073051 52.4369999,241.233579 C62.7587492,245.394772 73.8247974,247.544776 85.0038918,247.560053 L85.2469878,247.560053 L85.2469878,217.922268 Z" fill="#0037FF"></path>
        <path d="M85.2556223,217.922932 L85.2556223,247.492969 C107.832332,247.492969 129.48448,238.799963 145.448447,223.325508 C161.412414,207.851054 170.381062,186.863103 170.381062,164.97915 L139.840634,164.97915 C139.831336,179.011634 134.078728,192.468259 123.844786,202.394014 C113.611507,212.319769 99.7331175,217.904999 85.2556223,217.922932 Z" fill="#00CCFF"></path>
        <path d="M85.2556223,52.943782 L85.2556223,82.5138184 C107.832332,82.5138184 129.48448,73.8208122 145.448447,58.3462914 C161.412414,42.8719034 170.381062,21.8840852 170.381062,0 L139.840634,0 C139.831336,14.0330147 134.078728,27.4891746 123.844786,37.4151292 C113.611507,47.3411501 99.7331175,52.9259151 85.2556223,52.943782 Z" fill="#861DFF"></path>
        <path d="M170.875224,52.943782 L170.875224,82.5138184 C193.451934,82.5138184 215.103417,73.8208122 231.067385,58.3462914 C247.032016,42.8719034 256,21.8840852 256,0 L225.476841,0 C225.467543,14.0358708 219.712278,27.494621 209.475015,37.4211069 C199.237751,47.3475264 185.355376,52.9303652 170.875224,52.943782 Z" fill="#FF8110"></path>
    </g>
</svg>
