<?xml version="1.0" encoding="UTF-8"?>
<svg width="256px" height="259px" viewBox="0 0 256 259" version="1.1" xmlns="http://www.w3.org/2000/svg" preserveAspectRatio="xMidYMid">
    <title>pandacss</title>
    <g>
        <path d="M0,29.6421081 C0,13.2711996 13.2712538,0 29.6421623,0 L226.358302,0 C242.728824,0 256,13.2711996 256,29.6421081 L256,229.052455 C256,245.423751 242.728824,258.694927 226.358302,258.694927 L29.6421623,258.694927 C13.2712538,258.694927 0,245.423751 0,229.052455 L0,29.6421081 Z" fill="#F6E458"></path>
        <path d="M164.056125,57.8249988 C149.932067,53.7678084 135.525265,53.2164178 120.844239,54.529437 C112.62838,55.3830931 104.730125,57.013948 97.1115152,59.8757101 C80.6441637,66.0613084 68.2802487,76.7739952 60.9076656,92.9043773 C55.6221245,104.468241 53.711856,116.751748 53.5127728,129.355958 C53.3023799,142.675162 54.9715797,155.810776 57.6238784,168.834066 C60.0279815,180.63807 63.2295792,192.21123 67.8019844,203.383125 C68.236404,204.444385 68.7774918,204.80227 69.9369768,204.799957 C84.3980815,204.76896 98.8598835,204.76896 113.321685,204.76896 C117.60236,204.76896 121.88381,204.76896 126.165259,204.768185 C126.492933,204.768185 126.820607,204.750369 127.197858,204.729453 C127.389969,204.719383 127.595249,204.707763 127.819896,204.697693 C127.733136,204.490863 127.655671,204.301076 127.58208,204.122908 C127.439546,203.77277 127.314829,203.468335 127.175393,203.170098 C126.129626,200.93293 125.062168,198.705833 123.994711,196.477961 C121.679304,191.64574 119.364672,186.81352 117.270813,181.886793 C110.919519,166.946262 106.056313,151.562636 104.572098,135.278875 C103.917525,128.094065 104.008158,120.950311 106.002088,113.949092 C108.280312,105.946259 113.169856,100.296791 121.27649,97.9349061 C128.720805,95.7666815 136.268922,95.7806251 143.672181,98.1750453 C150.279882,100.311509 154.587669,104.825352 156.420474,111.583333 C157.827999,116.773438 157.827224,122.019318 156.762866,127.252028 C155.942519,131.28017 154.29253,134.956623 151.321776,137.897166 C145.992235,143.172482 139.337281,144.385573 132.195851,143.981209 C130.925438,143.909167 129.658897,143.770506 128.353624,143.626423 C127.742431,143.559804 127.122717,143.491635 126.489834,143.428889 C126.507651,143.631071 126.517721,143.816985 126.527792,143.991279 C126.545609,144.334446 126.561876,144.631909 126.632369,144.916203 C126.936803,146.139363 127.227294,147.367172 127.51701,148.59498 C128.215738,151.552565 128.914466,154.510151 129.812276,157.405765 C131.576912,163.091641 133.627391,168.64118 135.952868,174.05903 C152.528669,172.765377 167.795325,168.645054 183.999298,158.917867 C184.242536,158.764488 184.464084,158.625827 184.685631,158.48794 C191.645795,154.15459 197.278995,148.533783 201.163828,141.275383 C207.455475,129.520956 208.681734,116.950832 206.812521,103.976343 C204.883661,90.5858721 198.874759,79.3465832 188.530182,70.5306086 C181.356218,64.4158126 173.059796,60.4112979 164.056125,57.8249988 Z" fill="#000000"></path>
    </g>
</svg>
