<?xml version="1.0" encoding="utf-8"?>
<!-- Generator: Adobe Illustrator 14.0.0, SVG Export Plug-In . SVG Version: 6.00 Build 43363)  -->
<!DOCTYPE svg PUBLIC "-//W3C//DTD SVG 1.1//EN" "http://www.w3.org/Graphics/SVG/1.1/DTD/svg11.dtd">
<svg version="1.1" id="katman_1" xmlns="http://www.w3.org/2000/svg" xmlns:xlink="http://www.w3.org/1999/xlink" x="0px" y="0px"
	 width="342px" height="322px" viewBox="0 0 342 322" enable-background="new 0 0 342 322" xml:space="preserve">
<rect x="0.836" y="0" fill="#52DAFC" width="324.307" height="306.057"/>
<linearGradient id="SVGID_1_" gradientUnits="userSpaceOnUse" x1="179.0635" y1="15.9397" x2="179.0635" y2="321.9958">
	<stop  offset="0" style="stop-color:#137CCE"/>
	<stop  offset="1" style="stop-color:#074478"/>
</linearGradient>
<rect x="16.909" y="15.94" fill="url(#SVGID_1_)" width="324.308" height="306.056"/>
<linearGradient id="SVGID_2_" gradientUnits="userSpaceOnUse" x1="8.8706" y1="322.0256" x2="8.8706" y2="7.324219e-004">
	<stop  offset="0" style="stop-color:#012D54"/>
	<stop  offset="1" style="stop-color:#085A9C"/>
</linearGradient>
<polygon fill="url(#SVGID_2_)" points="0.836,306.131 16.905,322.026 16.905,15.895 0.836,0 "/>
<path fill="#245963" d="M184.945,138.054c0,9.685-0.544,16.002-3.561,23.465c-3.021,7.464-4.794,12.038-10.14,17.7
	c-5.298,5.606-12.515,10.708-20.637,14.119c-9.214,3.869-18.297,6.449-29.669,6.449h-14.997v50.131c0,0.89-0.025,3.271-0.758,3.817
	c-1.982,1.474-13.49,1.107-16.955,1.107c-3.378,0-15.771,0.031-16.692-1.383c-0.485-0.743-0.645-2.652-0.645-3.542V94.793
	c0-4.174-0.576-9.22,1.603-11.309c2.176-2.086,6.704-1.218,10.257-1.218l40.121-1.155c5.97,0.014,8.538,0.786,12.378,1.229
	c3.674,0.424,7.918,1.371,13.071,2.393c5.151,1.022,8.904,3.401,13.649,7.005c5.658,4.298,8.186,7.33,11.916,11.55
	c3.732,4.221,6.278,9.96,8.232,15.602C184.072,124.532,184.945,131.037,184.945,138.054z M150.055,139.774
	c0-6.04-0.324-12.061-2.456-15.971c-2.132-3.909-3.033-5.276-6.02-8.601c-2.426-2.699-6.662-4.572-9.952-5.621
	c-3.936-1.253-6.998-1.981-10.641-1.981h-14.973l0.123,64.975h16.094c5.598,0,11.24-2.521,14.927-4.915
	c3.41-2.216,5.481-4.545,8.107-8.046c2.17-2.893,2.685-6.358,3.931-10.135C150.439,145.704,150.055,144.218,150.055,139.774z
	 M287.302,213.703c0,6.754-1.266,12.707-3.797,17.858c-2.532,5.152-5.823,10.924-10.44,14.39c-4.619,3.464-10.095,6.835-16.402,8.57
	c-6.311,1.731-13.449,2.303-20.823,2.303c-4.444,0-8.766-0.625-12.808-1.292c-4.046-0.665-7.583-2.021-10.781-3.038
	c-3.196-1.021-5.791-2.344-7.924-3.411c-2.132-1.067-4.09-2.2-5.068-3.132c-0.978-0.934-1.474-9.726-1.474-13.637
	c0-2.576,0.389-14.152,0.922-14.466c0.535-0.312,1.166-0.737,1.966-0.737c0.979,0,3.632,1.839,5.544,2.947
	c1.91,1.113,4.249,2.076,7.095,3.41c2.844,1.334,5.021,1.98,8.799,3.133c3.776,1.153,8.287,2.303,13.085,2.303
	c3.02,0,5.496,0.507,7.879,0c8.661-1.843,9.255-4.619,10.272-11.841c0.522-3.699-8.201-11.439-17.415-14.02
	c-10.662-2.985-25.309-13.882-29.724-19.06c-2.549-2.989-4.886-6.264-6.531-10.262c-1.646-3.999-2.463-8.797-2.463-14.394
	c0-5.685,1.109-10.904,3.33-15.658c2.219-4.752,5.418-8.817,9.595-12.194c4.178-3.375,9.264-5.998,15.26-7.864
	c5.997-1.865,12.727-2.799,20.192-2.799c3.729,0,7.35,0.267,10.859,0.8c3.511,0.533,6.685,1.199,9.528,1.999
	c2.846,0.8,5.244,1.666,7.198,2.599c1.952,0.934,3.353,1.733,4.197,2.399c0.845,0.667,1.445,1.333,1.799,1.999
	c0.354,0.667,0.62,1.467,0.8,2.399c0.178,0.933,0.325,7.841,0.325,9.884c0,2.398-0.381,11.474-0.736,11.978
	c-0.554,0.783-0.903,1.152-1.614,1.152c-0.801,0-3.426-1.509-5.112-2.442c-1.688-0.933-4.287-2.021-6.819-3.087
	c-2.309-0.973-13.742-3.471-20.132-3.086c-6.271,0.377-15.192,3.868-15.389,10.55c-0.184,6.312,13.382,13.858,16.894,15.1
	c3.508,1.246,7.063,2.599,10.662,4.064c3.598,1.466,7.149,3.178,10.662,5.131c3.508,1.955,6.641,4.354,9.395,7.197
	c2.752,2.845,4.976,6.243,6.663,10.194C286.456,203.596,287.302,208.286,287.302,213.703z"/>
<linearGradient id="SVGID_3_" gradientUnits="userSpaceOnUse" x1="179.0625" y1="82.3591" x2="179.0625" y2="258.075">
	<stop  offset="0" style="stop-color:#4DD8FC"/>
	<stop  offset="1" style="stop-color:#41C3F1"/>
</linearGradient>
<path fill="url(#SVGID_3_)" d="M184.945,139.304c0,9.685-0.544,16.002-3.561,23.465c-3.021,7.464-4.794,12.038-10.14,17.7
	c-5.298,5.606-12.515,10.708-20.637,14.119c-9.214,3.869-18.297,6.449-29.669,6.449h-14.997v50.131c0,0.89-0.025,3.271-0.758,3.817
	c-1.982,1.474-13.49,1.107-16.955,1.107c-3.378,0-15.771,0.031-16.692-1.383c-0.485-0.743-0.645-2.652-0.645-3.542V96.043
	c0-4.174-0.576-9.22,1.603-11.309c2.176-2.086,6.704-1.218,10.257-1.218l40.121-1.155c6.938-0.048,8.538,0.786,12.378,1.229
	c3.674,0.424,7.918,1.371,13.071,2.393c5.151,1.022,8.904,3.401,13.649,7.005c5.658,4.298,8.186,7.33,11.916,11.55
	c3.732,4.221,6.278,9.96,8.232,15.602C184.072,125.782,184.945,132.287,184.945,139.304z M150.055,141.024
	c0-6.04-0.324-12.061-2.456-15.971c-2.132-3.909-3.033-5.276-6.02-8.601c-2.426-2.699-6.662-4.572-9.952-5.621
	c-3.936-1.253-6.998-1.981-10.641-1.981h-14.973l0.123,64.975h16.094c5.598,0,11.24-2.521,14.927-4.915
	c3.41-2.216,5.481-4.545,8.107-8.046c2.17-2.894,2.685-6.358,3.931-10.136C150.439,146.954,150.055,145.468,150.055,141.024z
	 M287.302,214.953c0,6.754-1.266,12.707-3.797,17.858c-2.532,5.152-5.823,10.924-10.44,14.39c-4.619,3.464-10.095,6.835-16.402,8.57
	c-6.311,1.731-13.449,2.303-20.823,2.303c-4.444,0-8.766-0.625-12.808-1.292c-4.046-0.665-7.583-2.021-10.781-3.038
	c-3.196-1.021-5.791-2.344-7.924-3.411c-2.132-1.067-4.09-2.2-5.068-3.132c-0.978-0.934-1.474-9.726-1.474-13.637
	c0-2.576,0.389-14.152,0.922-14.466c0.535-0.312,1.166-0.737,1.966-0.737c0.979,0,3.632,1.839,5.544,2.947
	c1.91,1.113,4.249,2.076,7.095,3.41c2.844,1.334,5.021,1.98,8.799,3.133c3.776,1.153,8.287,2.303,13.085,2.303
	c3.02,0,5.496,0.507,7.879,0c8.661-1.843,9.255-4.619,10.272-11.841c0.522-3.699-8.201-11.439-17.415-14.02
	c-10.662-2.985-25.309-13.882-29.724-19.06c-2.549-2.989-4.886-6.264-6.531-10.262c-1.646-3.999-2.463-8.797-2.463-14.395
	c0-5.685,1.109-10.904,3.33-15.658c2.219-4.752,5.418-8.817,9.595-12.194c4.178-3.375,9.264-5.998,15.26-7.864
	c5.997-1.865,12.727-2.799,20.192-2.799c3.729,0,7.35,0.267,10.859,0.8c3.511,0.533,6.685,1.199,9.528,1.999
	c2.846,0.8,5.244,1.666,7.198,2.599c1.952,0.934,3.353,1.733,4.197,2.399c0.845,0.667,1.445,1.333,1.799,1.999
	c0.354,0.667,0.62,1.467,0.8,2.399c0.178,0.933,0.325,7.841,0.325,9.884c0,2.398-0.381,11.474-0.736,11.978
	c-0.554,0.783-0.903,1.152-1.614,1.152c-0.801,0-3.426-1.509-5.112-2.442c-1.688-0.933-4.287-2.021-6.819-3.087
	c-2.309-0.973-13.742-3.471-20.132-3.086c-6.271,0.377-15.192,3.868-15.389,10.55c-0.184,6.312,13.382,13.858,16.894,15.1
	c3.508,1.246,7.063,2.599,10.662,4.064c3.598,1.466,7.149,3.178,10.662,5.131c3.508,1.955,6.641,4.354,9.395,7.197
	c2.752,2.845,4.976,6.243,6.663,10.194C286.456,204.846,287.302,209.536,287.302,214.953z"/>
</svg>
