<?xml version="1.0" encoding="utf-8"?>
<svg width="256px" height="135px" viewBox="0 0 256 135" version="1.1" xmlns="http://www.w3.org/2000/svg" xmlns:xlink="http://www.w3.org/1999/xlink" preserveAspectRatio="xMidYMid">
	<defs>
		<radialGradient id="radialGradient-1" cx="0.8366" cy="-125.811" r="363.0565" gradientTransform="matrix(0.463 0 0 0.463 76.4644 81.9182)" gradientUnits="userSpaceOnUse">
			<stop offset="0" style="stop-color:#FFFFFF"/>
			<stop offset="0.5" style="stop-color:#4C6B97"/>
			<stop offset="1" style="stop-color:#231F20"/>
		</radialGradient>
	</defs>
	<g>
		<ellipse fill="url(#radialGradient-1)" cx="128" cy="67.3" rx="128" ry="67.3"/>
		<ellipse fill="#6181B6" cx="128" cy="67.3" rx="123" ry="62.3"/>
		<g>
			<path fill="#FFFFFF" d="M152.9,87.5c0,0,6.1-31.4,6.1-31.4c1.4-7.1,0.2-12.4-3.4-15.7c-3.5-3.2-9.5-4.8-18.3-4.8h-10.6l3-15.6
				c0.1-0.6,0-1.2-0.4-1.7c-0.4-0.5-0.9-0.7-1.5-0.7h-14.6c-1,0-1.8,0.7-2,1.6l-6.5,33.3c-0.6-3.8-2-7-4.4-9.6
				c-4.3-4.9-11-7.4-20.1-7.4H52.1c-1,0-1.8,0.7-2,1.6L37,104.7c-0.1,0.6,0,1.2,0.4,1.7c0.4,0.5,0.9,0.7,1.5,0.7h14.7
				c1,0,1.8-0.7,2-1.6l3.2-16.3h10.9c5.7,0,10.6-0.6,14.3-1.8c3.9-1.3,7.4-3.4,10.5-6.3c2.5-2.3,4.6-4.9,6.2-7.7l-2.6,13.5
				c-0.1,0.6,0,1.2,0.4,1.7s0.9,0.7,1.5,0.7h14.6c1,0,1.8-0.7,2-1.6l7.2-37h10c4.3,0,5.5,0.8,5.9,1.2c0.3,0.3,0.9,1.5,0.2,5.2
				l-5.8,29.9c-0.1,0.6,0,1.2,0.4,1.7c0.4,0.5,0.9,0.7,1.5,0.7H151C151.9,89.1,152.7,88.4,152.9,87.5z M85.3,61.5
				c-0.9,4.7-2.6,8.1-5.1,10c-2.5,1.9-6.6,2.9-12,2.9h-6.5l4.7-24.2h8.4c6.2,0,8.7,1.3,9.7,2.4C85.8,54.2,86.1,57.3,85.3,61.5z"/>
			<path fill="#FFFFFF" d="M215.3,42.9c-4.3-4.9-11-7.4-20.1-7.4h-28.3c-1,0-1.8,0.7-2,1.6l-13.1,67.5c-0.1,0.6,0,1.2,0.4,1.7
				c0.4,0.5,0.9,0.7,1.5,0.7h14.7c1,0,1.8-0.7,2-1.6l3.2-16.3h10.9c5.7,0,10.6-0.6,14.3-1.8c3.9-1.3,7.4-3.4,10.5-6.3
				c2.6-2.4,4.8-5.1,6.4-8c1.6-2.9,2.8-6.1,3.5-9.6C220.9,54.7,219.6,47.9,215.3,42.9z M200,61.5c-0.9,4.7-2.6,8.1-5.1,10
				c-2.5,1.9-6.6,2.9-12,2.9h-6.5l4.7-24.2h8.4c6.2,0,8.7,1.3,9.7,2.4C200.6,54.2,200.9,57.3,200,61.5z"/>
		</g>
		<g>
			<path fill="#000004" d="M74.8,48.2c5.6,0,9.3,1,11.2,3.1c1.9,2.1,2.3,5.6,1.3,10.6c-1,5.2-3,9-5.9,11.2c-2.9,2.2-7.3,3.3-13.2,3.3
				h-8.9l5.5-28.2H74.8z M39,105h14.7l3.5-17.9h12.6c5.6,0,10.1-0.6,13.7-1.8c3.6-1.2,6.8-3.1,9.8-5.9c2.5-2.3,4.5-4.8,6-7.5
				c1.5-2.7,2.6-5.7,3.2-9c1.6-8,0.4-14.2-3.5-18.7c-3.9-4.5-10.1-6.7-18.6-6.7H52.1L39,105z"/>
			<path fill="#000004" d="M113.3,19.6h14.6l-3.5,17.9h13c8.2,0,13.8,1.4,16.9,4.3c3.1,2.9,4,7.5,2.8,13.9L151,87.1h-14.8l5.8-29.9
				c0.7-3.4,0.4-5.7-0.7-6.9c-1.1-1.2-3.6-1.9-7.3-1.9h-11.7l-7.5,38.7h-14.6L113.3,19.6z"/>
			<path fill="#000004" d="M189.5,48.2c5.6,0,9.3,1,11.2,3.1c1.9,2.1,2.3,5.6,1.3,10.6c-1,5.2-3,9-5.9,11.2c-2.9,2.2-7.3,3.3-13.2,3.3
				h-8.9l5.5-28.2H189.5z M153.7,105h14.7l3.5-17.9h12.6c5.6,0,10.1-0.6,13.7-1.8c3.6-1.2,6.8-3.1,9.8-5.9c2.5-2.3,4.5-4.8,6-7.5
				c1.5-2.7,2.6-5.7,3.2-9c1.6-8,0.4-14.2-3.5-18.7c-3.9-4.5-10.1-6.7-18.6-6.7h-28.3L153.7,105z"/>
		</g>
	</g>
</svg>
