<?xml version="1.0" encoding="UTF-8"?>
<svg width="512px" height="100px" viewBox="0 0 512 100" version="1.1" xmlns="http://www.w3.org/2000/svg" preserveAspectRatio="xMidYMid">
    <title>pipedream</title>
    <g>
        <path d="M55.604637,52.0642668 C55.604637,57.6162109 55.0129976,62.4439884 53.8344519,66.538133 C52.6511731,70.6322776 51.004049,74.0353874 48.8883466,76.7427293 C46.7726441,79.4500712 44.2025625,81.4616451 41.1828351,82.7821843 C38.1631076,84.1027234 34.812062,84.7606264 31.1344316,84.7606264 C28.4439188,84.7812489 25.7634073,84.4308553 23.1685987,83.7193411 C20.7073789,83.0235731 18.4638823,81.6699022 16.4523083,79.6583282 L16.1399227,79.7624568 L16.3481798,88.196868 L16.3481798,99.7551352 L0,99.7551352 L0,21.0339638 L11.3500102,20.3050641 L14.4738662,25.8238763 C16.7255398,23.7922096 19.3395662,22.202599 22.1793777,21.1380923 C25.1747215,20.0130628 28.3513811,19.4483233 31.5509457,19.4713189 C35.4368333,19.4713189 38.8730749,20.0447427 41.8596705,21.1901566 C44.8415331,22.3355705 47.3595504,24.1720192 49.4089892,26.7089689 C51.4584281,29.2411855 53.0014236,32.592231 54.042709,36.7573724 C55.0839943,40.9225137 55.604637,46.0248119 55.604637,52.0642668 Z M38.8399431,51.9601383 C38.8399431,48.3487714 38.6127535,45.3669089 38.1631076,43.0050844 C37.7134616,40.6432599 37.0176937,38.7878788 36.0805369,37.4342079 C35.2030301,36.126349 33.9238052,35.1395183 32.4360382,34.6227374 C30.7391125,34.070616 28.9616887,33.8066421 27.1775473,33.8417734 C25.0013028,33.8008632 22.8451175,34.2641757 20.877771,35.1954444 C19.0365892,36.0947363 17.5267255,37.3490118 16.3481798,38.9440716 L16.3481798,66.0174903 C17.3184684,67.5462865 18.6721393,68.8289607 20.4091926,69.8702461 C22.1462459,70.9115314 24.2950801,71.4321741 26.8651617,71.4321741 C28.529262,71.4549694 30.1848418,71.1907812 31.7592028,70.6512101 C33.2170022,70.1305674 34.4665446,69.1602788 35.50783,67.7356111 C36.5491153,66.3156766 37.3632111,64.3325013 37.9548505,61.8002847 C38.5464899,59.2680681 38.8399431,55.9880193 38.8399431,51.9601383 Z M63.3101485,83.7193411 L63.3101485,21.0339638 L79.8665853,20.3050641 L79.8665853,83.7193411 L63.3101485,83.7193411 L63.3101485,83.7193411 Z M80.8037421,6.97661176 C80.8037421,9.2674395 80.0748424,10.9855603 78.6170429,12.1309742 C77.1592434,13.276388 74.8305508,13.849095 71.6404312,13.849095 C68.5165751,13.849095 66.1926156,13.3473848 64.6638194,12.3392312 C63.1350232,11.3310777 62.3729917,9.54669329 62.3729917,6.97661176 C62.3729917,2.32395955 65.4637159,-1.42108547e-14 71.6404312,-1.42108547e-14 C74.8352839,-1.42108547e-14 77.1592434,0.591639396 78.6170429,1.77018507 C80.0748424,2.95346386 80.8037421,4.68578401 80.8037421,6.97661176 Z M146.092333,52.0642668 C146.092333,57.6162109 145.500693,62.4439884 144.322148,66.538133 C143.138869,70.6322776 141.491745,74.0353874 139.376042,76.7427293 C137.26034,79.4500712 134.690258,81.4616451 131.670531,82.7821843 C128.650803,84.1027234 125.299758,84.7606264 121.622127,84.7606264 C118.931615,84.7812489 116.251103,84.4308553 113.656294,83.7193411 C111.195075,83.0235731 108.951578,81.6699022 106.940004,79.6583282 L106.627618,79.7624568 L106.835876,88.196868 L106.835876,99.7551352 L90.4876957,99.7551352 L90.4876957,21.0339638 L101.837706,20.3050641 L104.961562,25.8238763 C107.213236,23.7922096 109.827262,22.202599 112.667073,21.1380923 C115.662417,20.0130628 118.839077,19.4483233 122.038641,19.4713189 C125.924529,19.4713189 129.360771,20.0447427 132.347366,21.1901566 C135.329229,22.3355705 137.847246,24.1720192 139.896685,26.7089689 C141.946124,29.2411855 143.489119,32.592231 144.530405,36.7573724 C145.57169,40.9225137 146.092333,46.0248119 146.092333,52.0642668 L146.092333,52.0642668 Z M129.327639,51.9601383 C129.327639,48.3487714 129.100449,45.3669089 128.650803,43.0050844 C128.201157,40.6432599 127.505389,38.7878788 126.568233,37.4342079 C125.690726,36.126349 124.411501,35.1395183 122.923734,34.6227374 C121.226808,34.070616 119.449384,33.8066421 117.665243,33.8417734 C115.488999,33.8008632 113.332813,34.2641757 111.365467,35.1954444 C109.524285,36.0947363 108.014421,37.3490118 106.835876,38.9440716 L106.835876,66.0174903 C107.806164,67.5462865 109.159835,68.8289607 110.896888,69.8702461 C112.633942,70.9115314 114.782776,71.4321741 117.352857,71.4321741 C119.016958,71.4549694 120.672538,71.1907812 122.246899,70.6512101 C123.704698,70.1305674 124.95424,69.1602788 125.995526,67.7356111 C127.036811,66.3156766 127.850907,64.3325013 128.442546,61.8002847 C129.034186,59.2680681 129.327639,55.9880193 129.327639,51.9601383 L129.327639,51.9601383 Z M180.558877,84.8647549 C169.658513,84.8647549 161.69268,82.0343521 156.661379,76.3782794 C151.630077,70.7222068 149.11206,62.3729917 149.11206,51.3353671 C149.11206,41.2680311 151.369756,33.4441918 155.880415,27.8543828 C160.391074,22.2693069 167.40555,19.4720358 176.914379,19.4720358 C184.965408,19.4720358 191.317248,21.8669921 195.9699,26.6569046 C200.622553,31.4468172 202.946512,38.8399431 202.946512,48.8362823 C202.946512,50.0195611 202.91338,51.2975022 202.842384,52.689038 C202.782675,53.9418852 202.678481,55.1922159 202.529998,56.4376652 L165.772626,56.4376652 C166.18914,61.7150887 167.732135,65.4447834 170.406345,67.6314826 C173.080555,69.8181818 177.122636,70.9115314 182.53732,70.9115314 C188.368517,70.9115314 193.991458,69.8702461 199.406142,67.7876754 L201.176327,80.8037421 C198.196908,82.095057 195.09097,83.072206 191.908888,83.7193411 C188.368517,84.4813726 184.586758,84.8647549 180.558877,84.8647549 Z M188.16026,45.7124263 C188.018267,41.0597741 186.976982,37.7607928 185.036404,35.8202156 C183.095827,33.8796384 180.421617,32.9046166 177.018507,32.9046166 C173.13262,32.9046166 170.321149,33.8938377 168.584096,35.8722798 C166.847043,37.850722 165.805757,41.1307708 165.46024,45.7124263 L188.16026,45.7124263 Z M248.867195,83.7193411 L247.305267,78.3046573 L246.992882,78.2005288 C245.118568,80.4250929 242.794609,82.1053488 240.01627,83.2507627 C237.237931,84.3961765 233.943683,84.9688835 230.124059,84.9688835 C221.93577,84.9688835 215.85845,82.2946734 211.901566,76.9509864 C207.944682,71.6025662 205.96624,63.2391517 205.96624,51.8560098 C205.96624,41.4431564 207.944682,33.4252593 211.901566,27.8023185 C215.85845,22.1793777 221.864773,19.3679073 229.915802,19.3679073 C235.955257,19.3679073 241.090687,21.2753527 245.326825,25.0949766 L245.535082,24.8867195 L245.326825,16.5564369 L245.326825,2.70734188 L261.466748,1.87431361 L261.466748,83.7193411 L248.867195,83.7193411 Z M245.326825,38.631686 C244.356537,37.2448832 242.950801,36.0994694 241.10962,35.1954444 C239.268438,34.2961525 237.133803,33.8417734 234.705715,33.8417734 C232.481151,33.8417734 230.61157,34.154159 229.082774,34.7789302 C227.543691,35.4132186 226.235577,36.503314 225.334147,37.9027863 C224.363858,39.3605857 223.66809,41.2869636 223.251576,43.6819199 C222.835062,46.0768761 222.626805,49.0445394 222.626805,52.5849095 C222.626805,56.26254 222.81613,59.3343317 223.199512,61.8002847 C223.578161,64.2615046 224.240797,66.2446799 225.177954,67.7356111 C226.115111,69.2265424 227.345721,70.2867602 228.874517,70.9115314 C230.403313,71.5363026 232.310759,71.8486882 234.601586,71.8486882 C237.583449,71.8486882 239.931074,71.2949138 241.630262,70.1826317 C243.334184,69.0703496 244.564794,67.8586721 245.326825,66.538133 L245.326825,38.631686 L245.326825,38.631686 Z M270.52593,83.7193411 L270.52593,21.0339638 L283.437869,20.4091926 L284.895668,30.9261745 L285.208054,30.9261745 C287.219628,27.1065506 289.704513,24.2619483 292.653244,22.3876347 C295.591507,20.5166386 299.010188,19.5398728 302.49339,19.5761643 C303.880193,19.5761643 305.1676,19.6613604 306.346146,19.8364857 C307.529425,20.0116109 308.532845,20.2340673 309.365874,20.5133211 L308.324588,36.4449868 C307.276823,36.0793866 306.195616,35.8178042 305.096604,35.6640228 C303.889737,35.4885568 302.671658,35.4015511 301.452105,35.4037014 C297.215967,35.4037014 293.713462,36.8615009 290.935123,39.7770999 C288.156784,42.6926988 286.769982,46.7868434 286.769982,52.0642668 L286.769982,83.7193411 L270.52593,83.7193411 L270.52593,83.7193411 Z M341.54159,84.8647549 C330.641226,84.8647549 322.675393,82.0343521 317.644092,76.3782794 C312.612791,70.7222068 310.094773,62.3729917 310.094773,51.3353671 C310.094773,41.2680311 312.352469,33.4441918 316.863128,27.8543828 C321.373787,22.2693069 328.388263,19.4720358 337.897092,19.4720358 C345.948121,19.4720358 352.299961,21.8669921 356.952613,26.6569046 C361.605266,31.4468172 363.929225,38.8399431 363.929225,48.8362823 C363.929225,50.0195611 363.896093,51.2975022 363.825097,52.689038 C363.765388,53.9418852 363.661194,55.1922159 363.512711,56.4376652 L326.755339,56.4376652 C327.171853,61.7150887 328.714848,65.4447834 331.389058,67.6314826 C334.063268,69.8181818 338.105349,70.9115314 343.520033,70.9115314 C349.35123,70.9115314 354.974171,69.8702461 360.388855,67.7876754 L362.15904,80.8037421 C359.179621,82.095057 356.073683,83.072206 352.891601,83.7193411 C349.35123,84.4813726 345.569471,84.8647549 341.54159,84.8647549 L341.54159,84.8647549 Z M349.142973,45.7124263 C349.00098,41.0597741 347.959695,37.7607928 346.019117,35.8202156 C344.07854,33.8796384 341.40433,32.9046166 338.00122,32.9046166 C334.115333,32.9046166 331.303862,33.8938377 329.566809,35.8722798 C327.829756,37.850722 326.78847,41.1307708 326.442953,45.7124263 L349.142973,45.7124263 L349.142973,45.7124263 Z M404.331096,77.6798861 L404.018711,77.5757576 C402.078133,79.8665853 399.645312,81.6367704 396.729713,82.8863128 C393.814114,84.1358552 390.552998,84.7606264 386.941631,84.7606264 C380.973173,84.7606264 376.216392,83.0425056 372.676022,79.606264 C369.135652,76.1700224 367.365467,70.9115314 367.365467,63.8307911 C367.365467,60.9151922 367.867177,58.2457152 368.87533,55.812894 C369.883484,53.384806 371.33655,51.3164346 373.248729,49.6172463 C375.156174,47.9133248 377.499066,46.5785864 380.277405,45.6082977 C383.055744,44.6380091 386.245863,44.1504983 389.85723,44.1504983 C392.219054,44.1504983 394.401021,44.3066911 396.417328,44.6190767 C398.428902,44.9314623 400.270083,45.3669089 401.93614,45.9206833 L401.93614,42.2761847 C401.93614,39.0813319 401.036848,36.7384399 399.228798,35.2475086 C397.425481,33.7565774 394.334757,33.0087452 389.961359,33.0087452 C386.491985,33.0087452 383.453325,33.287999 380.850112,33.8417734 C378.246899,34.3955479 375.487492,35.261708 372.571893,36.4449868 L371.218222,23.5330486 C374.413075,22.1462459 377.797253,21.1049605 381.370755,20.4091926 C385.164028,19.6949156 389.017081,19.346223 392.876957,19.3679073 C397.52961,19.3679073 401.448629,19.8696175 404.643482,20.877771 C407.838335,21.8859245 410.422615,23.4289201 412.401058,25.5114907 C414.3795,27.5940614 415.804167,30.2304066 416.670327,33.4252593 C417.536488,36.620112 417.971934,40.3687393 417.971934,44.6711409 L417.971934,83.7193411 L405.580639,83.7193411 L404.331096,77.6798861 L404.331096,77.6798861 Z M401.93614,56.6459223 C400.831,56.2011706 399.677815,55.8866656 398.499898,55.7087655 C396.676155,55.4076342 394.829368,55.268254 392.981086,55.2922514 C385.971342,55.2922514 382.464104,58.07059 382.464104,63.6225341 C382.464104,66.7463901 383.297132,68.9141568 384.963189,70.1305674 C386.629245,71.346978 388.782813,71.9528168 391.419158,71.9528168 C392.805961,71.9528168 394.1265,71.7634922 395.376042,71.3801098 C396.625585,71.0014606 397.737867,70.4618855 398.708155,69.7661176 C399.678444,69.0703496 400.459408,68.2893856 401.051047,67.4232255 C401.642687,66.5570655 401.93614,65.6009762 401.93614,64.5596909 L401.93614,56.6459223 L401.93614,56.6459223 Z M495.860077,83.7193411 L495.860077,43.4215985 C495.860077,40.0894855 495.027049,37.6424649 493.360992,36.0805369 C491.694936,34.5186089 489.370976,33.7376449 486.384381,33.7376449 C483.677039,33.7376449 481.457208,34.4854771 479.720155,35.9764084 C477.983101,37.4673397 477.116941,39.7770999 477.116941,42.9009559 L477.116941,83.7193411 L460.977019,83.7193411 L460.977019,42.9009559 C460.977019,39.6351064 460.162923,37.2969475 458.529998,35.8722798 C456.897073,34.4523453 454.65831,33.7376449 451.813708,33.7376449 C449.87313,33.7376449 448.046148,34.1730915 446.34696,35.0392516 C444.643038,35.9054117 443.3083,37.069758 442.338011,38.5275575 L442.338011,83.7193411 L426.09396,83.7193411 L426.09396,21.0339638 L437.756356,20.2009355 L440.359569,26.1362619 C442.549376,24.0741399 445.087836,22.4170895 447.856823,21.2422209 C450.553317,20.078621 453.458524,19.476322 456.395363,19.4720358 C464.238135,19.4720358 469.790079,22.2835062 473.055928,27.906447 C475.209496,24.9908481 477.793777,22.8562131 480.813504,21.5025422 C483.94589,20.125422 487.33626,19.4331475 490.757779,19.4720358 C493.881635,19.4720358 496.74517,19.9595467 499.348383,20.9298353 C501.951597,21.9001239 504.19036,23.3768558 506.064674,25.3552979 C507.938987,27.3337401 509.396787,29.7996931 510.438072,32.7484238 C511.479357,35.6971546 512,39.1523287 512,43.1092129 L512,83.7193411 L495.860077,83.7193411 L495.860077,83.7193411 Z" fill="#000000"></path>
    </g>
</svg>
