<?xml version="1.0" encoding="UTF-8" standalone="no"?>
<svg width="256px" height="193px" viewBox="0 0 256 193" version="1.1" xmlns="http://www.w3.org/2000/svg" xmlns:xlink="http://www.w3.org/1999/xlink" preserveAspectRatio="xMidYMid">
    <g>
        <path d="M69.7418544,31.636948 C59.5904105,16.6608779 43.7534406,5.82788834 25.3517066,2.2497734 L24.697064,2.09732239 C23.6030038,1.91796825 22.5089436,1.72067871 21.4059157,1.58616311 L20.267017,1.42474439 C19.2805692,1.32609962 18.2672184,1.25435796 17.271803,1.14674548 L16.079098,1.05706842 C14.7698128,0.985326765 13.4156891,0.940488232 12.0525977,0.940488232 L11.980856,0.940488232 C6.17874986,0.940488232 1.34515599,5.05666557 0.224192666,10.5000635 C0.071741653,11.2712863 0,12.0604444 0,12.9034089 C0,13.7194702 0.071741653,14.5265638 0.224192666,15.2977865 C1.34515599,20.7770553 6.17874986,24.8932326 11.980856,24.8932326 C37.2249502,24.8932326 57.7520307,45.4382485 57.7520307,70.7002781 L57.7520307,96.9039168 C57.7520307,103.190279 62.5945922,108.266001 68.7554067,108.77716 L69.7418544,108.884773 C70.6206897,108.884773 71.4815895,108.77716 72.2886831,108.597806 C77.6782748,107.44994 81.7316782,102.643249 81.7316782,96.9039168 L81.7316782,70.7002781 C81.7316782,56.1994964 77.3105988,42.7479365 69.7777252,31.5921095 L69.7418544,31.636948" fill="#1D4C5D"></path>
        <path d="M127.493885,115.610553 C117.333473,100.634483 101.496504,89.8104609 83.1037373,86.2144105 L82.440127,86.0798949 C81.3550345,85.9005408 80.269942,85.7301544 79.1489787,85.5687356 L78.0280153,85.4162846 C77.0325999,85.2907367 76.0371845,85.2189951 75.0238336,85.1472534 L73.8580317,85.0396409 C72.5128758,84.976867 71.1766875,84.9230608 69.7956606,84.9230608 L69.7328867,84.9230608 C63.9487159,84.9230608 59.1151221,89.0213027 57.9941587,94.4647006 C57.83274,95.2359234 57.7520307,96.043017 57.7520307,96.8859814 C57.7520307,97.7110104 57.83274,98.5091363 57.9941587,99.2982945 C59.1151221,104.768596 63.9487159,108.866837 69.7328867,108.866837 C94.9769808,108.866837 115.513029,129.429789 115.513029,154.682851 L115.513029,180.886489 C115.513029,187.172852 120.346623,192.257541 126.507437,192.777668 L127.493885,192.867345 C128.363753,192.867345 129.224652,192.759733 130.058649,192.589346 C135.448241,191.414577 139.474741,186.616854 139.474741,180.886489 L139.474741,154.682851 C139.474741,140.182069 135.080565,126.712574 127.529756,115.592617 L127.493885,115.610553" fill="#207D9D"></path>
        <path d="M127.493885,115.610553 C137.663264,100.634483 153.51817,89.8104609 171.893001,86.2144105 L172.556611,86.0798949 C173.623768,85.9005408 174.726796,85.7301544 175.829824,85.5687356 L176.97769,85.4162846 C177.973106,85.2907367 178.968521,85.2189951 179.981872,85.1472534 L181.147674,85.0396409 C182.49283,84.976867 183.837986,84.9230608 185.201077,84.9230608 L185.272819,84.9230608 C191.074925,84.9230608 195.899551,89.0213027 197.011547,94.4647006 C197.15503,95.2359234 197.253675,96.043017 197.253675,96.8859814 C197.253675,97.7110104 197.15503,98.5091363 197.011547,99.2982945 C195.899551,104.768596 191.074925,108.866837 185.272819,108.866837 C160.019757,108.866837 139.474741,129.429789 139.474741,154.682851 L139.474741,180.886489 C139.474741,187.172852 134.641147,192.257541 128.4893,192.777668 L127.493885,192.867345 L127.484917,192.867345 C126.61505,192.867345 125.772085,192.759733 124.964992,192.589346 C119.566432,191.414577 115.504061,186.616854 115.504061,180.886489 L115.504061,154.682851 C115.504061,140.182069 119.925141,126.712574 127.47595,115.592617 L127.493885,115.610553" fill="#51A5CD"></path>
        <path d="M69.7328867,31.636948 C79.902266,16.6608779 95.7392359,5.82788834 114.149938,2.2497734 L114.795612,2.09732239 C115.880705,1.91796825 116.965797,1.72067871 118.077793,1.58616311 L119.22566,1.42474439 C120.20314,1.32609962 121.21649,1.25435796 122.211906,1.14674548 L123.395643,1.05706842 C124.731831,0.985326765 126.076987,0.940488232 127.431111,0.940488232 L127.493885,0.940488232 C133.304959,0.940488232 138.138553,5.05666557 139.241581,10.5000635 C139.402999,11.2712863 139.474741,12.0604444 139.474741,12.9034089 C139.474741,13.7194702 139.402999,14.5265638 139.241581,15.2977865 C138.138553,20.7770553 133.304959,24.8932326 127.493885,24.8932326 C102.267726,24.8932326 81.7316782,45.4382485 81.7316782,70.7002781 L81.7316782,96.9039168 C81.7316782,103.190279 76.8801489,108.266001 70.7283021,108.77716 L69.7328867,108.884773 C68.8630192,108.884773 68.011087,108.77716 67.1681226,108.615742 C61.7964663,107.44994 57.7520307,102.643249 57.7520307,96.9039168 L57.7520307,70.7002781 C57.7520307,56.1994964 62.1551746,42.7479365 69.7059836,31.6100449 L69.7328867,31.636948" fill="#1C5470"></path>
        <path d="M185.272819,31.636948 C175.112407,16.6608779 159.275437,5.82788834 140.891639,2.2497734 L140.236996,2.09732239 C139.125001,1.91796825 138.048876,1.73861412 136.945848,1.58616311 L135.789014,1.42474439 C134.802566,1.32609962 133.807151,1.25435796 132.811735,1.14674548 L131.645933,1.05706842 C130.282842,0.985326765 128.946654,0.940488232 127.583562,0.940488232 L127.493885,0.940488232 C121.709714,0.940488232 116.87612,5.05666557 115.764125,10.5000635 C115.611674,11.2712863 115.530964,12.0604444 115.530964,12.9034089 C115.530964,13.7194702 115.611674,14.5265638 115.764125,15.2977865 C116.87612,20.7770553 121.709714,24.8932326 127.493885,24.8932326 C152.746947,24.8932326 173.291963,45.4382485 173.291963,70.7002781 L173.291963,96.9039168 C173.291963,103.190279 178.125557,108.266001 184.286371,108.795096 L185.272819,108.884773 C186.160622,108.884773 187.012554,108.77716 187.828615,108.597806 C193.227175,107.44994 197.262643,102.643249 197.262643,96.9039168 L197.262643,70.7002781 C197.262643,56.1994964 192.868466,42.7479365 185.290754,31.6100449 L185.272819,31.636948" fill="#247EA2"></path>
        <path d="M185.272819,31.636948 C195.451166,16.6608779 211.288136,5.82788834 229.671934,2.2497734 L230.335545,2.09732239 C231.429605,1.91796825 232.523665,1.72067871 233.626693,1.58616311 L234.774559,1.42474439 C235.761007,1.32609962 236.756423,1.25435796 237.769773,1.14674548 L238.944543,1.05706842 C240.280731,0.985326765 241.61692,0.940488232 242.988979,0.940488232 L243.06072,0.940488232 C248.835923,0.940488232 253.687453,5.05666557 254.790481,10.5000635 C254.960867,11.2712863 255.041576,12.0604444 255.041576,12.9034089 C255.041576,13.7194702 254.960867,14.5265638 254.790481,15.2977865 C253.687453,20.7770553 248.835923,24.8932326 243.06072,24.8932326 C217.816626,24.8932326 197.27161,45.4382485 197.27161,70.7002781 L197.27161,96.9039168 C197.27161,103.190279 192.429049,108.266001 186.277202,108.77716 L185.272819,108.884773 C184.402951,108.884773 183.559987,108.77716 182.743926,108.615742 C177.336398,107.44994 173.291963,102.643249 173.291963,96.9039168 L173.291963,70.7002781 C173.291963,56.1994964 177.704074,42.7479365 185.254883,31.6100449 L185.272819,31.636948" fill="#3298B5"></path>
        <path d="M185.219013,108.884773 C185.048626,108.884773 184.869272,108.875805 184.698886,108.866837 L184.716821,108.866837 C184.887207,108.875805 185.057594,108.884773 185.219013,108.884773 M185.326625,108.884773 L185.353528,108.884773 L185.326625,108.884773 M185.362496,108.884773 C186.214428,108.875805 187.039457,108.768193 187.828615,108.597806 C189.110997,108.328775 190.321638,107.844519 191.415698,107.198844 C189.640092,108.257033 187.577519,108.866837 185.362496,108.884773" fill="#3398B5"></path>
        <path d="M184.698886,108.866837 C184.142888,108.839934 183.595858,108.77716 183.057795,108.678516 C183.595858,108.768193 184.151856,108.839934 184.716821,108.866837 L184.698886,108.866837 M173.489252,99.0651341 C173.354737,98.365653 173.291963,97.6392687 173.291963,96.9039168 L173.291963,96.9756585 L173.291963,96.9935939 L173.291963,97.0384324 L173.291963,97.0743032 L173.291963,97.1101741 C173.291963,97.1191418 173.30093,97.1370772 173.30093,97.1460449 L173.30093,97.1819157 L173.30093,97.2177865 L173.30093,97.2536574 L173.30093,97.2895282 L173.30093,97.3164313 L173.30093,97.3612698 L173.30093,97.388173 C173.30093,97.4061084 173.30093,97.4150761 173.309898,97.4330115 L173.309898,97.4509469 L173.309898,97.5047531 L173.309898,97.5137209 C173.327834,97.9531385 173.38164,98.3835884 173.444414,98.8140383 C173.444414,98.8319737 173.453381,98.8499091 173.453381,98.8768123 C173.453381,98.8768123 173.453381,98.88578 173.462349,98.88578 L173.462349,98.9395862 C173.462349,98.9395862 173.471317,98.9485539 173.471317,98.9575216 C173.471317,98.975457 173.471317,98.9844247 173.480285,99.0023602 L173.480285,99.038231 C173.489252,99.0471987 173.489252,99.0561664 173.489252,99.0651341" fill="#007FA5"></path>
        <path d="M185.272819,108.884773 L186.277202,108.77716 C189.980865,108.472258 193.200271,106.517298 195.182135,103.638664 C194.204655,105.082465 192.913305,106.302073 191.415698,107.198844 C190.321638,107.844519 189.110997,108.328775 187.828615,108.597806 C187.039457,108.768193 186.214428,108.875805 185.362496,108.884773 L185.353528,108.884773 L185.326625,108.884773 L185.272819,108.884773 M173.489252,99.0651341 C173.489252,99.0561664 173.489252,99.0471987 173.480285,99.038231 C173.489252,99.0471987 173.489252,99.0561664 173.489252,99.0651341 M173.480285,99.0023602 C173.471317,98.9844247 173.471317,98.975457 173.471317,98.9575216 C173.471317,98.975457 173.471317,98.9844247 173.480285,99.0023602 M173.462349,98.9395862 L173.462349,98.88578 L173.462349,98.9395862 M173.453381,98.8768123 C173.453381,98.8499091 173.444414,98.8319737 173.444414,98.8140383 C173.444414,98.8319737 173.453381,98.8499091 173.453381,98.8768123 M173.444414,98.8140383 C173.38164,98.3835884 173.327834,97.9531385 173.309898,97.5137209 C173.327834,97.9531385 173.38164,98.3835884 173.444414,98.8140383 M173.309898,97.5047531 L173.309898,97.4509469 L173.309898,97.5047531 M173.309898,97.4330115 C173.30093,97.4150761 173.30093,97.4061084 173.30093,97.388173 C173.30093,97.4061084 173.30093,97.4150761 173.309898,97.4330115 M173.30093,97.3612698 L173.30093,97.3164313 L173.30093,97.3612698 M173.30093,97.2895282 L173.30093,97.2536574 L173.30093,97.2895282 M173.30093,97.2177865 L173.30093,97.1819157 L173.30093,97.2177865 M173.30093,97.1460449 C173.30093,97.1370772 173.291963,97.1191418 173.291963,97.1101741 C173.291963,97.1191418 173.30093,97.1370772 173.30093,97.1460449 M173.291963,97.0743032 L173.291963,97.0384324 L173.291963,97.0743032 M173.291963,96.9935939 L173.291963,96.9756585 L173.291963,96.9935939" fill="#00698B"></path>
        <path d="M185.272819,108.884773 L185.272819,108.884773 L185.219013,108.884773 C185.057594,108.884773 184.887207,108.875805 184.716821,108.866837 C184.151856,108.839934 183.595858,108.768193 183.057795,108.678516 C178.295943,107.781745 174.511571,104.069114 173.543059,99.2982945 C173.525123,99.2265528 173.507188,99.1458435 173.489252,99.0651341 C173.489252,99.0561664 173.489252,99.0471987 173.480285,99.038231 L173.480285,99.0023602 C173.471317,98.9844247 173.471317,98.975457 173.471317,98.9575216 C173.471317,98.9485539 173.462349,98.9395862 173.462349,98.9395862 L173.462349,98.88578 C173.453381,98.88578 173.453381,98.8768123 173.453381,98.8768123 C173.453381,98.8499091 173.444414,98.8319737 173.444414,98.8140383 C173.38164,98.3835884 173.327834,97.9531385 173.309898,97.5137209 L173.309898,97.5047531 L173.309898,97.4509469 L173.309898,97.4330115 C173.30093,97.4150761 173.30093,97.4061084 173.30093,97.388173 L173.30093,97.3612698 L173.30093,97.3164313 L173.30093,97.2895282 L173.30093,97.2536574 L173.30093,97.2177865 L173.30093,97.1819157 L173.30093,97.1460449 C173.30093,97.1370772 173.291963,97.1191418 173.291963,97.1101741 L173.291963,97.0743032 L173.291963,97.0384324 L173.291963,96.9935939 L173.291963,96.9756585 L173.291963,96.9039168 L173.291963,85.9722824 C174.152863,85.8467345 174.977892,85.6942835 175.829824,85.5687356 L176.97769,85.4162846 C177.973106,85.2907367 178.968521,85.2189951 179.981872,85.1472534 L181.147674,85.0396409 C182.49283,84.976867 183.837986,84.9230608 185.201077,84.9230608 L185.272819,84.9230608 L186.689716,85.0575764 L187.18294,85.0934472 L186.689716,85.0575764 L187.308488,85.1113826 L187.568552,85.1651888 L189.21861,85.6046065 L189.514544,85.6942835 C190.016736,85.8915731 190.509959,86.1247334 190.985248,86.3847969 L191.263247,86.5193125 L190.985248,86.3847969 C191.119764,86.4655063 191.263247,86.5462157 191.397762,86.626925 L191.263247,86.5372479 L191.397762,86.626925 C191.882019,86.9138916 192.339372,87.2277614 192.769822,87.5685342 L193.092659,87.8644685 L194.123945,88.859884 L194.437815,89.2096245 L195.504972,90.6444576 C196.204453,91.8192271 196.733548,93.1195446 197.011547,94.4647006 C197.163998,95.2538588 197.253675,96.0788878 197.253675,96.9039168 C197.253675,97.7289458 197.163998,98.5270717 197.011547,99.2982945 C196.688709,100.885579 196.06097,102.347315 195.182135,103.638664 C193.200271,106.517298 189.980865,108.472258 186.277202,108.77716 L185.272819,108.884773 M194.079107,88.8060777 L193.146465,87.9003394 L194.079107,88.8060777" fill="#007A97"></path>
        <path d="M69.7328867,108.884773 L69.7418544,108.884773 C69.7418544,108.884773 69.7418544,108.884773 69.7328867,108.884773 M69.6790805,108.884773 L69.6521773,108.884773 L69.6790805,108.884773 M69.6521773,108.884773 C69.0154702,108.875805 68.3966984,108.821999 67.7868944,108.723354 C68.3966984,108.821999 69.0154702,108.875805 69.6521773,108.884773 M69.9212085,108.875805 C70.0467564,108.875805 70.1723043,108.875805 70.2978522,108.866837 L70.3157876,108.866837 C70.181272,108.875805 70.0557241,108.875805 69.9212085,108.875805 M59.0075096,102.24867 C58.5501565,101.324996 58.200416,100.338548 57.9941587,99.2982945 C57.8417077,98.5539748 57.7609984,97.7648166 57.7520307,96.9666907 L57.7520307,96.9756585 L57.7520307,96.9935939 C57.7609984,97.0115293 57.7609984,97.0294647 57.7609984,97.0384324 L57.7609984,97.0743032 L57.7609984,97.1101741 L57.7609984,97.1460449 L57.7609984,97.1819157 L57.7609984,97.2088188 L57.7609984,97.2536574 L57.7609984,97.2805605 L57.7609984,97.3343667 L57.7609984,97.3523021 C57.7609984,97.3702375 57.7699661,97.388173 57.7699661,97.4061084 L57.7699661,97.4240438 L57.7699661,97.4868177 C57.7699661,97.5764948 57.7789338,97.6661719 57.7879015,97.7558489 L57.7879015,97.7737843 C57.8237723,98.2849436 57.895514,98.7961029 57.9941587,99.2982945 C58.1017712,99.8273892 58.2452545,100.338548 58.4156409,100.831772 C58.5860274,101.316028 58.7833169,101.791317 59.0075096,102.24867 M57.7520307,96.9666907 L57.7520307,96.9039168 L57.7520307,96.9218522 L57.7520307,96.9666907" fill="#217C9C"></path>
        <path d="M69.7418544,108.884773 L69.7418544,108.884773 L69.8943054,108.866837 L70.2978522,108.866837 C70.1723043,108.875805 70.0467564,108.875805 69.9212085,108.875805 C69.8674023,108.884773 69.8046284,108.884773 69.7418544,108.884773 M57.7699661,97.4240438 L57.7699661,97.4061084 L57.7699661,97.4240438 M57.7609984,97.3523021 L57.7609984,97.3343667 L57.7609984,97.3523021 M57.7609984,97.2805605 L57.7609984,97.2536574 L57.7609984,97.2805605 M57.7609984,97.2088188 L57.7609984,97.1819157 L57.7609984,97.2088188 M57.7609984,97.1460449 L57.7609984,97.1101741 L57.7609984,97.1460449 M57.7609984,97.0743032 L57.7609984,97.0384324 L57.7609984,97.0743032 M57.7520307,96.9935939 L57.7520307,96.9756585 L57.7520307,96.9935939" fill="#1C3C4C"></path>
        <path d="M70.3157876,108.866837 L70.2978522,108.866837 L69.8943054,108.866837 L70.7283021,108.77716 C74.6113191,108.454323 77.9742091,106.320009 79.9291691,103.208215 C77.9024674,106.463492 74.369191,108.678516 70.3157876,108.866837 M58.4156409,100.831772 C58.2452545,100.338548 58.1017712,99.8273892 57.9941587,99.2982945 C57.895514,98.7961029 57.8237723,98.2849436 57.7879015,97.7737843 C57.8596431,98.8409414 58.0748681,99.86326 58.4156409,100.831772 M57.7879015,97.7648166 L57.7879015,97.7558489 L57.7879015,97.7648166" fill="#075C79"></path>
        <path d="M69.7328867,108.884773 L69.7328867,108.884773 L69.6790805,108.884773 L69.6521773,108.884773 C69.0154702,108.875805 68.3966984,108.821999 67.7868944,108.723354 C63.9307805,108.095615 60.7024061,105.629495 59.0075096,102.24867 C58.7833169,101.791317 58.5860274,101.316028 58.4156409,100.831772 C58.0748681,99.86326 57.8596431,98.8409414 57.7879015,97.7737843 L57.7879015,97.7558489 C57.7789338,97.6661719 57.7699661,97.5764948 57.7699661,97.4868177 L57.7699661,97.4240438 L57.7699661,97.4061084 C57.7699661,97.388173 57.7609984,97.3702375 57.7609984,97.3523021 L57.7609984,97.3343667 L57.7609984,97.2805605 L57.7609984,97.2536574 L57.7609984,97.2088188 L57.7609984,97.1819157 L57.7609984,97.1460449 L57.7609984,97.1101741 L57.7609984,97.0743032 L57.7609984,97.0384324 C57.7609984,97.0294647 57.7609984,97.0115293 57.7520307,96.9935939 L57.7520307,96.9756585 C57.7520307,96.9756585 57.7520307,96.9756585 57.7520307,96.9666907 L57.7520307,96.9218522 L57.7520307,96.9039168 L57.7520307,96.8142397 L57.9941587,94.4647006 C59.1151221,89.0213027 63.9487159,84.9230608 69.7328867,84.9230608 L69.7956606,84.9230608 C71.1766875,84.9230608 72.5128758,84.976867 73.8580317,85.0396409 L75.0238336,85.1472534 C76.0371845,85.2189951 77.0325999,85.2907367 78.0280153,85.4162846 L79.1489787,85.5687356 C80.0278139,85.6942835 80.8707783,85.8467345 81.7316782,85.9722824 L81.7316782,96.9039168 L81.5164532,99.1458435 L81.4805824,99.2803591 L81.4805824,99.2982945 C81.1936158,100.706224 80.6555534,102.024477 79.9291691,103.208215 C77.9742091,106.320009 74.6113191,108.454323 70.7283021,108.77716 L69.8943054,108.866837 L69.7418544,108.884773 L69.7328867,108.884773" fill="#1E445B"></path>
        <path d="M243.06072,24.8932326 C237.258614,24.8932326 232.42502,20.7770553 231.313025,15.2977865 C231.151606,14.5265638 231.079864,13.7194702 231.079864,12.9034089 C231.079864,12.0604444 231.151606,11.2712863 231.313025,10.5000635 C232.42502,5.05666557 237.258614,0.940488232 243.06072,0.940488232 C248.835923,0.940488232 253.687453,5.05666557 254.790481,10.5000635 C254.960867,11.2712863 255.041576,12.0604444 255.041576,12.9034089 C255.041576,13.7194702 254.960867,14.5265638 254.790481,15.2977865 C253.687453,20.7770553 248.835923,24.8932326 243.06072,24.8932326" fill="#007A97"></path>
        <path d="M127.493885,24.8932326 L127.493885,24.8932326 C121.709714,24.8932326 116.87612,20.7770553 115.764125,15.2977865 C115.611674,14.5265638 115.530964,13.7194702 115.530964,12.9034089 C115.530964,12.0604444 115.611674,11.2712863 115.764125,10.5000635 C116.87612,5.05666557 121.709714,0.940488232 127.493885,0.940488232 C133.304959,0.940488232 138.138553,5.05666557 139.241581,10.5000635 C139.402999,11.2712863 139.474741,12.0604444 139.474741,12.9034089 C139.474741,13.7194702 139.402999,14.5265638 139.241581,15.2977865 C138.138553,20.7770553 133.304959,24.8932326 127.493885,24.8932326" fill="#1E455E"></path>
        <path d="M127.547691,192.867345 C128.399623,192.858378 129.242588,192.759733 130.058649,192.589346 C134.425922,191.629802 137.905392,188.293815 139.062227,184.016219 L139.062227,183.998284 C139.062227,183.989316 139.071194,183.980348 139.071194,183.97138 C139.286419,183.146351 139.420935,182.303387 139.456806,181.424552 C139.465773,181.397649 139.465773,181.379713 139.465773,181.361778 L139.465773,181.35281 L139.465773,181.299004 L139.465773,181.281068 L139.465773,181.23623 L139.465773,181.209327 L139.465773,181.164488 L139.465773,181.137585 L139.465773,181.092747 C139.465773,181.083779 139.474741,181.074811 139.474741,181.056876 L139.474741,181.029973 L139.474741,180.985134 L139.474741,180.958231 L139.474741,180.886489 C139.474741,181.729454 139.402999,182.518612 139.241581,183.298802 C138.147521,188.751168 133.34083,192.840442 127.547691,192.867345 M127.359369,192.867345 L127.350402,192.867345 L127.359369,192.867345 M127.314531,192.867345 C123.001064,192.804571 119.234627,190.455032 117.181022,186.975562 C118.857984,189.791422 121.655908,191.87193 124.964992,192.589346 C125.727247,192.750765 126.507437,192.84941 127.314531,192.867345" fill="#52A5CD"></path>
        <path d="M127.493885,192.867345 L128.4893,192.777668 C133.582958,192.347218 137.770877,188.787039 139.062227,184.016219 C137.905392,188.293815 134.425922,191.629802 130.058649,192.589346 C129.242588,192.759733 128.399623,192.858378 127.547691,192.867345 L127.493885,192.867345 M139.062227,183.998284 C139.062227,183.989316 139.071194,183.980348 139.071194,183.97138 C139.071194,183.980348 139.062227,183.989316 139.062227,183.998284 M139.465773,181.361778 L139.465773,181.35281 L139.465773,181.361778 M139.465773,181.299004 L139.465773,181.281068 L139.465773,181.299004 M139.465773,181.23623 L139.465773,181.209327 L139.465773,181.23623 M139.465773,181.164488 L139.465773,181.137585 L139.465773,181.164488 M139.465773,181.092747 C139.465773,181.083779 139.474741,181.074811 139.474741,181.056876 C139.474741,181.074811 139.465773,181.083779 139.465773,181.092747 M139.474741,181.029973 L139.474741,180.985134 L139.474741,181.029973 M139.474741,180.958231 L139.474741,180.886489 L139.474741,180.958231" fill="#006D93"></path>
        <path d="M127.493885,192.867345 L127.493885,192.867345 L127.359369,192.867345 L127.350402,192.867345 L127.314531,192.867345 C126.507437,192.84941 125.727247,192.750765 124.964992,192.589346 C121.655908,191.87193 118.857984,189.791422 117.181022,186.975562 C116.517412,185.854599 116.033156,184.617055 115.764125,183.298802 C115.611674,182.518612 115.530964,181.729454 115.530964,180.886489 C115.530964,180.043525 115.611674,179.254367 115.764125,178.483144 C116.87612,173.021811 121.709714,168.923569 127.493885,168.923569 C133.304959,168.923569 138.138553,173.021811 139.241581,178.483144 C139.402999,179.254367 139.474741,180.043525 139.474741,180.886489 L139.474741,180.958231 L139.474741,180.985134 L139.474741,181.029973 L139.474741,181.056876 C139.474741,181.074811 139.465773,181.083779 139.465773,181.092747 L139.465773,181.137585 L139.465773,181.164488 L139.465773,181.209327 L139.465773,181.23623 L139.465773,181.281068 L139.465773,181.299004 L139.465773,181.35281 L139.465773,181.361778 C139.465773,181.379713 139.465773,181.397649 139.456806,181.424552 C139.420935,182.303387 139.286419,183.146351 139.071194,183.97138 C139.071194,183.980348 139.062227,183.989316 139.062227,183.998284 L139.062227,184.016219 C137.770877,188.787039 133.582958,192.347218 128.4893,192.777668 L127.493885,192.867345" fill="#0086B8"></path>
        <path d="M11.980856,24.8932326 L11.980856,24.8932326 C6.17874986,24.8932326 1.34515599,20.7770553 0.224192666,15.2977865 C0.071741653,14.5265638 0,13.7194702 0,12.9034089 C0,12.0604444 0.071741653,11.2712863 0.224192666,10.5000635 C1.34515599,5.05666557 6.17874986,0.940488232 11.980856,0.940488232 C17.7650268,0.940488232 22.6075884,5.05666557 23.719584,10.5000635 C23.8630673,11.2712863 23.9617121,12.0604444 23.9617121,12.9034089 C23.9617121,13.7194702 23.8630673,14.5265638 23.719584,15.2977865 C22.6075884,20.7770553 17.7650268,24.8932326 11.980856,24.8932326" fill="#1D3C4B"></path>
    </g>
</svg>
