<?xml version="1.0" encoding="UTF-8" standalone="no"?>
<svg width="256px" height="256px" viewBox="0 0 256 256" version="1.1" xmlns="http://www.w3.org/2000/svg" xmlns:xlink="http://www.w3.org/1999/xlink" preserveAspectRatio="xMidYMid">
	<g fill="#35A7C1">
		<path d="M127.792005,0 C57.2124807,0 0,57.2224201 0,127.790585 C0,198.35875 57.2124807,255.58401 127.792005,255.58401 C198.37011,255.58401 255.58543,198.36869 255.58543,127.790585 C255.58543,57.2124807 198.37011,0 127.792005,0 M127.792005,234.288183 C68.9750249,234.288183 21.2958277,186.608986 21.2958277,127.790585 C21.2958277,68.9750249 68.9750249,21.2958277 127.792005,21.2958277 C186.607566,21.2958277 234.285343,69.004843 234.285343,127.790585 C234.286763,186.576328 186.576328,234.285343 127.792005,234.285343"></path>
		<path d="M158.848302,127.792005 C158.848302,97.6572305 147.023282,70.3054816 127.793425,50.0561284 C108.560728,70.2856029 96.6959506,97.6898884 96.6959506,127.792005 C96.6959506,141.565144 99.2517907,154.770317 103.795506,167.007112 C97.2127983,176.608551 92.3524423,190.05937 90.2197358,205.527882 C97.0111709,197.489765 105.357409,191.599973 114.61239,188.694835 C118.485907,194.658462 122.847875,200.338107 127.817564,205.527882 C132.729036,200.355146 137.14496,194.718098 141.017058,188.694835 C150.274879,191.534657 158.623956,197.498284 165.43953,205.591778 C163.305403,190.123266 158.446467,176.672447 151.863759,167.071008 C156.344999,154.770317 158.88806,141.565144 158.88806,127.792005 M127.793425,128.075987 C120.04923,128.075987 113.771802,121.79856 113.771802,114.055785 C113.771802,106.314429 120.04923,100.038421 127.793425,100.038421 C135.536201,100.038421 141.850546,106.286031 141.850546,114.095542 C141.812208,121.686387 135.601517,128.075987 127.792005,128.075987"></path>
	</g>
</svg>