<?xml version="1.0" encoding="UTF-8" standalone="no"?>
<svg width="256px" height="350px" viewBox="0 0 256 350" version="1.1" xmlns="http://www.w3.org/2000/svg" xmlns:xlink="http://www.w3.org/1999/xlink" preserveAspectRatio="xMidYMid">
	<g fill="#3B454A">
		<path d="M253.598,99.563 C247.629,121.181 241.683,129.018 230.709,140.769 C213.923,158.745 193.309,170.935 170.634,179.918 C169.986,180.174 169.287,180.302 168.391,180.551 C167.824,175.649 166.474,171.648 166.957,164.4 C178.701,158.847 191.293,151.505 200.863,142.712 C210.637,133.73 219.22,123.815 222.97,110.686 C226.985,96.627 226.108,83.092 217.88,70.559 C215.216,66.5 211.675,63.325 207.282,61.246 C200.189,57.889 193.371,59.401 186.945,63.059 C177.949,68.179 172.378,76.348 168.078,85.458 C163.066,96.076 160.542,107.39 159.502,119.017 C158.663,128.403 157.583,137.832 157.725,147.224 C157.895,158.477 158.798,169.769 160.201,180.941 C162.003,195.284 166.167,209.03 171.387,222.549 L172.273,225.046 C172.273,225.046 210.873,214.188 212.03,214.013 C197.563,249.011 182.692,284.043 168.257,318.965 C164.325,316.145 160.482,313.377 156.803,310.738 C165.276,289.265 173.544,268.127 182.131,246.369 C181.048,246.5 143.531,257.502 136.272,258.47 C130.137,237.069 124.622,212.962 120.827,191.034 C117.704,172.991 114.697,143.927 114.697,134.732 C114.697,125.536 115.382,110.942 117.117,98.272 C119.033,84.274 120.731,70.792 129.216,59.232 C145.717,36.75 167.898,22.404 196.852,23.74 C211.972,24.438 225.818,31.656 237.143,41.405 C246.767,49.691 252.682,59.79 254.929,72.501 C256.009,79.094 257.147,87.786 253.598,99.563"></path>
		<path d="M0,270.665 C4.13,269.666 8.599,268.491 12.702,267.392 C21.26,265.1 29.783,262.672 38.346,260.397 C40.04,259.947 40.597,259.508 39.894,257.617 C34.291,242.549 30.214,227.026 27.404,211.233 C24.384,194.264 21.829,177.203 19.508,160.123 C17.892,148.229 16.943,136.243 17.353,124.195 C18.059,103.481 20.182,83.016 28.045,63.58 C33.567,49.929 41.488,38.075 54.07,29.848 C61.872,24.745 71.998,21.928 81.302,21.481 C75.979,25.515 68.396,35.356 68.396,35.356 C57.426,41.647 54.978,50.096 52.524,57.073 C48.538,68.408 46.852,80.194 45.811,92.111 C44.524,106.837 44.739,121.559 45.39,136.305 C46.228,155.333 48.147,174.225 51.549,192.972 C56.463,220.056 63.412,246.602 72.343,272.635 C72.574,273.308 72.767,273.994 73.088,275.027 C60.613,278.539 48.288,282.009 35.339,285.654 C37.339,287.167 38.768,288.276 40.226,289.348 C50.101,296.607 61.855,305.218 71.769,312.424 L66.615,324.224 C63.077,321.485 59.716,318.751 56.427,316.195 C38.154,301.995 18.277,286.802 0,272.606 L0,270.665"></path>
		<path d="M175.92,18.174 C168.781,19.505 165.877,21.078 165.877,21.078 C158.141,19.917 151.499,18.076 138.411,26.644 C130.44,32.597 124.835,41.079 120.625,49.875 C113.098,65.604 109.177,82.442 107.316,99.724 C105.992,112.021 105.366,124.011 106.181,136.32 C107.07,149.736 108.107,163.352 109.782,176.693 C112.172,195.736 116.632,214.704 121.239,233.325 C124.025,244.582 127.935,257.076 130.876,268.295 C130.876,268.295 157.835,260.813 170.823,257.262 C157.639,287.891 144.478,318.597 131.359,349.076 C104.816,329.281 78.504,309.404 51.786,289.477 C56.74,288.151 64.533,286.068 68.941,284.886 C74.074,283.51 82.955,280.457 82.955,280.457 C76.291,260.832 70.447,240.029 66.297,219.733 C63.073,203.96 60.371,188.063 58.011,172.135 C55.301,153.847 54.451,135.395 55.129,116.91 C55.959,94.291 59.27,72.15 68.689,51.296 C78.808,28.892 94.587,12.331 118.228,4.262 C140.276,-3.263 161.421,-0.709 181.464,11.021 C184.043,12.53 186.288,14.612 188.688,16.429 C188.527,16.67 183.058,16.843 175.92,18.174"></path>
		<path d="M167.45,115.756 C177.288,107.072 183.409,95.62 183.905,82.725 C183.98,80.795 183.758,75.079 183.361,73.227 C183.361,73.227 188.14,69.96 191.286,68.447 C194.432,66.935 200.058,65.241 200.058,65.241 C203.688,81.212 200.205,96.344 192.065,108.125 C185.644,117.42 175.548,125.445 165.94,131.3 L167.45,115.756"></path>
	</g>
</svg>