<?xml version="1.0" encoding="UTF-8" standalone="no"?>
<svg width="256px" height="251px" viewBox="0 0 256 251" version="1.1" xmlns="http://www.w3.org/2000/svg" xmlns:xlink="http://www.w3.org/1999/xlink" preserveAspectRatio="xMidYMid">
	<g>
		<path d="M196.802,75.501 L195.706,75.501 C171.915,75.501 152.447,91.504 146.944,112.997 L146.681,112.997 C142.926,132.835 125.521,147.836 104.59,147.836 C80.886,147.836 61.675,128.624 61.675,104.936 C61.675,103.342 61.79,101.765 62.007,100.213 C62.046,99.894 62.078,99.576 62.144,99.264 C62.232,98.658 62.358,98.048 62.487,97.453 C70.986,56.822 97.839,22.914 133.877,4.585 C124.576,1.873 114.773,0.36 104.59,0.36 C49.879,0.36 5.041,42.389 0.452,95.908 C0.322,96.289 0.126,96.65 0,97.043 L0,249.686 L61.85,249.686 L61.85,200.326 C74.917,206.201 89.347,209.522 104.59,209.522 C162.351,209.522 209.186,162.708 209.186,104.936 C209.186,94.702 207.641,84.841 204.902,75.498 L196.802,75.498 L196.802,75.501" fill="#FA930D"></path>
		<path d="M136.371,111.031 L136.567,110.712 C143.08,84.477 166.734,65.002 194.984,65.002 C195.611,65.002 196.196,64.97 196.82,65.002 L198.21,65.002 L198.21,65.012 C198.21,65.012 223.721,64.984 224.53,64.971 C229.228,64.834 233.667,63.688 237.661,61.744 C236.641,61.625 235.622,61.471 234.588,61.264 C218.953,58.164 207.053,46.792 202.533,32.653 C208.552,40.507 217.345,46.351 227.848,48.46 C236.743,50.236 245.504,48.989 253.19,45.57 C254.904,41.635 255.863,37.298 255.863,32.741 C255.863,14.934 241.384,0.448 223.693,0.441 C223.665,0.444 206.131,0.395 200.074,0.378 L200.074,0.367 C197.457,0.367 195.671,0.364 195.548,0.36 L195.548,0.374 L194.98,0.374 C135.166,0.374 85.21,42.473 73.008,98.64 C72.538,100.893 72.184,103.019 72.184,104.939 C72.184,122.802 86.73,137.344 104.582,137.344 C120.112,137.344 133.456,126.281 136.371,111.031 L136.371,111.031 Z M213.667,19.078 C214.749,13.662 220.025,10.12 225.473,11.199 C230.878,12.296 234.406,17.547 233.324,23.001 C232.245,28.453 226.986,31.956 221.546,30.863 C216.119,29.784 212.584,24.504 213.667,19.078 L213.667,19.078 Z M256,217.866 C256,235.712 241.525,250.187 223.679,250.187 C223.613,250.187 223.553,250.17 223.504,250.17 L195.548,250.17 L194.98,250.17 C163.707,250.17 135.183,238.588 113.281,219.579 C142.176,217.421 168.096,204.596 187.133,184.971 C189.704,185.297 192.318,185.528 194.977,185.528 C195.604,185.528 223.245,185.559 223.676,185.528 C241.525,185.528 256,200.014 256,217.866 L256,217.866 Z" fill="#4D8548"></path>
	</g>
</svg>