<?xml version="1.0" encoding="UTF-8"?>
<svg width="256px" height="310px" viewBox="0 0 256 310" version="1.1" xmlns="http://www.w3.org/2000/svg" preserveAspectRatio="xMidYMid">
    <title>PyTorch</title>
    <g>
        <path d="M127.825375,0 L127.825375,45.053206 L58.6014385,114.274581 C22.3724498,151.019279 22.3761466,210.127594 58.612529,247.538772 L59.7216917,248.665757 C96.7421555,286.38472 157.511596,286.38472 195.230559,248.665757 C232.572333,212.015498 232.945751,152.088867 196.350813,114.295327 L195.230559,113.156889 L218.281037,90.106412 C268.572988,140.398363 268.572988,221.075034 218.281037,271.716235 C169.036835,322.008186 88.0109141,322.008186 37.7189632,271.716235 C-12.0700682,221.927203 -12.5679585,142.015808 36.2252922,91.6243293 L37.7189632,90.106412 L127.825375,0 Z M173.227831,50.9904502 C182.486323,50.9904502 189.991814,58.4959413 189.991814,67.7544338 C189.991814,77.0129263 182.486323,84.5184175 173.227831,84.5184175 C163.969338,84.5184175 156.463847,77.0129263 156.463847,67.7544338 C156.463847,58.4959413 163.969338,50.9904502 173.227831,50.9904502 Z" fill="#EE4C2C"></path>
    </g>
</svg>
