<?xml version="1.0" encoding="UTF-8"?>
<svg width="512px" height="173px" viewBox="0 0 512 173" version="1.1" xmlns="http://www.w3.org/2000/svg" xmlns:xlink="http://www.w3.org/1999/xlink" preserveAspectRatio="xMidYMid">
    <title>qdrant</title>
    <defs>
        <linearGradient x1="81.5619048%" y1="44.8421053%" x2="-18.0857143%" y2="44.8421053%" id="linearGradient-1">
            <stop stop-color="#FF3364" offset="0%"></stop>
            <stop stop-color="#C91540" stop-opacity="0" offset="100%"></stop>
        </linearGradient>
    </defs>
    <g>
        <path d="M241.009458,131.444294 C241.009458,137.702629 235.936388,142.776832 229.678054,142.776832 L221.931905,142.776832 L221.931905,133.929271 L221.655419,133.929271 C220.82596,135.127 219.720015,136.371188 218.337584,137.660702 C217.176002,138.739679 215.791383,139.743392 214.182077,140.672668 L213.637317,140.979671 C211.886615,141.992698 209.904752,142.822157 207.692862,143.468047 C205.572756,144.112804 203.360866,144.434616 201.057192,144.434616 C196.080439,144.434616 191.564874,143.605157 187.509364,141.94624 C183.453855,140.195538 179.952451,137.798945 177.002886,134.757596 C174.146239,131.624463 171.934349,127.938357 170.367215,123.699279 C168.800082,119.459067 168.017082,114.805259 168.017082,109.736722 C168.017082,105.036455 168.708298,100.566216 170.090729,96.3260045 C171.564945,91.9951417 173.593266,88.1696595 176.173427,84.8518242 C178.705817,81.7091486 181.733487,79.1863353 185.258363,77.2838662 L185.850447,76.972532 C189.62947,74.9450037 193.915007,73.931183 198.707058,73.931183 C203.039054,73.931183 207.048105,74.6223986 210.734211,76.00483 C214.513235,77.2951371 217.599909,79.5530327 219.996501,82.7793103 L220.272988,82.7793103 L220.272988,49.5964249 C220.272988,43.3382035 225.346058,38.2650203 231.604392,38.2650203 L241.009458,38.2650203 L241.009458,131.444294 Z M221.931905,109.182616 C221.931905,104.114079 220.45769,100.013244 217.508125,96.8789771 C214.651478,93.7458437 210.595968,92.1787104 205.342729,92.1787104 C200.08949,92.1787104 195.988654,93.7458437 193.03909,96.8789771 C190.182443,100.013244 188.753553,104.114079 188.753553,109.182616 C188.753553,114.252287 190.182443,118.353122 193.03909,121.486255 C195.988654,124.620522 200.08949,126.187655 205.342729,126.187655 C210.595968,126.187655 214.651478,124.620522 217.508125,121.486255 C220.45769,118.353122 221.931905,114.252287 221.931905,109.182616 Z M254.425841,86.9209387 C254.425841,80.6633971 259.498911,75.5901006 265.757246,75.5901006 L275.162312,75.5901006 L275.162312,86.3724987 L275.438798,86.3724987 C277.554519,82.4060637 280.04969,79.4087812 282.924311,77.3812463 L283.318657,77.1107751 C286.360006,74.9910092 290.184355,73.931183 294.792837,73.931183 C295.990567,73.931183 297.188296,73.9773018 298.387159,74.0694261 C299.584888,74.1615504 300.690833,74.3459124 301.704994,74.6223986 L301.704994,93.5617084 C300.229645,93.1005202 298.755429,92.7775752 297.281214,92.5928733 C295.898782,92.316387 294.423433,92.1781438 292.857433,92.1781438 C288.893708,92.1781438 285.760575,92.7311164 283.4569,93.8370615 C281.152092,94.9430066 279.354931,96.5101398 278.065418,98.5373281 C276.866555,100.472732 276.083555,102.822865 275.715284,105.587728 C275.345881,108.353724 275.162312,111.39394 275.162312,114.711775 L275.162312,131.443727 C275.162312,137.702062 270.089242,142.776265 263.830907,142.776265 L254.425841,142.776265 L254.425841,86.9209387 Z M352.000567,134.345133 L351.72408,134.345133 C349.420406,137.939455 346.332598,140.519616 342.46179,142.086749 C338.6839,143.652749 334.674849,144.435749 330.434637,144.435749 C327.542514,144.435749 324.728598,144.04375 321.992888,143.258859 L321.31059,143.054451 C318.453943,142.224992 315.919108,140.934345 313.707218,139.183643 C311.495328,137.431808 309.744626,135.266377 308.453979,132.685083 C307.164465,130.104922 306.518575,127.110031 306.518575,123.700412 C306.518575,119.829604 307.20979,116.557094 308.592222,113.885149 C310.067571,111.212071 312.002974,109.000181 314.398433,107.249479 C316.88681,105.497643 319.698131,104.161671 322.831265,103.240428 C325.965531,102.226267 329.190449,101.488592 332.508284,101.027404 C335.919037,100.567349 339.282198,100.290863 342.600033,100.197945 L344.832752,100.143626 C347.389636,100.088255 349.77873,100.060835 352.000567,100.060835 C352.000567,96.5052835 350.758317,93.6788554 348.2728,91.5805352 L347.991516,91.3503847 C345.411355,89.1384946 342.323547,88.0325495 338.729225,88.0325495 C335.319606,88.0325495 332.186472,88.7702239 329.328692,90.2444396 C326.563829,91.6280042 324.075453,93.5634081 321.863563,96.0506514 L310.804112,84.7147142 C314.506624,81.2772094 318.800082,78.6823739 323.682504,76.9308026 L324.351939,76.6971788 C329.513394,74.8538992 334.858418,73.9323161 340.388143,73.9323161 C346.470841,73.9323161 351.447594,74.7156561 355.318402,76.2824494 C359.282127,77.7570051 362.415261,79.9688953 364.718935,82.9175534 C367.115527,85.867118 368.774445,89.5078983 369.695688,93.8387612 C370.618064,98.0789728 371.078119,103.009267 371.078119,108.630777 L371.078119,131.44656 C371.078119,137.703762 366.00505,142.777965 359.746715,142.777965 L352.000567,142.777965 L352.000567,134.345133 Z M352.000567,113.331043 L346.885571,113.331043 L346.133277,113.337633 C344.69995,113.361779 342.969001,113.452202 340.941116,113.60753 C338.637441,113.700447 336.379092,114.068718 334.167202,114.713475 C332.048229,115.359365 330.20461,116.327067 328.637476,117.616581 C327.163261,118.907228 326.425586,120.704388 326.425586,123.009196 C326.425586,125.497573 327.486206,127.340059 329.605178,128.537788 C331.725284,129.736651 333.937174,130.334949 336.240849,130.334949 C338.26917,130.334949 340.204574,130.058463 342.047061,129.50549 C343.982465,128.952518 345.687841,128.169518 347.162057,127.155357 C348.523917,126.220255 349.60964,125.048601 350.421008,123.641287 L350.618135,123.284549 C351.540512,121.718549 352.000567,119.87493 352.000567,117.755957 L352.000567,113.331043 Z M385.473536,86.9209387 C385.473536,80.6633971 390.546606,75.5901006 396.80494,75.5901006 L405.380548,75.5901006 L405.380548,84.713581 L405.657034,84.713581 C406.301791,83.4240672 407.223034,82.1336468 408.421897,80.8433398 C409.619626,79.5530327 411.048516,78.4010821 412.707434,77.3872614 C414.366351,76.3734406 416.255297,75.5439818 418.375402,74.8988849 C420.494375,74.2537881 422.799183,73.931183 425.287559,73.931183 C430.330669,73.931183 434.439128,74.6956122 437.613939,76.2244707 L438.005928,76.4195594 C441.0696,77.9080131 443.468543,79.9786666 445.202758,82.6310344 L445.471057,83.0546634 C447.313544,85.9124437 448.557732,89.2756045 449.203622,93.1464124 C449.848379,97.0172202 450.171324,101.210973 450.171324,105.727671 L450.171324,131.444294 C450.171324,137.702629 445.098254,142.776832 438.839919,142.776832 L429.434853,142.776832 L429.434853,109.873832 C429.434853,107.938428 429.341936,105.957698 429.158367,103.929377 C429.065449,101.810404 428.65072,99.8750004 427.914179,98.1242984 C427.268289,96.3724633 426.208802,94.9435731 424.734587,93.8376281 C423.352155,92.731683 421.323834,92.1787104 418.651889,92.1787104 C416.13605,92.1787104 414.069892,92.6283907 412.45247,93.525862 L412.154461,93.6993849 C410.495544,94.6217613 409.204897,95.9112751 408.283653,97.5701927 C407.454195,99.137326 406.901222,100.934487 406.624736,102.961675 C406.348249,104.989996 406.210006,107.108969 406.210006,109.320859 L406.210006,131.444294 C406.210006,137.702629 401.136936,142.776832 394.878602,142.776832 L385.473536,142.776832 L385.473536,86.9209387 Z M512,80.8473058 C512,87.105074 506.92693,92.1781438 500.668595,92.1781438 L493.751906,92.1781438 L493.751906,114.574665 C493.751906,116.417151 493.844823,118.122528 494.028392,119.688528 C494.213094,121.163877 494.627824,122.453391 495.27258,123.559336 C495.918471,124.665281 496.886172,125.541199 498.175686,126.187089 C499.558118,126.740061 501.355278,127.015414 503.567169,127.015414 C504.673114,127.015414 506.102004,126.92363 507.852706,126.738928 C509.696325,126.462442 511.078757,125.910602 512,125.081143 L512,134.966661 C512,139.402906 509.22154,143.529803 504.811357,144.01932 C502.32298,144.295806 499.881063,144.434049 497.484471,144.434049 C493.983067,144.434049 490.757016,144.065779 487.807451,143.328104 C484.85902,142.591563 482.277726,141.439159 480.065835,139.873159 C477.853945,138.214241 476.103243,136.094136 474.812596,133.512842 C473.614867,130.932681 473.015435,127.799547 473.015435,124.113442 L473.015435,92.1781438 L459.744094,92.1781438 L459.744094,86.9203721 C459.744094,80.6627172 464.818297,75.589534 471.075499,75.589534 L473.015435,75.589534 L473.015435,67.013927 C473.015435,60.7557055 478.089638,55.6825224 484.34684,55.6825224 L493.751906,55.6825224 L493.751906,75.589534 L512,75.589534 L512,80.8473058 Z" fill="#DC244C"></path>
        <g transform="translate(0.000000, 0.000000)">
            <polygon fill="#24386C" points="117.610462 158.741648 114.166961 63.8026069 107.930609 38.7726672 149.556524 43.1793372 149.556524 158.023123 124.128852 172.698425"></polygon>
            <polygon fill="#7589BE" points="149.553691 43.1726517 124.126019 57.8581521 71.6525508 46.3477112 10.2329383 71.3549881 -6.4411578e-14 43.1726517 37.3823039 21.5863258 74.7759392 0 112.159376 21.5863258"></polygon>
            <polyline fill="#B2BFE8" points="0.00181302474 43.1726517 25.429485 57.8581521 40.1693762 101.694824 89.9380385 141.515646 74.7788853 172.690607 37.3852501 151.103148 0.00181302474 129.516822 0.00181302474 43.1715185"></polyline>
            <polyline fill="#24386C" points="91.636616 118.481167 74.7788853 143.333203 74.7788853 172.692873 98.6994805 158.891222 111.024649 140.486755"></polyline>
            <polygon fill="#7589BE" points="74.7890836 113.982599 50.8582902 72.5493182 56.0128328 58.8167889 75.6082308 49.316086 98.6993672 72.5499981"></polygon>
            <polyline fill="#B2BFE8" points="50.8582902 72.5459187 74.7788853 86.3475696 74.7788853 113.973534 52.6554509 114.925383 39.2730621 97.8376252 50.8582902 72.5459301"></polyline>
            <polygon fill="#24386C" points="74.7788853 86.3453033 98.6994805 72.5447856 114.97931 99.6517718 95.2785295 115.929335 74.7788853 113.972174"></polygon>
            <path d="M98.6994805,158.888956 L124.127153,172.69174 L124.127153,57.8592852 L99.4473532,43.6157096 L74.7788853,29.372134 L50.0990861,43.6157096 L25.4306182,57.8592852 L25.4306182,114.843786 L50.0990861,129.087362 L74.7788853,143.33207 L98.6994805,129.517955 L98.6994805,158.888956 Z M98.6994805,100.158286 L74.7788853,113.971268 L50.8582902,100.158286 L50.8582902,72.5436525 L74.7788853,58.7306702 L98.6994805,72.5436525 L98.6994805,100.158286" fill="#DC244C"></path>
        </g>
        <polygon fill="url(#linearGradient-1)" points="74.7890836 143.342269 74.7890836 113.978067 50.9931339 100.282931 50.9931339 129.598408"></polygon>
    </g>
</svg>
