<?xml version="1.0" encoding="UTF-8" standalone="no"?>
<svg width="256px" height="236px" viewBox="0 0 256 236" version="1.1" xmlns="http://www.w3.org/2000/svg" xmlns:xlink="http://www.w3.org/1999/xlink" preserveAspectRatio="xMidYMid">
	<g>
		<path d="M200.133973,0 L255.689387,117.51424 L200.133973,235.031893 L152.838827,235.031893 L208.39424,117.51424 L152.838827,0 L200.133973,0 Z M110.080447,99.8357161 L130.135717,61.7444141 L127.8464,52.8759467 L102.847147,0 L55.552,0 L104.198827,102.898347 L110.080447,99.8357161 Z M127.846401,174.26862 L110.513029,135.234683 L104.198827,132.133547 L55.552,235.031893 L102.847147,235.031893 L127.8464,182.152533 L127.846401,174.26862 Z" fill="#40B4E5"></path>
		<path d="M152.84224,235.031893 L97.2868267,117.51424 L152.84224,0 L200.137387,0 L144.581973,117.51424 L200.137387,235.031893 L152.84224,235.031893 Z M55.5554133,235.031893 L-1.42108547e-14,117.51424 L55.5554133,0 L102.85056,0 L47.2951467,117.51424 L102.85056,235.031893 L55.5554133,235.031893 Z" fill="#003764"></path>
	</g>
</svg>
