<?xml version="1.0" encoding="UTF-8"?>
<svg width="512px" height="78px" viewBox="0 0 512 78" version="1.1" xmlns="http://www.w3.org/2000/svg" preserveAspectRatio="xMidYMid">
    <title>Rancher</title>
    <g>
        <path d="M164.476315,16.9483615 L162.666296,6.25279357 C162.497736,5.24143029 162.265745,4.28644964 161.995077,3.44148386 L161.856634,3.02841718 C161.22017,1.21310734 160.408789,0 159.704447,0 C159.032864,0 158.426158,1.13532228 158.067638,2.83566541 L157.992127,3.2225884 C157.980247,3.28854843 157.968727,3.35522557 157.957575,3.42259085 L157.895158,3.83480841 C157.885517,3.90481036 157.876263,3.97544249 157.867405,4.04667584 L157.819088,4.48105876 C157.804617,4.6281034 157.791807,4.77732112 157.78073,4.92848012 L157.752778,5.38754915 C157.737712,5.69716867 157.72988,6.01362613 157.72988,6.33506717 L157.72988,9.13236955 C157.72988,12.5878607 154.850304,15.4674367 151.394813,15.4674367 L148.021595,15.4674367 L148.021595,15.4674367 L148.021595,23.2011551 L159.128531,23.2011551 C162.666296,23.2011551 165.052231,20.4038527 164.476315,16.9483615 Z M139.21832,7.89826556 L104.169767,7.89826556 C103.922946,7.89826556 103.758399,7.89826556 103.593852,7.98053916 L103.592393,6.09494978 L103.592393,6.09494978 L103.580888,5.62101693 C103.578035,5.54278628 103.57472,5.46495403 103.570954,5.38754915 L103.543002,4.92848012 C103.520849,4.62616212 103.491759,4.33160925 103.456327,4.04667584 L103.398499,3.62672213 C103.377687,3.48929696 103.355364,3.35450845 103.331605,3.2225884 L103.256094,2.83566541 C102.897574,1.13532228 102.290868,0 101.619285,0 C100.680162,0 99.5507479,2.15663527 98.8993825,5.02183507 L98.7953626,5.50568086 C98.7622411,5.66898418 98.7307098,5.83422614 98.700883,6.00115842 L96.8474166,16.9483615 C96.2715014,20.4038527 98.6574357,23.2011551 102.112927,23.2011551 L112.643948,23.2011551 C113.713504,23.2011551 114.783061,23.0366079 115.605797,22.7075135 C115.276703,24.5175327 113.713504,25.8339103 111.821212,25.8339103 L97.0119638,25.8339103 C94.6260294,25.8339103 92.8160102,23.6947967 93.2273782,21.3088623 L94.708303,12.3410399 C95.119671,9.95510555 93.3096518,7.81599196 90.9237174,7.81599196 L17.5356666,7.81599196 C15.9724682,7.81599196 14.6560906,8.72100155 13.9979018,10.1196527 L0.175937055,31.2639678 C-0.0708837442,31.5930622 -0.0708837442,32.0867038 0.258210654,32.4157982 L2.97323944,35.6244686 C3.30233384,36.0358366 3.87824904,36.1181102 4.28961703,35.7890158 L13.6688074,28.3843919 L13.6688074,73.4703244 C13.6688074,75.609438 15.396553,77.3371836 17.5356666,77.3371836 L38.4331609,77.3371836 C40.5722744,77.3371836 42.30002,75.609438 42.30002,73.4703244 L42.30002,57.8383405 C42.30002,55.6992269 44.0277656,53.9714813 46.1668792,53.9714813 L98.2460677,53.9714813 C100.385181,53.9714813 102.112927,55.6992269 102.112927,57.8383405 L102.112927,73.4703244 C102.112927,75.609438 103.840673,77.3371836 105.979786,77.3371836 L126.87728,77.3371836 C129.016394,77.3371836 130.74414,75.609438 130.74414,73.4703244 L130.74414,56.4396893 L119.637204,56.4396893 C116.181712,56.4396893 113.302136,53.5601133 113.302136,50.1046221 L113.302136,39.3267806 C113.302136,37.2699406 114.28942,35.4599214 115.852618,34.308091 L115.852618,47.2250462 C115.852618,50.6805373 118.732194,53.5601133 122.187685,53.5601133 L139.21832,53.5601133 C142.673812,53.5601133 145.553388,50.6805373 145.553388,47.2250462 L145.553388,14.3156063 C145.553388,10.7778415 142.673812,7.89826556 139.21832,7.89826556 Z" fill="#2453FF"></path>
        <path d="M201.993077,10.0373791 C213.182286,10.0373791 220.669184,15.4674367 220.669184,25.9161839 C220.669184,34.4726382 214.827758,39.5736014 209.15088,41.3836206 C210.776993,42.6999982 211.965833,44.526529 212.923174,46.4516609 L213.218644,47.0567018 L213.677903,48.0240792 L213.677903,48.0240792 L214.668948,50.1617031 L214.668948,50.1617031 L214.889153,50.6247197 L214.889153,50.6247197 L215.111304,51.0807744 L215.111304,51.0807744 L215.336303,51.5286696 L215.336303,51.5286696 L215.565052,51.9672081 L215.565052,51.9672081 L215.798453,52.3951925 C217.253962,54.9994259 219.026336,56.9333309 222.067835,56.9333309 C222.710344,56.9333309 223.308251,56.8218284 223.733845,56.7149259 L223.990644,56.6456132 C224.028722,56.6345993 224.064323,56.6239608 224.09727,56.6138569 L239.756659,10.0373791 L254.072265,10.0373791 L273.324288,67.0529837 L259.008681,67.0529837 L255.470917,56.2751421 L236.383441,56.2751421 L232.92795,67.0529837 L221.117102,67.0535425 C220.065452,67.2237646 218.760144,67.3820781 217.542787,67.3820781 C211.336067,67.3820781 207.56662,65.1537141 203.864023,57.7499747 L203.542169,57.0930551 L203.542169,57.0930551 L203.220306,56.409616 C203.112978,56.1773353 203.005591,55.9405628 202.898086,55.6992269 L202.720389,55.2788764 L202.720389,55.2788764 L202.066344,53.6726041 L202.066344,53.6726041 L201.464583,52.1871871 L201.464583,52.1871871 L201.255266,51.6817864 L201.255266,51.6817864 L200.932908,50.9223275 L200.932908,50.9223275 L200.712331,50.4186214 L200.712331,50.4186214 L200.487148,49.9197993 L200.487148,49.9197993 L200.257303,49.4282648 C200.218603,49.3470832 200.179707,49.2663054 200.140613,49.1859815 L199.903665,48.7098852 C199.863775,48.631577 199.823684,48.5538229 199.783392,48.4766729 L199.539211,48.0214227 C198.429432,46.009023 197.171007,44.5100174 195.740283,44.5100174 L192.531613,44.5100174 L192.531613,67.0529837 L178.380554,67.0529837 L178.380554,10.0373791 L201.993077,10.0373791 Z M246.174,24.0238911 L245.844905,24.0238911 L245.69041,25.0304403 L245.69041,25.0304403 L245.471054,26.3275519 L245.471054,26.3275519 L245.289021,27.3224257 L245.289021,27.3224257 L245.074202,28.4166955 L245.074202,28.4166955 L244.930191,29.1063102 L244.930191,29.1063102 L244.721201,30.0485735 L244.721201,30.0485735 L244.552141,30.7624883 L244.552141,30.7624883 L244.433749,31.2376403 L244.433749,31.2376403 L244.310917,31.7095285 L244.310917,31.7095285 L244.183742,32.1758981 L244.183742,32.1758981 L244.052318,32.6344939 L244.052318,32.6344939 L243.91674,33.0830612 L243.91674,33.0830612 L243.777103,33.519345 C243.753497,33.59091 243.729726,33.6618693 243.705792,33.7321758 L239.756659,45.826395 L252.015425,45.826395 L248.148566,33.8144494 C248.100698,33.6678528 248.0537,33.5189716 248.007572,33.3681658 L247.8718,32.9103344 L247.8718,32.9103344 L247.741251,32.4431153 L247.741251,32.4431153 L247.615923,31.9686685 L247.615923,31.9686685 L247.495817,31.489154 L247.495817,31.489154 L247.380933,31.0067317 L247.380933,31.0067317 L247.271271,30.5235618 L247.271271,30.5235618 L247.11657,29.80213 L247.11657,29.80213 L246.973618,29.091166 L246.973618,29.091166 L246.761474,27.9492875 L246.761474,27.9492875 L246.581968,26.8904863 L246.581968,26.8904863 L246.385491,25.6119943 L246.385491,25.6119943 L246.284314,24.8902787 L246.284314,24.8902787 L246.174,24.0238911 L246.174,24.0238911 Z M199.642005,20.3230554 L192.613886,20.3215791 L192.613886,34.308091 L197.71485,34.308091 L198.083228,34.3045906 C198.144913,34.3034069 198.20673,34.3019148 198.268659,34.3001016 L198.641431,34.2852687 L198.641431,34.2852687 L199.015981,34.2621253 C202.704793,33.9917079 206.518125,32.4282639 206.518125,26.9857407 C206.518125,22.0535802 203.419144,20.3793222 199.642005,20.3230554 L199.642005,20.3230554 Z M273.817929,10.0373791 L288.956272,10.0373791 L303.930067,38.3394974 C304.08433,38.6480234 304.246306,38.9848309 304.414228,39.3446173 L304.757475,40.093257 C304.815829,40.222613 304.874713,40.3541293 304.934062,40.4876097 L305.295199,41.3104885 L305.295199,41.3104885 L305.664335,42.1710761 L305.664335,42.1710761 L306.038328,43.0599452 L306.038328,43.0599452 L306.601548,44.4256548 L306.601548,44.4256548 L307.15802,45.80197 L307.15802,45.80197 L307.871153,47.5985626 L307.871153,47.5985626 L308.208294,48.4591501 L308.208294,48.4591501 L308.537388,48.4591501 C308.51803,48.0816595 308.495255,47.6859491 308.470136,47.276038 L308.388817,46.0077218 L308.388817,46.0077218 L308.209701,43.3119342 C308.19493,43.0824624 308.180378,42.8524547 308.166177,42.6224135 L308.086265,41.2457834 C308.012716,39.8767896 307.961473,38.5427616 307.961473,37.3522142 L307.961473,10.0373791 L319.562051,10.0373791 L319.562051,67.0529837 L304.752803,67.0529837 L289.203092,38.833139 C288.03755,36.7077377 286.757738,33.7824541 285.696942,31.1047532 L285.285094,30.0493601 C285.218663,29.8764896 285.153403,29.7053402 285.089412,29.5362222 L284.760318,29.5362222 L284.883822,31.0535466 L284.883822,31.0535466 L285.018111,32.6256951 L285.018111,32.6256951 L285.150603,34.2257051 C285.299234,36.0981503 285.418507,37.9724306 285.418507,39.655875 L285.418507,67.0529837 L273.817929,67.0529837 L273.817929,10.0373791 Z M322.606174,38.2572238 C322.606174,17.6065503 332.8081,9.13236955 348.604631,9.13236955 C365.223898,9.13236955 371.88806,18.2647391 370.078041,30.605779 L356.914265,31.7576094 C356.995582,31.2314411 357.060213,30.7236274 357.108562,30.2338127 L357.158791,29.6546519 C357.647147,23.0931331 355.065573,19.9322471 350.476381,19.2371585 L350.072287,19.1829082 C349.935919,19.1668813 349.797891,19.1529032 349.658227,19.1409513 L349.234358,19.1111513 C349.019997,19.0992676 348.802015,19.0918916 348.5805,19.0889463 L348.35781,19.0874751 C348.2344,19.0874751 348.11145,19.0892851 347.988992,19.0929506 L347.623124,19.1095587 L347.623124,19.1095587 L347.260392,19.1375718 C342.62624,19.5714226 338.812567,22.8901235 337.584723,31.685357 L337.494312,32.3818295 C337.366638,33.4433009 337.274916,34.5805104 337.221968,35.7975966 L337.192443,36.6208664 C337.176631,37.1776625 337.168601,37.7504184 337.168601,38.3394974 C337.168601,40.0499655 337.234305,41.6200667 337.35947,43.0599849 L337.433602,43.8325454 C338.512976,54.0894697 342.755021,57.3878698 347.667495,57.7940372 L348.03257,57.818895 L348.03257,57.818895 L348.399873,57.8335403 L348.399873,57.8335403 L348.769178,57.8383405 L348.769178,57.8383405 C354.610604,57.8383405 359.300199,54.2183021 358.312916,46.7314046 L370.653956,47.9655086 C371.558966,59.5660861 363.249332,68.041361 348.028716,68.041361 C332.561279,68.1225404 322.606174,58.9901709 322.606174,38.2572238 Z M373.533532,10.0373791 L387.684591,10.0373791 L387.684591,31.5930622 L404.962047,31.5930622 L404.962047,10.0373791 L419.113106,10.0373791 L419.113106,67.1352573 L404.962047,67.1352573 L404.962047,42.946819 L387.684591,42.946819 L387.684591,67.1352573 L373.533532,67.1352573 L373.533532,10.0373791 Z M424.789984,10.0373791 L462.553567,10.0373791 L462.553567,20.5683999 L438.85877,20.5683999 L438.85877,32.8271662 L458.686707,32.8271662 L458.686707,43.2759134 L438.85877,43.2759134 L438.85877,56.6042365 L463.376303,56.6042365 L463.376303,67.1352573 L424.789984,67.1352573 L424.789984,10.0373791 Z M466.009058,10.0373791 L489.621581,10.0373791 C500.81079,10.0373791 508.297688,15.4674367 508.297688,25.9161839 C508.297688,34.4726382 502.456262,39.5736014 496.779384,41.3836206 C498.405498,42.6999982 499.594337,44.526529 500.551678,46.4516609 L500.847148,47.0567018 L500.847148,47.0567018 L501.196002,47.7883095 L501.196002,47.7883095 L502.207021,49.9690638 L502.207021,49.9690638 L502.542875,50.6771001 L502.542875,50.6771001 L502.769231,51.1401999 L502.769231,51.1401999 L502.998659,51.5946884 L502.998659,51.5946884 L503.232109,52.0393041 C503.389294,52.3321433 503.549794,52.6175595 503.714878,52.8938709 L503.966099,53.3012989 C505.325966,55.4355857 507.019705,56.9333309 509.696339,56.9333309 C510.089009,56.9333309 510.465019,56.8916841 510.795219,56.8348931 L511.066348,56.7831244 L511.066348,56.7831244 L511.422045,56.6996764 L511.422045,56.6996764 L511.61923,56.6455897 L511.61923,56.6455897 L511.779697,56.5970662 L511.779697,56.5970662 L512,56.5219629 L512,56.5219629 L510.84817,66.6416157 L510.278708,66.7684626 L510.278708,66.7684626 L509.781396,66.8690765 L509.781396,66.8690765 L509.32982,66.9536052 L509.32982,66.9536052 L508.822217,67.0410486 L508.822217,67.0410486 L508.268786,67.1270347 L508.268786,67.1270347 L507.879411,67.18139 L507.879411,67.18139 L507.477225,67.2318589 L507.477225,67.2318589 L507.065251,67.2771459 C506.995941,67.28419 506.926349,67.2909641 506.856539,67.2974414 L506.435551,67.3325268 C506.224247,67.3480723 506.012107,67.3604601 505.80083,67.3689615 L505.379932,67.3805667 C505.310142,67.3820781 505.240574,67.3820781 505.171291,67.3820781 C498.964571,67.3820781 495.195124,65.1537141 491.492527,57.7499747 L491.170673,57.0930551 L491.170673,57.0930551 L490.84881,56.409616 C490.741482,56.1773353 490.634095,55.9405628 490.526591,55.6992269 L490.348893,55.2788764 L490.348893,55.2788764 L489.694848,53.6726041 L489.694848,53.6726041 L489.093087,52.1871871 L489.093087,52.1871871 L488.88377,51.6817864 L488.88377,51.6817864 L488.561412,50.9223275 L488.561412,50.9223275 L488.340835,50.4186214 L488.340835,50.4186214 L488.115652,49.9197993 L488.115652,49.9197993 L487.885807,49.4282648 C487.847107,49.3470832 487.808211,49.2663054 487.769117,49.1859815 L487.532169,48.7098852 C487.492279,48.631577 487.452188,48.5538229 487.411896,48.4766729 L487.167715,48.0214227 C486.057936,46.009023 484.799511,44.5100174 483.368787,44.5100174 L480.160117,44.5100174 L480.160117,67.0529837 L466.009058,67.0529837 L466.009058,10.0373791 Z M480.160117,20.3215791 L480.160117,34.308091 L485.26108,34.308091 L485.629458,34.3045906 C485.691143,34.3034069 485.75296,34.3019148 485.814889,34.3001016 L486.187661,34.2852687 L486.187661,34.2852687 L486.562212,34.2621253 C490.251023,33.9917079 494.064355,32.4282639 494.064355,26.9857407 C494.064355,22.0535802 490.965375,20.3793222 487.188236,20.3230554 L480.160117,20.3215791 Z" fill="#000000"></path>
    </g>
</svg>
