<?xml version="1.0" encoding="UTF-8"?>
<svg width="256px" height="276px" viewBox="0 0 256 276" version="1.1" xmlns="http://www.w3.org/2000/svg" xmlns:xlink="http://www.w3.org/1999/xlink" preserveAspectRatio="xMidYMid">
    <defs>
        <linearGradient x1="47.2711631%" y1="-17.6931132%" x2="61.4713401%" y2="99.9413769%" id="linearGradient-1">
            <stop stop-color="#FFD54F" offset="0%"></stop>
            <stop stop-color="#FFD03D" offset="21.64%"></stop>
            <stop stop-color="#FFC516" offset="73.09%"></stop>
            <stop stop-color="#FFC107" offset="100%"></stop>
        </linearGradient>
        <linearGradient x1="0%" y1="49.9994582%" x2="99.9998361%" y2="49.9994582%" id="linearGradient-2">
            <stop stop-color="#FFD54F" offset="0%"></stop>
            <stop stop-color="#FFD03D" offset="21.64%"></stop>
            <stop stop-color="#FFC516" offset="73.09%"></stop>
            <stop stop-color="#FFC107" offset="100%"></stop>
        </linearGradient>
        <linearGradient x1="49.9992616%" y1="-0.0201921479%" x2="49.9992616%" y2="99.9805355%" id="linearGradient-3">
            <stop stop-color="#FFC107" offset="0%"></stop>
            <stop stop-color="#FFBE06" offset="42.13%"></stop>
            <stop stop-color="#FFB605" offset="69.37%"></stop>
            <stop stop-color="#FFA701" offset="92.33%"></stop>
            <stop stop-color="#FFA000" offset="100%"></stop>
        </linearGradient>
    </defs>
	<g>
		<path d="M128,257.039205 C131.347557,257.039205 134.665749,256.917563 137.941992,256.653305 C139.909416,256.506495 145.153082,255.906671 147.099531,255.680164 C150.388359,255.260707 154.570708,275.63794 157.788221,274.983586 C161.211287,274.287287 160.376495,253.343787 163.694688,252.374841 C217.016485,236.922036 256,192.694464 256,129.775877 L0,129.775877 C0,188.499891 36.735031,234.027781 87.6657163,250.923519 C90.6063645,251.896659 90.4553469,274.371179 93.4924786,275.130396 C96.6218989,275.918976 102.943663,254.715412 106.165372,255.27329 C110.041491,255.944422 113.984728,256.397436 117.974109,256.707834 C121.283912,256.955314 124.627274,257.039205 128,257.039205 Z" fill="url(#linearGradient-1)"></path>
		<ellipse fill="#FFE082" cx="128" cy="128.781763" rx="128" ry="24.4837194"></ellipse>
		<path d="M255.995805,129.775877 C255.995805,62.6627179 204.028971,6.35477727 138.021696,1.2332043 C134.711893,0.985724526 131.372726,0 128,0 C124.656638,0 121.342641,1.02347568 118.066398,1.27095545 C52.0129781,6.34219355 0,62.6627179 0,129.775877 L0.100678399,129.775877 C0.0629239996,133.97045 0,130.161778 0,130.426036 C0,143.957727 57.3111788,154.842642 128,154.842642 C198.697211,154.842642 256,143.987089 256,130.463787 C256,130.203724 255.941271,133.97045 255.899322,129.775877 L255.995805,129.775877 L255.995805,129.775877 Z" fill="url(#linearGradient-2)" opacity="0.2"></path>
		<path d="M183.785192,243.7508 C167.388608,251.003216 149.242888,257.735504 127.984795,257.039205 C96.7729811,256.024119 77.926767,246.296905 66.81115,240.932047 C61.5679345,238.406914 93.3040696,225.949034 131.487263,225.949034 C157.992766,225.940645 194.636551,238.960598 183.785192,243.7508 Z" fill="url(#linearGradient-3)" opacity="0.5"></path>
		<path d="M109.058884,179.137606 C109.058884,172.770245 104.793004,167.636088 99.5162314,167.636088 C94.2352647,167.636088 89.9609954,172.782828 89.9609954,179.137606 C89.9609954,180.244973 89.9526062,184.38921 89.9526062,185.496578 C89.9526062,191.84716 94.2310701,196.989706 99.5078423,196.989706 C104.784614,196.989706 109.058884,191.834577 109.058884,185.496578 C109.058884,184.38921 109.058884,180.244973 109.058884,179.137606 Z" fill="#FF8F00"></path>
		<path d="M159.393753,179.137606 C159.393753,172.770245 154.876199,167.636088 149.591037,167.636088 C144.314265,167.636088 139.909964,172.782828 139.909964,179.137606 C139.909964,180.244973 139.834462,184.38921 139.834462,185.496578 C139.834462,191.84716 144.335238,196.989706 149.61201,196.989706 C154.888782,196.989706 159.393753,191.842966 159.393753,185.496578 L159.393753,179.137606 Z" fill="#FF8F00"></path>
	</g>
</svg>
