<?xml version="1.0" encoding="UTF-8"?>
<svg width="256px" height="250px" viewBox="0 0 256 250" version="1.1" xmlns="http://www.w3.org/2000/svg" xmlns:xlink="http://www.w3.org/1999/xlink" preserveAspectRatio="xMidYMid">
    <defs>
        <linearGradient x1="73.8440616%" y1="26.6921802%" x2="30.4585012%" y2="67.386722%" id="linearGradient-1">
            <stop stop-color="#B1278F" offset="0%"></stop>
            <stop stop-color="#AF278E" offset="48%"></stop>
            <stop stop-color="#A8258A" offset="65%"></stop>
            <stop stop-color="#9E2383" offset="76%"></stop>
        </linearGradient>
        <linearGradient x1="111.45912%" y1="16.5892875%" x2="-0.0733783563%" y2="76.3231516%" id="linearGradient-2">
            <stop stop-color="#EC178D" offset="0%"></stop>
            <stop stop-color="#EA178D" offset="47%"></stop>
            <stop stop-color="#E3188C" offset="64%"></stop>
            <stop stop-color="#D81A8A" offset="76%"></stop>
            <stop stop-color="#C71D88" offset="86%"></stop>
            <stop stop-color="#B12085" offset="95%"></stop>
            <stop stop-color="#9E2383" offset="100%"></stop>
        </linearGradient>
        <radialGradient cx="56.9149816%" cy="88.8833143%" fx="56.9149816%" fy="88.8833143%" r="141.731287%" id="radialGradient-3">
            <stop stop-color="#EC178D" offset="0%"></stop>
            <stop stop-color="#CB1C8C" offset="24%"></stop>
            <stop stop-color="#772888" offset="77%"></stop>
            <stop stop-color="#512E87" offset="100%"></stop>
        </radialGradient>
        <radialGradient cx="37.4328838%" cy="107.316971%" fx="37.4328838%" fy="107.316971%" r="81.7439196%" id="radialGradient-4">
            <stop stop-color="#BA258E" offset="0%"></stop>
            <stop stop-color="#B5258D" offset="23%"></stop>
            <stop stop-color="#A5278B" offset="51%"></stop>
            <stop stop-color="#8B2987" offset="83%"></stop>
            <stop stop-color="#7A2A85" offset="100%"></stop>
        </radialGradient>
        <radialGradient cx="-17.8113765%" cy="68.5756164%" fx="-17.8113765%" fy="68.5756164%" r="115.435554%" id="radialGradient-5">
            <stop stop-color="#E21A8D" offset="9%"></stop>
            <stop stop-color="#952584" offset="100%"></stop>
        </radialGradient>
        <radialGradient cx="5.23908%" cy="62.2269711%" fx="5.23908%" fy="62.2269711%" r="80.2174636%" id="radialGradient-6">
            <stop stop-color="#E21A8D" offset="9%"></stop>
            <stop stop-color="#952584" offset="100%"></stop>
        </radialGradient>
        <radialGradient cx="6.17172913%" cy="59.6559061%" fx="6.17172913%" fy="59.6559061%" r="84.7637675%" id="radialGradient-7">
            <stop stop-color="#E21A8D" offset="9%"></stop>
            <stop stop-color="#952584" offset="100%"></stop>
        </radialGradient>
        <radialGradient cx="22.0505567%" cy="60.4802396%" fx="22.0505567%" fy="60.4802396%" r="133.158635%" id="radialGradient-8">
            <stop stop-color="#E21A8D" offset="0%"></stop>
            <stop stop-color="#DF1A8D" offset="25%"></stop>
            <stop stop-color="#D51C8C" offset="44%"></stop>
            <stop stop-color="#C51E8A" offset="60%"></stop>
            <stop stop-color="#AF2187" offset="76%"></stop>
            <stop stop-color="#952584" offset="89%"></stop>
        </radialGradient>
        <linearGradient x1="4.05138932%" y1="47.6374918%" x2="91.0546504%" y2="51.9359766%" id="linearGradient-9">
            <stop stop-color="#B1278F" offset="0%"></stop>
            <stop stop-color="#AF278E" offset="48%"></stop>
            <stop stop-color="#A8258A" offset="65%"></stop>
            <stop stop-color="#9E2383" offset="76%"></stop>
        </linearGradient>
        <linearGradient x1="3.18749749%" y1="44.8011675%" x2="95.4743141%" y2="53.5945109%" id="linearGradient-10">
            <stop stop-color="#EC178D" offset="0%"></stop>
            <stop stop-color="#EA178D" offset="47%"></stop>
            <stop stop-color="#E3188C" offset="64%"></stop>
            <stop stop-color="#D81A8A" offset="76%"></stop>
            <stop stop-color="#C71D88" offset="86%"></stop>
            <stop stop-color="#B12085" offset="95%"></stop>
            <stop stop-color="#9E2383" offset="100%"></stop>
        </linearGradient>
        <radialGradient cx="95.195158%" cy="26.5531645%" fx="95.195158%" fy="26.5531645%" r="109.020649%" id="radialGradient-11">
            <stop stop-color="#EC178D" offset="0%"></stop>
            <stop stop-color="#CB1C8C" offset="24%"></stop>
            <stop stop-color="#772888" offset="77%"></stop>
            <stop stop-color="#512E87" offset="100%"></stop>
        </radialGradient>
        <radialGradient cx="103.819561%" cy="39.4798802%" fx="103.819561%" fy="39.4798802%" r="117.774443%" id="radialGradient-12">
            <stop stop-color="#BA258E" offset="0%"></stop>
            <stop stop-color="#B5258D" offset="23%"></stop>
            <stop stop-color="#A5278B" offset="51%"></stop>
            <stop stop-color="#8B2987" offset="83%"></stop>
            <stop stop-color="#7A2A85" offset="100%"></stop>
        </radialGradient>
        <radialGradient cx="101.124411%" cy="82.9324871%" fx="101.124411%" fy="82.9324871%" r="100.719861%" id="radialGradient-13">
            <stop stop-color="#E21A8D" offset="9%"></stop>
            <stop stop-color="#952584" offset="100%"></stop>
        </radialGradient>
        <radialGradient cx="98.5486449%" cy="73.0939312%" fx="98.5486449%" fy="73.0939312%" r="110.462498%" id="radialGradient-14">
            <stop stop-color="#E21A8D" offset="9%"></stop>
            <stop stop-color="#952584" offset="100%"></stop>
        </radialGradient>
        <radialGradient cx="99.5515693%" cy="72.2464762%" fx="99.5515693%" fy="72.2464762%" r="112.771912%" id="radialGradient-15">
            <stop stop-color="#E21A8D" offset="9%"></stop>
            <stop stop-color="#952584" offset="100%"></stop>
        </radialGradient>
        <radialGradient cx="77.3596357%" cy="60.3652515%" fx="77.3596357%" fy="60.3652515%" r="125.522698%" id="radialGradient-16">
            <stop stop-color="#E21A8D" offset="0%"></stop>
            <stop stop-color="#DF1A8D" offset="25%"></stop>
            <stop stop-color="#D51C8C" offset="44%"></stop>
            <stop stop-color="#C51E8A" offset="60%"></stop>
            <stop stop-color="#AF2187" offset="76%"></stop>
            <stop stop-color="#952584" offset="89%"></stop>
        </radialGradient>
        <linearGradient x1="59.8890778%" y1="137.595586%" x2="42.4570427%" y2="-75.9662138%" id="linearGradient-17">
            <stop stop-color="#B1278F" offset="0%"></stop>
            <stop stop-color="#AF278E" offset="48%"></stop>
            <stop stop-color="#A8258A" offset="65%"></stop>
            <stop stop-color="#9E2383" offset="76%"></stop>
        </linearGradient>
        <linearGradient x1="68.5552427%" y1="128.237426%" x2="37.7518358%" y2="-32.5667788%" id="linearGradient-18">
            <stop stop-color="#EC178D" offset="0%"></stop>
            <stop stop-color="#EA178D" offset="47%"></stop>
            <stop stop-color="#E3188C" offset="64%"></stop>
            <stop stop-color="#D81A8A" offset="76%"></stop>
            <stop stop-color="#C71D88" offset="86%"></stop>
            <stop stop-color="#B12085" offset="95%"></stop>
            <stop stop-color="#9E2383" offset="100%"></stop>
        </linearGradient>
        <radialGradient cx="16.8509016%" cy="17.9116162%" fx="16.8509016%" fy="17.9116162%" r="71.8957579%" id="radialGradient-19">
            <stop stop-color="#EC178D" offset="0%"></stop>
            <stop stop-color="#CB1C8C" offset="24%"></stop>
            <stop stop-color="#772888" offset="77%"></stop>
            <stop stop-color="#512E87" offset="100%"></stop>
        </radialGradient>
        <radialGradient cx="19.4919641%" cy="16.6080961%" fx="19.4919641%" fy="16.6080961%" r="72.0934328%" id="radialGradient-20">
            <stop stop-color="#BA258E" offset="0%"></stop>
            <stop stop-color="#B5258D" offset="23%"></stop>
            <stop stop-color="#A5278B" offset="51%"></stop>
            <stop stop-color="#8B2987" offset="83%"></stop>
            <stop stop-color="#7A2A85" offset="100%"></stop>
        </radialGradient>
        <radialGradient cx="56.3611222%" cy="-43.4976803%" fx="56.3611222%" fy="-43.4976803%" r="66.7156912%" id="radialGradient-21">
            <stop stop-color="#E21A8D" offset="9%"></stop>
            <stop stop-color="#952584" offset="100%"></stop>
        </radialGradient>
        <radialGradient cx="57.4765699%" cy="-39.6175144%" fx="57.4765699%" fy="-39.6175144%" r="53.6090645%" id="radialGradient-22">
            <stop stop-color="#E21A8D" offset="9%"></stop>
            <stop stop-color="#952584" offset="100%"></stop>
        </radialGradient>
        <radialGradient cx="57.4970798%" cy="-37.2164949%" fx="57.4970798%" fy="-37.2164949%" r="52.3293595%" id="radialGradient-23">
            <stop stop-color="#E21A8D" offset="9%"></stop>
            <stop stop-color="#952584" offset="100%"></stop>
        </radialGradient>
        <radialGradient cx="49.1649706%" cy="11.7621644%" fx="49.1649706%" fy="11.7621644%" r="70.9158683%" id="radialGradient-24">
            <stop stop-color="#E21A8D" offset="0%"></stop>
            <stop stop-color="#DF1A8D" offset="25%"></stop>
            <stop stop-color="#D51C8C" offset="44%"></stop>
            <stop stop-color="#C51E8A" offset="60%"></stop>
            <stop stop-color="#AF2187" offset="76%"></stop>
            <stop stop-color="#952584" offset="89%"></stop>
        </radialGradient>
    </defs>
    <g>
        <g transform="translate(0.000000, -1.000000)">
            <g transform="translate(0.000000, 66.739300)">
                <path d="M24.3050584,20.2210117 C22.5120623,19.8225681 20.4202335,19.0256809 18.92607,18.029572 C21.3167315,20.2210117 30.9789883,35.3618677 32.4731518,38.4498054 C32.7719844,35.3618677 29.4848249,25.5003891 24.3050584,20.2210117 L24.3050584,20.2210117 Z" fill="url(#linearGradient-1)"></path>
                <path d="M33.9673152,55.3836576 C33.9673152,55.3836576 37.0552529,41.1392996 34.9634241,31.8754864 C32.8715953,22.6116732 27.5922179,12.8498054 27.5922179,12.7501946 L27.5922179,12.7501946 C27.5922179,12.7501946 28.0902724,17.6311284 26.3968872,18.2287938 C24.7035019,18.8264591 19.5237354,14.7424125 19.5237354,14.7424125 C19.5237354,14.7424125 26.7953307,22.6116732 29.7836576,29.4848249 C32.3735409,35.3618677 33.0708171,38.848249 31.9750973,46.1198444 C30.8793774,53.3914397 30.6801556,53.1922179 30.6801556,53.1922179 L33.9673152,55.3836576 L33.9673152,55.3836576 Z" fill="url(#linearGradient-2)"></path>
                <path d="M14.6640887,1.59377432 C13.6679798,3.08793774 12.8710926,4.58210117 12.1738164,6.17587549 C8.68743505,12.7501946 5.6991082,19.5237354 3.30844673,26.5961089 C-10.1390241,69.229572 19.0469681,153.002335 61.1823767,151.807004 C65.9636996,151.707393 70.346579,155.592218 68.9520265,161.967315 C68.453972,164.357977 68.1551393,166.748638 67.9559175,169.238911 C67.3582522,172.52607 68.453972,175.81323 70.7450226,178.203891 C73.9325712,181.590661 78.3154506,184.578988 83.6944389,184.080934 C87.0812094,183.782101 88.1769292,182.985214 91.0656452,180.893385 C93.4563066,179.2 95.3489137,177.00856 97.7395751,175.215564 C97.9387969,175.016342 98.2376296,174.916732 98.4368514,174.71751 C91.4640887,169.438132 92.6594195,162.764202 95.8469681,152.006226 C94.5520265,150.910506 93.4563066,149.814786 92.3605868,148.619455 C91.1652561,147.324514 90.1691471,145.929961 89.0734273,144.535409 C88.1769292,143.439689 86.9815985,142.44358 86.1847113,141.34786 C83.9932716,138.160311 84.0928825,133.677821 84.0928825,129.792996 C84.1924934,125.708949 84.8897697,121.525292 84.0928825,117.540856 C83.3956063,114.154086 82.1006646,110.866926 80.5068903,107.778988 C77.4189526,101.702724 73.1356841,96.3237354 67.9559175,91.940856 C62.6765401,87.4583658 57.3971627,82.9758755 52.2173961,78.2941634 C48.0337386,74.5089494 44.4477463,70.9229572 42.1566958,65.6435798 C40.5629214,62.0575875 39.2679798,58.3719844 38.2718708,54.5867704 C37.4749837,51.5984436 36.9769292,48.5105058 35.9808203,45.6217899 C35.1839331,43.4303502 34.1878242,41.2389105 32.9924934,39.1470817 C31.0998864,35.6607004 29.5061121,31.8754864 27.4142833,28.488716 C25.2228436,24.7035019 22.5333494,20.6194553 18.7481354,18.029572 C19.9434662,16.6350195 20.4415207,14.8420233 20.2422989,12.9494163 C20.142688,11.6544747 19.8438553,9.16420233 18.1504701,8.96498054 C18.5489137,7.67003891 18.9473572,6.27548638 19.146579,4.98054475 C19.5450226,3.58599222 19.146579,2.09182879 17.9512483,1.19533074 C16.9551393,0.996108949 15.9590304,0.896498054 14.9629214,0.996108949 C14.9629214,1.19533074 14.7636996,1.39455253 14.6640887,1.59377432 L14.6640887,1.59377432 Z M88.8742055,168.541634 C90.1691471,169.736965 90.268758,171.828794 89.1730382,173.123735 C88.2765401,174.617899 86.3839331,175.016342 84.8897697,174.119844 C84.8897697,174.119844 84.7901588,174.119844 84.7901588,174.020233 C83.4952172,172.824903 83.3956063,170.733074 84.4913261,169.438132 C85.3878242,167.943969 87.2804312,167.545525 88.7745946,168.442023 C88.7745946,168.541634 88.7745946,168.541634 88.8742055,168.541634 L88.8742055,168.541634 Z" fill="url(#radialGradient-3)"></path>
                <path d="M99.4116732,174.319066 C103.396109,172.625681 107.679377,173.123735 111.564202,173.920623 C114.950973,174.617899 118.238132,175.614008 121.525292,176.809339 C126.505837,171.330739 122.122957,163.561089 117.740078,161.270039 C113.357198,158.978988 108.177432,157.982879 103.196887,156.588327 C100.806226,155.891051 98.614786,154.098054 96.722179,152.603891 C93.6342412,163.162646 92.5385214,169.338521 99.4116732,174.319066 L99.4116732,174.319066 Z" fill="url(#radialGradient-4)"></path>
                <path d="M15.0412451,90.8451362 C14.8420233,87.8568093 17.6311284,89.3509728 19.7229572,90.8451362 C17.033463,88.4544747 12.8498054,84.1712062 14.4435798,81.581323 C15.6389105,79.7883268 17.4319066,80.585214 18.92607,81.7805447 C16.9338521,79.3898833 14.9416342,76.1027237 15.9377432,73.7120623 L15.9377432,73.7120623 C12.5509728,70.8233463 9.06459144,68.6319066 7.17198444,69.4287938 C5.37898833,70.2256809 8.46692607,74.7081712 12.4513619,79.2902724 C9.66225681,76.9992218 7.07237354,75.6046693 5.77743191,76.8996109 C3.78521401,78.9914397 9.7618677,86.0638132 15.0412451,91.5424125 C15.140856,91.3431907 15.0412451,91.1439689 15.0412451,90.8451362 L15.0412451,90.8451362 Z" fill="url(#radialGradient-5)"></path>
                <path d="M8.56653696,60.0653696 C6.77354086,61.9579767 11.355642,68.0342412 16.2365759,73.4132296 C17.2326848,71.9190661 19.0256809,73.1143969 20.7190661,74.7081712 C18.1291829,71.3214008 15.3400778,66.9385214 17.3322957,65.6435798 C17.4319066,65.5439689 17.5315175,65.5439689 17.7307393,65.444358 C14.0451362,61.659144 10.1603113,58.3719844 8.56653696,60.0653696 L8.56653696,60.0653696 Z" fill="url(#radialGradient-6)"></path>
                <path d="M16.9338521,99.511284 C16.6350195,98.1167315 17.033463,97.618677 17.7307393,97.4194553 C18.92607,97.4194553 20.1214008,97.7182879 21.1175097,98.4155642 C19.4241245,97.4194553 16.2365759,95.1284047 15.3400778,92.2396887 C12.5509728,90.1478599 9.96108949,88.9525292 9.66225681,91.6420233 C9.06459144,97.4194553 22.6116732,107.579767 22.6116732,107.579767 L22.711284,107.380545 C19.4241245,103.595331 17.1330739,100.607004 16.9338521,99.511284 L16.9338521,99.511284 Z" fill="url(#radialGradient-7)"></path>
                <path d="M17.4319066,59.0692607 C17.033463,60.3642023 18.92607,63.551751 20.9182879,66.4404669 C19.7229572,65.444358 18.4280156,64.9463035 17.2326848,65.7431907 C15.2404669,67.0381323 18.029572,71.4210117 20.6194553,74.8077821 C18.8264591,73.1143969 16.8342412,71.9190661 15.9377432,73.911284 C14.9416342,76.3019455 16.9338521,79.5891051 18.92607,81.9797665 C17.4319066,80.7844358 15.6389105,79.9875486 14.4435798,81.7805447 C12.8498054,84.2708171 16.9338521,88.6536965 19.7229572,91.044358 C17.6311284,89.5501946 14.9416342,87.9564202 15.0412451,91.044358 C15.2404669,94.5307393 19.1252918,97.4194553 21.1175097,98.614786 C20.1214008,98.0171206 18.92607,97.618677 17.7307393,97.618677 C17.033463,97.7182879 16.6350195,98.3159533 16.9338521,99.7105058 C17.9299611,104.192996 51.7976654,139.853696 57.87393,135.968872 C64.1494163,131.884825 58.0731518,111.066148 44.2272374,89.3509728 C38.5494163,80.3859922 21.7151751,58.0731518 18.1291829,58.6708171 C17.7307393,58.4715953 17.5315175,58.770428 17.4319066,59.0692607 L17.4319066,59.0692607 Z" fill="url(#radialGradient-8)"></path>
            </g>
            <g transform="translate(127.501946, 64.747082)">
                <path d="M13.9455253,162.863813 C14.4435798,164.656809 14.8420233,166.848249 14.7424125,168.641245 C15.4396887,165.453696 23.707393,149.515953 25.6,146.726848 C22.8108949,148.02179 15.9377432,155.691829 13.9455253,162.863813 L13.9455253,162.863813 Z" fill="url(#linearGradient-9)"></path>
                <path d="M39.5455253,136.86537 C39.5455253,136.86537 25.6996109,141.34786 18.7268482,147.722957 C11.7540856,154.098054 5.8770428,163.6607 5.8770428,163.6607 L5.8770428,163.6607 C5.8770428,163.6607 9.8614786,160.771984 11.1564202,161.967315 C12.4513619,163.162646 11.5548638,169.637354 11.5548638,169.637354 C11.5548638,169.637354 14.7424125,159.477043 19.2249027,153.400778 C23.0101167,148.221012 25.6996109,145.83035 32.5727626,143.140856 C39.4459144,140.451362 39.3463035,140.650584 39.3463035,140.650584 L39.5455253,136.86537 L39.5455253,136.86537 Z" fill="url(#linearGradient-10)"></path>
                <path d="M2.58988327,180.494942 C4.38287938,180.594553 6.07626459,180.594553 7.8692607,180.395331 C15.3400778,180.196109 22.711284,179.299611 29.9828794,177.805447 C73.6124514,168.04358 131.585992,101.005447 109.472374,65.0459144 C106.982101,60.9618677 108.177432,55.1844358 114.353307,53.1922179 C116.644358,52.3953307 118.935409,51.4988327 121.126848,50.5027237 C124.214786,49.307393 126.605447,46.8171206 127.501946,43.629572 C128.796887,39.1470817 129.195331,33.8677043 126.107393,29.4848249 C124.115175,26.6957198 122.919844,26.0980545 119.632685,24.6038911 C116.943191,23.4085603 114.154086,22.8108949 111.464591,21.7151751 C111.165759,21.6155642 110.966537,21.5159533 110.667704,21.3167315 C109.571984,29.9828794 103.196887,32.27393 92.3392996,34.9634241 C92.0404669,36.5571984 91.6420233,38.1509728 91.1439689,39.7447471 C90.5463035,41.4381323 89.9486381,43.0319066 89.2513619,44.6256809 C88.7533074,45.9206226 88.4544747,47.414786 87.8568093,48.7097276 C86.263035,52.1961089 82.2785992,54.3875486 78.8918288,56.2801556 C75.3058366,58.2723735 71.3214008,59.766537 68.233463,62.3564202 C65.6435798,64.6474708 63.4521401,67.336965 61.5595331,70.3252918 C57.87393,76.0031128 55.3836576,82.477821 54.088716,89.151751 C52.7937743,96.0249027 51.5984436,102.798444 50.1042802,109.571984 C48.9089494,115.050584 47.5143969,120.031128 44.2272374,124.61323 C41.9361868,127.800778 39.3463035,130.689494 36.6568093,133.478599 C34.4653696,135.670039 32.0747082,137.662257 29.9828794,139.953307 C28.488716,141.746304 27.0941634,143.738521 25.8988327,145.730739 C23.8070039,149.11751 21.4163424,152.404669 19.4241245,155.891051 C17.2326848,159.676265 15.0412451,164.059144 14.6428016,168.641245 C12.8498054,168.342412 10.9571984,168.740856 9.56264591,169.936187 C8.56653696,170.633463 6.57431907,172.227237 7.17198444,173.721401 C5.8770428,174.119844 4.48249027,174.418677 3.18754864,174.817121 C1.79299611,175.115953 0.697276265,176.311284 0.498054475,177.705837 C0.79688716,178.701946 1.19533074,179.598444 1.892607,180.395331 C2.09182879,180.494942 2.39066148,180.494942 2.58988327,180.494942 L2.58988327,180.494942 Z M110.070039,32.7719844 C110.468482,31.0785992 112.161868,29.8832685 113.954864,30.1821012 C115.648249,30.2817121 117.042802,31.6762646 116.943191,33.3696498 L116.943191,33.4692607 C116.544747,35.1626459 114.851362,36.3579767 113.058366,36.059144 C111.364981,35.9595331 109.970428,34.5649805 110.070039,32.8715953 C110.070039,32.8715953 110.070039,32.8715953 110.070039,32.7719844 L110.070039,32.7719844 Z" fill="url(#radialGradient-11)"></path>
                <path d="M109.771206,20.7190661 C106.284825,18.1291829 104.691051,14.1447471 103.396109,10.459144 C102.300389,7.17198444 101.503502,3.78521401 100.905837,0.39844358 C93.6342412,-1.19533074 89.151751,6.47470817 89.3509728,11.4552529 C89.5501946,16.4357977 91.3431907,21.4163424 92.5385214,26.3968872 C93.1361868,28.7875486 92.6381323,31.5766537 92.3392996,33.9673152 C102.997665,31.3774319 108.874708,29.1859922 109.771206,20.7190661 L109.771206,20.7190661 Z" fill="url(#radialGradient-12)"></path>
                <path d="M79.688716,135.470817 C77.0988327,137.164202 77.0988327,133.976654 77.2980545,131.38677 C76.6007782,134.972763 74.907393,140.650584 71.9190661,140.550973 C69.7276265,140.451362 69.5284047,138.558755 69.8272374,136.566537 C68.7315175,139.455253 66.9385214,142.941634 64.3486381,143.140856 L64.3486381,143.140856 C63.551751,147.523735 63.3525292,151.707393 65.0459144,152.803113 C66.7392996,153.898833 69.0303502,149.017899 70.9229572,143.240467 C70.3252918,146.826459 70.4249027,149.715175 72.1182879,150.21323 C74.907393,150.910506 78.0949416,142.144747 80.1867704,134.873152 C80.0871595,135.271595 79.8879377,135.371206 79.688716,135.470817 L79.688716,135.470817 Z" fill="url(#radialGradient-13)"></path>
                <path d="M56.2801556,156.588327 C58.770428,157.285603 61.7587549,150.113619 64.0498054,143.340078 C62.3564202,143.240467 62.3564202,141.049027 62.9540856,138.857588 C61.3603113,142.842023 58.9696498,147.424125 56.7782101,146.328405 C56.6785992,146.228794 56.5789883,146.228794 56.4793774,146.129183 C54.8856031,151.109728 54.088716,155.990661 56.2801556,156.588327 L56.2801556,156.588327 Z" fill="url(#radialGradient-14)"></path>
                <path d="M86.263035,129.593774 C85.2669261,130.589883 84.5696498,130.490272 84.0715953,129.992218 C83.47393,128.896498 83.1750973,127.800778 83.1750973,126.505837 C83.1750973,128.498054 82.7766537,132.382879 80.7844358,134.574319 C80.3859922,138.0607 80.585214,140.949416 83.0754864,139.853696 C88.3548638,137.463035 90.4466926,120.628794 90.4466926,120.628794 L90.2474708,120.628794 C88.5540856,125.410117 87.0599222,128.796887 86.263035,129.593774 L86.263035,129.593774 Z" fill="url(#radialGradient-15)"></path>
                <path d="M50.9011673,149.416342 C52.1961089,149.11751 53.9891051,145.83035 55.4832685,142.642802 C55.1844358,144.136965 55.4832685,145.531518 56.6785992,146.129183 C58.8700389,147.224903 61.2607004,142.642802 62.8544747,138.658366 C62.2568093,141.049027 62.2568093,143.439689 64.448249,143.140856 C67.0381323,142.842023 68.8311284,139.455253 69.9268482,136.566537 C69.6280156,138.459144 69.8272374,140.451362 72.018677,140.550973 C75.0070039,140.650584 76.7003891,134.972763 77.3976654,131.38677 C77.0988327,133.976654 77.1984436,137.064591 79.7883268,135.470817 C82.7766537,133.57821 83.2747082,128.796887 83.2747082,126.505837 C83.2747082,127.701167 83.5735409,128.896498 84.1712062,129.992218 C84.6692607,130.490272 85.2669261,130.589883 86.3626459,129.593774 C89.7494163,126.505837 103.694942,79.2902724 97.3198444,76.0031128 C90.6459144,72.6163424 75.7042802,88.3548638 63.7509728,111.165759 C58.8700389,120.628794 47.9128405,146.328405 50.2038911,149.11751 C50.3035019,149.316732 50.6023346,149.515953 50.9011673,149.416342 L50.9011673,149.416342 Z" fill="url(#radialGradient-16)"></path>
            </g>
            <g transform="translate(21.914397, 0.000000)">
                <path d="M184.379767,55.981323 C185.674708,54.6863813 187.368093,53.1922179 188.961868,52.3953307 C185.87393,53.3914397 167.943969,54.1883268 164.557198,53.9891051 C167.047471,55.7821012 177.207782,57.87393 184.379767,55.981323 L184.379767,55.981323 Z" fill="url(#linearGradient-17)"></path>
                <path d="M149.017899,46.8171206 C149.017899,46.8171206 159.875486,56.5789883 168.840467,59.4677043 C177.905058,62.3564202 189.061479,62.6552529 189.061479,62.6552529 L189.061479,62.6552529 C189.061479,62.6552529 184.578988,60.5634241 184.877821,58.8700389 C185.176654,57.1766537 191.352529,54.6863813 191.352529,54.6863813 C191.352529,54.6863813 180.893385,57.0770428 173.522179,56.1805447 C167.147082,55.4832685 163.760311,54.2879377 157.982879,49.7058366 C152.205447,45.1237354 152.404669,45.0241245 152.404669,45.0241245 L149.017899,46.8171206 L149.017899,46.8171206 Z" fill="url(#linearGradient-18)"></path>
                <path d="M205.298054,56.9774319 C204.501167,55.3836576 203.604669,53.8894942 202.508949,52.4949416 C198.624125,46.1198444 194.141634,40.1431907 189.2607,34.6645914 C159.078599,1.69338521 71.9190661,-15.0412451 51.8972763,22.1136187 C49.6062257,26.3968872 44.0280156,28.1898833 39.2466926,23.8070039 C37.4536965,22.2132296 35.4614786,20.7190661 33.4692607,19.3245136 C30.8793774,17.2326848 27.492607,16.4357977 24.3050584,17.2326848 C19.7229572,18.3284047 15.0412451,20.6194553 12.7501946,25.5003891 C11.2560311,28.5883268 11.4552529,29.9828794 11.7540856,33.4692607 C12.0529183,36.3579767 12.9494163,39.1470817 13.3478599,42.0357977 L13.3478599,42.9322957 C21.4163424,39.5455253 26.5961089,43.9284047 34.3657588,51.9968872 C35.8599222,51.3992218 37.4536965,51.0007782 39.0474708,50.7019455 C40.740856,50.3035019 42.5338521,50.1042802 44.2272374,49.8054475 C45.6217899,49.6062257 47.0163424,49.1081712 48.4108949,48.9089494 C52.1961089,48.6101167 56.1805447,50.9011673 59.4677043,52.8933852 C62.9540856,54.985214 66.2412451,57.6747082 70.12607,58.9696498 C73.4132296,60.0653696 76.8996109,60.663035 80.3859922,60.7626459 C87.1595331,61.0614786 94.0326848,60.0653696 100.407782,57.7743191 C106.982101,55.4832685 113.456809,53.092607 120.130739,51.0007782 C125.509728,49.307393 130.390661,48.0124514 136.068482,48.6101167 C139.953307,49.0085603 143.838132,49.8054475 147.623346,50.8015564 C150.611673,51.5984436 153.500389,52.6941634 156.488716,53.2918288 C158.779767,53.6902724 161.170428,53.9891051 163.561089,53.9891051 C167.545525,54.088716 171.529961,54.5867704 175.614008,54.5867704 C179.996887,54.5867704 184.877821,54.2879377 189.061479,52.2957198 C189.659144,53.9891051 190.954086,55.3836576 192.747082,56.0809339 C193.842802,56.5789883 196.233463,57.5750973 197.229572,56.1805447 C198.225681,57.1766537 199.122179,58.1727626 200.118288,59.0692607 C201.114397,60.1649805 202.708171,60.4638132 204.003113,59.9657588 C204.700389,59.2684825 205.298054,58.3719844 205.596887,57.4754864 C205.497276,57.3758755 205.397665,57.1766537 205.298054,56.9774319 L205.298054,56.9774319 Z M23.707393,37.7525292 C22.0140078,38.2505837 20.2210117,37.3540856 19.5237354,35.6607004 C18.7268482,34.166537 19.3245136,32.27393 20.818677,31.4770428 C20.818677,31.4770428 20.9182879,31.4770428 20.9182879,31.3774319 C22.6116732,30.8793774 24.4046693,31.7758755 25.1019455,33.4692607 C25.8988327,34.9634241 25.3011673,36.8560311 23.8070039,37.6529183 C23.707393,37.6529183 23.707393,37.7525292 23.707393,37.7525292 L23.707393,37.7525292 Z" fill="url(#radialGradient-19)"></path>
                <path d="M13.3478599,44.0280156 C12.7501946,48.311284 10.2599222,51.6980545 7.67003891,54.6863813 C5.37898833,57.2762646 2.88871595,59.6669261 0.19922179,61.8583658 C2.49027237,68.9307393 11.355642,68.9307393 15.5392996,66.340856 C19.7229572,63.7509728 23.2093385,59.6669261 26.8949416,56.1805447 C28.6879377,54.4871595 31.3774319,53.4910506 33.5688716,52.4949416 C25.8988327,44.6256809 21.1175097,40.6412451 13.3478599,44.0280156 L13.3478599,44.0280156 Z" fill="url(#radialGradient-20)"></path>
                <path d="M127.800778,12.7501946 C130.490272,14.1447471 127.800778,15.7385214 125.410117,16.8342412 C128.896498,15.6389105 134.67393,14.244358 136.068482,16.9338521 C137.064591,18.8264591 135.470817,20.0217899 133.677821,20.7190661 C136.666148,20.2210117 140.650584,20.1214008 142.144747,22.1136187 L142.144747,22.1136187 C146.328405,20.6194553 150.014008,18.7268482 150.21323,16.7346304 C150.412451,14.7424125 145.033463,15.140856 138.957198,16.4357977 C142.343969,15.140856 144.834241,13.5470817 144.336187,11.8536965 C143.5393,9.06459144 134.375097,10.7579767 127.003891,12.5509728 C127.402335,12.4513619 127.601556,12.5509728 127.800778,12.7501946 L127.800778,12.7501946 Z" fill="url(#radialGradient-21)"></path>
                <path d="M157.783658,22.4124514 C157.086381,19.922179 149.416342,20.9182879 142.44358,22.3128405 C143.240467,23.9066148 141.34786,24.9027237 139.056809,25.6 C143.240467,25.0023346 148.420233,24.8031128 148.519844,27.1937743 L148.519844,27.5922179 C153.699611,26.3968872 158.381323,24.7035019 157.783658,22.4124514 L157.783658,22.4124514 Z" fill="url(#radialGradient-22)"></path>
                <path d="M119.433463,9.96108949 C120.828016,10.3595331 121.027237,10.9571984 120.828016,11.6544747 C120.23035,12.6505837 119.333852,13.5470817 118.238132,14.1447471 C120.031128,13.1486381 123.51751,11.5548638 126.505837,12.2521401 C129.693385,10.8575875 132.084047,9.16420233 129.892607,7.67003891 C125.111284,4.18365759 109.571984,10.8575875 109.571984,10.8575875 L109.671595,11.0568093 C114.65214,10.1603113 118.337743,9.66225681 119.433463,9.96108949 L119.433463,9.96108949 Z" fill="url(#radialGradient-23)"></path>
                <path d="M154.197665,30.6801556 C153.301167,29.6840467 149.515953,29.7836576 146.029572,30.0824903 C147.424125,29.5844358 148.519844,28.6879377 148.519844,27.2933852 C148.420233,24.9027237 143.240467,25.1019455 139.056809,25.6996109 C141.447471,25.0023346 143.5393,23.8070039 142.244358,22.1136187 C140.750195,20.0217899 136.86537,20.2210117 133.777432,20.7190661 C135.570428,20.0217899 137.164202,18.8264591 136.168093,16.9338521 C134.773541,14.244358 128.996109,15.7385214 125.509728,16.8342412 C127.900389,15.8381323 130.589883,14.1447471 127.900389,12.7501946 C124.71284,11.1564202 120.429572,13.0490272 118.337743,14.244358 C119.433463,13.6466926 120.23035,12.8498054 120.927626,11.7540856 C121.126848,11.0568093 120.828016,10.459144 119.533074,10.0607004 C115.150195,8.66614786 67.336965,20.2210117 67.7354086,27.3929961 C68.1338521,34.8638132 89.2513619,39.9439689 114.950973,38.848249 C125.609339,38.3501946 153.301167,35.063035 154.596109,31.5766537 C154.496498,31.1782101 154.396887,30.8793774 154.197665,30.6801556 L154.197665,30.6801556 Z" fill="url(#radialGradient-24)"></path>
            </g>
        </g>
    </g>
</svg>
