<?xml version="1.0" encoding="UTF-8"?>
<svg width="512px" height="160px" viewBox="0 0 512 160" version="1.1" xmlns="http://www.w3.org/2000/svg" preserveAspectRatio="xMidYMid">
    <title>Replay</title>
    <g fill="#F41C52">
        <path d="M63.3966108,31.2056899 L11.1734916,0.998631359 C10.0409806,0.34416323 8.75657634,0 7.44921462,0 C6.1418529,0 4.85750366,0.345137682 3.72532301,1.00003523 C2.5930763,1.65492727 1.65280757,2.59676504 0.998906495,3.73094413 C0.345005419,4.86516177 0,6.15171317 0,7.46149725 L0,67.8748547 C0,69.1851342 0.344911828,70.4717407 0.998796387,71.6058482 C1.65267544,72.7399557 2.59293867,73.6819256 3.72515785,74.3370654 C4.85739355,74.9916547 6.1417428,75.3368424 7.44915957,75.3368424 C8.75652129,75.3368424 10.0409806,74.9927557 11.1734916,74.3381665 L63.3966108,44.1315428 C64.5290667,43.4765682 65.4693849,42.5344882 66.1234237,41.3999953 C66.7774624,40.2655575 67.1215484,38.9786207 67.1215484,37.6686164 C67.1215484,36.3586121 66.7774624,35.0716753 66.1234237,33.9371824 C65.4693849,32.8027446 64.5290667,31.8606646 63.3966108,31.2056899 Z M63.3966108,115.333401 L11.1734916,85.126502 C10.0409806,84.4719127 8.75652129,84.1278267 7.44910452,84.1278267 C6.14168774,84.1278267 4.85739355,84.4730138 3.72515785,85.1281536 C2.59293867,85.7832934 1.65265892,86.7247127 0.998774366,87.8593708 C0.344895312,88.9934783 0,90.2800848 0,91.5898138 L0,152.003061 C0,153.31279 0.344895312,154.599397 0.998774366,155.734055 C1.65265892,156.868162 2.59293867,157.810132 3.72515785,158.464721 C4.85739355,159.119861 6.14168774,159.465048 7.44910452,159.465048 C8.75652129,159.465048 10.0409806,159.120962 11.1734916,158.466373 L63.3966108,128.259474 C64.5290667,127.604885 65.4699355,126.662364 66.1234237,125.528257 C66.7774624,124.393599 67.1215484,123.106442 67.1215484,121.796713 C67.1215484,120.486433 66.7774624,119.199276 66.1234237,118.065169 C65.4699355,116.930511 64.5290667,115.988541 63.3966108,115.333401 Z M137.867837,73.277831 L85.6443871,43.0712074 C84.5119312,42.4167282 83.2275269,42.072587 81.9205505,42.072587 C80.6130237,42.072587 79.3286194,42.4177192 78.1961634,43.0726388 C77.0642581,43.7275033 76.1239398,44.6693631 75.4699011,45.8035256 C74.8158624,46.9377433 74.4712258,48.2242947 74.4712258,49.5340788 L74.4712258,109.947491 C74.4712258,111.25722 74.8158624,112.543827 75.4699011,113.678485 C76.1239398,114.812592 77.0642581,115.754562 78.1961634,116.409151 C79.3286194,117.064291 80.6130237,117.409478 81.9205505,117.409478 C83.2275269,117.409478 84.5119312,117.064842 85.6443871,116.410803 L137.867837,86.2039041 C139.000292,85.5487643 139.940611,84.6067945 140.594649,83.4721364 C141.248138,82.3380289 141.592774,81.0508719 141.592774,79.7411428 C141.592774,78.4308633 141.248138,77.1437063 140.594649,76.0095988 C139.940611,74.8749407 139.000292,73.9329708 137.867837,73.277831 Z"></path>
        <path d="M208.192413,105.850941 L208.192413,33.1962138 L232.741437,33.1962138 C238.41803,33.1962138 243.07723,34.1659308 246.719037,36.1052547 C250.361394,38.0209605 253.057376,40.6580357 254.807535,44.0164254 C256.557695,47.3748151 257.433049,51.1943902 257.433049,55.4750955 C257.433049,59.7560762 256.557695,63.5520332 254.807535,66.8629665 C253.057376,70.1738998 250.372955,72.7757407 246.754822,74.6679385 C243.136138,76.5359127 238.512172,77.4701751 232.883475,77.4701751 L213.016774,77.4701751 L213.016774,69.5237149 L232.599948,69.5237149 C236.478486,69.5237149 239.600585,68.9561106 241.965144,67.820902 C244.353927,66.6856934 246.080413,65.077573 247.145153,62.9959902 C248.233015,60.8912848 248.776946,58.3841364 248.776946,55.4750955 C248.776946,52.5660547 248.233015,50.0237269 247.145153,47.847837 C246.05674,45.6720022 244.318692,43.9927523 241.92991,42.8102525 C239.541127,41.6040796 236.383794,41.0009656 232.45791,41.0009656 L216.990004,41.0009656 L216.990004,105.850941 L208.192413,105.850941 Z M242.39126,73.2134181 L260.271071,105.850941 L250.054194,105.850941 L232.45791,73.2134181 L242.39126,73.2134181 Z M293.219647,106.986149 C287.96917,106.986149 283.439897,105.827268 279.631828,103.509504 C275.847983,101.168068 272.92683,97.9044805 270.869471,93.7181923 C268.835785,89.5087816 267.818391,84.6128504 267.818391,79.0314998 C267.818391,73.4495988 268.835785,68.530545 270.869471,64.2732375 C272.92683,59.9922568 275.789075,56.6576504 279.454555,54.2688676 C283.144258,51.8566319 287.448361,50.650459 292.367966,50.650459 C295.205987,50.650459 298.008774,51.1234809 300.775776,52.0694697 C303.542778,53.0152934 306.061488,54.552945 308.331905,56.6813235 C310.602873,58.7860289 312.41194,61.5772547 313.760206,65.0538998 C315.107923,68.530545 315.782331,72.8109751 315.782331,77.8962912 L315.782331,81.4434052 L273.778512,81.4434052 L273.778512,74.206588 L307.267716,74.206588 C307.267716,71.1318353 306.652766,68.3885063 305.422865,65.9760504 C304.217187,63.5635945 302.490701,61.6598353 300.243406,60.2642224 C298.020335,58.86916 295.395372,58.1716289 292.367966,58.1716289 C289.033359,58.1716289 286.147991,58.9990869 283.711862,60.6545536 C281.299406,62.2863471 279.442994,64.4152762 278.142073,67.0402396 C276.841153,69.6657536 276.190968,72.480102 276.190968,75.4838353 L276.190968,80.3081966 C276.190968,84.4234654 276.900611,87.9122224 278.319346,90.773917 C279.762305,93.6119385 281.760757,95.776102 284.314701,97.2658568 C286.869196,98.7324891 289.837144,99.4652547 293.219647,99.4652547 C295.419045,99.4652547 297.405385,99.1580547 299.179217,98.5431041 C300.976723,97.9044805 302.525935,96.9586568 303.826856,95.7050826 C305.127776,94.4278353 306.132508,92.843388 306.842151,90.9511902 L314.930649,93.2216074 C314.079518,95.9649364 312.648671,98.3773923 310.638108,100.458975 C308.627544,102.516334 306.144619,104.124455 303.188232,105.283336 C300.231845,106.418545 296.9088,106.986149 293.219647,106.986149 Z M328.517918,126.285246 L328.517918,51.3599919 L336.606417,51.3599919 L336.606417,60.0159299 L337.600138,60.0159299 L337.927106,59.5213203 C338.504992,58.6608121 339.24753,57.6195314 340.154082,56.3977966 C341.265617,54.9074912 342.850615,53.5828977 344.907974,52.424016 C346.989006,51.2417364 349.803905,50.650459 353.351019,50.650459 C357.939751,50.650459 361.984,51.7975041 365.484318,54.0915945 C368.984637,56.3856848 371.715854,59.6377106 373.679071,63.8476719 C375.642288,68.0570826 376.623346,73.0240332 376.623346,78.7474224 C376.623346,84.5181579 375.642288,89.5203428 373.679071,93.7539773 C371.715854,97.963388 368.996198,101.227526 365.519553,103.545289 C362.042908,105.839379 358.033892,106.986149 353.493058,106.986149 C349.99274,106.986149 347.190503,106.406984 345.085247,105.248102 C342.980542,104.065547 341.36031,102.729392 340.225101,101.239087 C339.089892,99.725659 338.214538,98.4720848 337.600138,97.4789149 L336.890495,97.4789149 L336.890495,126.285246 L328.517918,126.285246 Z M336.748456,78.6053837 C336.748456,82.7206525 337.351295,86.3508977 338.557523,89.4966697 C339.763751,92.6187686 341.526022,95.066459 343.843785,96.8402912 C346.161548,98.5904504 348.99957,99.4652547 352.357849,99.4652547 C355.858168,99.4652547 358.77932,98.5431041 361.120757,96.6982525 C363.485316,94.8297278 365.259148,92.3231299 366.441703,89.1773579 C367.647931,86.0084633 368.25132,82.4844719 368.25132,78.6053837 C368.25132,74.7741923 367.660043,71.3212203 366.477488,68.2464676 C365.318606,65.1485923 363.556335,62.7003514 361.191226,60.9028461 C358.849789,59.0816676 355.905514,58.1716289 352.357849,58.1716289 C348.952224,58.1716289 346.090529,59.0348719 343.772766,60.7613579 C341.455002,62.4641708 339.704843,64.8529536 338.522288,67.9271557 C337.339733,70.9782353 336.748456,74.5374611 336.748456,78.6053837 Z M397.767295,33.1962138 L397.767295,105.850941 L389.394718,105.850941 L389.394718,33.1962138 L397.767295,33.1962138 Z M429.136929,107.128188 C425.683957,107.128188 422.550297,106.478003 419.735948,105.177083 C416.9216,103.852489 414.686417,101.94873 413.030951,99.4652547 C411.375484,96.9586568 410.547475,93.9312504 410.547475,90.3835859 C410.547475,87.2614869 411.162426,84.731216 412.392327,82.7916719 C413.622228,80.8284547 415.265583,79.2913536 417.323492,78.1798181 C419.380852,77.0682826 421.651269,76.240274 424.134744,75.6963428 C426.641892,75.1287385 429.160602,74.6794998 431.691424,74.3486267 L434.962965,73.937358 C436.819131,73.7104183 438.412905,73.5281961 439.744138,73.3906912 C441.82572,73.15396 443.339148,72.7636289 444.284972,72.2196977 C445.255019,71.6757665 445.739492,70.7299428 445.739492,69.3816762 L445.739492,69.0981493 C445.739492,65.597831 444.782108,62.8776246 442.866237,60.938631 C440.974039,58.9990869 438.100783,58.0295902 434.245368,58.0295902 C430.248465,58.0295902 427.114804,58.9043945 424.844387,60.6545536 C422.57397,62.4047127 420.977411,64.2732375 420.05526,66.2601278 L412.108249,63.4215557 C413.527535,60.1106224 415.419733,57.5330052 417.784843,55.6881536 C420.173075,53.8196289 422.774916,52.5187084 425.589265,51.7856676 C428.427286,51.0288435 431.217961,50.650459 433.961841,50.650459 C435.712,50.650459 437.722013,50.8632968 439.99243,51.2890276 C442.28652,51.6910852 444.49803,52.5308203 446.626409,53.8080676 C448.779011,55.0847643 450.564404,57.0127471 451.98369,59.5903643 C453.402426,62.1685321 454.112069,65.6215041 454.112069,69.9492805 L454.112069,105.850941 L445.739492,105.850941 L445.739492,98.4720848 L445.313927,98.4720848 C444.746323,99.6546396 443.800499,100.919775 442.475905,102.268042 C441.151312,103.616308 439.389591,104.763078 437.190194,105.709453 C434.990245,106.655276 432.306374,107.128188 429.136929,107.128188 Z M430.414176,99.6072934 C433.72511,99.6072934 436.515785,98.9571084 438.786202,97.656188 C441.080292,96.3552676 442.806778,94.6761278 443.96566,92.6187686 C445.148215,90.560859 445.739492,88.3966955 445.739492,86.1262783 L445.739492,78.4638955 C445.384946,78.8894611 444.604284,79.2797923 443.398056,79.6343385 C442.215501,79.9652117 440.844112,80.2608504 439.282787,80.5212547 C437.745686,80.7579859 436.243819,80.9704934 434.777738,81.1598783 L432.147744,81.4726421 C431.829152,81.5123435 431.535016,81.5499342 431.265308,81.5854439 C429.089583,81.8695213 427.055897,82.3303213 425.163699,82.968945 C423.295174,83.5838955 421.781746,84.5181579 420.622865,85.7717321 C419.487656,87.0016332 418.920052,88.680773 418.920052,90.8091514 C418.920052,93.7181923 419.995802,95.9175902 422.148404,97.4078955 C424.324129,98.8739773 427.07957,99.6072934 430.414176,99.6072934 Z M472.834753,126.285246 C471.592877,126.285246 470.469024,126.194622 469.462823,126.013744 L469.038796,125.9307 C467.92726,125.717642 467.158159,125.505134 466.732594,125.292076 L468.860972,117.91322 C470.895209,118.433478 472.692714,118.622313 474.253488,118.480825 C475.814262,118.338786 477.198314,117.641255 478.403991,116.38768 C479.633892,115.157779 480.75754,113.159328 481.774383,110.392326 L483.335708,106.135018 L463.184929,51.3599919 L472.267148,51.3599919 L487.308938,94.7823816 L487.876542,94.7823816 L502.918331,51.3599919 L512,51.3599919 L488.869712,113.797951 C487.829196,116.6123 486.539837,118.941625 485.002735,120.786476 C483.465634,122.655001 481.67969,124.038502 479.646004,124.93753 C477.635441,125.836007 475.365024,126.285246 472.834753,126.285246 Z"></path>
    </g>
</svg>
