<?xml version="1.0" encoding="UTF-8"?>
<svg width="256px" height="289px" viewBox="0 0 256 289" version="1.1" xmlns="http://www.w3.org/2000/svg" preserveAspectRatio="xMidYMid">
    <title>Replay</title>
    <g>
        <path d="M114.621191,56.4199457 L20.2016937,1.80552736 C18.1541117,0.622247763 15.8319064,0 13.4681939,0 C11.1044815,0 8.78237568,0.624009573 6.73539096,1.80806556 C4.68828679,2.9921116 2.98827917,4.69495603 1.80602481,6.74555396 C0.623770442,8.79622156 0,11.1223089 0,13.490401 L0,122.717864 C0,125.086852 0.623601229,127.413039 1.80582573,129.463507 C2.98804028,131.513976 4.68803795,133.217059 6.73509234,134.401553 C8.7821766,135.585052 11.1042824,136.209152 13.4680944,136.209152 C15.8318068,136.209152 18.1541117,135.587042 20.2016937,134.403544 L114.621191,79.7899118 C116.668673,78.6057165 118.36877,76.9024341 119.551273,74.8512688 C120.733777,72.800203 121.355885,70.473419 121.355885,68.1049287 C121.355885,65.7364385 120.733777,63.4096544 119.551273,61.3584891 C118.36877,59.3074234 116.668673,57.604141 114.621191,56.4199457 Z M114.621191,208.523004 L20.2016937,153.908874 C18.1541117,152.725376 15.8318068,152.103268 13.4679949,152.103268 C11.1041829,152.103268 8.7821766,152.727367 6.73509234,153.911861 C4.68803795,155.096355 2.98801042,156.798442 1.80578592,158.849906 C0.623571367,160.900375 0,163.226562 0,165.594554 L0,274.821818 C0,277.189811 0.623571367,279.515998 1.80578592,281.567461 C2.98801042,283.61793 4.68803795,285.321013 6.73509234,286.504512 C8.7821766,287.689006 11.1041829,288.313105 13.4679949,288.313105 C15.8318068,288.313105 18.1541117,287.690997 20.2016937,286.507498 L114.621191,231.893368 C116.668673,230.70987 118.369766,229.005791 119.551273,226.955323 C120.733777,224.903859 121.355885,222.576676 121.355885,220.208684 C121.355885,217.839696 120.733777,215.512514 119.551273,213.462045 C118.369766,211.410581 116.668673,209.707498 114.621191,208.523004 Z M249.265306,132.486455 L154.845212,77.8728233 C152.797729,76.6895238 150.475524,76.0673158 148.112508,76.0673158 C145.748497,76.0673158 143.426292,76.6913155 141.378809,77.8754113 C139.332322,79.0594075 137.632225,80.7622918 136.449722,82.8128598 C135.267219,84.8635274 134.644115,87.1896148 134.644115,89.5577068 L134.644115,198.785269 C134.644115,201.153262 135.267219,203.479449 136.449722,205.530913 C137.632225,207.581381 139.332322,209.284464 141.378809,210.467963 C143.426292,211.652457 145.748497,212.276556 148.112508,212.276556 C150.475524,212.276556 152.797729,211.653452 154.845212,210.470949 L249.265306,155.85682 C251.312788,154.672326 253.012885,152.969242 254.195389,150.917778 C255.376896,148.86731 256,146.540128 256,144.172135 C256,141.803147 255.376896,139.475965 254.195389,137.425496 C253.012885,135.374033 251.312788,133.670949 249.265306,132.486455 Z" fill="#F41C52"></path>
    </g>
</svg>
