<?xml version="1.0" encoding="UTF-8" standalone="no" ?>
<svg width="256px" height="256px" viewBox="0 0 256 256" version="1.1" xmlns="http://www.w3.org/2000/svg" xmlns:xlink="http://www.w3.org/1999/xlink" preserveAspectRatio="xMinYMin meet">
    <defs>
        <radialGradient cx="50%" cy="50%" fx="50%" fy="50%" r="50%" id="radialGradient-1">
            <stop stop-color="#ABEAFF" offset="0%"></stop>
            <stop stop-color="#7BCEFF" offset="100%"></stop>
        </radialGradient>
    </defs>
    <g>
        <circle fill="url(#radialGradient-1)" cx="128" cy="128" r="128"></circle>
        <path d="M128.75,60 L161.75,60 L162.5,60 L162.5,58.5 L161.75,58.5 L128.75,58.5 L128,58.5 L128,60 L128.75,60 L128.75,60 Z" fill="#DA5024"></path>
        <path d="M93.25,108 L126.25,108 L127,108 L127,106.5 L126.25,106.5 L93.25,106.5 L92.5,106.5 L92.5,108 L93.25,108 L93.25,108 Z" fill="#DA5024"></path>
        <path d="M89.8043478,201 L125.195652,201 L126,201 L126,199.5 L125.195652,199.5 L89.8043478,199.5 L89,199.5 L89,201 L89.8043478,201 L89.8043478,201 Z" fill="#DA5024"></path>
        <path d="M128.75,156 L161.75,156 L162.5,156 L162.5,154.5 L161.75,154.5 L128.75,154.5 L128,154.5 L128,156 L128.75,156 L128.75,156 Z" fill="#DA5024"></path>
        <path d="M126,24.25 L126,222.260101 L126,223.510101 L128.5,223.510101 L128.5,222.260101 L128.5,24.25 L128.5,23 L126,23 L126,24.25 L126,24.25 Z" fill="#FFFFFF"></path>
        <rect fill="#4FAE47" x="160" y="36" width="48" height="48"></rect>
        <circle fill="#EDC30E" cx="68.5" cy="108" r="24"></circle>
        <path d="M160,180 L160,132 L208,156 L160,180 Z" fill="#3364FB"></path>
        <polygon fill="#C71515" points="68.5 175.5 89.2846097 187.5 89.2846097 211.5 68.5 223.5 47.7153903 211.5 47.7153903 187.5 "></polygon>
    </g>
</svg>
