<?xml version="1.0" encoding="UTF-8" standalone="no"?>
<svg width="256px" height="256px" viewBox="0 0 256 256" version="1.1" xmlns="http://www.w3.org/2000/svg" xmlns:xlink="http://www.w3.org/1999/xlink" preserveAspectRatio="xMidYMid">
	<g>
		<path d="M125.371,0.065258427 C128.201,-0.022741573 131.033,-0.021741573 133.863,0.068258427 L187.297,1.76025843 C223.776,2.91525843 253.076,32.2242584 254.219,68.7032584 L255.933,123.432258 C256.022,126.262258 256.022,129.093258 255.934,131.922258 L254.208,187.286258 C253.071,223.770258 223.77,253.085258 187.287,254.240258 L133.863,255.932258 C131.033,256.022258 128.201,256.023258 125.371,255.935258 L68.768,254.189258 C32.262,253.063258 2.928,223.738258 1.79,187.233258 L0.066,131.922258 C-0.022,129.093258 -0.022,126.262258 0.067,123.432258 L1.78,68.7562584 C2.923,32.2552584 32.256,2.93725843 68.757,1.81125843 L125.371,0.065258427 Z" fill="#444F5C"></path>
		<path d="M128,21.5822584 C186.773,21.5822584 234.418,69.2272584 234.418,128.000258 C234.418,186.773258 186.773,234.418258 128,234.418258 C69.227,234.418258 21.582,186.773258 21.582,128.000258 C21.582,69.2272584 69.227,21.5822584 128,21.5822584" fill="#313942"></path>
		<g transform="translate(59.500000, 61.000258)">
			<path d="M3.437,108.604 L26.958,100.748 C30.793,99.468 34.443,103.114 33.167,106.95 L25.326,130.519 C24.283,133.657 20.3,134.596 17.965,132.256 L1.699,115.958 C-0.632,113.622 0.307,109.65 3.437,108.604" fill="#EEB545"></path>
			<path d="M25.826,3.442 L33.3,27.01 C34.522,30.863 30.821,34.457 27.005,33.124 L3.477,24.902 C0.344,23.807 -0.527,19.79 1.871,17.496 L18.519,1.574 C20.896,-0.699 24.832,0.307 25.826,3.442" fill="#42AADF"></path>
			<path d="M111.584,130.519 L103.743,106.95 C102.467,103.114 106.118,99.468 109.952,100.748 L133.474,108.604 C136.604,109.65 137.542,113.622 135.211,115.958 L118.946,132.256 C116.61,134.596 112.628,133.657 111.584,130.519" fill="#ED042B"></path>
			<path d="M103.743,27.05 L111.584,3.481 C112.628,0.343 116.61,-0.596 118.946,1.744 L135.211,18.042 C137.542,20.378 136.604,24.35 133.474,25.396 L109.952,33.252 C106.118,34.532 102.467,30.886 103.743,27.05" fill="#2EA757"></path>
		</g>
		<g transform="translate(101.000000, 101.000258)">
			<path d="M46.178,45.723 C56.519,35.382 56.519,18.617 46.178,8.277 C35.838,-2.063 19.073,-2.063 8.732,8.277 C-1.608,18.617 -1.608,35.382 8.732,45.723 C19.073,56.063 35.838,56.063 46.178,45.723 L46.178,45.723 Z M14.008,32.377 C11.038,29.407 11.038,24.593 14.008,21.623 L22.078,13.553 C25.048,10.583 29.862,10.583 32.832,13.553 L40.902,21.623 C43.872,24.593 43.872,29.407 40.902,32.377 L32.832,40.447 C29.862,43.417 25.048,43.417 22.078,40.447 L14.008,32.377 L14.008,32.377 Z" fill="#596778"></path>
			<path d="M46.051,13.741 C46.051,15.884 44.313,17.621 42.17,17.621 C40.027,17.621 38.289,15.884 38.289,13.741 C38.289,11.597 40.027,9.86 42.17,9.86 C44.313,9.86 46.051,11.597 46.051,13.741" fill="#2EA757"></path>
			<path d="M46.051,40.542 C46.051,42.686 44.313,44.423 42.17,44.423 C40.027,44.423 38.289,42.686 38.289,40.542 C38.289,38.399 40.027,36.662 42.17,36.662 C44.313,36.662 46.051,38.399 46.051,40.542" fill="#ED042B"></path>
			<path d="M16.824,13.741 C16.824,15.884 15.086,17.621 12.943,17.621 C10.799,17.621 9.062,15.884 9.062,13.741 C9.062,11.597 10.799,9.86 12.943,9.86 C15.086,9.86 16.824,11.597 16.824,13.741" fill="#42AADF"></path>
			<path d="M16.824,40.542 C16.824,42.686 15.086,44.423 12.943,44.423 C10.799,44.423 9.062,42.686 9.062,40.542 C9.062,38.399 10.799,36.662 12.943,36.662 C15.086,36.662 16.824,38.399 16.824,40.542" fill="#EEB545"></path>
		</g>
	</g>
</svg>