<?xml version="1.0" encoding="UTF-8"?>
<svg width="256px" height="256px" viewBox="0 0 256 256" version="1.1" xmlns="http://www.w3.org/2000/svg" xmlns:xlink="http://www.w3.org/1999/xlink" preserveAspectRatio="xMidYMid">
    <title>Retool</title>
    <g>
        <path d="M244.271999,213.333333 C250.748798,213.333333 256,218.584533 256,225.061333 L256,232.542933 C256,245.497599 245.497599,256 232.542933,256 L140.7904,256 C127.835733,256 117.333333,245.497599 117.333333,232.542933 L117.333333,225.061333 C117.333333,218.584533 122.584533,213.333333 129.061333,213.333333 L244.271999,213.333333 Z M232.542933,85.3333332 C245.497599,85.3333332 256,95.8353065 256,108.7904 L256,169.605333 C256,176.082133 250.748798,181.333333 244.271999,181.333333 L23.4567465,181.333333 C10.5019306,181.333333 0,170.830933 0,157.876266 L0,97.061653 C0,90.5843197 5.25096531,85.3333332 11.72832,85.3333332 L232.542933,85.3333332 Z M115.2096,0 C128.164266,0 138.666666,10.50192 138.666666,23.4567465 L138.666666,41.6050132 C138.666666,48.0823465 133.415466,53.3333333 126.938666,53.3333333 L11.72832,53.3333333 C5.25096531,53.3333333 0,48.0823465 0,41.6050132 L0,23.4566399 C0,10.50192 10.50192,0 23.4567465,0 L115.2096,0 Z" fill="#262626"></path>
    </g>
</svg>