<?xml version="1.0" encoding="UTF-8"?>
<svg width="256px" height="256px" viewBox="0 0 256 256" version="1.1" xmlns="http://www.w3.org/2000/svg" preserveAspectRatio="xMidYMid">
    <title>Rider</title>
    <defs>
        <linearGradient x1="90.8320951%" y1="81.8025397%" x2="-19.1233284%" y2="19.0400096%" id="riderLinearGradient-1">
            <stop stop-color="#DD1265" offset="0%"></stop>
            <stop stop-color="#DD1265" offset="48%"></stop>
            <stop stop-color="#FDB60D" offset="94%"></stop>
        </linearGradient>
        <linearGradient x1="35.983477%" y1="7.27061065%" x2="53.6996856%" y2="92.9939676%" id="riderLinearGradient-2">
            <stop stop-color="#087CFA" offset="14%"></stop>
            <stop stop-color="#DD1265" offset="48%"></stop>
            <stop stop-color="#087CFA" offset="96%"></stop>
        </linearGradient>
        <linearGradient x1="39.5446571%" y1="11.3522538%" x2="56.9381078%" y2="91.6944908%" id="riderLinearGradient-3">
            <stop stop-color="#DD1265" offset="28%"></stop>
            <stop stop-color="#FDB60D" offset="97%"></stop>
        </linearGradient>
    </defs>
    <g>
        <polygon fill="url(#riderLinearGradient-1)" points="256 99.6 76.5333333 0 196.693333 178.533333 221.386667 162.346667"></polygon>
        <polygon fill="url(#riderLinearGradient-2)" points="184.4 58.9866667 161.92 4.02666667 112.186667 52.9866667 132.533333 230.64 180.72 256 256 212.026667"></polygon>
        <polygon fill="url(#riderLinearGradient-3)" points="76.5333333 3.78956126e-14 0 51.5466667 28.4533333 227.36 101.84 255.573333 196.693333 178.533333"></polygon>
        <polygon fill="#000000" points="48 48.32 208 48.32 208 208.32 48 208.32"></polygon>
        <path d="M67.9466667,178.08 L127.946667,178.08 L127.946667,188.08 L67.9466667,188.08 L67.9466667,178.08 Z M68,68.1066667 L95.4666667,68.1066667 C101.889161,67.7112671 108.201434,69.9114353 112.986667,74.2133333 C116.314389,77.7180212 118.164351,82.3571511 118.17527,87.1697858 L118.16,88.1333333 C118.56833,96.5566756 113.278237,104.207636 105.253333,106.8 L119.973333,128.293333 L104.48,128.293333 L91.6,109.04 L81.3333333,109.04 L81.3333333,128.293333 L68,128.293333 L68,68.1066667 Z M94.6666667,97.44 C100.904889,97.44 104.576504,94.2255111 104.814347,89.4345106 L104.826667,88.7733333 C104.826667,83.0933333 100.88,80.16 94.4266667,80.16 L81.3333333,80.16 L81.3333333,97.44 L94.6666667,97.44 Z M129.146667,68.1066667 L152.613333,68.1066667 C171.229128,68.1066667 184.209086,80.6968174 184.604063,97.2479635 L184.613333,98.2133333 C184.613333,115.146667 171.546667,128.293333 152.613333,128.293333 L129.146667,128.293333 L129.146667,68.1066667 Z M142.48,80.0533333 L142.48,116.32 L152.72,116.32 C157.583237,116.606408 162.338724,114.810611 165.798741,111.381124 C169.076652,108.132135 170.898676,103.707505 170.87452,99.1136955 L170.853333,98.1866667 C171.100297,93.3034998 169.2702,88.5437148 165.815407,85.0838419 C162.360615,81.6239691 157.603525,79.7868792 152.72,80.0266667 L142.48,80.0533333 Z" fill="#FFFFFF"></path>
    </g>
</svg>
