<?xml version="1.0" encoding="UTF-8" standalone="no"?>
<svg width="256px" height="256px" viewBox="0 0 256 256" version="1.1" xmlns="http://www.w3.org/2000/svg" xmlns:xlink="http://www.w3.org/1999/xlink" preserveAspectRatio="xMidYMid">
	<g>
		<path d="M169.140203,255.189829 C169.140203,255.189829 175.180259,226.015397 200.431607,190.996754 C217.982895,180.856425 235.583921,168.431256 250.49288,153.525407 C264.276515,85.172994 243.352371,11.8374576 243.352371,11.8374576 C243.352371,11.8374576 170.016835,-9.08357827 101.667531,4.70005819 C86.7554638,19.6152336 74.336513,37.2162597 64.1961833,54.7613306 C29.168214,80.0064618 0,86.0465172 0,86.0465172 C0,86.0465172 23.3302191,102.065254 34.5865447,120.241376 C29.7930474,134.068532 27.5392953,142.977847 27.5392953,142.977847 C29.3640573,151.511019 34.7637363,161.464831 42.2151067,171.508793 C37.0703349,175.587308 31.0396053,179.830578 24.4866271,183.377518 C23.703254,183.809617 22.9012292,184.223064 22.1023129,184.627185 C27.7258127,203.176341 52.5637142,226.537646 70.6559028,232.832609 C71.0227204,232.108299 71.4050811,231.393316 71.7936591,230.681442 C75.443183,223.951271 79.8232335,217.768219 84.0012235,212.530189 C94.1384446,219.885192 104.045627,225.365695 112.208873,227.641208 C112.208873,227.641208 121.127514,225.390564 134.951562,220.597067 C153.121466,231.856501 169.140203,255.189829 169.140203,255.189829 L169.140203,255.189829 L169.140203,255.189829 Z M117.586792,193.409046 C107.182228,188.901542 93.3643974,177.803756 83.9452682,168.378409 C71.2092379,155.642379 64.3080937,144.793284 61.6595465,138.041353 C66.1328557,122.793556 83.3173262,70.1210391 116.321581,34.7107092 C156.124397,27.9525618 197.820364,35.2174149 215.968507,39.2182132 C219.966197,57.3601398 227.240375,99.0654323 220.476011,138.865139 C185.283285,171.695311 133.372382,188.767871 117.586792,193.409046 L117.586792,193.409046 L117.586792,193.409046 Z" fill="#54A3DA"></path>
		<circle fill="#F1616E" cx="152.474869" cy="103.050868" r="27.2595192"></circle>
	</g>
</svg>
