<?xml version="1.0" encoding="UTF-8"?>
<svg width="256px" height="286px" viewBox="0 0 256 286" version="1.1" xmlns="http://www.w3.org/2000/svg" preserveAspectRatio="xMidYMid">
    <title>Rush</title>
    <g>
        <path d="M246.715502,95.4919651 C239.817389,87.1319597 230.076733,81.9590751 219.287868,80.9258055 C208.498068,79.8911819 197.953395,83.1229858 189.592923,90.0207256 C185.204165,93.6423985 181.704029,98.0524939 179.209801,102.981652 L169.411716,99.1043932 C172.062172,95.286245 175.536161,91.2911383 179.513292,87.5876162 C187.756103,79.9106987 196.809468,74.7415493 204.352383,73.4047889 C204.854357,73.3156093 205.297874,73.024725 205.578766,72.5991375 C206.081627,71.8377957 206.873925,70.9677575 207.572981,70.2002058 C209.100054,68.5233956 210.542382,66.9395002 209.160005,65.3775029 C208.806088,64.9778288 208.298791,64.7508177 207.768523,64.7508177 C207.73117,64.7508177 207.692883,64.7519383 207.655531,64.7542261 C194.558734,65.5523137 175.961749,71.6962289 163.044245,86.546736 C160.678557,89.2664341 158.662351,91.7784512 156.957153,94.1755619 L118.788744,79.0715232 C116.629477,76.2978037 113.595782,74.1862545 111.804252,74.0265716 C111.515236,73.9985571 111.135499,74.0952072 110.69497,74.2735665 C111.633317,71.9190845 112.554295,69.1170237 113.162958,65.7492092 C114.297827,59.4692833 114.447424,54.2034838 116.247872,53.7893356 C119.576046,53.0244453 119.214518,54.7250679 119.881124,52.2914916 C120.874987,48.6631418 116.127549,44.3657116 117.512542,41.2439581 C118.534699,38.9401825 119.53832,37.2754652 120.443749,36.0304524 C123.810864,36.6722188 126.770366,37.2079969 129.659599,39.097951 C132.698663,36.28277 135.237761,32.0919817 134.6714,28.9375447 C134.088184,25.6882317 127.80457,25.8439458 129.100709,19.9971714 C129.952071,16.1559579 135.381102,14.9881719 138.82082,15.059142 C140.72889,15.0964948 140.107154,6.83360649 137.828965,5.52345988 C134.95416,3.87046201 109.734118,-4.88207372 101.230305,3.73748633 C96.4753036,8.55692085 94.1930525,21.3889804 99.6230172,26.0379932 C100.240971,26.5670477 100.842957,27.0553879 101.437752,27.5257053 C100.662543,27.9842099 99.8163643,28.3705304 98.4759619,28.505327 C95.5225759,28.802748 93.8823246,27.5118848 92.606916,28.5571539 C91.3133914,29.6167105 93.5344307,30.9285846 92.535479,32.6553074 C90.7099115,35.8108651 89.0296929,31.4923305 83.034815,37.4252496 C80.2485823,40.1828607 79.5521409,45.4626208 76.7992455,52.0777873 C72.37617,62.7069703 68.4971369,60.6623759 63.4045606,77.0331386 C62.1569331,81.0439335 67.480676,79.0725971 77.3562679,83.9088403 C72.5415025,93.0247713 69.4225505,101.659319 70.8951814,107.060522 C72.7087026,113.709773 85.5855387,124.075619 92.2674732,129.982018 C92.7171065,130.379358 93.1957349,130.885674 93.7013974,131.473746 C75.3131209,149.370834 43.2752272,162.52366 0.529709802,194.459767 C-1.48364842,197.712069 2.75532485,203.103653 4.6444386,203.481383 C29.7935572,182.262237 60.0431894,175.441164 91.3354295,177.685128 C87.2077206,180.265734 83.5903433,182.430791 80.611464,184.190571 L82.1866281,180.164228 L71.44492,183.487079 L21.7938188,199.101917 L15.8687438,205.938865 L18.7186628,213.930946 L27.6328891,215.475948 L75.9299544,196.162258 L76.3889259,194.988729 C92.0032961,190.569995 94.8948634,194.70158 96.6294303,199.446916 L88.972123,207.615955 C75.7011689,202.436534 60.0807289,204.386859 48.3346996,214.078909 C31.0777436,228.319166 28.6227362,253.944532 42.8634602,271.200554 C50.8760852,280.91086 62.4927807,285.934334 74.1958544,285.934334 C83.2912414,285.934334 92.4393891,282.899332 99.9865059,276.671327 C108.346511,269.77368 113.519396,260.032558 114.552665,249.243226 C115.459029,239.780848 113.084657,230.506635 107.833845,222.729332 L120.648629,207.193403 C121.230538,207.368026 121.772152,207.425456 122.264508,207.346082 C124.088721,207.05333 126.800155,205.010836 129.898937,201.957485 C130.495693,203.087545 131.702839,203.805698 133.019429,203.681453 C134.779303,203.515234 136.067084,201.90804 135.895635,200.091437 C135.835871,199.459662 135.599615,198.892228 135.253355,198.419342 C141.060302,199.321317 145.77655,199.511816 146.166419,198.192891 C147.76759,192.781416 144.758922,190.445471 141.1196,188.858447 C143.14888,186.186467 145.113446,183.447906 146.901334,180.807535 C153.334406,174.780674 158.093609,169.181502 158.854204,165.753923 C160.437259,158.617686 154.472777,147.4044 148.763367,140.953585 C149.178916,136.666521 149.681076,131.749409 150.160965,126.850133 C150.954571,130.581062 152.5775,135.243755 154.292363,140.146767 C155.290848,143.001682 156.323417,145.953714 157.175759,148.700539 C157.381199,149.36313 157.938782,149.855999 158.621543,149.978936 C158.731267,149.997612 158.841457,150.006951 158.951181,150.006951 C159.520996,150.006951 160.066953,149.744548 160.422504,149.283522 C160.747473,148.86237 161.145513,148.518491 161.566852,148.154583 C162.756722,147.126823 164.554789,145.573837 163.347736,142.290206 C158.146837,128.140996 162.088202,116.084939 163.982405,110.291066 C164.216793,109.573333 164.419432,108.953651 164.582336,108.40564 C164.664979,108.127829 164.764431,107.841101 164.86435,107.554278 L176.030011,111.535004 C175.556145,113.460911 175.218943,115.434488 175.026297,117.445138 C173.993261,128.234471 177.22357,138.780077 184.121684,147.140083 C191.020264,155.499621 200.760452,160.672506 211.549318,161.706242 C212.868289,161.832308 214.183572,161.89534 215.491477,161.89534 C224.883818,161.89534 233.906835,158.666525 241.244309,152.611322 C249.603848,145.713209 254.777199,135.972087 255.810936,125.183221 C256.844112,114.393888 253.613709,103.848282 246.715549,95.4882765 L246.715502,95.4919651 Z M121.521329,101.293963 C116.93815,102.90125 112.806006,105.101699 109.977471,107.900258 C106.078874,104.117735 103.030799,101.341121 102.203903,99.8460781 C102.525137,99.8227326 102.809391,99.7307516 103.054005,99.5519254 C104.364618,98.5948087 103.199213,96.2644193 104.871961,94.9765909 C107.608188,92.8703178 112.455964,97.7726754 115.609467,95.8329487 C117.04129,94.9520782 117.849136,92.8271287 117.842506,90.7940669 L125.867738,93.6550984 L121.521515,101.293729 L121.521329,101.293963 Z M88.0789728,186.953085 C90.9188533,185.242517 94.1436536,183.260208 97.6683495,181.015403 C99.4659958,183.749342 101.89537,187.331748 104.573,190.973638 L101.212375,194.558799 C99.0691231,190.461579 95.5118836,187.142883 88.0791595,186.953318 L88.0789728,186.953085 Z M106.174964,208.264679 C106.52608,208.210517 106.887841,208.142348 107.268092,208.047566 C109.448556,207.503664 112.44191,206.112835 115.894702,204.143787 C116.060922,204.290396 116.22574,204.43327 116.389299,204.571475 L104.728714,218.708545 C103.397276,217.181613 101.975538,215.777804 100.47564,214.498567 L106.175198,208.264865 L106.174964,208.264679 Z M96.8591962,226.647352 C97.0814449,226.916292 97.2915539,227.192515 97.5033905,227.467805 L85.681722,241.800043 C85.230221,240.3431 84.4984346,238.946715 83.4674528,237.69736 C82.7899212,236.876347 82.019428,236.1807 81.1938395,235.587072 L92.9459386,222.733534 C94.3450781,223.89483 95.660314,225.194471 96.8591495,226.647305 L96.8591962,226.647352 Z M103.454286,248.181194 C102.70485,256.005655 98.953283,263.069988 92.8909368,268.072451 C80.3754415,278.399544 61.7924639,276.61922 51.4663049,264.104565 C41.139212,251.590003 42.9195359,233.006559 55.4341908,222.678999 C60.9077648,218.162075 67.5392731,215.962514 74.136697,215.962514 C76.2758872,215.962514 78.4111087,216.195501 80.5016003,216.654566 L62.6810851,235.666166 L64.4903574,238.184953 C61.2512231,242.535985 61.2508495,248.682935 64.8578148,253.054137 C69.0983756,258.192937 76.701895,258.921315 81.8406952,254.680941 C83.3819151,253.409081 84.5177646,251.831722 85.2505315,250.112143 L100.304144,231.861605 C102.891193,236.841656 104.001923,242.462773 103.454239,248.181475 L103.454286,248.181194 Z M244.712929,124.123478 C243.963587,131.947471 240.212254,139.011337 234.14958,144.014267 C228.086767,149.01673 220.443,151.357812 212.615271,150.609823 C204.791277,149.860061 197.727411,146.108868 192.724949,140.046475 C187.722486,133.984082 185.380003,126.336159 186.129392,118.512165 C186.233046,117.429263 186.4002,116.362703 186.616985,115.312438 L203.359408,121.281403 C203.35007,123.999233 204.251624,126.735833 206.116645,128.99614 C210.357113,134.13494 217.960725,134.863318 223.099526,130.622804 C228.238326,126.382337 228.966704,118.778724 224.726237,113.639923 C220.485676,108.501123 212.882156,107.772745 207.743356,112.013259 C207.142491,112.508977 206.60788,113.05442 206.128505,113.63278 L189.643816,107.109594 C191.412374,103.902583 193.783151,101.022969 196.693208,98.621656 C202.01457,94.2304237 208.557365,91.8888284 215.368634,91.8888284 C216.316972,91.8888284 217.271148,91.9355193 218.227611,92.0260997 C226.051604,92.7754419 233.11547,96.5270556 238.117933,102.589449 C243.120396,108.651841 245.462879,116.299764 244.71349,124.123758 L244.712929,124.123478 Z" fill="#555555"></path>
    </g>
</svg>
