<?xml version="1.0" encoding="UTF-8"?>
<svg width="256px" height="256px" viewBox="0 0 256 256" version="1.1" xmlns="http://www.w3.org/2000/svg" preserveAspectRatio="xMidYMid">
    <title>seaborn</title>
    <g>
				<path d="M128.901644,2.3933895 C112.52636,2.3933895 96.3102985,5.61896453 81.1815113,11.8855143 C66.0527228,18.1520635 52.3054102,27.3377242 40.7263385,38.9167978 C29.1472651,50.4958693 19.9616043,64.2431819 13.6950551,79.3719705 C7.42850537,94.5007577 4.20293033,110.716819 4.20293033,127.092103 C4.20293033,143.467387 7.42850537,159.683448 13.6950551,174.812236 C19.9616043,189.941024 29.1472651,203.688337 40.7263386,215.267408 C52.3054102,226.846482 66.0527228,236.032143 81.1815114,242.298692 C96.3102985,248.565242 112.52636,251.790817 128.901644,251.790817 C145.276928,251.790817 161.492989,248.565242 176.621776,242.298692 C191.750565,236.032143 205.497878,226.846482 217.076949,215.267408 C228.656023,203.688337 237.841683,189.941024 244.108233,174.812236 C250.172636,160.171474 253.389091,144.512453 253.590294,128.67628 L253.600357,127.092103 L253.590294,125.507926 C253.389091,109.671753 250.172636,94.0127323 244.108233,79.3719705 C237.841683,64.2431819 228.656023,50.4958693 217.076949,38.9167977 C205.497878,27.3377242 191.750565,18.1520635 176.621776,11.8855143 C161.492989,5.61896453 145.276928,2.3933895 128.901644,2.3933895 Z" fill="#FFFFFF"></path>
				<g transform="translate(11.703974, 10.272144)" fill="#AFDAD2" stroke="#FFFFFF" stroke-width="0.25">
						<path d="M88.7230562,63.7084523 C89.9968343,63.7084523 91.2186118,63.2023756 92.1193099,62.3016775 C93.0200061,61.4009813 93.5260828,60.1792038 93.5260828,58.9054257 C93.5260828,57.6316496 93.0200061,56.4098701 92.1193099,55.5091739 C91.2186118,54.6084777 89.9968343,54.1023991 88.7230562,54.1023991 C87.4492801,54.1023991 86.2275006,54.6084777 85.3268044,55.5091739 C84.4261082,56.4098701 83.9200315,57.6316496 83.9200315,58.9054257 C83.9200315,60.1792038 84.4261082,61.4009813 85.3268044,62.3016775 C86.2275006,63.2023756 87.4492801,63.7084523 88.7230562,63.7084523 Z"></path>
						<path d="M78.3802547,70.9498228 C79.6139217,70.9498228 80.7972237,70.4596827 81.6695564,69.58735 C82.5418909,68.7150155 83.0320311,67.5317135 83.0320311,66.2980483 C83.0320311,65.0643813 82.5418909,63.8810793 81.6695564,63.0087467 C80.7972237,62.1364121 79.6139217,61.6462719 78.3802547,61.6462719 C77.1465896,61.6462719 75.9632876,62.1364121 75.090953,63.0087467 C74.2186204,63.8810793 73.7284802,65.0643813 73.7284802,66.2980483 C73.7284802,67.5317135 74.2186204,68.7150155 75.090953,69.58735 C75.9632876,70.4596827 77.1465896,70.9498228 78.3802547,70.9498228 Z"></path>
						<path d="M68.4310184,75.5587719 C69.5925423,75.5587719 70.7066504,75.0972924 71.5279726,74.2759703 C72.3492948,73.4546481 72.8107742,72.34054 72.8107742,71.179016 C72.8107742,70.0174921 72.3492948,68.903384 71.5279726,68.0820618 C70.7066504,67.2607397 69.5925423,66.7992602 68.4310184,66.7992602 C67.2694944,66.7992602 66.1553863,67.2607397 65.3340641,68.0820618 C64.512742,68.903384 64.0512625,70.0174921 64.0512625,71.179016 C64.0512625,72.34054 64.512742,73.4546481 65.3340641,74.2759703 C66.1553863,75.0972924 67.2694944,75.5587719 68.4310184,75.5587719 Z"></path>
						<path d="M97.4479028,57.9864798 C98.759403,57.9864798 100.017366,57.465415 100.944737,56.5380437 C101.872108,55.6106724 102.393173,54.3527097 102.393173,53.0412095 C102.393173,51.7297074 101.872108,50.4717448 100.944737,49.5443735 C100.017366,48.6170022 98.759403,48.0959373 97.4479028,48.0959373 C96.1364007,48.0959373 94.8784399,48.6170022 93.9510686,49.5443735 C93.0236973,50.4717448 92.5026325,51.7297074 92.5026325,53.0412095 C92.5026325,54.3527097 93.0236973,55.6106724 93.9510686,56.5380437 C94.8784399,57.465415 96.1364007,57.9864798 97.4479028,57.9864798 Z"></path>
						<path d="M60.9668489,65.1724294 C61.8480973,65.1724294 62.6933725,64.8223049 63.3165094,64.199168 C63.9396463,63.576031 64.2897708,62.7307577 64.2897708,61.8495075 C64.2897708,60.9682592 63.9396463,60.1229839 63.3165094,59.499847 C62.6933725,58.8767101 61.8480973,58.5265856 60.9668489,58.5265856 C60.0855987,58.5265856 59.2403254,58.8767101 58.6171885,59.499847 C57.9940515,60.1229839 57.6439271,60.9682592 57.6439271,61.8495075 C57.6439271,62.7307577 57.9940515,63.576031 58.6171885,64.199168 C59.2403254,64.8223049 60.0855987,65.1724294 60.9668489,65.1724294 Z"></path>
						<path d="M52.7613825,83.3764598 C53.8083657,83.3764598 54.8126067,82.9604881 55.5529345,82.2201603 C56.2932623,81.4798325 56.7092321,80.4755915 56.7092321,79.4286103 C56.7092321,78.3816271 56.2932623,77.3773861 55.5529345,76.6370583 C54.8126067,75.8967305 53.8083657,75.4807588 52.7613825,75.4807588 C51.7144013,75.4807588 50.7101603,75.8967305 49.9698325,76.6370583 C49.2295028,77.3773861 48.813533,78.3816271 48.813533,79.4286103 C48.813533,80.4755915 49.2295028,81.4798325 49.9698325,82.2201603 C50.7101603,82.9604881 51.7144013,83.3764598 52.7613825,83.3764598 Z"></path>
						<path d="M57.7828524,52.1160113 C59.0444401,52.1160113 60.2545269,51.6147767 61.1466028,50.7227009 C62.0386805,49.8306232 62.5399132,48.6205382 62.5399132,47.3589506 C62.5399132,46.0973629 62.0386805,44.887278 61.1466028,43.9952002 C60.2545269,43.1031244 59.0444401,42.6018898 57.7828524,42.6018898 C56.5212648,42.6018898 55.3111798,43.1031244 54.4191021,43.9952002 C53.5270263,44.887278 53.0257917,46.0973629 53.0257917,47.3589506 C53.0257917,48.6205382 53.5270263,49.8306232 54.4191021,50.7227009 C55.3111798,51.6147767 56.5212648,52.1160113 57.7828524,52.1160113 Z"></path>
						<path d="M70.6198391,61.0188078 C71.5955177,61.0188078 72.5313674,60.6311656 73.2212753,59.9412577 C73.9111851,59.2513479 74.2988254,58.3155001 74.2988254,57.3398214 C74.2988254,56.3641428 73.9111851,55.428295 73.2212753,54.7383852 C72.5313674,54.0484773 71.5955177,53.6608351 70.6198391,53.6608351 C69.6441623,53.6608351 68.7083126,54.0484773 68.0184047,54.7383852 C67.3284949,55.428295 66.9408546,56.3641428 66.9408546,57.3398214 C66.9408546,58.3155001 67.3284949,59.2513479 68.0184047,59.9412577 C68.7083126,60.6311656 69.6441623,61.0188078 70.6198391,61.0188078 Z"></path>
						<path d="M134.064079,50.0376332 C135.205014,50.0376332 136.299371,49.584335 137.106133,48.7775732 C137.912897,47.9708095 138.366195,46.8764521 138.366195,45.7355175 C138.366195,44.5945829 137.912897,43.5002255 137.106133,42.6934618 C136.299371,41.8867 135.205014,41.4334018 134.064079,41.4334018 C132.923145,41.4334018 131.828785,41.8867 131.022023,42.6934618 C130.215262,43.5002255 129.761963,44.5945829 129.761963,45.7355175 C129.761963,46.8764521 130.215262,47.9708095 131.022023,48.7775732 C131.828785,49.584335 132.923145,50.0376332 134.064079,50.0376332 Z"></path>
						<path d="M43.8306011,72.8439912 C44.5221956,72.8439912 45.1855591,72.5692164 45.6745919,72.0801855 C46.1636247,71.5911527 46.4383976,70.9277892 46.4383976,70.2361928 C46.4383976,69.5445984 46.1636247,68.8812349 45.6745919,68.3922021 C45.1855591,67.9031693 44.5221956,67.6283964 43.8306011,67.6283964 C43.1390047,67.6283964 42.4756413,67.9031693 41.9866085,68.3922021 C41.4975775,68.8812349 41.2228028,69.5445984 41.2228028,70.2361928 C41.2228028,70.9277892 41.4975775,71.5911527 41.9866085,72.0801855 C42.4756413,72.5692164 43.1390047,72.8439912 43.8306011,72.8439912 Z"></path>
						<path d="M52.4965058,70.3884842 C53.3171428,70.3884842 54.1042788,70.0624415 54.6845561,69.4821641 C55.2648354,68.9018867 55.5908781,68.1147507 55.5908781,67.2941138 C55.5908781,66.4734768 55.2648354,65.6863409 54.6845561,65.1060616 C54.1042788,64.5257842 53.3171428,64.1997415 52.4965058,64.1997415 C51.6758689,64.1997415 50.8887329,64.5257842 50.3084556,65.1060616 C49.7281763,65.6863409 49.4021355,66.4734768 49.4021355,67.2941138 C49.4021355,68.1147507 49.7281763,68.9018867 50.3084556,69.4821641 C50.8887329,70.0624415 51.6758689,70.3884842 52.4965058,70.3884842 Z"></path>
						<path d="M36.6950033,60.5824039 C37.7829494,60.5824039 38.8264817,60.1501587 39.5957769,59.3808655 C40.3650702,58.6115703 40.7973154,57.5680379 40.7973154,56.4800919 C40.7973154,55.3921458 40.3650702,54.3486135 39.5957769,53.5793183 C38.8264817,52.810025 37.7829494,52.3777779 36.6950033,52.3777779 C35.6070573,52.3777779 34.563523,52.810025 33.7942297,53.5793183 C33.0249346,54.3486135 32.5926894,55.3921458 32.5926894,56.4800919 C32.5926894,57.5680379 33.0249346,58.6115703 33.7942297,59.3808655 C34.563523,60.1501587 35.6070573,60.5824039 36.6950033,60.5824039 Z"></path>
						<path d="M52.8362476,58.7738979 C53.4033843,58.7738979 53.9473687,58.5485719 54.3483958,58.1475448 C54.7494228,57.7465178 54.9747488,57.2025334 54.9747488,56.6353967 C54.9747488,56.06826 54.7494228,55.5242737 54.3483958,55.1232486 C53.9473687,54.7222215 53.4033843,54.4968956 52.8362476,54.4968956 C52.2691109,54.4968956 51.7251247,54.7222215 51.3240976,55.1232486 C50.9230724,55.5242737 50.6977465,56.06826 50.6977465,56.6353967 C50.6977465,57.2025334 50.9230724,57.7465178 51.3240976,58.1475448 C51.7251247,58.5485719 52.2691109,58.7738979 52.8362476,58.7738979 Z"></path>
						<path d="M81.4706291,55.4398248 C82.5293995,55.4398248 83.5449488,55.01917 84.2936131,54.2705058 C85.0422773,53.5218416 85.4629302,52.5062942 85.4629302,51.4475219 C85.4629302,50.3887514 85.0422773,49.3732021 84.2936131,48.6245379 C83.5449488,47.8758737 82.5293995,47.4552189 81.4706291,47.4552189 C80.4118568,47.4552189 79.3963075,47.8758737 78.6476433,48.6245379 C77.8989791,49.3732021 77.4783262,50.3887514 77.4783262,51.4475219 C77.4783262,52.5062942 77.8989791,53.5218416 78.6476433,54.2705058 C79.3963075,55.01917 80.4118568,55.4398248 81.4706291,55.4398248 Z"></path>
						<path d="M111.801181,57.7507144 C112.714908,57.7507144 113.591335,57.3876859 114.237439,56.7415821 C114.883543,56.0954802 115.246569,55.2190532 115.246569,54.3053242 C115.246569,53.3915971 114.883543,52.5151701 114.237439,51.8690663 C113.591335,51.2229625 112.714908,50.8599359 111.801181,50.8599359 C110.887452,50.8599359 110.011025,51.2229625 109.364923,51.8690663 C108.718819,52.5151701 108.355791,53.3915971 108.355791,54.3053242 C108.355791,55.2190532 108.718819,56.0954802 109.364923,56.7415821 C110.011025,57.3876859 110.887452,57.7507144 111.801181,57.7507144 Z"></path>
						<path d="M118.107944,36.2544009 C118.705969,36.2544009 119.27958,36.0168032 119.702445,35.5939375 C120.125313,35.1710699 120.362911,34.5974594 120.362911,33.9994358 C120.362911,33.4014104 120.125313,32.8277999 119.702445,32.4049342 C119.27958,31.9820666 118.705969,31.7444688 118.107944,31.7444688 C117.50992,31.7444688 116.93631,31.9820666 116.513442,32.4049342 C116.090576,32.8277999 115.852979,33.4014104 115.852979,33.9994358 C115.852979,34.5974594 116.090576,35.1710699 116.513442,35.5939375 C116.93631,36.0168032 117.50992,36.2544009 118.107944,36.2544009 Z"></path>
						<path d="M125.438901,49.2360712 C126.43818,49.2360712 127.396666,48.8390534 128.103263,48.1324556 C128.809861,47.4258578 129.206879,46.4673726 129.206879,45.4680929 C129.206879,44.4688133 128.809861,43.5103262 128.103263,42.8037302 C127.396666,42.0971325 126.43818,41.7001146 125.438901,41.7001146 C124.439621,41.7001146 123.481134,42.0971325 122.774538,42.8037302 C122.06794,43.5103262 121.670922,44.4688133 121.670922,45.4680929 C121.670922,46.4673726 122.06794,47.4258578 122.774538,48.1324556 C123.481134,48.8390534 124.439621,49.2360712 125.438901,49.2360712 Z"></path>
						<path d="M87.7958723,47.0379392 C88.8226675,47.0379392 89.8075458,46.6299879 90.533599,45.9039346 C91.2596542,45.1778814 91.6676037,44.1930012 91.6676037,43.166206 C91.6676037,42.1394109 91.2596542,41.1545326 90.533599,40.4284794 C89.8075458,39.7024242 88.8226675,39.2944747 87.7958723,39.2944747 C86.7690772,39.2944747 85.7841989,39.7024242 85.0581438,40.4284794 C84.3320905,41.1545326 83.924141,42.1394109 83.924141,43.166206 C83.924141,44.1930012 84.3320905,45.1778814 85.0581438,45.9039346 C85.7841989,46.6299879 86.7690772,47.0379392 87.7958723,47.0379392 Z"></path>
						<path d="M39.2937157,84.2490518 C40.1269349,84.2490518 40.9261382,83.9180117 41.5153123,83.3288376 C42.1044865,82.7396635 42.4355284,81.9404583 42.4355284,81.107241 C42.4355284,80.2740218 42.1044865,79.4748184 41.5153123,78.8856443 C40.9261382,78.2964702 40.1269349,77.9654283 39.2937157,77.9654283 C38.4604984,77.9654283 37.6612931,78.2964702 37.072119,78.8856443 C36.4829449,79.4748184 36.151903,80.2740218 36.151903,81.107241 C36.151903,81.9404583 36.4829449,82.7396635 37.072119,83.3288376 C37.6612931,83.9180117 38.4604984,84.2490518 39.2937157,84.2490518 Z"></path>
						<path d="M142.775806,50.85997 C144.044787,50.85997 145.261963,50.3557994 146.159269,49.4584954 C147.056573,48.5611894 147.560744,47.3440135 147.560744,46.0750321 C147.560744,44.8060526 147.056573,43.5888749 146.159269,42.6915708 C145.261963,41.7942648 144.044787,41.2900943 142.775806,41.2900943 C141.506826,41.2900943 140.289649,41.7942648 139.392345,42.6915708 C138.495039,43.5888749 137.990868,44.8060526 137.990868,46.0750321 C137.990868,47.3440135 138.495039,48.5611894 139.392345,49.4584954 C140.289649,50.3557994 141.506826,50.85997 142.775806,50.85997 Z"></path>
						<path d="M96.6050259,47.6190495 C97.7698057,47.6190495 98.8870333,47.1562772 99.7106573,46.3326551 C100.534279,45.5090331 100.997052,44.3918035 100.997052,43.2270256 C100.997052,42.0622459 100.534279,40.9450182 99.7106573,40.1213943 C98.8870333,39.2977722 97.7698057,38.8350018 96.6050259,38.8350018 C95.440248,38.8350018 94.3230204,39.2977722 93.4993964,40.1213943 C92.6757743,40.9450182 92.213002,42.0622459 92.213002,43.2270256 C92.213002,44.3918035 92.6757743,45.5090331 93.4993964,46.3326551 C94.3230204,47.1562772 95.440248,47.6190495 96.6050259,47.6190495 Z"></path>
						<path d="M45.5756583,51.1592392 C46.6555499,51.1592392 47.6913573,50.7301931 48.4549566,49.9665937 C49.218556,49.2029943 49.6476021,48.1671869 49.6476021,47.0872953 C49.6476021,46.0074037 49.218556,44.9715963 48.4549566,44.2079969 C47.6913573,43.4443975 46.6555499,43.0153514 45.5756583,43.0153514 C44.4957666,43.0153514 43.4599593,43.4443975 42.6963599,44.2079969 C41.9327605,44.9715963 41.5037163,46.0074037 41.5037163,47.0872953 C41.5037163,48.1671869 41.9327605,49.2029943 42.6963599,49.9665937 C43.4599593,50.7301931 44.4957666,51.1592392 45.5756583,51.1592392 Z"></path>
						<path d="M68.2379251,40.6459875 C69.4863985,40.6459875 70.6839051,40.1499642 71.5667094,39.2671599 C72.4495137,38.3843555 72.945537,37.1868471 72.945537,35.9383737 C72.945537,34.6899002 72.4495137,33.4923937 71.5667094,32.6095894 C70.6839051,31.7267851 69.4863985,31.2307617 68.2379251,31.2307617 C66.9894516,31.2307617 65.7919432,31.7267851 64.9091408,32.6095894 C64.0263365,33.4923937 63.5303113,34.6899002 63.5303113,35.9383737 C63.5303113,37.1868471 64.0263365,38.3843555 64.9091408,39.2671599 C65.7919432,40.1499642 66.9894516,40.6459875 68.2379251,40.6459875 Z"></path>
						<path d="M156.562818,46.9855772 C157.333974,46.9855772 158.073649,46.6791944 158.618938,46.1339039 C159.164228,45.5886153 159.470611,44.8489406 159.470611,44.0777847 C159.470611,43.3066287 159.164228,42.566954 158.618938,42.0216635 C158.073649,41.4763749 157.333974,41.1699902 156.562818,41.1699902 C155.791662,41.1699902 155.051988,41.4763749 154.506697,42.0216635 C153.961409,42.566954 153.655024,43.3066287 153.655024,44.0777847 C153.655024,44.8489406 153.961409,45.5886153 154.506697,46.1339039 C155.051988,46.6791944 155.791662,46.9855772 156.562818,46.9855772 Z"></path>
						<path d="M55.2734785,35.110466 C56.2544763,35.110466 57.1954293,34.7207113 57.8891003,34.0270403 C58.5827713,33.3333693 58.972526,32.3924163 58.972526,31.4114166 C58.972526,30.4304188 58.5827713,29.4894658 57.8891003,28.7957948 C57.1954293,28.1021238 56.2544763,27.7123691 55.2734785,27.7123691 C54.2924788,27.7123691 53.3515258,28.1021238 52.6578548,28.7957948 C51.9641838,29.4894658 51.5744291,30.4304188 51.5744291,31.4114166 C51.5744291,32.3924163 51.9641838,33.3333693 52.6578548,34.0270403 C53.3515258,34.7207113 54.2924788,35.110466 55.2734785,35.110466 Z"></path>
						<path d="M71.9544916,51.6783808 C72.7894201,51.6783808 73.5902628,51.3466594 74.1806465,50.7562757 C74.7710302,50.165892 75.1027497,49.3650493 75.1027497,48.5301208 C75.1027497,47.6951923 74.7710302,46.8943497 74.1806465,46.303966 C73.5902628,45.7135823 72.7894201,45.3818608 71.9544916,45.3818608 C71.1195631,45.3818608 70.3187205,45.7135823 69.7283368,46.303966 C69.1379531,46.8943497 68.8062316,47.6951923 68.8062316,48.5301208 C68.8062316,49.3650493 69.1379531,50.165892 69.7283368,50.7562757 C70.3187205,51.3466594 71.1195631,51.6783808 71.9544916,51.6783808 Z"></path>
						<path d="M79.4950746,44.8458608 C80.3433273,44.8458608 81.156951,44.5088467 81.7567558,43.9090419 C82.3565624,43.3092372 82.6935765,42.4956116 82.6935765,41.6473607 C82.6935765,40.799108 82.3565624,39.9854843 81.7567558,39.3856795 C81.156951,38.7858748 80.3433273,38.4488607 79.4950746,38.4488607 C78.6468237,38.4488607 77.8332,38.7858748 77.2333953,39.3856795 C76.6335886,39.9854843 76.2965745,40.799108 76.2965745,41.6473607 C76.2965745,42.4956116 76.6335886,43.3092372 77.2333953,43.9090419 C77.8332,44.5088467 78.6468237,44.8458608 79.4950746,44.8458608 Z"></path>
						<path d="M30.0982279,52.9706565 C30.9522163,52.9706565 31.7713445,52.6313633 32.3752058,52.027502 C32.9790671,51.4236407 33.3183603,50.6045125 33.3183603,49.7505241 C33.3183603,48.8965339 32.9790671,48.0774075 32.3752058,47.4735462 C31.7713445,46.8696849 30.9522163,46.5303917 30.0982279,46.5303917 C29.2442377,46.5303917 28.4251113,46.8696849 27.82125,47.4735462 C27.2173887,48.0774075 26.8780936,48.8965339 26.8780936,49.7505241 C26.8780936,50.6045125 27.2173887,51.4236407 27.82125,52.027502 C28.4251113,52.6313633 29.2442377,52.9706565 30.0982279,52.9706565 Z"></path>
						<path d="M38.9653825,40.4502972 C39.7488481,40.4502972 40.500329,40.1390231 41.0543213,39.5850289 C41.6083154,39.0310367 41.9195895,38.2795558 41.9195895,37.4960902 C41.9195895,36.7126264 41.6083154,35.9611456 41.0543213,35.4071514 C40.500329,34.8531592 39.7488481,34.541885 38.9653825,34.541885 C38.1819188,34.541885 37.4304379,34.8531592 36.8764438,35.4071514 C36.3224515,35.9611456 36.0111774,36.7126264 36.0111774,37.4960902 C36.0111774,38.2795558 36.3224515,39.0310367 36.8764438,39.5850289 C37.4304379,40.1390231 38.1819188,40.4502972 38.9653825,40.4502972 Z"></path>
						<path d="M107.120434,49.6207132 C107.777088,49.6207132 108.406936,49.3598211 108.871262,48.8954966 C109.335587,48.4311721 109.596479,47.8013247 109.596479,47.1446698 C109.596479,46.4880149 109.335587,45.8581675 108.871262,45.393843 C108.406936,44.9295185 107.777088,44.6686264 107.120434,44.6686264 C106.463781,44.6686264 105.833931,44.9295185 105.369607,45.393843 C104.905282,45.8581675 104.64439,46.4880149 104.64439,47.1446698 C104.64439,47.8013247 104.905282,48.4311721 105.369607,48.8954966 C105.833931,49.3598211 106.463781,49.6207132 107.120434,49.6207132 Z"></path>
						<path d="M27.8262492,69.2716502 C28.9115376,69.2716502 29.9525202,68.8404595 30.7199338,68.0730458 C31.4873474,67.3056322 31.9185363,66.2646496 31.9185363,65.1793612 C31.9185363,64.0940748 31.4873474,63.0530922 30.7199338,62.2856785 C29.9525202,61.518263 28.9115376,61.0870741 27.8262492,61.0870741 C26.7409627,61.0870741 25.6999782,61.518263 24.9325646,62.2856785 C24.165151,63.0530922 23.7339621,64.0940748 23.7339621,65.1793612 C23.7339621,66.2646496 24.165151,67.3056322 24.9325646,68.0730458 C25.6999782,68.8404595 26.7409627,69.2716502 27.8262492,69.2716502 Z"></path>
						<path d="M18.6866387,62.371886 C19.5025187,62.371886 20.2850908,62.0477344 20.8620045,61.4708207 C21.4389181,60.893907 21.7630698,60.1113349 21.7630698,59.2954549 C21.7630698,58.4795768 21.4389181,57.6970046 20.8620045,57.120091 C20.2850908,56.5431773 19.5025187,56.2190237 18.6866387,56.2190237 C17.8707605,56.2190237 17.0881884,56.5431773 16.5112747,57.120091 C15.9343611,57.6970046 15.6102075,58.4795768 15.6102075,59.2954549 C15.6102075,60.1113349 15.9343611,60.893907 16.5112747,61.4708207 C17.0881884,62.0477344 17.8707605,62.371886 18.6866387,62.371886 Z"></path>
						<path d="M115.564838,48.9019552 C116.385507,48.9019552 117.172675,48.5758993 117.752975,47.9955992 C118.333275,47.4152991 118.659331,46.6281328 118.659331,45.8074637 C118.659331,44.9867946 118.333275,44.1996264 117.752975,43.6193263 C117.172675,43.0390262 116.385507,42.7129703 115.564838,42.7129703 C114.744169,42.7129703 113.957003,43.0390262 113.376702,43.6193263 C112.796402,44.1996264 112.470346,44.9867946 112.470346,45.8074637 C112.470346,46.6281328 112.796402,47.4152991 113.376702,47.9955992 C113.957003,48.5758993 114.744169,48.9019552 115.564838,48.9019552 Z"></path>
						<path d="M45.2098774,64.9705454 C46.4750805,64.9705454 47.6886333,64.467874 48.5832665,63.5732408 C49.4778997,62.6786077 49.9805691,61.4650549 49.9805691,60.1998536 C49.9805691,58.9346505 49.4778997,57.7210977 48.5832665,56.8264646 C47.6886333,55.9318314 46.4750805,55.4291619 45.2098774,55.4291619 C43.9446743,55.4291619 42.7311215,55.9318314 41.8364883,56.8264646 C40.9418552,57.7210977 40.4391857,58.9346505 40.4391857,60.1998536 C40.4391857,61.4650549 40.9418552,62.6786077 41.8364883,63.5732408 C42.7311215,64.467874 43.9446743,64.9705454 45.2098774,64.9705454 Z"></path>
						<path d="M150.305928,43.2803436 C151.574276,43.2803436 152.790844,42.7764248 153.687701,41.8795675 C154.584559,40.9827101 155.088479,39.76614 155.088479,38.4977927 C155.088479,37.2294455 154.584559,36.0128754 153.687701,35.1160199 C152.790844,34.2191625 151.574276,33.7152419 150.305928,33.7152419 C149.037579,33.7152419 147.821011,34.2191625 146.924154,35.1160199 C146.027296,36.0128754 145.523376,37.2294455 145.523376,38.4977927 C145.523376,39.76614 146.027296,40.9827101 146.924154,41.8795675 C147.821011,42.7764248 149.037579,43.2803436 150.305928,43.2803436 Z"></path>
						<path d="M30.3630951,88.3451531 C31.0992415,88.3451531 31.8053358,88.0526795 32.3258706,87.5321466 C32.8464035,87.0116117 33.1388772,86.3055174 33.1388772,85.569373 C33.1388772,84.8332267 32.8464035,84.1271324 32.3258706,83.6065994 C31.8053358,83.0860646 31.0992415,82.793591 30.3630951,82.793591 C29.6269507,82.793591 28.9208564,83.0860646 28.4003216,83.6065994 C27.8797886,84.1271324 27.587315,84.8332267 27.587315,85.569373 C27.587315,86.3055174 27.8797886,87.0116117 28.4003216,87.5321466 C28.9208564,88.0526795 29.6269507,88.3451531 30.3630951,88.3451531 Z"></path>
						<path d="M99.7030704,34.1983517 C100.715199,34.1983517 101.686011,33.7962287 102.401695,33.0805448 C103.117379,32.364861 103.519502,31.3940491 103.519502,30.3819203 C103.519502,29.3697915 103.117379,28.3989795 102.401695,27.6832957 C101.686011,26.9676119 100.715199,26.5654888 99.7030704,26.5654888 C98.6909416,26.5654888 97.7201297,26.9676119 97.0044459,27.6832957 C96.288762,28.3989795 95.886639,29.3697915 95.886639,30.3819203 C95.886639,31.3940491 96.288762,32.364861 97.0044459,33.0805448 C97.7201297,33.7962287 98.6909416,34.1983517 99.7030704,34.1983517 Z"></path>
						<path d="M178.997355,39.4535162 C180.031264,39.4535162 181.022966,39.0427387 181.754049,38.311656 C182.485134,37.5805713 182.895909,36.5888709 182.895909,35.5549622 C182.895909,34.5210534 182.485134,33.5293512 181.754049,32.7982665 C181.022966,32.0671838 180.031264,31.6564063 178.997355,31.6564063 C177.963446,31.6564063 176.971744,32.0671838 176.240661,32.7982665 C175.509577,33.5293512 175.098801,34.5210534 175.098801,35.5549622 C175.098801,36.5888709 175.509577,37.5805713 176.240661,38.311656 C176.971744,39.0427387 177.963446,39.4535162 178.997355,39.4535162 Z"></path>
						<path d="M127.133525,37.4673461 C127.956772,37.4673461 128.746412,37.1402661 129.328537,36.5581431 C129.910662,35.9760183 130.237742,35.1863779 130.237742,34.3631288 C130.237742,33.5398815 129.910662,32.7502412 129.328537,32.1681163 C128.746412,31.5859933 127.956772,31.2589133 127.133525,31.2589133 C126.310277,31.2589133 125.520635,31.5859933 124.938512,32.1681163 C124.356387,32.7502412 124.029307,33.5398815 124.029307,34.3631288 C124.029307,35.1863779 124.356387,35.9760183 124.938512,36.5581431 C125.520635,37.1402661 126.310277,37.4673461 127.133525,37.4673461 Z"></path>
						<path d="M59.4540894,78.4212157 C60.5274107,78.4212157 61.5569165,77.9947799 62.3158707,77.2358277 C63.0748229,76.4768735 63.5012587,75.4473677 63.5012587,74.3740464 C63.5012587,73.3007251 63.0748229,72.2712193 62.3158707,71.5122651 C61.5569165,70.7533129 60.5274107,70.3268771 59.4540894,70.3268771 C58.3807681,70.3268771 57.3512623,70.7533129 56.5923081,71.5122651 C55.8333559,72.2712193 55.4069201,73.3007251 55.4069201,74.3740464 C55.4069201,75.4473677 55.8333559,76.4768735 56.5923081,77.2358277 C57.3512623,77.9947799 58.3807681,78.4212157 59.4540894,78.4212157 Z"></path>
						<path d="M137.661929,38.8040601 C138.689538,38.8040601 139.675196,38.3957869 140.401825,37.6691582 C141.128454,36.9425295 141.536727,35.9568713 141.536727,34.9292641 C141.536727,33.901655 141.128454,32.9159969 140.401825,32.1893681 C139.675196,31.4627394 138.689538,31.0544663 137.661929,31.0544663 C136.634322,31.0544663 135.648664,31.4627394 134.922035,32.1893681 C134.195406,32.9159969 133.787133,33.901655 133.787133,34.9292641 C133.787133,35.9568713 134.195406,36.9425295 134.922035,37.6691582 C135.648664,38.3957869 136.634322,38.8040601 137.661929,38.8040601 Z"></path>
						<path d="M165.10033,42.5805622 C165.951933,42.5805622 166.768771,42.2422155 167.370944,41.6400427 C167.973118,41.037868 168.311463,40.2210302 168.311463,39.3694288 C168.311463,38.5178255 167.973118,37.7009877 167.370944,37.098813 C166.768771,36.4966402 165.951933,36.1582935 165.10033,36.1582935 C164.248728,36.1582935 163.431891,36.4966402 162.829716,37.098813 C162.227541,37.7009877 161.889196,38.5178255 161.889196,39.3694288 C161.889196,40.2210302 162.227541,41.037868 162.829716,41.6400427 C163.431891,42.2422155 164.248728,42.5805622 165.10033,42.5805622 Z"></path>
						<path d="M195.413823,49.5405819 C196.181418,49.5405819 196.917678,49.2356132 197.460451,48.6928403 C198.003222,48.1500692 198.308191,47.4138094 198.308191,46.646214 C198.308191,45.8786187 198.003222,45.1423588 197.460451,44.5995859 C196.917678,44.0568149 196.181418,43.7518461 195.413823,43.7518461 C194.646227,43.7518461 193.909968,44.0568149 193.367197,44.5995859 C192.824426,45.1423588 192.519455,45.8786187 192.519455,46.646214 C192.519455,47.4138094 192.824426,48.1500692 193.367197,48.6928403 C193.909968,49.2356132 194.646227,49.5405819 195.413823,49.5405819 Z"></path>
						<path d="M87.0981145,28.2719076 C87.7596929,28.2719076 88.394265,28.0090601 88.8620725,27.5412527 C89.3298799,27.0734452 89.5927293,26.4388731 89.5927293,25.7772928 C89.5927293,25.1157125 89.3298799,24.4811404 88.8620725,24.0133329 C88.394265,23.5455254 87.7596929,23.282678 87.0981145,23.282678 C86.4365342,23.282678 85.8019621,23.5455254 85.3341546,24.0133329 C84.8663471,24.4811404 84.6034997,25.1157125 84.6034997,25.7772928 C84.6034997,26.4388731 84.8663471,27.0734452 85.3341546,27.5412527 C85.8019621,28.0090601 86.4365342,28.2719076 87.0981145,28.2719076 Z"></path>
						<path d="M109.781311,21.4235098 C110.749854,21.4235098 111.678859,21.0387032 112.363722,20.3538399 C113.048585,19.6689766 113.43339,18.7399718 113.43339,17.7714294 C113.43339,16.8028871 113.048585,15.8738822 112.363722,15.1890189 C111.678859,14.5041557 110.749854,14.1193491 109.781311,14.1193491 C108.812767,14.1193491 107.883764,14.5041557 107.198901,15.1890189 C106.514036,15.8738822 106.129231,16.8028871 106.129231,17.7714294 C106.129231,18.7399718 106.514036,19.6689766 107.198901,20.3538399 C107.883764,21.0387032 108.812767,21.4235098 109.781311,21.4235098 Z"></path>
						<path d="M194.768374,41.0016999 C196.044422,41.0016999 197.268376,40.4947203 198.170677,39.5924189 C199.072979,38.6901175 199.579959,37.4661631 199.579959,36.1901154 C199.579959,34.9140696 199.072979,33.6901133 198.170677,32.7878119 C197.268376,31.8855105 196.044422,31.3785328 194.768374,31.3785328 C193.492326,31.3785328 192.268372,31.8855105 191.36607,32.7878119 C190.463769,33.6901133 189.956789,34.9140696 189.956789,36.1901154 C189.956789,37.4661631 190.463769,38.6901175 191.36607,39.5924189 C192.268372,40.4947203 193.492326,41.0016999 194.768374,41.0016999 Z"></path>
						<path d="M104.270265,42.9674794 C105.476154,42.9674794 106.632815,42.488375 107.485506,41.6356833 C108.3382,40.7829916 108.817304,39.6263306 108.817304,38.4204422 C108.817304,37.214552 108.3382,36.057891 107.485506,35.2051993 C106.632815,34.3525076 105.476154,33.8734031 104.270265,33.8734031 C103.064377,33.8734031 101.907716,34.3525076 101.055024,35.2051993 C100.202333,36.057891 99.7232263,37.214552 99.7232263,38.4204422 C99.7232263,39.6263306 100.202333,40.7829916 101.055024,41.6356833 C101.907716,42.488375 103.064377,42.9674794 104.270265,42.9674794 Z"></path>
						<path d="M121.092799,25.9270438 C122.295759,25.9270438 123.449613,25.4491016 124.300234,24.5984808 C125.150856,23.7478581 125.628797,22.5940061 125.628797,21.3910442 C125.628797,20.1880842 125.150856,19.0342304 124.300234,18.1836096 C123.449613,17.3329869 122.295759,16.8550466 121.092799,16.8550466 C119.889837,16.8550466 118.735985,17.3329869 117.885363,18.1836096 C117.034742,19.0342304 116.5568,20.1880842 116.5568,21.3910442 C116.5568,22.5940061 117.034742,23.7478581 117.885363,24.5984808 C118.735985,25.4491016 119.889837,25.9270438 121.092799,25.9270438 Z"></path>
						<path d="M160.416148,31.4526823 C161.662343,31.4526823 162.857665,30.9575638 163.738856,30.0763722 C164.62005,29.1951788 165.115168,27.9998586 165.115168,26.7536624 C165.115168,25.507468 164.62005,24.3121478 163.738856,23.4309544 C162.857665,22.5497629 161.662343,22.0546443 160.416148,22.0546443 C159.169954,22.0546443 157.974632,22.5497629 157.09344,23.4309544 C156.212247,24.3121478 155.717128,25.507468 155.717128,26.7536624 C155.717128,27.9998586 156.212247,29.1951788 157.09344,30.0763722 C157.974632,30.9575638 159.169954,31.4526823 160.416148,31.4526823 Z"></path>
						<path d="M209.064761,60.9939329 C210.244623,60.9939329 211.37632,60.5251695 212.210609,59.6908808 C213.044896,58.8565921 213.513661,57.7248949 213.513661,56.5450343 C213.513661,55.3651717 213.044896,54.2334745 212.210609,53.3991858 C211.37632,52.564899 210.244623,52.0961337 209.064761,52.0961337 C207.8849,52.0961337 206.753203,52.564899 205.918914,53.3991858 C205.084625,54.2334745 204.615862,55.3651717 204.615862,56.5450343 C204.615862,57.7248949 205.084625,58.8565921 205.918914,59.6908808 C206.753203,60.5251695 207.8849,60.9939329 209.064761,60.9939329 Z"></path>
						<path d="M108.753822,7.13347392 C109.42745,7.13347392 110.073579,6.86583735 110.549904,6.38951172 C111.026232,5.9131842 111.293866,5.26705771 111.293866,4.59342895 C111.293866,3.91980208 111.026232,3.27367371 110.549904,2.79734808 C110.073579,2.32102055 109.42745,2.05338587 108.753822,2.05338587 C108.080195,2.05338587 107.434066,2.32102055 106.957741,2.79734808 C106.481413,3.27367371 106.213778,3.91980208 106.213778,4.59342895 C106.213778,5.26705771 106.481413,5.9131842 106.957741,6.38951172 C107.434066,6.86583735 108.080195,7.13347392 108.753822,7.13347392 Z"></path>
						<path d="M149.317891,34.0970065 C150.449071,34.0970065 151.534074,33.6475831 152.33394,32.8477172 C153.133806,32.0478532 153.583227,30.9628488 153.583227,29.8316684 C153.583227,28.700488 153.133806,27.6154855 152.33394,26.8156196 C151.534074,26.0157537 150.449071,25.5663322 149.317891,25.5663322 C148.186711,25.5663322 147.101706,26.0157537 146.301842,26.8156196 C145.501976,27.6154855 145.052553,28.700488 145.052553,29.8316684 C145.052553,30.9628488 145.501976,32.0478532 146.301842,32.8477172 C147.101706,33.6475831 148.186711,34.0970065 149.317891,34.0970065 Z"></path>
						<path d="M143.610785,25.9041678 C144.523869,25.9041678 145.399679,25.5413948 146.045326,24.8957473 C146.690974,24.2500997 147.053747,23.3742897 147.053747,22.4612062 C147.053747,21.5481228 146.690974,20.6723128 146.045326,20.0266652 C145.399679,19.3810176 144.523869,19.0182466 143.610785,19.0182466 C142.697702,19.0182466 141.821892,19.3810176 141.176244,20.0266652 C140.530597,20.6723128 140.167826,21.5481228 140.167826,22.4612062 C140.167826,23.3742897 140.530597,24.2500997 141.176244,24.8957473 C141.821892,25.5413948 142.697702,25.9041678 143.610785,25.9041678 Z"></path>
						<path d="M126.309191,18.4075102 C127.480783,18.4075102 128.604547,17.9420329 129.432989,17.1135914 C130.261428,16.2851519 130.726907,15.1613879 130.726907,13.9897956 C130.726907,12.8182032 130.261428,11.6944392 129.432989,10.8659978 C128.604547,10.0375582 127.480783,9.57207905 126.309191,9.57207905 C125.1376,9.57207905 124.013835,10.0375582 123.185395,10.8659978 C122.356954,11.6944392 121.891476,12.8182032 121.891476,13.9897956 C121.891476,15.1613879 122.356954,16.2851519 123.185395,17.1135914 C124.013835,17.9420329 125.1376,18.4075102 126.309191,18.4075102 Z"></path>
						<path d="M77.5781609,36.423208 C78.8914839,36.423208 80.1511938,35.9014201 81.0798523,34.9727597 C82.0085126,34.0441012 82.5303006,32.7843914 82.5303006,31.4710683 C82.5303006,30.1577471 82.0085126,28.8980373 81.0798523,27.9693769 C80.1511938,27.0407184 78.8914839,26.5189305 77.5781609,26.5189305 C76.2648378,26.5189305 75.0051279,27.0407184 74.0764695,27.9693769 C73.1478091,28.8980373 72.6260211,30.1577471 72.6260211,31.4710683 C72.6260211,32.7843914 73.1478091,34.0441012 74.0764695,34.9727597 C75.0051279,35.9014201 76.2648378,36.423208 77.5781609,36.423208 Z"></path>
						<path d="M47.0249746,29.1310031 C47.7401417,29.1310031 48.4261142,28.846864 48.9318142,28.341164 C49.4375142,27.835464 49.7216533,27.1494915 49.7216533,26.4343244 C49.7216533,25.7191573 49.4375142,25.0331848 48.9318142,24.5274848 C48.4261142,24.0217848 47.7401417,23.7376457 47.0249746,23.7376457 C46.3098076,23.7376457 45.623835,24.0217848 45.118135,24.5274848 C44.612435,25.0331848 44.328296,25.7191573 44.328296,26.4343244 C44.328296,27.1494915 44.612435,27.835464 45.118135,28.341164 C45.623835,28.846864 46.3098076,29.1310031 47.0249746,29.1310031 Z"></path>
						<path d="M59.8460967,27.3224705 C60.773273,27.3224705 61.6626003,26.9540983 62.3182141,26.2984845 C62.9738279,25.6428725 63.3421983,24.7535452 63.3421983,23.826367 C63.3421983,22.8991907 62.9738279,22.0098634 62.3182141,21.3542496 C61.6626003,20.6986358 60.773273,20.3302635 59.8460967,20.3302635 C58.9189185,20.3302635 58.0295911,20.6986358 57.3739773,21.3542496 C56.7183654,22.0098634 56.3499932,22.8991907 56.3499932,23.826367 C56.3499932,24.7535452 56.7183654,25.6428725 57.3739773,26.2984845 C58.0295911,26.9540983 58.9189185,27.3224705 59.8460967,27.3224705 Z"></path>
						<path d="M177.312194,48.5029063 C178.455012,48.5029063 179.551175,48.0488585 180.35927,47.2407659 C181.167364,46.4326715 181.62141,45.3365064 181.62141,44.1936883 C181.62141,43.0508703 181.167364,41.954707 180.35927,41.1466126 C179.551175,40.3385182 178.455012,39.8844723 177.312194,39.8844723 C176.169376,39.8844723 175.073211,40.3385182 174.265118,41.1466126 C173.457024,41.954707 173.002978,43.0508703 173.002978,44.1936883 C173.002978,45.3365064 173.457024,46.4326715 174.265118,47.2407659 C175.073211,48.0488585 176.169376,48.5029063 177.312194,48.5029063 Z"></path>
						<path d="M130.034499,25.7881903 C130.669099,25.7881903 131.277793,25.5360606 131.726522,25.08733 C132.175253,24.6385994 132.427382,24.0299055 132.427382,23.395305 C132.427382,22.7607045 132.175253,22.1520106 131.726522,21.70328 C131.277793,21.2545512 130.669099,21.0024215 130.034499,21.0024215 C129.399898,21.0024215 128.791204,21.2545512 128.342474,21.70328 C127.893743,22.1520106 127.641614,22.7607045 127.641614,23.395305 C127.641614,24.0299055 127.893743,24.6385994 128.342474,25.08733 C128.791204,25.5360606 129.399898,25.7881903 130.034499,25.7881903 Z"></path>
						<path d="M79.2199231,26.2698199 C80.423557,26.2698199 81.5780544,25.7916109 82.4291522,24.940513 C83.2802501,24.0894171 83.7584592,22.9349178 83.7584592,21.7312839 C83.7584592,20.52765 83.2802501,19.3731526 82.4291522,18.5220547 C81.5780544,17.6709569 80.423557,17.1927478 79.2199231,17.1927478 C78.0162892,17.1927478 76.8617918,17.6709569 76.0106939,18.5220547 C75.1595961,19.3731526 74.681387,20.52765 74.681387,21.7312839 C74.681387,22.9349178 75.1595961,24.0894171 76.0106939,24.940513 C76.8617918,25.7916109 78.0162892,26.2698199 79.2199231,26.2698199 Z"></path>
						<path d="M12.622102,81.9063194 C13.6686347,81.9063194 14.6724441,81.4905275 15.4124539,80.7505178 C16.1524655,80.0105061 16.5682574,79.0066967 16.5682574,77.960164 C16.5682574,76.9136314 16.1524655,75.9098201 15.4124539,75.1698103 C14.6724441,74.4298005 13.6686347,74.0140087 12.622102,74.0140087 C11.5755694,74.0140087 10.5717581,74.4298005 9.83174831,75.1698103 C9.09173853,75.9098201 8.67594668,76.9136314 8.67594668,77.960164 C8.67594668,79.0066967 9.09173853,80.0105061 9.83174831,80.7505178 C10.5717581,81.4905275 11.5755694,81.9063194 12.622102,81.9063194 Z"></path>
						<path d="M23.133756,83.2671795 C24.3495823,83.2671795 25.5157741,82.7841264 26.3754924,81.9244082 C27.2352106,81.0646899 27.7182637,79.8984981 27.7182637,78.6826718 C27.7182637,77.4668456 27.2352106,76.3006538 26.3754924,75.4409355 C25.5157741,74.5812173 24.3495823,74.0981642 23.133756,74.0981642 C21.9179298,74.0981642 20.7517379,74.5812173 19.8920197,75.4409355 C19.0323015,76.3006538 18.5492484,77.4668456 18.5492484,78.6826718 C18.5492484,79.8984981 19.0323015,81.0646899 19.8920197,81.9244082 C20.7517379,82.7841264 21.9179298,83.2671795 23.133756,83.2671795 Z"></path>
						<path d="M60.182753,42.8487383 C61.3528935,42.8487383 62.475268,42.3838364 63.3026835,41.5564209 C64.130099,40.7290055 64.5950008,39.6066328 64.5950008,38.4364904 C64.5950008,37.2663499 64.130099,36.1439754 63.3026835,35.3165599 C62.475268,34.4891463 61.3528935,34.0242426 60.182753,34.0242426 C59.0126106,34.0242426 57.890238,34.4891463 57.0628225,35.3165599 C56.235407,36.1439754 55.7705051,37.2663499 55.7705051,38.4364904 C55.7705051,39.6066328 56.235407,40.7290055 57.0628225,41.5564209 C57.890238,42.3838364 59.0126106,42.8487383 60.182753,42.8487383 Z"></path>
						<path d="M13.918686,72.0837253 C14.825608,72.0837253 15.6955045,71.7234017 16.3367946,71.0821117 C16.9780846,70.4408216 17.3384063,69.5709251 17.3384063,68.664005 C17.3384063,67.7570848 16.9780846,66.8871865 16.3367946,66.2458964 C15.6955045,65.6046082 14.825608,65.2442847 13.918686,65.2442847 C13.0117659,65.2442847 12.1418694,65.6046082 11.5005793,66.2458964 C10.8592893,66.8871865 10.4989657,67.7570848 10.4989657,68.664005 C10.4989657,69.5709251 10.8592893,70.4408216 11.5005793,71.0821117 C12.1418694,71.7234017 13.0117659,72.0837253 13.918686,72.0837253 Z"></path>
						<path d="M151.809869,22.4407135 C152.802326,22.4407135 153.754266,22.0464082 154.456039,21.3446354 C155.157811,20.6428627 155.552119,19.6909213 155.552119,18.6984656 C155.552119,17.70601 155.157811,16.7540705 154.456039,16.0522977 C153.754266,15.350525 152.802326,14.9562178 151.809869,14.9562178 C150.817413,14.9562178 149.865474,15.350525 149.163701,16.0522977 C148.461928,16.7540705 148.067621,17.70601 148.067621,18.6984656 C148.067621,19.6909213 148.461928,20.6428627 149.163701,21.3446354 C149.865474,22.0464082 150.817413,22.4407135 151.809869,22.4407135 Z"></path>
						<path d="M47.6302064,38.1545377 C48.533299,38.1545377 49.3995251,37.7957342 50.0381083,37.157151 C50.6766915,36.5185697 51.0354931,35.6523436 51.0354931,34.7492509 C51.0354931,33.8461583 50.6766915,32.9799322 50.0381083,32.3413509 C49.3995251,31.7027677 48.533299,31.3439642 47.6302064,31.3439642 C46.7271156,31.3439642 45.8608896,31.7027677 45.2223064,32.3413509 C44.5837232,32.9799322 44.2249215,33.8461583 44.2249215,34.7492509 C44.2249215,35.6523436 44.5837232,36.5185697 45.2223064,37.157151 C45.8608896,37.7957342 46.7271156,38.1545377 47.6302064,38.1545377 Z"></path>
						<path d="M31.1213148,79.1732436 C32.3879793,79.1732436 33.6029348,78.6699931 34.4986034,77.7743263 C35.3942701,76.8786577 35.8975206,75.6637023 35.8975206,74.3970378 C35.8975206,73.1303715 35.3942701,71.915416 34.4986034,71.0197493 C33.6029348,70.1240807 32.3879793,69.6208301 31.1213148,69.6208301 C29.8546504,69.6208301 28.639693,70.1240807 27.7440263,71.0197493 C26.8483577,71.915416 26.3451072,73.1303715 26.3451072,74.3970378 C26.3451072,75.6637023 26.8483577,76.8786577 27.7440263,77.7743263 C28.639693,78.6699931 29.8546504,79.1732436 31.1213148,79.1732436 Z"></path>
						<path d="M186.379764,46.6713255 C187.620773,46.6713255 188.811121,46.1782683 189.688646,45.3007434 C190.566172,44.4232166 191.05923,43.2328691 191.05923,41.9918613 C191.05923,40.7508517 190.566172,39.5605042 189.688646,38.6829793 C188.811121,37.8054524 187.620773,37.3123953 186.379764,37.3123953 C185.138756,37.3123953 183.948408,37.8054524 183.070881,38.6829793 C182.193357,39.5605042 181.700297,40.7508517 181.700297,41.9918613 C181.700297,43.2328691 182.193357,44.4232166 183.070881,45.3007434 C183.948408,46.1782683 185.138756,46.6713255 186.379764,46.6713255 Z"></path>
						<path d="M203.25118,46.1139317 C204.104718,46.1139317 204.923411,45.7748165 205.526954,45.1712751 C206.130495,44.5677318 206.469611,43.7490389 206.469611,42.895501 C206.469611,42.0419632 206.130495,41.2232684 205.526954,40.619727 C204.923411,40.0161837 204.104718,39.6770704 203.25118,39.6770704 C202.397642,39.6770704 201.578947,40.0161837 200.975406,40.619727 C200.371863,41.2232684 200.032749,42.0419632 200.032749,42.895501 C200.032749,43.7490389 200.371863,44.5677318 200.975406,45.1712751 C201.578947,45.7748165 202.397642,46.1139317 203.25118,46.1139317 Z"></path>
						<path d="M91.9846625,38.1480809 C92.9353565,38.1480809 93.8472418,37.7703671 94.519483,37.098124 C95.1917262,36.4258808 95.5694419,35.5139974 95.5694419,34.5633035 C95.5694419,33.6126076 95.1917262,32.7007242 94.519483,32.0284811 C93.8472418,31.3562379 92.9353565,30.9785241 91.9846625,30.9785241 C91.0339686,30.9785241 90.1220833,31.3562379 89.4498401,32.0284811 C88.7775989,32.7007242 88.3998832,33.6126076 88.3998832,34.5633035 C88.3998832,35.5139974 88.7775989,36.4258808 89.4498401,37.098124 C90.1220833,37.7703671 91.0339686,38.1480809 91.9846625,38.1480809 Z"></path>
						<path d="M170.678393,34.1182981 C171.474643,34.1182981 172.238386,33.8019453 172.801419,33.2389124 C173.364454,32.6758777 173.680807,31.9121345 173.680807,31.115884 C173.680807,30.3196355 173.364454,29.5558923 172.801419,28.9928575 C172.238386,28.4298247 171.474643,28.1134719 170.678393,28.1134719 C169.882144,28.1134719 169.118399,28.4298247 168.555366,28.9928575 C167.992333,29.5558923 167.675979,30.3196355 167.675979,31.115884 C167.675979,31.9121345 167.992333,32.6758777 168.555366,33.2389124 C169.118399,33.8019453 169.882144,34.1182981 170.678393,34.1182981 Z"></path>
						<path d="M169.388127,26.594937 C170.686788,26.594937 171.932433,26.0789736 172.850726,25.1606807 C173.769017,24.2423879 174.284982,22.9967425 174.284982,21.698082 C174.284982,20.3994196 173.769017,19.1537742 172.850726,18.2354813 C171.932433,17.3171904 170.686788,16.801227 169.388127,16.801227 C168.089465,16.801227 166.84382,17.3171904 165.925527,18.2354813 C165.007236,19.1537742 164.491271,20.3994196 164.491271,21.698082 C164.491271,22.9967425 165.007236,24.2423879 165.925527,25.1606807 C166.84382,26.0789736 168.089465,26.594937 169.388127,26.594937 Z"></path>
						<path d="M109.013989,34.9405043 C110.175022,34.9405043 111.288661,34.4792217 112.109635,33.658246 C112.930611,32.8372721 113.391893,31.7236353 113.391893,30.5626016 C113.391893,29.401568 112.930611,28.2879293 112.109635,27.4669554 C111.288661,26.6459797 110.175022,26.1846971 109.013989,26.1846971 C107.852955,26.1846971 106.739318,26.6459797 105.918344,27.4669554 C105.097369,28.2879293 104.636086,29.401568 104.636086,30.5626016 C104.636086,31.7236353 105.097369,32.8372721 105.918344,33.658246 C106.739318,34.4792217 107.852955,34.9405043 109.013989,34.9405043 Z"></path>
						<path d="M201.530761,56.1036084 C202.526815,56.1036084 203.482209,55.7078721 204.186526,55.0035553 C204.890845,54.2992366 205.286581,53.3438443 205.286581,52.3477884 C205.286581,51.3517343 204.890845,50.3963402 204.186526,49.6920233 C203.482209,48.9877046 202.526815,48.5919683 201.530761,48.5919683 C200.534705,48.5919683 199.579313,48.9877046 198.874994,49.6920233 C198.170677,50.3963402 197.774941,51.3517343 197.774941,52.3477884 C197.774941,53.3438443 198.170677,54.2992366 198.874994,55.0035553 C199.579313,55.7078721 200.534705,56.1036084 201.530761,56.1036084 Z"></path>
						<path d="M22.2336504,90.015684 C22.817814,90.015684 23.3781305,89.7835927 23.7911965,89.3705267 C24.2042626,88.9574606 24.4363538,88.3971441 24.4363538,87.8129806 C24.4363538,87.228817 24.2042626,86.6685005 23.7911965,86.2554345 C23.3781305,85.8423684 22.817814,85.6102772 22.2336504,85.6102772 C21.6494869,85.6102772 21.0891704,85.8423684 20.6761024,86.2554345 C20.2630364,86.6685005 20.030947,87.228817 20.030947,87.8129806 C20.030947,88.3971441 20.2630364,88.9574606 20.6761024,89.3705267 C21.0891704,89.7835927 21.6494869,90.015684 22.2336504,90.015684 Z"></path>
						<path d="M68.5285209,28.9336621 C69.6191984,28.9336621 70.6653487,28.5003304 71.4365747,27.7291063 C72.2077988,26.9578822 72.6411286,25.9117301 72.6411286,24.8210525 C72.6411286,23.7303769 72.2077988,22.6842247 71.4365747,21.9129988 C70.6653487,21.1417747 69.6191984,20.7084449 68.5285209,20.7084449 C67.4378453,20.7084449 66.3916931,21.1417747 65.6204672,21.9129988 C64.8492431,22.6842247 64.4159133,23.7303769 64.4159133,24.8210525 C64.4159133,25.9117301 64.8492431,26.9578822 65.6204672,27.7291063 C66.3916931,28.5003304 67.4378453,28.9336621 68.5285209,28.9336621 Z"></path>
						<path d="M98.5487301,22.2277407 C99.327772,22.2277407 100.075013,21.9182232 100.625878,21.3673581 C101.176745,20.816491 101.486262,20.0692522 101.486262,19.2902085 C101.486262,18.5111666 101.176745,17.7639278 100.625878,17.2130607 C100.075013,16.6621956 99.327772,16.3526781 98.5487301,16.3526781 C97.7696883,16.3526781 97.0224476,16.6621956 96.4715824,17.2130607 C95.9207154,17.7639278 95.6111998,18.5111666 95.6111998,19.2902085 C95.6111998,20.0692522 95.9207154,20.816491 96.4715824,21.3673581 C97.0224476,21.9182232 97.7696883,22.2277407 98.5487301,22.2277407 Z"></path>
						<path d="M183.803263,31.2736346 C184.783488,31.2736346 185.723697,30.8841865 186.416821,30.1910625 C187.109945,29.4979405 187.499393,28.5577295 187.499393,27.5775059 C187.499393,26.5972804 187.109945,25.6570714 186.416821,24.9639474 C185.723697,24.2708234 184.783488,23.8813754 183.803263,23.8813754 C182.823039,23.8813754 181.882828,24.2708234 181.189706,24.9639474 C180.496582,25.6570714 180.107134,26.5972804 180.107134,27.5775059 C180.107134,28.5577295 180.496582,29.4979405 181.189706,30.1910625 C181.882828,30.8841865 182.823039,31.2736346 183.803263,31.2736346 Z"></path>
						<path d="M90.3394476,16.2957352 C91.5583896,16.2957352 92.7275704,15.8114441 93.589492,14.9495226 C94.4514135,14.087601 94.9357027,12.9184202 94.9357027,11.6994782 C94.9357027,10.4805381 94.4514135,9.31135733 93.589492,8.44943575 C92.7275704,7.58751417 91.5583896,7.10322312 90.3394476,7.10322312 C89.1205075,7.10322312 87.9513267,7.58751417 87.0894052,8.44943575 C86.2274836,9.31135733 85.7431925,10.4805381 85.7431925,11.6994782 C85.7431925,12.9184202 86.2274836,14.087601 87.0894052,14.9495226 C87.9513267,15.8114441 89.1205075,16.2957352 90.3394476,16.2957352 Z"></path>
						<path d="M162.447374,20.6855216 C163.574526,20.6855216 164.655665,20.2376996 165.452682,19.4406826 C166.249701,18.6436655 166.697523,17.5625246 166.697523,16.4353723 C166.697523,15.3082201 166.249701,14.227081 165.452682,13.4300621 C164.655665,12.633045 163.574526,12.185223 162.447374,12.185223 C161.320222,12.185223 160.239081,12.633045 159.442064,13.4300621 C158.645047,14.227081 158.197225,15.3082201 158.197225,16.4353723 C158.197225,17.5625246 158.645047,18.6436655 159.442064,19.4406826 C160.239081,20.2376996 161.320222,20.6855216 162.447374,20.6855216 Z"></path>
						<path d="M69.6228537,16.1543017 C70.5258119,16.1543017 71.3919093,15.7955512 72.0303978,15.1570645 C72.6688864,14.518576 73.027635,13.6524786 73.027635,12.7495204 C73.027635,11.8465602 72.6688864,10.9804628 72.0303978,10.3419743 C71.3919093,9.70348765 70.5258119,9.34473713 69.6228537,9.34473713 C68.7198954,9.34473713 67.8537981,9.70348765 67.2153095,10.3419743 C66.576821,10.9804628 66.2180723,11.8465602 66.2180723,12.7495204 C66.2180723,13.6524786 66.576821,14.518576 67.2153095,15.1570645 C67.8537981,15.7955512 68.7198954,16.1543017 69.6228537,16.1543017 Z"></path>
						<path d="M77.7994416,13.5221584 C78.7956207,13.5221584 79.751134,13.126371 80.4555398,12.4219652 C81.1599456,11.7175594 81.5557331,10.762046 81.5557331,9.76586703 C81.5557331,8.76968611 81.1599456,7.81417275 80.4555398,7.10976696 C79.751134,6.40536117 78.7956207,6.00957561 77.7994416,6.00957561 C76.8032607,6.00957561 75.8477474,6.40536117 75.1433416,7.10976696 C74.4389358,7.81417275 74.0431502,8.76968611 74.0431502,9.76586703 C74.0431502,10.762046 74.4389358,11.7175594 75.1433416,12.4219652 C75.8477474,13.126371 76.8032607,13.5221584 77.7994416,13.5221584 Z"></path>
						<path d="M135.694541,8.81372685 C136.863254,8.81372685 137.984258,8.349391 138.810663,7.52298633 C139.637069,6.69657977 140.101403,5.57557763 140.101403,4.40686248 C140.101403,3.23814922 139.637069,2.11714709 138.810663,1.29074053 C137.984258,0.464335858 136.863254,0 135.694541,0 C134.525827,0 133.404823,0.464335858 132.578419,1.29074053 C131.752014,2.11714709 131.287678,3.23814922 131.287678,4.40686248 C131.287678,5.57557763 131.752014,6.69657977 132.578419,7.52298633 C133.404823,8.349391 134.525827,8.81372685 135.694541,8.81372685 Z"></path>
						<path d="M117.987963,9.74879476 C118.897586,9.74879476 119.770076,9.38739793 120.413276,8.74419601 C121.056478,8.10099599 121.417875,7.22850622 121.417875,6.31888299 C121.417875,5.40925975 121.056478,4.53676999 120.413276,3.89356807 C119.770076,3.25036804 118.897586,2.88897122 117.987963,2.88897122 C117.07834,2.88897122 116.20585,3.25036804 115.562648,3.89356807 C114.919448,4.53676999 114.558051,5.40925975 114.558051,6.31888299 C114.558051,7.22850622 114.919448,8.10099599 115.562648,8.74419601 C116.20585,9.38739793 117.07834,9.74879476 117.987963,9.74879476 Z"></path>
						<path d="M144.496637,13.9341891 C145.192194,13.9341891 145.859356,13.6578413 146.351191,13.1660088 C146.843023,12.6741763 147.119371,12.0070138 147.119371,11.3114555 C147.119371,10.6158992 146.843023,9.94873662 146.351191,9.45690417 C145.859356,8.96506982 145.192194,8.68872202 144.496637,8.68872202 C143.801081,8.68872202 143.133918,8.96506982 142.642084,9.45690417 C142.150252,9.94873662 141.873904,10.6158992 141.873904,11.3114555 C141.873904,12.0070138 142.150252,12.6741763 142.642084,13.1660088 C143.133918,13.6578413 143.801081,13.9341891 144.496637,13.9341891 Z"></path>
						<path d="M135.738354,17.9603942 C137.02818,17.9603942 138.265351,17.4479422 139.177396,16.5358979 C140.08944,15.6238536 140.601892,14.3866809 140.601892,13.0968565 C140.601892,11.8070303 140.08944,10.5698595 139.177396,9.65781521 C138.265351,8.74577093 137.02818,8.23331886 135.738354,8.23331886 C134.44853,8.23331886 133.211359,8.74577093 132.299315,9.65781521 C131.38727,10.5698595 130.874817,11.8070303 130.874817,13.0968565 C130.874817,14.3866809 131.38727,15.6238536 132.299315,16.5358979 C133.211359,17.4479422 134.44853,17.9603942 135.738354,17.9603942 Z"></path>
						<path d="M155.040918,13.2406354 C155.932248,13.2406354 156.787192,12.8865055 157.417456,12.2562398 C158.047722,11.6259741 158.401851,10.7710318 158.401851,9.87970173 C158.401851,8.9883717 158.047722,8.13342933 157.417456,7.50316364 C156.787192,6.87289796 155.932248,6.51876806 155.040918,6.51876806 C154.149588,6.51876806 153.294645,6.87289796 152.66438,7.50316364 C152.034114,8.13342933 151.679986,8.9883717 151.679986,9.87970173 C151.679986,10.7710318 152.034114,11.6259741 152.66438,12.2562398 C153.294645,12.8865055 154.149588,13.2406354 155.040918,13.2406354 Z"></path>
						<path d="M4.22191635,95.2290187 C5.34158208,95.2290187 6.41553941,94.7841704 7.20726195,93.9924479 C7.99898448,93.2007254 8.4438327,92.126768 8.4438327,91.0071023 C8.4438327,89.8874366 7.99898448,88.8134792 7.20726195,88.0217567 C6.41553941,87.2300342 5.34158208,86.785186 4.22191635,86.785186 C3.10225062,86.785186 2.02829329,87.2300342 1.23657075,88.0217567 C0.444848217,88.8134792 0,89.8874366 0,91.0071023 C0,92.126768 0.444848217,93.2007254 1.23657075,93.9924479 C2.02829329,94.7841704 3.10225062,95.2290187 4.22191635,95.2290187 Z"></path>
						<path d="M100.017566,12.9514498 C100.620381,12.9514498 101.198585,12.7119496 101.624841,12.2856937 C102.051095,11.8594397 102.290596,11.281235 102.290596,10.6784205 C102.290596,10.0756041 102.051095,9.49739946 101.624841,9.07114543 C101.198585,8.6448895 100.620381,8.40538933 100.017566,8.40538933 C99.4147518,8.40538933 98.8365453,8.6448895 98.4102912,9.07114543 C97.9840353,9.49739946 97.7445351,10.0756041 97.7445351,10.6784205 C97.7445351,11.281235 97.9840353,11.8594397 98.4102912,12.2856937 C98.8365453,12.7119496 99.4147518,12.9514498 100.017566,12.9514498 Z"></path>
						<path d="M178.105633,23.3571153 C178.833091,23.3571153 179.530851,23.0680943 180.045241,22.5537039 C180.559632,22.0393135 180.848653,21.3415538 180.848653,20.6140979 C180.848653,19.88664 180.559632,19.1888803 180.045241,18.6744899 C179.530851,18.1600995 178.833091,17.8710786 178.105633,17.8710786 C177.378177,17.8710786 176.680416,18.1600995 176.166027,18.6744899 C175.651637,19.1888803 175.362616,19.88664 175.362616,20.6140979 C175.362616,21.3415538 175.651637,22.0393135 176.166027,22.5537039 C176.680416,23.0680943 177.378177,23.3571153 178.105633,23.3571153 Z"></path>
						<path d="M126.837971,9.6352951 C127.890086,9.6352951 128.899251,9.21728664 129.643209,8.47332822 C130.387167,7.72936981 130.805178,6.72020534 130.805178,5.66808855 C130.805178,4.61597366 130.387167,3.60680919 129.643209,2.86285078 C128.899251,2.11889236 127.890086,1.7008839 126.837971,1.7008839 C125.785854,1.7008839 124.77669,2.11889236 124.032732,2.86285078 C123.288775,3.60680919 122.870765,4.61597366 122.870765,5.66808855 C122.870765,6.72020534 123.288775,7.72936981 124.032732,8.47332822 C124.77669,9.21728664 125.785854,9.6352951 126.837971,9.6352951 Z"></path>
						<path d="M36.2464166,69.8745064 C37.4585081,69.8745064 38.6211185,69.3929374 39.4781961,68.5358598 C40.3352737,67.6787822 40.8168428,66.5161717 40.8168428,65.3040802 C40.8168428,64.0919888 40.3352737,62.9293783 39.4781961,62.0722988 C38.6211185,61.2152212 37.4585081,60.7336522 36.2464166,60.7336522 C35.0343251,60.7336522 33.8717146,61.2152212 33.0146371,62.0722988 C32.1575576,62.9293783 31.6759886,64.0919888 31.6759886,65.3040802 C31.6759886,66.5161717 32.1575576,67.6787822 33.0146371,68.5358598 C33.8717146,69.3929374 35.0343251,69.8745064 36.2464166,69.8745064 Z"></path>
				</g>
				<path d="M174.343403,58.5608099 L169.626099,58.4480948 L164.907904,58.5562697 L160.1906,58.8840738 L155.475913,59.4274388 L150.765406,60.179608 L146.060393,61.1313167 L141.361903,62.2710293 L136.670658,63.5852293 L131.987099,65.0587118 L127.311422,66.6749114 L122.643631,68.4162081 L117.983583,70.2642477 L113.331035,72.2002429 L108.685684,74.2052776 L104.047189,76.2605903 L99.4152004,78.3478323 L90.1693314,82.5482747 L85.5547158,84.629 L80.9452074,86.6770262 L76.3404335,88.6792913 L71.7400274,90.6242014 L67.1436034,92.5017083 L62.5507577,94.3033301 L57.9610652,96.0221468 L53.3740701,97.6527758 L48.7893037,99.1913018 L44.2062795,100.6352 L39.6245037,101.983238 L35.0434868,103.23535 L30.4627503,104.39253 L25.8818392,105.456695 L21.3003359,106.430551 L16.7178615,107.317474 L12.1340907,108.121372 L7.10584028,108.915725 L6.8841926,110.445132 C6.04225416,116.254652 5.61895174,122.120234 5.61895174,127.996873 C5.61895174,132.575064 5.87585997,137.147281 6.38772816,141.692285 L6.70788327,144.53502 L13.3473636,141.587718 L17.9785357,139.499559 L27.2239658,135.299315 L31.838142,133.220065 L36.4461836,131.178186 L41.0477198,129.191971 L45.6423977,127.279938 L50.2298795,125.46053 L54.8098615,123.751814 L59.3821006,122.171172 L63.9464533,120.734978 L68.502923,119.45832 L73.0517088,118.354714 L77.5932473,117.435895 L82.1282667,116.711607 L86.6577884,116.189501 L91.1831315,115.875023 L95.7058587,115.771387 L100.227693,115.879564 L104.75042,116.198285 L109.275763,116.724081 L113.805285,117.451305 L118.340304,118.372191 L122.881842,119.476953 L127.430628,120.753886 L131.987098,122.189555 L136.551453,123.768988 L141.123692,125.475938 L145.703674,127.293159 L150.291155,129.202712 L154.885833,131.186268 L159.48737,133.225416 L164.095411,135.301956 L173.329602,139.497115 L177.955017,141.582726 L182.585538,143.64016 L187.220795,145.655822 L191.860418,147.617551 L196.504023,149.514668 L201.151208,151.338045 L205.801543,153.080112 L210.454578,154.734847 L215.109841,156.297737 L219.766848,157.765706 L224.425103,159.137044 L229.084115,160.411294 L233.743408,161.589139 L238.402528,162.672272 L244.954555,164.066906 L245.499011,162.196238 C248.586343,151.588633 250.224455,140.607149 250.364919,129.551567 L250.374753,128.010195 L250.365046,126.455501 L250.332774,124.791988 C249.938247,109.797538 246.79572,95.013738 241.05933,81.1648694 L240.636044,80.1557511 L239.880309,78.4074657 L235.117423,76.2653206 L230.486812,74.2133602 L225.848317,72.2109831 L221.202966,70.2774687 L216.550418,68.4316164 L211.89037,66.6920848 L207.222579,65.0770952 L202.546902,63.6041369 L197.863343,62.2896619 L193.1721,61.148793 L188.473609,60.1950184 L183.768597,59.4399125 L179.05809,58.8928585 L174.343403,58.5608099 Z M169.577009,60.5446552 L174.197024,60.6528301 L178.817039,60.976094 L183.437054,61.5106743 L188.057069,62.2503698 L192.677084,63.1866682 L197.297097,64.3089045 L201.917112,65.604472 L206.537127,67.0590468 L211.157143,68.656863 L215.777158,70.3809863 L220.397173,72.2136176 L225.017188,74.1363918 L229.637203,76.1306863 L234.257218,78.1779164 L238.28096,79.9876259 C238.567025,80.6447579 238.847331,81.304709 239.12183,81.9674083 C244.762466,95.5851062 247.848768,110.116084 248.236038,124.832893 L248.267953,126.468822 L248.27766,127.996873 L248.267953,129.524925 C248.129727,140.404403 246.516116,151.197199 243.485427,161.610186 L238.877233,160.62957 L234.257218,159.555921 L229.637203,158.388408 L225.017188,157.125226 L220.397173,155.76554 L215.777158,154.309606 L211.157143,152.758897 L206.537127,151.116215 L201.917112,149.385773 L197.297097,147.573275 L192.677084,145.685963 L188.057069,143.732642 L183.437054,141.72368 L178.817039,139.670949 L174.197024,137.587781 L164.956994,133.389981 L160.336979,131.30809 L155.716964,129.260859 L151.096949,127.266563 L146.476934,125.343789 L141.856919,123.511159 L137.236904,121.787036 L132.616889,120.18922 L127.996873,118.734643 L123.376858,117.439078 L118.756843,116.316839 L114.136828,115.380543 L109.516813,114.640846 L104.896798,114.106265 L100.276783,113.783003 L95.6567681,113.674826 L91.0367531,113.783003 L86.416738,114.106265 L81.7967229,114.640846 L77.1767079,115.380543 L72.5566928,116.316839 L67.9366778,117.439078 L63.3166627,118.734643 L58.6966496,120.18922 L54.0766345,121.787036 L49.4566195,123.511159 L44.8366044,125.343789 L40.2165894,127.266563 L35.5965743,129.260859 L30.9765593,131.30809 L26.3565442,133.389981 L17.1165141,137.587781 L12.496499,139.670949 L8.47168861,141.457584 C7.96933235,136.99704 7.71608677,132.503207 7.71608677,127.996873 C7.71608677,122.211284 8.13352325,116.4463 8.95964556,110.745915 L12.496499,110.186955 L17.1165141,109.37637 L21.7365291,108.481822 L26.3565442,107.499397 L30.9765593,106.425748 L35.5965743,105.258237 L40.2165894,103.995055 L44.8366044,102.635367 L49.4566195,101.179433 L54.0766345,99.6287259 L58.6966496,97.9860437 L63.3166627,96.2556018 L67.9366778,94.4431017 L72.5566928,92.5557895 L77.1767079,90.6024711 L81.7967229,88.5935065 L86.416738,86.5407774 L91.0367531,84.4576083 L100.276783,80.2598078 L104.896798,78.1779164 L109.516813,76.1306863 L114.136828,74.1363918 L118.756843,72.2136176 L123.376858,70.3809863 L127.996873,68.656863 L132.616889,67.0590468 L137.236904,65.604472 L141.856919,64.3089045 L146.476934,63.1866682 L151.096949,62.2503698 L155.716964,61.5106743 L160.336979,60.976094 L164.956994,60.6528301 L169.577009,60.5446552 Z" fill="#FFFFFF"></path>
				<path d="M169.577009,60.0445182 L174.220338,60.1532389 L178.863248,60.4781048 L183.505346,61.0152402 L188.146286,61.7582861 L192.785791,62.6985342 L197.42365,63.8251053 L202.059728,65.1251773 L206.693948,66.5842247 L211.326293,68.1863051 L215.961519,69.9162165 L220.58929,71.752 L225.215346,73.6773349 L229.839767,75.6735565 L234.46264,77.7220636 L238.664067,79.6153632 C238.977487,80.3322744 239.284075,81.0525394 239.58377,81.7760666 C245.327104,95.6417001 248.433208,110.450253 248.750636,125.442275 L248.750636,125.442275 L248.767943,126.465646 L248.77765,128.00005 L248.767913,129.531277 C248.627144,140.610858 246.962554,151.600911 243.835217,162.194394 L243.835217,162.194394 L238.764053,161.116592 L234.134715,160.040682 L229.505335,158.870706 L224.876023,157.604885 L220.24689,156.242421 L215.618056,154.783617 L210.989637,153.230004 L206.361749,151.584448 L201.734505,149.851235 L197.108012,148.036143 L192.482374,146.146493 L187.857684,144.191168 L183.234035,142.180608 L178.611515,140.126756 L173.990213,138.043006 L164.751575,133.845835 L160.134415,131.765219 L155.518805,129.719916 L150.904831,127.728181 L146.292573,125.808559 L141.682102,123.979603 L137.067758,122.257596 L132.460068,120.664042 L127.854258,119.213938 L123.250306,117.922877 L118.648137,116.804973 L114.047611,115.872627 L109.448522,115.13628 L104.850589,114.604254 L100.253469,114.282594 L95.6567681,114.174963 L91.0600675,114.282594 L86.4629472,114.604254 L81.8650144,115.13628 L77.2659249,115.872627 L72.6653995,116.804973 L68.06323,117.922877 L63.4592781,119.213938 L58.8534705,120.664042 L54.2457753,122.257597 L49.6409805,123.975929 L45.0287221,125.805406 L40.4147479,127.72562 L35.7991386,129.717989 L31.1819783,131.763944 L26.5633553,133.845205 L17.3220377,138.043588 L12.6995384,140.127868 L8.05324431,142.192524 C7.49674398,137.490629 7.21608677,132.750678 7.21608677,127.996873 C7.21608677,122.064216 7.6531981,116.153135 8.5180638,110.310673 L8.5180638,110.310673 L12.4100935,109.694478 L17.0214671,108.885487 L21.6325317,107.992757 L26.2433648,107.012375 L30.8540567,105.940987 L35.4647069,104.775939 L40.075424,103.515397 L44.686322,102.158486 L49.2975177,100.705422 L53.9091288,99.1576189 L58.5212712,97.5178104 L63.1340553,95.7901402 L67.7475926,93.9802337 L72.361983,92.0952593 L76.9773229,90.1439456 L81.5937042,88.1365783 L86.2112142,86.0849705 L90.8299419,84.002384 L100.071364,79.8039536 L104.694234,77.7207865 L109.318655,75.6716294 L113.944711,73.6747742 L118.572482,71.7488478 L123.202042,69.9125429 L127.827728,68.1863034 L132.460068,66.5842247 L137.094288,65.1251773 L141.730366,63.8251053 L146.368227,62.6985342 L151.007732,61.7582861 L155.648672,61.0152402 L160.29077,60.4781048 L164.933679,60.1532389 L169.577009,60.0445182 Z" stroke="#FFFFFF" fill="#7DB0BC"></path>
				<path d="M95.6567681,115.984834 L100.276783,116.093011 L104.896798,116.416273 L109.516813,116.950853 L114.136828,117.690549 L118.756843,118.626847 L123.376858,119.749085 L127.996873,121.044651 L132.616889,122.499227 L137.236904,124.097044 L141.856919,125.821167 L146.476934,127.653796 L151.096949,129.576571 L155.716964,131.570867 L160.336979,133.618097 L164.956994,135.699988 L169.577009,137.798846 L174.197024,139.897789 L178.817039,141.980956 L183.437054,144.033687 L188.057069,146.04265 L192.677084,147.99597 L197.297097,149.883282 L201.917112,151.695781 L206.537127,153.426222 L211.157143,155.068905 L215.777158,156.619614 L220.397173,158.075548 L225.017188,159.435234 L229.637203,160.698415 L234.257218,161.865929 L238.877233,162.939577 L242.831607,163.780209 C241.752282,167.243989 240.514963,170.663019 239.12183,174.026339 C233.077297,188.619132 224.217074,201.879394 213.048233,213.048233 C201.879394,224.217074 188.619132,233.077297 174.026339,239.12183 C159.433546,245.166363 143.792,248.27766 127.996873,248.27766 C112.201747,248.27766 96.5602006,245.166363 81.9674084,239.12183 C67.3746147,233.077297 54.1143531,224.217074 42.9455142,213.048233 C31.7766734,201.879394 22.9164497,188.619132 16.8719169,174.026339 C12.8348174,164.27992 10.106178,154.065672 8.73904857,143.650299 L12.496499,141.980956 L17.1165141,139.897789 L21.7365291,137.798846 L26.3565442,135.699988 L30.9765593,133.618097 L35.5965743,131.570867 L40.2165894,129.576571 L44.8366044,127.653796 L49.4566195,125.821167 L54.0766345,124.097044 L58.6966496,122.499227 L63.3166627,121.044651 L67.9366778,119.749085 L72.5566928,118.626847 L77.1767079,117.690549 L81.7967229,116.950853 L86.416738,116.416273 L91.0367531,116.093011 L95.6567681,115.984834 Z" fill="#5C7DA2"></path>
				<path d="M104.896798,147.1301 L104.896798,162.623113 L132.616889,162.623113 L132.616889,184.018683 L160.336979,184.018683 L160.336979,198.653416 L188.057069,198.653416 L188.057069,204.830374 L215.777158,204.830374 L215.777016,210.228946 C214.883468,211.182782 213.973777,212.122689 213.048233,213.048233 C201.879394,224.217074 188.619132,233.077297 174.026339,239.12183 C159.433546,245.166363 143.792,248.27766 127.996873,248.27766 C112.201747,248.27766 96.5602006,245.166363 81.9674084,239.12183 C67.3746147,233.077297 54.1143531,224.217074 42.9455142,213.048233 C34.4734029,204.576123 27.3296614,194.900616 21.7356104,184.352942 L21.7365291,169.917943 L49.4566195,169.917943 L49.4566195,150.611219 L77.1767079,150.611219 L77.1767079,147.1301 L104.896798,147.1301 Z" fill="#444876"></path>
				<path d="M105.84326,146.183639 L105.842887,161.676639 L133.56335,161.676651 L133.562887,183.071639 L161.28344,183.072222 L161.282887,197.706639 L189.003531,197.706955 L189.002887,203.883639 L216.723619,203.883912 L216.724588,209.205613 C216.101048,209.886887 215.46939,210.561276 214.829716,211.228628 L214.829029,205.775179 L189.002887,205.774639 L189.003051,231.658361 C188.375115,232.027912 187.743742,232.391805 187.109006,232.74999 L187.109067,199.598572 L161.282887,199.597639 L161.282843,243.580197 C160.652998,243.761579 160.021775,243.937782 159.389242,244.108793 L159.389105,184.964385 L133.562887,184.963639 L133.562731,248.14881 C132.931784,248.178039 132.300422,248.202306 131.668702,248.221601 L131.669144,163.568679 L105.842887,163.568639 L105.84301,246.219803 C105.210486,246.101273 104.578927,245.977671 103.948395,245.849007 L103.949182,148.075106 L78.1221433,148.075106 L78.1218871,149.664639 L78.1231693,149.664758 L78.122063,237.449925 C77.4880844,237.161037 76.8568376,236.866742 76.228388,236.567082 L76.2292205,151.556191 L50.4021817,151.556191 L50.4018871,168.970639 L50.4030809,168.971482 L50.4019823,219.901696 C49.7656471,219.364445 49.1347089,218.82043 48.5092801,218.269726 L48.5092589,170.864003 L22.6822201,170.864003 L22.6809825,186.100434 C22.0303211,184.921086 21.3992415,183.730394 20.7880618,182.528837 L20.7900677,168.971482 L48.5098871,168.970639 L48.5101581,149.664758 L76.2298871,149.664639 L76.2302465,146.183639 L105.84326,146.183639 Z" fill="#FFFFFF"></path>
				<path d="M127.996873,0 C144.805272,0 161.450221,3.31088604 176.979156,9.74318081 C192.508093,16.1754779 206.619,25.604085 218.50433,37.4894168 C230.389662,49.3747468 239.818269,63.4856541 246.250566,79.0145908 C252.475368,94.0425928 255.776893,110.115769 255.983418,126.370797 L255.993747,127.996873 L255.983418,129.62295 C255.776893,145.877978 252.475368,161.951154 246.250566,176.979156 C239.818269,192.508093 230.389662,206.619 218.50433,218.50433 C206.619,230.389662 192.508093,239.818269 176.979156,246.250566 C161.450221,252.682861 144.805272,255.993747 127.996873,255.993747 C111.188475,255.993747 94.5435262,252.682861 79.0145907,246.250566 C63.4856541,239.818269 49.3747468,230.389662 37.4894169,218.50433 C25.604085,206.619 16.1754779,192.508093 9.74318077,176.979156 C3.31088604,161.450221 0,144.805272 0,127.996873 C0,111.188475 3.31088604,94.5435262 9.74318081,79.0145907 C16.1754779,63.4856541 25.604085,49.3747468 37.4894168,37.4894169 C49.3747468,25.604085 63.4856541,16.1754779 79.0145908,9.74318077 C94.5435262,3.31088604 111.188475,0 127.996873,0 Z M127.996873,4.20293033 C111.740403,4.20293033 95.6419995,7.40510172 80.6229815,13.6261836 C65.6039622,19.8472649 51.9563953,28.9662777 40.4613374,40.4613375 C28.9662777,51.9563953 19.8472649,65.6039622 13.6261836,80.6229816 C7.40510172,95.6419995 4.20293033,111.740403 4.20293033,127.996873 C4.20293033,144.253344 7.40510172,160.351747 13.6261836,175.370765 C19.8472649,190.389785 28.9662777,204.037352 40.4613375,215.53241 C51.9563953,227.027469 65.6039622,236.146482 80.6229816,242.367563 C95.6419995,248.588645 111.740403,251.790817 127.996873,251.790817 C144.253344,251.790817 160.351747,248.588645 175.370765,242.367563 C190.389785,236.146482 204.037352,227.027469 215.53241,215.532409 C227.027469,204.037352 236.146482,190.389785 242.367563,175.370765 C248.387965,160.836232 251.581083,145.290827 251.780826,129.569556 L251.790817,127.996873 L251.780826,126.424191 C251.581083,110.70292 248.387965,95.1575151 242.367563,80.6229815 C236.146482,65.6039622 227.027469,51.9563953 215.532409,40.4613374 C204.037352,28.9662777 190.389785,19.8472649 175.370765,13.6261836 C160.351747,7.40510172 144.253344,4.20293033 127.996873,4.20293033 Z" fill="#444876"></path>
		</g>
</svg>
