<svg xmlns="http://www.w3.org/2000/svg" width="989.004" height="260.765" viewBox="57.053 37.051 989.004 260.765"><path fill="none" d="M1173 392H0V0h1173v392zM57.12 197.2c0 2.462-.17 4.307.032 6.108.535 4.795 1.06 9.603 1.89 14.352 5.108 29.303 18.57 53.872 41.744 72.802 1.663 1.357 4.023 2.285 6.17 2.563 25.138 3.274 50.43 4.68 75.746 4.774 28.815.105 57.642-.347 86.45-1.09 17.472-.45 34.92-1.868 52.373-2.975 1.914-.12 3.98-.698 5.63-1.656 12.354-7.177 23.275-16.065 32.078-27.417 14.857-19.16 21.107-41.19 21.728-65.097.03-1.198-.18-2.403-.31-3.995-1.07.624-1.643.914-2.17 1.272-44.86 30.358-94.49 46.646-148.39 50.476-32.648 2.32-64.913-.025-96.55-8.463-28.567-7.614-55.465-18.653-76.42-41.656zm523.91 97.68v-59.513h57.19v59.313h32.463V153.36H637.82v58.816h-57.07V153.29h-32.77v141.59h33.05zm176.86-141.694V295.45h32.67v-23.608-23.796c4.938 0 9.41.235 13.854-.052 7.777-.507 15.71-.525 23.263-2.188 17.225-3.792 30.028-13.262 34.746-31.164 1.216-4.614 1.76-9.497 1.925-14.28.71-20.67-9.996-36.264-29.464-43.262-7.575-2.724-15.435-4.042-23.472-4.074-16.815-.064-33.63-.025-50.445-.018-.98 0-1.958.11-3.076.178zm-433.23 61.092c-1.466-2.737-2.734-5.235-4.118-7.67-8.878-15.61-17.65-31.287-26.704-46.797-19.542-33.47-39.04-66.98-61.326-98.742-4.576-6.52-9.775-12.622-14.916-18.724-1.574-1.868-3.91-3.095-6.783-5.293.168 2.064.1 2.728.287 3.308 5.368 16.456 7.17 33.56 7.594 50.646.66 26.613.394 53.26-.005 79.885-.2 13.295-1.53 26.575-2.405 39.86-.588 8.915-1.272 17.825-1.913 26.728 22.636 2.557 76.15-8.548 110.29-23.2zm205.073-47.224c-2.51-1.852-4.663-3.646-7.01-5.14-13.174-8.377-27.76-11.096-43.04-9.69-24.326 2.236-44.36 20.175-41.714 47.562 1.263 13.064 6.995 23.326 18.842 29.202 6.795 3.37 14.266 5.37 21.41 8.04 5.118 1.916 10.38 3.566 15.26 5.978 6.488 3.205 7.73 9.072 6.635 15.735-.98 5.936-4.726 9.774-11.114 11.326-9.463 2.3-18.124.063-26.34-4.65-3.03-1.737-5.93-3.726-9.047-5.275-4.348-2.16-8.608-1.37-11.163 2.33-3.567 5.166-6.74 10.603-10.23 16.16 1.676 1.435 2.974 2.713 4.433 3.77 14.247 10.313 30.185 15.206 47.758 14.57 25.426-.917 44.928-17.1 47.067-43.085 1.34-16.256-5.424-29.82-20.073-36.89-6.7-3.234-13.92-5.382-20.88-8.08-5.102-1.98-10.296-3.784-15.208-6.166-5.175-2.51-7.412-6.883-6.51-12.77.89-5.79 4.32-9.548 9.745-10.723 4.293-.93 9.12-1.52 13.27-.49 6.025 1.498 11.71 4.47 17.44 7.037 5.296 2.373 8.95 1.876 11.717-2.663 3.09-5.075 5.707-10.44 8.75-16.086zM105.71 215.45c2.268 1.64 4.08 3.42 6.25 4.418 4.822 2.22 9.706 4.434 14.77 5.97 21.414 6.5 43.373 10.17 65.664 11.85 4.045.307 8.136-.007 12.352-.035.467-5.554.964-10.18 1.224-14.82.813-14.467 1.572-28.938 2.283-43.41 1.358-27.632 2.168-55.276.52-82.918-.374-6.277-1.382-12.577-2.755-18.72-1.344-6.013-4.197-6.854-8.664-2.503-4.752 4.63-9.49 9.478-13.21 14.93-12.762 18.69-25.483 37.434-37.45 56.636-13.985 22.436-27.16 45.38-40.984 68.603zm940.348-62.17h-111.81v25.89h39.52v115.52h33.18V178.797h39.108c.002-8.785.002-17.06.002-25.517zM730.405 294.827V153.24h-32.813v141.587h32.813zm186 .002V153.24H883.59V294.83h32.812z"/><path fill="#464563" d="M57.12 197.2c20.956 23.002 47.853 34.04 76.42 41.656 31.638 8.438 63.902 10.783 96.55 8.463 53.898-3.83 103.528-20.117 148.39-50.477.527-.357 1.1-.647 2.17-1.27.13 1.59.34 2.795.31 3.993-.62 23.905-6.87 45.938-21.727 65.097-8.803 11.352-19.725 20.24-32.077 27.416-1.65.957-3.717 1.535-5.63 1.655-17.453 1.105-34.902 2.523-52.375 2.976-28.807.743-57.633 1.195-86.448 1.09-25.316-.097-50.608-1.5-75.746-4.775-2.146-.278-4.507-1.206-6.17-2.563-23.173-18.93-36.635-43.5-41.745-72.802-.827-4.75-1.353-9.557-1.888-14.352-.202-1.8-.033-3.646-.033-6.11z"/><path fill="#464462" d="M581.03 294.88h-33.054V153.293h32.772v58.886h57.07v-58.815h32.863v141.32H638.22v-59.314h-57.19c.002 19.615.002 39.325.002 59.51z"/><path fill="#464563" d="M757.89 153.186c1.12-.066 2.1-.18 3.075-.18 16.815-.01 33.63-.048 50.445.018 8.037.032 15.896 1.352 23.472 4.074 19.468 6.998 30.175 22.593 29.464 43.26-.165 4.785-.71 9.668-1.925 14.282-4.717 17.902-17.52 27.372-34.745 31.164-7.552 1.663-15.484 1.683-23.263 2.188-4.44.287-8.916.052-13.854.052V295.448h-32.67c.003-47.408.003-94.762.003-142.262zm32.88 24.464v45.217c6.992 0 13.667.346 20.292-.078 11.143-.713 17.713-6.08 19.657-15.818.643-3.22.73-6.644.477-9.928-.782-10.053-6.277-16.616-16.17-18.036-7.847-1.128-15.885-.94-24.256-1.358z"/><path fill="#E88826" d="M324.66 214.278c-34.137 14.65-87.652 25.758-110.29 23.2.642-8.902 1.326-17.813 1.914-26.73.874-13.283 2.206-26.563 2.404-39.86.398-26.624.666-53.27.005-79.884-.424-17.088-2.226-34.19-7.594-50.646-.19-.58-.12-1.243-.288-3.307 2.873 2.2 5.21 3.426 6.783 5.294 5.14 6.102 10.34 12.202 14.916 18.724 22.287 31.763 41.785 65.27 61.327 98.743 9.055 15.51 17.826 31.187 26.704 46.798 1.386 2.434 2.654 4.932 4.12 7.67zM241.266 95.03c-.328.11-.657.223-.986.333 0 1.047-.222 2.15.037 3.13 1.142 4.303 2.297 8.61 3.673 12.844 5.88 18.087 12.098 36.07 17.688 54.247 3.924 12.76 7.158 25.74 10.444 38.688 1.197 4.722 1.652 9.63 2.516 14.874 11.19-.352 21.727-2.827 32.1-6.204 2.584-.842 2.638-2.713 1.792-4.796-1.06-2.605-2.06-5.26-3.396-7.727-7.415-13.698-14.523-27.584-22.496-40.952-11.524-19.323-23.66-38.282-35.64-57.333-1.608-2.56-3.808-4.746-5.733-7.105z"/><path fill="#474563" d="M529.733 167.054c-3.044 5.647-5.66 11.012-8.753 16.087-2.766 4.54-6.42 5.037-11.717 2.664-5.73-2.567-11.415-5.54-17.44-7.036-4.15-1.03-8.977-.44-13.27.49-5.424 1.174-8.854 4.93-9.745 10.723-.902 5.887 1.335 10.26 6.51 12.77 4.91 2.38 10.105 4.186 15.208 6.164 6.96 2.7 14.18 4.847 20.88 8.08 14.648 7.07 21.41 20.635 20.072 36.89-2.14 25.985-21.642 42.17-47.066 43.087-17.573.636-33.51-4.257-47.758-14.57-1.46-1.057-2.758-2.335-4.433-3.77 3.49-5.558 6.664-10.994 10.23-16.16 2.556-3.7 6.816-4.49 11.164-2.33 3.118 1.552 6.018 3.54 9.046 5.277 8.217 4.714 16.878 6.948 26.34 4.65 6.39-1.553 10.138-5.393 11.115-11.327 1.098-6.662-.146-12.53-6.634-15.734-4.88-2.41-10.142-4.062-15.26-5.977-7.146-2.673-14.616-4.673-21.41-8.042-11.847-5.876-17.58-16.138-18.843-29.202-2.646-27.387 17.387-45.324 41.714-47.562 15.28-1.404 29.867 1.313 43.04 9.69 2.35 1.493 4.506 3.288 7.013 5.14z"/><path fill="#E88826" d="M105.71 215.45c13.824-23.225 27-46.166 40.982-68.604 11.967-19.202 24.688-37.945 37.45-56.637 3.72-5.452 8.458-10.3 13.21-14.93 4.467-4.353 7.32-3.51 8.664 2.504 1.373 6.142 2.38 12.44 2.755 18.72 1.65 27.64.84 55.285-.52 82.917-.71 14.474-1.47 28.943-2.282 43.41-.26 4.642-.757 9.27-1.224 14.82-4.216.03-8.307.343-12.352.036-22.29-1.68-44.25-5.35-65.663-11.85-5.065-1.536-9.95-3.75-14.77-5.97-2.17-.997-3.982-2.777-6.25-4.415zm64.217-81.965c-1.102 1.496-1.607 2.1-2.02 2.757-8.99 14.293-18.158 28.48-26.877 42.936-5.05 8.37-9.472 17.127-13.98 25.812-2.26 4.354-1.23 7.157 3.057 9.216 8.168 3.922 16.88 5.68 25.552 7.698 2.392.56 3.988-.32 4.44-3.253 1.11-7.153 2.7-14.23 3.868-21.38 1.565-9.59 3.158-19.185 4.29-28.83 1.19-10.153 1.885-20.368 2.69-30.563.09-1.13-.515-2.314-1.02-4.392z"/><path fill="#464563" d="M1046.058 153.28v25.517h-39.11V294.69h-33.176V179.17H934.25v-25.89h111.808z"/><path fill="#4A4865" d="M730.405 294.827h-32.813V153.24h32.813v141.587zM916.404 294.83h-32.812V153.24h32.812V294.83z"/><path fill="none" d="M790.77 177.65c8.37.417 16.408.23 24.258 1.356 9.892 1.42 15.387 7.982 16.17 18.036.255 3.284.165 6.71-.48 9.928-1.943 9.737-8.515 15.105-19.656 15.817-6.625.424-13.3.077-20.29.077V177.65z"/><path fill="#F7A81F" d="M241.265 95.03c1.926 2.358 4.125 4.547 5.733 7.104 11.978 19.05 24.114 38.01 35.64 57.333 7.972 13.368 15.08 27.254 22.495 40.95 1.335 2.467 2.337 5.12 3.396 7.728.845 2.083.79 3.954-1.794 4.796-10.372 3.378-20.908 5.855-32.1 6.205-.862-5.243-1.317-10.152-2.515-14.874-3.285-12.945-6.52-25.926-10.443-38.687-5.59-18.177-11.807-36.16-17.688-54.247-1.377-4.233-2.532-8.54-3.674-12.845-.26-.978-.038-2.08-.038-3.128.33-.11.66-.22.987-.332zM169.927 133.485c.506 2.077 1.11 3.262 1.02 4.39-.805 10.195-1.5 20.41-2.69 30.563-1.13 9.646-2.724 19.24-4.29 28.83-1.166 7.147-2.758 14.227-3.866 21.38-.453 2.934-2.048 3.813-4.44 3.254-8.67-2.02-17.384-3.776-25.553-7.698-4.286-2.06-5.317-4.862-3.057-9.216 4.51-8.685 8.932-17.44 13.98-25.812 8.72-14.456 17.887-28.643 26.876-42.937.414-.657.92-1.26 2.02-2.755z"/></svg>