<?xml version="1.0" encoding="UTF-8" standalone="no"?>
<svg width="256px" height="289px" viewBox="0 0 256 289" version="1.1" xmlns="http://www.w3.org/2000/svg" xmlns:xlink="http://www.w3.org/1999/xlink" preserveAspectRatio="xMidYMid">
	<g>
		<path d="M239.348,64.287 L128,0 L16.652,64.287 C6.348,70.236 0,81.231 0,93.129 L0,202.474 C0,214.373 6.348,225.367 16.652,231.316 L105.829,282.803 C119.549,290.724 136.452,290.724 150.171,282.803 L239.348,231.316 C249.652,225.367 256,214.373 256,202.474 L256,93.129 C256,81.231 249.652,70.236 239.348,64.287 L239.348,64.287 Z M222.068,187.133 C222.068,195.938 217.418,204.075 209.87,208.477 L146.065,245.693 C135.091,252.094 121.521,252.094 110.547,245.693 L46.741,208.477 C39.193,204.075 34.543,195.938 34.543,187.133 L34.543,106.214 C34.543,97.408 39.193,89.272 46.741,84.869 L128.306,37.295 L209.87,84.869 C217.418,89.272 222.068,97.408 222.068,106.214 L222.068,187.133 L222.068,187.133 Z" fill="#BAC4C5"></path>
		<g transform="translate(68.000000, 84.000000)">
			<path d="M92.404,26.041 L91.75,26.5 L61.625,58.469 L61.223,59.062 L61.375,59.125 L92.359,59.172 L92.404,59.062 L121.793,31.096 L92.404,26.041" fill="#ED1A3B"></path>
			<path d="M92.404,92.083 L92.219,92.125 L61.344,59.437 L61.223,59.062 L92.404,59.062 L121.793,86.682 L92.404,92.083" fill="#C2315D"></path>
			<path d="M61.223,59.062 L92.404,92.083 L90.964,117.76 L61.223,88.397 L61.146,88.125 L61.083,59.458 L61.223,59.062" fill="#94407E"></path>
			<path d="M28.206,90.241 L28.167,89.937 L60.833,59.292 L61.227,59.06 L61.223,88.397 L31.693,117.76 L28.206,90.241" fill="#577F9F"></path>
			<path d="M61.227,59.06 L28.206,90.241 L0.695,86.596 L31.892,59.06 L32.063,58.917 L60.854,58.896 L61.227,59.06" fill="#00AEC5"></path>
			<path d="M61.227,59.064 L60.833,58.417 L28.708,27.917 L28.206,27.883 L0.695,31.79 L31.892,59.064 L61.227,59.064" fill="#93C483"></path>
			<path d="M28.206,27.883 L61.227,59.064 L61.375,58.292 L61.375,30.292 L61.223,29.727 L31.655,0.381 L28.206,27.883" fill="#FCDE11"></path>
			<path d="M61.223,59.062 L92.404,26.041 L90.638,0.381 L61.223,29.727 L61.223,59.062" fill="#F78E36"></path>
		</g>
	</g>
</svg>