<?xml version="1.0" encoding="UTF-8" standalone="no"?>
<svg width="256px" height="256px" viewBox="0 0 256 256" version="1.1" xmlns="http://www.w3.org/2000/svg" xmlns:xlink="http://www.w3.org/1999/xlink" preserveAspectRatio="xMidYMid">
	<g>
		<path d="M165.963541,15.8384262 C162.07318,3.86308197 149.212328,-2.69009836 137.239082,1.20236066 C125.263738,5.09272131 118.710557,17.9535738 122.603016,29.9268197 L181.550164,211.292328 C185.597902,222.478689 197.682361,228.765377 209.282098,225.426885 C221.381246,221.943607 228.756984,209.093246 224.896,197.21023 C224.749115,196.756984 165.963541,15.8384262 165.963541,15.8384262" fill="#DFA22F"></path>
		<path d="M74.6260984,45.515541 C70.7336393,33.5422951 57.8727869,26.9891148 45.899541,30.8794754 C33.9241967,34.7698361 27.3710164,47.6306885 31.2634754,59.6060328 L90.210623,240.971541 C94.2583607,252.157902 106.34282,258.44459 117.942557,255.104 C130.041705,251.62282 137.417443,238.772459 133.556459,226.887344 C133.409574,226.436197 74.6260984,45.515541 74.6260984,45.515541" fill="#3CB187"></path>
		<path d="M240.161574,166.045377 C252.136918,162.155016 258.688,149.294164 254.797639,137.31882 C250.907279,125.345574 238.046426,118.792393 226.07318,122.682754 L44.7076721,181.632 C33.5213115,185.677639 27.234623,197.762098 30.5731148,209.361836 C34.0563934,221.460984 46.9067541,228.836721 58.7897705,224.975738 C59.2430164,224.828852 240.161574,166.045377 240.161574,166.045377" fill="#CE1E5B"></path>
		<path d="M82.507541,217.270557 C94.312918,213.434754 109.528131,208.491016 125.855475,203.186361 C122.019672,191.380984 117.075934,176.163672 111.76918,159.83423 L68.4191475,173.924721 L82.507541,217.270557" fill="#392538"></path>
		<path d="M173.847082,187.591344 C190.235279,182.267803 205.467279,177.31777 217.195016,173.507148 C213.359213,161.70177 208.413377,146.480262 203.106623,130.146623 L159.75659,144.237115 L173.847082,187.591344" fill="#BB242A"></path>
		<path d="M210.484459,74.7058361 C222.457705,70.8154754 229.010885,57.954623 225.120525,45.9792787 C221.230164,34.0060328 208.369311,27.4528525 196.393967,31.3432131 L15.028459,90.292459 C3.84209836,94.3380984 -2.44459016,106.422557 0.896,118.022295 C4.37718033,130.121443 17.227541,137.49718 29.1126557,133.636197 C29.5638033,133.489311 210.484459,74.7058361 210.484459,74.7058361" fill="#72C5CD"></path>
		<path d="M52.8220328,125.933115 C64.6274098,122.097311 79.8468197,117.151475 96.1762623,111.84682 C90.8527213,95.4565246 85.9026885,80.2245246 82.0920656,68.4946885 L38.731541,82.5872787 L52.8220328,125.933115" fill="#248C73"></path>
		<path d="M144.159475,96.256 C160.551869,90.9303607 175.785967,85.9803279 187.515803,82.1676066 C182.190164,65.7752131 177.240131,50.5390164 173.42741,38.807082 L130.068984,52.8996721 L144.159475,96.256" fill="#62803A"></path>
	</g>
</svg>