<?xml version="1.0" encoding="UTF-8"?>
<svg width="512px" height="116px" viewBox="0 0 512 116" version="1.1" xmlns="http://www.w3.org/2000/svg" xmlns:xlink="http://www.w3.org/1999/xlink" preserveAspectRatio="xMidYMid">
    <title>snowflake</title>
    <g fill="#29B5E8">
				<path d="M316.714937,36.1987527 L316.69983,36.1896032 C316.69983,36.1896032 316.692274,36.1837811 316.682204,36.1837811 C316.334735,36.0332337 315.953697,35.9550489 315.586927,35.9550489 C314.993546,35.9592075 314.424506,36.1347077 313.927644,36.4424564 C313.421551,36.7601864 312.993509,37.2234732 312.747596,37.8032055 L312.747596,37.8173453 L301.161154,69.2434952 L292.231074,48.1793329 L292.217646,48.1701837 C291.966697,47.5813019 291.516836,47.1263328 291.006545,46.8094346 C290.491221,46.4917047 289.897001,46.3170363 289.271728,46.3170363 C288.664079,46.3170363 288.097556,46.5058444 287.597338,46.8135932 C287.104671,47.1304914 286.659847,47.5813019 286.409737,48.1701837 L286.403862,48.1793329 L277.456158,69.2568032 L265.807608,37.8447933 L265.798374,37.8447933 C265.595265,37.237613 265.181494,36.7643452 264.689668,36.4516058 C264.189451,36.1347077 263.604462,35.9592075 263.001011,35.9550489 C262.616614,35.9550489 262.227181,36.0332337 261.859572,36.1837811 L261.841946,36.1837811 L261.828519,36.1987527 C260.742474,36.7003002 260.079431,37.7757577 260.075234,38.9476986 C260.075234,39.3161655 260.149093,39.6829689 260.291772,40.0464453 L260.288416,40.0464453 L274.616828,78.1756982 L274.616828,78.1890062 C274.728454,78.473466 274.885403,78.7545987 275.117887,79.0307411 C275.284906,79.2278667 275.531658,79.3942175 275.785963,79.5322884 C275.832964,79.5772033 275.906823,79.6412483 276.017608,79.7102839 C276.137627,79.7843098 276.292059,79.8358786 276.449006,79.8624946 C276.70415,79.9465018 277.043226,80.0687696 277.497284,80.0687696 C278.077233,80.0687696 278.615221,79.8624946 279.097815,79.5547458 C279.548514,79.2561463 279.951376,78.8094945 280.173789,78.230594 L280.210718,78.2031462 L289.271728,56.7380785 L298.344487,78.115812 L298.353718,78.115812 C298.562702,78.6855631 298.930314,79.1322151 299.355834,79.449113 C299.806536,79.7843098 300.310951,79.9914166 300.84558,80.0687696 L301.225779,80.0687696 C301.588355,80.0687696 301.940018,80.0005658 302.23629,79.8857838 C302.547667,79.766843 302.798616,79.6096417 303.006761,79.4541036 C303.49355,79.0856367 303.869554,78.5799306 304.102038,78.0184968 L304.102038,78.0060204 L318.338969,40.0464453 C318.47829,39.6829689 318.55131,39.3203244 318.55131,38.953521 C318.547951,37.7898975 317.855536,36.6820016 316.714937,36.1987527 L316.714937,36.1987527 Z M251.213977,57.9665787 C251.213977,53.4892486 249.479157,49.4336174 246.719561,46.5058444 C243.944858,43.5722492 240.187343,41.7789881 236.10586,41.7789881 C232.022698,41.7789881 228.256791,43.5722492 225.487122,46.5058444 C222.721651,49.4336174 220.986832,53.4892486 220.986832,57.9665787 C220.986832,62.4397501 222.721651,66.4571203 225.487122,69.3665949 C228.256791,72.2868821 232.022698,74.0518634 236.10586,74.0518634 C240.187343,74.0518634 243.958287,72.2868821 246.719561,69.3665949 C249.479157,66.4571203 251.213977,62.4397501 251.213977,57.9665787 L251.213977,57.9665787 Z M251.135084,42.4227655 C254.967296,46.4501169 257.295495,51.9762885 257.304728,57.9665787 C257.295495,63.9568687 254.967296,69.477218 251.135084,73.5054012 C247.332246,77.5269303 242.02036,80.0696014 236.115091,80.0696014 C230.255147,80.0696014 224.934868,77.5269303 221.117762,73.5054012 C217.294782,69.477218 214.928814,63.9568687 214.928814,57.9665787 C214.928814,51.9762885 217.294782,46.4501169 221.117762,42.4227655 C224.934868,38.4045635 230.255147,35.8627241 236.115091,35.8627241 C242.02036,35.8627241 247.332246,38.4045635 251.135084,42.4227655 L251.135084,42.4227655 Z M190.806688,35.9409089 C186.056289,35.9409089 181.719661,37.7757577 178.481667,40.7035306 L178.481667,38.953521 C178.476632,38.1483832 178.175326,37.3981416 177.645732,36.8466888 C177.132084,36.3043855 176.370006,35.9409089 175.535748,35.9409089 C174.672116,35.9409089 173.893252,36.2852551 173.351068,36.8416982 C172.817278,37.3889922 172.497507,38.1483832 172.497507,38.953521 L172.497507,77.9694234 L172.622562,78.0925228 L172.627597,78.1116532 C172.66033,78.2405749 172.742581,78.3828049 172.830706,78.5200441 C173.243639,79.2420065 173.920948,79.7893004 174.760241,80.0321724 L174.8811,80.0696014 L175.535748,80.0696014 C175.972181,80.0696014 176.41197,79.9781084 176.829938,79.7843098 C177.178245,79.6187908 177.502212,79.3526296 177.762393,79.0124425 L177.771626,79.0166011 C177.803519,78.9849945 177.81359,78.9434069 177.850519,78.9118003 C177.864787,78.9068097 177.878216,78.8926699 177.887448,78.8785301 C178.049431,78.6722551 178.184558,78.4609897 178.268487,78.2630324 C178.356613,78.0284778 178.412006,77.8072312 178.453971,77.6375536 L178.481667,77.5269303 L178.481667,54.0997557 C178.569793,50.7486201 179.961341,47.7193731 182.193022,45.5168894 C184.409595,43.3160691 187.447837,41.9544883 190.806688,41.9544883 C194.221772,41.9544883 197.268406,43.3160691 199.476587,45.5168894 C201.694,47.7110555 203.039386,50.735312 203.039386,54.0681491 L203.039386,77.0727929 C203.039386,77.912864 203.401122,78.6905537 203.94918,79.2237079 C204.509828,79.7560303 205.275264,80.0696014 206.073431,80.0696014 C206.885028,80.0696014 207.646267,79.7560303 208.202718,79.2237079 C208.768402,78.6905537 209.111673,77.912864 209.111673,77.0727929 L209.111673,54.0681491 C209.111673,44.1386735 200.928564,35.9550489 190.806688,35.9409089 L190.806688,35.9409089 Z M489.841819,53.6996822 C488.116233,46.7628565 481.969249,41.8205759 474.956116,41.8346552 C467.765051,41.8346552 461.702837,46.6713634 459.824497,53.6996822 L489.841819,53.6996822 Z M496.488182,56.5417847 L496.488182,56.8395525 C496.488182,57.6721378 496.113017,58.4215479 495.543138,58.913946 C494.976615,59.4096712 494.239716,59.667515 493.445745,59.6766642 L459.402333,59.6766642 C460.269323,67.9093624 466.901419,73.9886501 474.82099,74.0518634 L476.829417,74.0518634 C479.44969,74.0610126 482.001982,73.1643823 484.24709,71.6797018 C486.496396,70.2091613 488.4402,68.1538979 489.809086,65.8915278 C490.09109,65.4091108 490.496469,65.0414757 490.935418,64.8160703 C491.38612,64.5723665 491.868711,64.4617433 492.355503,64.4617433 C492.89349,64.4617433 493.42728,64.5998143 493.895606,64.8801153 L493.928337,64.8942553 L493.965267,64.9217031 C494.818829,65.5421912 495.353458,66.4895587 495.353458,67.529251 C495.353458,68.0574146 495.214135,68.5955591 494.921221,69.0821351 L494.91199,69.1012654 L494.902758,69.1095829 C493.00008,72.1080549 490.406664,74.8428611 487.327297,76.8249303 C484.242056,78.8103263 480.665827,80.0696014 476.829417,80.0696014 L474.788257,80.0696014 C468.814168,80.0280136 463.414155,77.5269303 459.521513,73.5278586 C455.638104,69.5420948 453.246117,64.0666604 453.246117,58.0497541 C453.246117,51.9305421 455.658247,46.3769227 459.57355,42.3587205 C463.488853,38.3455088 468.92915,35.8627241 474.956116,35.8627241 C480.707791,35.8627241 485.87532,38.1292529 489.702496,41.8397063 C493.529675,45.5493278 496.029929,50.7020419 496.475592,56.4993651 L496.488182,56.5417847 Z M356.844901,17.7038774 C356.01568,17.7038774 355.25444,18.0490552 354.708061,18.5913586 C354.159164,19.1295033 353.812534,19.8880626 353.812534,20.7106671 L353.812534,77.0727929 C353.812534,77.8953972 354.159164,78.6489661 354.708061,79.1829518 C355.25444,79.7152742 356.01568,80.0696014 356.844901,80.0696014 C358.566292,80.0696014 359.957838,78.7271509 359.967911,77.0727929 L359.967911,20.7106671 C359.957838,19.0513184 358.566292,17.7038774 356.844901,17.7038774 L356.844901,17.7038774 Z M158.460328,56.8902892 C156.010431,55.7457964 153.231532,54.8999029 150.458507,53.9899641 C147.907056,53.1349214 145.317836,52.4079687 143.471391,51.4522838 C142.543972,50.9598854 141.820501,50.4408713 141.352176,49.8569801 C140.873779,49.2739208 140.642134,48.6800486 140.627866,47.8707523 C140.632902,46.7628565 140.957708,45.8712163 141.504927,45.0802186 C142.334988,43.8991283 143.726536,42.9792088 145.248175,42.3853367 C146.751349,41.7898011 148.379578,41.5086683 149.543677,41.5086683 C152.985619,41.5136587 155.161906,42.6490026 156.832099,43.8251023 C157.657125,44.4189744 158.353738,45.0203324 159.012583,45.5168894 C159.350818,45.7747329 159.666393,46.0092875 160.033164,46.1831241 C160.379792,46.3536335 160.788528,46.4917047 161.234192,46.4917047 C161.517034,46.4917047 161.800715,46.4409677 162.059218,46.3311763 C162.332827,46.2213846 162.570347,46.0641833 162.797795,45.8712163 C163.020208,45.6649415 163.210728,45.4162472 163.345015,45.1401048 C163.465873,44.8548134 163.521266,44.5612042 163.521266,44.2717541 C163.521266,43.7377681 163.349211,43.2370524 163.103298,42.7671117 C162.644205,41.9403485 161.938359,41.1501824 161.039476,40.3591847 C159.703321,39.1822532 157.940806,38.0602175 156.043164,37.2151558 C154.140486,36.3692622 152.100164,35.7936885 150.156361,35.7936885 C145.651875,35.7936885 141.890163,36.805101 139.157424,38.6682294 C137.733143,39.6422129 136.480918,40.7085212 135.595464,42.1798935 C134.694902,43.6554245 134.193844,45.4761333 134.129218,47.8433043 C134.124854,47.9489371 134.124854,48.0545699 134.124854,48.1602025 C134.11579,50.4591699 134.861921,52.3539047 136.035253,53.8377534 C137.817073,56.0726755 140.461686,57.4101354 143.055102,58.3575029 C145.643482,59.3040386 148.231023,59.8696312 149.864287,60.4119345 C152.16479,61.1704938 154.609651,61.9930984 156.390631,63.0826957 C157.277764,63.6391388 157.996199,64.2371697 158.483828,64.8942553 C158.95719,65.570471 159.224924,66.2683124 159.234996,67.1516346 L159.234996,67.2165114 C159.22996,68.4940851 158.8506,69.4963484 158.223648,70.3555499 C157.277764,71.6339554 155.704929,72.5713417 154.033896,73.1643823 C152.369577,73.7441146 150.638955,73.9886501 149.525213,73.9886501 C145.596481,73.9886501 142.966976,73.0496003 141.060102,72.1080549 C140.104147,71.6339554 139.329479,71.1648463 138.628669,70.7689315 C138.281202,70.5809551 137.956395,70.4062869 137.613124,70.2682157 C137.279086,70.1309765 136.922386,70.0419788 136.518686,70.0419788 C136.272773,70.0419788 136.004199,70.0843982 135.757447,70.18005 C135.507338,70.2865144 135.279889,70.4337347 135.08937,70.612562 C134.824993,70.8670784 134.593348,71.1507065 134.431364,71.4775856 C134.273577,71.804465 134.193844,72.148811 134.193844,72.5072967 C134.193844,73.0961785 134.416257,73.634323 134.73267,74.120899 C135.228693,74.8237307 135.957199,75.4542 136.866154,76.0838376 C137.802805,76.7043259 138.921582,77.3164966 140.210737,77.9186864 C143.06853,79.2561463 146.732884,79.9548194 149.51682,80.0005658 L149.525213,80.0005658 C153.854287,80.0005658 157.592499,79.0124425 160.742366,76.7143069 L160.742366,76.7084848 L160.746563,76.7084848 C163.826769,74.4103491 165.742875,70.9943369 165.742875,67.1374949 C165.742875,65.0181865 165.241817,63.2207669 164.365595,61.7502262 C163.043709,59.5202946 160.895118,58.0497541 158.460328,56.8902892 L158.460328,56.8902892 Z M402.593935,57.9665787 C402.593935,53.446829 400.872544,49.3970204 398.122179,46.4742378 C395.375173,43.5589411 391.60423,41.7898011 387.479942,41.7798199 C383.388388,41.7798199 379.631711,43.5589411 376.857008,46.4742378 C374.102448,49.3970204 372.358397,53.446829 372.358397,57.9665787 C372.358397,62.4813377 374.102448,66.5045302 376.857008,69.4040236 C379.617443,72.3051805 383.388388,74.0518634 387.479942,74.0518634 C391.613461,74.0518634 395.384405,72.3051805 398.131413,69.4140048 C400.872544,66.5045302 402.593935,62.4854965 402.593935,57.9665787 L402.593935,57.9665787 Z M407.75223,36.7003002 C408.313717,37.237613 408.661185,38.0153026 408.661185,38.855374 L408.661185,77.0727929 C408.661185,77.8953972 408.305324,78.6489661 407.771534,79.1829518 C407.222635,79.7152742 406.467273,80.0696014 405.632174,80.0696014 C404.797917,80.0696014 404.031643,79.7152742 403.493656,79.1829518 C402.946437,78.6489661 402.593935,77.8953972 402.593935,77.0727929 L402.593935,73.344041 C398.775149,77.4312786 393.413745,80.0696014 387.479942,80.0696014 C381.574676,80.0696014 376.258593,77.55521 372.44988,73.5278586 C368.628577,69.5196376 366.290308,63.9976248 366.290308,57.9665787 C366.290308,51.9355325 368.628577,46.4085293 372.44988,42.3961494 C376.258593,38.3729569 381.574676,35.8627241 387.479942,35.8627241 C393.409548,35.8627241 398.775149,38.4245256 402.593935,42.4918011 L402.593935,38.855374 C402.593935,38.0153026 402.94224,37.237613 403.502888,36.7003002 C404.064377,36.1713049 404.82058,35.8627241 405.632174,35.8627241 C406.43454,35.8627241 407.200814,36.1713049 407.75223,36.7003002 L407.75223,36.7003002 Z M450.58304,40.5754406 C451.186492,39.9824003 451.514656,39.1955612 451.514656,38.4145444 C451.514656,37.6468359 451.186492,36.8782954 450.578004,36.3218523 L450.58304,36.3218523 C450.578004,36.3043855 450.563736,36.3043855 450.563736,36.3043855 C450.56038,36.2902455 450.550307,36.2852551 450.550307,36.2852551 L450.541076,36.2852551 C449.956929,35.7155037 449.20492,35.4027644 448.430254,35.4027644 C447.646354,35.4027644 446.881758,35.7263164 446.29677,36.3043855 L422.578345,59.2125456 L422.578345,20.7106671 C422.578345,19.0513184 421.176725,17.7038774 419.455335,17.7038774 C418.626114,17.7038774 417.865713,18.0490552 417.322689,18.5913586 C416.783865,19.1295033 416.422129,19.8880626 416.422129,20.7106671 L416.422129,77.0727929 C416.422129,77.8953972 416.783865,78.6489661 417.322689,79.1829518 C417.865713,79.7152742 418.626114,80.0696014 419.455335,80.0696014 C421.176725,80.0696014 422.578345,78.7271509 422.578345,77.0727929 L422.578345,67.772123 L430.301519,60.1274747 L446.04666,78.9525561 C446.342932,79.385068 446.74747,79.6828359 447.145295,79.8400374 C447.600192,80.010547 448.04166,80.0696014 448.434449,80.0696014 C448.977473,80.0696014 449.743747,79.9548194 450.41686,79.4308147 L450.45379,79.4083572 L450.494075,79.3659377 C451.124384,78.7504401 451.481923,77.9319944 451.481923,77.0952501 C451.481923,76.3915866 451.219225,75.6746148 450.731595,75.1007049 L450.731595,75.0915554 L434.704452,55.7823934 L450.568773,40.5754406 L450.58304,40.5754406 Z M344.330199,17.8377898 L343.652891,17.8377898 C343.563926,17.8377898 343.476638,17.8469391 343.383477,17.8502661 C343.300387,17.8469391 343.211423,17.8377898 343.124135,17.8377898 C341.375048,17.8377898 339.677159,18.0349154 338.090054,18.5589202 C336.526452,19.0737758 335.084546,19.9246598 333.966608,21.2163733 L333.962411,21.2113828 L333.958216,21.2163733 L333.958216,21.2205321 C332.802509,22.493947 332.041269,24.0160562 331.57798,25.7452723 C331.113849,27.4828057 330.92333,29.4407539 330.904867,31.6656949 L330.904867,35.974179 L326.112501,35.974179 C324.448184,35.9833285 323.125935,37.3024897 323.125935,38.8977934 C323.117065,39.7569949 323.454461,40.5479928 324.002519,41.1185757 C324.554774,41.6791777 325.310138,42.0468129 326.149432,42.0925593 L330.904867,42.0925593 L330.904867,77.1459871 L330.899831,77.2283307 C330.899831,78.0509352 331.248138,78.8094945 331.809625,79.3526296 C332.365236,79.8857838 333.14578,80.202682 333.995144,80.202682 C335.609104,80.1943643 336.935189,78.8885111 336.940223,77.2283307 L336.940223,42.0925593 L342.093484,42.0925593 C342.924385,42.0468129 343.68982,41.7016351 344.237878,41.1451918 C344.798525,40.5895804 345.141796,39.8085637 345.141796,38.9618384 L345.141796,38.8478881 C345.123333,37.2700513 343.791373,35.974179 342.126217,35.974179 L336.940223,35.974179 L336.940223,31.6839935 C336.972956,29.7859317 337.171868,28.3652964 337.459745,27.3314265 C337.737552,26.2917344 338.118592,25.6388077 338.461022,25.2345753 C338.7959,24.8760895 339.231493,24.5766582 339.941537,24.3371133 C340.655775,24.1083808 341.643623,23.9611604 342.980617,23.9611604 L343.137564,23.9611604 C343.216457,23.9611604 343.300387,23.9470207 343.374246,23.9470207 C343.467406,23.9470207 343.554694,23.9611604 343.652891,23.9611604 L344.042322,23.9611604 L344.330199,23.9611604 C346.040681,23.9611604 347.419637,22.5912622 347.419637,20.8986434 C347.419637,19.2076881 346.040681,17.8377898 344.330199,17.8377898 L344.330199,17.8377898 Z M512,35.9026484 C512,39.8543101 509.331048,43.1522135 504.872721,43.1522135 C500.444611,43.1522135 497.80755,39.8227034 497.80755,35.9026484 C497.80755,31.9509865 500.444611,28.6522513 504.872721,28.6522513 C509.331048,28.6522513 512,31.9509865 512,35.9026484 L512,35.9026484 Z M510.58663,35.9026484 C510.58663,32.5423635 508.326412,29.9897114 504.872721,29.9897114 C501.481138,29.9897114 499.220082,32.4167686 499.220082,35.9026484 C499.220082,39.2313266 501.481138,41.8139218 504.872721,41.8139218 C508.326412,41.8139218 510.58663,39.2629333 510.58663,35.9026484 L510.58663,35.9026484 Z M502.077036,32.6346881 L505.122831,32.6346881 C506.787148,32.6346881 507.885783,33.5371409 507.885783,34.9369823 C507.885783,35.8086601 507.446835,36.4615868 506.787148,36.8666509 L507.980625,38.5775681 L507.980625,38.9202508 L506.253358,38.9202508 L505.091776,37.2708831 L503.742194,37.2708831 L503.742194,38.9202508 L502.077036,38.9202508 L502.077036,32.6346881 Z M505.091776,34.1601243 L503.742194,34.1601243 L503.742194,35.8086601 L505.091776,35.8086601 C505.719568,35.8086601 506.128303,35.5283591 506.128303,35.0001955 C506.128303,34.4395936 505.750621,34.1601243 505.091776,34.1601243 L505.091776,34.1601243 Z"></path>
				<path d="M45.4805529,73.1552329 C49.1473519,73.415608 52.0591439,76.395063 52.1840107,80.0666947 L52.1881841,80.3124734 L52.1881841,108.493952 C52.1881841,112.465576 48.935923,115.683631 44.942566,115.683631 C41.0117962,115.683631 37.8203707,112.595585 37.6917456,108.73615 L37.6877156,108.493952 L37.6877156,92.7297244 L23.8872175,100.618908 C20.4268116,102.614285 16.0012185,101.433195 13.9919506,98.0030429 C12.0344689,94.6369178 13.1264019,90.342595 16.4226694,88.299256 L16.6407599,88.1692188 L41.2731761,74.0934512 C42.5959021,73.3299013 44.0663439,73.0354603 45.4805529,73.1552329 Z M74.6197678,73.9369936 L74.905333,74.0934512 L99.5327135,88.1692188 C103.003191,90.1554466 104.180719,94.5637412 102.185719,98.0030429 C100.229059,101.360213 95.9433308,102.563008 92.5137157,100.741968 L92.2912917,100.618908 L78.500026,92.7297244 L78.500026,108.493952 C78.500026,112.465576 75.2578363,115.683631 71.2451755,115.683631 C67.3144058,115.683631 64.1310341,112.595585 64.0027377,108.73615 L63.998718,108.493952 L63.998718,80.3124734 C63.998718,76.528826 66.9496729,73.4213941 70.7063491,73.1552329 C72.0156467,73.0440155 73.3734304,73.2899516 74.6197678,73.9369936 Z M10.65596,37.3998415 L10.8790121,37.5220728 L35.4929637,51.6069898 C37.2235863,52.5959451 38.3784538,54.1646325 38.8660831,55.9204645 C39.0280666,56.4860571 39.1019246,57.0508179 39.1304606,57.6164104 C39.148925,58.3974272 39.0465312,59.1884249 38.8006184,59.9561336 C38.3099582,61.5319371 37.2772908,62.9445218 35.7648354,63.8946944 L35.4929637,64.057511 L10.8790121,78.1515774 C7.40433829,80.1336464 2.97454879,78.9608737 0.980388138,75.5315533 C-0.986129399,72.1572878 0.10561134,67.8843035 3.41053019,65.8379773 L3.62919748,65.7077102 L17.3835344,57.8459744 L3.62919748,49.9626127 C0.154523631,47.9755532 -1.03307625,43.5905478 0.980388138,40.1570685 C2.93211984,36.7917577 7.2169392,35.5911798 10.65596,37.3998415 Z M115.207353,40.1570685 C117.215782,43.5905478 116.028182,47.9755532 112.554347,49.9626127 L98.7991713,57.8459744 L112.554347,65.7077102 C116.028182,67.6980968 117.215782,72.0839342 115.207353,75.5315533 C113.203121,78.9608737 108.769135,80.1336464 105.30789,78.1515774 L80.6754738,64.057511 C79.032977,63.1101435 77.8923776,61.6246314 77.3862837,59.9561336 C77.1454068,59.1884249 77.0337806,58.3974272 77.0614774,57.6164104 C77.0757453,57.0508179 77.1588354,56.4860571 77.3166225,55.9204645 C77.8092875,54.1646325 78.964155,52.5967769 80.6754738,51.6069898 L105.30789,37.5220728 C108.769135,35.5400038 113.203121,36.7185988 115.207353,40.1570685 Z M59.5924287,44.4040029 C60.0095575,44.4040029 60.5844732,44.6385575 60.8773867,44.9371571 L71.115085,55.0695804 C71.4071591,55.3590308 71.6438398,55.9337726 71.6438398,56.3479859 L71.6438398,59.3356452 C71.6438398,59.7407094 71.4071591,60.3146194 71.115085,60.5999109 L60.8773867,70.7331661 C60.5844732,71.0309339 60.0187897,71.2746379 59.5924287,71.2746379 L56.581884,71.2746379 C56.1681124,71.2746379 55.5931965,71.0309339 55.2960868,70.7331661 L45.0634241,60.5999109 C44.7705108,60.3146194 44.5338301,59.7407094 44.5338301,59.3356452 L44.5338301,56.3479859 C44.5338301,55.9337726 44.7705108,55.3590308 45.0634241,55.0695804 L55.2960868,44.9371571 C55.5931965,44.6385575 56.1681124,44.4040029 56.581884,44.4040029 L59.5924287,44.4040029 Z M58.1438087,53.051746 L58.0288255,53.051746 C57.6158932,53.051746 57.0409773,53.2912912 56.7530997,53.5799096 L53.7887162,56.5043557 C53.4916064,56.8071141 53.2641579,57.377697 53.2641579,57.7869198 L53.2641579,57.9017017 C53.2641579,58.3059341 53.4916064,58.8715267 53.7887162,59.1659674 L56.7530997,62.098731 C57.0451737,62.3881813 57.6158932,62.6268945 58.0288255,62.6268945 L58.1438087,62.6268945 C58.5575803,62.6268945 59.1333354,62.3881813 59.4254094,62.098731 L62.3897929,59.1659674 C62.681867,58.8715267 62.9319763,58.3059341 62.9319763,57.9017017 L62.9319763,57.7869198 C62.9319763,57.377697 62.681867,56.8071141 62.3897929,56.5043557 L59.4254094,53.5799096 C59.1333354,53.2912912 58.5575803,53.051746 58.1438087,53.051746 Z M71.2451755,0 C75.1759453,0 78.3673708,3.08884432 78.495996,6.93814734 L78.500026,7.17969791 L78.500026,22.9489162 L92.2912917,15.0505831 C95.7567334,13.0651871 100.186523,14.2429503 102.185719,17.6755978 C104.138272,21.0506774 103.051862,25.3276626 99.7511108,27.3710395 L99.5327135,27.5011043 L74.905333,41.5901802 C73.5826071,42.3445807 72.1163619,42.6431803 70.7063491,42.5275665 C67.0313397,42.2590548 64.1274012,39.2746469 64.0028797,35.6066969 L63.998718,35.3611766 L63.998718,7.17969791 C63.998718,3.21888681 67.2325147,0 71.2451755,0 Z M44.942566,0 C48.8544259,0 52.0551301,3.08884432 52.1841418,6.93814734 L52.1881841,7.17969791 L52.1881841,35.3611766 C52.1881841,39.1406654 49.2288363,42.2530879 45.4805529,42.5275665 C44.1673588,42.6349221 42.8056783,42.3851244 41.558804,41.744876 L41.2731761,41.5901802 L16.6407599,27.5011043 C13.1753183,25.5140447 11.9919149,21.1240486 13.9919506,17.6755978 C15.9584681,14.3159853 20.2395823,13.1163254 23.6650623,14.9281428 L23.8872175,15.0505831 L37.6877156,22.9489162 L37.6877156,7.17969791 C37.6877156,3.21888681 40.9299052,0 44.942566,0 Z"></path>
		</g>
</svg>
