<?xml version="1.0" encoding="UTF-8"?>
<svg width="256px" height="398px" viewBox="0 0 256 398" version="1.1" xmlns="http://www.w3.org/2000/svg" xmlns:xlink="http://www.w3.org/1999/xlink" preserveAspectRatio="xMidYMid">
    <title>Solidity</title>
    <g fill="#000000">
				<polyline opacity="0.45" points="191.513435 -1.38880392e-14 127.645979 113.512499 -2.77760784e-14 113.512499 63.8234781 -4.73316543e-30 191.513435 -4.73316543e-30"></polyline>
				<polygon opacity="0.6" points="127.645979 113.512499 255.336913 113.512499 191.513435 -1.38880392e-14 63.8234781 -1.38880392e-14"></polygon>
				<polygon opacity="0.8" points="63.8234781 226.981021 127.645979 113.512499 63.8234781 -1.38880392e-14 0 113.512499"></polygon>
				<polyline opacity="0.45" points="64.4416102 397.24977 128.309066 283.736782 256 283.736782 192.132055 397.24977 64.4416102 397.24977"></polyline>
				<polygon opacity="0.6" points="128.308577 283.737271 0.618132052 283.737271 64.4411215 397.250259 192.131567 397.250259"></polygon>
				<polygon opacity="0.8" points="192.132055 170.268749 128.308577 283.737271 192.132055 397.250259 255.999511 283.737271"></polygon>
		</g>
</svg>
