<?xml version="1.0" encoding="UTF-8"?>
<svg width="256px" height="239px" viewBox="0 0 256 239" version="1.1" xmlns="http://www.w3.org/2000/svg" xmlns:xlink="http://www.w3.org/1999/xlink" preserveAspectRatio="xMidYMid">
    <title>SolidJS</title>
    <defs>
        <linearGradient x1="-6.10421836%" y1="38.1253159%" x2="91.3978495%" y2="61.0549039%" id="linearGradient-1">
            <stop stop-color="#76B3E1" offset="10%"></stop>
            <stop stop-color="#DCF2FD" offset="30%"></stop>
            <stop stop-color="#76B3E1" offset="100%"></stop>
        </linearGradient>
        <linearGradient x1="57.0791197%" y1="38.5985346%" x2="38.0605073%" y2="68.41337%" id="linearGradient-2">
            <stop stop-color="#76B3E1" offset="0%"></stop>
            <stop stop-color="#4377BB" offset="50%"></stop>
            <stop stop-color="#1F3B77" offset="100%"></stop>
        </linearGradient>
        <linearGradient x1="10.69949%" y1="34.5891378%" x2="104.477373%" y2="70.6594008%" id="linearGradient-3">
            <stop stop-color="#315AA9" offset="0%"></stop>
            <stop stop-color="#518AC8" offset="50%"></stop>
            <stop stop-color="#315AA9" offset="100%"></stop>
        </linearGradient>
        <linearGradient x1="62.1047577%" y1="29.394685%" x2="17.7968543%" y2="105.800571%" id="linearGradient-4">
            <stop stop-color="#4377BB" offset="0%"></stop>
            <stop stop-color="#1A336B" offset="50%"></stop>
            <stop stop-color="#1A336B" offset="100%"></stop>
        </linearGradient>
    </defs>
    <g>
        <path d="M256,51.377063 C256,51.377063 171.142819,-12.6994615 105.297728,2.26533187 L99.5158762,3.86384389 C90.5123568,6.45876999 82.6350106,11.9896727 77.1367079,19.576877 C76.2500782,20.863746 75.4436241,22.2040499 74.7219344,23.5901625 L50.4041451,64.9133988 L92.4075993,73.1100243 C109.791764,85.3675354 131.57127,89.646757 152.300784,84.8777937 L227.124751,99.5024781 L256,51.377063 Z" fill="#76B3E1"></path>
        <path d="M256,51.377063 C256,51.377063 171.142819,-12.6994615 105.297728,2.26533187 L99.5158762,3.86384389 C90.5123568,6.45876999 82.6350106,11.9896727 77.1367079,19.576877 C76.2500782,20.863746 75.4436241,22.2040499 74.7219344,23.5901625 L50.4041451,64.9133988 L92.4075993,73.1100243 C109.791764,85.3675354 131.57127,89.646757 152.300784,84.8777937 L227.124751,99.5024781 L256,51.377063 Z" fill="url(#linearGradient-1)" opacity="0.3"></path>
        <path d="M76.3884682,50.5608015 L70.5726053,52.1933244 C43.7039989,60.8661024 34.5210575,86.0001532 49.9620035,108.039213 C68.1995107,130.969356 98.5356733,140.525112 126.622559,132.186947 L227.022718,99.5024781 C227.022718,99.5024781 142.335592,35.5960081 76.3884682,50.5608015 Z" fill="#518AC8"></path>
        <path d="M76.3884682,50.5608015 L70.5726053,52.1933244 C43.7039989,60.8661024 34.5210575,86.0001532 49.9620035,108.039213 C68.1995107,130.969356 98.5356733,140.525112 126.622559,132.186947 L227.022718,99.5024781 C227.022718,99.5024781 142.335592,35.5960081 76.3884682,50.5608015 Z" fill="url(#linearGradient-2)" opacity="0.3"></path>
        <path d="M208.656835,123.038017 C190.445028,99.9821942 160.023435,90.3491387 131.860236,98.7202276 L31.5621097,131.234642 L0,187.420639 L179.679554,218.030444 L211.88787,160.722088 C218.315929,149.736569 217.669722,135.894135 208.656835,123.038017 Z" fill="url(#linearGradient-3)"></path>
        <path d="M177.094726,179.224014 C158.893813,156.261544 128.579316,146.641098 100.468181,154.906225 L0,187.420639 C0,187.420639 85.0272353,251.497164 150.702272,236.532371 L156.484124,234.933859 C183.386741,226.397124 192.569682,201.263073 177.094726,179.224014 Z" fill="url(#linearGradient-4)"></path>
    </g>
</svg>
