<?xml version="1.0" encoding="UTF-8"?>
<svg width="512px" height="103px" viewBox="0 0 512 103" version="1.1" xmlns="http://www.w3.org/2000/svg" xmlns:xlink="http://www.w3.org/1999/xlink" preserveAspectRatio="xMidYMid">
    <title>SolidJS</title>
    <defs>
        <linearGradient x1="-6.10421836%" y1="38.1253159%" x2="91.3978495%" y2="61.0549039%" id="linearGradient-1">
            <stop stop-color="#76B3E1" offset="10%"></stop>
            <stop stop-color="#DCF2FD" offset="30%"></stop>
            <stop stop-color="#76B3E1" offset="100%"></stop>
        </linearGradient>
        <linearGradient x1="57.0791197%" y1="38.5985346%" x2="38.0605073%" y2="68.41337%" id="linearGradient-2">
            <stop stop-color="#76B3E1" offset="0%"></stop>
            <stop stop-color="#4377BB" offset="50%"></stop>
            <stop stop-color="#1F3B77" offset="100%"></stop>
        </linearGradient>
        <linearGradient x1="10.69949%" y1="34.5891378%" x2="104.477373%" y2="70.6594008%" id="linearGradient-3">
            <stop stop-color="#315AA9" offset="0%"></stop>
            <stop stop-color="#518AC8" offset="50%"></stop>
            <stop stop-color="#315AA9" offset="100%"></stop>
        </linearGradient>
        <linearGradient x1="62.1047577%" y1="29.394685%" x2="17.7968543%" y2="105.800571%" id="linearGradient-4">
            <stop stop-color="#4377BB" offset="0%"></stop>
            <stop stop-color="#1A336B" offset="50%"></stop>
            <stop stop-color="#1A336B" offset="100%"></stop>
        </linearGradient>
    </defs>
    <g>
        <g>
            <path d="M110.277489,22.1317715 C110.277489,22.1317715 73.7234389,-5.47056535 45.3592541,0.975840274 L42.8685974,1.6644336 C38.9901384,2.78225366 35.5968026,5.16480858 33.2282908,8.43315951 C32.8463561,8.98750595 32.4989587,9.56487058 32.1880754,10.1619683 L21.7126662,27.9628384 L39.8065548,31.4937106 C47.2951563,36.7738963 56.6771457,38.6172627 65.6068282,36.5629295 L97.8388563,42.8628259 L110.277489,22.1317715 Z" fill="#76B3E1"></path>
            <path d="M110.277489,22.1317715 C110.277489,22.1317715 73.7234389,-5.47056535 45.3592541,0.975840274 L42.8685974,1.6644336 C38.9901384,2.78225366 35.5968026,5.16480858 33.2282908,8.43315951 C32.8463561,8.98750595 32.4989587,9.56487058 32.1880754,10.1619683 L21.7126662,27.9628384 L39.8065548,31.4937106 C47.2951563,36.7738963 56.6771457,38.6172627 65.6068282,36.5629295 L97.8388563,42.8628259 L110.277489,22.1317715 Z" fill="url(#linearGradient-1)" opacity="0.3"></path>
            <path d="M32.9059705,21.7801493 L30.4006629,22.4833936 C18.8264346,26.2193787 14.8706857,37.0464099 21.5222042,46.5402073 C29.3784015,56.4178581 42.446354,60.5342051 54.5453822,56.9423619 L97.7949036,42.8628259 C97.7949036,42.8628259 61.3141081,15.3337437 32.9059705,21.7801493 Z" fill="#518AC8"></path>
            <path d="M32.9059705,21.7801493 L30.4006629,22.4833936 C18.8264346,26.2193787 14.8706857,37.0464099 21.5222042,46.5402073 C29.3784015,56.4178581 42.446354,60.5342051 54.5453822,56.9423619 L97.7949036,42.8628259 C97.7949036,42.8628259 61.3141081,15.3337437 32.9059705,21.7801493 Z" fill="url(#linearGradient-2)" opacity="0.3"></path>
            <path d="M89.8834057,53.0012639 C82.0382794,43.0694739 68.9335257,38.9198287 56.8016241,42.5258547 L13.5960555,56.532136 L0,80.735459 L77.4008203,93.9212887 L91.2752433,69.2344853 C94.0442676,64.5022376 93.7659,58.5393123 89.8834057,53.0012639 Z" fill="url(#linearGradient-3)"></path>
            <path d="M76.2873502,77.2045868 C68.4469169,67.3130106 55.3882974,63.1687972 43.2788232,66.7291777 L0,80.735459 C0,80.735459 36.6273047,108.337796 64.9182349,101.89139 L67.4088916,101.202797 C78.9977708,97.5254155 82.9535197,86.6983842 76.2873502,77.2045868 Z" fill="url(#linearGradient-4)"></path>
        </g>
        <path d="M159.944114,65.5717548 C163.128062,68.6724639 167.368191,70.4522708 171.811361,70.5530683 C176.792674,70.5530683 180.894932,67.6228839 180.894932,62.6415705 C180.894932,51.2138514 158.186004,53.9975266 158.186004,39.9326416 C158.186004,33.3397267 164.046372,27.7723764 172.397398,27.7723764 C176.861976,27.6395946 181.209723,29.2110693 184.557663,32.167653 L182.345374,35.9768926 C179.614674,33.4928501 176.073664,32.086861 172.382747,32.0211437 C166.522378,32.0211437 162.859648,35.8303834 162.713138,39.7861323 C162.713138,50.6278145 185.422067,47.5511209 185.422067,62.4950613 C185.422067,69.2344853 180.147735,74.8018356 171.650201,74.8018356 C166.261505,74.9084739 161.067296,72.7883886 157.292297,68.9414669 L159.944114,65.5717548 Z M231.880141,28.0653948 C238.053452,28.0375615 243.979841,30.4876529 248.331283,34.866636 C252.682725,39.245619 255.095378,45.1873482 255.028597,51.3603606 C255.106798,57.5775692 252.711768,63.5711518 248.370487,68.0223394 C244.029205,72.4735269 238.097361,75.0176246 231.880141,75.0948541 L231.733631,75.0948541 C225.516411,75.0176246 219.584567,72.4735269 215.243285,68.0223394 C210.902004,63.5711518 208.506974,57.5775692 208.585175,51.3603606 L208.585175,51.2138514 C208.557342,45.0405405 211.007433,39.1141512 215.386416,34.7627089 C219.765399,30.4112667 225.707128,27.9986141 231.880141,28.0653948 Z M231.733631,70.9925959 C242.247927,70.7525738 250.577652,62.0358768 250.340302,51.5215208 L250.340302,51.3603606 C250.340302,40.5186784 242.135786,32.167653 231.880141,32.167653 C226.870753,32.1743155 222.074976,34.1974188 218.574388,37.7806981 C215.073799,41.3639774 213.163196,46.2056732 213.27347,51.2138514 C213.27347,62.348552 221.477986,70.8460867 231.733631,70.9925959 Z M281.400257,28.9444501 L285.795533,28.9444501 L285.649024,70.4065591 L306.746351,70.4065591 L306.746351,74.362308 L281.107238,74.362308 L281.400257,28.9444501 Z M331.066882,29.0909594 L335.462158,29.0909594 L335.315649,74.6553264 L330.920373,74.6553264 L331.066882,29.0909594 Z M365.057021,29.0909594 L379.707942,29.0909594 C393.3333,29.0909594 402.563381,37.4419848 402.563381,51.9463975 C402.563381,66.4508102 393.3333,74.6553264 379.707942,74.6553264 L365.057021,74.6553264 L365.057021,29.0909594 Z M379.121906,70.6995775 C390.256606,70.6995775 397.728576,64.1066627 397.875086,51.9463975 C398.021595,39.7861323 390.403115,33.1932175 379.268415,33.1932175 L369.452297,33.1932175 L369.305788,70.6995775 L379.121906,70.6995775 Z" fill="#58595B"></path>
        <path d="M440.413938,74.6499195 L440.904843,74.6553264 C444.694726,74.771882 448.388892,73.4532844 451.248394,70.9632941 C454.012893,68.3949468 455.53925,64.7709131 455.456265,61.0127091 L455.438558,60.5611396 L455.438558,29.6330435 L446.281731,29.6330435 L446.281731,59.8871972 C446.384631,61.4872108 445.858967,63.0642027 444.816639,64.2824737 C443.827455,65.2857848 442.482382,65.8497335 441.082275,65.8581055 L440.758334,65.8501224 C437.997199,65.8501224 435.95398,64.2923783 434.628679,61.1768901 L434.473088,60.7955543 L426.722751,65.1175763 C429.192245,71.3246835 433.755974,74.5021313 440.413938,74.6499195 Z M495.160253,74.7636964 L495.787196,74.7578829 C500.871066,74.7578829 504.856117,73.4979036 507.713047,70.9632941 C510.562236,68.4591793 512.133323,64.8058655 511.991116,61.0153181 C512.108947,57.8310793 510.75879,54.7689236 508.328386,52.7082454 C505.867031,50.5985127 501.925933,48.7817984 496.505092,47.2288007 C494.54899,46.7884459 492.684765,46.0100327 490.996345,44.9286059 C489.968536,44.2121421 489.364422,43.0313742 489.384744,41.7786577 C489.349007,40.4820735 489.951185,39.2503459 490.996345,38.4822003 C492.23594,37.5972665 493.738733,37.1583063 495.259763,37.2368719 C498.83174,36.9961888 502.141186,39.0694236 503.496486,42.3545078 L503.62544,42.6870149 L511.199966,38.540804 C510.027136,35.5970632 507.935929,33.1102231 505.237041,31.4497578 C502.348051,29.7292623 499.031442,28.8607476 495.669989,28.9444501 C491.861267,28.8406003 488.142583,30.0760887 485.157501,32.4263159 L484.755052,32.7536898 C481.822226,35.0636359 480.145586,38.6176796 480.227917,42.3500437 C480.155368,45.3056242 481.276689,48.159414 483.327642,50.2724558 L483.626931,50.5692108 C485.658526,52.6203399 489.257769,54.4224033 494.424661,55.975401 C496.751799,56.5317986 498.983504,57.4304055 501.046877,58.6418688 C502.150604,59.2605576 502.821581,60.4389956 502.790337,61.7039115 C502.782839,63.0816064 502.069371,64.3592119 500.900368,65.0882744 C499.46581,66.0228413 497.77637,66.488717 496.065564,66.4215083 C492.010243,66.5203078 488.291301,64.2211135 486.557491,60.5806254 L486.395956,60.2241684 L478.484458,64.3117756 C479.786032,67.5130612 482.095372,70.2030045 485.062722,71.9742077 C488.126558,73.7807347 491.610977,74.7413419 495.160253,74.7636964 L495.160253,74.7636964 Z" fill="#58595B"></path>
    </g>
</svg>
