<?xml version="1.0" encoding="UTF-8" standalone="no"?>
<svg width="256px" height="256px" viewBox="0 0 256 256" version="1.1" xmlns="http://www.w3.org/2000/svg" xmlns:xlink="http://www.w3.org/1999/xlink" preserveAspectRatio="xMidYMid">
	<g fill="#81BD41">
		<path d="M48.566,128.001 C48.566,84.13 84.13,48.566 128.001,48.566 C149.897,48.566 169.724,57.427 184.092,71.757 L218.36,37.344 C195.209,14.267 163.271,0 128.001,0 C57.308,0 0,57.308 0,128.001 C0,128.169 0.006,128.336 0.006,128.505 L48.571,128.357 C48.57,128.238 48.566,128.12 48.566,128.001"></path>
		<path d="M207.432,128.261 C207.291,172.011 171.784,207.435 128.001,207.435 C106.208,207.435 86.468,198.657 72.116,184.447 L37.848,218.86 C60.983,241.816 92.834,256.001 128.001,256.001 C198.656,256.001 255.939,198.754 256,128.113 L207.432,128.261"></path>
		<path d="M176.567,128.001 C176.567,155.05 154.639,176.979 127.589,176.979 C100.539,176.979 78.611,155.05 78.611,128.001 C78.611,100.951 100.539,79.023 127.589,79.023 C154.639,79.023 176.567,100.951 176.567,128.001"></path>
	</g>
</svg>