<?xml version="1.0" encoding="UTF-8" standalone="no"?>
<svg width="256px" height="245px" viewBox="0 0 256 245" version="1.1" xmlns="http://www.w3.org/2000/svg" xmlns:xlink="http://www.w3.org/1999/xlink" preserveAspectRatio="xMidYMid">
    <g>
        <path d="M129.7408,243.648 C157.7408,143.5392 156.928,143.0848 177.1648,71.7056 L182.0288,74.5216 C184.6784,76.0384 186.8416,74.7904 186.8416,71.744 L186.8416,37.696 C192.2176,18.8928 196.416,4.352 197.6576,0 L219.5776,0 L256,33.728 L232.0768,54.4 L250.1696,73.9648 L130.944,243.648 C130.368,244.608 129.5552,244.3904 129.7408,243.648 L129.7408,243.648 Z M142.7648,27.8656 C143.8528,27.8656 144.7232,28.4608 144.7232,29.2096 L144.7232,46.6496 C144.7232,47.3792 143.8464,47.9744 142.7648,47.9744 L113.3248,47.9744 C112.2368,47.9744 111.36,47.3792 111.36,46.6432 L111.36,29.1968 C111.36,28.4608 112.2368,27.8528 113.3184,27.8528 L142.7584,27.8528 L142.7648,27.8656 Z M179.1168,8.5504 L146.72,27.2512 C147.0912,27.8272 147.3216,28.4864 147.3216,29.2032 L147.3216,46.656 C147.3216,47.552 146.9632,48.3712 146.3872,49.024 L179.1104,67.9168 C181.3376,69.2096 183.168,68.1536 183.168,65.5808 L183.168,10.8928 C183.168,8.3136 181.3504,7.264 179.1168,8.5504 Z M108.7552,46.656 L108.7552,29.1968 C108.7552,28.48 108.9856,27.8208 109.3568,27.2512 L76.96,8.5376 C74.7328,7.2576 72.9024,8.3072 72.9024,10.88 L72.9024,65.568 C72.9024,68.1408 74.7328,69.1968 76.9664,67.904 L109.6832,49.0112 C109.1072,48.352 108.7616,47.5392 108.7616,46.6432 L108.7552,46.656 Z M125.056,243.648 L126.2592,243.648 C98.2656,143.5392 99.072,143.0848 78.8352,71.7056 L73.9712,74.5216 C71.328,76.0384 69.1584,74.7904 69.1584,71.744 L69.1584,37.696 C63.7824,18.8992 59.584,4.352 58.3424,0 L36.4288,0 L0,33.728 L23.9168,54.4 L5.824,73.9712 L125.056,243.648 Z M127.1104,84.4096 C131.995248,84.4096 135.9552,80.4496482 135.9552,75.5648 C135.9552,70.6799518 131.995248,66.72 127.1104,66.72 C122.225552,66.72 118.2656,70.6799518 118.2656,75.5648 C118.2656,80.4496482 122.225552,84.4096 127.1104,84.4096 Z M127.1104,136.9856 C131.995248,136.9856 135.9552,133.025648 135.9552,128.1408 C135.9552,123.255952 131.995248,119.296 127.1104,119.296 C122.225552,119.296 118.2656,123.255952 118.2656,128.1408 C118.2656,133.025648 122.225552,136.9856 127.1104,136.9856 Z M127.1104,189.5744 C131.995248,189.5744 135.9552,185.614448 135.9552,180.7296 C135.9552,175.844752 131.995248,171.8848 127.1104,171.8848 C122.225552,171.8848 118.2656,175.844752 118.2656,180.7296 C118.2656,185.614448 122.225552,189.5744 127.1104,189.5744 Z" fill="#000000"></path>
    </g>
</svg>
