<?xml version="1.0" encoding="UTF-8"?>
<svg width="512px" height="78px" viewBox="0 0 512 78" version="1.1" xmlns="http://www.w3.org/2000/svg" preserveAspectRatio="xMidYMid">
    <title>SuperTokens</title>
    <g>
        <path d="M26.2139524,58.872164 C22.8609204,61.6054261 18.5957434,62.9647195 14.2794987,62.6756226 L1.56671106,62.6756226 L1.56671106,55.8781728 L15.1667994,55.8781728 C17.1469067,55.9625867 19.0789192,55.2538397 20.5347091,53.908988 C21.8640474,52.6939212 22.6123935,50.9697996 22.5921052,49.1689343 L22.5921052,39.8626548 C22.664288,38.2966852 22.1727496,36.7567158 21.2066708,35.5221459 C20.1484736,34.3652407 18.6194664,33.755549 17.0555564,33.8668891 L14.3599266,33.8668891 C10.4826391,34.0714171 6.69348554,32.6628099 3.89133509,29.9752194 C1.14095092,26.8717022 -0.245619992,22.7923975 0.0437709853,18.6556495 L0.0437709853,15.2569246 C-0.282869845,11.0312447 1.2302348,6.87020688 4.19488532,3.84136017 C7.54854414,1.109256 11.8132531,-0.249888211 16.129339,0.0379016605 L28.9225545,0.0379016605 L28.9225545,6.83535139 L15.234255,6.83535139 C13.2541928,6.75122694 11.322288,7.45993439 9.86634528,8.80453625 C8.53755682,10.0199953 7.78932292,11.7438583 7.80894924,13.5445899 L7.80894924,20.3446341 C7.75535305,22.0598911 8.40157096,23.7231998 9.5991173,24.952371 C10.712714,26.0764102 12.2087519,26.7285816 13.7782241,26.7870403 L16.9362119,26.7866447 C20.5995154,26.5679747 24.1862027,27.8981556 26.8210529,30.4525975 C29.400561,33.5482505 30.6685769,37.5291873 30.354689,41.5464506 L30.354689,47.4514107 C30.6859339,51.6773191 29.1765308,55.8404723 26.2139524,58.872164 Z M65.7778723,62.6764589 L62.043258,62.6756226 C58.1446006,62.9885117 54.2775329,61.7692918 51.263333,59.2768977 C48.6447999,56.2735762 47.3681392,52.3301758 47.7296969,48.3620614 L47.7296969,17.9421767 L55.3340195,17.9421767 L55.3340195,50.149635 C55.2090844,51.7266397 55.7813979,53.2792019 56.9000026,54.3978065 C58.0186072,55.5164111 59.5711693,56.0887247 61.148174,55.9637896 L65.9790333,55.9637896 C67.5309118,56.0901843 69.0665438,55.5733039 70.2261422,54.5342496 C71.1016546,53.6721993 71.6516974,52.5336107 71.7828101,51.3119471 L71.7828101,17.9421767 L79.3871326,17.9421767 L79.3871326,62.6756226 L72.2368382,62.6756226 L72.2368382,60.6182265 C70.3175112,61.9029256 68.0772599,62.6141116 65.7778723,62.6764589 L65.7778723,62.6764589 Z M102.661912,17.9421767 L102.661912,20.0903784 C104.737128,18.5870082 107.259904,17.8299011 109.81999,17.9421767 L113.039698,17.9421767 C117.168999,17.5936396 121.280832,18.7889183 124.579796,21.296796 C127.296361,24.268261 128.629045,28.2502904 128.248343,32.2583323 L128.248343,48.3620614 C128.614264,52.3621654 127.264769,56.32955 124.53569,59.2768977 C121.260622,61.8018303 117.161226,63.0137934 113.039698,62.6756226 L103.108157,62.6756226 L103.108157,77.8842677 L95.4960507,77.8842677 L95.4960507,17.9525545 L102.661912,17.9421767 Z M104.540291,26.2184609 C103.648466,27.1113992 103.135476,28.3139516 103.108157,29.5756746 L103.108157,55.966384 L113.934782,55.966384 C115.735298,56.096646 117.520202,55.5549818 118.944658,54.4460384 C120.118235,53.3354311 120.740365,51.7625363 120.64402,50.149635 L120.64402,30.4681642 C120.739223,28.8562067 120.117216,27.2845708 118.944658,26.1743553 C117.52057,25.0644866 115.735631,24.5218873 113.934782,24.6514152 L108.922311,24.6514152 C107.304454,24.5222405 105.709163,25.0949576 104.542886,26.2236498 L104.540291,26.2184609 Z M148.10883,59.3210033 C145.390671,56.3515181 144.057687,52.3695362 144.440283,48.3620614 L144.440283,32.2583323 C144.440283,27.1299764 145.543788,23.4622939 147.750797,21.2552848 C149.957806,19.0482757 153.625488,17.9447711 158.753844,17.9447711 L162.959442,17.9447711 C166.523536,17.6901965 170.025583,18.9768941 172.577055,21.4784072 C174.940801,24.3820085 176.108896,28.07742 175.843463,31.8120875 L175.843463,43.4429909 L152.0472,43.4429909 L152.0472,50.1522295 C151.950856,51.7651308 152.572985,53.3380255 153.746563,54.4486328 C155.170903,55.557799 156.955894,56.0994898 158.756439,55.9689785 L172.984383,55.9689785 L172.984383,62.678217 L159.661901,62.678217 C155.78602,63.0101778 151.924316,61.9791439 148.737088,59.7769918 L148.10883,59.3210033 Z M168.415563,30.0219194 C168.461456,28.5846831 167.910661,27.1925069 166.893863,26.1757093 C165.877066,25.1589118 164.484889,24.6081166 163.047653,24.6540097 L157.85876,24.6540097 C156.210655,24.4758458 154.565454,25.0144812 153.341829,26.1328442 C152.39382,27.3716932 151.932351,28.914845 152.044606,30.4707586 L152.044606,36.7337524 L168.415563,36.7337524 L168.415563,30.0219194 Z M199.818743,55.966384 L199.818743,24.6540097 L193.285927,24.6540097 L193.285927,17.9447711 L206.971632,17.9447711 L206.971632,20.3602008 C208.826042,18.8655555 211.113015,18.0214292 213.481887,17.9461505 L223.345183,17.9447711 L223.345183,25.1028489 L213.226842,25.1028489 C211.583679,24.9870121 209.985329,25.6698118 208.933033,26.9371226 C208.05015,27.9850384 207.518385,29.2835988 207.412688,30.6497754 L207.412688,55.9689785 L217.165212,55.9689785 L217.165212,62.678217 L193.278143,62.678217 L193.278143,55.9689785 L199.818743,55.966384 Z" fill="#FF9933"></path>
        <g transform="translate(271.829653, 21.549359)">
            <path d="M23.8979921,47.4541181 C23.7682697,47.4541181 23.6385474,47.4541181 23.5062307,47.4541181 C21.8108441,47.314825 20.1842533,46.7215451 18.7973103,45.7365946 C18.4029545,45.4771499 18.0189764,45.1865719 17.627215,44.9089662 L17.5934872,44.8856162 C16.7933405,44.2761185 15.9505857,43.7246863 15.0716852,43.2355482 C13.7268246,42.5268987 12.2305537,42.1539436 10.7104207,42.1484751 L10.5002705,42.1484751 C9.92298962,42.1403297 9.34668941,42.1986561 8.78274699,42.3223031 C8.03084691,42.800979 7.58861943,43.6420009 7.62043497,44.5327714 C7.64900435,45.0573454 7.77757412,45.5716244 7.99922416,46.0479282 C8.15331775,46.3357649 8.27097287,46.6416682 8.34947443,46.9585789 L8.34947443,46.9585789 C8.30536884,46.9585789 8.1912132,46.8210732 7.97846859,46.5564397 C6.47773625,44.4325603 4.31249846,42.8688789 1.82444158,42.1121529 C1.07952327,41.9666402 0.457611008,41.456483 0.169253539,40.7543952 C-0.119103929,40.0523075 -0.0352948619,39.2523004 0.392307136,38.6252168 C7.95771301,27.5106082 8.90209153,23.5359162 12.4175665,8.76054364 L12.7211167,7.48407598 C12.9442391,6.54315673 13.1794689,5.55899671 13.4268062,4.53159591 C13.5986453,3.8310801 14.092451,3.25352952 14.7577572,2.97492803 L19.0204327,1.18735442 C19.2951851,1.07376431 19.5896712,1.01557245 19.8869778,1.01612095 C20.0069495,1.01719191 20.1266557,1.02760115 20.2450115,1.04725431 C22.3918212,0.289804209 24.6606987,-0.0620961329 26.9360889,0.00947572827 L29.8859745,0.00947572827 C32.1657045,-0.0637719603 34.4391407,0.288153144 36.5900242,1.04725431 C36.0930666,1.1271241 35.6367447,1.36988734 35.2928009,1.73737707 L22.4606687,2.71029449 L22.4606687,2.71029449 L21.5422347,1.73218818 C21.1973013,1.36692511 20.7411776,1.12609181 20.2450115,1.04725431 C19.3877427,1.37148084 18.5965486,1.84883465 17.9100096,2.45603874 C15.9740099,4.73221565 15.0592762,7.70439676 15.3804243,10.6752451 L15.3804243,26.7322743 C15.0574803,29.7072647 15.9722158,32.6841424 17.9100096,34.9644529 C20.524891,36.8398507 23.7299009,37.7060696 26.9334944,37.4032326 L29.8833801,37.4032326 C33.0869736,37.7060696 36.2919834,36.8398507 38.9068648,34.9644529 C40.8465191,32.6849669 41.7631586,29.7079994 41.441639,26.7322743 L41.441639,10.6700562 C41.7601898,7.70025117 40.845723,4.72987565 38.9120537,2.45344429 C38.2289204,1.84886903 37.4423105,1.37250864 36.5900242,1.04725431 C36.7059574,1.02982572 36.8230386,1.02115304 36.9402744,1.02130985 C37.2377895,1.02124034 37.532349,1.08032861 37.8068195,1.19513776 L42.0694951,2.96973914 C42.7338041,3.24899981 43.2265551,3.82644237 43.3978517,4.52640702 C44.1761856,7.80578734 44.8507417,10.7323229 45.3359032,12.8675524 C48.0367219,24.7215783 49.0459616,29.1554873 55.8615725,39.1830228 C56.2891464,39.8097415 56.3732675,40.609342 56.0854775,41.3113197 C55.7976875,42.0132974 55.1764888,42.5237377 54.4320325,42.6699589 C52.081852,43.3098763 50.032397,44.7576311 48.6438224,46.7588065 C48.5063167,46.9378233 48.44405,47.0182511 48.4284833,47.0182511 C48.4896581,46.7993824 48.5767566,46.5886041 48.687928,46.3903951 L48.8410003,46.0401448 C49.0610953,45.5634301 49.1887507,45.0492873 49.2171951,44.5249881 C49.2504325,43.7782168 48.9397243,43.0573736 48.374,42.5687755 C47.4388275,42.3444949 46.4817024,42.2244192 45.5201089,42.2107419 L45.2165586,42.2107419 C43.8147283,42.1051057 42.4441071,42.6608408 41.5116891,43.7129264 C41.3731884,43.900391 41.2450057,44.0952633 41.127711,44.2966768 L41.1121443,44.3252157 C40.9734102,44.5693442 40.816432,44.8026434 40.6425495,45.0231218 C40.3150901,45.4602175 39.7980128,45.7139327 39.2519262,45.7054612 C38.4165785,45.6141974 37.6114828,45.340518 36.8935744,44.9037773 C36.5822408,44.7481105 36.3279851,44.6183882 36.0841071,44.5146103 C35.1820984,44.1015789 34.2063097,43.8739537 33.2146493,43.8452431 C32.9381217,43.8444959 32.6620585,43.8679353 32.3896153,43.9152932 C31.1013448,44.2415352 29.892329,44.8248633 28.8352237,45.6302223 C28.575779,45.7936724 28.3396844,45.9545281 28.093212,46.1101949 C26.8553162,46.956738 25.3973591,47.4237892 23.8979921,47.4541181 L23.8979921,47.4541181 Z" stroke-opacity="0" stroke="#000000" fill="#FF9933"></path>
            <path d="M30.539775,44.5223936 L30.7473307,41.0224854 L33.9047721,40.1092402 L35.2019953,44.1903045 C33.6656961,43.6758118 31.987639,43.7953396 30.539775,44.5223936 Z" fill="#DB902E"></path>
            <path d="M12.1451496,40.8486575 C12.1451496,40.9316797 12.1451496,42.1458807 12.1451496,42.2548474 C9.6155643,41.8060082 7.55038492,42.6362311 7.61524608,44.5249881 L7.59449051,44.5249881 L7.59449051,43.9853432 C7.49071265,40.3349571 9.29125849,37.2761047 10.3030926,33.8981354 C11.1333155,31.106511 11.5121047,22.6148877 12.1840663,25.4194844 C12.639178,27.8002079 12.6233123,30.2470462 12.1373663,32.6216677 C12.0431013,33.9881821 12.0431013,35.3595677 12.1373663,36.726082 L12.1451496,40.8486575 Z" fill="#DB902E"></path>
            <path d="M44.6872916,40.8486575 C44.6872916,40.9316797 44.6872916,42.1458807 44.6872916,42.2548474 C46.9003544,42.3715975 49.2820562,42.6362311 49.2171951,44.5249881 L49.2379506,44.5249881 L49.2379506,43.9853432 C49.3417285,40.3349571 47.5411827,37.2761047 46.5293485,33.8981354 C45.6991257,31.106511 45.3203365,22.6148877 44.6483749,25.4194844 C44.1935136,27.8003221 44.2102615,30.2472792 44.6976693,32.6216677 C44.7917784,33.9881875 44.7917784,35.3595623 44.6976693,36.726082 L44.6872916,40.8486575 Z" fill="#DB902E"></path>
        </g>
        <path d="M252.872579,62.6756226 L252.872579,6.84832362 L238.647229,6.84832362 L238.647229,0.0508738928 L274.881268,0.0508738928 L274.881268,6.84832362 L260.655918,6.84832362 L260.655918,62.6756226 L252.872579,62.6756226 Z M345.468373,43.5312021 L345.468373,62.6756226 L337.861456,62.6756226 L337.861456,0.0508738928 L345.465778,0.0508738928 L345.465778,33.8668891 L359.509517,17.9421767 L369.083024,17.9421767 L353.516346,35.5662515 L370.336142,62.6730281 L360.941651,62.6730281 L347.790402,40.8433556 L345.468373,43.5312021 Z M389.659579,59.3210033 C386.94142,56.3515181 385.608436,52.3695362 385.991032,48.3620614 L385.991032,32.2583323 C385.991032,27.1299764 387.094537,23.4622939 389.301546,21.2552848 C391.508555,19.0482757 395.176237,17.9447711 400.304593,17.9447711 L404.510191,17.9447711 C408.073693,17.6889178 411.575454,18.9758572 414.125209,21.4784072 C416.490822,24.3811205 417.659978,28.076952 417.394212,31.8120875 L417.394212,43.4429909 L393.595355,43.4429909 L393.595355,50.1522295 C393.49901,51.7651308 394.121139,53.3380255 395.294717,54.4486328 C396.719969,55.5579715 398.505826,56.0996446 400.307188,55.9689785 L414.532537,55.9689785 L414.532537,62.678217 L401.202272,62.678217 C397.071546,63.028926 392.957842,61.8324475 389.659579,59.3210033 Z M409.966312,30.0219194 C410.012205,28.5846831 409.46141,27.1925069 408.444612,26.1757093 C407.427815,25.1589118 406.035638,24.6081166 404.598402,24.6540097 L399.409509,24.6540097 C397.761511,24.4768703 396.116722,25.0153709 394.892578,26.1328442 C393.945655,27.3722476 393.484313,28.9149783 393.595355,30.4707586 L393.595355,36.7337524 L409.968967,36.7337524 L409.966312,30.0219194 Z M440.832441,17.9421767 L440.832441,20.0903784 C442.907841,18.5873791 445.430485,17.8303118 447.990519,17.9421767 L452.102717,17.9421767 C456.002376,17.6312592 459.869831,18.8512385 462.885236,21.343496 C465.50176,24.3478394 466.777316,28.2907223 466.416278,32.2583323 L466.416278,62.6756226 L458.811955,62.6756226 L458.811955,30.4681642 C458.939522,28.8902643 458.368156,27.3358791 457.249022,26.2162454 C456.129887,25.0966117 454.575757,24.5245526 452.997801,24.6514152 L447.095435,24.6514152 C445.479047,24.5173658 443.882989,25.0843491 442.713415,26.2080831 C441.82159,27.1010214 441.3086,28.3035738 441.28128,29.5652968 L441.28128,62.6756226 L433.682147,62.6756226 L433.682147,17.9421767 L440.832441,17.9421767 Z M508.513766,59.9021593 C505.602502,61.9359145 502.083961,62.9144055 498.540714,62.6756226 L485.210448,62.6756226 L485.210448,55.966384 L499.435798,55.966384 C500.741876,56.0552337 502.038358,55.688478 503.104345,54.9286054 C503.966943,54.1803234 504.429675,53.0714955 504.354868,51.9320198 L504.354868,47.1893716 C504.354868,44.5049844 503.072347,43.1627907 500.507304,43.1627907 L497.196791,43.1627907 C493.85518,43.4186803 490.534801,42.4483919 487.856783,40.433433 C485.616086,38.144456 484.488994,34.9897353 484.771987,31.7991152 L484.771987,29.2046688 C484.4628,25.9492003 485.725417,22.7415738 488.170711,20.5703509 C491.129162,18.6117398 494.650947,17.6834186 498.190464,17.9292045 L510.179401,17.9292045 L510.179401,24.638443 L497.29538,24.638443 C496.020416,24.5755164 494.761034,24.9408194 493.717638,25.6762216 C492.807349,26.3944523 492.306317,27.5128093 492.376309,28.6702128 L492.376309,31.8925153 C492.282548,33.0387119 492.728647,34.163073 493.582727,34.9332066 C494.463899,35.6165762 495.558588,35.9658473 496.672712,35.9190962 L499.710809,35.9190962 C503.013087,35.6866935 506.279036,36.7273782 508.838072,38.8274707 C511.065656,41.127182 512.205049,44.2687723 511.969569,47.4617885 L511.969569,51.4883694 C512.207518,54.6807853 510.926921,57.7986335 508.513766,59.9021593 L508.513766,59.9021593 Z M301.713033,25.1806823 C304.013175,24.886153 306.343426,25.4135837 308.292549,26.6698946 C309.392078,28.299685 309.872441,30.2689896 309.64685,32.22201 L309.64685,48.2920114 C309.872381,50.24539 309.391032,52.2149612 308.289955,53.8441268 C306.341808,55.1004617 304.012354,55.6279199 301.713033,55.3333391 L298.765742,55.3333391 C296.465237,55.6282374 294.134575,55.0997947 292.186226,53.8415324 C291.087092,52.2125413 290.606737,50.2441889 290.831925,48.2920114 L290.831925,32.22201 C290.606334,30.2689896 291.086697,28.299685 292.186226,26.6698946 C294.135437,25.4137926 296.465611,24.8863793 298.765742,25.1806823 L301.713033,25.1806823 M301.713033,17.9395822 L298.765742,17.9395822 C294.653515,17.6020017 290.563323,18.8112036 287.295694,21.3305238 C284.57061,24.2725651 283.223779,28.2338333 283.590825,32.2271989 L283.590825,48.2972003 C283.223779,52.2905659 284.57061,56.2518341 287.295694,59.1938754 C290.563091,61.713649 294.653463,62.9229039 298.765742,62.5848169 L301.713033,62.5848169 C305.825338,62.9231573 309.9158,61.7138758 313.183081,59.1938754 C315.908165,56.2518341 317.254996,52.2905659 316.887951,48.2972003 L316.887951,32.2271989 C317.254663,28.2338728 315.907877,24.2727369 313.183081,21.3305238 C309.915568,18.810977 305.825286,17.6017485 301.713033,17.9395822 L301.713033,17.9395822 Z" fill="#292E37"></path>
        <path d="M300.239388,37.6158642 C301.971731,37.6158642 303.376073,39.0202062 303.376073,40.75255 C303.376073,41.8746362 302.786881,42.8591092 301.900996,43.4134687 L302.361645,48.1830446 C302.37992,48.3685457 302.319094,48.5531493 302.194127,48.6914528 C302.06916,48.8297563 301.891648,48.9089257 301.70525,48.9094902 L298.773525,48.9094902 C298.586675,48.909657 298.408467,48.8308048 298.282925,48.6924126 C298.157384,48.5540205 298.096217,48.3689948 298.114536,48.1830446 L298.57519,43.4118465 C297.690746,42.85719 297.102702,41.8735426 297.102702,40.75255 C297.102702,39.0202062 298.507044,37.6158642 300.239388,37.6158642 Z" fill="#292E37"></path>
    </g>
</svg>
