<?xml version="1.0" encoding="UTF-8"?>
<svg width="512px" height="121px" viewBox="0 0 512 121" version="1.1" xmlns="http://www.w3.org/2000/svg" xmlns:xlink="http://www.w3.org/1999/xlink" preserveAspectRatio="xMidYMid">
    <title>SWR</title>
    <g>
        <path d="M0,64.4565599 C0.123513802,95.5114588 25.4085536,120.937657 56.4810973,120.937657 C87.6506875,120.898839 112.912789,95.6455595 112.962195,64.4742048 L112.962195,56.4634525 C113.053948,38.5345418 132.521487,27.4288865 148.00306,36.4753903 C150.383348,37.8658028 152.498963,39.6691043 154.251094,41.8005996 L190.77589,41.8005996 C184.102616,17.1543027 161.751911,0.0299962091 136.218079,0 C105.046724,0.0494055209 79.7934452,25.311507 79.7546266,56.4810973 L79.7546266,64.4565599 C79.7352173,77.3072888 69.3124169,87.7124444 56.4634525,87.7124444 C43.6268394,87.6930351 33.2269773,77.293173 33.207568,64.4565599 C33.207568,60.7829066 30.2291209,57.8044595 26.5554675,57.8044595 L6.63445566,57.8044595 C2.96609574,57.8150464 0,60.7899645 0,64.4565599 Z M216.131509,120.937657 C190.625909,120.842375 168.322845,103.73042 161.626633,79.1194128 L198.098494,79.1194128 C209.325899,93.0288314 231.39958,89.5686804 237.83112,72.8907882 C238.866871,70.2052452 239.394452,67.3520764 239.387394,64.4742048 L239.387394,56.4634525 C239.435035,25.2938622 264.697136,0.0388186236 295.868491,0 C326.623428,0 351.69673,24.7027605 352.331943,55.2812489 L352.508392,64.4565599 C352.600145,82.3872351 372.067684,93.4911259 387.549257,84.4463866 C389.929545,83.0559741 392.04516,81.2509081 393.797291,79.1194128 L430.322087,79.1194128 C423.657635,103.767474 401.313988,120.900603 375.781921,120.937657 C344.709377,120.937657 319.424337,95.493814 319.300824,64.4742048 L319.124375,56.1811352 L319.124375,55.8282386 C318.752069,43.2492401 308.452783,33.2393287 295.868491,33.2252128 C283.031878,33.2446221 272.632016,43.6462488 272.612606,56.4810973 L272.612606,64.4565599 C272.573788,95.6349726 247.308157,120.898839 216.131509,120.937657 Z M437.485888,41.8182445 C448.713292,27.9105903 470.786973,31.3707413 477.218513,48.0486336 C478.256029,50.73947 478.78361,53.5979322 478.774787,56.4810973 C478.774787,60.1565151 481.753234,63.1331978 485.426888,63.1331978 L505.365544,63.1331978 C509.03214,63.1243754 512,60.1494572 512,56.4810973 C511.961181,25.3044491 486.695551,0.0388186236 455.518903,0 C429.979777,0.031760692 407.625544,17.1648895 400.961092,41.8182445 L437.485888,41.8182445 Z" fill="#000000"></path>
    </g>
</svg>
