<?xml version="1.0" encoding="UTF-8" standalone="no"?>
<svg width="256px" height="278px" viewBox="0 0 256 278" version="1.1" xmlns="http://www.w3.org/2000/svg" xmlns:xlink="http://www.w3.org/1999/xlink" preserveAspectRatio="xMidYMid">
	<g>
		<path d="M180.168339,100.573429 L128.099097,77.3853039 L76.043726,100.556783 L128.099097,130.63365 L128.099097,190.75132 L174.217331,157.242566 L180.168339,100.573429 L180.168339,100.573429 Z" fill="#FFFFFF"></path>
		<path d="M38.2125138,78.7142237 L76.043726,100.556783 L128.099097,77.3853039 L180.168339,100.573429 L174.217331,157.242566 L128.099097,190.75132 L128.099097,234.430889 L207.723311,176.582649 L218.0051,78.716998 L128.099097,38.6912647 L38.2125138,78.7142237 L38.2125138,78.7142237 Z" fill="#68C28D"></path>
		<path d="M128.099097,0.321826094 L0.686481416,57.0519983 L15.2685327,195.778465 L128.096323,277.758114 L240.940759,195.778465 L255.520035,57.0603214 L128.099097,0.321826094 L128.099097,0.321826094 Z M207.720537,176.588197 L128.099097,234.430889 L128.099097,130.63365 L38.2125138,78.7142237 L128.099097,38.6912647 L218.0051,78.716998 L207.720537,176.588197 L207.720537,176.588197 Z" fill="#243A4C"></path>
	</g>
</svg>