<?xml version="1.0" encoding="UTF-8"?>
<svg width="256px" height="257px" viewBox="0 0 256 257" version="1.1" xmlns="http://www.w3.org/2000/svg" xmlns:xlink="http://www.w3.org/1999/xlink" preserveAspectRatio="xMidYMid">
    <g>
        <path d="M99.4047197,111.84937 L60.0761099,128.270613 L0,93.6321353 L34.6384778,34.6384778 L94.1733615,69.2769556 L99.4047197,111.84937 Z M157.358575,144.924764 L162.367865,187.264271 L221.902748,221.902748 L256,162.909091 L195.92389,128.270613 L157.358575,144.924764 Z" fill="#00B3E3"></path>
        <path d="M128.270613,160.204261 L162.367865,187.264271 L162.367865,256.541226 L94.1733615,256.541226 L94.1733615,187.264271 L128.270613,160.204261 Z M162.367865,69.2769556 L162.367865,0 L94.1733615,0 L94.1733615,69.2769556 L128.270613,96.683757 L162.367865,69.2769556 Z" fill="#FFC843"></path>
        <path d="M157.358575,113.343892 L162.367865,69.2769556 L221.902748,34.6384778 L256,93.6321353 L195.92389,128.270613 L157.358575,113.343892 Z M60.0761099,128.270613 L0,162.909091 L34.0972516,221.902748 L94.1733615,187.264271 L104.10909,144.845289 L60.0761099,128.270613 Z" fill="#FF4338"></path>
        <path d="M162.367865,108.786469 L195.92389,128.270613 L162.367865,147.754757 L155.767122,128.270613 L162.367865,108.786469 Z M94.1733615,108.786469 L60.0761099,128.270613 L94.1733615,147.754757 L101.752682,128.270613 L94.1733615,108.786469 Z" fill="#002F32"></path>
        <path d="M128.270613,88.7610994 L162.367865,69.2769556 L162.367865,108.786469 L139.869209,104.839133 L128.270613,88.7610994 Z M94.1733615,147.754757 L94.1733615,187.264271 L128.270613,167.780127 L116.327709,149.284091 L94.1733615,147.754757 Z" fill="#FF350F"></path>
        <path d="M162.367865,147.754757 L162.367865,187.264271 L128.270613,167.780127 L141.97001,152.779358 L162.367865,147.754757 Z M128.270613,88.7610994 L94.1733615,69.2769556 L94.1733615,108.786469 L116.544327,105.107543 L128.270613,88.7610994 Z" fill="#008C3C"></path>
        <polygon fill="#00250D" points="128.270613 88.7610994 94.1733615 108.786469 94.1733615 147.754757 128.270613 167.780127 162.367865 147.754757 162.367865 108.786469"></polygon>
    </g>
</svg>