<?xml version="1.0" encoding="UTF-8"?>
<svg width="256px" height="292px" viewBox="0 0 256 292" version="1.1" xmlns="http://www.w3.org/2000/svg" xmlns:xlink="http://www.w3.org/1999/xlink" preserveAspectRatio="xMidYMid">
    <title>Thread</title>
    <g>
        <path d="M130.261484,291.8044 L130.173943,291.8044 C86.6367263,291.512595 53.1667617,277.155819 30.6686424,249.142597 C10.680041,224.19332 0.35016528,189.497777 0,146.018922 L0,145.814659 C0.35016528,102.306623 10.680041,67.6402599 30.6978229,42.6909837 C53.1667617,14.6485809 86.6659068,0.2918044 130.173943,0 L130.261484,0 L130.349025,0 C163.731449,0.23344352 191.65713,8.81249288 213.338197,25.5037045 C233.735324,41.2027813 248.092101,63.5549983 256,91.9767468 L231.196626,98.8925111 C217.773624,50.7447851 183.807591,26.1456742 130.232304,25.7663285 C94.8656104,26.0289525 68.1071469,37.1467001 50.7156047,58.7985866 C34.4620996,79.0789924 26.0581329,108.376154 25.7371481,145.9022 C26.0581329,183.428246 34.4620996,212.725408 50.7447851,233.005813 C68.1363274,254.68688 94.8947908,265.804628 130.261484,266.038071 C162.155705,265.804628 183.253163,258.363616 200.790608,241.176336 C220.808389,221.567081 220.458224,197.493218 214.038527,182.844637 C210.274251,174.207227 203.416847,167.028838 194.166648,161.572096 C191.832212,178.000684 186.608914,191.306965 178.555112,201.345036 C167.78753,214.738858 152.52616,222.063148 133.208709,223.113644 C118.589308,223.901516 104.495156,220.458224 93.581671,213.367377 C80.6547361,204.992591 73.0970022,192.211558 72.2799498,177.329534 C71.492078,162.856036 77.2406246,149.549755 88.4459136,139.861849 C99.1551351,130.611649 114.212242,125.184088 132.01231,124.162772 C145.114328,123.433261 157.399293,124.01687 168.721304,125.884418 C167.203921,116.867662 164.169155,109.689274 159.617007,104.524336 C153.372393,97.4043087 143.713667,93.7859341 130.932634,93.6983928 C130.815912,93.6983928 130.699191,93.6983928 130.582469,93.6983928 C120.310954,93.6983928 106.362704,96.5288955 97.49185,109.747635 L76.1317679,95.4200388 C88.0373874,77.7366921 107.354839,67.9904252 130.582469,67.9904252 C130.757552,67.9904252 130.932634,67.9904252 131.107717,67.9904252 C169.946882,68.2238687 193.086971,92.0059273 195.392226,133.500513 C196.705346,134.054941 198.018466,134.63855 199.302405,135.222159 C217.423458,143.742847 230.671378,156.640602 237.645503,172.543942 C247.333409,194.691896 248.238003,230.7881 218.824119,259.589194 C196.326,281.591246 169.042289,291.541776 130.349025,291.8044 L130.261484,291.8044 L130.261484,291.8044 Z M142.458908,149.666477 C139.511684,149.666477 136.535279,149.754018 133.471332,149.929101 C111.148296,151.18386 97.229226,161.426194 98.0170979,175.987234 C98.8341502,191.248604 115.671264,198.339451 131.866408,197.464037 C146.748433,196.676166 166.124245,190.869258 169.392454,152.351077 C161.16357,150.57107 152.146814,149.666477 142.458908,149.666477 Z" fill="#000000"></path>
    </g>
</svg>
