<?xml version="1.0" encoding="UTF-8"?>
<svg width="256px" height="257px" viewBox="0 0 256 257" version="1.1" xmlns="http://www.w3.org/2000/svg" preserveAspectRatio="xMidYMid">
    <title>Thymeleaf</title>
    <g>
        <rect fill="#005F0F" x="-1.97940601e-14" y="0" width="256" height="256.431459"></rect>
        <path d="M218.18659,34.9646529 C186.658889,73.5985277 148.154821,105.956763 107.093448,134.007508 C93.7448358,143.562742 79.0086196,152.067171 68.7461212,165.152069 C64.826548,172.038399 63.8806411,181.735819 70.5820665,187.323565 C81.7424453,197.841003 99.1260588,200.128855 113.107402,194.240887 C132.681714,186.785438 146.200676,169.814244 157.56475,152.991433 C182.923413,116.457793 198.301888,74.4363832 218.18659,34.9646529 L218.18659,34.9646529 Z" fill="#FFFFFF"></path>
        <path d="M200.104098,48.3235138 C160.850157,79.4260876 129.451869,96.234868 89.3072076,110.69382 C77.1912414,115.878186 64.2064086,122.457498 58.5777399,135.178978 C52.7825381,147.214547 54.6819014,163.998413 61.3299099,175.142481 C60.8325531,170.451098 63.3388374,162.871696 67.0675159,159.313451 C79.4403159,145.534702 95.5558764,136.506786 109.73129,126.044423 L109.765137,126.01559 L109.799123,125.992747 C142.605268,103.462527 173.361702,77.7170478 200.104098,48.3235138 L200.104098,48.3235138 Z" fill="#AEA99F"></path>
    </g>
</svg>
