<?xml version="1.0" encoding="UTF-8"?>
<svg width="256px" height="290px" viewBox="0 0 256 290" version="1.1" xmlns="http://www.w3.org/2000/svg" xmlns:xlink="http://www.w3.org/1999/xlink" preserveAspectRatio="xMidYMid">
    <title>TikTok</title>
    <g>
				<path d="M189.720224,104.421475 C208.398189,117.766281 231.279538,125.618095 255.992548,125.618095 L255.992548,78.0872726 C251.315611,78.0882654 246.650588,77.6008156 242.074913,76.6318726 L242.074913,114.045382 C217.363889,114.045382 194.485518,106.193568 175.80259,92.8497541 L175.80259,189.846306 C175.80259,238.368905 136.447224,277.701437 87.902784,277.701437 C69.7897057,277.701437 52.9543216,272.228299 38.9691786,262.841664 C54.9309256,279.153859 77.1908018,289.273158 101.81744,289.273158 C150.364858,289.273158 189.72221,249.940626 189.72221,201.416041 L189.72221,104.421475 L189.720224,104.421475 Z M206.889179,56.4687254 C197.343701,46.0456391 191.076347,32.5757434 189.720224,17.6842019 L189.720224,11.5707278 L176.531282,11.5707278 C179.851103,30.497877 191.174632,46.6681056 206.889179,56.4687254 L206.889179,56.4687254 Z M69.6735517,225.606854 C64.3403943,218.617757 61.4583846,210.068027 61.4712906,201.277053 C61.4712906,179.084685 79.472186,161.090739 101.680438,161.090739 C105.819294,161.089747 109.933331,161.723134 113.877603,162.974023 L113.877603,114.380938 C109.268175,113.749536 104.616057,113.481488 99.9659254,113.579773 L99.9659254,151.402303 C96.0186741,150.151413 91.9026521,149.516041 87.7628035,149.520012 C65.5545513,149.520012 47.5546487,167.511972 47.5546487,189.707318 C47.5546487,205.401018 56.552118,218.98806 69.6735517,225.606854 Z" fill="#FF004F"></path>
				<path d="M175.80259,92.8487613 C194.485518,106.192575 217.363889,114.044389 242.074913,114.044389 L242.074913,76.6308799 C228.281375,73.6942679 216.070311,66.4897401 206.889179,56.4687254 C191.173639,46.6671128 179.851103,30.4968842 176.531282,11.5707278 L141.8876,11.5707278 L141.8876,201.414056 C141.809172,223.545865 123.839052,241.466346 101.678453,241.466346 C88.6195635,241.466346 77.0180599,235.24466 69.6705734,225.606854 C56.5501325,218.98806 47.5526631,205.400025 47.5526631,189.708311 C47.5526631,167.51495 65.5525657,149.521004 87.760818,149.521004 C92.0158278,149.521004 96.1169583,150.183182 99.9639399,151.403295 L99.9639399,113.580765 C52.272289,114.565593 13.9166419,153.513923 13.9166419,201.415048 C13.9166419,225.326893 23.4680767,247.004014 38.9701714,262.842657 C52.9553144,272.228299 69.7906985,277.70243 87.9037768,277.70243 C136.449209,277.70243 175.803582,238.367912 175.803582,189.846306 L175.803582,92.8487613 L175.80259,92.8487613 Z" fill="#000000"></path>
				<path d="M242.074913,76.6308799 L242.074913,66.5145593 C229.636505,66.5334219 217.442318,63.0517795 206.889179,56.4677326 C216.231139,66.6902795 228.532545,73.7389425 242.074913,76.6308799 Z M176.531282,11.5707278 C176.214589,9.76190185 175.971361,7.9411627 175.80259,6.11347418 L175.80259,0 L127.968973,0 L127.968973,189.845313 C127.89253,211.974144 109.923403,229.894625 87.760818,229.894625 C81.2542071,229.894625 75.1109499,228.350869 69.6705734,225.607847 C77.0180599,235.24466 88.6195635,241.465353 101.678453,241.465353 C123.837066,241.465353 141.810164,223.546857 141.8876,201.415048 L141.8876,11.5707278 L176.531282,11.5707278 Z M99.9659254,113.580765 L99.9659254,102.811203 C95.9690357,102.265179 91.9393845,101.991175 87.9047695,101.99315 C39.3553659,101.99315 0,141.326686 0,189.845313 C0,220.263769 15.4673478,247.071522 38.9711641,262.840672 C23.4690694,247.003021 13.9176347,225.324907 13.9176347,201.414056 C13.9176347,153.513923 52.272289,114.565593 99.9659254,113.580765 Z" fill="#00F2EA"></path>
		</g>
</svg>
