<?xml version="1.0" encoding="UTF-8" standalone="no"?>
<svg width="256px" height="307px" viewBox="0 0 256 307" version="1.1" xmlns="http://www.w3.org/2000/svg" xmlns:xlink="http://www.w3.org/1999/xlink" preserveAspectRatio="xMidYMid">
    <g>
        <path d="M26.4093561,241.05844 C37.8806238,254.658722 57.4624783,267.923713 69.8210392,262.918839 C82.1802098,257.916133 87.1887892,221.326923 82.7596251,216.453908 C78.3304611,211.580892 54.663941,171.928749 36.2581158,177.6606 C17.8523814,183.392191 14.9380884,227.458159 26.4093561,241.05844 L26.4093561,241.05844 Z" fill="#C00000"></path>
        <path d="M30.9136655,140.047477 C42.1430065,158.72045 75.4676988,182.301306 96.8847574,173.916424 C118.301538,165.531386 103.64799,136.138704 91.780881,116.675364 C90.0667773,113.864272 89.3296528,102.03343 81.7181537,91.9017596 C74.1066546,81.7700891 62.0278916,75.1847066 52.8877272,78.2451066 C26.9699184,86.9228719 19.4423978,126.447196 30.9136655,140.047477 L30.9136655,140.047477 Z" fill="#C00000"></path>
        <path d="M127.12069,132.183371 C138.591897,145.783436 140.855109,159.747465 158.599964,159.067592 C176.344819,158.387719 189.955812,116.272769 189.461948,99.2216792 C188.967868,82.1706501 172.659983,43.6645126 143.879268,51.8293134 C115.098275,59.9939582 113.98507,94.8627689 127.12069,132.183371 L127.12069,132.183371 Z" fill="#C00000"></path>
        <path d="M197.259881,185.862996 C200.445891,202.626595 213.74783,214.320861 233.497737,208.906326 C253.247169,203.494264 258.427771,152.676859 253.997306,147.804209 C249.56901,142.930949 240.73243,117.459287 222.325677,123.191165 C203.920069,128.922955 190.233657,164.340425 197.259881,185.862996 L197.259881,185.862996 Z" fill="#C00000"></path>
        <path d="M96.0676019,303.560093 C122.87733,314.192338 132.226337,286.339304 161.822626,278.154165 C191.419133,269.968965 216.769931,283.332607 225.353511,257.070656 C236.35472,223.411018 209.355324,228.460589 187.695785,213.529404 C166.036063,198.597568 171.586036,181.499752 138.126343,189.5557 C102.050659,198.241591 120.332409,234.343995 106.326041,247.552212 C85.9890712,266.731557 79.5284856,296.99931 96.0676019,303.560093 L96.0676019,303.560093 Z" fill="#C00000"></path>
        <path d="M1.66749887,166.619745 C3.98203937,172.98371 15.0340804,179.162787 20.7502434,176.637755 C26.4664064,174.112723 26.2232125,167.563029 23.5599061,159.543096 C20.8966607,151.523379 8.18571314,141.412535 3.76188053,143.213415 C-0.662034742,145.014085 -0.647040755,160.25578 1.66749887,166.619745 L1.66749887,166.619745 Z" fill="#C00000"></path>
        <path d="M28.4483856,62.6554474 C30.7628867,69.0194234 33.903331,80.347739 42.8721026,76.9082513 C51.8408131,73.4685468 54.6132267,67.2412362 51.9499203,59.2213025 C49.2863971,51.2014298 38.4393166,39.3968538 34.0154847,41.19757 C29.5916589,42.998308 26.1338846,56.2914715 28.4483856,62.6554474 L28.4483856,62.6554474 Z" fill="#C00000"></path>
        <path d="M129.079265,27.3437219 C131.393766,33.7076978 143.123204,44.3762175 148.83928,41.8512096 C154.555296,39.3259849 157.429872,27.2200895 154.766565,19.2001558 C152.103072,11.1803915 139.86689,-1.40374622 135.443062,0.396986298 C131.019235,2.1977189 126.764752,20.9797025 129.079265,27.3437219 L129.079265,27.3437219 Z" fill="#C00000"></path>
        <path d="M215.147974,106.688478 C217.462475,113.052454 221.552035,119.43404 227.268545,116.908911 C232.98391,114.383869 239.466057,108.868543 236.804052,100.848243 C234.139878,92.8285535 227.885167,74.4679553 223.459148,76.2692162 C219.035359,78.0700843 212.833473,100.324502 215.147974,106.688478 L215.147974,106.688478 Z" fill="#C00000"></path>
    </g>
</svg>