<?xml version="1.0" encoding="UTF-8"?>
<svg width="256px" height="279px" viewBox="0 0 256 279" version="1.1" xmlns="http://www.w3.org/2000/svg" preserveAspectRatio="xMidYMid">
    <title>Treehouse</title>
    <g>
        <path d="M225.627119,50.9830508 C216.081356,45.7762712 201.328814,54.4542373 192.650847,70.0745763 L176.162712,97.8440678 C170.088136,109.125424 170.955932,123.010169 178.766102,134.291525 L179.633898,135.159322 C187.444068,145.572881 196.989831,155.986441 200.461017,159.457627 C202.19661,161.19322 203.932203,163.79661 204.8,167.267797 C207.40339,176.813559 202.19661,187.227119 191.783051,189.830508 C182.237288,192.433898 171.823729,187.227119 169.220339,176.813559 C168.352542,174.210169 168.352542,171.60678 168.352542,169.871186 C169.220339,165.532203 167.484746,159.457627 161.410169,152.515254 C155.335593,146.440678 144.054237,158.589831 139.715254,170.738983 L139.715254,171.60678 C136.244068,183.755932 133.640678,195.037288 134.508475,195.905085 C134.508475,196.772881 135.376271,196.772881 135.376271,197.640678 C140.583051,208.054237 137.111864,220.20339 126.698305,225.410169 C116.284746,230.616949 104.135593,227.145763 98.9288136,216.732203 C93.7220339,206.318644 97.1932203,194.169492 107.60678,188.962712 C108.474576,188.962712 108.474576,188.094915 109.342373,188.094915 C110.210169,188.094915 111.945763,182.888136 114.549153,175.945763 C116.284746,169.871186 117.152542,167.267797 118.020339,164.664407 C118.888136,161.19322 120.623729,152.515254 119.755932,149.044068 C118.888136,144.705085 114.549153,144.705085 110.210169,147.308475 C107.60678,149.044068 102.4,153.383051 100.664407,155.118644 C96.3254237,158.589831 92.8542373,163.79661 91.1186441,168.135593 C90.2508475,169.871186 88.5152542,172.474576 86.779661,174.210169 C78.9694915,180.284746 67.6881356,179.416949 60.7457627,171.60678 C54.6711864,163.79661 55.5389831,152.515254 63.3491525,145.572881 C65.9525424,143.837288 68.5559322,142.101695 71.159322,142.101695 C75.4983051,141.233898 91.1186441,131.688136 100.664407,124.745763 C102.4,123.877966 105.00339,121.274576 105.871186,120.40678 C108.474576,116.935593 105.871186,114.332203 103.267797,114.332203 C95.4576271,115.2 86.779661,116.067797 85.0440678,118.671186 C84.1762712,119.538983 83.3084746,121.274576 81.5728814,122.142373 C74.6305085,127.349153 64.2169492,125.613559 59.0101695,118.671186 C53.8033898,111.728814 55.5389831,101.315254 62.4813559,96.1084746 C65.0847458,93.5050847 69.4237288,92.6372881 72.0271186,92.6372881 C78.1016949,92.6372881 93.7220339,96.1084746 105.871186,93.5050847 L109.342373,92.6372881 C122.359322,90.0338983 137.979661,78.7525424 144.054237,67.4711864 C144.054237,67.4711864 150.128814,57.0576271 157.071186,44.040678 C164.881356,31.0237288 164.013559,16.2711864 156.20339,11.9322034 L141.450847,3.25423729 C133.640678,-1.08474576 122.359322,-1.08474576 114.549153,3.25423729 L13.8847458,60.5288136 C6.07457627,64.8677966 0,75.2813559 0,83.959322 L0,195.037288 C0,203.715254 6.07457627,214.128814 13.8847458,218.467797 L114.549153,275.742373 C122.359322,280.081356 134.508475,280.081356 141.450847,275.742373 L242.115254,218.467797 C249.925424,214.128814 256,203.715254 256,195.037288 L256,83.959322 C256,75.2813559 249.925424,64.8677966 242.115254,60.5288136 C242.115254,60.5288136 235.172881,56.1898305 225.627119,50.9830508 Z" fill="#5FCF80"></path>
    </g>
</svg>
