<?xml version="1.0" encoding="UTF-8" standalone="no"?>
<svg width="256px" height="319px" viewBox="0 0 256 319" version="1.1" xmlns="http://www.w3.org/2000/svg" xmlns:xlink="http://www.w3.org/1999/xlink" preserveAspectRatio="xMidYMid">
    <defs>
        <radialGradient cx="50.0000496%" cy="50.0000332%" fx="50.0000496%" fy="50.0000332%" r="47.8362447%" id="radialGradient-1">
            <stop stop-color="#3F2600" stop-opacity="0.6" offset="0%"></stop>
            <stop stop-color="#3F2600" stop-opacity="0" offset="100%"></stop>
        </radialGradient>
        <linearGradient x1="49.1806341%" y1="51.3240722%" x2="49.482218%" y2="49.8225841%" id="linearGradient-2">
            <stop stop-color="#FFEED7" offset="0%"></stop>
            <stop stop-color="#BDBFC2" offset="100%"></stop>
        </linearGradient>
        <linearGradient x1="49.1522799%" y1="2.01930399%" x2="47.2854685%" y2="90.1259498%" id="linearGradient-3">
            <stop stop-color="#FFFFFF" stop-opacity="0.8" offset="0%"></stop>
            <stop stop-color="#FFFFFF" stop-opacity="0" offset="100%"></stop>
        </linearGradient>
        <linearGradient x1="46.2010833%" y1="56.6754034%" x2="49.2153656%" y2="42.8923874%" id="linearGradient-4">
            <stop stop-color="#FFEED7" offset="0%"></stop>
            <stop stop-color="#BDBFC2" offset="100%"></stop>
        </linearGradient>
        <linearGradient x1="51.7302694%" y1="62.9299633%" x2="49.8439843%" y2="36.7178801%" id="linearGradient-5">
            <stop stop-color="#FFEED7" offset="0%"></stop>
            <stop stop-color="#BDBFC2" offset="100%"></stop>
        </linearGradient>
        <linearGradient x1="46.5577467%" y1="40.3929389%" x2="41.366084%" y2="58.8420744%" id="linearGradient-6">
            <stop stop-color="#FFFFFF" stop-opacity="0.65" offset="0%"></stop>
            <stop stop-color="#FFFFFF" stop-opacity="0" offset="100%"></stop>
        </linearGradient>
        <linearGradient x1="70.3464893%" y1="44.3764752%" x2="64.5532702%" y2="55.6239697%" id="linearGradient-7">
            <stop stop-color="#FFFFFF" stop-opacity="0.65" offset="0%"></stop>
            <stop stop-color="#FFFFFF" stop-opacity="0" offset="100%"></stop>
        </linearGradient>
        <linearGradient x1="50.0001016%" y1="89.8429335%" x2="50.0001016%" y2="40.624951%" id="linearGradient-8">
            <stop stop-color="#FFEED7" offset="0%"></stop>
            <stop stop-color="#BDBFC2" offset="100%"></stop>
        </linearGradient>
        <linearGradient x1="43.5688332%" y1="52.0143154%" x2="45.3990291%" y2="48.8912499%" id="linearGradient-9">
            <stop stop-color="#FFEED7" offset="0%"></stop>
            <stop stop-color="#BDBFC2" offset="100%"></stop>
        </linearGradient>
        <linearGradient x1="50.0000219%" y1="13.1708198%" x2="50.1761354%" y2="94.6342604%" id="linearGradient-10">
            <stop stop-color="#FFFFFF" stop-opacity="0.8" offset="0%"></stop>
            <stop stop-color="#FFFFFF" stop-opacity="0" offset="100%"></stop>
        </linearGradient>
        <linearGradient x1="50.2887232%" y1="37.4359308%" x2="50.577614%" y2="92.8205132%" id="linearGradient-11">
            <stop stop-color="#FFFFFF" stop-opacity="0.65" offset="0%"></stop>
            <stop stop-color="#FFFFFF" stop-opacity="0" offset="100%"></stop>
        </linearGradient>
        <linearGradient x1="49.9997864%" y1="2.34365659%" x2="49.9997864%" y2="81.2500506%" id="linearGradient-12">
            <stop stop-color="#FFFFFF" stop-opacity="0.65" offset="0%"></stop>
            <stop stop-color="#FFFFFF" stop-opacity="0" offset="100%"></stop>
        </linearGradient>
        <linearGradient x1="57.1519768%" y1="49.4487657%" x2="57.1424891%" y2="50.2530269%" id="linearGradient-13">
            <stop stop-color="#FFFFFF" stop-opacity="0.65" offset="0%"></stop>
            <stop stop-color="#FFFFFF" stop-opacity="0" offset="100%"></stop>
        </linearGradient>
        <linearGradient x1="59.8139496%" y1="51.0597771%" x2="46.6027671%" y2="100.240184%" id="linearGradient-14">
            <stop stop-color="#FFA63F" offset="0%"></stop>
            <stop stop-color="#FFFF00" offset="100%"></stop>
        </linearGradient>
        <linearGradient x1="77.5466495%" y1="129.340845%" x2="30.8869473%" y2="-67.5296041%" id="linearGradient-15">
            <stop stop-color="#FFEED7" offset="0%"></stop>
            <stop stop-color="#BDBFC2" offset="100%"></stop>
        </linearGradient>
        <linearGradient x1="50.0867489%" y1="34.2853557%" x2="41.1680023%" y2="100.443414%" id="linearGradient-16">
            <stop stop-color="#FFA63F" offset="0%"></stop>
            <stop stop-color="#FFFF00" offset="100%"></stop>
        </linearGradient>
        <linearGradient x1="-30.5094892%" y1="13.5906661%" x2="15.6323175%" y2="90.1734999%" id="linearGradient-17">
            <stop stop-color="#FFFFFF" stop-opacity="0.65" offset="0%"></stop>
            <stop stop-color="#FFFFFF" stop-opacity="0" offset="100%"></stop>
        </linearGradient>
        <linearGradient x1="43.3978659%" y1="9.31750559%" x2="48.7054734%" y2="94.7586048%" id="linearGradient-18">
            <stop stop-color="#FFFFFF" stop-opacity="0.65" offset="0%"></stop>
            <stop stop-color="#FFFFFF" stop-opacity="0" offset="100%"></stop>
        </linearGradient>
        <linearGradient x1="48.3265873%" y1="-3.61565237%" x2="68.8681676%" y2="75.8577744%" id="linearGradient-19">
            <stop stop-color="#FFFFFF" stop-opacity="0.65" offset="0%"></stop>
            <stop stop-color="#FFFFFF" stop-opacity="0" offset="100%"></stop>
        </linearGradient>
        <linearGradient x1="50.0000781%" y1="17.6310424%" x2="50.1592249%" y2="99.3388942%" id="linearGradient-20">
            <stop stop-color="#FFA63F" offset="0%"></stop>
            <stop stop-color="#FFFF00" offset="100%"></stop>
        </linearGradient>
        <linearGradient x1="50.9583583%" y1="3.11908286%" x2="50.8787535%" y2="94.5308038%" id="linearGradient-21">
            <stop stop-color="#FFFFFF" stop-opacity="0.65" offset="0%"></stop>
            <stop stop-color="#FFFFFF" stop-opacity="0" offset="100%"></stop>
        </linearGradient>
    </defs>
	<g transform="translate(-6.000000, 0.000000)">
		<g>
			<path d="M267.425061,282.563813 C267.425061,302.331855 207.579561,318.35702 133.756394,318.35702 C59.9332274,318.35702 0.0877262258,302.331855 0.0877262258,282.563813 C0.0877262258,262.795771 59.9332274,246.770606 133.756394,246.770606 C207.579561,246.770606 267.425061,262.795771 267.425061,282.563813 L267.425061,282.563813 L267.425061,282.563813 Z" fill="url(#radialGradient-1)"></path>
			<path d="M60.5714961,244.063531 C47.6306423,225.437788 45.1069794,164.883171 75.3036536,127.631685 C90.2664434,109.760267 94.0837295,97.3055328 95.2634812,80.5843866 C96.0663598,61.5216559 81.7810168,4.60744798 135.657696,0.271094355 C190.226851,-4.08260007 187.296258,49.7848309 186.98239,78.2902 C186.721699,102.359217 204.654966,116.001217 216.921841,134.760484 C239.626139,169.228195 237.705935,228.574159 212.645024,260.696239 C180.901551,300.908376 153.713505,283.469321 135.657696,284.932884 C101.847201,286.783723 100.729298,304.811788 60.5714961,244.063531 L60.5714961,244.063531 L60.5714961,244.063531 Z" fill="#000000"></path>
			<path d="M190.672343,235.284873 C200.337427,226.896125 225.949325,188.660291 187.837853,163.431078 C174.399764,154.640975 201.162473,123.055419 213.145318,139.019993 C234.278222,167.66957 219.05705,211.992458 205.464347,227.657 C196.220771,238.771732 182.447195,242.806703 190.672343,235.284873 L190.672343,235.284873 L190.672343,235.284873 Z" fill="url(#linearGradient-2)"></path>
			<path d="M230.014667,132.987691 C214.565915,145.471257 186.437007,189.42057 227.464052,217.967822 C240.93856,226.86845 215.523172,254.933751 201.251983,240.578037 C151.633679,190.677593 202.546685,133.298424 220.072854,113.572176 C235.736485,96.4170493 249.611271,117.62509 230.014667,132.987691 L230.014667,132.987691 L230.014667,132.987691 Z" stroke="#000000" stroke-width="1.56611171" fill="#000000" transform="translate(209.874547, 175.893670) scale(-1, 1) translate(-209.874547, -175.893670) "></path>
			<path d="M167.526238,27.4763991 C168.047902,36.7150205 162.010899,45.6185889 151.689312,50.8332161 C141.367724,56.0478434 128.329648,56.7813035 117.486398,52.7573093 C106.643148,48.733315 99.6420735,40.5632068 99.1204114,31.3245854 C98.313991,17.0429145 112.973424,4.60388682 131.863171,3.54123951 C150.752919,2.47859221 166.719817,13.1947281 167.526238,27.4763991 L167.526238,27.4763991 L167.526238,27.4763991 Z" fill="url(#linearGradient-3)"></path>
			<path d="M122.271691,61.5136696 C122.809076,70.8250398 118.37136,78.6565167 112.359777,79.005763 C106.348192,79.3550091 101.039206,72.089772 100.501821,62.7784018 C100.154195,56.7550014 101.907631,51.0686216 105.101629,47.8612667 C108.295626,44.6539117 112.44494,44.4128551 115.986563,47.2289006 C119.528187,50.044946 121.924064,55.4902692 122.271691,61.5136696 L122.271691,61.5136696 L122.271691,61.5136696 Z" fill="url(#linearGradient-4)"></path>
			<path d="M133.237844,62.2268697 C132.943688,51.4640805 139.484508,42.553686 147.847173,42.3249467 C156.209838,42.0962073 163.227578,50.6357419 163.521733,61.3985312 C163.712017,68.3608351 161.001809,74.8732094 156.412018,78.4825056 C151.822227,82.091802 146.05015,82.2496825 141.270074,78.8966749 C136.489997,75.5436675 133.428129,69.1891736 133.237844,62.2268697 L133.237844,62.2268697 L133.237844,62.2268697 Z" fill="url(#linearGradient-5)"></path>
			<path d="M140.164071,64.6600742 C140.176715,58.7506473 143.26958,53.9667054 147.072178,53.9748411 C150.874777,53.9829769 153.947144,58.7801092 153.934502,64.6895362 C153.926322,68.5122652 152.606451,72.0418046 150.472068,73.9486114 C148.337686,75.8554181 145.713057,75.8498026 143.586853,73.9338804 C141.46065,72.0179581 140.155892,68.4828032 140.164071,64.6600742 L140.164071,64.6600742 L140.164071,64.6600742 Z" fill="#000000"></path>
			<path d="M115.982685,64.7191628 C116.566825,69.6215139 114.849025,73.8677342 112.145869,74.2033612 C109.442715,74.538988 106.777835,70.8369266 106.193695,65.9345754 C105.815822,62.7633102 106.399538,59.7171121 107.724964,57.9434545 C109.050389,56.1697969 110.91616,55.9381407 112.619458,57.3357482 C114.322757,58.7333559 115.604812,61.5478976 115.982685,64.7191628 L115.982685,64.7191628 L115.982685,64.7191628 Z" fill="#000000"></path>
			<path d="M141.760575,61.2810392 C142.010291,57.9740002 144.005075,55.429838 146.216051,55.5984939 C148.427028,55.7671499 150.016944,58.5847574 149.767228,61.8917964 C149.605691,64.0310755 148.693394,65.949646 147.373991,66.9248012 C146.05459,67.8999564 144.52853,67.7835466 143.370665,66.6194226 C142.2128,65.4552986 141.599037,63.4203183 141.760575,61.2810392 L141.760575,61.2810392 L141.760575,61.2810392 Z" fill="url(#linearGradient-6)"></path>
			<path d="M113.701772,62.1276228 C114.013617,64.897409 112.945291,67.2962623 111.315599,67.4856117 C109.685905,67.6749611 108.111977,65.5831038 107.800132,62.8133175 C107.598402,61.0215801 107.974419,59.3005999 108.786542,58.2986539 C109.598665,57.2967077 110.723512,57.1660151 111.737364,57.9558065 C112.751215,58.7455978 113.500042,60.3358852 113.701772,62.1276228 L113.701772,62.1276228 L113.701772,62.1276228 Z" fill="url(#linearGradient-7)"></path>
			<path d="M80.8457702,164.645602 C88.2653162,147.823302 104.032719,118.27286 104.368552,95.4223229 C104.368552,77.2480186 158.806495,72.9076187 163.175218,91.0535999 C167.543942,109.19958 178.632221,136.41884 185.689344,149.524433 C192.74589,162.629447 213.324206,204.260637 191.402557,240.59017 C171.658911,272.753869 111.793879,298.199744 79.8376922,236.222027 C69.0846681,214.715399 71.0025596,188.063761 80.8457702,164.645602 L80.8457702,164.645602 L80.8457702,164.645602 Z" fill="url(#linearGradient-8)"></path>
			<path d="M72.3344833,152.315486 C66.3407046,164.438631 53.8772706,196.322148 84.3818507,213.766051 C117.218886,232.285868 117.11237,270.40198 77.7039284,252.266469 C41.6763945,235.874246 57.5051534,169.634623 67.5538759,153.785739 C74.1416314,142.685231 84.0259405,129.097891 72.3344833,152.315486 L72.3344833,152.315486 L72.3344833,152.315486 Z" fill="url(#linearGradient-9)"></path>
			<path d="M79.5804704,138.562163 C69.4852404,155.040539 45.2590002,193.944601 77.6799199,214.123501 C121.360792,240.917912 108.993341,267.712901 69.1257081,243.587815 C12.9941478,209.909688 62.2905465,142.077141 84.8081407,116.226646 C110.497943,87.2097246 89.7525781,121.479173 79.5804704,138.562163 L79.5804704,138.562163 L79.5804704,138.562163 Z" stroke="#000000" stroke-width="1.5625" fill="#000000"></path>
			<path d="M177.961916,171.030946 C177.961916,189.394983 160.336839,213.250328 130.077006,213.03616 C98.8706483,213.293955 85.5512877,189.394983 85.5512877,171.030946 C85.5512877,152.666909 106.251361,137.762985 131.756903,137.762985 C157.261844,137.762985 177.961916,152.666909 177.961916,171.030946 L177.961916,171.030946 L177.961916,171.030946 Z" fill="url(#linearGradient-10)"></path>
			<path d="M161.495383,113.233302 C161.159517,132.26628 148.774169,136.756093 133.100403,136.756093 C117.426088,136.756093 106.048887,133.946445 104.704872,113.233302 C104.704872,100.248914 117.426088,92.7348055 133.100403,92.7348055 C148.774169,92.7348055 161.495383,100.248914 161.495383,113.233302 L161.495383,113.233302 L161.495383,113.233302 Z" fill="url(#linearGradient-11)"></path>
			<path d="M66.7321009,142.466731 C76.9724157,126.862332 98.5322203,102.950538 70.7649907,145.826798 C48.2502866,181.11126 62.4396772,203.787234 69.7569128,210.010266 C90.870481,228.831958 89.9681819,241.425419 73.4533912,231.516313 C37.8325178,210.345521 45.2254748,174.726381 66.7321009,142.466731 L66.7321009,142.466731 L66.7321009,142.466731 Z" fill="url(#linearGradient-12)"></path>
			<path d="M214.924761,148.851033 C206.069975,130.527019 177.853619,84.168728 216.26925,138.098008 C251.217301,186.823895 226.686441,220.763289 222.317718,224.123935 C217.949572,227.484002 203.163659,234.204714 207.532382,222.443613 C211.900526,210.682509 233.678825,188.355664 214.924761,148.851033 L214.924761,148.851033 L214.924761,148.851033 Z" fill="url(#linearGradient-13)"></path>
			<path d="M59.0038887,293.011381 C35.6273473,280.632367 1.63361805,295.39516 13.9744805,261.759807 C16.4461212,254.107894 10.2895626,242.680314 14.3103138,235.21337 C19.0148702,226.139513 29.0962277,228.156246 35.1452734,222.107201 C41.1093491,215.811916 44.8902195,204.969298 55.9796549,206.64962 C67.0685123,208.329942 74.4447064,221.944776 82.1896814,238.573438 C87.9023158,250.502745 108.166764,267.280537 106.842505,280.629478 C105.284147,301.149413 81.9717655,305.016409 59.0038887,293.011381 L59.0038887,293.011381 L59.0038887,293.011381 Z" stroke="#E68C3F" stroke-width="7.8125" fill="url(#linearGradient-14)"></path>
			<path d="M227.536011,215.601678 C223.532428,221.994715 207.780818,232.067058 197.720077,229.332718 C187.44947,226.647801 183.44184,212.081218 185.985196,201.099806 C188.446862,188.729947 199.621635,188.200213 213.317053,194.416655 C228.032074,201.294251 232.308577,207.124748 227.536011,215.601678 L227.536011,215.601678 L227.536011,215.601678 Z" fill="url(#linearGradient-15)"></path>
			<path d="M196.312213,208.804855 C221.214619,214.020929 245.065818,184.317385 244.958032,225.335854 C244.985129,234.080061 254.373594,243.812244 253.267061,252.938015 C252.078841,263.961158 242.541136,265.314823 239.237982,273.731147 C236.085894,282.368656 234.946932,294.2278 224.855992,296.571158 C214.765549,298.914302 205.410216,288.304384 193.478568,274.103281 C184.784015,263.972836 162.8995,254.295558 159.822659,240.130678 C154.681495,218.531452 172.806204,204.143378 196.312213,208.804855 L196.312213,208.804855 L196.312213,208.804855 Z" stroke="#E68C3F" stroke-width="7.81591272" fill="url(#linearGradient-16)"></path>
			<path d="M202.649671,217.282012 C243.91847,232.897169 230.909711,248.474211 228.429938,256.570972 C226.067605,264.882458 225.272107,276.319943 217.541182,278.499639 C209.810638,280.679134 202.558295,270.361974 193.304319,256.557525 C186.562425,246.708546 169.840955,237.148778 167.241841,223.492189 C164.330569,207.427582 184.817116,210.686125 202.649671,217.282012 L202.649671,217.282012 L202.649671,217.282012 Z" fill="url(#linearGradient-17)"></path>
			<path d="M54.6026571,266.04453 C14.0916843,239.649878 31.654639,230.686712 37.2734504,226.540062 C43.9891087,221.222114 43.3690861,210.858642 52.1100553,211.824954 C60.8505726,212.791292 66.633693,224.021159 73.3926952,237.968854 C78.3638661,247.968125 94.0487495,261.182093 93.7402191,272.720552 C93.2213586,286.243171 72.1419456,277.331762 54.6026571,266.04453 L54.6026571,266.04453 L54.6026571,266.04453 Z" fill="url(#linearGradient-18)"></path>
			<path d="M225.446878,214.807049 C222.296137,220.010811 209.307437,228.268307 200.651207,226.116019 C191.818594,224.005075 187.840927,212.230115 189.570613,203.318551 C191.176334,193.282759 200.650933,192.783974 212.532423,197.734348 C225.306266,203.213946 229.169164,207.910395 225.446878,214.807049 L225.446878,214.807049 L225.446878,214.807049 Z" fill="#000000"></path>
			<path d="M217.501541,211.498035 C215.319958,215.043964 206.397314,220.638594 200.491935,219.131896 C194.465768,217.652761 191.810005,209.584395 193.040117,203.497151 C194.191524,196.6406 200.670512,196.337648 208.765494,199.770813 C217.467601,203.56948 220.082877,206.796716 217.501541,211.498035 L217.501541,211.498035 L217.501541,211.498035 Z" fill="url(#linearGradient-19)"></path>
			<path d="M110.470777,74.4064411 C114.601931,70.4932028 124.812188,58.7615801 143.97376,71.0798995 C147.53556,73.3977851 150.425691,73.6099208 157.280506,76.5451386 C170.994759,82.1803173 164.437628,95.7697167 149.914138,100.306646 C143.69573,102.323379 138.043789,109.876449 126.71852,109.230794 C117.045826,108.666063 114.51118,102.367309 108.569648,98.8806545 C98.0096843,92.9206249 96.4513254,84.8612035 102.153555,80.5843866 C107.856363,76.3075698 110.086967,74.7700196 110.470777,74.4064411 L110.470777,74.4064411 L110.470777,74.4064411 Z" stroke="#E68C3F" stroke-width="4.6875" fill="url(#linearGradient-20)"></path>
			<path d="M157.462583,85.3403874 C151.74995,85.6762207 139.316603,98.1095673 126.211011,98.1095673 C113.105421,98.1095673 105.376631,86.012054 103.360474,86.012054" stroke="#E68C3F" stroke-width="3.125" fill="#000000"></path>
			<path d="M116.983962,73.3338085 C119.059074,71.469022 125.604662,66.3517396 134.285174,71.5907703 C136.114072,72.6281094 138.00278,73.7571729 140.8116,75.2994091 C146.375234,78.5353781 143.619548,83.1987215 136.954046,86.1493259 C133.929208,87.3874671 128.942495,90.1199162 125.145333,89.9287549 C120.925716,89.5409235 118.195871,86.7889174 115.399246,84.9965739 C110.26881,81.6077308 110.580353,78.8714254 112.963523,76.5931906 C114.765128,75.0289185 116.791171,73.5070655 116.983962,73.3338085 L116.983962,73.3338085 L116.983962,73.3338085 Z" fill="url(#linearGradient-21)"></path>
		</g>
	</g>
</svg>