<?xml version="1.0" encoding="UTF-8"?>
<svg width="512px" height="193px" viewBox="0 0 512 193" version="1.1" xmlns="http://www.w3.org/2000/svg" xmlns:xlink="http://www.w3.org/1999/xlink" preserveAspectRatio="xMidYMid">
    <title>udemy</title>
    <g>
        <polygon fill="#A435F0" points="79.5391471 45.9232428 39.7639124 22.9616214 0 45.9232428 0 22.9616214 39.7695735 0 79.5448082 22.9616214 79.5448082 45.9232428"></polygon>
        <path d="M0,65.2051171 L20.8330293,65.2051171 L20.8330293,115.821453 C20.8330293,128.898707 30.5985117,135.273162 39.7695735,135.273162 C49.0198914,135.273162 58.7117789,128.728873 58.7117789,115.645957 L58.7117789,65.2051171 L79.5448082,65.2051171 L79.5448082,117.027277 C79.5448082,129.074203 75.7574994,138.36981 68.1828817,144.744264 C60.6026028,151.113057 51.1371612,154.215367 39.5940779,154.215367 C28.0623169,154.215367 18.5912142,151.118718 11.1920921,144.744264 C3.78730885,138.375471 0,129.425194 0,117.542442 L0,65.2051171 Z M259.654272,128.111808 C253.347752,133.727668 246.163753,136.478986 237.97207,136.478986 C223.026636,136.478986 213.006402,127.964618 211.874172,114.779801 L279.185237,114.779801 C279.185237,114.779801 279.638129,110.522617 279.638129,106.525846 C279.638129,94.1279287 275.675324,83.7963313 267.579881,75.3612189 C259.665594,66.9261065 249.339658,62.7934676 236.766245,62.7934676 C223.513495,62.7934676 212.661072,66.9261065 204.050464,75.3612189 C195.615351,83.7963313 191.312878,94.8129278 191.312878,108.592165 L191.312878,109.271503 C191.312878,122.875245 195.615351,133.722007 204.050464,141.81745 C212.485576,149.907232 223.677668,154.039871 237.28141,154.039871 C253.098661,154.039871 265.683396,147.801285 275.126193,137.045101 L259.654272,128.111808 Z M220.060194,85.8626508 C224.702336,82.2451764 230.391791,80.3543526 236.760584,80.3543526 C242.784047,80.3543526 247.777181,82.2451764 252.085315,86.0381464 C256.19531,89.4914475 258.41448,93.7316483 258.606959,98.6058978 L212.40632,98.6058978 C213.074336,93.5674749 215.621853,89.321613 220.065855,85.8683119 L220.060194,85.8626508 Z M469.365885,165.735806 C460.913789,185.691357 452.071074,192.479075 438.512621,192.479075 L429.115114,192.479075 L429.115114,174.012406 L436.712376,174.012406 C441.377163,174.012406 445.713603,172.25745 449.846242,162.724074 L453.978881,153.179377 L418.336286,65.2051171 L439.514645,65.2051171 L464.825643,128.5647 L490.827302,65.2051171 L512,65.2051171 L469.371546,165.735806 L469.365885,165.735806 Z M160.646432,31.9798322 L160.646432,73.0627923 C153.819086,66.9487511 143.19877,63.3086321 132.929446,63.3086321 C120.701363,63.3086321 110.375427,67.6111056 101.940315,76.3858869 C93.6750368,84.996495 89.5423978,95.6677613 89.5423978,108.580843 C89.5423978,121.499585 93.6750368,132.170852 101.940315,140.951294 C110.375427,149.561902 120.707024,153.870037 132.929446,153.870037 C147.025707,153.870037 155.936356,148.327772 160.646432,143.98567 L160.646432,151.973552 L181.309627,151.973552 L181.309627,31.9854933 L160.646432,31.9854933 L160.646432,31.9798322 Z M154.447474,127.528709 C149.45434,132.521843 143.085547,135.108988 135.680764,135.108988 C128.275981,135.108988 122.252518,132.521843 117.259385,127.528709 C112.447408,122.535576 110.030097,116.166783 110.030097,108.592165 C110.030097,101.011886 112.441747,94.6430933 117.259385,89.6499596 C122.252518,84.656826 128.275981,82.0753419 135.680764,82.0753419 C143.085547,82.0753419 149.45434,84.656826 154.447474,89.6499596 C159.610442,94.6430933 162.203249,101.011886 162.203249,108.592165 C162.203249,116.166783 159.610442,122.535576 154.447474,127.528709 Z M386.214925,63.4841278 C370.522219,63.4841278 362.364503,69.9944494 356.776949,76.2670028 C354.540795,72.0041574 348.245597,63.4841278 333.537931,63.4841278 C321.106047,63.4841278 313.78052,69.7680034 310.123417,74.2403114 L310.123417,65.2164394 L289.641379,65.2164394 L289.641379,151.984874 L310.123417,151.984874 L310.123417,102.053538 C310.123417,90.346281 317.358366,81.9111686 326.993642,81.9111686 C336.815736,81.9111686 342.493869,89.3159518 342.493869,101.193043 L342.493869,151.979213 L362.981568,151.979213 L362.981568,102.047877 C362.981568,90.1707854 370.03536,81.9055075 380.191462,81.9055075 C390.007895,81.9055075 395.686027,89.3102907 395.686027,101.181721 L395.686027,151.973552 L416.349222,151.973552 L416.349222,98.2605677 C416.349222,75.6386152 404.189074,63.4897889 386.214925,63.4897889 L386.214925,63.4841278 Z" fill="#000000"></path>
    </g>
</svg>