<?xml version="1.0" encoding="UTF-8" standalone="no"?>
<svg width="256px" height="256px" viewBox="0 0 256 256" version="1.1" xmlns="http://www.w3.org/2000/svg" xmlns:xlink="http://www.w3.org/1999/xlink" preserveAspectRatio="xMidYMid">
    <g>
        <path d="M128.000675,0 C57.3056738,0 0,57.3073274 0,128.000002 C0,198.692678 57.3056738,256.000005 128.000675,256.000005 C198.695676,256.000005 256,198.692678 256,128.000002 C256,57.3073274 198.695676,0 128.000675,0 L128.000675,0 Z M92.6099657,218.026018 C94.0250539,208.914314 95.375329,200.539864 96.6378362,192.810848 C68.4467934,178.681495 50.581304,150.233749 55.1384823,117.358428 C61.356499,72.7086464 95.7358524,49.8105606 138.97031,53.7061248 C142.248778,49.0652048 145.847261,44.6119741 149.943995,40.3032235 C157.236831,32.1488692 168.084941,31.8923156 163.206397,41.5549351 C153.372344,60.1631743 149.486252,74.2115105 141.040281,96.7720257 C132.622667,120.766541 119.611416,155.984601 102.290088,217.819425 C101.037032,223.482509 92.1616743,222.57917 92.6099657,218.026018 L92.6099657,218.026018 Z M200.927681,136.030131 C195.306486,178.662591 155.458519,202.856948 115.846849,198.679175 C118.721585,188.958493 120.084012,184.813127 123.416491,176.977439 C125.930703,172.455344 135.343471,170.608158 142.65251,167.501158 C157.500135,162.164843 168.901857,148.913173 171.055546,132.189928 C172.571905,120.3331 169.108449,108.971826 162.319266,100.19094 C157.571699,94.165981 153.096888,90.5148179 154.625399,84.859836 C156.873607,77.2239901 158.599258,71.5568556 162.791862,61.9617502 C188.818414,75.941222 205.04332,104.97634 200.927681,136.030131 Z M85.0416739,121.179727 C83.5725746,132.584211 86.6782073,143.470186 92.9043256,152.05663 C97.0537209,157.599539 100.232268,160.830764 101.789136,163.374696 C106.91748,135.59804 110.619934,121.229687 115.552489,105.108668 C117.76424,98.3748107 121.427536,88.9295866 124.079476,82.4981924 C120.917132,83.5568137 116.430168,84.7342598 112.765522,86.1682595 C98.2500646,91.6112471 87.1548544,104.726538 85.0416739,121.179727 Z" fill="#278CC0"></path>
    </g>
</svg>
