<?xml version="1.0" encoding="UTF-8"?>
<svg width="256px" height="256px" viewBox="0 0 256 256" version="1.1" xmlns="http://www.w3.org/2000/svg" preserveAspectRatio="xMidYMid">
    <title>UnJS</title>
    <g>
        <path d="M255.148759,256.00121 C170.043882,256.00121 85.0318101,256.00121 0.0203337744,256.00121 C0.0135550496,255.978009 0,255.955608 0,255.932407 C0,170.625121 0,85.3186342 0,0 C85.3286243,0 170.658312,0 256,0 C256,85.3170342 256,170.645122 256,256.00121 C255.755988,256.00121 255.499176,256.00121 255.148759,256.00121 Z" fill="#ECDC5A"></path>
        <path d="M211.164252,167.347364 C213.753976,170.776328 214.897231,174.690115 215.378854,178.807113 C215.638867,181.028019 215.71487,183.280127 215.722871,185.517834 C215.758872,194.942286 215.731671,204.366737 215.743684,213.791188 C215.746072,215.961692 215.038838,217.719377 213.047542,218.793828 C209.916992,220.483509 206.092809,218.281804 206.024006,214.724833 C205.979204,212.450324 206.016806,210.175015 206.015206,207.900506 L206.011005,195.44801 C206.008005,191.297311 205.998405,187.146712 205.967203,182.996113 C205.944002,179.988769 205.371175,177.067829 203.697495,174.480505 C201.915009,171.722773 199.314885,170.229902 196.097931,169.863484 C189.492814,169.111448 184.031752,171.290753 179.81475,176.4518 C178.005864,178.667106 177.287429,181.268831 177.29063,184.105766 C177.30023,194.180649 177.30263,204.254732 177.28983,214.329614 C177.285029,217.840982 174.108877,220.149893 170.779918,219.101843 C168.881427,218.504214 167.631767,216.636925 167.574964,214.280012 C167.553363,213.363968 167.571764,212.447924 167.571764,211.53188 C167.571764,196.848777 167.576564,182.165674 167.564455,167.48177 C167.562964,165.522476 168.142991,163.854396 169.840673,162.769544 C171.367946,161.793498 173.023225,161.715094 174.641703,162.543934 C176.293782,163.390374 177.166624,164.797642 177.287429,166.655331 C177.311431,167.033749 177.29063,167.416167 177.29063,167.938592 C177.548562,167.729302 177.756316,167.572238 177.943384,167.413741 L178.080267,167.293761 C182.218866,163.539981 187.007095,161.079863 192.596163,160.575039 C199.040471,159.992611 205.094361,161.01186 209.900992,165.899294 C210.334612,166.340915 210.721031,166.828139 211.164252,167.347364 Z M149.924519,162.036709 C152.595847,162.501532 154.204724,164.316018 154.200723,167.051349 C154.189523,177.952672 154.316729,188.859594 154.004714,199.752916 C153.792704,207.183672 150.442143,213.133557 143.857828,216.96014 C141.068894,218.581018 138.007948,219.45466 134.806994,219.830678 C130.662796,220.318701 126.526598,220.248298 122.511205,219.083442 C116.1317,217.232153 111.377072,213.428771 108.82895,207.128469 C107.485686,203.80751 107.107268,200.328144 107.096067,196.799975 C107.065666,186.932302 107.078466,177.063829 107.088867,167.195356 C107.092867,163.962402 109.279372,161.8511 112.38032,162.031909 C114.88364,162.179116 116.797332,164.441624 116.803732,167.322562 C116.812799,171.222483 116.809421,175.122403 116.808058,179.022323 L116.808872,190.296924 C116.809908,193.009361 116.819413,195.721683 116.866935,198.432853 C116.906137,200.66416 117.435762,202.822663 118.522214,204.801158 C120.039087,207.56209 122.360798,209.298973 125.388943,210.121413 C129.380335,211.204665 133.350925,211.151862 137.206309,209.630989 C141.164099,208.070914 143.369805,204.989167 144.10984,200.87617 C144.389854,199.317695 144.472257,197.706418 144.477858,196.118342 C144.510659,186.515482 144.490658,176.913422 144.496259,167.311362 C144.497859,164.634434 145.77632,162.790345 148.094831,162.173516 C148.651658,162.025509 149.260487,162.074311 149.924519,162.036709 Z" fill="#111827"></path>
    </g>
</svg>
