<?xml version="1.0" encoding="UTF-8"?>
<svg width="256px" height="256px" viewBox="0 0 256 256" version="1.1" xmlns="http://www.w3.org/2000/svg" xmlns:xlink="http://www.w3.org/1999/xlink" preserveAspectRatio="xMidYMid">
    <title>unocss</title>
    <g>
        <path d="M136.662 195.361C136.662 163.227 162.711 137.179 194.844 137.179C226.977 137.179 253.026 163.227 253.026 195.361C253.026 227.493 226.977 253.542 194.844 253.542C162.711 253.542 136.662 227.493 136.662 195.361Z" fill="#858585"/>
        <path d="M136.662 61.6725C136.662 29.5397 162.711 3.49072 194.844 3.49072C226.977 3.49072 253.026 29.5397 253.026 61.6725V114.036C253.026 117.249 250.42 119.854 247.208 119.854H142.48C139.267 119.854 136.662 117.249 136.662 114.036V61.6725Z" fill="#CCCCCC"/>
        <path d="M118.691 195.361C118.691 227.493 92.6419 253.542 60.509 253.542C28.3761 253.542 2.32715 227.493 2.32715 195.361L2.32716 142.997C2.32716 139.783 4.93205 137.179 8.14534 137.179H112.873C116.086 137.179 118.691 139.783 118.691 142.997V195.361Z" fill="#4D4D4D"/>
    </g>
</svg>
