<?xml version="1.0" encoding="UTF-8"?>
<svg width="256px" height="210px" viewBox="0 0 256 210" version="1.1" xmlns="http://www.w3.org/2000/svg" xmlns:xlink="http://www.w3.org/1999/xlink"  preserveAspectRatio="xMidYMid">
    <title>Unreal Engine</title>
    <g fill="#000000">
        <path d="M80.4547212,208.842332 L60.4510022,208.842332 L60.4510022,190.483355 L80.1401097,190.483355 L80.1401097,194.54941 L65.8033809,194.54941 L65.8033809,197.675614 L79.3754841,197.675614 L79.3754841,201.510689 L65.8113458,201.510689 L65.8113458,204.672734 L80.4547212,204.672734 L80.4547212,208.842332 Z M195.546794,208.842332 L175.857686,208.842332 L175.857686,190.774072 L195.240147,190.774072 L195.240147,194.756496 L181.134399,194.756496 L181.134399,197.830928 L194.491451,197.830928 L194.491451,201.602284 L181.134399,201.602284 L181.134399,204.71654 L195.546794,204.71654 L195.546794,208.842332 Z M107.590963,208.842332 L99.4867286,208.842332 L88.8297603,195.110932 L88.7262172,195.110932 L88.7262172,208.842332 L83.4295924,208.842332 L83.4295924,190.483355 L91.6532993,190.483355 L102.178848,204.230685 L102.282391,204.230685 L102.282391,190.483355 L107.590963,190.483355 L107.590963,208.842332 Z M171.719947,208.842332 L163.62766,208.842332 L152.970692,195.110932 L152.867149,195.110932 L152.867149,208.842332 L147.546629,208.842332 L147.546629,190.483355 L155.770336,190.483355 L166.295885,204.230685 L166.399428,204.230685 L166.399428,190.483355 L171.719947,190.483355 L171.719947,208.842332 Z M124.042359,209.077295 L123.217997,209.08526 L122.592881,209.083269 L122.592881,209.083269 L121.989917,209.077295 L121.989917,209.077295 L121.409105,209.067339 L121.409105,209.067339 L120.850446,209.053401 L120.850446,209.053401 L120.313938,209.03548 L120.313938,209.03548 L119.799583,209.013577 L119.799583,209.013577 L119.307381,208.987691 L119.307381,208.987691 L118.83733,208.957823 C117.77454,208.903731 116.719536,208.746347 115.687232,208.487897 C114.930484,208.299211 114.217667,207.96512 113.588494,207.504238 C113.037855,207.074981 112.604911,206.51325 112.330048,205.871444 C111.999117,205.094091 111.788295,204.270944 111.704807,203.430217 C111.607025,202.443685 111.555109,201.453221 111.549205,200.462025 L111.549493,199.499564 C111.541421,198.358462 111.595929,197.217776 111.712772,196.082644 C111.791255,195.238488 111.998065,194.411246 112.326066,193.62947 C112.605133,192.99015 113.038993,192.430376 113.588494,192.000658 C114.218329,191.54276 114.933187,191.215117 115.691215,191.036912 C116.618082,190.80604 117.563134,190.656556 118.515599,190.590058 L118.833348,190.570968 C118.987667,190.561012 119.145512,190.551678 119.306883,190.542967 L119.801575,190.518699 C119.885786,190.514965 119.97088,190.511387 120.056854,190.507965 L120.583281,190.489297 L120.583281,190.489297 L121.130864,190.474363 L121.130864,190.474363 L121.699604,190.463163 C121.796157,190.461607 121.893592,190.460207 121.991908,190.458962 L122.592383,190.453362 L122.592383,190.453362 L123.214015,190.451495 L123.214015,190.451495 L124.0105,190.451495 C124.212276,190.451495 124.410476,190.452118 124.6051,190.453365 L125.178244,190.458972 L125.178244,190.458972 L125.729932,190.468319 C125.820092,190.470188 125.909358,190.472213 125.99773,190.474394 L126.517233,190.489349 L126.517233,190.489349 L127.01528,190.508042 C127.096499,190.511469 127.176825,190.515051 127.256257,190.51879 L127.722119,190.543091 L127.722119,190.543091 C128.640947,190.588729 129.55529,190.700526 130.458045,190.877615 C131.118317,191.001351 131.756079,191.224232 132.349697,191.538697 C132.827335,191.792357 133.237067,192.157019 133.544424,192.602005 C133.848976,193.071697 134.053665,193.59901 134.14577,194.151168 C134.250061,194.75995 134.305958,195.375897 134.313005,195.993231 L134.313032,196.96276 L129.13588,196.96276 L129.13588,196.739744 C129.145787,196.379444 129.079282,196.021131 128.940741,195.688384 C128.778752,195.3762 128.508227,195.134002 128.180098,195.007389 C127.726435,194.831832 127.251874,194.716891 126.768699,194.66533 L126.587128,194.648971 C126.358803,194.626846 126.106288,194.608262 125.829583,194.593217 L125.485926,194.576862 L125.485926,194.576862 L125.119047,194.563906 L125.119047,194.563906 L124.728947,194.554348 L124.728947,194.554348 L124.315624,194.548189 L124.315624,194.548189 L123.87908,194.545428 L123.87908,194.545428 L123.193066,194.545734 L123.193066,194.545734 L122.744866,194.548185 L122.744866,194.548185 L122.112156,194.556456 L122.112156,194.556456 L121.716741,194.565034 L121.716741,194.565034 L121.34244,194.576062 L121.34244,194.576062 L120.989253,194.589541 L120.989253,194.589541 L120.820578,194.597199 C120.216235,194.618164 119.615059,194.694144 119.024504,194.824198 C118.615048,194.911807 118.228441,195.084085 117.889513,195.329965 C117.599629,195.560173 117.381363,195.868233 117.26029,196.218046 C117.128923,196.612339 117.044808,197.02061 117.00956,197.434295 L116.99745,197.611895 C116.989485,197.722606 116.982317,197.837778 116.975945,197.957378 L116.959219,198.329432 L116.959219,198.329432 L116.947271,198.727866 L116.947271,198.727866 L116.940103,199.152488 C116.939306,199.22543 116.938709,199.299455 116.938311,199.37456 L116.938311,200.154518 L116.938311,200.154518 L116.94309,200.584245 L116.94309,200.584245 L116.952648,200.987497 L116.952648,200.987497 L116.966984,201.364466 C116.97256,201.485763 116.978932,201.60271 116.9861,201.715341 L116.99745,201.881054 C117.02268,202.346195 117.111105,202.805737 117.26029,203.247026 C117.381506,203.594556 117.599887,203.900013 117.889513,204.127142 C118.228441,204.373022 118.615048,204.5453 119.024504,204.632909 C119.530733,204.744161 120.044714,204.815874 120.561798,204.847461 L120.989253,204.868132 L120.989253,204.868132 L121.34244,204.882459 L121.34244,204.882459 L121.716741,204.893959 L121.716741,204.893959 L122.112156,204.90263 L122.112156,204.90263 L122.528684,204.908474 L122.528684,204.908474 L122.966327,204.911491 L122.966327,204.911491 L124.31945,204.911416 L124.31945,204.911416 L124.736914,204.909573 L124.736914,204.909573 L125.13147,204.90457 C125.386872,204.899831 125.627002,204.891932 125.851861,204.878767 L126.402271,204.839455 L126.402271,204.839455 L126.759498,204.811037 C127.045697,204.7867 127.30308,204.759905 127.530963,204.724505 C127.868356,204.677203 128.197862,204.58478 128.51064,204.449718 C128.734152,204.349956 128.929717,204.196786 129.080126,204.003686 C129.217369,203.819368 129.308824,203.605062 129.346949,203.378446 C129.391045,203.099214 129.412355,202.816858 129.410667,202.534172 L129.410667,202.024421 L122.365758,202.024421 L122.365758,198.480063 L134.524101,198.480063 L134.524101,202.558066 C134.532732,203.335433 134.475445,204.112132 134.352856,204.87982 C134.254556,205.488184 134.043883,206.072939 133.731598,206.60421 C133.431069,207.089455 133.022117,207.498407 132.536871,207.798937 C131.940907,208.154539 131.291349,208.411403 130.61336,208.55958 C129.810917,208.740822 128.996875,208.86544 128.177253,208.932573 L127.825662,208.957823 C127.593544,208.97489 127.353379,208.990129 127.10509,209.003539 L126.597656,209.027921 C126.511271,209.031579 126.423977,209.035033 126.335771,209.038284 L125.795578,209.055351 C125.51999,209.062666 125.236146,209.068152 124.943969,209.071809 L124.34848,209.076686 C124.247373,209.077092 124.145333,209.077295 124.042359,209.077295 Z M143.643853,208.886139 L138.263598,208.886139 L138.263598,190.662564 L143.643853,190.662564 L143.643853,208.886139 Z"></path>
        <path d="M20.5725449,180.860911 L19.2010476,180.865799 L18.4301298,180.863688 C18.3032498,180.862985 18.1771728,180.862105 18.051899,180.86105 L17.3098937,180.852607 C16.9437097,180.847331 16.5847539,180.840471 16.2330261,180.832028 L15.5392081,180.813032 L15.5392081,180.813032 L14.864665,180.789814 C14.6430298,180.781372 14.4246071,180.772225 14.2093969,180.762376 L13.5734037,180.730715 C13.469011,180.725087 13.3654215,180.719282 13.2626352,180.713302 L12.6555543,180.67531 C12.5559804,180.668626 12.4572097,180.661766 12.359242,180.654731 C10.6515271,180.554881 8.95474449,180.316479 7.28563302,179.941877 C6.0434668,179.673761 4.85135372,179.211431 3.75322235,178.571923 C2.85293704,178.029736 2.08870657,177.288664 1.51908212,176.405483 C0.931469676,175.458067 0.532546167,174.405991 0.344266849,173.307157 C0.0987315635,171.921834 -0.015936447,170.516484 0.00177832849,169.109682 L0.00177832849,148.401073 L9.44012476,148.401073 L9.44012476,166.051179 C9.44012476,166.554803 9.44832526,167.025625 9.46472625,167.463644 L9.48386074,167.89073 C9.4984394,168.168164 9.51666272,168.43102 9.53853071,168.679297 L9.55561508,168.862771 C9.60969641,169.546197 9.76678593,170.21752 10.0215588,170.853984 C10.2366127,171.381496 10.586879,171.843023 11.037077,172.192078 C11.5642515,172.570773 12.1611205,172.841462 12.7933263,172.988563 C13.575878,173.186626 14.3744188,173.314054 15.179338,173.369423 L15.6975794,173.39838 L15.6975794,173.39838 L16.145827,173.41927 L16.145827,173.41927 L16.615569,173.437102 L16.615569,173.437102 L17.1069754,173.451819 L17.1069754,173.451819 L17.6202162,173.463364 L17.6202162,173.463364 L18.1554611,173.47168 L18.1554611,173.47168 L18.7128802,173.476712 L18.7128802,173.476712 L19.2926434,173.478401 L19.2926434,173.478401 L20.0891283,173.478401 C20.2855946,173.478401 20.4784265,173.477788 20.6676241,173.476561 L21.224314,173.471038 C21.3152785,173.469811 21.4053344,173.468431 21.4944817,173.466897 L22.0184626,173.455852 C22.1039756,173.453704 22.18858,173.451403 22.2722758,173.448949 L22.7635477,173.432382 C22.8436092,173.429314 22.9227621,173.426093 23.0010064,173.422718 L23.4595693,173.400629 C23.5341793,173.396641 23.6078807,173.392499 23.6806735,173.388204 L23.8963263,173.374858 C24.8031856,173.329279 25.7041495,173.202664 26.5884453,172.996528 C27.2223718,172.854531 27.8202265,172.583395 28.3446946,172.200043 C28.7890425,171.846181 29.1369529,171.385953 29.3562305,170.861948 C29.6142721,170.226305 29.7727758,169.554679 29.8261566,168.870736 C29.9004952,168.074251 29.9376645,167.145019 29.9376645,166.083039 L29.9376645,148.397091 L39.3799933,148.397091 L39.3799933,169.105699 C39.3937308,170.50742 39.2871417,171.907735 39.0613993,173.291227 C38.8866782,174.392545 38.4984165,175.449104 37.9184435,176.401501 C37.3578441,177.283802 36.601543,178.025113 35.7081978,178.56794 C34.6132604,179.20818 33.4236474,179.670584 32.183752,179.937894 C30.6477384,180.282212 29.0883401,180.511233 27.518591,180.623135 L26.791101,180.670949 L26.791101,180.670949 L26.1782058,180.708304 L26.1782058,180.708304 L25.5457968,180.741597 C25.4387691,180.746808 25.3309284,180.751849 25.2222745,180.75672 L24.5605947,180.78392 L24.5605947,180.78392 L23.879401,180.807058 L23.879401,180.807058 L23.1786933,180.826134 L23.1786933,180.826134 L22.4584718,180.841148 C22.3368088,180.843312 22.2143326,180.845306 22.0910434,180.847131 L21.3415511,180.856052 L21.3415511,180.856052 L20.5725449,180.860911 L20.5725449,180.860911 Z M87.9138026,180.471539 L73.8000896,180.471539 L55.2180962,156.457518 L55.0349046,156.457518 L55.0349046,180.471539 L45.7797497,180.471539 L45.7797497,148.353284 L60.1164785,148.353284 L78.4714737,172.391199 L78.6506828,172.391199 L78.6506828,148.353284 L87.9058377,148.353284 L87.9058377,180.455609 L87.9138026,180.471539 Z M103.974921,164.569717 L115.739004,164.569717 L116.217619,164.56828 L116.217619,164.56828 L116.676212,164.563951 L116.676212,164.563951 L117.114828,164.556707 L117.114828,164.556707 L117.533516,164.546524 C117.601639,164.54458 117.668934,164.542513 117.735402,164.540323 L118.124288,164.525686 L118.124288,164.525686 L118.493365,164.508051 L118.493365,164.508051 L118.842681,164.487393 C118.899257,164.483697 118.955011,164.479874 119.009944,164.475923 L119.329709,164.450687 L119.329709,164.450687 L119.629833,164.422368 L119.629833,164.422368 C120.399541,164.377438 121.149988,164.163995 121.828131,163.797127 C122.3128,163.504573 122.664262,163.034529 122.807807,162.486909 C122.979224,161.757704 123.056845,161.009598 123.038788,160.260734 L123.038788,159.707177 C123.05586,158.967559 122.978237,158.228795 122.807807,157.508879 C122.667187,156.961482 122.308949,156.49534 121.816184,156.218573 C121.129547,155.865887 120.376612,155.661034 119.605938,155.617227 L119.306053,155.588908 L119.306053,155.588908 L118.987005,155.563671 C118.932231,155.559721 118.876656,155.555897 118.82028,155.552201 L118.472398,155.531543 L118.472398,155.531543 L118.105232,155.513908 L118.105232,155.513908 L117.718736,155.499272 L117.718736,155.499272 L117.312861,155.48761 L117.312861,155.48761 L116.88756,155.4789 L116.88756,155.4789 L116.442785,155.473116 L116.442785,155.473116 L115.978488,155.470236 L115.978488,155.470236 L103.974921,155.469877 L103.974921,164.569717 Z M132.544836,180.471539 L123.217997,180.471539 L123.217997,177.867033 C123.224827,177.058503 123.187603,176.2502 123.106489,175.445719 C123.05159,174.849033 122.888292,174.267368 122.624616,173.729294 C122.38852,173.270138 122.035482,172.881385 121.601133,172.602268 C121.064475,172.279027 120.473373,172.056352 119.856831,171.945168 C118.977044,171.77118 118.084833,171.667311 117.188606,171.634539 L116.973591,171.62376 L116.973591,171.62376 L116.527842,171.604432 C116.451805,171.601458 116.374894,171.598608 116.297109,171.595883 L115.819927,171.581015 L115.819927,171.581015 L115.321787,171.569121 L115.321787,171.569121 L114.802691,171.5602 C114.714429,171.558961 114.625294,171.557846 114.535285,171.556855 L113.984754,171.552395 C113.891253,171.551899 113.796878,171.551527 113.701631,171.55128 L103.974921,171.550908 L103.974921,180.471539 L94.6241881,180.471539 L94.6241881,148.353284 L119.526289,148.353284 C121.54307,148.320155 123.558724,148.459617 125.551217,148.770011 L125.977817,148.83914 C127.414913,149.058894 128.779588,149.615681 129.960242,150.463969 C130.935848,151.231093 131.642815,152.288058 131.979331,153.482647 C132.383556,154.996382 132.571268,156.559755 132.536871,158.126154 L132.536871,159.253181 C132.550079,160.363412 132.451347,161.472147 132.242171,162.562575 C132.074514,163.428245 131.749189,164.255732 131.282407,165.003802 C130.842826,165.685545 130.259778,166.263157 129.573947,166.696332 C128.77942,167.179606 127.90792,167.523087 126.997318,167.71185 L126.997318,167.895042 C127.941811,168.033636 128.869374,168.269864 129.765103,168.599931 C130.442904,168.847949 131.033797,169.288005 131.465599,169.866342 C131.914791,170.524616 132.203906,171.278769 132.309873,172.068623 C132.478411,173.219571 132.55432,174.382188 132.536871,175.54528 L132.536871,180.455609 L132.544836,180.471539 Z M173.559827,180.471539 L138.673787,180.471539 L138.673787,148.353284 L173.010253,148.353284 L173.010253,155.453947 L148.020538,155.453947 L148.020538,160.913852 L171.688088,160.913852 L171.688088,167.620255 L148.020538,167.620255 L148.020538,173.151843 L173.559827,173.151843 L173.559827,180.471539 Z M205.10063,168.030444 L198.557507,155.147301 L198.326526,155.147301 L191.831192,168.030444 L205.10063,168.030444 Z M221.619728,180.495434 L211.440651,180.495434 L208.497639,174.732865 L188.47799,174.732865 L185.582767,180.495434 L175.479356,180.495434 L192.719272,148.397091 L204.304146,148.397091 L221.619728,180.495434 Z M256,180.495434 L225.080455,180.495434 L225.080455,148.397091 L234.518801,148.397091 L234.518801,173.044317 L256,173.044317 L256,180.495434 Z"></path>
        <path d="M128.000889,0 C145.224743,-0.00211160054 161.743875,6.83855678 173.923726,19.0169137 C186.103576,31.1952706 192.94627,47.7135637 192.94627,64.9374174 C192.94847,100.803562 163.874998,129.880599 128.008854,129.882798 C92.14271,129.884998 63.0656724,100.811526 63.063473,64.9453822 C63.0612955,29.4378995 91.5561832,0.58442014 126.926965,0.00876665416 L128.000889,0 Z M151.854331,7.33789826 C128.557165,-2.31166782 101.741218,3.02302355 83.9110269,20.8543538 C66.0808357,38.6856839 60.7478573,65.501972 70.3989116,88.7985212 C80.0499659,112.09507 102.784386,127.283886 128.000889,127.282275 C162.431448,127.280076 190.341765,99.3679765 190.341765,64.9374174 C190.341765,39.7209138 175.151497,16.9874643 151.854331,7.33789826 Z M122.110883,25.6388509 C116.674873,28.7371773 113.616371,33.7948566 113.616371,38.0401213 C113.616371,43.1707709 115.95194,43.976544 117.623815,43.632429 L117.825013,43.5847613 C117.857926,43.5759308 117.89051,43.5666753 117.922742,43.5570219 L118.111695,43.4945419 C118.142413,43.4834047 118.172728,43.4719234 118.202613,43.4601251 L118.376566,43.3857474 C118.404632,43.3727891 118.432217,43.3595677 118.459296,43.3461103 L118.615498,43.2627495 L118.615498,43.2627495 L118.758335,43.1750191 L118.758335,43.1750191 L118.886584,43.0842145 C118.906675,43.0688962 118.926107,43.0535038 118.944855,43.0380642 L118.944855,82.4322089 C119.150825,82.927159 119.418435,83.3941371 119.74134,83.8220751 C120.846013,85.3497287 122.623186,86.2464813 124.508303,86.2274596 C126.203879,86.2274596 128.106747,85.4306991 129.758712,84.4933337 L130.223479,84.2222559 L130.223479,84.2222559 L130.672216,83.946927 L130.672216,83.946927 L131.102549,83.6707478 L131.102549,83.6707478 L131.512102,83.3971194 L131.512102,83.3971194 L131.898502,83.1294424 L131.898502,83.1294424 L132.259373,82.8711178 L132.259373,82.8711178 L132.895029,82.3961294 L132.895029,82.3961294 L133.400071,81.999361 L133.400071,81.999361 L133.7555,81.7080196 L133.7555,81.7080196 L133.966561,81.5281985 L133.966561,81.5281985 L133.966561,49.628977 C133.966561,46.3833009 131.521353,42.4606126 129.072161,41.122518 L129.410376,41.0773875 L129.410376,41.0773875 L129.805925,41.0418563 L129.805925,41.0418563 L130.186771,41.0209551 L130.186771,41.0209551 L130.631267,41.0115058 C130.683909,41.0113096 130.737587,41.0114342 130.792255,41.0119159 L131.13176,41.0193813 C131.190198,41.0214364 131.24953,41.023921 131.309711,41.0268715 L131.680593,41.0504547 C131.870744,41.0653314 132.067675,41.0850533 132.270112,41.1105991 L132.681947,41.1697462 C134.006941,41.3834723 135.51863,41.8569807 136.892895,42.8389333 L137.108694,42.99824 C137.765917,42.1933346 138.46514,41.4236573 139.20345,40.6924161 C144.921373,35.0751013 150.413761,32.2818882 155.394348,30.7218112 L156.137562,30.4968493 C156.26078,30.4608308 156.383668,30.4255332 156.506223,30.3909318 L157.237519,30.1914782 C157.479927,30.1276456 157.720967,30.0663987 157.960601,30.0075385 L158.675255,29.8379196 L158.675255,29.8379196 L159.381266,29.6814282 L159.381266,29.6814282 L160.078418,29.5368712 L160.078418,29.5368712 L161.107069,29.3398022 L161.107069,29.3398022 L161.445291,29.278787 L161.02793,29.6247434 L161.02793,29.6247434 L160.429393,30.1507914 L160.429393,30.1507914 L160.049765,30.4988296 L160.049765,30.4988296 L159.623954,30.9016251 L159.623954,30.9016251 L159.157502,31.357739 L159.157502,31.357739 L158.65595,31.8657324 L158.65595,31.8657324 L158.304819,32.2325059 L158.304819,32.2325059 L157.942194,32.6212711 L157.942194,32.6212711 L157.569716,33.0316014 L157.569716,33.0316014 L157.189028,33.4630707 L157.189028,33.4630707 L156.801771,33.9152524 L156.801771,33.9152524 L156.409589,34.3877202 L156.409589,34.3877202 L156.014122,34.8800479 C155.948028,34.9637338 155.881866,35.0482294 155.81567,35.1335259 L155.418356,35.6548437 C155.153571,36.0087009 154.889333,36.3750873 154.627833,36.7534345 L154.237908,37.3298547 C154.108799,37.5249376 153.980649,37.7229397 153.85373,37.9237897 L153.476942,38.5348131 C151.427938,41.9416529 149.788734,46.1045312 149.788734,50.7042317 L149.810503,57.0078707 L149.810503,57.0078707 L150.023698,82.1016677 L150.023698,82.1016677 C152.597828,84.574157 155.907132,83.4605763 159.386172,80.8977545 L159.851,80.5476444 C159.928623,80.4879239 160.006317,80.4275347 160.084076,80.3665001 L160.551363,79.9927362 C160.629358,79.929214 160.707406,79.8650935 160.785501,79.800398 L161.254577,79.4055128 C161.332833,79.3386112 161.411123,79.2711815 161.489441,79.2032471 L161.959636,78.7897731 L161.959636,78.7897731 L162.430205,78.3653136 L162.430205,78.3653136 L163.136107,77.7104886 L163.136107,77.7104886 L163.841174,77.0372775 L163.841174,77.0372775 L164.533601,76.360152 L164.533601,76.360152 L165.223285,75.6725108 L165.223285,75.6725108 L165.681076,75.2100319 L166.590584,74.2801856 L166.514705,74.6323472 L166.514705,74.6323472 L166.428159,75.006153 L166.428159,75.006153 L166.277479,75.6056324 L166.277479,75.6056324 L166.162544,76.0299243 L166.162544,76.0299243 L166.035565,76.4729607 L166.035565,76.4729607 L165.896148,76.9339131 L165.896148,76.9339131 L165.743899,77.411953 L165.743899,77.411953 L165.578424,77.906252 L165.578424,77.906252 L165.399329,78.4159814 L165.399329,78.4159814 L165.206222,78.9403129 L165.206222,78.9403129 L164.998707,79.4784179 L164.998707,79.4784179 L164.776392,80.029468 L164.776392,80.029468 L164.538882,80.5926345 C164.498009,80.6874593 164.456487,80.7827544 164.414307,80.8785025 L164.153267,81.4582904 L164.153267,81.4582904 L163.876049,82.0481235 L163.876049,82.0481235 L163.582258,82.6471734 C163.53189,82.747737 163.480815,82.8486502 163.429025,82.9498957 L163.109637,83.5612172 C163.054954,83.6637226 162.999539,83.7665257 162.943384,83.8696093 L162.597513,84.4913384 C159.344458,90.218842 153.804067,96.6903372 144.611582,101.034114 L138.239703,93.8657501 L127.487156,104.682015 C115.076559,104.515096 103.457715,98.5553927 96.0817556,88.5731077 C97.2257167,88.9289211 98.4071078,89.150766 99.6022189,89.2341902 C101.362451,89.2660496 103.270032,88.6208968 103.270032,85.650008 L103.270032,56.4787474 C103.323401,54.9564932 102.651518,53.4991655 101.459277,52.5511847 C100.267036,51.6032039 98.6957947,51.2769666 97.2247114,51.6719609 C94.7739886,52.2326863 92.5645676,55.5297757 90.9528331,58.7330618 L90.657724,59.3318877 L90.657724,59.3318877 L90.3771452,59.9243694 L90.3771452,59.9243694 L90.1116188,60.506361 L90.1116188,60.506361 L89.8616668,61.0737169 L89.8616668,61.0737169 L89.6278113,61.6222912 L89.6278113,61.6222912 L89.4105743,62.1479382 L89.4105743,62.1479382 L89.2104779,62.6465123 L89.2104779,62.6465123 L88.8637949,63.5458582 L88.8637949,63.5458582 L88.5919386,64.2871629 L88.5919386,64.2871629 L88.264256,65.2400817 L88.264256,65.2400817 C88.1522261,53.6229792 93.1567442,42.5448753 101.947867,34.9497598 C108.455149,29.4349956 114.830556,27.0852191 120.013711,26.016509 L120.729097,25.8755112 C120.847003,25.8533341 120.964238,25.8318024 121.080787,25.8108925 L121.77176,25.6927045 C121.885517,25.6741868 121.998562,25.6562435 122.110883,25.6388509 Z"></path>
    </g>
</svg>
