<?xml version="1.0" encoding="UTF-8" standalone="no"?>
<svg width="256px" height="256px" viewBox="0 0 256 256" version="1.1" xmlns="http://www.w3.org/2000/svg" xmlns:xlink="http://www.w3.org/1999/xlink" preserveAspectRatio="xMidYMid">
	<g>
		<path fill="#0097E8" d="M31.2255415,127.833082 L30.9325131,128.195591 C30.942151,128.181372 31.0255967,128.159906 31.1726767,128.091095 C31.210264,127.936447 31.2235188,127.848313 31.2255415,127.833082"></path>
		<path fill="#0097E8" d="M29.5175265,138.068084 C29.5175265,138.068084 29.5034146,138.069309 29.5045331,138.072558 C29.4946468,138.392074 29.5044648,138.726607 29.4980411,139.066733 C29.606248,139.022207 29.7038056,138.999516 29.8023746,138.969209 L29.5175265,138.068084"></path>
		<path fill="#0097E8" d="M119.561371,206.170251 C119.550829,206.202949 119.543642,206.245392 119.543642,206.245392 L119.624576,206.079452 C119.60956,206.099156 119.577291,206.132068 119.561371,206.170251"></path>
		<path fill="#0097E8" d="M120.450124,206.503721 L120.381969,206.64346 L120.4333,206.560383 L120.450124,206.503721"></path>
		<path fill="#0097E8" d="M122.476163,202.626807 L122.416313,202.727351 C122.438837,202.697795 122.459124,202.661741 122.476163,202.626807"></path>
		<path fill="#0097E8" d="M123.227273,203.214779 L123.214387,203.230117 L123.217635,203.228998 C123.217635,203.228998 123.223014,203.223513 123.227273,203.214779"></path>
		<path fill="#0097E8" d="M123.227273,203.214779 L123.223014,203.223513 L123.236007,203.219039 L123.227273,203.214779"></path>
		<path fill="#0097E8" d="M187.409775,176.983707 C187.409775,176.983707 187.407753,176.998937 187.414249,176.9967 C187.450195,177.006124 187.458929,177.010383 187.491627,177.020926 L187.409775,176.983707"></path>
		<path d="M172.334128,7.89125595 L172.252705,7.89749127 L172.095452,7.92620365 L171.276593,8.070087 L170.603127,8.414618 C168.461526,9.49721056 149.381112,19.9622128 140.076138,53.287706 C133.185721,77.9552886 53.6756975,114.016798 26.40109,124.690816 L23.6550695,125.738084 L23.1361919,128.758128 C22.9768603,129.677758 22.5694849,132.546771 22.3810994,136.579395 C16.36748,139.216873 12.1233288,143.468763 10.0662902,149.049552 C9.79751311,149.777958 9.56164809,150.538633 9.36833304,151.317359 C7.3134724,159.54257 9.62865825,170.001903 15.7837529,179.836677 C22.8684074,191.168117 34.5070804,190.779545 41.64813,188.440589 C43.5687837,190.07198 45.5918374,191.620876 47.7669679,192.946635 L47.823844,192.985186 L49.793887,194.116318 L51.7168625,193.559555 C51.7168625,193.559555 68.9176121,188.483463 69.4896429,188.319198 C70.4093072,188.151505 75.3363673,187.48689 79.0901447,190.136684 C81.8735652,192.110493 83.598363,195.695097 84.211386,200.788894 C86.4977814,219.785914 85.2573216,226.313648 85.2327276,226.463822 C85.2065866,226.567294 85.1752816,226.697978 85.1752816,226.697978 L85.1503191,226.920948 C85.0034582,228.003424 83.8794902,237.750277 89.6462301,244.230633 C91.8303732,246.690567 95.881156,249.601442 102.7811,249.474724 L102.946183,249.46875 L125.916238,247.387625 L126.098574,247.368443 C126.098574,247.368443 129.268616,245.800925 129.277242,245.794321 C129.797702,245.248131 132.255742,242.541419 133.818848,238.544128 L133.549273,239.301876 C133.992771,238.553277 136.302106,234.538848 137.647221,229.148691 C138.775699,224.596159 139.224029,219.049705 137.279513,213.676781 C135.49819,208.767253 132.048681,204.911747 127.035684,202.150515 C127.248978,201.524783 127.487354,200.908582 127.644997,200.258411 C129.024558,194.725588 128.548771,188.785172 124.099851,184.612497 L122.607469,183.222423 C116.733753,177.792642 114.800958,175.260696 115.307644,173.207722 C115.325159,173.110854 115.402583,173.029692 115.42995,172.940333 C116.180152,172.554846 116.992393,172.180698 117.89522,171.848029 L118.654001,171.561326 C118.654001,171.561326 118.769394,171.474357 118.863168,171.398467 C121.101696,170.449639 139.264321,163.977737 182.430671,182.836682 C186.466189,186.072559 206.639885,201.195945 225.025905,196.554697 C234.708274,194.114626 242.007304,186.863313 246.702274,175.00393 C247.395414,173.239202 247.995994,171.342839 248.504013,169.31484 C252.318567,154.001592 250.923011,130.922648 244.459685,104.596279 C237.322712,75.5115121 225.060936,47.7517055 211.6756,30.3308684 C199.198345,14.1016139 185.602958,6.33821834 172.334128,7.89125595" fill="#FFFFFF"></path>
		<path d="M164.136013,147.939662 C163.670959,147.053352 163.243659,146.139507 162.801236,145.234503 C160.768115,140.902196 158.6799,136.051104 156.651141,130.728988 C150.698997,114.592918 147.407924,99.0411934 146.348566,93.5269921 C144.811553,84.747257 143.802616,75.4223433 143.594306,65.6473443 C143.594306,65.6473443 135.404292,121.912222 176.131666,168.985598 C176.131666,168.985598 170.525779,161.189038 163.96937,147.677296 C164.075353,147.847911 164.136013,147.939662 164.136013,147.939662" fill="#F8941E"></path>
		<path d="M182.600155,18.3634377 C182.600155,18.3634377 150.264291,11.4682501 168.286292,100.129258 C168.286292,100.129258 191.612116,200.880235 233.743507,175.167587 C233.743507,175.167587 203.820827,199.023665 177.63941,135.249183 C151.456767,71.4605882 157.333454,12.856561 182.600155,18.3634377" fill="#F8941E"></path>
		<path d="M210.052586,85.4282236 L207.858412,85.3662058 L166.063419,90.1068582 L166.176211,91.0781274 L207.324509,86.4220782 C207.719509,85.9336214 208.181404,85.6183385 208.714348,85.4566322 C209.143344,85.3307178 209.606161,86.2105317 210.08198,86.3155715 L210.052586,85.4282236" fill="#F8941E"></path>
		<path d="M182.276684,141.22461 L216.222405,116.695449 C213.253238,115.606764 209.723596,110.125617 207.578577,102.819686 C205.652736,96.2558182 205.414219,89.91759 206.973237,87.0480841 C207.115248,86.7957113 207.269454,86.5682068 207.430586,86.3819194 L167.806527,90.8110765 L166.52777,90.8117369 C169.264862,106.485176 174.107288,123.788185 182.139242,141.279202 L182.276684,141.22461" fill="#F8941E"></path>
		<path d="M207.807841,87.5092037 C206.355315,90.1603673 206.619269,96.2136921 208.493017,102.562955 C210.860462,110.609831 214.600746,115.636933 217.028767,115.945444 C217.265742,115.958317 217.486155,115.944192 217.695274,115.88672 C218.174115,115.747277 218.592924,115.359626 218.934558,114.747839 C220.380479,112.088049 220.10678,106.03808 218.23527,99.6953139 C216.38112,93.350204 213.339553,88.1152158 210.690519,86.6583236 C210.162928,86.3712691 209.680398,86.2467392 209.244262,86.3097094 C209.178176,86.328831 209.105487,86.339326 209.036153,86.3595661 C208.562799,86.5043878 208.145,86.8844234 207.807841,87.5092037" fill="#F8941E"></path>
		<path d="M210.652799,86.3588326 C210.652799,86.3588326 208.875103,86.1134415 205.751164,86.5169066 L206.469164,85.5102822 C206.469164,85.5102822 209.183464,84.7718816 211.134385,85.8369281 L210.652799,86.3588326" fill="#F8941E"></path>
		<path d="M211.731938,113.267409 L216.683461,117.506833 L218.393674,116.638182 C218.393674,116.638182 213.352466,114.101038 211.731938,113.267409" fill="#F8941E"></path>
		<path d="M206.973237,87.0480841 C205.414219,89.91759 205.652736,96.2558182 207.578577,102.819686 C209.723596,110.125617 213.253238,115.606764 216.222405,116.695449 L217.027126,116.109515 L217.028767,115.945444 C214.600746,115.636933 210.860462,110.609831 208.493017,102.562955 C206.619269,96.2136921 206.355315,90.1603673 207.807841,87.5092037 C208.145,86.8844234 208.562799,86.5043878 209.036153,86.3595661 C209.105487,86.339326 209.178176,86.328831 209.244262,86.3097094 L209.226627,86.1740758 L207.430586,86.3819194 C207.269454,86.5682068 207.115248,86.7957113 206.973237,87.0480841" fill="#F8941E"></path>
		<path d="M182.363811,142.237418 L217.583395,116.880848 L217.572425,116.870092 C217.138419,116.928695 216.676022,116.862636 216.209305,116.689059 L181.811694,141.446488 L182.363811,142.237418" fill="#F8941E"></path>
		<path d="M205.705169,87.6918234 L166.844412,91.7418832 L168.819284,102.616341 L203.493724,99.2083801 C203.493724,99.2083801 208.082416,110.392775 211.711836,114.644152 C211.711836,114.644152 203.976371,101.327649 205.705169,87.6918234" fill="#F8941E"></path>
		<path d="M228.999357,78.0468264 C229.149021,78.4603781 229.306301,78.8749411 229.459213,79.2873743 C229.876995,80.4479391 230.28828,81.6107409 230.693069,82.7757797 C230.847421,83.2240518 231.007259,83.6777022 231.161612,84.1259744 C231.553193,85.27376 231.932899,86.4292681 232.313723,87.5880244 C232.463923,88.0558938 232.61849,88.5258931 232.765441,88.994881 C233.131939,90.1331359 233.479959,91.2704866 233.832345,92.4099672 C233.983985,92.9136755 234.134507,93.4141356 234.286146,93.9178439 C234.616591,95.0358117 234.939421,96.1527681 235.253624,97.2763283 C235.396745,97.7975041 235.54748,98.3196912 235.692731,98.8365001 C235.993726,99.9428072 236.285988,101.044855 236.579369,102.15015 C236.718336,102.690923 236.856186,103.228448 236.988657,103.771458 C237.266593,104.853004 237.534783,105.937905 237.795359,107.021796 C237.929056,107.578917 238.058386,108.133909 238.188834,108.69215 C238.433965,109.75229 238.668232,110.812538 238.900369,111.877152 C239.026558,112.444126 239.145132,113.010089 239.265835,113.571685 C239.483646,114.615797 239.695972,115.654532 239.900683,116.692255 C240.012867,117.271319 240.121803,117.8515 240.22749,118.4328 C240.418886,119.442407 240.603785,120.454251 240.775584,121.459705 C240.877011,122.049739 240.970824,122.638761 241.073263,123.22118 C241.231853,124.209381 241.388207,125.191085 241.535828,126.16853 C241.624262,126.763038 241.702844,127.350038 241.785793,127.939167 C241.925691,128.904737 242.054618,129.85955 242.174812,130.810104 C242.247908,131.391725 242.309023,131.970206 242.374504,132.550816 C242.488094,133.492743 242.589702,134.431529 242.680339,135.359558 C242.735968,135.932661 242.784994,136.497136 242.837374,137.071357 C242.913685,137.978885 242.993352,138.896158 243.056562,139.797296 C243.097972,140.360761 243.120797,140.912457 243.155603,141.467295 C243.207843,142.357677 243.260082,143.248059 243.297996,144.11794 C243.317465,144.659891 243.325963,145.191086 243.341065,145.730908 C243.366996,146.597647 243.392821,147.453523 243.395692,148.295501 C243.405202,148.819081 243.391651,149.3179 243.39019,149.830723 C243.38108,150.66956 243.378573,151.517024 243.356255,152.338608 C243.338124,152.81357 243.308914,153.266911 243.290676,153.73101 C243.254353,154.564683 243.220267,155.404853 243.163014,156.209398 C243.131246,156.623652 243.086271,157.020654 243.053385,157.43166 C242.982234,158.259158 242.913321,159.093152 242.820229,159.899137 C242.779989,160.225472 242.726541,160.534554 242.684064,160.854392 C242.576278,161.712672 242.464124,162.568822 242.323426,163.394833 C242.294679,163.564604 242.257092,163.719252 242.230475,163.884656 C241.85953,165.930859 241.411468,167.869177 240.868609,169.669363 C240.681731,170.329601 240.439999,170.936056 240.21909,171.560777 C240.103709,171.869383 240.00601,172.208235 239.887274,172.507096 C237.49035,178.546465 234.372832,183.126219 230.595856,186.276176 C230.427799,186.421246 230.267571,186.589055 230.095148,186.731995 C229.822346,186.9422 229.526271,187.105916 229.251233,187.309623 C228.70419,187.694193 228.168226,188.100383 227.59892,188.430849 C227.508181,188.483894 227.407482,188.518567 227.311364,188.577097 C226.534486,189.011738 225.746423,189.413895 224.924008,189.747944 C224.011865,190.127423 223.064251,190.435545 222.088889,190.684185 C204.840755,195.031731 184.114972,177.798452 183.917714,177.626564 L183.870583,177.584657 L183.819299,177.562347 L183.79198,177.54632 C182.670236,177.053265 181.585879,176.605473 180.500296,176.14357 C156.037426,165.774462 139.611285,163.465852 130.033625,163.413638 C124.709846,163.400955 120.904765,164.031689 118.365769,164.698828 C115.98706,165.314408 114.697372,165.969225 114.365672,166.156108 L114.336436,166.166175 L114.335425,166.17379 L114.332177,166.174908 C114.271577,166.199408 114.213214,166.230404 114.152613,166.254904 C112.452133,166.898562 110.92084,167.622036 109.600275,168.450992 C108.775315,168.967591 108.060537,169.529821 107.378564,170.113457 C104.820965,172.309428 103.258686,174.958415 102.796208,178.078943 C101.601316,186.142483 107.901712,194.626441 111.530565,197.388286 C116.64385,201.284966 115.659636,206.805198 115.500934,207.568372 C115.516855,207.530189 115.549124,207.497277 115.56414,207.477572 L115.482194,207.651127 C115.482194,207.651127 115.490392,207.601069 115.500934,207.568372 C115.47628,207.602295 115.431554,207.693999 115.399499,207.748638 L115.395132,207.746508 C115.386612,207.763976 115.378093,207.781443 115.364088,207.793532 L115.369574,207.79891 C115.05025,208.359414 114.446443,209.708233 114.73514,211.770746 C114.833379,212.478149 115.077211,213.186289 115.350386,213.895227 L115.346126,213.90396 C115.352837,213.92345 115.365033,213.948319 115.371744,213.967809 C115.503191,214.296796 115.668347,214.628711 115.841118,214.961636 C116.143789,215.576847 116.491033,216.194877 116.941534,216.817322 L116.950268,216.821582 C118.295381,218.702015 120.210086,220.611598 122.742098,222.541168 C125.902199,224.92303 127.619176,227.714596 127.869325,230.825923 C127.900978,231.171105 127.829158,231.490146 127.821616,231.827023 C127.817357,231.835757 127.812085,231.852106 127.807826,231.86084 C127.768983,233.320338 127.500352,234.724521 127.028073,235.969916 L127.015294,235.996117 L127.391164,236.211875 L126.982228,236.058372 C125.888367,238.833114 124.164857,240.887224 123.725284,241.372861 L119.418123,241.769526 L101.078791,243.433412 C97.2984925,243.492424 94.3571202,242.357834 92.3269952,240.091944 C88.1698175,235.426398 89.1995197,227.35797 89.2095261,227.270954 C89.3642896,226.549105 90.6852552,219.811976 88.2771662,199.712314 C87.4534328,192.972434 84.9441452,188.059221 80.7811571,185.117945 C76.889342,182.352174 72.4635943,181.961239 69.6083509,182.068709 C67.8945767,182.135588 66.7442797,182.382695 66.6108831,182.406826 L51.2637751,186.946396 L49.0018528,187.616234 C47.2900366,186.559694 45.7078328,185.425824 44.2477336,184.224475 C44.1064475,184.109617 43.9814031,183.989167 43.840117,183.874309 C43.2868475,183.407155 42.7422045,182.933398 42.2191815,182.448563 C41.8880383,182.141101 41.5773966,181.819313 41.2624951,181.506259 C29.1133078,169.458813 26.5715749,152.442755 26.4177067,141.137484 C26.4120754,140.456329 26.4100139,139.806646 26.4167932,139.172087 C26.4197072,138.91674 26.4249653,138.678753 26.4301162,138.429903 C26.4361114,138.046323 26.4453549,137.661625 26.458061,137.297536 C26.4683759,137.021474 26.4776795,136.753026 26.486983,136.484579 C26.5034732,136.173689 26.5179407,135.878029 26.5291598,135.583487 C26.5429373,135.328034 26.5609746,135.063846 26.5737407,134.816007 C26.5874111,134.54969 26.6110408,134.301744 26.6270554,134.052786 C26.6660568,133.490702 26.7108649,132.966586 26.7550903,132.49354 C26.7619555,132.418507 26.7687136,132.33261 26.7766973,132.260824 C26.8043724,131.982418 26.830132,131.730105 26.8581286,131.484289 C26.8648866,131.398392 26.8759044,131.303761 26.8902777,131.218876 C26.9152402,130.995905 26.93818,130.788165 26.9634639,130.597785 C26.9714476,130.526 26.97842,130.46183 26.9853923,130.39766 C27.0368643,129.998422 27.0848267,129.683962 27.1122404,129.489215 C29.8665661,128.402753 55.536322,118.154157 81.8973065,104.40469 C95.9123501,97.1045244 107.602776,90.1760391 116.948189,83.6444233 C132.527161,72.7608996 141.581944,62.9792888 143.969135,54.4107378 C152.651875,23.3197106 170.262515,13.7568416 171.522968,13.1120909 C171.51972,13.1132094 171.516472,13.1143279 171.512105,13.112198 L171.515353,13.1110795 C171.515353,13.1110795 171.522968,13.1120909 171.526217,13.1109724 L171.522968,13.1120909 C172.873022,12.9597093 174.235224,12.9375832 175.609362,13.0239853 C176.073567,13.0530874 176.537512,13.1658495 177.00092,13.2242939 C177.908139,13.3370302 178.81637,13.4421512 179.730039,13.6580375 C180.324667,13.8021046 180.929897,14.0297245 181.529321,14.2193756 C182.309593,14.4593932 183.084273,14.683169 183.865296,14.9992314 C184.541621,15.2750408 185.220933,15.6333918 185.897794,15.963519 C186.600856,16.3064253 187.302693,16.6352197 188.004161,17.0368105 C188.73183,17.4511805 189.455882,17.9394654 190.184194,18.4190166 C190.838162,18.8514968 191.495272,19.271995 192.153024,19.7576744 C192.907061,20.3119376 193.651996,20.9347376 194.406676,21.5541821 C195.037645,22.0781518 195.664247,22.5999916 196.292395,23.1685339 C197.047718,23.8531597 197.800329,24.5932217 198.556294,25.3430287 C199.183967,25.973504 199.812759,26.6072276 200.440861,27.281157 C201.174409,28.0713841 201.902901,28.8996872 202.628359,29.7508359 C203.554966,30.8379355 204.486952,31.9195498 205.40153,33.1088953 C205.478539,33.2059172 205.554322,33.2888273 205.628083,33.3869677 C208.930906,37.6817643 212.100097,42.5276276 215.096187,47.7782747 C215.135917,47.8408976 215.175647,47.9035204 215.205632,47.9694987 C215.89655,49.1740876 216.567073,50.4038661 217.236692,51.6521234 C217.309763,51.7904696 217.390449,51.9298272 217.467887,52.0703033 C218.094527,53.2570563 218.714885,54.4677733 219.334232,55.6861055 C219.440643,55.9001751 219.553551,56.1120077 219.661081,56.3293257 C220.247409,57.5045251 220.823087,58.7015588 221.394506,59.9073262 C221.52105,60.1798661 221.648606,60.4447908 221.778398,60.7162122 C222.327768,61.8896032 222.865371,63.0815801 223.397595,64.2790423 C223.538679,64.5938108 223.680776,64.900964 223.822979,65.2189808 C224.338747,66.4003084 224.845888,67.5882399 225.34664,68.7892719 C225.493425,69.1311456 225.636961,69.4741379 225.780497,69.8171301 C226.269052,70.9932938 226.742592,72.1891619 227.215013,73.3817816 C227.363237,73.7594943 227.513591,74.1328402 227.661816,74.5105529 C228.116662,75.6837896 228.558515,76.8615004 228.999357,78.0468264 L228.999357,78.0468264 L228.999357,78.0468264 Z M118.984681,204.980833 C124.10738,206.857691 127.653323,209.69532 129.609993,213.436261 C129.789749,213.926654 131.378944,218.964107 127.336847,226.187645 C126.416175,224.600715 125.092494,223.130752 123.325704,221.787928 C117.156212,217.103117 115.672482,213.395538 115.578245,211.000823 L118.984681,204.980833 L118.984681,204.980833 Z M117.211114,186.977213 L118.691513,188.364146 C119.07751,188.72539 119.391031,189.118855 119.670951,189.520258 C120.055345,190.710486 120.338527,194.086584 115.174541,200.141291 C114.497628,198.924613 113.52527,197.715194 112.104425,196.638401 C108.728481,194.072884 102.609316,185.788134 103.735329,178.231564 C104.197377,175.067582 105.827075,172.424449 108.618722,170.27506 C105.919761,176.534699 111.882362,182.05378 117.211114,186.977213 L117.211114,186.977213 L117.211114,186.977213 Z M19.0270699,176.445356 C13.2314623,167.148094 11.2620932,157.49259 13.8115905,150.619489 C15.5990551,145.796448 19.5124491,142.377876 25.4376049,140.464853 C25.4395604,143.857848 25.6488062,147.778991 26.2765792,151.944807 C27.5900385,160.750649 31.0462096,172.001623 39.4943172,181.014148 C39.7665615,181.298288 39.9966845,181.607833 40.2797924,181.891866 C38.3265362,182.793335 26.1169955,187.760447 19.0270699,176.445356 L19.0270699,176.445356 L19.0270699,176.445356 Z M215.566666,25.7500043 C197.841811,2.69086569 180.992999,-0.613119078 170.000919,0.671924532 L167.511647,1.09303244 L165.944147,1.89074282 C161.998239,3.88528662 141.786546,15.6445551 131.903422,51.0476295 C126.99636,68.6119324 65.121826,101.155391 22.395504,117.88019 L15.9953652,120.323744 L14.804025,127.20518 C14.7341814,127.614378 14.4647661,129.269541 14.2317774,131.864132 C8.46407288,135.31077 4.29387551,140.23119 2.06326032,146.278696 C1.70444664,147.241579 1.4013906,148.239765 1.14961821,149.260261 C-1.37455534,159.362072 1.26872311,171.692312 8.40072299,183.087387 C16.0627441,195.346402 28.3397017,197.655733 38.4786266,195.570777 C39.8622995,196.624035 41.1684278,197.525953 42.3794367,198.257148 L47.3566548,201.136071 L52.1071939,199.758306 C52.1071939,199.758306 66.6852402,195.454477 69.4173761,194.6518 C70.4613347,194.528512 72.4455319,194.561093 73.5659085,195.356197 C74.6512432,196.123398 75.4741221,198.259955 75.8346558,201.217003 C77.7881114,217.410979 77.0398665,223.943638 76.9347926,224.746481 L76.7866931,225.593208 C76.4726369,227.8996 75.2970861,239.797066 82.9534619,248.399113 C87.3976387,253.412754 93.9297705,256.090557 101.478172,255.947665 L125.068246,253.831091 L126.479221,253.6868 L130.481684,251.698217 L131.624674,251.261052 L132.685988,250.143482 C133.480736,249.31754 135.970616,246.534462 137.920062,242.382342 L137.922299,242.388839 C138.891347,240.728949 141.303699,236.253931 142.759553,230.415061 C144.505564,223.371705 144.317093,216.820037 142.183979,210.941596 C140.415067,206.078664 137.443434,201.985942 133.317545,198.730313 C134.53338,190.917539 132.418848,184.058929 127.224242,179.18741 L125.712156,177.782319 C125.149725,177.267452 124.655033,176.791029 124.200975,176.35875 C131.303443,175.395633 147.778455,175.609066 177.314955,188.387881 C184.238973,193.786661 204.880118,207.946092 225.143161,202.825674 C226.484896,202.49085 227.816029,202.072472 229.083468,201.585189 L229.086717,201.584071 C239.073663,197.74924 246.63139,189.518648 251.5395,177.128058 C252.343975,175.085184 253.038208,172.880429 253.615334,170.588825 C257.726649,154.079717 256.291144,129.924486 249.583009,102.570567 C242.228927,72.623119 229.513329,43.9040981 215.566666,25.7500043 L215.566666,25.7500043 L215.566666,25.7500043 Z" fill="#F8941E"></path>
	</g>
</svg>