<?xml version="1.0" encoding="UTF-8"?>
<svg width="256px" height="227px" viewBox="0 0 256 227" version="1.1" xmlns="http://www.w3.org/2000/svg" xmlns:xlink="http://www.w3.org/1999/xlink" preserveAspectRatio="xMidYMid">
    <defs>
        <radialGradient cx="1.27839844%" cy="11.378669%" fx="1.27839844%" fy="11.378669%" r="105.363633%" gradientTransform="translate(0.012784,0.113787),scale(0.886328,1.000000),translate(-0.012784,-0.113787)" id="radialGradient-1">
            <stop stop-color="#FFFFFF" stop-opacity="0.1" offset="0%"></stop>
            <stop stop-color="#FFFFFF" stop-opacity="0" offset="100%"></stop>
        </radialGradient>
    </defs>
		<g>
				<path d="M214.5,62.5 L208.3,75.6 L226,75.6 L226.9,74.1 L233.4,62.5 L214.3,62.5 L214.5,62.5 Z M41.2,62.5 L22.5,62.5 L30,75.6 L47.5,75.6 L41.2,62.5 Z" fill="#9E9E9E"></path>
				<polyline fill="#424242" points="256 23.3 232.7 64 216.4 64 190.3 113.5 128 226.9 65.6 113.5 39.6 64 23.3 64 0 23.3 66.9 23.3 77.8 44.9 113.3 109.6 127.8 136.2 141.8 109.6 176.7 44.9 189 23.2"></polyline>
				<path d="M67.7,24.7 L0.8,24.7 L0,23.3 L66.9,23.3 L67.7,24.7 Z M189.1,23.3 L188.3,24.8 L255.2,24.8 L256,23.3 L189.1,23.3 Z" fill-opacity="0.2" fill="#FFFFFF"></path>
				<polyline fill-opacity="0.2" fill="#263238" points="227 74.2 226.2 75.7 210.4 75.7 190.4 113.6 128 226.9 65.6 113.5 45.7 75.6 29.9 75.6 29.1 74.1 45.7 74.1 46.5 75.6 65.6 112 128 225.5 190.4 112.1 209.6 75.7 210.4 74.2"></polyline>
				<path d="M152.7,128 C152.7,141.7 141.6,152.7 128,152.7 C114.4,152.7 103.3,141.6 103.3,128 C103.3,114.4 114.4,103.3 128,103.3 C141.7,103.3 152.7,114.3 152.7,128 Z M149.8,52.4 C149.8,64.4 140,74.2 128,74.2 C116,74.2 106.2,64.4 106.2,52.4 C106.2,40.4 116,30.5 128,30.5 C140,30.5 149.8,40.3 149.8,52.4 Z" fill="#FFFFFF"></path>
				<path d="M190.4,113.5 C187.1,99.4 179.2,87 168.3,78.2 C174.1,70.1 177.5,60.2 177.5,49.4 C177.5,47.9 177.4,46.4 177.3,44.9 C175,19.7 153.8,0 128,0 C102.2,0 81,19.7 78.8,44.9 C78.7,46.4 78.6,47.9 78.6,49.5 C78.6,60.2 82,70.2 87.8,78.3 C76.9,87.1 68.9,99.4 65.7,113.6 C64.6,118.2 64,123 64,128 C64,155.1 80.9,178.3 104.7,187.6 C111.9,190.4 119.8,192 128,192 C136.2,192 144.1,190.4 151.3,187.6 C175.1,178.3 192,155.1 192,128 C192,123 191.4,118.2 190.4,113.5 Z M128,32 C139.2,32 148.4,41.1 148.4,52.4 C148.4,63.7 139.3,72.8 128,72.8 C116.8,72.8 107.6,63.7 107.6,52.4 C107.6,41.1 116.8,32 128,32 Z M128,151.3 C115.2,151.3 104.7,140.9 104.7,128 C104.7,120.5 108.2,113.9 113.7,109.6 C117.6,106.5 122.6,104.7 128,104.7 C133.4,104.7 138.4,106.5 142.3,109.6 C147.8,113.9 151.3,120.5 151.3,128 C151.3,140.9 140.9,151.3 128,151.3 Z" fill="#4285F4"></path>
				<path d="M177.5,49.5 L177.5,50.2 C177,23.2 155.1,1.5 128,1.5 C100.9,1.5 78.9,23.2 78.5,50.2 L78.5,49.5 C78.5,22.1 100.7,0 128,0 C155.3,0 177.5,22.1 177.5,49.5 Z M87.1,78.8 C73,90.5 64,108.2 64,128 L64,128.7 C64.2,108.9 73.5,91.2 87.8,79.7 L88.5,79.2 L87.8,78.3 L87.1,78.8 Z M168.9,78.8 L168.3,78.3 L167.6,79.2 L168.3,79.8 C182.6,91.4 191.9,109 192.1,128.8 L192.1,128 C192,108.2 183,90.5 168.9,78.8 Z" fill-opacity="0.2" fill="#FFFFFF"></path>
				<path d="M192,127.3 L192,128 C192,163.3 163.3,192 128,192 C92.7,192 64,163.3 64,128 L64,127.3 C64.4,162.3 92.9,190.6 128,190.6 C163.1,190.6 191.6,162.3 192,127.3 Z M78.5,48.7 L78.5,49.4 C78.5,60.5 82.2,70.8 88.4,79.1 C88.6,79 88.9,78.8 89.1,78.6 C82.6,70.4 78.7,60 78.5,48.7 Z M177.5,48.7 C177.3,60 173.4,70.3 166.9,78.6 C167.2,78.8 167.4,79 167.6,79.1 C173.8,71 177.5,60.6 177.5,49.4 L177.5,48.7 Z" fill-opacity="0.2" fill="#263238"></path>
				<path d="M256,23.3 L232.7,64 L226.1,75.6 L210.3,75.6 L190.3,113.5 C191.4,118.2 191.9,123 191.9,128 C191.9,155.1 175,178.3 151.2,187.6 C150.5,187.9 149.7,188.2 149,188.4 L128,226.9 L106.8,188.4 C106.1,188.2 105.3,187.9 104.6,187.6 C80.9,178.2 64,155.1 64,128 C64,123 64.6,118.2 65.6,113.5 L45.7,75.6 L30,75.6 L23.3,64 L0,23.3 L66.9,23.3 L77.8,44.9 L78.4,45.3 C78.4,45.2 78.6,45.1 78.6,44.9 C80.9,19.7 102.1,0 127.9,0 C153.7,0 174.9,19.7 177.2,44.9 C177.2,45 176.9,45.1 176.9,45.2 L176.8,44.9 L189.1,23.2 L256,23.2 L256,23.3 Z" fill="url(#radialGradient-1)"></path>
		</g>
</svg>
