<?xml version="1.0" encoding="UTF-8"?>
<svg width="256px" height="266px" viewBox="0 0 256 266" version="1.1" xmlns="http://www.w3.org/2000/svg" xmlns:xlink="http://www.w3.org/1999/xlink" preserveAspectRatio="xMidYMid">
    <g>
        <path d="M221.101749,0 L255.996276,20.4099019 L197.80928,54.2496961 L197.809,54.29 L255.996276,20.4099019 L255.996276,44.663227 L177.863239,236.260077 L127.976,265.06 L127.976049,265.063662 L127.973,265.061 L127.970527,265.063662 L127.97,265.06 L78.5637649,236.480963 L0,45.4142407 L0,20.4099019 L34.9000488,0 L93.1312219,34.1490351 L92.932,34.263 L93.0870447,34.3257442 L93.0870447,57.3862827 L127.976049,138.981713 L127.976,166.242 L127.981571,166.239093 L127.981571,138.981713 L162.914753,57.3862827 L162.914753,34.1048578 L162.95893,34.1048578 L221.101749,0 Z M71.579,46.548 L58.192518,54.2496961 L58.192,54.29 L71.579,46.548 Z" fill="#1159CC"></path>
        <polygon fill="#127EFF" points="221.101749 4.904663e-15 162.95893 34.1048578 162.914753 34.1048578 162.914753 57.3862827 127.981571 138.981713 127.981571 166.239093 104.733279 179.75734 58.192518 74.7921298 58.192518 54.2496961 93.1312219 34.1490351 34.9000488 0 0 20.4099019 0 45.4142407 78.5637649 236.480963 127.976049 265.063662 127.976049 193.275587 151.268518 179.75734 150.959277 179.580631 197.80928 74.7921298 197.80928 54.2496961 255.996276 20.4099019"></polygon>
    </g>
</svg>