<?xml version="1.0" encoding="UTF-8"?>
<svg width="256px" height="295px" viewBox="0 0 256 295" version="1.1" xmlns="http://www.w3.org/2000/svg" xmlns:xlink="http://www.w3.org/1999/xlink" preserveAspectRatio="xMidYMid">
    <title>Valkey</title>
    <g>
        <path d="M53.1214128,248.653422 L1.42108547e-14,215.311258 L1.42108547e-14,74.0309051 L129.977925,0 L256,74.0309051 L256,222.657837 L127.717439,294.993377 L83.0728477,267.302428 L83.0728477,199.487859 L58.7726269,184.229581 L58.7726269,107.373068 L128.847682,67.2494481 L197.227373,107.373068 L197.227373,187.620309 L142.975717,218.136865 L142.975717,185.924945 C159.364238,179.708609 170.666667,163.88521 170.666667,144.671082 C170.666667,125.456954 151.452539,100.591611 127.717439,100.591611 C103.98234,100.591611 84.7682119,120.370861 84.7682119,144.671082 C84.7682119,168.971302 96.6357616,179.708609 112.459161,185.924945 L112.459161,247.523179 L127.717439,257.130243 L222.657837,203.443709 L222.657837,92.1147903 L128.847682,36.7328918 L32.2119205,92.1147903 L32.2119205,196.662252 L52.5562914,209.660044 L52.5562914,248.0883 L53.1214128,248.653422 Z M128.282561,124.891832 C139.019868,124.891832 147.496689,133.933775 147.496689,145.236203 C147.496689,156.538631 139.019868,165.580574 128.282561,165.580574 C117.545254,165.580574 109.068433,156.538631 109.068433,145.236203 C109.068433,133.933775 117.545254,124.891832 128.282561,124.891832 Z" fill="#6983FF"></path>
    </g>
</svg>
