<?xml version="1.0" encoding="UTF-8"?>
<svg width="256px" height="256px" viewBox="0 0 256 256" version="1.1" xmlns="http://www.w3.org/2000/svg" xmlns:xlink="http://www.w3.org/1999/xlink" preserveAspectRatio="xMidYMid">
    <g fill-rule="evenodd">
        <path d="M142.842667,110.741333 L157.68,110.741333 L157.68,95.8986667 L142.842667,95.8986667 L142.842667,110.741333 Z M142.714667,88.48 L157.552,88.48 L157.552,73.6373333 L142.714667,73.6373333 L142.714667,88.48 Z M120.581333,66.2186667 L135.418667,66.2186667 L135.418667,51.376 L120.576,51.376 L120.576,66.2186667 L120.581333,66.2186667 Z M120.581333,88.48 L135.418667,88.48 L135.418667,73.6373333 L120.576,73.6373333 L120.576,88.48 L120.581333,88.48 Z M120.581333,110.741333 L135.418667,110.741333 L135.418667,95.8933333 L120.576,95.8933333 L120.576,110.736 L120.581333,110.741333 L120.581333,110.741333 Z M120.581333,133.002667 L135.418667,133.002667 L135.418667,118.16 L120.576,118.16 L120.576,132.997333 L120.581333,133.002667 Z M98.32,66.2133333 L113.162667,66.2133333 L113.162667,51.376 L98.32,51.376 L98.32,66.2186667 L98.32,66.2133333 Z M98.32,88.4746667 L113.162667,88.4746667 L113.162667,73.632 L98.32,73.632 L98.32,88.4746667 Z M98.32,110.736 L113.162667,110.736 L113.162667,95.8933333 L98.32,95.8933333 L98.32,110.736 Z M142.714667,66.2133333 L157.552,66.2133333 L157.552,51.376 L142.714667,51.376 L142.714667,66.2186667 L142.714667,66.2133333 Z M0,0 L127.536,256 L256,0 L0,0 Z" fill="#000000"></path>
    </g>
</svg>