<?xml version="1.0" encoding="UTF-8"?>
<svg width="512px" height="116px" viewBox="0 0 512 116" version="1.1" xmlns="http://www.w3.org/2000/svg" xmlns:xlink="http://www.w3.org/1999/xlink" preserveAspectRatio="xMidYMid">
    <g>
        <path d="M255.420487,28.975665 C235.427278,28.975665 221.011885,42.0147142 221.011885,61.5732881 C221.011885,81.1318619 237.238257,94.1709111 257.231466,94.1709111 C269.310696,94.1709111 279.959253,89.3899264 286.551217,81.3310696 L272.697227,73.3265422 C269.039049,77.3288059 263.479344,79.6649689 257.231466,79.6649689 C248.556876,79.6649689 241.186191,75.1375212 238.451613,67.893605 L289.195246,67.893605 C289.593662,65.8653084 289.829089,63.7645727 289.829089,61.5551783 C289.829089,42.0147142 275.413696,28.975665 255.420487,28.975665 Z M238.288625,55.2348613 C240.552349,48.0090549 246.745897,43.4634975 255.402377,43.4634975 C264.076967,43.4634975 270.270515,48.0090549 272.516129,55.2348613 L238.288625,55.2348613 L238.288625,55.2348613 Z M450.426712,28.975665 C430.433503,28.975665 416.01811,42.0147142 416.01811,61.5732881 C416.01811,81.1318619 432.244482,94.1709111 452.237691,94.1709111 C464.316921,94.1709111 474.965478,89.3899264 481.557442,81.3310696 L467.703452,73.3265422 C464.045274,77.3288059 458.485569,79.6649689 452.237691,79.6649689 C443.563101,79.6649689 436.192417,75.1375212 433.457838,67.893605 L484.201471,67.893605 C484.599887,65.8653084 484.835314,63.7645727 484.835314,61.5551783 C484.835314,42.0147142 470.419921,28.975665 450.426712,28.975665 L450.426712,28.975665 Z M433.31296,55.2348613 C435.576684,48.0090549 441.770232,43.4634975 450.426712,43.4634975 C459.101302,43.4634975 465.29485,48.0090549 467.540464,55.2348613 L433.31296,55.2348613 Z M362.630447,61.5732881 C362.630447,72.4391624 369.729485,79.6830787 380.740238,79.6830787 C388.201471,79.6830787 393.797397,76.2965478 396.676853,70.7730617 L410.585173,78.7956989 C404.826259,88.3938879 394.032824,94.1709111 380.740238,94.1709111 C360.728919,94.1709111 346.331636,81.1318619 346.331636,61.5732881 C346.331636,42.0147142 360.747029,28.975665 380.740238,28.975665 C394.032824,28.975665 404.808149,34.7526882 410.585173,44.3508772 L396.676853,52.3735144 C393.797397,46.8500283 388.201471,43.4634975 380.740238,43.4634975 C369.747595,43.4634975 362.630447,50.7074137 362.630447,61.5732881 Z M512,9.0548953 L512,92.3599321 L495.701188,92.3599321 L495.701188,9.0548953 L512,9.0548953 Z M66.9156763,-1.42108547e-14 L133.831353,115.90266 L0,115.90266 L66.9156763,-1.42108547e-14 Z M234.213922,9.0548953 L184.031692,95.9818902 L133.849462,9.0548953 L152.665535,9.0548953 L184.031692,63.3842671 L215.397849,9.0548953 L234.213922,9.0548953 Z M340.898698,30.786644 L340.898698,48.3350311 C339.087719,47.8098472 337.168081,47.4476514 335.103565,47.4476514 C324.581777,47.4476514 316.993775,54.6915676 316.993775,65.557442 L316.993775,92.3599321 L300.694963,92.3599321 L300.694963,30.786644 L316.993775,30.786644 L316.993775,47.4476514 C316.993775,38.2478778 327.696661,30.786644 340.898698,30.786644 Z" fill="#000000" fill-rule="nonzero"></path>
    </g>
</svg>
