<?xml version="1.0" encoding="UTF-8" standalone="no"?>
<svg width="256px" height="223px" viewBox="0 0 256 223" version="1.1" xmlns="http://www.w3.org/2000/svg" xmlns:xlink="http://www.w3.org/1999/xlink" preserveAspectRatio="xMidYMid">
    <g>
        <path d="M255.876213,51.662485 C254.737006,76.6303263 237.331453,110.819347 203.667236,154.211627 C168.861251,199.53928 139.413381,222.200547 115.323625,222.200547 C100.406409,222.200547 87.772727,208.402057 77.4609804,180.794839 C70.5694159,155.489076 63.6855314,130.185872 56.7965269,104.880109 C49.1343974,77.2882505 40.9193043,63.4744013 32.1358876,63.4744013 C30.2209952,63.4744013 23.5188719,67.5115474 12.0448778,75.5551193 L0,60.0081389 C12.6336816,48.884867 25.0984021,37.7641552 37.3608813,26.6280832 C54.2109102,12.038549 66.8599519,4.36617944 75.2900864,3.59049443 C95.2146951,1.67304204 107.477174,15.3179302 112.080084,44.5277189 C117.054196,76.0415225 120.494858,95.6435691 122.430231,103.315939 C128.172348,129.461388 134.490469,142.517472 141.394833,142.517472 C146.752948,142.517472 154.80164,134.038697 165.533229,117.081148 C176.254579,100.118478 181.996696,87.2134346 182.772381,78.3480974 C184.298151,63.7099228 178.553473,56.3729154 165.533229,56.3729154 C159.40455,56.3729154 153.086429,57.7860445 146.586547,60.5790226 C159.166468,19.2885158 183.205023,-0.764093703 218.686853,0.380233689 C244.991023,1.15335868 257.391743,18.2465891 255.876213,51.662485" fill="#32B8E8"></path>
    </g>
</svg>