<?xml version="1.0" encoding="UTF-8" standalone="no"?>
<svg width="256px" height="264px" viewBox="0 0 256 264" version="1.1" xmlns="http://www.w3.org/2000/svg" xmlns:xlink="http://www.w3.org/1999/xlink" preserveAspectRatio="xMidYMid">
	<g>
		<path d="M188.370104,263.646853 L90.4460239,168.606598 L32.4941514,212.720701 L0.508940239,196.675315 L0.533418327,67.2117291 L32.6180717,51.0755697 L90.6143108,95.2238406 L188.299219,0.0943426295 L255.467602,27.0192191 L255.49055,236.824478 L188.370104,263.646853" fill="#FFFFFF"></path>
		<path d="M238.471649,38.5183108 L192.237641,19.9848287 L91.9759044,117.622311 L30.7704861,71.0308207 L17.5288606,77.6903904 L17.5079522,186.187474 L30.6368765,192.7731 L91.788749,146.222916 L192.298327,243.773195 L238.492558,225.313657 L238.471649,38.5183108 L238.471649,38.5183108 Z M37.3586614,157.394614 L37.325004,106.471012 L65.6532908,131.760956 L37.3586614,157.394614 L37.3586614,157.394614 Z M127.989291,131.742088 L184.624446,89.4036653 L184.646884,174.411984 L127.989291,131.742088 L127.989291,131.742088 Z" fill="#68217A"></path>
	</g>
</svg>
