<?xml version="1.0" encoding="UTF-8"?>
<svg width="512px" height="82px" viewBox="0 0 512 82" version="1.1" xmlns="http://www.w3.org/2000/svg" preserveAspectRatio="xMidYMid">
    <title>wmware</title>
    <g fill="#717074">
        <path d="M351.282274,1.63347741 C361.920799,1.63347741 370.279641,4.29310881 375.978851,9.99231897 C381.298114,15.3115818 383.957745,22.9105287 383.957745,32.4092123 L383.957745,74.5833674 C383.957745,77.6229462 381.678061,80.2825776 378.258535,80.2825776 C375.218956,80.2825776 372.559325,78.0028935 372.559325,74.9633148 L372.559325,67.3643679 C367.240062,74.5833674 358.121326,80.6625249 344.823169,80.6625249 C331.281845,81.0386728 316.995749,73.2223201 316.711381,57.9507917 L316.707065,57.485737 C316.707065,41.1480012 330.005222,32.4092123 349.382537,32.4092123 C359.261168,32.4092123 366.10022,33.5490543 372.939272,35.448791 L372.939272,32.7891596 C372.939272,18.7311079 364.580431,12.272003 350.142432,12.272003 C342.760597,12.272003 338.247133,12.9890955 332.770716,15.4681866 L332.284906,15.6915291 C331.525012,16.0714765 330.765117,16.0714765 330.38517,16.0714765 C327.725538,16.0714765 325.065907,13.7917924 325.065907,11.132161 C325.065907,8.4725296 326.205749,7.33268756 328.105486,6.19284553 L329.204671,5.75887831 C336.270398,3.00861104 341.885527,1.63347741 351.282274,1.63347741 Z M261.234753,1.25353006 C264.274332,1.25353006 266.554016,3.15326678 267.313911,6.19284553 L286.311278,62.4250524 L305.688592,6.19284553 C306.448487,3.91316147 307.968276,1.63347741 311.387802,1.63347741 C314.807329,1.63347741 317.087013,3.91316147 317.087013,6.95274022 C317.087013,8.09258225 316.707065,9.23242428 316.327118,9.99231897 L292.770383,74.9633148 C291.630541,78.3828409 289.350856,80.2825776 286.311278,80.2825776 L285.93133,80.2825776 C283.271699,80.2825776 280.612068,78.7627882 279.472226,74.9633148 L260.474858,19.8709499 L241.477491,74.9633148 C240.337649,78.3828409 238.437912,80.2825776 235.018386,80.2825776 L234.638439,80.2825776 C231.59886,80.6625249 229.319176,78.3828409 228.179334,75.3432621 L205.002546,10.3722663 C204.622599,9.61237163 204.242651,8.4725296 204.242651,7.33268756 C204.242651,4.67305616 206.522336,1.63347741 210.321809,1.63347741 C212.98144,1.63347741 215.261124,3.53321413 216.400966,6.57279288 L235.398334,62.4250524 L254.775648,6.19284553 C255.535543,3.53321413 257.43528,1.25353006 260.474858,1.25353006 L261.234753,1.25353006 Z M350.142432,40.7680538 C335.704432,40.7680538 327.725538,47.2271587 327.725538,56.7258423 L327.725538,57.1057896 C327.725538,66.6044732 336.464327,72.3036834 346.722905,72.3036834 C361.540852,72.3036834 372.939272,63.5648945 372.939272,51.4065795 L372.939272,43.8076326 C367.240062,42.2878432 359.641115,40.7680538 350.142432,40.7680538 Z M403.33506,1.63347741 C406.374638,1.63347741 409.414217,3.91316147 409.414217,7.71263491 L409.414217,21.0107919 C415.113427,8.09258225 427.65169,2.39337209 435.630584,2.39337209 C439.05011,2.39337209 441.329794,4.67305616 441.329794,8.4725296 C441.329794,11.5121083 439.430057,13.7917924 436.010531,14.5516871 C421.192585,16.0714765 409.03427,27.4698968 409.03427,49.5068427 L409.03427,75.3432621 C409.03427,78.3828409 406.754586,81.4224196 403.33506,81.4224196 C400.295481,81.4224196 397.255902,79.1427356 397.255902,75.3432621 L397.255902,7.71263491 L397.635849,7.71263491 C397.635849,4.67305616 399.915534,1.63347741 403.33506,1.63347741 Z M477.044844,1.63347741 C499.461738,1.63347741 512,19.8709499 512,40.3881065 C512,43.4276852 509.720316,45.7073693 506.680737,45.7073693 L451.96832,45.7073693 C453.488109,62.0451051 465.266477,71.5437887 478.564634,71.5437887 C487.68337,71.5437887 494.90237,68.1242626 500.221632,62.8049998 C500.981527,62.0451051 502.121369,61.6651577 503.261211,61.6651577 C505.920842,61.6651577 508.200527,63.9448418 508.200527,66.6044732 C508.200527,67.7443152 507.820579,69.2641046 506.680737,70.0239993 C499.461738,76.4831042 491.102896,81.0424723 478.184686,81.0424723 C457.872701,81.0424723 441.28458,65.4022438 440.954849,42.2323625 L440.949847,41.1480012 C440.949847,19.1110552 456.14774,1.63347741 477.044844,1.63347741 Z M476.664897,11.132161 C463.36674,11.132161 453.488109,22.150634 452.348267,36.9685804 L500.60158,36.9685804 C499.461738,22.9105287 491.482843,11.132161 476.664897,11.132161 Z"></path>
        <path d="M20.7280844,6.57279288 C18.4484003,0.873582718 11.9892954,-1.40610135 6.29008529,0.873582718 C0.590875127,3.15326678 -1.68880894,9.99231897 1.35076981,15.3115818 L25.6673998,68.1242626 C29.4668733,76.4831042 33.646294,81.0424723 41.2452409,81.0424723 C49.2241351,81.0424723 52.6436612,76.1031568 56.823082,68.1242626 C56.823082,68.1242626 78.1001333,21.7706866 78.4800806,21.3907393 C78.860028,21.0107919 79.2399753,19.4910026 81.5196594,19.4910026 C83.4193961,19.4910026 84.5592381,21.0107919 84.5592381,22.9105287 L84.5592381,67.7443152 C84.5592381,74.5833674 88.3587116,80.6625249 95.5777111,80.6625249 C103.176658,80.6625249 106.976131,74.9633148 106.976131,67.7443152 L106.976131,31.2693702 C106.976131,24.0503707 112.295394,19.4910026 118.754499,19.4910026 C125.593551,19.4910026 130.152919,24.430318 130.152919,31.2693702 L130.152919,68.1242626 C130.152919,74.9633148 133.952393,81.0424723 141.171392,81.0424723 C148.770339,81.0424723 152.569813,75.3432621 152.569813,68.1242626 L152.569813,31.2693702 C152.569813,24.0503707 157.889075,19.4910026 164.34818,19.4910026 C171.187233,19.4910026 175.746601,24.430318 175.746601,31.2693702 L175.746601,68.1242626 C175.746601,74.9633148 179.546074,81.0424723 186.765074,81.0424723 C194.364021,81.0424723 198.163494,75.3432621 198.163494,68.1242626 L198.163494,26.3300548 C198.163494,10.7522137 186.005179,0.11368803 170.807285,0.11368803 C155.609391,0.11368803 146.490655,10.3722663 146.490655,10.3722663 C141.171392,3.91316147 134.712288,0.11368803 122.93392,0.11368803 C110.775605,0.11368803 99.7571319,10.3722663 99.7571319,10.3722663 C94.8178164,3.91316147 86.0790275,0.11368803 79.6199227,0.11368803 C68.981397,0.11368803 60.2426081,5.0530035 54.9233453,16.8313712 L39.3455042,53.3063162 L20.7280844,6.57279288"></path>
    </g>
</svg>
