<?xml version="1.0" encoding="UTF-8"?>
<svg width="512px" height="170px" viewBox="0 0 512 170" version="1.1" xmlns="http://www.w3.org/2000/svg" xmlns:xlink="http://www.w3.org/1999/xlink" preserveAspectRatio="xMidYMid">
    <g>
        <path d="M427.708635,0 C424.563543,0 420.790115,0 417.645023,0.626628033 L399.404513,32.5556314 C407.581411,27.546022 417.645023,25.0429247 427.708635,25.0429247 C460.416228,25.0429247 487.461972,51.9623186 487.461972,84.51795 C487.461972,117.073581 460.416228,143.992975 427.708635,143.992975 C395.001042,143.992975 368.583634,117.698502 367.955298,85.144578 L349.086452,117.073581 C361.665114,147.749329 392.485993,169.0359 427.0803,169.0359 C473.624932,169.0359 511.992667,130.845739 511.992667,84.51795 C512.62271,38.1901614 474.253268,0 427.708635,0 Z" fill="#BF3078"></path>
        <path d="M171.083113,88.2743033 L185.550195,63.2313786 L218.257788,118.951758 L255.99548,54.4671233 L293.733171,118.951758 L358.520022,9.39088333 C361.665114,3.75635333 367.955298,0 374.873818,0 L393.114328,0 L293.734879,169.0359 L255.997187,104.551265 L218.257788,169.0359 L171.083113,88.2743033 L171.083113,88.2743033 Z" fill="#802050"></path>
        <path d="M198.130564,0 L98.7511143,169.0359 L0,0 L18.2405103,0 C25.1590302,0 31.4492146,3.75635333 34.5943068,9.39088333 L98.7511143,119.576679 L163.536257,9.39088333 C166.681349,3.75635333 172.969826,0 179.890054,0 L198.130564,0 Z" fill="#26134D"></path>
    </g>
</svg>