<?xml version="1.0" encoding="UTF-8" standalone="no"?>
<svg width="256px" height="252px" viewBox="0 0 256 252" version="1.1" xmlns="http://www.w3.org/2000/svg" xmlns:xlink="http://www.w3.org/1999/xlink" preserveAspectRatio="xMidYMid">
    <g>
        <path d="M256,128 C256,57.308 198.692,0 128,0 C57.308,0 0,57.308 0,128 C0,187.228 40.228,237.059 94.851,251.664 C104.346,210.601 114.11,168.559 117.646,149.167 C119.239,139.832 116.684,136.854 110.178,133.352 C84.148,122.973 58.173,131.265 38.843,93.045 C89.255,100.458 115.998,88.738 128.794,110.178 L128.794,110.18 C141.59,88.74 168.333,100.46 218.744,93.047 C199.414,131.267 173.44,122.975 147.41,133.354 C140.904,136.856 138.349,139.834 139.942,149.17 C143.466,168.496 153.177,210.323 162.642,251.255 C216.503,236.148 256,186.687 256,128" fill="#03CACF"></path>
    </g>
</svg>
