<?xml version="1.0" encoding="UTF-8"?>
<svg width="256px" height="258px" viewBox="0 0 256 258" version="1.1" xmlns="http://www.w3.org/2000/svg" preserveAspectRatio="xMidYMid">
    <title>WhatsApp</title>
    <g>
        <path d="M128.534362,0 C162.632154,0.0167797743 194.636347,13.290872 218.701124,37.3827556 C242.767193,61.4746393 256.012889,93.5020654 256,127.557263 C255.971869,197.135888 199.924108,253.875359 130.640455,255.00319 L128.536943,255.0203 L128.484023,255.0203 C107.478684,255.012675 86.8337321,249.825746 68.4330329,239.974525 L67.5721511,239.509335 L4.26325641e-14,257.232649 L18.0834337,191.178422 C6.93004678,171.851995 1.06099804,149.92212 1.0700333,127.455293 C1.09842984,57.1777263 58.2787376,0 128.534362,0 Z M128.578247,21.5297412 C70.1407473,21.5297412 22.6139727,69.0526435 22.5907312,127.465619 C22.5831119,147.178041 28.0151402,166.387184 38.3097958,183.078384 L38.7883844,183.846952 L41.3079321,187.856027 L30.6050176,226.949029 L70.7022244,216.431983 L74.5706077,218.725649 C90.5784714,228.224681 108.891521,233.324608 127.588094,233.490269 L128.493058,233.494432 L128.536943,233.494432 C186.929267,233.494432 234.454751,185.967657 234.479283,127.550809 C234.489601,99.2433297 223.480779,72.6241539 203.477997,52.5994294 C183.475215,32.5747049 156.875401,21.5387764 128.578247,21.5297412 Z M83.4083858,68.5931358 C85.5303818,68.5931358 87.6575409,68.6124971 89.5123514,68.7080127 C91.4678404,68.8035284 94.0932297,67.9645397 96.677315,74.1743469 C97.6685436,76.5543557 99.1775305,80.2307392 100.720967,83.9868313 L101.052055,84.7924848 C103.536525,90.8373856 106.02081,96.8636995 106.498646,97.8209211 C107.293749,99.4137089 107.824248,101.276264 106.76325,103.399551 C105.702252,105.52671 105.170462,106.853603 103.578965,108.716158 C101.986177,110.57355 100.234627,112.868506 98.8018926,114.294787 C98.7240697,114.372295 98.6460932,114.450123 98.5683791,114.528424 L98.3364397,114.764902 C96.9161294,116.233847 95.7279512,117.917644 97.405299,120.792432 C99.262691,123.98188 105.654494,134.413737 115.122159,142.857835 C127.287496,153.707896 137.550264,157.071595 140.734549,158.666964 C143.918833,160.261043 145.777516,159.995148 147.634908,157.866698 C149.493591,155.743411 155.596266,148.569412 157.719552,145.379964 C159.842839,142.191807 161.966126,142.724888 164.885807,143.787177 C166.273238,144.292199 170.540323,146.298457 174.9776,148.435687 L176.357151,149.101654 C180.800645,151.251317 185.134043,153.390201 186.647883,154.148042 C189.833459,155.743411 191.956746,156.539805 192.751849,157.866698 C193.548243,159.197463 193.548243,165.572487 190.894457,173.012381 C188.240671,180.452274 175.516439,187.24292 169.396985,188.158063 C163.909998,188.9764 156.967044,189.318449 149.33741,186.895708 C144.712646,185.426832 138.779059,183.467471 131.180403,180.186379 C99.2317129,166.392114 78.3654182,134.220124 76.7739212,132.096837 L76.7739212,132.096837 L76.6655403,131.952082 C74.7246668,129.357515 63.7683053,114.507305 63.7683053,99.1478141 C63.7683053,83.4729234 71.9968485,75.7671347 74.9152385,72.5789776 C77.8349192,69.393402 81.2850989,68.5931358 83.4083858,68.5931358 Z" fill="#455A64"></path>
    </g>
</svg>
