<?xml version="1.0" encoding="UTF-8" standalone="no"?>
<svg width="256px" height="192px" viewBox="0 0 256 192" version="1.1" xmlns="http://www.w3.org/2000/svg" xmlns:xlink="http://www.w3.org/1999/xlink" preserveAspectRatio="xMidYMid">
    <g fill-rule="evenodd">
        <path d="M198.751242,31.3023697 C181.263093,12.0719287 156.041439,0 128,0 C99.9585608,0 74.7369069,12.0719287 57.2487583,31.3023697 L198.751242,31.3023697 L198.751242,31.3023697 Z M57.2487583,159.909005 C74.7369069,179.139458 99.9585608,191.211374 128,191.211374 C156.041439,191.211374 181.263093,179.139458 198.751242,159.909005 L57.2487583,159.909005 Z M42.464455,39.4312796 C19.0117247,39.4312796 0,58.4429558 0,81.8957346 L0,109.31564 C0,132.768419 19.0117247,151.780095 42.464455,151.780095 L213.535545,151.780095 C236.988275,151.780095 256,132.768419 256,109.31564 L256,81.8957346 C256,58.4429558 236.988275,39.4312796 213.535545,39.4312796 L42.464455,39.4312796 Z M251.632227,81.4104265 C251.632227,60.6379799 234.7933,43.7990521 214.020853,43.7990521 L171.556398,43.7990521 C150.783951,43.7990521 133.945024,60.6379799 133.945024,81.4104265 L133.945024,109.922275 C133.945024,130.694722 117.106096,147.533649 96.3336493,147.533649 L214.020853,147.533649 C234.7933,147.533649 251.632227,130.694722 251.632227,109.922275 L251.632227,81.4104265 Z M104.098578,83.9582938 L104.098578,124.117536 L116.23128,124.117536 L116.23128,83.9582938 L104.098578,83.9582938 Z M102.885308,71.2796209 C102.885308,75.2665964 106.117302,78.4985782 110.104265,78.4985782 C114.091229,78.4985782 117.323223,75.2665964 117.323223,71.2796209 C117.323223,67.2926453 114.091229,64.0606635 110.104265,64.0606635 C106.117302,64.0606635 102.885308,67.2926453 102.885308,71.2796209 L102.885308,71.2796209 Z M21.9601896,65.5165877 L37.6113744,124.117536 L47.6815166,124.117536 L59.450237,83.5943128 L71.2189573,124.117536 L81.6530806,124.117536 L97.0616114,65.5165877 L85.292891,65.5165877 L76.3146919,104.098578 L65.1526066,65.5165877 L54.3545024,65.5165877 L43.1924171,103.127962 L34.6995261,65.5165877 L21.9601896,65.5165877 Z M153.236019,65.5165877 L153.236019,124.117536 L166.096682,124.117536 L166.096682,101.18673 L195.215166,101.18673 L195.215166,89.2966825 L166.096682,89.2966825 L166.096682,77.4066351 L197.156398,77.4066351 L197.156398,65.5165877 L153.236019,65.5165877 Z M205.891943,83.9582938 L205.891943,124.117536 L218.024645,124.117536 L218.024645,83.9582938 L205.891943,83.9582938 L205.891943,83.9582938 Z M204.8,71.1582938 C204.8,75.1452694 208.031994,78.3772512 212.018957,78.3772512 C216.005921,78.3772512 219.237915,75.1452694 219.237915,71.1582938 C219.237915,67.1713183 216.005921,63.9393365 212.018957,63.9393365 C208.031994,63.9393365 204.8,67.1713183 204.8,71.1582938 L204.8,71.1582938 Z" fill="#000000"></path>
    </g>
</svg>
