<?xml version="1.0" encoding="UTF-8"?>
<svg width="512px" height="132px" viewBox="0 0 512 132" version="1.1" xmlns="http://www.w3.org/2000/svg" preserveAspectRatio="xMidYMid">
    <title>Wing</title>
    <g>
        <path d="M168.981338,0 L168.981338,14.883472 L168.218186,14.9113504 C165.810325,15.0937282 162.346702,16.3007601 158.093339,22.2036174 C152.981191,29.3121813 148.731768,40.464363 144.657469,51.5371249 L141.78823,59.3275902 C138.32659,68.625768 134.653227,77.8150944 130.151528,85.1736326 C123.065418,96.7548735 114.767644,102.386045 104.773541,102.386045 C95.5990539,102.386045 88.9646499,97.4003557 84.4857249,92.2820643 C80.0162172,97.4003557 73.3818131,102.386045 64.213927,102.386045 C54.2132235,102.386045 45.9153552,96.7558164 38.8294334,85.1736326 C34.3275767,77.8204376 30.6539913,68.6276146 27.1997024,59.3503318 L22.6892009,47.1318133 C19.1001011,37.5579704 15.3168186,28.3632648 10.8809276,22.1972998 C6.16117262,15.6449814 2.41088994,14.883472 0,14.883472 L0,0.00644580513 L40.5515044,0.00644580513 C49.3020728,0.00644580513 57.0131564,4.54315384 63.4612812,13.4821855 C68.7830962,20.8791229 72.9374899,30.7782466 76.7767613,40.9550047 L79.6104466,48.6048712 C81.2008144,52.9385119 82.8145332,57.3358979 84.4890168,61.5365756 C85.6059393,58.7391022 86.6947496,55.854903 87.7668841,52.9614495 L91.2461722,43.516123 C95.3590165,32.445406 99.7540159,21.4955344 105.519397,13.4821855 C111.968088,4.53031115 119.678417,0 128.42974,0 L168.981338,0 Z M40.5450924,14.883472 L23.8792963,14.883472 C29.5944487,23.374203 33.9512626,34.7448686 38.098714,46.0036314 L41.0417624,53.9884926 C47.2657485,70.686516 54.3939277,87.5027612 64.2075151,87.5027612 L64.9723626,87.4745529 C67.6295886,87.2723148 71.3572903,85.8461466 75.9495253,78.94125 C73.0793677,73.1968331 70.5249558,66.7649149 68.0925617,60.2663789 L63.2372654,47.1238766 C59.6516022,37.5622033 55.8683053,28.3632648 51.4323377,22.1972998 C46.7062839,15.6449814 42.955973,14.883472 40.5450924,14.883472 Z M145.088464,14.8770601 L128.423139,14.8770601 C126.01207,14.8770601 122.262042,15.6384752 117.536083,22.1972055 C112.76392,28.8319476 108.74473,38.989058 104.917573,49.3163543 L100.881961,60.2517988 C98.4458632,66.7584146 95.8952524,73.1903504 93.0250241,78.9348381 C98.0768598,86.536542 102.081479,87.5027612 104.76694,87.5027612 C115.641739,87.5027612 123.218172,66.8604454 129.902595,48.6432484 L131.822824,43.432676 C135.696431,33.0108522 139.818839,22.7145771 145.088464,14.8770601 Z" fill="#68D2C2"></path>
        <path d="M218.508677,102.113314 L195.091039,0 L214.172147,0 L224.146449,49.0085829 L230.362236,80.3154943 L230.79504,80.3154943 L238.023533,49.0085829 L249.587612,0 L270.692246,0 L282.256326,49.0085829 L289.339607,80.3154943 L289.773355,80.3154943 L296.13341,49.0085829 L306.396247,0 L324.610804,0 L300.46994,102.113314 L278.931558,102.113314 L266.066237,48.1307829 L259.85045,21.2126829 L259.561914,21.2126829 L253.056648,48.1307829 L240.191326,102.113314 L218.508677,102.113314 Z M362.165775,102.113314 L362.165775,24.9056657 L380.751846,24.9056657 L380.751846,37.1906229 L381.477901,37.1906229 C383.02619,33.0116914 385.446689,29.5292486 388.73751,26.7432943 C392.125454,23.8577743 396.772207,22.4151086 402.676828,22.4151086 C410.518224,22.4151086 416.519966,25.0518086 420.682054,30.3252086 C424.844142,35.5986086 426.926129,43.1107286 426.926129,52.8615686 L426.926129,102.113314 L408.340058,102.113314 L408.340058,54.80178 C408.340058,49.2298714 407.371671,45.05094 405.435838,42.2649857 C403.500005,39.4790314 400.305362,38.0860543 395.852852,38.0860543 C393.917019,38.0860543 392.029275,38.3845629 390.189621,38.98158 C388.447088,39.4790314 386.849767,40.2750857 385.398599,41.3695543 C384.042668,42.3645514 382.930011,43.6579629 382.058745,45.2499771 C381.187479,46.7424257 380.751846,48.5333829 380.751846,50.6228486 L380.751846,102.113314 L362.165775,102.113314 Z M512,107.6856 C512,111.640886 511.229627,115.114371 509.687938,118.106057 C508.249029,121.192971 505.833245,123.75 502.44153,125.7762 C499.050758,127.8024 494.682169,129.3468 489.337648,130.407514 C483.993127,131.469171 477.467116,132 469.758673,132 C463.728957,132 458.511324,131.656567 454.105774,130.970364 L452.49176,130.696971 C447.763914,129.925714 443.858303,128.767886 440.774925,127.223486 C437.794327,125.7762 435.635963,123.943286 434.299833,121.7238 C432.963703,119.505257 432.296109,116.996314 432.296109,114.197914 C432.296109,109.952229 433.52946,106.623943 435.996162,104.212114 C438.565643,101.895514 442.111056,100.400143 446.633342,99.7250571 L446.633342,98.1325714 C443.344407,97.3613143 440.774925,95.8659429 438.924899,93.6463629 C437.177652,91.3306114 436.3045,88.6290429 436.3045,85.5414686 C436.3045,83.6117229 436.715617,80.6779286 437.537851,79.2305486 C438.360085,77.6868086 439.438795,76.3842514 440.774925,75.3228771 C442.213835,74.2615029 443.807385,73.3931314 445.554632,72.7177629 C447.301879,71.9458457 449.151905,71.3669314 451.104711,70.9809257 L451.104711,70.4020114 C446.171307,68.2793571 442.471254,65.3364171 440.004553,61.5734743 C437.64063,57.8104371 436.458197,53.4203057 436.458197,48.4029857 C436.458197,40.6840029 439.285098,34.5088543 444.937956,29.87754 C450.590815,25.1496771 458.864073,22.7857457 469.758673,22.7857457 C472.225375,22.7857457 474.640216,22.9304743 477.004138,23.2199314 C479.47084,23.5093886 481.731984,23.9917543 483.787568,24.6672171 L483.787568,22.2068314 C483.787568,14.87376 487.590401,11.2072714 495.196065,11.2072714 L507.683272,11.2072714 L507.683272,25.39086 L490.570999,25.39086 L490.570999,27.41706 C494.784948,29.6362629 497.920186,32.5309286 499.974828,36.1008686 C502.030413,39.6709029 503.058206,43.7715771 503.058206,48.4029857 C503.058206,56.02542 500.232248,62.1523886 494.579389,66.7837971 C489.02931,71.4151114 480.756052,73.7308629 469.758673,73.7308629 C465.030828,73.7308629 460.919658,73.2966771 457.425163,72.4282114 C455.883475,73.1036743 454.547344,74.02032 453.416773,75.1781486 C452.286201,76.2395229 451.721387,77.5903543 451.721387,79.2305486 C451.721387,84.2389114 455.215881,86.1203829 462.20487,86.1203829 L483.787568,86.1203829 C493.654376,86.1203829 500.798005,88.0501286 505.21657,91.9095257 C509.738857,95.6726571 512,100.930971 512,107.6856 Z M493.500679,109.856057 C493.500679,107.444229 492.472886,105.562286 490.417301,104.212114 C488.361716,102.861 484.815361,102.184971 479.779178,102.184971 L452.338062,102.184971 C449.563022,104.115 448.175031,106.720114 448.175031,110.001257 C448.175031,112.895829 449.460243,115.1634 452.029724,116.803029 C454.599206,118.4436 458.966852,119.263886 465.133607,119.263886 L475.000414,119.263886 C481.475507,119.263886 486.151491,118.491686 489.02931,116.948229 C492.009908,115.403829 493.500679,113.040086 493.500679,109.856057 Z M469.758673,61.1392886 C479.419922,61.1392886 484.250547,57.2797971 484.250547,49.5608143 L484.250547,47.1004286 C484.250547,39.3814457 479.419922,35.5219543 469.758673,35.5219543 C460.097424,35.5219543 455.266799,39.3814457 455.266799,47.1004286 L455.266799,49.5608143 C455.266799,57.2797971 460.097424,61.1392886 469.758673,61.1392886 Z M331.22545,24.9054771 L348.661148,24.9054771 L348.661148,102.113314 L331.22545,102.113314 L331.22545,24.9054771 Z M331.226393,0 L348.661148,0 L348.661148,14.9434371 L331.226393,14.9434371 L331.226393,0 Z" fill="#68D2C2"></path>
    </g>
</svg>
