<?xml version="1.0" encoding="UTF-8" standalone="no"?>
<svg width="256px" height="152px" viewBox="0 0 256 152" version="1.1" xmlns="http://www.w3.org/2000/svg" xmlns:xlink="http://www.w3.org/1999/xlink" preserveAspectRatio="xMidYMid">
    <g>
        <path d="M182.776422,67.0342543 C177.194415,59.7923895 171.671237,52.6257358 166.162207,45.4784434 C181.821017,28.3854085 202.75131,21.673745 222.957043,29.0183735 C243.321391,36.4203413 256.866098,55.826305 255.956862,77.2629695 C255.14071,96.5036176 246.101969,111.239044 228.932978,120.073747 C211.122831,129.237591 193.662676,127.26274 177.262924,116.003409 C165.22244,107.73763 156.31327,96.3889393 147.352719,85.0975875 C138.25515,73.6349628 129.364597,61.9802146 119.745763,50.9673674 C110.84404,40.7758855 100.33682,32.4587247 86.734029,29.1539025 C61.462341,23.0148862 35.2315247,38.986456 29.0939977,64.2030389 C22.8708343,89.7718482 38.2288004,115.796392 63.4409152,122.273486 C81.9622172,127.031894 97.8079387,121.391059 111.380199,108.894839 C119.109074,101.778823 126.026265,93.7811233 133.589081,85.8876768 C139.056409,92.72221 144.820859,99.9260969 150.944982,107.580506 C147.836751,111.170535 144.718095,114.972048 141.390189,118.580694 C128.242388,132.841024 113.401964,144.525559 94.1456774,149.496196 C50.6944885,160.714571 5.98183749,130.200443 0.583762626,85.6054488 C-4.60133812,42.7700977 25.3133347,4.85846996 68.0987933,0.42250197 C88.6642001,-1.71021791 107.038058,4.30965203 123.454193,16.7060863 C138.190364,27.8343565 149.434057,42.1907485 160.659879,56.592565 C167.521964,65.3959918 174.311073,74.2828211 181.662404,82.6677464 C185.536894,87.0865871 190.214878,91.009481 195.119985,94.2673894 C203.166833,99.6111037 212.082704,98.9654793 219.422864,93.4288968 C226.451755,88.1261391 229.685834,79.0062297 227.524072,70.5788586 C225.291567,61.8729829 217.850132,55.2097226 208.908198,54.0152803 C203.460975,53.2869981 198.526082,54.9431326 194.159368,57.9962581 C190.320621,60.6792852 186.796867,63.8128346 182.776422,67.0342543" fill="#000000"></path>
    </g>
</svg>