<?xml version="1.0" encoding="UTF-8"?>
<svg width="512px" height="123px" viewBox="0 0 512 123" version="1.1" xmlns="http://www.w3.org/2000/svg" xmlns:xlink="http://www.w3.org/1999/xlink" preserveAspectRatio="xMidYMid">
    <title>Worrkplace</title>
    <g>
        <path d="M475.629421,60.3808846 C475.637097,59.0921677 475.92109,57.8199531 476.458375,56.6502064 C477.026363,55.3825971 477.839966,54.2377959 478.845457,53.2810444 C479.977593,52.2183711 481.293942,51.3740657 482.733099,50.7907275 C484.429385,50.1079915 486.248479,49.7733396 488.075249,49.806728 C489.786886,49.7756422 491.483172,50.1110617 493.052813,50.7907275 C494.396026,51.3759846 495.612593,52.2225926 496.625759,53.2810444 C497.542982,54.2577522 498.264479,55.4014021 498.751874,56.6502064 C499.223917,57.8368392 499.473371,59.1025296 499.477209,60.3808846 L475.629421,60.3808846 Z M504.773306,75.3300779 C504.358828,75.7453226 503.752464,76.2814565 502.958049,76.9388633 C502.0178,77.6853059 500.989283,78.3120108 499.895524,78.8043943 C496.549004,80.3387273 492.899303,81.1012885 489.215061,81.0352792 C487.572504,81.0268361 485.945297,80.7462965 484.394845,80.2055573 C482.809854,79.6763314 481.336157,78.8684847 480.03516,77.8203948 C478.764864,76.7888072 477.709482,75.5173601 476.926581,74.0785871 C476.10914,72.5841667 475.698501,70.9016965 475.73304,69.1985024 L511.999897,69.1985024 L511.999897,67.4492553 C512.007467,64.0240621 511.596828,60.6107659 510.771711,57.2861218 C510.000323,54.083902 508.630246,51.0562999 506.734397,48.3610471 C504.804008,45.6784588 502.263416,43.4928593 499.323699,41.9842392 C496.245822,40.359719 492.496339,39.5468833 488.075249,39.5453482 C484.406359,39.5453482 481.071353,40.2019875 478.066393,41.5156498 C475.138189,42.7744323 472.493978,44.6084937 470.287271,46.9084581 C468.084402,49.2283789 466.357414,51.9570202 465.206088,54.9408719 C463.97417,58.132346 463.36013,61.5279885 463.390832,64.9481926 C463.390832,68.8884121 463.997196,72.4840014 465.206088,75.7341931 C466.319036,78.8489122 468.080564,81.6907671 470.379377,84.0697893 C472.67819,86.4484276 475.456722,88.3089695 478.534599,89.5274556 C481.712257,90.842653 485.239151,91.4992923 489.111442,91.4977599 C492.914654,91.4977599 496.18058,91.0836638 498.913059,90.2550933 C501.645538,89.4265228 503.894461,88.4931816 505.652151,87.4546861 C507.417516,86.4135041 508.764567,85.4279695 509.700978,84.4984661 L511.408778,82.786829 L504.773306,75.3189484 L504.773306,75.3300779 Z M450.645659,75.5377002 C449.241042,77.1487883 447.510216,78.4417268 445.564476,79.3309338 C443.480577,80.2800097 441.216304,80.757426 438.929004,80.7297942 C436.576462,80.7297942 434.534778,80.2834637 432.80779,79.3911865 C431.134531,78.5395894 429.66851,77.3372219 428.505671,75.865828 C427.362021,74.411704 426.502365,72.7587844 425.961242,70.9903485 C425.412443,69.2103994 425.132287,67.3579168 425.132287,65.4946884 C425.132287,63.5627644 425.412443,61.6412022 425.961242,59.7894871 C426.471663,58.0099218 427.335157,56.3520131 428.505671,54.9163103 C429.683861,53.5017151 431.149882,52.3526924 432.80779,51.5448457 C434.534778,50.6821191 436.576462,50.2499883 438.929004,50.2484532 C441.346787,50.2484532 443.488253,50.6947837 445.357238,51.5874447 C447.218547,52.4843272 448.880293,53.7550067 450.231182,55.3204256 L458.010304,47.4396029 C455.665438,44.9769178 452.840853,43.0181295 449.713085,41.6829758 C446.46251,40.2668455 442.866537,39.5580128 438.929004,39.5564777 C435.06055,39.5564777 431.518306,40.2480405 428.294595,41.6315499 C425.220556,42.9152777 422.434348,44.8019164 420.100995,47.1797872 C417.767642,49.557658 415.937035,52.3787891 414.708954,55.476622 C413.423308,58.6558153 412.77089,62.0560631 412.789667,65.4858616 C412.789667,69.3535475 413.377255,72.8796736 414.555444,76.0642397 C415.653041,79.1221601 417.383867,81.9137405 419.636627,84.2574553 C421.847172,86.5378472 424.579651,88.3005265 427.830227,89.545493 C431.080802,90.7904596 434.780395,91.4129429 438.929004,91.4129429 C443.077613,91.4129429 446.708126,90.6872241 449.816705,89.2354027 C452.860042,87.835391 455.604034,85.8662407 457.906685,83.4338739 L450.645659,75.5511324 L450.645659,75.5377002 Z M391.548124,72.6371277 C391.548124,73.8809429 391.202727,75.1001966 390.554147,76.1624862 C389.890216,77.2754341 389.026722,78.2578985 388.009718,79.0630587 C385.791497,80.8061654 383.051343,81.7552414 380.228293,81.7583116 C377.323115,81.7583116 375.127537,81.1707518 373.64156,79.9956323 C372.155582,78.8205128 371.411826,77.1956089 371.410291,75.1205366 C371.410291,73.1168466 372.205473,71.3368975 373.795837,69.781073 C375.385818,68.2252486 378.151685,67.4469526 382.091905,67.4469526 C382.855617,67.4469526 383.769002,67.4642225 384.843573,67.4983785 C385.914305,67.5340696 386.942823,67.5854954 387.909936,67.654575 C389.088126,67.7236545 390.29318,67.7931178 391.548124,67.8621973 L391.548124,72.6325224 L391.548124,72.6371277 Z M391.843631,89.799936 L403.184187,89.799936 L403.184187,57.169838 C403.218727,54.7282605 402.73517,52.3070231 401.768057,50.0657763 C400.82397,47.9147166 399.411677,46.0012137 397.634798,44.4653456 C395.731273,42.8496522 393.53608,41.6169664 391.164349,40.8348327 C388.635271,39.9721062 385.818361,39.5399753 382.717458,39.538824 C380.163818,39.5123435 377.614016,39.7030798 375.094149,40.1098814 C373.139582,40.434939 371.214566,40.9207983 369.339824,41.5624704 C367.829669,42.0813344 366.371323,42.7410438 364.98436,43.5323882 C363.739394,44.2584908 362.633354,44.9673234 361.666624,45.6588863 L367.267055,53.9545698 C369.014767,52.8347139 370.853817,51.8645304 372.765017,51.0539973 C374.838555,50.16172 377.603654,49.7153896 381.05955,49.7153896 C384.171966,49.7153896 386.704882,50.409255 388.646784,51.7904618 C390.588687,53.1716685 391.559638,55.0748095 391.559638,57.4956631 L391.559638,58.635859 L387.714211,58.4282367 C386.597425,58.3591572 385.461451,58.3081151 384.287099,58.272424 C383.112747,58.2363491 382.038176,58.2209981 381.071063,58.2209981 C378.12981,58.1906799 375.200454,58.5748388 372.36781,59.3611941 C369.739334,60.1241391 367.492331,61.2478327 365.627183,62.7326587 C363.770863,64.2048202 362.279897,66.0853184 361.269417,68.227935 C360.228235,70.405859 359.707452,72.8781385 359.707452,75.6447735 C359.707452,78.3400263 360.208662,80.6902653 361.211467,82.6954905 C362.140586,84.611296 363.486869,86.2949176 365.151686,87.622012 C366.760471,88.8938428 368.588393,89.86134 370.544878,90.475764 C372.472965,91.0913393 374.484714,91.406035 376.508744,91.4087214 C379.827631,91.4087214 382.836429,90.7858543 385.53053,89.5408877 C388.228469,88.2959212 390.231776,86.8632886 391.5558,85.2637137 L391.866658,89.799936 L391.843631,89.799936 Z M336.828313,89.799936 L349.100291,89.799936 L349.100291,20.5975633 L336.828313,20.5975633 L336.828313,89.7865038 L336.828313,89.799936 Z M289.811252,63.5090358 C289.826603,62.0318853 290.122494,60.5712371 290.683573,59.2049976 C291.274203,57.7090421 292.113903,56.3239976 293.166982,55.1081979 C294.256136,53.8505667 295.575555,52.812455 297.053857,52.0491262 C298.624648,51.2428146 300.368906,50.8337103 302.134656,50.8578882 C304.484895,50.8578882 306.454813,51.2550954 308.045177,52.0491262 C309.577207,52.7986391 310.910058,53.9004575 311.934354,55.2643944 C312.965558,56.6778382 313.70586,58.2816346 314.111894,59.9836773 C314.570889,61.8825968 314.795782,63.8310232 314.781198,65.7848225 C314.785804,67.6906498 314.47034,69.5838126 313.848625,71.3852532 C313.244563,73.1513864 312.311989,74.7874198 311.099643,76.2070041 C309.876552,77.6342638 308.376759,78.7986376 306.690834,79.6298946 C304.853703,80.5198692 302.832359,80.963897 300.791443,80.926287 C295.882575,80.926287 292.165329,79.9242501 289.807031,77.9182575 L289.807031,63.5021279 L289.811252,63.5090358 Z M277.71773,110.541447 L289.824684,110.541447 L289.824684,88.8984482 C290.768387,89.2465322 291.560499,89.567752 292.354914,89.8847503 C293.200754,90.2113429 294.065016,90.4888124 294.943093,90.7144721 C295.96547,90.972369 297.003966,91.1623377 298.051288,91.2836107 C299.411387,91.4336668 300.779546,91.5027463 302.148088,91.491233 C305.613194,91.4896979 309.045679,90.8207779 312.257877,89.5209314 C315.542224,88.2088042 318.56714,85.8927212 321.33224,82.5726824 C323.064217,80.445033 324.463461,78.0671622 325.482384,75.5196628 C326.587657,72.8244099 327.140455,69.5749858 327.140455,65.7713903 C327.150271,62.5772298 326.699335,59.3984203 325.801302,56.3332082 C324.953926,53.3980958 323.583849,50.6399039 321.756311,48.1914184 C319.944893,45.7951264 317.625356,43.8301977 314.964259,42.4370939 C312.23178,40.9852725 308.999242,40.25917 305.267029,40.25917 C303.432967,40.2392137 301.603127,40.4483711 299.820875,40.882037 C298.319547,41.2531476 296.86005,41.7762331 295.465411,42.4436181 C294.283384,43.0050811 293.170052,43.7004817 292.147291,44.5163877 C291.316034,45.1830051 290.53582,45.9110265 289.813555,46.6943116 L289.501162,41.1963489 L277.71773,41.1963489 L277.71773,110.541447 Z M224.567175,89.7907254 L236.839153,89.7907254 L236.839153,72.6279171 L242.116061,67.4158668 L256.208668,89.7907254 L270.83242,89.7907254 L250.496559,59.1132753 L268.748137,41.1963489 L254.33431,41.1963489 L236.830326,58.4151883 L236.830326,20.5975633 L224.558348,20.5975633 L224.558348,89.7865038 L224.567175,89.7907254 Z M184.942391,89.7907254 L197.214369,89.7907254 L197.214369,63.6003743 C197.182515,61.9927402 197.487617,60.3958519 198.110867,58.9133285 C198.733735,57.4304213 199.660552,56.0948838 200.831066,54.9922978 C201.967808,53.9365324 203.309102,53.1244642 204.771669,52.6071353 C206.300629,52.0521964 207.915555,51.771273 209.541994,51.7770296 C210.565522,51.7662839 211.588283,51.8357472 212.601066,51.984652 C213.472619,52.1270326 214.3246,52.370346 215.140122,52.7096032 L217.630439,41.1986515 C216.705157,40.8643834 215.749173,40.6214537 214.776303,40.4737003 C213.728981,40.3274819 212.672448,40.2580186 211.614764,40.2660779 C209.80795,40.2388299 208.007277,40.4832946 206.273381,40.9910292 C204.84497,41.4212411 203.470671,42.0126386 202.176581,42.7537084 C201.071309,43.392694 200.04471,44.1587092 199.11751,45.036403 C198.360705,45.7502247 197.650337,46.5120184 196.991012,47.3167949 L196.680921,41.1963489 L184.948915,41.1963489 L184.948915,89.7865038 L184.942391,89.7907254 Z M142.952401,79.5270429 C141.265709,78.6297766 139.796234,77.372913 138.648363,75.8454879 C137.518145,74.346846 136.658105,72.6620731 136.107004,70.8675405 C135.561659,69.1217473 135.281887,67.3038045 135.276898,65.4747321 C135.289563,63.6629297 135.569335,61.8630242 136.107004,60.1329659 C136.643138,58.3326767 137.504713,56.6456011 138.648363,55.1550185 C139.807747,53.652155 141.275304,52.4144802 142.952401,51.5248894 C144.679389,50.5923158 146.71877,50.1252614 149.070544,50.1237225 C151.422318,50.1221912 153.462467,50.5892456 155.19099,51.5248894 C156.866936,52.4148639 158.333725,53.6525388 159.492726,55.1550185 C160.636376,56.6456011 161.497951,58.3326767 162.034085,60.1329659 C162.571754,61.8630242 162.851526,63.6629297 162.864191,65.4747321 C162.859201,67.3038045 162.579429,69.1217473 162.034085,70.8675405 C161.482984,72.6620731 160.622944,74.346846 159.492726,75.8454879 C158.344854,77.3721454 156.876531,78.629009 155.19099,79.5270429 C153.462467,80.4596165 151.422318,80.926287 149.070544,80.926287 C146.71877,80.926287 144.679389,80.4596165 142.952401,79.5270429 Z M130.196483,83.780039 C132.53636,86.2043466 135.34521,88.1274439 138.45187,89.4315118 C141.667905,90.811951 145.211301,91.5031301 149.081674,91.5042839 C152.952046,91.5058165 156.495442,90.8150212 159.711478,89.4315118 C162.817754,88.1266763 165.626604,86.2039629 167.966865,83.780039 C171.4573,80.0566526 173.814063,75.415276 174.760069,70.4001024 C175.706074,65.3853125 175.202561,60.2043481 173.308631,55.4654926 C172.079016,52.3937563 170.26491,49.5902789 167.966865,47.2097216 C165.614707,44.8130458 162.808159,42.9091373 159.711478,41.6092909 C156.498512,40.2257815 152.955116,39.5342187 149.081674,39.5342187 C145.208231,39.5342187 141.664835,40.2257815 138.45187,41.6092909 C135.354804,42.9083698 132.548257,44.8122783 130.196483,47.2097216 C127.896902,49.5887438 126.082797,52.3929887 124.854716,55.4654926 C122.933538,60.1997428 122.415442,65.3872314 123.362599,70.4077779 C124.310139,75.4287081 126.682254,80.0708522 130.196483,83.780039 L130.196483,83.780039 Z M104.983223,86.6583526 C103.374438,88.5814499 100.435871,91.5668367 95.7994838,91.5668367 C89.2507448,91.5668367 87.1376788,86.859067 85.1516424,81.8811196 L75.3120315,57.7055881 L65.5257653,81.8722928 C63.8544245,85.9955729 62.0472273,91.5691394 54.8713997,91.5691394 C47.6959558,91.5691394 45.8749427,85.9909676 44.2016831,81.8722928 L27.6903715,41.2166889 L41.6200277,41.2166889 L54.876005,74.6853356 L64.7559123,50.2933549 C66.3178772,46.4333445 68.1830244,40.6053351 75.3166368,40.6053351 C82.4498654,40.6053351 84.3284447,46.4352634 85.8992364,50.2933549 L96.6449405,76.7024578 C101.122829,69.9460964 103.505305,62.0176856 103.49264,53.9123545 C103.49264,31.0911271 84.9912244,12.5918219 62.1700354,12.589596 C55.7655957,12.5917835 49.424479,13.8554016 43.5082014,16.3083004 C37.5923075,18.7611609 32.2173063,22.3552535 27.6902563,26.8853737 C23.1632447,31.4154939 19.5728363,36.7929128 17.1240439,42.7107256 C14.675213,48.6281546 13.41597,54.9704226 13.4181576,61.3748623 C13.4203451,67.7793019 14.6839631,74.1204186 17.1368236,80.0363125 C19.5897224,85.9522064 23.183815,91.327361 27.7139352,95.8543727 C32.2440554,100.381384 37.6214744,103.971985 43.5392872,106.42047 C49.4570999,108.869339 55.7989842,110.128505 62.2034238,110.126587 C66.6586695,110.125051 71.0935751,109.518687 75.3857163,108.323611 L75.3857163,121.282546 C71.0551976,122.229703 66.6360267,122.709038 62.2034238,122.712876 C54.0766013,122.824939 46.0088802,121.320924 38.4680824,118.288716 C30.9274381,115.256893 24.064272,110.756745 18.2771347,105.050393 C12.4899974,99.3436563 7.89421324,92.544312 4.75662116,85.0468808 C1.61906746,77.5494495 0.00222277099,69.5036036 2.27298559e-06,61.3760136 C-0.00220983194,53.2488073 1.61024063,45.2018101 4.74372632,37.7026902 C7.87721201,30.2035703 12.4692735,23.4016932 18.2533022,17.6920401 C24.037331,11.9823486 30.8980409,7.47863212 38.4369966,4.44243343 C45.9762593,1.40621555 54.0432129,-0.10199621 62.1700354,0.00535299042 C91.9413923,0.00535299042 116.077082,24.1407674 116.077082,53.9123545 C116.0962,65.751434 112.199347,77.2643046 104.994353,86.6583526 L104.983223,86.6583526 Z" fill="#20252D"></path>
    </g>
</svg>
