<?xml version="1.0" encoding="UTF-8" standalone="no"?>
<svg width="256px" height="256px" viewBox="0 0 256 256" version="1.1" xmlns="http://www.w3.org/2000/svg" xmlns:xlink="http://www.w3.org/1999/xlink" preserveAspectRatio="xMidYMid">
    <g>
        <path d="M86.8392157,256 L169.160784,256 L169.160784,193.756863 L149.082353,173.678431 L106.415686,173.678431 L86.8392157,193.756863 L86.8392157,256 Z M193.254902,86.8392157 L173.678431,106.415686 L173.678431,149.584314 L193.254902,169.160784 L256,169.160784 L256,86.8392157 L193.254902,86.8392157 Z M169.160784,0 L86.8392157,0 L86.8392157,62.745098 L106.415686,82.3215686 L149.082353,82.3215686 L169.160784,62.745098 L169.160784,0 Z M256,256 L256,193.756863 L236.423529,173.678431 L173.678431,173.678431 L173.678431,256 L256,256 Z M19.5764706,0 L0,19.5764706 L0,82.3215686 L82.3215686,82.3215686 L82.3215686,0 L19.5764706,0 Z M173.678431,0 L173.678431,62.745098 L193.254902,82.3215686 L256,82.3215686 L256,0 L173.678431,0 Z M128,140.047059 C121.47451,140.047059 116.454902,134.52549 116.454902,128.501961 C116.454902,121.976471 121.976471,116.956863 128,116.956863 C134.52549,116.956863 139.545098,122.478431 139.545098,128.501961 C139.545098,134.52549 134.52549,140.047059 128,140.047059 Z M82.3215686,86.8392157 L0,86.8392157 L0,169.160784 L62.2431373,169.160784 L82.3215686,149.584314 L82.3215686,86.8392157 Z M82.3215686,193.756863 L62.2431373,173.678431 L0,173.678431 L0,256 L62.2431373,256 L82.3215686,236.423529 L82.3215686,193.756863 Z" fill="#40BAC8"></path>
    </g>
</svg>
