<?xml version="1.0" encoding="UTF-8"?>
<svg width="256px" height="262px" viewBox="0 0 256 262" version="1.1" xmlns="http://www.w3.org/2000/svg" xmlns:xlink="http://www.w3.org/1999/xlink" preserveAspectRatio="xMidYMid">
    <title>Xcode</title>
    <defs>
        <linearGradient x1="49.997009%" y1="100.064806%" x2="49.997009%" y2="-0.0159521436%" id="linearGradient-1">
            <stop stop-color="#1578E4" offset="0%"></stop>
            <stop stop-color="#00C3F2" offset="100%"></stop>
        </linearGradient>
        <linearGradient x1="51.6818182%" y1="99.5466667%" x2="51.6818182%" y2="-0.213333333%" id="linearGradient-2">
            <stop stop-color="#1492E7" offset="0%"></stop>
            <stop stop-color="#DBEDFB" offset="100%"></stop>
        </linearGradient>
        <linearGradient x1="47.1%" y1="99.5466667%" x2="47.1%" y2="-0.213333333%" id="linearGradient-3">
            <stop stop-color="#1492E7" offset="0%"></stop>
            <stop stop-color="#DBEDFB" offset="100%"></stop>
        </linearGradient>
        <linearGradient x1="49.7%" y1="99.5466667%" x2="49.7%" y2="-0.213333333%" id="linearGradient-4">
            <stop stop-color="#1492E7" offset="0%"></stop>
            <stop stop-color="#DBEDFB" offset="100%"></stop>
        </linearGradient>
        <linearGradient x1="50.2%" y1="99.5466667%" x2="50.2%" y2="-0.213333333%" id="linearGradient-5">
            <stop stop-color="#1492E7" offset="0%"></stop>
            <stop stop-color="#DBEDFB" offset="100%"></stop>
        </linearGradient>
        <linearGradient x1="45.8%" y1="99.5466667%" x2="45.8%" y2="-0.213333333%" id="linearGradient-6">
            <stop stop-color="#1492E7" offset="0%"></stop>
            <stop stop-color="#DBEDFB" offset="100%"></stop>
        </linearGradient>
        <linearGradient x1="46.9166667%" y1="99.5466667%" x2="46.9166667%" y2="-0.213333333%" id="linearGradient-7">
            <stop stop-color="#1492E7" offset="0%"></stop>
            <stop stop-color="#DBEDFB" offset="100%"></stop>
        </linearGradient>
        <linearGradient x1="51.2%" y1="99.5466667%" x2="51.2%" y2="-0.213333333%" id="linearGradient-8">
            <stop stop-color="#1492E7" offset="0%"></stop>
            <stop stop-color="#DBEDFB" offset="100%"></stop>
        </linearGradient>
        <linearGradient x1="52.6%" y1="99.5466667%" x2="52.6%" y2="-0.213333333%" id="linearGradient-9">
            <stop stop-color="#1492E7" offset="0%"></stop>
            <stop stop-color="#DBEDFB" offset="100%"></stop>
        </linearGradient>
        <linearGradient x1="48.0454545%" y1="99.5466667%" x2="48.0454545%" y2="-0.213333333%" id="linearGradient-10">
            <stop stop-color="#1492E7" offset="0%"></stop>
            <stop stop-color="#DBEDFB" offset="100%"></stop>
        </linearGradient>
        <linearGradient x1="49.9484144%" y1="99.9428385%" x2="49.9484144%" y2="0.0384870991%" id="linearGradient-11">
            <stop stop-color="#1285E7" offset="0%"></stop>
            <stop stop-color="#00B5EF" offset="100%"></stop>
        </linearGradient>
        <linearGradient x1="66.5598353%" y1="100.134948%" x2="33.1852289%" y2="0.0968858131%" id="linearGradient-12">
            <stop stop-color="#2B90E7" offset="0%"></stop>
            <stop stop-color="#00B6EF" offset="100%"></stop>
        </linearGradient>
        <linearGradient x1="66.7683223%" y1="100.21273%" x2="33.1888392%" y2="0.149078727%" id="linearGradient-13">
            <stop stop-color="#3795EA" offset="0%"></stop>
            <stop stop-color="#49C4F2" offset="100%"></stop>
        </linearGradient>
        <linearGradient x1="66.7432345%" y1="99.892916%" x2="33.2548494%" y2="0.153212521%" id="linearGradient-14">
            <stop stop-color="#3696EA" offset="0%"></stop>
            <stop stop-color="#90D9F6" offset="100%"></stop>
        </linearGradient>
        <linearGradient x1="66.8180557%" y1="99.8862876%" x2="33.3245853%" y2="-0.0886287625%" id="linearGradient-15">
            <stop stop-color="#3097EA" offset="0%"></stop>
            <stop stop-color="#B5E5F9" offset="100%"></stop>
        </linearGradient>
        <linearGradient x1="66.8369893%" y1="99.9757366%" x2="33.3877313%" y2="-0.110918544%" id="linearGradient-16">
            <stop stop-color="#3A98EA" offset="0%"></stop>
            <stop stop-color="#BCE7FA" offset="100%"></stop>
        </linearGradient>
        <linearGradient x1="1.22727273%" y1="67.6060606%" x2="99.3484848%" y2="31.5550964%" id="linearGradient-17">
            <stop stop-color="#00A4EC" offset="0%"></stop>
            <stop stop-color="#B9DFF6" offset="100%"></stop>
        </linearGradient>
        <linearGradient x1="-0.196969697%" y1="66.3471074%" x2="97.9090909%" y2="29.437787%" id="linearGradient-18">
            <stop stop-color="#00A4EC" offset="0%"></stop>
            <stop stop-color="#B9DFF6" offset="100%"></stop>
        </linearGradient>
        <linearGradient x1="-4.09090909%" y1="62.7460315%" x2="93.3939394%" y2="25.8463787%" id="linearGradient-19">
            <stop stop-color="#00B4EF" offset="0%"></stop>
            <stop stop-color="#C3E9FA" offset="100%"></stop>
        </linearGradient>
        <linearGradient x1="-3.99640072%" y1="62.6507421%" x2="91.1817636%" y2="26.5673709%" id="linearGradient-20">
            <stop stop-color="#00B4EF" offset="0%"></stop>
            <stop stop-color="#C3E9FA" offset="100%"></stop>
        </linearGradient>
        <linearGradient x1="50.0413752%" y1="100.188302%" x2="50.0413752%" y2="-0.0337564272%" id="linearGradient-21">
            <stop stop-color="#1285E7" offset="0%"></stop>
            <stop stop-color="#00B5EF" offset="100%"></stop>
        </linearGradient>
        <linearGradient x1="33.3279318%" y1="100.227036%" x2="66.9185923%" y2="0.0190641248%" id="linearGradient-22">
            <stop stop-color="#3194E9" offset="0%"></stop>
            <stop stop-color="#71CFF4" offset="100%"></stop>
        </linearGradient>
        <linearGradient x1="33.2667273%" y1="100.304858%" x2="66.8501048%" y2="0.227805695%" id="linearGradient-23">
            <stop stop-color="#5AA6EC" offset="0%"></stop>
            <stop stop-color="#A2DEF8" offset="100%"></stop>
        </linearGradient>
        <linearGradient x1="33.2984646%" y1="99.8105437%" x2="66.6919818%" y2="0.0708401977%" id="linearGradient-24">
            <stop stop-color="#66ABEE" offset="0%"></stop>
            <stop stop-color="#BEE8FA" offset="100%"></stop>
        </linearGradient>
        <linearGradient x1="33.1742352%" y1="99.9698492%" x2="66.7800056%" y2="-0.172529313%" id="linearGradient-25">
            <stop stop-color="#7BB6F0" offset="0%"></stop>
            <stop stop-color="#B1E3F9" offset="100%"></stop>
        </linearGradient>
        <linearGradient x1="33.2024185%" y1="99.9514731%" x2="66.5685326%" y2="-0.187175043%" id="linearGradient-26">
            <stop stop-color="#5AA6EC" offset="0%"></stop>
            <stop stop-color="#AFE3F9" offset="100%"></stop>
        </linearGradient>
        <linearGradient x1="8.38329875%" y1="26.3755789%" x2="104.985154%" y2="63.3655682%" id="linearGradient-27">
            <stop stop-color="#C1E7FA" offset="0%"></stop>
            <stop stop-color="#89D4F5" offset="100%"></stop>
        </linearGradient>
        <linearGradient x1="6.80597015%" y1="27.8330469%" x2="103.462687%" y2="62.708304%" id="linearGradient-28">
            <stop stop-color="#C1E7FA" offset="0%"></stop>
            <stop stop-color="#89D4F5" offset="100%"></stop>
        </linearGradient>
        <linearGradient x1="5.56716418%" y1="29.4954333%" x2="102.208955%" y2="63.6362219%" id="linearGradient-29">
            <stop stop-color="#C1E7FA" offset="0%"></stop>
            <stop stop-color="#89D4F5" offset="100%"></stop>
        </linearGradient>
        <linearGradient x1="3.89552239%" y1="29.9521051%" x2="100.537313%" y2="64.1020272%" id="linearGradient-30">
            <stop stop-color="#B0DFF8" offset="0%"></stop>
            <stop stop-color="#52BDF2" offset="100%"></stop>
        </linearGradient>
        <linearGradient x1="3.73134328%" y1="31.3129873%" x2="100.402985%" y2="65.4629093%" id="linearGradient-31">
            <stop stop-color="#B4DEF8" offset="0%"></stop>
            <stop stop-color="#4EB5F0" offset="100%"></stop>
        </linearGradient>
        <linearGradient x1="3.58208955%" y1="32.6738695%" x2="100.223881%" y2="66.8146581%" id="linearGradient-32">
            <stop stop-color="#B4DEF8" offset="0%"></stop>
            <stop stop-color="#4EB5F0" offset="100%"></stop>
        </linearGradient>
        <linearGradient x1="2.07462687%" y1="32.9752729%" x2="98.7014925%" y2="67.1160615%" id="linearGradient-33">
            <stop stop-color="#B5DDF8" offset="0%"></stop>
            <stop stop-color="#46AEEE" offset="100%"></stop>
        </linearGradient>
        <linearGradient x1="0.52238806%" y1="34.1390065%" x2="97.1791045%" y2="67.4560036%" id="linearGradient-34">
            <stop stop-color="#96CEF4" offset="0%"></stop>
            <stop stop-color="#46AAEE" offset="100%"></stop>
        </linearGradient>
        <linearGradient x1="2.16363636%" y1="39.3218881%" x2="92.3818182%" y2="60.1845602%" id="linearGradient-35">
            <stop stop-color="#8FC1F2" offset="0%"></stop>
            <stop stop-color="#3193EA" offset="100%"></stop>
        </linearGradient>
        <linearGradient x1="-3.97014925%" y1="37.2082666%" x2="92.6865672%" y2="73.0486813%" id="linearGradient-36">
            <stop stop-color="#8FC1F2" offset="0%"></stop>
            <stop stop-color="#3193EA" offset="100%"></stop>
        </linearGradient>
        <linearGradient x1="-4.11940299%" y1="36.0083606%" x2="92.5223881%" y2="73.5799588%" id="linearGradient-37">
            <stop stop-color="#8FC1F2" offset="0%"></stop>
            <stop stop-color="#3193EA" offset="100%"></stop>
        </linearGradient>
        <linearGradient x1="45.5937817%" y1="48.14%" x2="53.2405163%" y2="54.5347368%" id="linearGradient-38">
            <stop stop-color="#000000" offset="0.1%"></stop>
            <stop stop-color="#000000" stop-opacity="0" offset="100%"></stop>
        </linearGradient>
        <radialGradient cx="64.4820335%" cy="29.6598317%" fx="64.4820335%" fy="29.6598317%" r="42.3574792%" gradientTransform="translate(0.644820,0.296598),scale(0.719397,1.000000),rotate(116.705984),translate(-0.644820,-0.296598)" id="radialGradient-39">
            <stop stop-color="#000000" offset="0%"></stop>
            <stop stop-color="#000000" stop-opacity="0" offset="100%"></stop>
        </radialGradient>
        <radialGradient cx="48.3006342%" cy="48.5078314%" fx="48.3006342%" fy="48.5078314%" r="73.4044487%" gradientTransform="translate(0.483006,0.485078),scale(0.700649,1.000000),rotate(26.116636),translate(-0.483006,-0.485078)" id="radialGradient-40">
            <stop stop-color="#0C0C12" offset="41.7%"></stop>
            <stop stop-color="#3D4651" offset="100%"></stop>
        </radialGradient>
        <linearGradient x1="40.33462%" y1="40.6763006%" x2="60.7083596%" y2="55.0549133%" id="linearGradient-41">
            <stop stop-color="#344351" offset="0%"></stop>
            <stop stop-color="#9697A0" offset="10%"></stop>
            <stop stop-color="#8B8C95" offset="18.1%"></stop>
            <stop stop-color="#787A83" offset="35.1%"></stop>
            <stop stop-color="#71747D" offset="47%"></stop>
            <stop stop-color="#777982" offset="59.1%"></stop>
            <stop stop-color="#87898F" offset="74.9%"></stop>
            <stop stop-color="#8E8F94" offset="80%"></stop>
            <stop stop-color="#3D3B42" offset="84.9%"></stop>
            <stop stop-color="#606E84" offset="90%"></stop>
        </linearGradient>
        <linearGradient x1="74.136314%" y1="89.045968%" x2="18.5029381%" y2="4.37796999%" id="linearGradient-42">
            <stop stop-color="#262B33" offset="27%"></stop>
            <stop stop-color="#74747E" offset="45%"></stop>
            <stop stop-color="#B0B0BC" offset="54%"></stop>
            <stop stop-color="#74747E" offset="73%"></stop>
        </linearGradient>
        <linearGradient x1="-1.74958249%" y1="55.3282043%" x2="97.9170936%" y2="48.1215475%" id="linearGradient-43">
            <stop stop-color="#606E84" offset="14%"></stop>
            <stop stop-color="#9899A5" offset="40%"></stop>
            <stop stop-color="#475768" offset="73%"></stop>
            <stop stop-color="#262B33" offset="92%"></stop>
        </linearGradient>
        <linearGradient x1="52.1559441%" y1="71.3939241%" x2="41.5517795%" y2="26.3025475%" id="linearGradient-44">
            <stop stop-color="#101215" stop-opacity="0.1" offset="0%"></stop>
            <stop stop-color="#101215" stop-opacity="0.7" offset="46%"></stop>
            <stop stop-color="#474951" offset="70%"></stop>
            <stop stop-color="#7B7D88" offset="91%"></stop>
        </linearGradient>
        <linearGradient x1="42.6281223%" y1="42.6158885%" x2="57.8382698%" y2="54.0125254%" id="linearGradient-45">
            <stop stop-color="#2C3952" offset="11.5%"></stop>
            <stop stop-color="#3D414E" offset="37.4%"></stop>
            <stop stop-color="#474A54" offset="55%"></stop>
            <stop stop-color="#4E5057" offset="75.4%"></stop>
            <stop stop-color="#323945" offset="89.2%"></stop>
            <stop stop-color="#143052" offset="100%"></stop>
        </linearGradient>
        <linearGradient x1="29.790026%" y1="69.5002733%" x2="58.0648946%" y2="23.5423464%" id="linearGradient-46">
            <stop stop-color="#6D7078" stop-opacity="0" offset="11.8%"></stop>
            <stop stop-color="#6D7078" stop-opacity="0.7" offset="20%"></stop>
            <stop stop-color="#35363A" offset="34%"></stop>
            <stop stop-color="#1D1F22" offset="37.4%"></stop>
            <stop stop-color="#101215" offset="40%"></stop>
            <stop stop-color="#16171A" offset="50%"></stop>
            <stop stop-color="#292A2E" offset="56%"></stop>
            <stop stop-color="#4B4D51" offset="68.8%"></stop>
            <stop stop-color="#63666B" offset="80.7%"></stop>
            <stop stop-color="#72757B" offset="91.5%"></stop>
            <stop stop-color="#777A80" offset="100%"></stop>
        </linearGradient>
        <linearGradient x1="-0.164118631%" y1="50.0043285%" x2="99.9573642%" y2="50.0043285%" id="linearGradient-47">
            <stop stop-color="#4A4D56" offset="0%"></stop>
            <stop stop-color="#29292D" offset="100%"></stop>
        </linearGradient>
        <linearGradient x1="-0.189811699%" y1="49.5838027%" x2="99.9358594%" y2="49.5838027%" id="linearGradient-48">
            <stop stop-color="#767880" offset="0%"></stop>
            <stop stop-color="#0C0A0B" offset="41%"></stop>
        </linearGradient>
        <linearGradient x1="31.7262767%" y1="89.0314465%" x2="67.0245243%" y2="8.6918239%" id="linearGradient-49">
            <stop stop-color="#858997" offset="0%"></stop>
            <stop stop-color="#244668" offset="23%"></stop>
            <stop stop-color="#1A3249" offset="28.2%"></stop>
            <stop stop-color="#040506" offset="40%"></stop>
            <stop stop-color="#313236" offset="46.4%"></stop>
            <stop stop-color="#65656E" offset="54.6%"></stop>
            <stop stop-color="#868691" offset="60.7%"></stop>
            <stop stop-color="#92929E" offset="64%"></stop>
        </linearGradient>
    </defs>
    <g>
        <path d="M49.8468558,18.8917307 L178.447191,18.8917307 C205.988148,18.8917307 228.294047,41.1976297 228.294047,68.7385865 L228.294047,197.338922 C228.294047,224.879879 205.988148,247.185778 178.447191,247.185778 L49.8468558,247.185778 C22.3058989,247.185778 0,224.879879 0,197.338922 L0,68.7385865 C0,41.1976297 22.3058989,18.8917307 49.8468558,18.8917307 Z" fill="url(#linearGradient-1)"></path>
        <path d="M174.577801,31.1827363 L53.7162464,31.1827363 C30.7275138,31.1827363 12.0633943,49.8468558 12.0633943,72.8355884 L12.0633943,193.697143 C12.0633943,216.685875 30.7275138,235.349995 53.7162464,235.349995 L174.577801,235.349995 C197.566533,235.349995 216.230653,216.685875 216.230653,193.697143 L216.230653,72.6079772 C216.230653,49.6192446 197.566533,31.1827363 174.577801,31.1827363 Z M212.816485,194.152365 C212.816485,215.092597 195.973255,231.935827 175.033023,231.935827 L53.261024,231.935827 C32.5484036,231.935827 15.4775625,215.092597 15.4775625,194.152365 L15.4775625,72.1527547 C15.4775625,51.2125231 32.3207923,34.3692933 53.261024,34.3692933 L175.260635,34.3692933 C195.973255,34.3692933 213.044096,51.2125231 213.044096,72.1527547 L213.044096,194.152365 L212.816485,194.152365 Z" fill="#FFFFFF"></path>
        <path d="M114.48844,39.37674 C63.0483062,39.37674 21.1678429,81.2572033 21.1678429,132.697338 C21.1678429,184.137472 63.0483062,226.017935 114.48844,226.017935 C166.156186,226.017935 207.809038,184.137472 207.809038,132.697338 C207.809038,81.2572033 165.928575,39.37674 114.48844,39.37674 L114.48844,39.37674 Z M114.48844,224.652268 C63.7311398,224.652268 22.5335102,183.454638 22.5335102,132.697338 C22.5335102,81.9400369 63.7311398,40.7424072 114.48844,40.7424072 C165.245741,40.7424072 206.443371,81.9400369 206.443371,132.697338 C206.443371,183.454638 165.245741,224.652268 114.48844,224.652268 Z" fill="#69C5F3"></path>
        <path d="M114.48844,58.4960819 C73.2908108,58.4960819 40.0595736,91.7273191 40.0595736,132.924949 C40.0595736,174.122578 73.2908108,207.126204 114.48844,207.126204 C155.68607,207.126204 188.917307,173.894967 188.917307,132.697338 C188.917307,91.4997079 155.458459,58.4960819 114.48844,58.4960819 L114.48844,58.4960819 Z M114.48844,205.532926 C74.2012556,205.532926 41.6528521,172.984522 41.6528521,132.697338 C41.6528521,92.4101527 74.2012556,59.8617492 114.48844,59.8617492 C154.775625,59.8617492 187.324029,92.4101527 187.324029,132.697338 C187.324029,172.984522 154.548014,205.532926 114.48844,205.532926 Z" fill="#68C5F4"></path>
        <g transform="translate(32.768209, 149.768179)">
            <path d="M10.4779213,0 L152.507319,0 C158.42521,0 162.977434,4.77983549 162.977434,10.4701158 C162.977434,16.3880074 158.197599,20.9402317 152.507319,20.9402317 L10.4779213,20.9402317 C4.56002978,20.9402317 0.00780550613,16.1603962 0.00780550613,10.4701158 C-0.219805708,4.77983549 4.56002978,0 10.4779213,0 Z" fill="#FFFFFF"></path>
            <path d="M10.0226989,2.04850092 L152.507319,2.04850092 C157.059543,2.04850092 160.928934,5.69028034 160.928934,10.4701158 L160.928934,10.697727 C160.928934,15.2499513 157.287154,19.1193419 152.507319,19.1193419 L10.0226989,19.1193419 C5.47047463,19.1193419 1.601084,15.4775625 1.601084,10.697727 L1.601084,10.2425046 C1.82869522,5.69028034 5.47047463,2.04850092 10.0226989,2.04850092 Z" fill="#0A93E9"></path>
            <polygon fill="#1694EA" points="6.6085307 18.2088971 156.149098 18.2088971 157.287154 17.5260635 5.47047463 17.5260635"></polygon>
            <polygon fill="#319DEC" points="3.1943625 15.4775625 159.335655 15.4775625 159.790877 14.7947289 2.73914007 14.7947289"></polygon>
            <polygon fill="#65B1EE" points="1.82869522 11.1529495 160.928934 11.1529495 160.928934 10.2425046 1.82869522 10.2425046"></polygon>
            <polygon fill="#8EC6F3" points="3.42197371 5.46266913 159.563266 5.46266913 159.790877 5.91789155 160.018489 6.37311398 2.96675128 6.37311398 3.1943625 5.91789155"></polygon>
            <polygon fill="#95CAF3" points="6.83614192 2.73133456 156.149098 2.73133456 156.831932 2.95894578 157.514765 3.4141682 5.47047463 3.4141682 6.15330827 2.95894578"></polygon>
            <path d="M148.410317,2.04850092 L147.272261,2.04850092 C147.272261,2.04850092 151.141651,4.77983549 151.141651,10.9253383 C151.141651,16.6156186 147.272261,19.1193419 147.272261,19.1193419 L148.410317,19.1193419 C148.410317,19.1193419 152.279707,17.2984522 152.279707,10.9253383 C152.279707,4.09700185 148.410317,2.04850092 148.410317,2.04850092 Z" fill="url(#linearGradient-2)"></path>
            <path d="M137.484979,2.04850092 L136.346922,2.04850092 C136.346922,2.04850092 139.761091,5.23505791 139.761091,10.9253383 C139.761091,15.932785 136.346922,19.1193419 136.346922,19.1193419 L137.484979,19.1193419 C137.484979,19.1193419 140.899147,16.6156186 140.899147,10.9253383 C140.671536,4.77983549 137.484979,2.04850092 137.484979,2.04850092 Z" fill="url(#linearGradient-3)"></path>
            <polygon fill="url(#linearGradient-4)" points="80.8097864 2.04850092 81.9478424 2.04850092 81.9478424 19.1193419 80.8097864 19.1193419"></polygon>
            <path d="M69.6568369,2.04850092 L70.7948929,2.04850092 C70.7948929,2.04850092 70.3396705,6.37311398 70.3396705,10.9253383 C70.3396705,15.0223401 70.7948929,19.1193419 70.7948929,19.1193419 L69.6568369,19.1193419 C69.6568369,19.1193419 69.2016145,15.0223401 69.2016145,10.9253383 C69.2016145,6.37311398 69.6568369,2.04850092 69.6568369,2.04850092 Z" fill="url(#linearGradient-5)"></path>
            <path d="M58.7314986,2.04850092 L59.8695547,2.04850092 C59.8695547,2.04850092 58.7314986,6.37311398 58.7314986,10.9253383 C58.7314986,15.0223401 59.8695547,19.1193419 59.8695547,19.1193419 L58.7314986,19.1193419 C58.7314986,19.1193419 57.5934426,15.0223401 57.5934426,10.9253383 C57.5934426,6.37311398 58.7314986,2.04850092 58.7314986,2.04850092 Z" fill="url(#linearGradient-6)"></path>
            <path d="M47.5785492,2.04850092 L48.7166052,2.04850092 C48.7166052,2.04850092 47.1233267,6.37311398 47.1233267,10.9253383 C47.1233267,15.0223401 48.7166052,19.1193419 48.7166052,19.1193419 L47.5785492,19.1193419 C47.5785492,19.1193419 45.9852707,15.0223401 45.9852707,10.9253383 C45.9852707,6.37311398 47.5785492,2.04850092 47.5785492,2.04850092 Z" fill="url(#linearGradient-7)"></path>
            <path d="M36.4255997,2.04850092 L37.5636558,2.04850092 C37.5636558,2.04850092 35.2875436,5.69028034 35.2875436,10.9253383 C35.2875436,15.4775625 37.5636558,19.1193419 37.5636558,19.1193419 L36.4255997,19.1193419 C36.4255997,19.1193419 34.1494876,15.4775625 34.1494876,10.9253383 C34.1494876,5.69028034 36.4255997,2.04850092 36.4255997,2.04850092 Z" fill="url(#linearGradient-8)"></path>
            <path d="M25.2726502,2.04850092 L26.4107063,2.04850092 C26.4107063,2.04850092 22.9965381,5.23505791 22.9965381,10.9253383 C22.9965381,15.932785 26.4107063,19.1193419 26.4107063,19.1193419 L25.2726502,19.1193419 C25.2726502,19.1193419 21.858482,16.6156186 21.858482,10.9253383 C22.0860932,4.77983549 25.2726502,2.04850092 25.2726502,2.04850092 Z" fill="url(#linearGradient-9)"></path>
            <path d="M14.347312,2.04850092 L15.485368,2.04850092 C15.485368,2.04850092 11.6159774,4.77983549 11.6159774,10.9253383 C11.6159774,16.6156186 15.485368,19.1193419 15.485368,19.1193419 L14.347312,19.1193419 C14.347312,19.1193419 10.4779213,17.2984522 10.4779213,10.9253383 C10.4779213,4.09700185 14.347312,2.04850092 14.347312,2.04850092 Z" fill="url(#linearGradient-10)"></path>
        </g>
        <g transform="translate(90.074579, 59.802288)">
            <path d="M19.634026,5.2945195 L90.6487246,128.204575 C93.6076704,133.212022 91.7867807,139.585136 86.779334,142.544081 C81.7718873,145.503027 75.3987733,143.682137 72.4398275,138.674691 L1.42512887,15.7646353 C-1.53381691,10.7571886 0.287072802,4.38407465 5.2945195,1.42512887 C10.3019662,-1.53381691 16.6750802,0.287072802 19.634026,5.2945195 Z" fill="#FFFFFF"></path>
            <path d="M17.8131363,6.20496436 L89.0554461,129.570242 C91.3315583,133.439633 89.965891,138.674691 86.0965003,140.950803 L85.6412779,141.178414 C81.7718873,143.454526 76.5368294,142.088859 74.2607172,138.219468 L3.01840737,14.6265793 C0.74229523,10.7571886 2.10796251,5.52213072 5.97735314,3.24601858 L6.20496436,3.01840737 C10.3019662,0.74229523 15.5370241,2.10796251 17.8131363,6.20496436 Z" fill="url(#linearGradient-11)"></path>
            <polygon fill="url(#linearGradient-12)" points="1.8803513 11.2124111 76.5368294 140.723192 76.9920518 140.950803 77.4472742 141.178414 77.9024967 141.406025 1.8803513 9.84674378 1.8803513 11.2124111"></polygon>
            <polygon fill="url(#linearGradient-13)" points="2.56318494 6.887798 80.6338312 142.088859 81.5442761 142.088859 3.01840737 6.20496436 2.79079615 6.66018678"></polygon>
            <polygon fill="url(#linearGradient-14)" points="5.74974193 3.47362979 85.4136667 141.178414 86.0965003 140.723192 6.43257557 3.01840737"></polygon>
            <polygon fill="url(#linearGradient-15)" points="11.4400223 2.10796251 89.2830573 137.081412 89.0554461 137.536635 88.8278349 137.991857 10.3019662 1.8803513 10.7571886 1.8803513 11.4400223 2.10796251"></polygon>
            <polygon fill="url(#linearGradient-16)" points="15.5370241 3.47362979 90.1935022 132.756799 90.1935022 134.122466 14.1713568 2.79079615 14.6265793 3.01840737 15.0818017 3.24601858 15.5370241 3.47362979"></polygon>
            <path d="M86.779334,125.47324 L86.3241116,124.562795 C86.3241116,124.562795 85.8688891,129.11502 80.8614424,132.301577 C76.0816069,135.260522 71.7569939,133.212022 71.7569939,133.212022 L72.2122163,134.122466 C72.2122163,134.122466 75.8539957,136.62619 81.3166649,133.212022 C86.779334,130.025465 86.779334,125.47324 86.779334,125.47324 Z M81.0890536,115.913569 L80.6338312,115.003124 C80.6338312,115.003124 79.4957752,119.555349 74.7159397,122.286683 C70.3913266,125.018018 66.0667135,123.652351 66.0667135,123.652351 L66.521936,124.562795 C66.521936,124.562795 70.3913266,126.156074 75.3987733,123.197128 C80.40622,120.238182 81.0890536,115.913569 81.0890536,115.913569 L81.0890536,115.913569 Z" fill="#3C98EA"></path>
            <path d="M75.6263845,106.353898 L75.1711621,105.443454 C75.1711621,105.443454 73.1226612,109.312844 68.7980481,111.816567 C64.9286575,114.09268 60.6040444,114.09268 60.6040444,114.09268 L61.0592668,115.003124 C61.0592668,115.003124 65.1562687,115.003124 69.2532705,112.727012 C73.5778836,110.223289 75.6263845,106.353898 75.6263845,106.353898 Z" fill="#4CA4ED"></path>
            <path d="M70.1637154,96.7942274 L69.708493,95.8837825 C69.708493,95.8837825 66.7495472,99.7531732 62.8801566,101.801674 C59.2383771,103.850175 54.9137641,104.533009 54.9137641,104.533009 L55.3689865,105.443454 C55.3689865,105.443454 59.6935996,104.76062 63.335379,102.712119 C66.9771584,100.663618 70.1637154,96.7942274 70.1637154,96.7942274 Z" fill="#4DA7EE"></path>
            <path d="M47.6302052,58.1003211 L48.0854277,59.0107659 C48.0854277,59.0107659 44.216037,60.8316556 40.3466464,62.8801566 C36.704867,64.9286575 33.51831,67.659992 33.51831,67.659992 L33.0630876,66.7495472 C33.0630876,66.7495472 36.4772558,64.0182126 39.891424,61.9697117 C43.7608146,59.9212108 47.6302052,58.1003211 47.6302052,58.1003211 Z" fill="url(#linearGradient-17)"></path>
            <path d="M42.1675361,48.5406501 L42.6227585,49.4510949 C42.6227585,49.4510949 38.2981455,50.8167622 34.6563661,53.0928744 C31.0145866,55.1413753 28.0556409,58.3279323 28.0556409,58.3279323 L27.6004184,57.4174874 C27.6004184,57.4174874 30.5593642,54.2309304 34.2011436,52.1824295 C37.8429231,49.6787062 42.1675361,48.5406501 42.1675361,48.5406501 Z" fill="url(#linearGradient-18)"></path>
            <path d="M31.9250315,41.02948 C34.8839773,40.1190352 37.1600894,39.6638128 37.1600894,39.6638128 L36.704867,38.7533679 C36.704867,38.7533679 34.6563661,38.9809791 32.3802539,39.891424 C31.0145866,40.3466464 30.7869754,41.4847025 31.9250315,41.02948 L31.9250315,41.02948 Z" fill="#9DD4F7"></path>
            <path d="M25.5519175,19.8616372 L26.0071399,20.772082 C26.0071399,20.772082 21.6825269,19.634026 16.6750802,22.3653605 C12.3504671,25.0966951 11.4400223,29.4213081 11.4400223,29.4213081 L10.9847998,28.5108633 C10.9847998,28.5108633 11.4400223,24.6414727 16.2198578,21.6825269 C21.2273045,18.4959699 25.5519175,19.8616372 25.5519175,19.8616372 L25.5519175,19.8616372 Z" fill="url(#linearGradient-19)"></path>
            <path d="M20.0892484,10.074355 L20.772082,10.9847998 C20.772082,10.9847998 16.2198578,9.16391013 10.9847998,12.1228559 C5.97735314,15.3094129 5.97735314,19.634026 5.97735314,19.634026 L5.2945195,18.7235811 C5.2945195,18.7235811 4.83929708,14.8541905 10.3019662,11.4400223 C15.9922465,8.02585407 20.0892484,10.074355 20.0892484,10.074355 L20.0892484,10.074355 Z" fill="url(#linearGradient-20)"></path>
        </g>
        <g transform="translate(46.828448, 60.257510)">
            <path d="M48.0854277,89.5106686 C67.8876033,55.3689865 90.6487246,15.7646353 90.6487246,15.7646353 C93.6076704,10.7571886 91.7867807,4.38407465 86.779334,1.42512887 C81.7718873,-1.53381691 75.3987733,0.287072802 72.4398275,5.2945195 C72.4398275,5.2945195 44.6712595,53.5480968 23.7310278,89.5106686 L48.0854277,89.5106686 L48.0854277,89.5106686 Z M35.7944221,110.4509 C26.2347512,126.838908 19.634026,138.674691 19.634026,138.674691 C16.6750802,143.682137 10.3019662,145.503027 5.2945195,142.544081 C0.287072802,139.585136 -1.53381691,133.212022 1.42512887,128.204575 C1.42512887,128.204575 5.2945195,121.148627 11.4400223,110.678511 C19.1788035,110.4509 33.2906988,110.4509 35.7944221,110.4509 L35.7944221,110.4509 Z" fill="#FFFFFF"></path>
            <path d="M45.5817043,89.5106686 C65.6114911,54.9137641 88.8278349,14.6265793 88.8278349,14.6265793 C91.103947,10.7571886 89.7382798,5.52213072 85.8688891,3.24601858 L85.6412779,3.01840737 C81.7718873,0.74229523 76.5368294,2.10796251 74.2607172,5.97735314 C74.2607172,5.97735314 46.9473716,53.3204856 26.0071399,89.5106686 L45.5817043,89.5106686 L45.5817043,89.5106686 Z M33.51831,110.4509 C24.4138614,126.383685 17.8131363,137.764246 17.8131363,137.764246 C15.5370241,141.633636 10.5295774,142.999304 6.43257557,140.723192 L5.97735314,140.723192 C2.10796251,138.447079 0.74229523,133.439633 3.01840737,129.342631 C3.01840737,129.342631 7.34302043,121.831461 13.9437456,110.4509 L33.51831,110.4509 Z" fill="url(#linearGradient-21)"></path>
            <path d="M44.8988707,89.5106686 L90.1935022,11.2124111 L90.1935022,9.84674378 C90.1935022,9.84674378 65.1562687,53.3204856 44.216037,89.5106686 L44.8988707,89.5106686 L44.8988707,89.5106686 Z M32.6078651,110.4509 L15.3094129,140.49558 L14.6265793,140.950803 L13.9437456,141.178414 C13.9437456,141.178414 21.6825269,127.749352 31.6974203,110.4509 L32.6078651,110.4509 Z" fill="url(#linearGradient-22)"></path>
            <path d="M41.4847025,89.5106686 L89.2830573,6.887798 L89.0554461,6.43257557 L88.8278349,5.97735314 C88.8278349,5.97735314 62.6525453,51.2719847 40.8018688,89.2830573 L41.4847025,89.5106686 L41.4847025,89.5106686 Z M29.4213081,110.4509 L11.2124111,141.861248 L10.3019662,141.861248 C10.3019662,141.861248 18.0407475,128.432186 28.5108633,110.223289 C28.9660857,110.4509 29.4213081,110.4509 29.4213081,110.4509 L29.4213081,110.4509 Z" fill="url(#linearGradient-23)"></path>
            <path d="M36.4772558,89.5106686 C59.0107659,50.589151 86.0965003,3.47362979 86.0965003,3.47362979 L85.4136667,3.01840737 L35.3391997,89.5106686 L36.4772558,89.5106686 L36.4772558,89.5106686 Z M24.1862502,110.678511 C14.1713568,128.204575 6.66018678,141.178414 6.66018678,141.178414 L5.97735314,140.723192 C5.97735314,140.723192 13.260912,127.976964 23.2758054,110.678511 C23.7310278,110.4509 23.5034166,110.4509 24.1862502,110.678511 Z" fill="url(#linearGradient-24)"></path>
            <path d="M31.0145866,89.5106686 C53.5480968,50.589151 81.5442761,1.8803513 81.5442761,1.8803513 L80.6338312,1.8803513 C80.6338312,1.8803513 52.6376519,50.3615398 30.1041418,89.5106686 L31.0145866,89.5106686 Z M17.8131363,110.4509 C8.70868771,126.156074 2.56318494,136.853801 2.56318494,136.853801 L2.79079615,137.309023 L3.01840737,137.764246 C3.01840737,137.764246 9.61913256,126.383685 18.9511923,110.4509 L17.8131363,110.4509 Z" fill="url(#linearGradient-25)"></path>
            <path d="M27.6004184,89.5106686 L77.6748854,2.79079615 L77.219663,3.01840737 L76.7644406,3.24601858 L76.5368294,3.47362979 C76.5368294,3.47362979 48.7682613,51.4995959 26.9175848,89.5106686 L27.6004184,89.5106686 Z M15.5370241,110.4509 C7.57063164,124.335184 1.8803513,134.122466 1.8803513,134.122466 L1.8803513,132.301577 C1.8803513,132.301577 6.887798,123.652351 14.6265793,110.223289 C15.0818017,110.4509 15.0818017,110.4509 15.5370241,110.4509 Z" fill="url(#linearGradient-26)"></path>
            <path d="M71.9846051,9.61913256 L71.5293827,10.5295774 C71.5293827,10.5295774 75.6263845,8.48107649 81.0890536,11.4400223 C86.0965003,14.1713568 86.3241116,18.9511923 86.3241116,18.9511923 L86.779334,18.0407475 C86.779334,18.0407475 87.2345564,13.7161344 81.5442761,10.5295774 C75.8539957,7.34302043 71.9846051,9.61913256 71.9846051,9.61913256 Z" fill="url(#linearGradient-27)"></path>
            <path d="M66.521936,19.4064147 L66.0667135,20.3168596 C66.0667135,20.3168596 70.6189378,18.9511923 75.3987733,21.6825269 C79.9509976,24.1862502 80.8614424,28.5108633 80.8614424,28.5108633 L81.3166649,27.6004184 C81.3166649,27.6004184 80.8614424,23.5034166 75.8539957,20.772082 C70.6189378,17.8131363 66.521936,19.4064147 66.521936,19.4064147 Z" fill="url(#linearGradient-28)"></path>
            <path d="M60.8316556,28.9660857 L60.3764332,29.8765306 C60.3764332,29.8765306 64.4734351,29.6489194 69.0256593,32.3802539 C73.1226612,34.6563661 75.1711621,38.2981455 75.1711621,38.2981455 L75.6263845,37.3877006 C75.6263845,37.3877006 73.5778836,33.7459212 69.4808818,31.4698091 C65.1562687,28.9660857 60.8316556,28.9660857 60.8316556,28.9660857 L60.8316556,28.9660857 Z" fill="url(#linearGradient-29)"></path>
            <path d="M55.3689865,38.7533679 L54.9137641,39.6638128 C54.9137641,39.6638128 59.4659884,40.3466464 63.335379,42.6227585 C66.9771584,44.6712595 69.708493,48.0854277 69.708493,48.0854277 L70.1637154,47.1749828 C70.1637154,47.1749828 67.4323808,43.7608146 63.7906014,41.7123137 C59.9212108,39.4362015 55.3689865,38.7533679 55.3689865,38.7533679 Z" fill="url(#linearGradient-30)"></path>
            <path d="M49.6787062,48.3130389 L49.2234837,49.2234837 C49.2234837,49.2234837 53.5480968,50.3615398 57.4174874,52.6376519 C61.0592668,54.6861529 64.0182126,57.6450986 64.0182126,57.6450986 L64.4734351,56.7346538 C64.4734351,56.7346538 61.5144893,53.775708 57.8727099,51.7272071 C54.2309304,49.6787062 49.6787062,48.3130389 49.6787062,48.3130389 Z" fill="url(#linearGradient-31)"></path>
            <path d="M44.216037,57.8727099 L43.5332034,58.7831547 C43.5332034,58.7831547 47.6302052,60.3764332 51.4995959,62.6525453 C55.1413753,64.7010463 58.3279323,67.2047696 58.3279323,67.2047696 L58.7831547,66.2943248 C58.7831547,66.2943248 55.5965977,63.7906014 51.9548183,61.7421005 C48.3130389,59.6935996 44.216037,57.8727099 44.216037,57.8727099 L44.216037,57.8727099 Z" fill="url(#linearGradient-32)"></path>
            <polygon fill="url(#linearGradient-33)" points="38.0705343 68.5704369 38.5257567 67.659992 53.3204856 76.0816069 52.8652632 76.9920518 38.0705343 68.5704369"></polygon>
            <path d="M32.6078651,78.3577191 L33.0630876,77.4472742 C33.0630876,77.4472742 36.704867,80.1786088 40.5742576,82.2271097 C44.216037,84.2756106 47.8578165,85.8688891 47.8578165,85.8688891 L47.402594,86.5517228 C47.402594,86.5517228 43.5332034,84.9584443 39.891424,82.9099434 C36.0220333,80.8614424 32.6078651,78.3577191 32.6078651,78.3577191 L32.6078651,78.3577191 Z" fill="url(#linearGradient-34)"></path>
            <path d="M28.9660857,89.5106686 C27.8280297,88.6002237 27.145196,87.9173901 27.145196,87.9173901 L27.6004184,87.0069452 C27.6004184,87.0069452 28.9660857,88.1450013 30.7869754,89.5106686 L28.9660857,89.5106686 L28.9660857,89.5106686 Z" fill="#73B9F1"></path>
            <path d="M20.0892484,110.4509 C20.9996932,111.133734 21.9101381,111.816567 23.0481942,112.499401 C27.145196,114.775513 31.2421979,114.547902 31.2421979,114.547902 L30.7869754,115.458347 C30.7869754,115.458347 26.6899736,115.685958 22.5929717,113.409846 C20.9996932,112.499401 19.634026,111.361345 18.7235811,110.4509 L20.0892484,110.4509 L20.0892484,110.4509 Z" fill="url(#linearGradient-35)"></path>
            <path d="M10.3019662,116.824014 L10.7571886,115.913569 C10.7571886,115.913569 11.8952447,120.465794 16.9026914,123.197128 C21.4549157,125.700852 25.5519175,124.335184 25.5519175,124.335184 L25.0966951,125.245629 C25.0966951,125.245629 21.4549157,126.838908 16.447469,124.107573 C11.2124111,121.148627 10.3019662,116.824014 10.3019662,116.824014 Z" fill="url(#linearGradient-36)"></path>
            <path d="M4.61168586,126.611296 L5.06690829,125.700852 C5.06690829,125.700852 5.52213072,130.480687 10.9847998,133.439633 C15.9922465,136.170967 19.8616372,134.122466 19.8616372,134.122466 L19.1788035,135.032911 C19.1788035,135.032911 15.7646353,137.536635 10.3019662,134.350078 C4.61168586,131.163521 4.61168586,126.611296 4.61168586,126.611296 L4.61168586,126.611296 Z" fill="url(#linearGradient-37)"></path>
        </g>
        <g transform="translate(68.253760, 0.000000)">
            <path d="M56.9324076,247.413389 L154.350007,42.7909082 L129.767996,31.1827363 L28.2533947,243.999221 C28.2533947,243.999221 31.4399517,245.5925 35.5369535,247.413389 L56.9324076,247.413389 Z" fill="url(#linearGradient-38)"></path>
            <path d="M114.518045,18.8917307 L160.040287,40.514796 L160.040287,105.839214 C144.335114,98.3280443 39.178733,48.2535773 39.178733,48.2535773 C39.178733,48.2535773 46.4622918,33.003626 53.2906282,18.8917307 L114.518045,18.8917307 Z" fill="url(#radialGradient-39)"></path>
            <path d="M1.6228827,238.308941 C0.94004906,239.674608 -0.198007008,241.267886 0.0296042057,243.77161 C0.257215419,253.10367 15.5071667,261.752896 24.3840041,261.752896 C30.5295068,261.752896 32.5780078,259.249172 34.8541199,254.696948 C37.130232,250.144724 4.12660605,232.846272 1.6228827,238.308941 L1.6228827,238.308941 Z" fill="url(#radialGradient-40)"></path>
            <path d="M106.551652,44.6117979 C106.551652,44.6117979 129.995607,50.3020782 131.816497,51.8953567 C133.637387,53.4886352 128.857551,62.5930838 127.947106,63.958751 C120.435936,73.0631996 96.9919812,123.365278 96.9919812,123.365278 L75.3689159,111.074272 C75.3689159,111.074272 94.7158691,75.1117005 101.544205,62.3654725 C105.868819,53.7162464 106.551652,44.6117979 106.551652,44.6117979 Z" fill="url(#linearGradient-41)"></path>
            <path d="M160.723121,32.7760148 C164.820123,35.7349605 170.282792,35.0521269 174.607405,34.3692933 C177.566351,33.9140708 173.014127,38.2386839 168.00668,48.2535773 C162.999233,58.2684707 163.226844,58.9513043 162.544011,58.2684707 C161.861177,57.5856371 139.327667,44.8394091 140.010501,43.701353 C140.920945,42.563297 144.562725,17.7536747 146.383615,18.4365083 C152.98434,20.0297868 154.122396,27.9961793 160.723121,32.7760148 L160.723121,32.7760148 Z" fill="url(#linearGradient-42)"></path>
            <path d="M125.670994,60.772194 C127.264273,58.2684707 134.547831,42.7909082 146.156003,42.7909082 C151.391061,42.7909082 161.405955,55.9923586 162.3164,57.8132483 C162.999233,59.4065268 160.723121,65.7796407 159.585065,62.820695 C158.219398,59.4065268 152.529117,52.1229679 146.383615,52.1229679 C140.238112,52.1229679 131.816497,59.1789155 129.767996,61.6826389 C127.719495,63.958751 124.077716,63.2759174 125.670994,60.772194 L125.670994,60.772194 Z" fill="url(#linearGradient-43)"></path>
            <path d="M125.215772,59.8617492 C126.353828,58.0408595 131.588886,50.074467 134.092609,47.5707437 C136.596332,45.0670203 142.969446,38.4662951 148.432116,37.5558503 C153.894785,36.6454054 159.585065,47.7983549 157.764175,50.074467 C156.398508,51.6677455 154.122396,49.8468558 151.391061,47.5707437 C148.659727,45.5222427 146.838837,41.4252409 138.189611,48.0259661 C135.230665,50.3020782 132.271719,52.1229679 125.443383,61.9102501 C123.622493,64.4139735 124.077716,61.6826389 125.215772,59.8617492 L125.215772,59.8617492 Z" fill="url(#linearGradient-44)"></path>
            <path d="M96.9919812,126.324224 C97.9024261,124.503334 99.0404821,121.771999 96.5367588,119.723498 C93.8054242,117.674997 81.0591963,110.846661 78.7830841,110.391439 C76.506972,109.936216 74.6860823,110.391439 73.7756374,111.984717 C72.8651926,113.577996 2.98854998,233.301494 1.6228827,236.715662 C0.257215419,240.12983 0.0296042057,242.633554 2.07810513,243.316387 C4.12660605,243.999221 27.5705611,255.15217 29.8466732,257.655894 C32.1227853,260.159617 33.2608414,257.428283 34.1712863,256.062615 C38.4958993,250.599946 95.8539252,128.145113 96.9919812,126.324224 Z" fill="url(#linearGradient-45)"></path>
            <path d="M126.80905,59.4065268 C127.947106,57.8132483 130.678441,53.261024 134.092609,49.1640221 C136.368721,46.4326876 148.659727,40.514796 151.391061,30.9551251 C152.98434,25.7200671 150.480616,20.4850092 147.066448,18.2088971 C135.458276,11.1529495 115.42849,0 86.066643,0 C66.2644674,0 57.8428525,6.6007252 57.8428525,6.6007252 L67.8577459,6.6007252 L102.682262,20.257398 L107.006875,38.4662951 C107.006875,38.4662951 107.462097,44.6117979 105.413596,51.6677455 C104.047929,57.3580258 103.592706,60.772194 101.544205,66.4624744 C103.137484,67.145308 106.779263,64.6415847 110.876265,65.7796407 C114.518045,66.6900856 116.794157,71.6975323 119.29788,68.7385865 C123.622493,63.0483062 124.98816,61.9102501 126.80905,59.4065268 L126.80905,59.4065268 Z" fill="url(#linearGradient-46)"></path>
            <path d="M106.324041,45.2946315 C104.503151,28.4514017 100.406149,12.5186168 57.6152413,12.746228 C60.3465758,10.0148934 66.947301,7.28355884 66.947301,7.28355884 L57.6152413,6.6007252 C57.6152413,6.6007252 58.9809085,5.46266913 61.7122431,5.23505791 C86.7494766,3.18655699 109.055376,8.4216149 107.462097,40.9700185 C107.234486,46.2050764 106.779263,48.4811885 106.324041,45.2946315 Z" fill="url(#linearGradient-47)"></path>
            <path d="M57.6152413,12.746228 C60.574187,11.6081719 64.6711889,10.9253383 72.4099701,11.3805607 C81.9696411,11.8357831 94.0330354,15.4775625 99.0404821,20.0297868 C101.544205,22.3058989 101.316594,20.4850092 98.5852597,17.5260635 C91.5293121,9.33205976 80.831585,7.51117005 66.947301,7.28355884 C65.3540225,7.05594762 60.1189646,10.0148934 57.6152413,12.746228 L57.6152413,12.746228 Z" fill="url(#linearGradient-48)"></path>
            <path d="M175.062627,34.3692933 L187.581244,40.7424072 C187.581244,40.7424072 182.801409,47.1155212 178.932018,54.3990801 C174.835016,62.1378613 172.103682,70.5594762 172.103682,70.5594762 L160.040287,63.2759174 C160.040287,63.2759174 162.999233,55.0819137 167.323846,47.1155212 C170.738014,40.514796 175.062627,34.3692933 175.062627,34.3692933 L175.062627,34.3692933 Z" fill="url(#linearGradient-49)"></path>
            <path d="M187.581244,40.7424072 C188.491689,41.1976297 185.532743,48.2535773 181.20813,56.447581 C176.883517,64.6415847 172.786515,71.0146987 172.103682,70.5594762 C171.193237,70.1042538 174.152183,63.0483062 178.476796,54.8543025 C182.573798,46.6602988 186.670799,40.2871848 187.581244,40.7424072 L187.581244,40.7424072 Z" fill="#BFC0D0"></path>
        </g>
    </g>
</svg>
