<svg xmlns="http://www.w3.org/2000/svg" width="600" height="348.826" version="1"><path d="M71.426 337.397h-8.009v-58.392h8.009v24.69h25.61v-24.69h8.008v58.392h-8.008V310.62h-25.61v26.778zM117.624 303.195c5.755-4.588 11.345-5.672 15.35-5.672 14.514 0 14.597 12.68 14.597 15.182v14.35c0 2.999.668 4.754 4.005 4.922v6.338c-5.674 0-8.592-2.67-10.01-5.673-4.256 3.085-8.26 5.673-14.015 5.673-8.843 0-12.68-5.424-12.68-11.347 0-12.177 11.678-13.763 25.776-14.263.418-7.925-4.504-9.176-8.425-9.176-2.92 0-6.422 1.419-11.345 4.672l-3.253-5.006zm5.171 23.773c0 2.67 1.919 5.258 6.423 5.258 3.42 0 8.427-2.086 11.429-6.76v-7.004c-14.766-.334-17.852 5.086-17.852 8.506zM186.846 304.613v-6.173h6.924v38.957h-6.924V313.29l-18.103 18.353v5.755h-6.924V298.44h6.924v24.524l18.103-18.351zm-15.85-25.608c.166 4.253 3.002 7.422 6.84 7.422 3.755 0 6.591-3.17 6.756-7.422h4.672c.335 7.84-5.172 12.596-11.429 12.596-6.422 0-11.845-4.756-11.51-12.596h4.672zM208.857 348.826h-6.925v-17.351h5.007c2.085-2.588 5.67-8.678 5.67-23.776v-9.26h25.862v33.036h5.672v17.35h-6.925V337.48h-28.361v11.347zm22.69-44.38h-12.013c.084 13.682-1.002 20.69-4.503 27.029h16.516v-27.03zM269.986 332.307c4.92 0 7.674-1.751 11.845-5.923l4.337 4.172c-3.92 4.923-9.843 7.76-16.182 7.76-11.763 0-19.436-9.009-19.436-20.107 0-11.845 7.508-20.686 18.267-20.686 12.93 0 17.686 11.678 17.35 21.772h-27.693c-.167 5.004 2.17 13.012 11.512 13.012zm-10.177-52.719c2.92 0 4.587 2.586 4.587 4.588 0 2.335-2.169 4.588-4.587 4.588-1.835 0-4.588-1.502-4.588-4.588 0-2.753 2.17-4.588 4.588-4.588zm18.518 33.7c-.332-3.42-2.086-9.759-9.76-9.759-7.34 0-9.342 5.588-9.758 9.76h19.518zm-1.335-33.7c2.086 0 4.588 1.668 4.588 4.588 0 2.586-2.002 4.588-4.588 4.588-2.502 0-4.504-1.919-4.504-4.588 0-2.92 2.502-4.588 4.504-4.588zM303.843 304.446h-11.68v-6.006h30.282v6.006h-11.68v32.951h-6.922v-32.951zM362.64 330.221c-5.088 7.258-11.43 8.094-15.433 8.094-13.68 0-18.935-10.012-18.935-19.853 0-12.598 8.425-20.939 20.02-20.939 4.42 0 9.176 1.419 13.932 6.006l-4.005 4.84c-3.085-3.005-6.257-4.84-10.594-4.84-6.34 0-11.428 4.42-11.428 14.847 0 8.592 4.004 13.93 11.345 13.93 4.504 0 7.09-1.917 10.426-6.003l4.672 3.918zM390.408 322.132c-5.088 0-5.088 1.836-8.092 6.592-3.92 6.17-6.757 9.591-11.177 9.591a6.763 6.763 0 0 1-2.586-.502v-5.836h1c3.088-.253 3.672-2.67 6.09-6.425 1.334-2.004 2.336-3.588 5.674-4.588v-.416c-5.674.25-10.01-4.257-10.01-10.261 0-6.841 4.92-11.847 12.844-11.847h17.102v38.957h-6.925v-15.265h-3.92zm-4.755-17.686c-1.75 0-6.422 0-6.422 5.673 0 5.923 4.587 6.004 6.59 6.004h8.507v-11.677h-8.675zM432.929 298.44h14.765c2.753 0 12.93.167 12.93 9.594 0 3.587-2.252 7.673-6.505 8.673 4.92.42 9.091 3.755 9.091 9.429 0 10.008-8.34 11.261-14.181 11.261h-16.1V298.44zm12.763 15.6c3.004 0 7.009-.251 7.009-5.423 0-4.337-4.423-4.171-7.009-4.171h-5.839v9.594h5.84zm1.17 17.353c4.504 0 8.424-.42 8.424-6.008 0-3.837-2.67-5.339-8.424-5.339h-7.009v11.347h7.009zM504.326 330.221c-5.087 7.258-11.43 8.094-15.433 8.094-13.681 0-18.935-10.012-18.935-19.853 0-12.598 8.423-20.939 20.02-20.939 4.42 0 9.173 1.419 13.93 6.006l-4.002 4.84c-3.086-3.005-6.26-4.84-10.596-4.84-6.343 0-11.43 4.42-11.43 14.847 0 8.592 4.003 13.93 11.347 13.93 4.503 0 7.088-1.917 10.424-6.003l4.675 3.918zM529.172 332.307c4.92 0 7.673-1.751 11.847-5.923l4.336 4.172c-3.924 4.923-9.845 7.76-16.183 7.76-11.763 0-19.435-9.009-19.435-20.107 0-11.845 7.505-20.686 18.263-20.686 12.936 0 17.69 11.678 17.355 21.772H517.66c-.166 5.004 2.169 13.012 11.513 13.012zm-10.178-52.719c2.923 0 4.586 2.586 4.586 4.588 0 2.335-2.168 4.588-4.586 4.588-1.835 0-4.587-1.502-4.587-4.588 0-2.753 2.168-4.588 4.587-4.588zm18.518 33.7c-.334-3.42-2.085-9.759-9.757-9.759-7.344 0-9.345 5.588-9.762 9.76h19.519zm-1.334-33.7c2.084 0 4.586 1.668 4.586 4.588 0 2.586-2.001 4.588-4.586 4.588-2.502 0-4.504-1.919-4.504-4.588 0-2.92 2.502-4.588 4.504-4.588z"/><g><path d="M97.574 0H65.61C34.206 0 7.57 23.907 7.57 70.318c0 27.844 12.9 48.375 35.889 58.501L.562 206.45c-1.403 2.534 0 4.497 2.24 4.497h19.907c1.683 0 2.805-.56 3.366-1.963l38.973-76.228H79.07v76.228c0 .841.841 1.963 1.958 1.963h17.388c1.683 0 2.244-.841 2.244-2.244V2.814C100.66.84 99.538 0 97.574 0zM79.07 114.757H67.293c-18.506 0-36.45-13.501-36.45-47.253 0-35.164 16.822-49.506 33.925-49.506H79.07v96.76z" fill="#ff0303"/><path d="M268.303 107.337c-1.968 33.752-7.57 61.315-21.87 85.783h40.651V87.646H269.14c0 4.779-.28 12.38-.837 19.69zM373.727 83.99c-9.814 0-15.705 12.09-18.225 35.997-.56 4.507-.56 8.723-.56 8.723s10.093-1.122 16.54-1.122h18.505s0-5.067-.275-9.565c-1.403-21.662-7.009-34.032-15.985-34.032z" fill="none"/><path d="M202.97 69.93h-17.382c-1.407 0-2.244 1.121-2.244 1.963v53.723h-32.25V71.893c0-1.403-.557-1.964-1.96-1.964h-17.387c-1.398 0-2.24.842-2.24 1.964v136.7c0 1.403.562 2.245 1.96 2.245h17.668c1.122 0 1.959-.842 1.959-2.244v-65.252h32.25v65.252c0 1.402.837 2.244 2.244 2.244h17.383c1.402 0 1.959-1.122 1.959-2.244V71.893c0-1.122-.837-1.964-1.96-1.964zM599.9 201.843l-2.247-9.565c-.274-.84-.556-1.122-1.4-1.122-1.398 0-8.969 3.086-19.903 3.086-21.312 0-31.685-20.522-31.685-53.153 0-28.694 8.692-57.098 23.267-57.098 3.929 0 8.696 1.122 16.267 8.162.843.841 1.403 1.122 2.237 1.122.848 0 1.691-.57 2.53-1.972l7.57-12.37c.56-.85.843-1.701.843-2.543 0-1.122-1.125-1.964-2.807-2.805-11.495-5.909-19.348-7.031-26.08-7.031-26.352 0-46.82 31.499-46.82 80.715 0 42.476 19.625 66.944 47.664 66.944 11.782 0 24.397-5.62 29.443-9.284 1.12-.842 1.399-1.964 1.12-3.086zM478.033 133.488l33.65-61.595c.56-.842.278-1.964-.843-1.964H494.3c-4.772 0-6.454 1.683-8.131 5.34l-25.243 52.6c-1.398 3.094-2.8 5.058-4.204 5.909V71.893c0-1.122-.56-1.964-1.682-1.964h-18.225c-.837 0-1.678.842-1.678 1.964v136.981c0 .842.56 1.964 1.678 1.964h18.225c1.121 0 1.682-.842 1.682-1.964v-70.6c.842.562 1.403 1.404 1.969 2.535l31.963 65.812c1.681 3.375 4.206 4.217 7.853 4.217h17.939c1.125 0 1.403-1.122.847-1.964l-39.26-75.386zM317.37 193.12h-3.366c-4.208 0-5.325-1.683-5.325-5.058V71.892c0-1.402-.561-1.963-1.683-1.963h-56.08c-1.398 0-2.244.842-2.244 1.964v10.126c0 34.032-1.96 77.91-19.903 111.101h-6.171c-1.683 0-2.244.85-2.244 2.253v41.064c0 1.412 1.122 1.963 1.963 1.963h13.46c3.081 0 4.203-2.244 4.203-4.216v-23.346h60.008v25.599c0 1.122.837 1.963 1.959 1.963h14.301c1.679 0 3.362-1.402 3.362-4.216v-38.81c0-1.403-.841-2.254-2.24-2.254zm-30.286 0h-40.652c14.302-24.468 19.903-52.03 21.871-85.783.557-7.311.837-14.912.837-19.69h17.944V193.12zM374.568 66.554c-30.277 0-43.737 38.25-43.737 79.873 0 42.476 19.065 67.786 47.103 67.786 13.736 0 25.798-5.339 31.965-9.284 1.123-.561 1.398-1.403 1.123-2.525l-2.245-9.564c-.28-1.123-.841-1.684-2.244-1.684-1.117 0-9.252 3.086-20.749 3.086-21.59 0-31.684-18.84-31.684-43.588v-6.66s10.935 1.312 17.383 1.312h40.941v-11.818c0-43.588-15.428-66.934-37.856-66.934zm-3.085 61.034c-6.448 0-16.542 1.122-16.542 1.122s0-4.216.561-8.723c2.52-23.907 8.411-35.996 18.225-35.996 8.976 0 14.582 12.37 15.985 34.032.275 4.498.275 9.565.275 9.565h-18.504z"/></g></svg>
