<?xml version="1.0" encoding="UTF-8" standalone="no"?>
<svg width="256px" height="274px" viewBox="0 0 256 274" version="1.1" xmlns="http://www.w3.org/2000/svg" xmlns:xlink="http://www.w3.org/1999/xlink" preserveAspectRatio="xMidYMid">
    <defs>
        <linearGradient x1="50%" y1="0%" x2="50%" y2="100%" id="linearGradient-1">
            <stop stop-color="#73B723" offset="0%"></stop>
            <stop stop-color="#D8EE61" offset="100%"></stop>
        </linearGradient>
        <linearGradient x1="84.857945%" y1="26.2510333%" x2="13.5844148%" y2="100%" id="linearGradient-2">
            <stop stop-color="#98C9EA" offset="0%"></stop>
            <stop stop-color="#026FB2" offset="68.8649011%"></stop>
            <stop stop-color="#086EB6" offset="100%"></stop>
        </linearGradient>
        <linearGradient x1="0%" y1="6.32032406%" x2="85.8842047%" y2="69.934521%" id="linearGradient-3">
            <stop stop-color="#D73721" offset="0%"></stop>
            <stop stop-color="#F7D768" offset="100%"></stop>
        </linearGradient>
        <linearGradient x1="30.9607463%" y1="30.9929036%" x2="86.77032%" y2="81.7463136%" id="linearGradient-4">
            <stop stop-color="#D4C883" offset="0%"></stop>
            <stop stop-color="#A1D1A7" offset="100%"></stop>
        </linearGradient>
    </defs>
	<g>
		<path d="M221.82887,0.00412799194 C240.429601,9.48199748 256.40493,34.3531489 255.6041,68.103611 C253.172713,109.689002 223.021859,145.528228 190.216707,178.548035 C188.379751,138.279474 179.62428,112.615748 165.952371,76.5288425 C153.04414,40.1612336 190.782242,1.16822172 221.82887,0.00412799194 Z" fill="url(#linearGradient-1)"></path>
		<path d="M121.217322,177.132134 C131.204902,164.708201 138.283655,153.644222 143.224024,143.647838 C177.064816,161.34127 169.079363,158.037037 185.400361,176.888462 C185.455453,177.47466 185.507406,178.05952 185.556205,178.642979 C186.910186,204.781424 167.842991,265.20697 92.7630738,273.487722 C87.565932,232.884793 104.461803,198.250941 121.217322,177.132134 Z" fill="url(#linearGradient-2)"></path>
		<path d="M0.390998236,25.2467987 C53.8856458,4.07845603 111.458749,25.7627977 144.69734,70.9436694 C147.91259,75.3134465 150.962016,79.8532119 153.837952,84.5259347 C159.03175,117.680556 155.071433,136.093913 144.962268,145.854571 C138.315284,142.501051 131.223373,139.526824 123.652837,136.776885 C106.05108,130.382625 89.8074316,126.151434 66.6081169,119.282455 C11.5200645,104.248308 -2.06515697,57.0116966 0.390998236,25.2467987 Z" fill="url(#linearGradient-3)"></path>
		<path d="M151.793359,81.2801612 C152.144238,81.8250562 152.490989,82.3658231 152.833612,82.9148461 L153.254668,83.5918367 C154.11329,84.970586 154.9554,86.3575913 155.785127,87.7611086 L155.925478,87.9964041 L156.14839,88.3761794 L156.350662,88.7270587 L156.945092,89.7466727 L156.986372,89.8209766 L157.791331,91.2327498 L157.816099,91.2740297 C158.398146,92.3018997 158.971937,93.3338977 159.537471,94.3741517 L159.607647,94.5062474 L160.235102,95.6703411 L160.251614,95.6992371 L160.940989,96.9954266 L161.139132,97.3752018 L161.523036,98.1141124 L161.993627,99.0263986 L162.447706,99.9097889 C162.910041,100.826203 163.368248,101.742617 163.818199,102.659031 L163.933783,102.886071 C164.746997,104.549652 165.535444,106.217361 166.307378,107.897453 L166.893553,109.181259 L166.951345,109.309227 L167.326992,110.143081 L167.764559,111.129671 L168.012239,111.699334 L168.408526,112.61162 L168.693358,113.267971 L169.291916,114.679744 L169.333196,114.778816 L169.973035,116.314429 L170.051467,116.500188 C170.732586,118.159641 171.393064,119.819094 172.032903,121.490931 L172.094823,121.643666 L172.623206,123.043056 L172.65623,123.121488 L172.961701,123.947086 C173.300197,124.8635 173.634564,125.779914 173.964803,126.700457 L174.092771,127.059592 C174.456034,128.087462 174.81517,129.11946 175.161921,130.14733 L175.273377,130.473441 C175.599488,131.439391 175.913215,132.405341 176.226943,133.371292 L176.379679,133.846011 L176.41683,133.957466 L176.912189,135.521975 L176.932829,135.592151 L177.391037,137.086484 L177.849244,138.626225 L177.861628,138.659249 L178.241403,139.959567 L178.361115,140.380622 L178.592282,141.18558 C178.852346,142.114378 179.108281,143.039049 179.355961,143.967847 L179.54172,144.661349 L179.900856,146.031843 L179.917368,146.097891 C180.354935,147.782111 180.767734,149.466332 181.159893,151.146425 L181.197045,151.3198 L181.238325,151.497304 C181.750196,153.714036 182.220787,155.922511 182.654226,158.122731 L182.695506,158.341515 C183.364241,161.76362 183.938032,165.165085 184.412751,168.537655 L184.421007,168.583063 C184.569615,169.623317 184.705838,170.659443 184.833806,171.695569 L184.88747,172.141392 L185.060846,173.623341 L185.060846,173.627469 L185.209453,174.997962 L185.258989,175.452041 L185.366317,176.537703 L185.407597,176.97527 L185.424109,177.152774 L185.556205,178.642979 C173.737764,163.423073 159.620031,152.933845 142.678752,144.727397 C156.350662,117.697306 154.431145,98.4360957 151.793359,81.2801612" fill="url(#linearGradient-4)"></path>
	</g>
</svg>