<?xml version="1.0" encoding="UTF-8" standalone="no"?>
<svg width="256px" height="261px" viewBox="0 0 256 261" version="1.1" xmlns="http://www.w3.org/2000/svg" xmlns:xlink="http://www.w3.org/1999/xlink" preserveAspectRatio="xMidYMid">
	<g>
		<path d="M186.583,106.506 C174.506,73.657 138.078,56.995 105.313,69.016 L104.335,69.575 L104.894,70.721 C110.457,85.79 102.741,102.508 87.672,108.072 C80.851,110.588 73.722,110.252 67.404,107.904 C62.819,121.211 62.595,136.168 67.851,150.426 C79.956,183.219 116.356,200.021 149.149,187.916 C181.915,175.783 198.689,139.327 186.583,106.506" fill="#FA930D"></path>
		<path d="M116.552,99.517 C100.616,105.471 92.453,123.196 98.324,138.992 C104.223,154.955 121.919,163.118 137.883,157.219 C153.818,151.348 161.981,133.624 156.083,117.661 C150.24,101.837 132.487,93.674 116.552,99.517 M256,49.754 C256,46.874 254.91,44.442 252.981,42.513 C251.024,40.584 248.452,39.549 245.712,39.549 C242.972,39.577 240.4,40.64 238.471,42.569 L222.676,58.392 L218.454,53.108 L233.635,37.648 C235.564,35.831 236.598,33.175 236.598,30.408 C236.598,27.668 235.508,25.152 233.579,23.167 C231.622,21.266 229.05,20.231 226.31,20.259 C223.57,20.259 220.998,21.349 219.069,23.195 L204.084,38.347 L198.717,34.126 L214.205,18.47 C216.134,16.513 217.168,13.941 217.168,11.201 C217.168,8.322 216.078,5.889 214.149,3.904 C212.192,2.031 209.62,0.997 206.88,0.997 C204.14,0.997 201.568,2.059 199.639,3.96 L180.88,22.943 C152.476,8.378 118.453,5.358 86.191,17.24 L77.3,21.07 L17.836,12.347 L47.191,41.087 L40.286,48.076 L10.959,19.281 L20.464,77.235 C7.129,105.052 4.585,138.153 16.131,169.408 C17.864,174.245 20.045,178.83 22.337,183.135 L2.963,202.677 C1.062,204.662 0,207.206 0,209.974 C0,212.826 1.062,215.258 3.019,217.271 C4.976,219.116 7.548,220.178 10.26,220.178 C13.028,220.178 15.572,219.088 17.501,217.215 L33.604,201.028 L38.021,206.256 L22.365,221.995 C20.436,223.868 19.374,226.496 19.402,229.292 C19.402,232.004 20.492,234.548 22.421,236.505 C24.378,238.406 26.922,239.468 29.662,239.468 C32.402,239.412 34.974,238.322 36.903,236.449 L52.81,220.43 L58.178,224.679 L41.767,241.257 C39.838,243.214 38.776,245.758 38.776,248.554 C38.804,251.378 39.866,253.81 41.823,255.823 C43.78,257.668 46.324,258.73 49.064,258.73 C51.832,258.73 54.376,257.64 56.305,255.795 L76.462,235.414 C104.251,248.694 137.1,251.126 168.216,239.524 C176.771,236.421 184.682,232.227 191.979,227.419 L199.415,232.703 C200.841,233.821 201.4,238.154 198.912,241.341 L196.173,244.92 C194.467,246.988 193.74,249.756 194.048,252.496 C194.383,255.236 195.753,257.64 197.878,259.262 C200.059,260.995 202.742,261.722 205.426,261.358 C208.166,260.967 210.598,259.625 212.276,257.472 L215.798,253.027 C224.577,241.956 220.104,226.077 210.514,218.668 L206.712,216.068 C214.987,208.492 222.06,200.021 227.848,190.684 L230.951,192.557 C232.376,193.703 232.936,197.952 230.448,201.279 L227.708,204.774 C226.002,206.899 225.276,209.582 225.583,212.35 C225.919,215.09 227.288,217.578 229.441,219.116 C231.594,220.849 234.25,221.548 236.989,221.212 C239.701,220.849 242.105,219.479 243.811,217.354 L247.333,212.937 C256.112,201.754 251.611,186.043 242.049,178.523 L236.207,174.413 C247.501,147.686 249.178,116.766 238.331,87.411 L233.663,76.508 L253.009,56.939 C254.966,55.065 256,52.493 256,49.754 M54.348,155.402 C39.475,115.201 60.079,70.581 100.309,55.736 C140.539,40.891 185.214,61.412 200.087,101.753 C214.932,141.955 194.355,186.658 154.098,201.531 C113.896,216.152 69.221,195.632 54.348,155.402" fill="#136BA2"></path>
	</g>
</svg>