<?xml version="1.0" encoding="UTF-8"?>
<svg width="512px" height="135px" viewBox="0 0 512 135" version="1.1" xmlns="http://www.w3.org/2000/svg" preserveAspectRatio="xMidYMid">
    <title>Zabbix</title>
    <g>
        <rect fill="#D40000" x="0" y="0" width="512" height="134.095238"></rect>
        <path d="M21.9428571,20.4190476 L96,20.4190476 L96,30.1714286 L36.2666667,103.009524 L97.5238095,103.009524 L97.5238095,113.67619 L20.4190476,113.67619 L20.4190476,103.92381 L80.152381,31.0857143 L21.9428571,31.0857143 L21.9428571,20.4190476 Z M147.504762,32.9142857 L130.133333,79.2380952 L164.87619,79.2380952 L147.504762,32.9142857 Z M140.190476,20.4190476 L154.514286,20.4190476 L190.47619,113.67619 L177.371429,113.67619 L168.838095,89.9047619 L126.171429,89.9047619 L117.638095,113.67619 L104.228571,113.67619 L140.190476,20.4190476 Z M216.990476,69.1809524 L216.990476,103.314286 L237.409524,103.314286 C244.419048,103.314286 249.295238,101.790476 252.647619,99.047619 C256,96.3047619 257.52381,92.0380952 257.52381,86.247619 C257.52381,80.4571429 256,76.1904762 252.647619,73.447619 C249.295238,70.7047619 244.114286,69.1809524 237.409524,69.1809524 L216.990476,69.1809524 Z M216.990476,30.7809524 L216.990476,58.8190476 L235.885714,58.8190476 C241.980952,58.8190476 246.857143,57.6 249.904762,55.4666667 C252.952381,53.0285714 254.47619,49.6761905 254.47619,44.8 C254.47619,40.2285714 252.952381,36.5714286 249.904762,34.1333333 C246.857143,31.6952381 242.285714,30.7809524 235.885714,30.7809524 L216.990476,30.7809524 Z M204.190476,20.4190476 L236.8,20.4190476 C246.552381,20.4190476 253.866667,22.552381 259.352381,26.5142857 C264.533333,30.4761905 267.27619,36.2666667 267.27619,43.5809524 C267.27619,49.3714286 266.057143,53.9428571 263.314286,57.2952381 C260.571429,60.647619 256.609524,62.7809524 251.428571,63.6952381 C257.828571,64.9142857 262.704762,67.6571429 266.057143,71.9238095 C269.409524,76.1904762 271.238095,81.3714286 271.238095,87.7714286 C271.238095,96 268.495238,102.4 262.704762,106.971429 C256.914286,111.542857 248.990476,113.67619 238.32381,113.67619 L204.190476,113.67619 L204.190476,20.4190476 Z M304.457143,69.1809524 L304.457143,103.314286 L324.87619,103.314286 C331.580952,103.314286 336.761905,101.790476 340.114286,99.047619 C343.466667,96.3047619 344.990476,92.0380952 344.990476,86.247619 C344.990476,80.4571429 343.466667,76.1904762 340.114286,73.447619 C336.761905,70.7047619 331.580952,69.1809524 324.87619,69.1809524 L304.457143,69.1809524 Z M304.457143,30.7809524 L304.457143,58.8190476 L323.352381,58.8190476 C329.447619,58.8190476 334.32381,57.6 337.371429,55.4666667 C340.419048,53.0285714 341.942857,49.6761905 341.942857,44.8 C341.942857,40.2285714 340.419048,36.5714286 337.371429,34.1333333 C334.32381,31.6952381 329.752381,30.7809524 323.352381,30.7809524 L304.457143,30.7809524 Z M291.657143,20.4190476 L324.266667,20.4190476 C334.019048,20.4190476 341.333333,22.552381 346.819048,26.5142857 C352,30.4761905 354.742857,36.2666667 354.742857,43.5809524 C354.742857,49.3714286 353.52381,53.9428571 350.780952,57.2952381 C348.038095,60.647619 344.07619,62.7809524 338.895238,63.6952381 C345.295238,64.9142857 350.171429,67.6571429 353.52381,71.9238095 C356.87619,76.1904762 358.704762,81.3714286 358.704762,87.7714286 C358.704762,96 355.961905,102.4 350.171429,106.971429 C344.380952,111.542857 336.457143,113.67619 325.790476,113.67619 L291.657143,113.67619 L291.657143,20.4190476 Z M378.819048,20.4190476 L391.619048,20.4190476 L391.619048,113.67619 L378.819048,113.67619 L378.819048,20.4190476 Z M415.695238,20.4190476 L429.714286,20.4190476 L451.961905,53.9428571 L474.514286,20.4190476 L487.92381,20.4190476 L458.666667,64 L491.580952,113.67619 L477.561905,113.67619 L451.657143,74.6666667 L425.752381,113.67619 L412.038095,113.67619 L444.952381,64.3047619 L415.695238,20.4190476 Z" fill="#FFFFFF"></path>
    </g>
</svg>
