<?xml version="1.0" encoding="UTF-8" standalone="no"?>
<svg width="256px" height="161px" viewBox="0 0 256 161" version="1.1" xmlns="http://www.w3.org/2000/svg" xmlns:xlink="http://www.w3.org/1999/xlink" preserveAspectRatio="xMidYMid">
    <g>
        <path d="M82.4251,0 L36.2951,79.9 L59.0991,119.287 L127.9371,0.056 L82.4251,0 Z M174.8811,0.113 L150.8731,0.084 L70.5911,139.135 L82.6211,159.912 L175.0771,160.025 L221.2071,80.126 L174.8811,0.113 Z M11.957,91.2895 C5.354,91.2895 0,85.9785 0,79.4265 C0,72.8755 5.354,67.5645 11.957,67.5645 C18.56,67.5645 23.914,72.8755 23.914,79.4265 C23.914,85.9785 18.56,91.2895 11.957,91.2895 Z M244.044,91.2895 C237.441,91.2895 232.087,85.9785 232.087,79.4265 C232.087,72.8755 237.441,67.5645 244.044,67.5645 C250.647,67.5645 256.001,72.8755 256.001,79.4265 C256.001,85.9785 250.647,91.2895 244.044,91.2895 Z" fill="#26CDAF"></path>
    </g>
</svg>
