<?xml version="1.0" encoding="UTF-8" standalone="no"?><svg width="17" height="24" viewBox="0 0 17 24" xmlns="http://www.w3.org/2000/svg" xmlns:xlink="http://www.w3.org/1999/xlink"><view id="caret-down" viewBox="0 0 17 10"/><svg width="17" height="10" viewBox="0 0 17 10"><path d="M.402 2.134L7.408 9.11c.196.197.42.31.7.31.252 0 .504-.113.7-.31l7.005-6.976c.196-.196.28-.448.28-.7 0-.28-.084-.504-.28-.7-.196-.196-.448-.31-.7-.31H1.102c-.28 0-.505.114-.7.31-.197.196-.31.42-.31.7 0 .252.113.504.31.7" fill="#0A0B09" fill-rule="evenodd"/></svg><view id="check" viewBox="0 10 17 14"/><svg width="17" height="14" viewBox="0 0 17 14" y="10"><path d="M1.01 7.688l5.147 5.148c.185.185.426.277.704.277.28 0 .52-.092.705-.277l8.89-8.89c.184-.203.276-.425.276-.703 0-.278-.09-.52-.276-.704L15.046 1.13c-.185-.204-.426-.296-.704-.296-.278 0-.518.092-.703.296L6.86 7.91 3.825 4.873c-.186-.204-.426-.297-.704-.297-.278 0-.52.093-.703.297L1.01 6.28c-.186.185-.28.426-.28.704 0 .278.094.5.28.704" fill="#0A0B09" fill-rule="evenodd"/></svg></svg>