<?xml version="1.0" encoding="UTF-8" standalone="no"?><svg xmlns="http://www.w3.org/2000/svg" xmlns:xlink="http://www.w3.org/1999/xlink"><symbol viewBox="0 0 17 10" id="caret-down"><path d="M.402 2.134L7.408 9.11c.196.197.42.31.7.31.252 0 .504-.113.7-.31l7.005-6.976c.196-.196.28-.448.28-.7 0-.28-.084-.504-.28-.7-.196-.196-.448-.31-.7-.31H1.102c-.28 0-.505.114-.7.31-.197.196-.31.42-.31.7 0 .252.113.504.31.7"/></symbol><symbol viewBox="0 0 16 10" id="caret-up"><path d="M1.087 9.198H14.9c.248 0 .497-.11.69-.304.193-.194.276-.414.276-.69 0-.25-.083-.498-.276-.69L8.683.633C8.49.44 8.24.33 7.993.33c-.276 0-.498.11-.69.304L.395 7.514c-.193.192-.304.44-.304.69 0 .276.11.496.304.69.194.193.414.304.69.304" fill-rule="evenodd"/></symbol><symbol viewBox="0 0 17 14" id="check"><path d="M1.01 7.688l5.147 5.148c.185.185.426.277.704.277.28 0 .52-.092.705-.277l8.89-8.89c.184-.203.276-.425.276-.703 0-.278-.09-.52-.276-.704L15.046 1.13c-.185-.204-.426-.296-.704-.296-.278 0-.518.092-.703.296L6.86 7.91 3.825 4.873c-.186-.204-.426-.297-.704-.297-.278 0-.52.093-.703.297L1.01 6.28c-.186.185-.28.426-.28.704 0 .278.094.5.28.704"/></symbol><symbol viewBox="0 0 16 12" id="cloud"><path d="M1.344 10.415c.704.704 1.55 1.05 2.543 1.05h8.72c.847 0 1.565-.302 2.17-.906.602-.604.904-1.322.904-2.17 0-.732-.23-1.365-.675-1.925-.445-.56-1.02-.92-1.71-1.077.23-.345.33-.704.33-1.106 0-.575-.2-1.05-.602-1.45-.402-.403-.876-.605-1.45-.605-.504 0-.95.173-1.323.503-.316-.76-.818-1.38-1.508-1.853-.69-.474-1.45-.704-2.298-.704-1.12 0-2.098.402-2.902 1.207-.79.804-1.193 1.767-1.193 2.902 0 .07 0 .186.014.345-.618.287-1.12.718-1.494 1.306-.388.59-.575 1.236-.575 1.94 0 .99.345 1.84 1.05 2.542"/></symbol><symbol viewBox="0 0 16 23" id="level-up"><path d="M.59 22.043h10.857c.14 0 .277-.055.36-.138.083-.083.138-.22.138-.36V8.23H14.9c.416 0 .72-.193.913-.58.166-.36.138-.718-.166-1.022L10.73.688c-.193-.22-.442-.33-.746-.33-.332 0-.58.11-.774.33L4.293 6.6c-.276.332-.33.69-.166 1.05.193.387.497.58.912.58h2.955v9.862H3.05c-.166 0-.277.056-.387.166l-2.46 2.957c-.11.165-.137.33-.054.55.08.196.22.278.44.278" fill-rule="evenodd"/></symbol><symbol viewBox="0 0 18 15" id="navicon"><path d="M1.1 14.124c.13.132.282.208.47.208h14.84c.187 0 .34-.076.49-.208.133-.132.19-.284.19-.472V12.31c0-.19-.057-.34-.19-.473-.15-.132-.303-.208-.49-.208H1.57c-.188 0-.34.075-.47.207-.134.132-.21.284-.21.472v1.342c0 .188.076.34.21.472zm0-5.405c.13.13.282.206.47.206h14.84c.187 0 .34-.075.49-.207.133-.134.19-.285.19-.475v-1.34c0-.19-.057-.34-.19-.473-.15-.133-.303-.208-.49-.208H1.57c-.188 0-.34.075-.47.208-.134.132-.21.283-.21.472v1.34c0 .19.076.342.21.475zm0-5.388c.13.132.282.208.47.208h14.84c.187 0 .34-.076.49-.208.133-.133.19-.284.19-.473V1.516c0-.19-.057-.34-.19-.472-.15-.133-.303-.208-.49-.208H1.57c-.188 0-.34.075-.47.208-.134.132-.21.283-.21.472V2.86c0 .188.076.34.21.472z"/></symbol><symbol viewBox="0 0 16 17" id="search"><path d="M2.018 12.33c.598.6 1.316 1.08 2.137 1.438.838.36 1.71.53 2.617.53 1.402 0 2.667-.393 3.813-1.18l3.266 3.266c.24.24.515.36.856.36.342 0 .617-.12.873-.36.238-.256.358-.53.358-.872 0-.325-.12-.616-.36-.855l-3.266-3.266c.787-1.145 1.18-2.41 1.18-3.812 0-.907-.17-1.78-.53-2.618-.36-.82-.838-1.54-1.436-2.137-.6-.6-1.317-1.077-2.138-1.437-.838-.36-1.71-.53-2.616-.53-.907 0-1.78.17-2.617.53-.82.36-1.54.838-2.137 1.437C1.418 3.42.94 4.14.58 4.96.223 5.798.05 6.67.05 7.578c0 .905.172 1.778.53 2.616.36.82.84 1.54 1.438 2.137zm4.754-9.028c1.18 0 2.19.41 3.027 1.248.836.84 1.247 1.847 1.247 3.028 0 1.18-.41 2.188-1.248 3.027-.84.837-1.85 1.248-3.028 1.248-1.18 0-2.19-.41-3.027-1.248-.838-.84-1.25-1.848-1.25-3.027 0-1.18.412-2.19 1.25-3.028.838-.838 1.847-1.248 3.027-1.248z" fill-rule="evenodd"/></symbol><symbol viewBox="0 0 18 17" id="times-circle"><path d="M4.915 15.286c1.248.718 2.61 1.078 4.083 1.078 1.455 0 2.816-.36 4.063-1.078 1.23-.737 2.213-1.72 2.95-2.948.72-1.248 1.078-2.61 1.078-4.084 0-1.455-.36-2.816-1.077-4.063-.737-1.227-1.72-2.21-2.95-2.948C11.815.524 10.454.165 9 .165c-1.474 0-2.835.36-4.083 1.077-1.23.737-2.21 1.72-2.948 2.95C1.247 5.437.89 6.798.89 8.253c0 1.475.358 2.836 1.077 4.084.737 1.228 1.72 2.21 2.948 2.948zm.264-5.123l1.91-1.91-1.91-1.888c-.133-.152-.208-.303-.208-.492 0-.19.075-.34.207-.473l.945-.944c.132-.133.284-.208.472-.208.19 0 .34.075.492.208l1.908 1.91 1.89-1.91c.152-.133.302-.208.492-.208.188 0 .34.075.472.208l.945.944c.132.133.208.284.208.473 0 .19-.076.34-.208.492l-1.91 1.89 1.91 1.908c.132.152.208.304.208.492 0 .19-.076.34-.208.473l-.945.944c-.132.133-.284.208-.472.208-.19 0-.34-.075-.492-.208l-1.89-1.91-1.91 1.91c-.15.133-.302.208-.49.208-.19 0-.34-.075-.473-.208l-.946-.944c-.133-.133-.208-.283-.208-.473 0-.188.075-.34.207-.492z" fill-rule="evenodd"/></symbol></svg>